<?xml version="1.0" encoding="us-ascii" standalone="no"?><svg xmlns="http://www.w3.org/2000/svg" xmlns:xlink="http://www.w3.org/1999/xlink" contentStyleType="text/css" height="328.8px" preserveAspectRatio="none" style="width:531px;height:328px;background:#FFFFFF;" version="1.1" viewBox="0 0 531 328" width="531px" zoomAndPan="magnify"><defs/><g><text fill="#000000" font-family="sans-serif" font-size="8.4" font-weight="bold" lengthAdjust="spacing" textLength="239.4" x="143.7" y="18.0645">Sequence Diagram (Level 3 - Process View - UI) - US 1000</text><rect fill="#FFFFFF" height="18.7746" style="stroke:#181818;stroke-width:0.6;" width="6" x="126" y="78.0926"/><rect fill="#FFFFFF" height="168.7676" style="stroke:#181818;stroke-width:0.6;" width="6" x="126" y="115.6418"/><rect fill="#FFFFFF" height="131.2184" style="stroke:#181818;stroke-width:0.6;" width="6" x="279.6" y="134.4164"/><rect fill="#FFFFFF" height="56.3238" style="stroke:#181818;stroke-width:0.6;" width="6" x="415.2" y="190.5363"/><line style="stroke:#181818;stroke-width:0.3;stroke-dasharray:5.0,5.0;" x1="128.7" x2="128.7" y1="58.118" y2="295.2094"/><line style="stroke:#181818;stroke-width:0.3;stroke-dasharray:5.0,5.0;" x1="282.3" x2="282.3" y1="58.118" y2="295.2094"/><line style="stroke:#181818;stroke-width:0.3;stroke-dasharray:5.0,5.0;" x1="350.1" x2="350.1" y1="163.8891" y2="295.2094"/><line style="stroke:#181818;stroke-width:0.3;stroke-dasharray:5.0,5.0;" x1="417.9" x2="417.9" y1="58.118" y2="295.2094"/><rect fill="#E3E3E3" height="30.7453" rx="1.5" ry="1.5" style="stroke:#181818;stroke-width:0.3;" width="61.8" x="98.1" y="26.7727"/><text fill="#000000" font-family="sans-serif" font-size="8.4" font-style="italic" lengthAdjust="spacing" textLength="53.4" x="102.3" y="40.0371">&#171;Component&#187;</text><text fill="#000000" font-family="sans-serif" font-size="8.4" lengthAdjust="spacing" textLength="17.4" x="120.3" y="51.2098">View</text><rect fill="#E3E3E3" height="30.7453" rx="1.5" ry="1.5" style="stroke:#181818;stroke-width:0.3;" width="61.8" x="98.1" y="294.6094"/><text fill="#000000" font-family="sans-serif" font-size="8.4" font-style="italic" lengthAdjust="spacing" textLength="53.4" x="102.3" y="307.8738">&#171;Component&#187;</text><text fill="#000000" font-family="sans-serif" font-size="8.4" lengthAdjust="spacing" textLength="17.4" x="120.3" y="319.0465">View</text><rect fill="#E3E3E3" height="30.7453" rx="1.5" ry="1.5" style="stroke:#181818;stroke-width:0.3;" width="61.8" x="251.7" y="26.7727"/><text fill="#000000" font-family="sans-serif" font-size="8.4" font-style="italic" lengthAdjust="spacing" textLength="53.4" x="255.9" y="40.0371">&#171;Component&#187;</text><text fill="#000000" font-family="sans-serif" font-size="8.4" lengthAdjust="spacing" textLength="43.8" x="260.7" y="51.2098">Component</text><rect fill="#E3E3E3" height="30.7453" rx="1.5" ry="1.5" style="stroke:#181818;stroke-width:0.3;" width="61.8" x="251.7" y="294.6094"/><text fill="#000000" font-family="sans-serif" font-size="8.4" font-style="italic" lengthAdjust="spacing" textLength="53.4" x="255.9" y="307.8738">&#171;Component&#187;</text><text fill="#000000" font-family="sans-serif" font-size="8.4" lengthAdjust="spacing" textLength="43.8" x="260.7" y="319.0465">Component</text><rect fill="#E3E3E3" height="30.7453" rx="1.5" ry="1.5" style="stroke:#181818;stroke-width:0.3;" width="61.8" x="319.5" y="294.6094"/><text fill="#000000" font-family="sans-serif" font-size="8.4" font-style="italic" lengthAdjust="spacing" textLength="53.4" x="323.7" y="307.8738">&#171;Component&#187;</text><text fill="#000000" font-family="sans-serif" font-size="8.4" lengthAdjust="spacing" textLength="22.8" x="339" y="319.0465">Model</text><rect fill="#E3E3E3" height="30.7453" rx="1.5" ry="1.5" style="stroke:#181818;stroke-width:0.3;" width="61.8" x="387.3" y="26.7727"/><text fill="#000000" font-family="sans-serif" font-size="8.4" font-style="italic" lengthAdjust="spacing" textLength="53.4" x="391.5" y="40.0371">&#171;Component&#187;</text><text fill="#000000" font-family="sans-serif" font-size="8.4" lengthAdjust="spacing" textLength="28.2" x="404.1" y="51.2098">Service</text><rect fill="#E3E3E3" height="30.7453" rx="1.5" ry="1.5" style="stroke:#181818;stroke-width:0.3;" width="61.8" x="387.3" y="294.6094"/><text fill="#000000" font-family="sans-serif" font-size="8.4" font-style="italic" lengthAdjust="spacing" textLength="53.4" x="391.5" y="307.8738">&#171;Component&#187;</text><text fill="#000000" font-family="sans-serif" font-size="8.4" lengthAdjust="spacing" textLength="28.2" x="404.1" y="319.0465">Service</text><rect fill="#FFFFFF" height="18.7746" style="stroke:#181818;stroke-width:0.6;" width="6" x="126" y="78.0926"/><rect fill="#FFFFFF" height="168.7676" style="stroke:#181818;stroke-width:0.6;" width="6" x="126" y="115.6418"/><rect fill="#FFFFFF" height="131.2184" style="stroke:#181818;stroke-width:0.6;" width="6" x="279.6" y="134.4164"/><rect fill="#FFFFFF" height="56.3238" style="stroke:#181818;stroke-width:0.6;" width="6" x="415.2" y="190.5363"/><ellipse cx="17.7" cy="77.6426" fill="none" rx="2.4" ry="2.4" style="stroke:#181818;stroke-width:0.8999999999999999;"/><polygon fill="#181818" points="118.8,75.6926,124.8,78.0926,118.8,80.4926,121.2,78.0926" style="stroke:#181818;stroke-width:0.6;"/><line style="stroke:#181818;stroke-width:0.6;" x1="20.4" x2="122.4" y1="78.0926" y2="78.0926"/><text fill="#000000" font-family="sans-serif" font-size="7.8" font-weight="bold" lengthAdjust="spacing" textLength="4.2" x="22.2" y="74.935">1</text><text fill="#000000" font-family="sans-serif" font-size="7.8" lengthAdjust="spacing" textLength="88.2" x="28.8" y="74.935">Ask to create device type</text><polygon fill="#181818" points="6.6,94.4672,0.6,96.8672,6.6,99.2672,4.2,96.8672" style="stroke:#181818;stroke-width:0.6;"/><line style="stroke:#181818;stroke-width:0.6;stroke-dasharray:2.0,2.0;" x1="3" x2="128.4" y1="96.8672" y2="96.8672"/><text fill="#000000" font-family="sans-serif" font-size="7.8" font-weight="bold" lengthAdjust="spacing" textLength="4.2" x="10.2" y="93.7096">2</text><text fill="#000000" font-family="sans-serif" font-size="7.8" lengthAdjust="spacing" textLength="61.8" x="16.8" y="93.7096">Ask to insert data</text><ellipse cx="27.9" cy="115.1918" fill="none" rx="2.4" ry="2.4" style="stroke:#181818;stroke-width:0.8999999999999999;"/><polygon fill="#181818" points="118.8,113.2418,124.8,115.6418,118.8,118.0418,121.2,115.6418" style="stroke:#181818;stroke-width:0.6;"/><line style="stroke:#181818;stroke-width:0.6;" x1="30.6" x2="122.4" y1="115.6418" y2="115.6418"/><text fill="#000000" font-family="sans-serif" font-size="7.8" font-weight="bold" lengthAdjust="spacing" textLength="4.2" x="32.4" y="112.4842">3</text><text fill="#000000" font-family="sans-serif" font-size="7.8" lengthAdjust="spacing" textLength="78" x="39" y="112.4842">Insert device type data</text><polygon fill="#181818" points="272.4,132.0164,278.4,134.4164,272.4,136.8164,274.8,134.4164" style="stroke:#181818;stroke-width:0.6;"/><line style="stroke:#181818;stroke-width:0.6;" x1="132" x2="276" y1="134.4164" y2="134.4164"/><text fill="#000000" font-family="sans-serif" font-size="7.8" font-weight="bold" lengthAdjust="spacing" textLength="4.2" x="136.2" y="131.2588">4</text><text fill="#000000" font-family="sans-serif" font-size="7.8" lengthAdjust="spacing" textLength="66" x="142.8" y="131.2588">createDeviceType()</text><polygon fill="#181818" points="312.3,150.791,318.3,153.191,312.3,155.591,314.7,153.191" style="stroke:#181818;stroke-width:0.6;"/><line style="stroke:#181818;stroke-width:0.6;stroke-dasharray:2.0,2.0;" x1="285.6" x2="315.9" y1="153.191" y2="153.191"/><text fill="#000000" font-family="sans-serif" font-size="7.8" font-weight="bold" lengthAdjust="spacing" textLength="4.2" x="289.8" y="150.0334">5</text><text fill="#000000" font-family="sans-serif" font-size="7.8" lengthAdjust="spacing" textLength="2.4" x="296.4" y="150.0334">&#160;</text><rect fill="#E3E3E3" height="30.7453" rx="1.5" ry="1.5" style="stroke:#181818;stroke-width:0.3;" width="61.8" x="319.5" y="139.2164"/><text fill="#000000" font-family="sans-serif" font-size="8.4" font-style="italic" lengthAdjust="spacing" textLength="53.4" x="323.7" y="152.4809">&#171;Component&#187;</text><text fill="#000000" font-family="sans-serif" font-size="8.4" lengthAdjust="spacing" textLength="22.8" x="339" y="163.6535">Model</text><polygon fill="#181818" points="408,188.1363,414,190.5363,408,192.9363,410.4,190.5363" style="stroke:#181818;stroke-width:0.6;"/><line style="stroke:#181818;stroke-width:0.6;" x1="285.6" x2="411.6" y1="190.5363" y2="190.5363"/><text fill="#000000" font-family="sans-serif" font-size="7.8" font-weight="bold" lengthAdjust="spacing" textLength="4.2" x="289.8" y="187.3787">6</text><text fill="#000000" font-family="sans-serif" font-size="7.8" lengthAdjust="spacing" textLength="104.4" x="296.4" y="187.3787">createDeviceType(deviceType)</text><polygon fill="#181818" points="520.2,206.9109,526.2,209.3109,520.2,211.7109,522.6,209.3109" style="stroke:#181818;stroke-width:0.6;"/><line style="stroke:#181818;stroke-width:0.6;" x1="421.2" x2="523.8" y1="209.3109" y2="209.3109"/><text fill="#000000" font-family="sans-serif" font-size="7.8" font-weight="bold" lengthAdjust="spacing" textLength="4.2" x="425.4" y="206.1533">7</text><text fill="#000000" font-family="sans-serif" font-size="7.8" lengthAdjust="spacing" textLength="85.2" x="432" y="206.1533">POST (.../devices/types)</text><polygon fill="#181818" points="427.8,225.6855,421.8,228.0855,427.8,230.4855,425.4,228.0855" style="stroke:#181818;stroke-width:0.6;"/><line style="stroke:#181818;stroke-width:0.6;stroke-dasharray:2.0,2.0;" x1="424.2" x2="526.8" y1="228.0855" y2="228.0855"/><text fill="#000000" font-family="sans-serif" font-size="7.8" font-weight="bold" lengthAdjust="spacing" textLength="4.2" x="431.4" y="224.9279">8</text><text fill="#000000" font-family="sans-serif" font-size="7.8" lengthAdjust="spacing" textLength="54" x="438" y="224.9279">status: 201/400</text><polygon fill="#181818" points="292.2,244.4602,286.2,246.8602,292.2,249.2602,289.8,246.8602" style="stroke:#181818;stroke-width:0.6;"/><line style="stroke:#181818;stroke-width:0.6;stroke-dasharray:2.0,2.0;" x1="288.6" x2="417.6" y1="246.8602" y2="246.8602"/><text fill="#000000" font-family="sans-serif" font-size="7.8" font-weight="bold" lengthAdjust="spacing" textLength="4.2" x="295.8" y="243.7025">9</text><text fill="#000000" font-family="sans-serif" font-size="7.8" lengthAdjust="spacing" textLength="54.6" x="302.4" y="243.7025">Success / Error</text><polygon fill="#181818" points="138.6,263.2348,132.6,265.6348,138.6,268.0348,136.2,265.6348" style="stroke:#181818;stroke-width:0.6;"/><line style="stroke:#181818;stroke-width:0.6;stroke-dasharray:2.0,2.0;" x1="135" x2="282" y1="265.6348" y2="265.6348"/><text fill="#000000" font-family="sans-serif" font-size="7.8" font-weight="bold" lengthAdjust="spacing" textLength="8.4" x="142.2" y="262.4771">10</text><text fill="#000000" font-family="sans-serif" font-size="7.8" lengthAdjust="spacing" textLength="122.4" x="153" y="262.4771">Information about the success/error</text><polygon fill="#181818" points="6.6,282.0094,0.6,284.4094,6.6,286.8094,4.2,284.4094" style="stroke:#181818;stroke-width:0.6;"/><line style="stroke:#181818;stroke-width:0.6;stroke-dasharray:2.0,2.0;" x1="3" x2="128.4" y1="284.4094" y2="284.4094"/><text fill="#000000" font-family="sans-serif" font-size="7.8" font-weight="bold" lengthAdjust="spacing" textLength="8.4" x="10.2" y="281.2518">11</text><text fill="#000000" font-family="sans-serif" font-size="7.8" lengthAdjust="spacing" textLength="103.8" x="21" y="281.2518">Device type created/data error</text><!--SRC=[VP9FR-CW4CNlV8fHJqabn-cVanMvgZPxgBJLLd9txnCyJL1iyC8uLR_z0dQ94wNbO07pUm_y6BTNkaEBBRH66xcpfYLWsvDmgTAXtEEMAlve22n9Hhrjfe3ROMtUbTx26pQEX6357gteNqzQ4gmLRWCt-qK7Qk0ECdYnHf9py5VHkr_-UPg7RmKto-LIOCz6z-s6h13-15PITQWPhW9z1JZALgiVfksC9irbUGgcGgJJwZl9iwcfYNYSVOTMP0zAKeJ7-Hak7anM3hSiuD7jWGr8IyW4DKMUFpeIA5aTmcOWnIhBpYHAEx8CDJAAcaxfaoEUHl3eFOXE9U3747WvoQGORxQEubUldSqZciI9ZTjX7DMPzug1NLz3SQbUfeWk75IdwJnfqx6ZBXN2-FJojWMy_AvUORPOBFB1n-NXpztyeiAdMu1ZvDuLSBkyoUzzfrsqFakdwcLirHn-McjiqamUvFEcN-IJ7kdDs1PP6GsuCJq3xmZSO9zJCfyO7vEVDCTwyif3edKUNXi6Y_D6-Gy0]--></g></svg>