<?xml version="1.0" encoding="us-ascii" standalone="no"?><svg xmlns="http://www.w3.org/2000/svg" xmlns:xlink="http://www.w3.org/1999/xlink" contentStyleType="text/css" height="773px" preserveAspectRatio="none" style="width:1243px;height:773px;background:#FFFFFF;" version="1.1" viewBox="0 0 1243 773" width="1243px" zoomAndPan="magnify"><defs/><g><text fill="#000000" font-family="sans-serif" font-size="14" font-weight="bold" lengthAdjust="spacing" textLength="408" x="416.5" y="30.1074">Sequence Diagram (Level 3 - Process View - MD) - US 1000</text><rect fill="#FFFFFF" height="531.9277" style="stroke:#181818;stroke-width:1.0;" width="10" x="180" y="148.7754"/><rect fill="#FFFFFF" height="469.3457" style="stroke:#181818;stroke-width:1.0;" width="10" x="351" y="180.0664"/><rect fill="#FFFFFF" height="391.7637" style="stroke:#181818;stroke-width:1.0;" width="10" x="356" y="219.3574"/><rect fill="#FFFFFF" height="237.3184" style="stroke:#181818;stroke-width:1.0;" width="10" x="743.5" y="336.5117"/><rect fill="#FFFFFF" height="93.873" style="stroke:#181818;stroke-width:1.0;" width="10" x="1038" y="448.666"/><rect fill="#FFFFFF" height="31.291" style="stroke:#181818;stroke-width:1.0;" width="10" x="1186" y="479.957"/><line style="stroke:#181818;stroke-width:0.5;stroke-dasharray:5.0,5.0;" x1="184.5" x2="184.5" y1="115.4844" y2="698.7031"/><line style="stroke:#181818;stroke-width:0.5;stroke-dasharray:5.0,5.0;" x1="356" x2="356" y1="115.4844" y2="698.7031"/><line style="stroke:#181818;stroke-width:0.5;stroke-dasharray:5.0,5.0;" x1="578" x2="578" y1="282.7891" y2="698.7031"/><line style="stroke:#181818;stroke-width:0.5;stroke-dasharray:5.0,5.0;" x1="748" x2="748" y1="115.4844" y2="698.7031"/><line style="stroke:#181818;stroke-width:0.5;stroke-dasharray:5.0,5.0;" x1="903" x2="903" y1="394.9434" y2="698.7031"/><line style="stroke:#181818;stroke-width:0.5;stroke-dasharray:5.0,5.0;" x1="1043" x2="1043" y1="115.4844" y2="698.7031"/><line style="stroke:#181818;stroke-width:0.5;stroke-dasharray:5.0,5.0;" x1="1191" x2="1191" y1="115.4844" y2="698.7031"/><rect fill="#E3E3E3" height="51.2422" rx="2.5" ry="2.5" style="stroke:#181818;stroke-width:0.5;" width="93" x="138.5" y="63.2422"/><text fill="#000000" font-family="sans-serif" font-size="14" font-style="italic" lengthAdjust="spacing" textLength="54" x="158" y="85.3496">&#171;Route&#187;</text><text fill="#000000" font-family="sans-serif" font-size="14" lengthAdjust="spacing" textLength="79" x="145.5" y="103.9707">deviceRoute</text><rect fill="#E3E3E3" height="51.2422" rx="2.5" ry="2.5" style="stroke:#181818;stroke-width:0.5;" width="93" x="138.5" y="697.7031"/><text fill="#000000" font-family="sans-serif" font-size="14" font-style="italic" lengthAdjust="spacing" textLength="54" x="158" y="719.8105">&#171;Route&#187;</text><text fill="#000000" font-family="sans-serif" font-size="14" lengthAdjust="spacing" textLength="79" x="145.5" y="738.4316">deviceRoute</text><rect fill="#E3E3E3" height="69.8633" rx="2.5" ry="2.5" style="stroke:#181818;stroke-width:0.5;" width="158" x="277" y="44.6211"/><text fill="#000000" font-family="sans-serif" font-size="14" font-style="italic" lengthAdjust="spacing" textLength="78" x="317" y="66.7285">&#171;Controller&#187;</text><text fill="#000000" font-family="sans-serif" font-size="14" lengthAdjust="spacing" textLength="102" x="305" y="85.3496">ctrlDeviceType :</text><text fill="#000000" font-family="sans-serif" font-size="14" lengthAdjust="spacing" textLength="140" x="288" y="103.9707">IDeviceTypeController</text><rect fill="#E3E3E3" height="69.8633" rx="2.5" ry="2.5" style="stroke:#181818;stroke-width:0.5;" width="158" x="277" y="697.7031"/><text fill="#000000" font-family="sans-serif" font-size="14" font-style="italic" lengthAdjust="spacing" textLength="78" x="317" y="719.8105">&#171;Controller&#187;</text><text fill="#000000" font-family="sans-serif" font-size="14" lengthAdjust="spacing" textLength="102" x="305" y="738.4316">ctrlDeviceType :</text><text fill="#000000" font-family="sans-serif" font-size="14" lengthAdjust="spacing" textLength="140" x="288" y="757.0527">IDeviceTypeController</text><rect fill="#E3E3E3" height="69.8633" rx="2.5" ry="2.5" style="stroke:#181818;stroke-width:0.5;" width="126" x="515" y="697.7031"/><text fill="#000000" font-family="sans-serif" font-size="14" font-style="italic" lengthAdjust="spacing" textLength="46" x="555" y="719.8105">&#171;DTO&#187;</text><text fill="#000000" font-family="sans-serif" font-size="14" lengthAdjust="spacing" textLength="111" x="522.5" y="738.4316">deviceTypeDTO :</text><text fill="#000000" font-family="sans-serif" font-size="14" lengthAdjust="spacing" textLength="108" x="526" y="757.0527">IDeviceTypeDTO</text><rect fill="#E3E3E3" height="69.8633" rx="2.5" ry="2.5" style="stroke:#181818;stroke-width:0.5;" width="195" x="651" y="44.6211"/><text fill="#000000" font-family="sans-serif" font-size="14" font-style="italic" lengthAdjust="spacing" textLength="62" x="717.5" y="66.7285">&#171;Service&#187;</text><text fill="#000000" font-family="sans-serif" font-size="14" lengthAdjust="spacing" textLength="181" x="658" y="85.3496">deviceTypeServiceInstance :</text><text fill="#000000" font-family="sans-serif" font-size="14" lengthAdjust="spacing" textLength="125" x="688" y="103.9707">IDeviceTypeService</text><rect fill="#E3E3E3" height="69.8633" rx="2.5" ry="2.5" style="stroke:#181818;stroke-width:0.5;" width="195" x="651" y="697.7031"/><text fill="#000000" font-family="sans-serif" font-size="14" font-style="italic" lengthAdjust="spacing" textLength="62" x="717.5" y="719.8105">&#171;Service&#187;</text><text fill="#000000" font-family="sans-serif" font-size="14" lengthAdjust="spacing" textLength="181" x="658" y="738.4316">deviceTypeServiceInstance :</text><text fill="#000000" font-family="sans-serif" font-size="14" lengthAdjust="spacing" textLength="125" x="688" y="757.0527">IDeviceTypeService</text><rect fill="#E3E3E3" height="69.8633" rx="2.5" ry="2.5" style="stroke:#181818;stroke-width:0.5;" width="95" x="856" y="697.7031"/><text fill="#000000" font-family="sans-serif" font-size="14" font-style="italic" lengthAdjust="spacing" textLength="64" x="871.5" y="719.8105">&#171;Domain&#187;</text><text fill="#000000" font-family="sans-serif" font-size="14" lengthAdjust="spacing" textLength="81" x="863" y="738.4316">deviceType :</text><text fill="#000000" font-family="sans-serif" font-size="14" lengthAdjust="spacing" textLength="73" x="869" y="757.0527">deviceType</text><rect fill="#E3E3E3" height="69.8633" rx="2.5" ry="2.5" style="stroke:#181818;stroke-width:0.5;" width="164" x="961" y="44.6211"/><text fill="#000000" font-family="sans-serif" font-size="14" font-style="italic" lengthAdjust="spacing" textLength="84" x="1001" y="66.7285">&#171;Repository&#187;</text><text fill="#000000" font-family="sans-serif" font-size="14" lengthAdjust="spacing" textLength="115" x="985.5" y="85.3496">deviceTypeRepo :</text><text fill="#000000" font-family="sans-serif" font-size="14" lengthAdjust="spacing" textLength="146" x="972" y="103.9707">IDeviceTypeRepository</text><rect fill="#E3E3E3" height="69.8633" rx="2.5" ry="2.5" style="stroke:#181818;stroke-width:0.5;" width="164" x="961" y="697.7031"/><text fill="#000000" font-family="sans-serif" font-size="14" font-style="italic" lengthAdjust="spacing" textLength="84" x="1001" y="719.8105">&#171;Repository&#187;</text><text fill="#000000" font-family="sans-serif" font-size="14" lengthAdjust="spacing" textLength="115" x="985.5" y="738.4316">deviceTypeRepo :</text><text fill="#000000" font-family="sans-serif" font-size="14" lengthAdjust="spacing" textLength="146" x="972" y="757.0527">IDeviceTypeRepository</text><rect fill="#E3E3E3" height="51.2422" rx="2.5" ry="2.5" style="stroke:#181818;stroke-width:0.5;" width="92" x="1145" y="63.2422"/><text fill="#000000" font-family="sans-serif" font-size="14" font-style="italic" lengthAdjust="spacing" textLength="78" x="1152" y="85.3496">&#171;DataBase&#187;</text><text fill="#000000" font-family="sans-serif" font-size="14" lengthAdjust="spacing" textLength="19" x="1181.5" y="103.9707">DB</text><rect fill="#E3E3E3" height="51.2422" rx="2.5" ry="2.5" style="stroke:#181818;stroke-width:0.5;" width="92" x="1145" y="697.7031"/><text fill="#000000" font-family="sans-serif" font-size="14" font-style="italic" lengthAdjust="spacing" textLength="78" x="1152" y="719.8105">&#171;DataBase&#187;</text><text fill="#000000" font-family="sans-serif" font-size="14" lengthAdjust="spacing" textLength="19" x="1181.5" y="738.4316">DB</text><rect fill="#FFFFFF" height="531.9277" style="stroke:#181818;stroke-width:1.0;" width="10" x="180" y="148.7754"/><rect fill="#FFFFFF" height="469.3457" style="stroke:#181818;stroke-width:1.0;" width="10" x="351" y="180.0664"/><rect fill="#FFFFFF" height="391.7637" style="stroke:#181818;stroke-width:1.0;" width="10" x="356" y="219.3574"/><rect fill="#FFFFFF" height="237.3184" style="stroke:#181818;stroke-width:1.0;" width="10" x="743.5" y="336.5117"/><rect fill="#FFFFFF" height="93.873" style="stroke:#181818;stroke-width:1.0;" width="10" x="1038" y="448.666"/><rect fill="#FFFFFF" height="31.291" style="stroke:#181818;stroke-width:1.0;" width="10" x="1186" y="479.957"/><ellipse cx="4.5" cy="148.0254" fill="none" rx="4" ry="4" style="stroke:#181818;stroke-width:1.5;"/><polygon fill="#181818" points="168,144.7754,178,148.7754,168,152.7754,172,148.7754" style="stroke:#181818;stroke-width:1.0;"/><line style="stroke:#181818;stroke-width:1.0;" x1="9" x2="174" y1="148.7754" y2="148.7754"/><text fill="#000000" font-family="sans-serif" font-size="13" font-weight="bold" lengthAdjust="spacing" textLength="7" x="12" y="143.5127">1</text><text fill="#000000" font-family="sans-serif" font-size="13" lengthAdjust="spacing" textLength="142" x="23" y="143.5127">POST (.../devices/types)</text><polygon fill="#181818" points="339,176.0664,349,180.0664,339,184.0664,343,180.0664" style="stroke:#181818;stroke-width:1.0;"/><line style="stroke:#181818;stroke-width:1.0;" x1="190" x2="345" y1="180.0664" y2="180.0664"/><text fill="#000000" font-family="sans-serif" font-size="13" font-weight="bold" lengthAdjust="spacing" textLength="7" x="197" y="174.8037">2</text><text fill="#000000" font-family="sans-serif" font-size="13" lengthAdjust="spacing" textLength="131" x="208" y="174.8037">execute(req, res, next)</text><line style="stroke:#181818;stroke-width:1.0;" x1="361" x2="408" y1="206.3574" y2="206.3574"/><line style="stroke:#181818;stroke-width:1.0;" x1="408" x2="408" y1="206.3574" y2="219.3574"/><line style="stroke:#181818;stroke-width:1.0;" x1="367" x2="408" y1="219.3574" y2="219.3574"/><polygon fill="#181818" points="377,215.3574,367,219.3574,377,223.3574,373,219.3574" style="stroke:#181818;stroke-width:1.0;"/><text fill="#000000" font-family="sans-serif" font-size="13" font-weight="bold" lengthAdjust="spacing" textLength="7" x="373" y="201.0947">3</text><text fill="#000000" font-family="sans-serif" font-size="13" lengthAdjust="spacing" textLength="187" x="384" y="201.0947">createDeviceType(req, res, next)</text><polygon fill="#181818" points="503,251.6484,513,255.6484,503,259.6484,507,255.6484" style="stroke:#181818;stroke-width:1.0;"/><line style="stroke:#181818;stroke-width:1.0;stroke-dasharray:2.0,2.0;" x1="366" x2="509" y1="255.6484" y2="255.6484"/><text fill="#000000" font-family="sans-serif" font-size="13" font-weight="bold" lengthAdjust="spacing" textLength="7" x="373" y="250.3857">4</text><text fill="#000000" font-family="sans-serif" font-size="13" lengthAdjust="spacing" textLength="36" x="384" y="250.3857">create</text><rect fill="#E3E3E3" height="69.8633" rx="2.5" ry="2.5" style="stroke:#181818;stroke-width:0.5;" width="126" x="515" y="232.3574"/><text fill="#000000" font-family="sans-serif" font-size="14" font-style="italic" lengthAdjust="spacing" textLength="46" x="555" y="254.4648">&#171;DTO&#187;</text><text fill="#000000" font-family="sans-serif" font-size="14" lengthAdjust="spacing" textLength="111" x="522.5" y="273.0859">deviceTypeDTO :</text><text fill="#000000" font-family="sans-serif" font-size="14" lengthAdjust="spacing" textLength="108" x="526" y="291.707">IDeviceTypeDTO</text><polygon fill="#181818" points="731.5,332.5117,741.5,336.5117,731.5,340.5117,735.5,336.5117" style="stroke:#181818;stroke-width:1.0;"/><line style="stroke:#181818;stroke-width:1.0;" x1="366" x2="737.5" y1="336.5117" y2="336.5117"/><text fill="#000000" font-family="sans-serif" font-size="13" font-weight="bold" lengthAdjust="spacing" textLength="7" x="373" y="331.249">5</text><text fill="#000000" font-family="sans-serif" font-size="13" lengthAdjust="spacing" textLength="200" x="384" y="331.249">createDeviceType(deviceTypeDTO)</text><polygon fill="#181818" points="844,363.8027,854,367.8027,844,371.8027,848,367.8027" style="stroke:#181818;stroke-width:1.0;"/><line style="stroke:#181818;stroke-width:1.0;stroke-dasharray:2.0,2.0;" x1="753.5" x2="850" y1="367.8027" y2="367.8027"/><text fill="#000000" font-family="sans-serif" font-size="13" font-weight="bold" lengthAdjust="spacing" textLength="7" x="760.5" y="362.54">6</text><text fill="#000000" font-family="sans-serif" font-size="13" lengthAdjust="spacing" textLength="36" x="771.5" y="362.54">create</text><rect fill="#E3E3E3" height="69.8633" rx="2.5" ry="2.5" style="stroke:#181818;stroke-width:0.5;" width="95" x="856" y="344.5117"/><text fill="#000000" font-family="sans-serif" font-size="14" font-style="italic" lengthAdjust="spacing" textLength="64" x="871.5" y="366.6191">&#171;Domain&#187;</text><text fill="#000000" font-family="sans-serif" font-size="14" lengthAdjust="spacing" textLength="81" x="863" y="385.2402">deviceType :</text><text fill="#000000" font-family="sans-serif" font-size="14" lengthAdjust="spacing" textLength="73" x="869" y="403.8613">deviceType</text><polygon fill="#181818" points="1026,444.666,1036,448.666,1026,452.666,1030,448.666" style="stroke:#181818;stroke-width:1.0;"/><line style="stroke:#181818;stroke-width:1.0;" x1="753.5" x2="1032" y1="448.666" y2="448.666"/><text fill="#000000" font-family="sans-serif" font-size="13" font-weight="bold" lengthAdjust="spacing" textLength="7" x="760.5" y="443.4033">7</text><text fill="#000000" font-family="sans-serif" font-size="13" lengthAdjust="spacing" textLength="98" x="771.5" y="443.4033">save(deviceType)</text><polygon fill="#181818" points="1174,475.957,1184,479.957,1174,483.957,1178,479.957" style="stroke:#181818;stroke-width:1.0;"/><line style="stroke:#181818;stroke-width:1.0;" x1="1048" x2="1180" y1="479.957" y2="479.957"/><text fill="#000000" font-family="sans-serif" font-size="13" font-weight="bold" lengthAdjust="spacing" textLength="7" x="1055" y="474.6943">8</text><text fill="#000000" font-family="sans-serif" font-size="13" lengthAdjust="spacing" textLength="108" x="1066" y="474.6943">create(deviceType)</text><polygon fill="#181818" points="1059,507.248,1049,511.248,1059,515.248,1055,511.248" style="stroke:#181818;stroke-width:1.0;"/><line style="stroke:#181818;stroke-width:1.0;stroke-dasharray:2.0,2.0;" x1="1053" x2="1190" y1="511.248" y2="511.248"/><text fill="#000000" font-family="sans-serif" font-size="13" font-weight="bold" lengthAdjust="spacing" textLength="7" x="1065" y="505.9854">9</text><text fill="#000000" font-family="sans-serif" font-size="13" lengthAdjust="spacing" textLength="4" x="1076" y="505.9854">&#160;</text><polygon fill="#181818" points="764.5,538.5391,754.5,542.5391,764.5,546.5391,760.5,542.5391" style="stroke:#181818;stroke-width:1.0;"/><line style="stroke:#181818;stroke-width:1.0;stroke-dasharray:2.0,2.0;" x1="758.5" x2="1042" y1="542.5391" y2="542.5391"/><text fill="#000000" font-family="sans-serif" font-size="13" font-weight="bold" lengthAdjust="spacing" textLength="14" x="770.5" y="537.2764">10</text><text fill="#000000" font-family="sans-serif" font-size="13" lengthAdjust="spacing" textLength="4" x="788.5" y="537.2764">&#160;</text><polygon fill="#181818" points="377,569.8301,367,573.8301,377,577.8301,373,573.8301" style="stroke:#181818;stroke-width:1.0;"/><line style="stroke:#181818;stroke-width:1.0;stroke-dasharray:2.0,2.0;" x1="371" x2="747.5" y1="573.8301" y2="573.8301"/><text fill="#000000" font-family="sans-serif" font-size="13" font-weight="bold" lengthAdjust="spacing" textLength="14" x="383" y="568.5674">11</text><text fill="#000000" font-family="sans-serif" font-size="13" lengthAdjust="spacing" textLength="4" x="401" y="568.5674">&#160;</text><line style="stroke:#181818;stroke-width:1.0;stroke-dasharray:2.0,2.0;" x1="366" x2="408" y1="610.1211" y2="610.1211"/><line style="stroke:#181818;stroke-width:1.0;stroke-dasharray:2.0,2.0;" x1="408" x2="408" y1="610.1211" y2="623.1211"/><line style="stroke:#181818;stroke-width:1.0;stroke-dasharray:2.0,2.0;" x1="361" x2="408" y1="623.1211" y2="623.1211"/><polygon fill="#181818" points="371,619.1211,361,623.1211,371,627.1211,367,623.1211" style="stroke:#181818;stroke-width:1.0;"/><text fill="#000000" font-family="sans-serif" font-size="13" font-weight="bold" lengthAdjust="spacing" textLength="14" x="373" y="604.8584">12</text><text fill="#000000" font-family="sans-serif" font-size="13" lengthAdjust="spacing" textLength="90" x="391" y="604.8584">status: 201/400</text><polygon fill="#181818" points="201,645.4121,191,649.4121,201,653.4121,197,649.4121" style="stroke:#181818;stroke-width:1.0;"/><line style="stroke:#181818;stroke-width:1.0;stroke-dasharray:2.0,2.0;" x1="195" x2="355" y1="649.4121" y2="649.4121"/><text fill="#000000" font-family="sans-serif" font-size="13" font-weight="bold" lengthAdjust="spacing" textLength="14" x="207" y="644.1494">13</text><text fill="#000000" font-family="sans-serif" font-size="13" lengthAdjust="spacing" textLength="90" x="225" y="644.1494">status: 201/400</text><polygon fill="#181818" points="11,676.7031,1,680.7031,11,684.7031,7,680.7031" style="stroke:#181818;stroke-width:1.0;"/><line style="stroke:#181818;stroke-width:1.0;stroke-dasharray:2.0,2.0;" x1="5" x2="184" y1="680.7031" y2="680.7031"/><text fill="#000000" font-family="sans-serif" font-size="13" font-weight="bold" lengthAdjust="spacing" textLength="14" x="17" y="675.4404">14</text><text fill="#000000" font-family="sans-serif" font-size="13" lengthAdjust="spacing" textLength="90" x="35" y="675.4404">status: 201/400</text><!--SRC=[XPHDRwCm48Rl_XMZdfAg9Edkdb34IYcNIbsrAjcUzk9rPbEhn4vjapR_ViU6y1L8EO0_vdtcnJDWtwJQSyDtiDDAYrUZTmZE5CXilRFduerlCNF77C6WS5njytQ0VUKR_I7L5lxnt29ZJZeApV2zG2KGKictFcxoW0VCuJj4y6IqG6lXHU87JN-bKxh_pk1siLWmNZYjYjrVD8nH1YU5t7Fbu6g31odmMHSEhu1R22DOBiCpIRh1mfay3OBrSOyG_r5mtyplj796vpcQG6gcX6icVUQcrgVhnpwIbWAhiq8ukezpCZH-UAyi7Qiuirbj1sur9c8r6gS6J3FjsVAUz8vBDGvunhtkU_5hLZfjZkNX-n0w-tgrJqjNPTwLpySTNt7hBREVEaggqiNmz9YjOJARpUPbSZjtbCfE6HTE7ZZ5X4Z6WAvIHEfMkMB0JnIqFZ7uVaFzQMz0uQUR1aLDQHHXtLyjI1yf39AeUVL1zbVyVWvAqccDw-iwqwWcgQi-OAhJZLFMWTJ6AdrdqrydRjVMcAUE8Ybh7uFbXxQBwPcaAI89pdP3IJt9MrZLYIyIEzHqDRXFhAWsEHYnmQyOfQ_s-RCBaC7NQvzmkxlO2EHKgKiDrEbI-cMumiRmRN4x_q7_pG5chorxjDD7E0GQXh1b58tAsWSIFjh_]--></g></svg>