<?xml version="1.0" encoding="us-ascii" standalone="no"?><svg xmlns="http://www.w3.org/2000/svg" xmlns:xlink="http://www.w3.org/1999/xlink" contentStyleType="text/css" height="491px" preserveAspectRatio="none" style="width:597px;height:491px;background:#FFFFFF;" version="1.1" viewBox="0 0 597 491" width="597px" zoomAndPan="magnify"><defs/><g><text fill="#000000" font-family="sans-serif" font-size="14" font-weight="bold" lengthAdjust="spacing" textLength="426" x="84.75" y="30.1074">System Sequence Diagram (Level 3 - Process View) - US 1060</text><rect fill="#FFFFFF" height="256.6582" style="stroke:#181818;stroke-width:1.0;" width="10" x="62.5" y="133.2422"/><rect fill="#FFFFFF" height="233.3672" style="stroke:#181818;stroke-width:1.0;" width="10" x="223.5" y="156.5332"/><rect fill="#FFFFFF" height="170.7852" style="stroke:#181818;stroke-width:1.0;" width="10" x="389" y="187.8242"/><rect fill="#FFFFFF" height="31.291" style="stroke:#181818;stroke-width:1.0;" width="10" x="526" y="219.1152"/><rect fill="none" height="62.9121" style="stroke:#000000;stroke-width:1.5;" width="186" x="280" y="265.4063"/><line style="stroke:#181818;stroke-width:0.5;stroke-dasharray:5.0,5.0;" x1="67" x2="67" y1="123.2422" y2="407.9004"/><line style="stroke:#181818;stroke-width:0.5;stroke-dasharray:5.0,5.0;" x1="228" x2="228" y1="123.2422" y2="407.9004"/><line style="stroke:#181818;stroke-width:0.5;stroke-dasharray:5.0,5.0;" x1="318" x2="318" y1="316.5078" y2="407.9004"/><line style="stroke:#181818;stroke-width:0.5;stroke-dasharray:5.0,5.0;" x1="394" x2="394" y1="123.2422" y2="407.9004"/><line style="stroke:#181818;stroke-width:0.5;stroke-dasharray:5.0,5.0;" x1="530.5" x2="530.5" y1="123.2422" y2="407.9004"/><text fill="#000000" font-family="sans-serif" font-size="14" lengthAdjust="spacing" textLength="119" x="5" y="119.7285">Gestor de Campus</text><ellipse cx="67.5" cy="53.1211" fill="#E3E3E3" rx="8" ry="8" style="stroke:#181818;stroke-width:0.5;"/><path d="M67.5,61.1211 L67.5,88.1211 M54.5,69.1211 L80.5,69.1211 M67.5,88.1211 L54.5,103.1211 M67.5,88.1211 L80.5,103.1211 " fill="none" style="stroke:#181818;stroke-width:0.5;"/><text fill="#000000" font-family="sans-serif" font-size="14" lengthAdjust="spacing" textLength="119" x="5" y="422.0078">Gestor de Campus</text><ellipse cx="67.5" cy="434.0215" fill="#E3E3E3" rx="8" ry="8" style="stroke:#181818;stroke-width:0.5;"/><path d="M67.5,442.0215 L67.5,469.0215 M54.5,450.0215 L80.5,450.0215 M67.5,469.0215 L54.5,484.0215 M67.5,469.0215 L80.5,484.0215 " fill="none" style="stroke:#181818;stroke-width:0.5;"/><rect fill="#E3E3E3" height="51.2422" rx="2.5" ry="2.5" style="stroke:#181818;stroke-width:0.5;" width="103" x="177" y="71"/><text fill="#000000" font-family="sans-serif" font-size="14" font-style="italic" lengthAdjust="spacing" textLength="89" x="184" y="93.1074">&#171;Component&#187;</text><text fill="#000000" font-family="sans-serif" font-size="14" lengthAdjust="spacing" textLength="77" x="190" y="111.7285">:Component</text><rect fill="#E3E3E3" height="51.2422" rx="2.5" ry="2.5" style="stroke:#181818;stroke-width:0.5;" width="103" x="177" y="406.9004"/><text fill="#000000" font-family="sans-serif" font-size="14" font-style="italic" lengthAdjust="spacing" textLength="89" x="184" y="429.0078">&#171;Component&#187;</text><text fill="#000000" font-family="sans-serif" font-size="14" lengthAdjust="spacing" textLength="77" x="190" y="447.6289">:Component</text><rect fill="#E3E3E3" height="32.6211" rx="2.5" ry="2.5" style="stroke:#181818;stroke-width:0.5;" width="56" x="290" y="406.9004"/><text fill="#000000" font-family="sans-serif" font-size="14" lengthAdjust="spacing" textLength="42" x="297" y="429.0078">:model</text><rect fill="#E3E3E3" height="51.2422" rx="2.5" ry="2.5" style="stroke:#181818;stroke-width:0.5;" width="76" x="356" y="71"/><text fill="#000000" font-family="sans-serif" font-size="14" font-style="italic" lengthAdjust="spacing" textLength="62" x="363" y="93.1074">&#171;Service&#187;</text><text fill="#000000" font-family="sans-serif" font-size="14" lengthAdjust="spacing" textLength="49" x="369.5" y="111.7285">:service</text><rect fill="#E3E3E3" height="51.2422" rx="2.5" ry="2.5" style="stroke:#181818;stroke-width:0.5;" width="76" x="356" y="406.9004"/><text fill="#000000" font-family="sans-serif" font-size="14" font-style="italic" lengthAdjust="spacing" textLength="62" x="363" y="429.0078">&#171;Service&#187;</text><text fill="#000000" font-family="sans-serif" font-size="14" lengthAdjust="spacing" textLength="49" x="369.5" y="447.6289">:service</text><rect fill="#E3E3E3" height="51.2422" rx="2.5" ry="2.5" style="stroke:#181818;stroke-width:0.5;" width="121" x="470.5" y="71"/><text fill="#000000" font-family="sans-serif" font-size="14" font-style="italic" lengthAdjust="spacing" textLength="107" x="477.5" y="93.1074">&#171;container (C4)&#187;</text><text fill="#000000" font-family="sans-serif" font-size="14" lengthAdjust="spacing" textLength="21" x="520.5" y="111.7285">MD</text><rect fill="#E3E3E3" height="51.2422" rx="2.5" ry="2.5" style="stroke:#181818;stroke-width:0.5;" width="121" x="470.5" y="406.9004"/><text fill="#000000" font-family="sans-serif" font-size="14" font-style="italic" lengthAdjust="spacing" textLength="107" x="477.5" y="429.0078">&#171;container (C4)&#187;</text><text fill="#000000" font-family="sans-serif" font-size="14" lengthAdjust="spacing" textLength="21" x="520.5" y="447.6289">MD</text><rect fill="#FFFFFF" height="256.6582" style="stroke:#181818;stroke-width:1.0;" width="10" x="62.5" y="133.2422"/><rect fill="#FFFFFF" height="233.3672" style="stroke:#181818;stroke-width:1.0;" width="10" x="223.5" y="156.5332"/><rect fill="#FFFFFF" height="170.7852" style="stroke:#181818;stroke-width:1.0;" width="10" x="389" y="187.8242"/><rect fill="#FFFFFF" height="31.291" style="stroke:#181818;stroke-width:1.0;" width="10" x="526" y="219.1152"/><polygon fill="#181818" points="211.5,152.5332,221.5,156.5332,211.5,160.5332,215.5,156.5332" style="stroke:#181818;stroke-width:1.0;"/><line style="stroke:#181818;stroke-width:1.0;" x1="72.5" x2="217.5" y1="156.5332" y2="156.5332"/><text fill="#000000" font-family="sans-serif" font-size="13" font-weight="bold" lengthAdjust="spacing" textLength="7" x="79.5" y="151.2705">1</text><text fill="#000000" font-family="sans-serif" font-size="13" lengthAdjust="spacing" textLength="121" x="90.5" y="151.2705">Asks to list buildings</text><polygon fill="#181818" points="377,183.8242,387,187.8242,377,191.8242,381,187.8242" style="stroke:#181818;stroke-width:1.0;"/><line style="stroke:#181818;stroke-width:1.0;" x1="233.5" x2="383" y1="187.8242" y2="187.8242"/><text fill="#000000" font-family="sans-serif" font-size="13" font-weight="bold" lengthAdjust="spacing" textLength="7" x="240.5" y="182.5615">2</text><text fill="#000000" font-family="sans-serif" font-size="13" lengthAdjust="spacing" textLength="93" x="251.5" y="182.5615">listAllBuildings()</text><polygon fill="#181818" points="514,215.1152,524,219.1152,514,223.1152,518,219.1152" style="stroke:#181818;stroke-width:1.0;"/><line style="stroke:#181818;stroke-width:1.0;" x1="399" x2="520" y1="219.1152" y2="219.1152"/><text fill="#000000" font-family="sans-serif" font-size="13" font-weight="bold" lengthAdjust="spacing" textLength="7" x="406" y="213.8525">3</text><text fill="#000000" font-family="sans-serif" font-size="13" lengthAdjust="spacing" textLength="97" x="417" y="213.8525">GET(../buildings)</text><polygon fill="#181818" points="410,246.4063,400,250.4063,410,254.4063,406,250.4063" style="stroke:#181818;stroke-width:1.0;"/><line style="stroke:#181818;stroke-width:1.0;stroke-dasharray:2.0,2.0;" x1="404" x2="530" y1="250.4063" y2="250.4063"/><text fill="#000000" font-family="sans-serif" font-size="13" font-weight="bold" lengthAdjust="spacing" textLength="7" x="416" y="245.1436">4</text><text fill="#000000" font-family="sans-serif" font-size="13" lengthAdjust="spacing" textLength="90" x="427" y="245.1436">status: 200/400</text><path d="M280,265.4063 L353,265.4063 L353,274.6973 L343,284.6973 L280,284.6973 L280,265.4063 " fill="#EEEEEE" style="stroke:#000000;stroke-width:1.5;"/><rect fill="none" height="62.9121" style="stroke:#000000;stroke-width:1.5;" width="186" x="280" y="265.4063"/><text fill="#000000" font-family="sans-serif" font-size="13" font-weight="bold" lengthAdjust="spacing" textLength="28" x="295" y="280.4346">loop</text><text fill="#000000" font-family="sans-serif" font-size="11" font-weight="bold" lengthAdjust="spacing" textLength="93" x="368" y="279.2764">[for all buildings]</text><polygon fill="#181818" points="357,303.9883,347,307.9883,357,311.9883,353,307.9883" style="stroke:#181818;stroke-width:1.0;"/><line style="stroke:#181818;stroke-width:1.0;stroke-dasharray:2.0,2.0;" x1="351" x2="388" y1="307.9883" y2="307.9883"/><text fill="#000000" font-family="sans-serif" font-size="13" font-weight="bold" lengthAdjust="spacing" textLength="7" x="363" y="302.7256">5</text><text fill="#000000" font-family="sans-serif" font-size="13" lengthAdjust="spacing" textLength="4" x="374" y="302.7256">&#160;</text><rect fill="#E3E3E3" height="32.6211" rx="2.5" ry="2.5" style="stroke:#181818;stroke-width:0.5;" width="56" x="290" y="284.6973"/><text fill="#000000" font-family="sans-serif" font-size="14" lengthAdjust="spacing" textLength="42" x="297" y="306.8047">:model</text><polygon fill="#181818" points="244.5,354.6094,234.5,358.6094,244.5,362.6094,240.5,358.6094" style="stroke:#181818;stroke-width:1.0;"/><line style="stroke:#181818;stroke-width:1.0;stroke-dasharray:2.0,2.0;" x1="238.5" x2="393" y1="358.6094" y2="358.6094"/><text fill="#000000" font-family="sans-serif" font-size="13" font-weight="bold" lengthAdjust="spacing" textLength="7" x="250.5" y="353.3467">6</text><text fill="#000000" font-family="sans-serif" font-size="13" lengthAdjust="spacing" textLength="4" x="261.5" y="353.3467">&#160;</text><polygon fill="#181818" points="78.5,385.9004,68.5,389.9004,78.5,393.9004,74.5,389.9004" style="stroke:#181818;stroke-width:1.0;"/><line style="stroke:#181818;stroke-width:1.0;stroke-dasharray:2.0,2.0;" x1="72.5" x2="227.5" y1="389.9004" y2="389.9004"/><text fill="#000000" font-family="sans-serif" font-size="13" font-weight="bold" lengthAdjust="spacing" textLength="7" x="84.5" y="384.6377">7</text><text fill="#000000" font-family="sans-serif" font-size="13" lengthAdjust="spacing" textLength="72" x="95.5" y="384.6377">list buildings</text><!--SRC=[RL9DJyCm3BtdLrWxRKXZvKCSgcdIM14N9Y4Lk9lKZ6XfKc9tY7zFsdLjcJZ5gTzxViyDxushC609fNTUVmPV4aYeIN7VgL3lSKUv_5Y2G5hGxUmOm9zO-6_ZTl21babXBTxLvJi5fSH8PEK_B5H2JbyrEKsG6TmrpEaJ7SZ23SpXENXDpF1cw7iMxwyvN2LtYL8AjVW0aqVYvYm8DbXMDKy06TgUKj6766qgT0AJTEFBoZjoqaBw6ooNVRrQdN5ANv1jyTkcEkioXOFHrFRpOntLkkfSQviTTR88qTu96aS1fflRMKGsQSm1XJhhnt3prM0pXJNl6SI3DIpmNXjRnDtomEoXQiWM5JexQSjRMtj_Oavd0xS3gLEAoDjcAJm-l4mlBnVzi15Zc_NWvNpUebbGQaxXEaaMjqdyHmMDuTRx2ZvYBBHsvByVsSnibdnneSWLVxuFqKQI9y_7NJKcHiiwMzA8zgzMzs3KBm00]--></g></svg>