<?xml version="1.0" encoding="UTF-8" standalone="no"?><svg xmlns="http://www.w3.org/2000/svg" xmlns:xlink="http://www.w3.org/1999/xlink" contentStyleType="text/css" height="904px" preserveAspectRatio="none" style="width:1149px;height:904px;background:#FFFFFF;" version="1.1" viewBox="0 0 1149 904" width="1149px" zoomAndPan="magnify"><defs/><g><rect fill="none" height="27.6094" id="_title" style="stroke:none;stroke-width:1.0;" width="203" x="466.25" y="5"/><text fill="#000000" font-family="sans-serif" font-size="14" font-weight="bold" lengthAdjust="spacing" textLength="193" x="471.25" y="24.5332">Class Diagram (CD) - US 150</text><!--MD5=[6bd86dffd8efbe6a9811dafe8ae610b8]
class buildingRoute--><g id="elem_buildingRoute"><rect codeLine="5" fill="#F1F1F1" height="58.7031" id="buildingRoute" rx="2.5" ry="2.5" style="stroke:#181818;stroke-width:0.5;" width="119" x="590" y="45.6094"/><ellipse cx="605" cy="66.9609" fill="#ADD1B2" rx="11" ry="11" style="stroke:#181818;stroke-width:1.0;"/><path d="M607.7656,62.8359 Q607.9219,62.6172 608.1094,62.5078 Q608.2969,62.3984 608.5156,62.3984 Q608.8906,62.3984 609.125,62.6641 Q609.3594,62.9141 609.3594,63.5234 L609.3594,64.9766 Q609.3594,65.5859 609.125,65.8516 Q608.8906,66.1172 608.5156,66.1172 Q608.1719,66.1172 607.9688,65.9141 Q607.7656,65.7266 607.6563,65.2109 Q607.6094,64.8516 607.4219,64.6641 Q607.0938,64.2891 606.4844,64.0703 Q605.875,63.8516 605.25,63.8516 Q604.4844,63.8516 603.8438,64.1797 Q603.2188,64.5078 602.7188,65.2578 Q602.2344,66.0078 602.2344,67.0391 L602.2344,68.1328 Q602.2344,69.3672 603.125,70.1953 Q604.0156,71.0078 605.6094,71.0078 Q606.5469,71.0078 607.2031,70.7578 Q607.5938,70.6016 608.0156,70.1641 Q608.2813,69.8984 608.4219,69.8203 Q608.5781,69.7422 608.7813,69.7422 Q609.1094,69.7422 609.3594,70.0078 Q609.625,70.2578 609.625,70.6016 Q609.625,70.9453 609.2813,71.3516 Q608.7813,71.9297 607.9844,72.2578 Q606.9063,72.7109 605.6094,72.7109 Q604.0938,72.7109 602.8906,72.0859 Q601.9063,71.5859 601.2188,70.5234 Q600.5313,69.4453 600.5313,68.1641 L600.5313,67.0078 Q600.5313,65.6797 601.1406,64.5391 Q601.7656,63.3828 602.8594,62.7734 Q603.9531,62.1484 605.1875,62.1484 Q605.9219,62.1484 606.5625,62.3203 Q607.2188,62.4766 607.7656,62.8359 Z " fill="#000000"/><text fill="#000000" font-family="sans-serif" font-size="12" font-style="italic" lengthAdjust="spacing" textLength="40" x="642.5" y="63.0664">«Web»</text><text fill="#000000" font-family="sans-serif" font-size="14" lengthAdjust="spacing" textLength="87" x="619" y="80.2363">buildingRoute</text><line style="stroke:#181818;stroke-width:0.5;" x1="591" x2="708" y1="88.3125" y2="88.3125"/><line style="stroke:#181818;stroke-width:0.5;" x1="591" x2="708" y1="96.3125" y2="96.3125"/></g><!--MD5=[8a5864c36bf6f3efaf7643ea6f31dab2]
class buildingController--><g id="elem_buildingController"><rect codeLine="8" fill="#F1F1F1" height="93.9219" id="buildingController" rx="2.5" ry="2.5" style="stroke:#181818;stroke-width:0.5;" width="201" x="549" y="182.6094"/><ellipse cx="590.1" cy="203.9609" fill="#ADD1B2" rx="11" ry="11" style="stroke:#181818;stroke-width:1.0;"/><path d="M592.8656,199.8359 Q593.0219,199.6172 593.2094,199.5078 Q593.3969,199.3984 593.6156,199.3984 Q593.9906,199.3984 594.225,199.6641 Q594.4594,199.9141 594.4594,200.5234 L594.4594,201.9766 Q594.4594,202.5859 594.225,202.8516 Q593.9906,203.1172 593.6156,203.1172 Q593.2719,203.1172 593.0688,202.9141 Q592.8656,202.7266 592.7563,202.2109 Q592.7094,201.8516 592.5219,201.6641 Q592.1938,201.2891 591.5844,201.0703 Q590.975,200.8516 590.35,200.8516 Q589.5844,200.8516 588.9438,201.1797 Q588.3188,201.5078 587.8188,202.2578 Q587.3344,203.0078 587.3344,204.0391 L587.3344,205.1328 Q587.3344,206.3672 588.225,207.1953 Q589.1156,208.0078 590.7094,208.0078 Q591.6469,208.0078 592.3031,207.7578 Q592.6938,207.6016 593.1156,207.1641 Q593.3813,206.8984 593.5219,206.8203 Q593.6781,206.7422 593.8813,206.7422 Q594.2094,206.7422 594.4594,207.0078 Q594.725,207.2578 594.725,207.6016 Q594.725,207.9453 594.3813,208.3516 Q593.8813,208.9297 593.0844,209.2578 Q592.0063,209.7109 590.7094,209.7109 Q589.1938,209.7109 587.9906,209.0859 Q587.0063,208.5859 586.3188,207.5234 Q585.6313,206.4453 585.6313,205.1641 L585.6313,204.0078 Q585.6313,202.6797 586.2406,201.5391 Q586.8656,200.3828 587.9594,199.7734 Q589.0531,199.1484 590.2875,199.1484 Q591.0219,199.1484 591.6625,199.3203 Q592.3188,199.4766 592.8656,199.8359 Z " fill="#000000"/><text fill="#000000" font-family="sans-serif" font-size="12" font-style="italic" lengthAdjust="spacing" textLength="74" x="628.4" y="200.0664">«Controllers»</text><text fill="#000000" font-family="sans-serif" font-size="14" lengthAdjust="spacing" textLength="111" x="609.9" y="217.2363">buildingController</text><line style="stroke:#181818;stroke-width:0.5;" x1="550" x2="749" y1="225.3125" y2="225.3125"/><line style="stroke:#181818;stroke-width:0.5;" x1="550" x2="749" y1="233.3125" y2="233.3125"/><ellipse cx="560" cy="247.6172" fill="#84BE84" rx="3" ry="3" style="stroke:#038048;stroke-width:1.0;"/><text fill="#000000" font-family="sans-serif" font-size="14" lengthAdjust="spacing" textLength="175" x="569" y="251.8457">createBuilding(json : String)</text><rect fill="#F24D5C" height="6" style="stroke:#C82930;stroke-width:1.0;" width="6" x="557" y="262.2266"/><text fill="#000000" font-family="sans-serif" font-size="14" lengthAdjust="spacing" textLength="134" x="569" y="269.4551">validate(json : String)</text></g><!--MD5=[68dbd1f25cfbb5523dc5716471924218]
class buildingDTO--><g id="elem_buildingDTO"><rect codeLine="13" fill="#F1F1F1" height="58.7031" id="buildingDTO" rx="2.5" ry="2.5" style="stroke:#181818;stroke-width:0.5;" width="111" x="467" y="596.6094"/><ellipse cx="482" cy="617.9609" fill="#ADD1B2" rx="11" ry="11" style="stroke:#181818;stroke-width:1.0;"/><path d="M484.7656,613.8359 Q484.9219,613.6172 485.1094,613.5078 Q485.2969,613.3984 485.5156,613.3984 Q485.8906,613.3984 486.125,613.6641 Q486.3594,613.9141 486.3594,614.5234 L486.3594,615.9766 Q486.3594,616.5859 486.125,616.8516 Q485.8906,617.1172 485.5156,617.1172 Q485.1719,617.1172 484.9688,616.9141 Q484.7656,616.7266 484.6563,616.2109 Q484.6094,615.8516 484.4219,615.6641 Q484.0938,615.2891 483.4844,615.0703 Q482.875,614.8516 482.25,614.8516 Q481.4844,614.8516 480.8438,615.1797 Q480.2188,615.5078 479.7188,616.2578 Q479.2344,617.0078 479.2344,618.0391 L479.2344,619.1328 Q479.2344,620.3672 480.125,621.1953 Q481.0156,622.0078 482.6094,622.0078 Q483.5469,622.0078 484.2031,621.7578 Q484.5938,621.6016 485.0156,621.1641 Q485.2813,620.8984 485.4219,620.8203 Q485.5781,620.7422 485.7813,620.7422 Q486.1094,620.7422 486.3594,621.0078 Q486.625,621.2578 486.625,621.6016 Q486.625,621.9453 486.2813,622.3516 Q485.7813,622.9297 484.9844,623.2578 Q483.9063,623.7109 482.6094,623.7109 Q481.0938,623.7109 479.8906,623.0859 Q478.9063,622.5859 478.2188,621.5234 Q477.5313,620.4453 477.5313,619.1641 L477.5313,618.0078 Q477.5313,616.6797 478.1406,615.5391 Q478.7656,614.3828 479.8594,613.7734 Q480.9531,613.1484 482.1875,613.1484 Q482.9219,613.1484 483.5625,613.3203 Q484.2188,613.4766 484.7656,613.8359 Z " fill="#000000"/><text fill="#000000" font-family="sans-serif" font-size="12" font-style="italic" lengthAdjust="spacing" textLength="39" x="516" y="614.0664">«DTO»</text><text fill="#000000" font-family="sans-serif" font-size="14" lengthAdjust="spacing" textLength="79" x="496" y="631.2363">buildingDTO</text><line style="stroke:#181818;stroke-width:0.5;" x1="468" x2="577" y1="639.3125" y2="639.3125"/><line style="stroke:#181818;stroke-width:0.5;" x1="468" x2="577" y1="647.3125" y2="647.3125"/></g><!--MD5=[c70844e95244038ff9d9ed6df1f25710]
class buildingService--><g id="elem_buildingService"><rect codeLine="16" fill="#F1F1F1" height="76.3125" id="buildingService" rx="2.5" ry="2.5" style="stroke:#181818;stroke-width:0.5;" width="282" x="702.5" y="354.6094"/><ellipse cx="791.25" cy="375.9609" fill="#ADD1B2" rx="11" ry="11" style="stroke:#181818;stroke-width:1.0;"/><path d="M794.0156,371.8359 Q794.1719,371.6172 794.3594,371.5078 Q794.5469,371.3984 794.7656,371.3984 Q795.1406,371.3984 795.375,371.6641 Q795.6094,371.9141 795.6094,372.5234 L795.6094,373.9766 Q795.6094,374.5859 795.375,374.8516 Q795.1406,375.1172 794.7656,375.1172 Q794.4219,375.1172 794.2188,374.9141 Q794.0156,374.7266 793.9063,374.2109 Q793.8594,373.8516 793.6719,373.6641 Q793.3438,373.2891 792.7344,373.0703 Q792.125,372.8516 791.5,372.8516 Q790.7344,372.8516 790.0938,373.1797 Q789.4688,373.5078 788.9688,374.2578 Q788.4844,375.0078 788.4844,376.0391 L788.4844,377.1328 Q788.4844,378.3672 789.375,379.1953 Q790.2656,380.0078 791.8594,380.0078 Q792.7969,380.0078 793.4531,379.7578 Q793.8438,379.6016 794.2656,379.1641 Q794.5313,378.8984 794.6719,378.8203 Q794.8281,378.7422 795.0313,378.7422 Q795.3594,378.7422 795.6094,379.0078 Q795.875,379.2578 795.875,379.6016 Q795.875,379.9453 795.5313,380.3516 Q795.0313,380.9297 794.2344,381.2578 Q793.1563,381.7109 791.8594,381.7109 Q790.3438,381.7109 789.1406,381.0859 Q788.1563,380.5859 787.4688,379.5234 Q786.7813,378.4453 786.7813,377.1641 L786.7813,376.0078 Q786.7813,374.6797 787.3906,373.5391 Q788.0156,372.3828 789.1094,371.7734 Q790.2031,371.1484 791.4375,371.1484 Q792.1719,371.1484 792.8125,371.3203 Q793.4688,371.4766 794.0156,371.8359 Z " fill="#000000"/><text fill="#000000" font-family="sans-serif" font-size="12" font-style="italic" lengthAdjust="spacing" textLength="74" x="822.75" y="372.0664">«Use Cases»</text><text fill="#000000" font-family="sans-serif" font-size="14" lengthAdjust="spacing" textLength="96" x="811.75" y="389.2363">buildingService</text><line style="stroke:#181818;stroke-width:0.5;" x1="703.5" x2="983.5" y1="397.3125" y2="397.3125"/><line style="stroke:#181818;stroke-width:0.5;" x1="703.5" x2="983.5" y1="405.3125" y2="405.3125"/><text fill="#000000" font-family="sans-serif" font-size="14" lengthAdjust="spacing" textLength="270" x="708.5" y="423.8457">createBuilding(buildingDTO : buildingDTO)</text></g><!--MD5=[e7e1189e35f0169a5f7b61a7b29f52ae]
class buildingRepo--><g id="elem_buildingRepo"><rect codeLine="21" fill="#F1F1F1" height="76.3125" id="buildingRepo" rx="2.5" ry="2.5" style="stroke:#181818;stroke-width:0.5;" width="176" x="966.5" y="588.1094"/><ellipse cx="1008.95" cy="609.4609" fill="#ADD1B2" rx="11" ry="11" style="stroke:#181818;stroke-width:1.0;"/><path d="M1011.7156,605.3359 Q1011.8719,605.1172 1012.0594,605.0078 Q1012.2469,604.8984 1012.4656,604.8984 Q1012.8406,604.8984 1013.075,605.1641 Q1013.3094,605.4141 1013.3094,606.0234 L1013.3094,607.4766 Q1013.3094,608.0859 1013.075,608.3516 Q1012.8406,608.6172 1012.4656,608.6172 Q1012.1219,608.6172 1011.9188,608.4141 Q1011.7156,608.2266 1011.6063,607.7109 Q1011.5594,607.3516 1011.3719,607.1641 Q1011.0438,606.7891 1010.4344,606.5703 Q1009.825,606.3516 1009.2,606.3516 Q1008.4344,606.3516 1007.7938,606.6797 Q1007.1688,607.0078 1006.6688,607.7578 Q1006.1844,608.5078 1006.1844,609.5391 L1006.1844,610.6328 Q1006.1844,611.8672 1007.075,612.6953 Q1007.9656,613.5078 1009.5594,613.5078 Q1010.4969,613.5078 1011.1531,613.2578 Q1011.5438,613.1016 1011.9656,612.6641 Q1012.2313,612.3984 1012.3719,612.3203 Q1012.5281,612.2422 1012.7313,612.2422 Q1013.0594,612.2422 1013.3094,612.5078 Q1013.575,612.7578 1013.575,613.1016 Q1013.575,613.4453 1013.2313,613.8516 Q1012.7313,614.4297 1011.9344,614.7578 Q1010.8563,615.2109 1009.5594,615.2109 Q1008.0438,615.2109 1006.8406,614.5859 Q1005.8563,614.0859 1005.1688,613.0234 Q1004.4813,611.9453 1004.4813,610.6641 L1004.4813,609.5078 Q1004.4813,608.1797 1005.0906,607.0391 Q1005.7156,605.8828 1006.8094,605.2734 Q1007.9031,604.6484 1009.1375,604.6484 Q1009.8719,604.6484 1010.5125,604.8203 Q1011.1688,604.9766 1011.7156,605.3359 Z " fill="#000000"/><text fill="#000000" font-family="sans-serif" font-size="12" font-style="italic" lengthAdjust="spacing" textLength="67" x="1037.05" y="605.5664">«Gateways»</text><text fill="#000000" font-family="sans-serif" font-size="14" lengthAdjust="spacing" textLength="83" x="1029.05" y="622.7363">buildingRepo</text><line style="stroke:#181818;stroke-width:0.5;" x1="967.5" x2="1141.5" y1="630.8125" y2="630.8125"/><line style="stroke:#181818;stroke-width:0.5;" x1="967.5" x2="1141.5" y1="638.8125" y2="638.8125"/><ellipse cx="977.5" cy="653.1172" fill="#84BE84" rx="3" ry="3" style="stroke:#038048;stroke-width:1.0;"/><text fill="#000000" font-family="sans-serif" font-size="14" lengthAdjust="spacing" textLength="150" x="986.5" y="657.3457">save(building : building)</text></g><!--MD5=[3e0b9b21013ab783891d2067844f2e64]
class buildingMapper--><g id="elem_buildingMapper"><rect codeLine="25" fill="#F1F1F1" height="129.1406" id="buildingMapper" rx="2.5" ry="2.5" style="stroke:#181818;stroke-width:0.5;" width="247" x="613" y="561.6094"/><ellipse cx="683.75" cy="582.9609" fill="#ADD1B2" rx="11" ry="11" style="stroke:#181818;stroke-width:1.0;"/><path d="M686.5156,578.8359 Q686.6719,578.6172 686.8594,578.5078 Q687.0469,578.3984 687.2656,578.3984 Q687.6406,578.3984 687.875,578.6641 Q688.1094,578.9141 688.1094,579.5234 L688.1094,580.9766 Q688.1094,581.5859 687.875,581.8516 Q687.6406,582.1172 687.2656,582.1172 Q686.9219,582.1172 686.7188,581.9141 Q686.5156,581.7266 686.4063,581.2109 Q686.3594,580.8516 686.1719,580.6641 Q685.8438,580.2891 685.2344,580.0703 Q684.625,579.8516 684,579.8516 Q683.2344,579.8516 682.5938,580.1797 Q681.9688,580.5078 681.4688,581.2578 Q680.9844,582.0078 680.9844,583.0391 L680.9844,584.1328 Q680.9844,585.3672 681.875,586.1953 Q682.7656,587.0078 684.3594,587.0078 Q685.2969,587.0078 685.9531,586.7578 Q686.3438,586.6016 686.7656,586.1641 Q687.0313,585.8984 687.1719,585.8203 Q687.3281,585.7422 687.5313,585.7422 Q687.8594,585.7422 688.1094,586.0078 Q688.375,586.2578 688.375,586.6016 Q688.375,586.9453 688.0313,587.3516 Q687.5313,587.9297 686.7344,588.2578 Q685.6563,588.7109 684.3594,588.7109 Q682.8438,588.7109 681.6406,588.0859 Q680.6563,587.5859 679.9688,586.5234 Q679.2813,585.4453 679.2813,584.1641 L679.2813,583.0078 Q679.2813,581.6797 679.8906,580.5391 Q680.5156,579.3828 681.6094,578.7734 Q682.7031,578.1484 683.9375,578.1484 Q684.6719,578.1484 685.3125,578.3203 Q685.9688,578.4766 686.5156,578.8359 Z " fill="#000000"/><text fill="#000000" font-family="sans-serif" font-size="12" font-style="italic" lengthAdjust="spacing" textLength="55" x="725.25" y="579.0664">«Mapper»</text><text fill="#000000" font-family="sans-serif" font-size="14" lengthAdjust="spacing" textLength="97" x="704.25" y="596.2363">buildingMapper</text><line style="stroke:#181818;stroke-width:0.5;" x1="614" x2="859" y1="604.3125" y2="604.3125"/><line style="stroke:#181818;stroke-width:0.5;" x1="614" x2="859" y1="612.3125" y2="612.3125"/><ellipse cx="624" cy="626.6172" fill="#84BE84" rx="3" ry="3" style="stroke:#038048;stroke-width:1.0;"/><text fill="#000000" font-family="sans-serif" font-size="14" lengthAdjust="spacing" textLength="218" x="633" y="630.8457">toDTO(json : String) : buildingDTO</text><ellipse cx="624" cy="644.2266" fill="#84BE84" rx="3" ry="3" style="stroke:#038048;stroke-width:1.0;"/><text fill="#000000" font-family="sans-serif" font-size="14" lengthAdjust="spacing" textLength="206" x="633" y="648.4551">toPersistence(building : building)</text><ellipse cx="624" cy="661.8359" fill="#84BE84" rx="3" ry="3" style="stroke:#038048;stroke-width:1.0;"/><text fill="#000000" font-family="sans-serif" font-size="14" lengthAdjust="spacing" textLength="180" x="633" y="666.0645">toDomain(building : building)</text><ellipse cx="624" cy="679.4453" fill="#84BE84" rx="3" ry="3" style="stroke:#038048;stroke-width:1.0;"/><text fill="#000000" font-family="sans-serif" font-size="14" lengthAdjust="spacing" textLength="221" x="633" y="683.6738">toJson(buildingDTO : buildingDTO)</text></g><!--MD5=[b72bc2e7d3a9f40bc0a8caea5866d41e]
class buildingSchema--><g id="elem_buildingSchema"><rect codeLine="32" fill="#F1F1F1" height="76.3125" id="buildingSchema" rx="2.5" ry="2.5" style="stroke:#181818;stroke-width:0.5;" width="186" x="870.5" y="821.6094"/><ellipse cx="909.8" cy="842.9609" fill="#ADD1B2" rx="11" ry="11" style="stroke:#181818;stroke-width:1.0;"/><path d="M912.5656,838.8359 Q912.7219,838.6172 912.9094,838.5078 Q913.0969,838.3984 913.3156,838.3984 Q913.6906,838.3984 913.925,838.6641 Q914.1594,838.9141 914.1594,839.5234 L914.1594,840.9766 Q914.1594,841.5859 913.925,841.8516 Q913.6906,842.1172 913.3156,842.1172 Q912.9719,842.1172 912.7688,841.9141 Q912.5656,841.7266 912.4563,841.2109 Q912.4094,840.8516 912.2219,840.6641 Q911.8938,840.2891 911.2844,840.0703 Q910.675,839.8516 910.05,839.8516 Q909.2844,839.8516 908.6438,840.1797 Q908.0188,840.5078 907.5188,841.2578 Q907.0344,842.0078 907.0344,843.0391 L907.0344,844.1328 Q907.0344,845.3672 907.925,846.1953 Q908.8156,847.0078 910.4094,847.0078 Q911.3469,847.0078 912.0031,846.7578 Q912.3938,846.6016 912.8156,846.1641 Q913.0813,845.8984 913.2219,845.8203 Q913.3781,845.7422 913.5813,845.7422 Q913.9094,845.7422 914.1594,846.0078 Q914.425,846.2578 914.425,846.6016 Q914.425,846.9453 914.0813,847.3516 Q913.5813,847.9297 912.7844,848.2578 Q911.7063,848.7109 910.4094,848.7109 Q908.8938,848.7109 907.6906,848.0859 Q906.7063,847.5859 906.0188,846.5234 Q905.3313,845.4453 905.3313,844.1641 L905.3313,843.0078 Q905.3313,841.6797 905.9406,840.5391 Q906.5656,839.3828 907.6594,838.7734 Q908.7531,838.1484 909.9875,838.1484 Q910.7219,838.1484 911.3625,838.3203 Q912.0188,838.4766 912.5656,838.8359 Z " fill="#000000"/><text fill="#000000" font-family="sans-serif" font-size="12" font-style="italic" lengthAdjust="spacing" textLength="31" x="963.7" y="839.0664">«DB»</text><text fill="#000000" font-family="sans-serif" font-size="14" lengthAdjust="spacing" textLength="100" x="929.2" y="856.2363">buildingSchema</text><line style="stroke:#181818;stroke-width:0.5;" x1="871.5" x2="1055.5" y1="864.3125" y2="864.3125"/><line style="stroke:#181818;stroke-width:0.5;" x1="871.5" x2="1055.5" y1="872.3125" y2="872.3125"/><ellipse cx="881.5" cy="886.6172" fill="#84BE84" rx="3" ry="3" style="stroke:#038048;stroke-width:1.0;"/><text fill="#000000" font-family="sans-serif" font-size="14" lengthAdjust="spacing" textLength="160" x="890.5" y="890.8457">create(building : building)</text></g><!--MD5=[aec929816a707d505db147934dc4698a]
class building--><g id="elem_building"><rect codeLine="36" fill="#F1F1F1" height="234.7969" id="building" rx="2.5" ry="2.5" style="stroke:#181818;stroke-width:0.5;" width="220" x="211.5" y="508.6094"/><ellipse cx="290.25" cy="529.9609" fill="#ADD1B2" rx="11" ry="11" style="stroke:#181818;stroke-width:1.0;"/><path d="M293.0156,525.8359 Q293.1719,525.6172 293.3594,525.5078 Q293.5469,525.3984 293.7656,525.3984 Q294.1406,525.3984 294.375,525.6641 Q294.6094,525.9141 294.6094,526.5234 L294.6094,527.9766 Q294.6094,528.5859 294.375,528.8516 Q294.1406,529.1172 293.7656,529.1172 Q293.4219,529.1172 293.2188,528.9141 Q293.0156,528.7266 292.9063,528.2109 Q292.8594,527.8516 292.6719,527.6641 Q292.3438,527.2891 291.7344,527.0703 Q291.125,526.8516 290.5,526.8516 Q289.7344,526.8516 289.0938,527.1797 Q288.4688,527.5078 287.9688,528.2578 Q287.4844,529.0078 287.4844,530.0391 L287.4844,531.1328 Q287.4844,532.3672 288.375,533.1953 Q289.2656,534.0078 290.8594,534.0078 Q291.7969,534.0078 292.4531,533.7578 Q292.8438,533.6016 293.2656,533.1641 Q293.5313,532.8984 293.6719,532.8203 Q293.8281,532.7422 294.0313,532.7422 Q294.3594,532.7422 294.6094,533.0078 Q294.875,533.2578 294.875,533.6016 Q294.875,533.9453 294.5313,534.3516 Q294.0313,534.9297 293.2344,535.2578 Q292.1563,535.7109 290.8594,535.7109 Q289.3438,535.7109 288.1406,535.0859 Q287.1563,534.5859 286.4688,533.5234 Q285.7813,532.4453 285.7813,531.1641 L285.7813,530.0078 Q285.7813,528.6797 286.3906,527.5391 Q287.0156,526.3828 288.1094,525.7734 Q289.2031,525.1484 290.4375,525.1484 Q291.1719,525.1484 291.8125,525.3203 Q292.4688,525.4766 293.0156,525.8359 Z " fill="#000000"/><text fill="#000000" font-family="sans-serif" font-size="12" font-style="italic" lengthAdjust="spacing" textLength="58" x="308.75" y="526.0664">«Domain»</text><text fill="#000000" font-family="sans-serif" font-size="14" lengthAdjust="spacing" textLength="49" x="313.25" y="543.2363">building</text><line style="stroke:#181818;stroke-width:0.5;" x1="212.5" x2="430.5" y1="551.3125" y2="551.3125"/><rect fill="none" height="6" style="stroke:#C82930;stroke-width:1.0;" width="6" x="219.5" y="562.6172"/><text fill="#000000" font-family="sans-serif" font-size="14" lengthAdjust="spacing" textLength="126" x="231.5" y="569.8457">code : buildingCode</text><rect fill="none" height="6" style="stroke:#C82930;stroke-width:1.0;" width="6" x="219.5" y="580.2266"/><text fill="#000000" font-family="sans-serif" font-size="14" lengthAdjust="spacing" textLength="132" x="231.5" y="587.4551">name : buildingName</text><rect fill="none" height="6" style="stroke:#C82930;stroke-width:1.0;" width="6" x="219.5" y="597.8359"/><text fill="#000000" font-family="sans-serif" font-size="14" lengthAdjust="spacing" textLength="150" x="231.5" y="605.0645">description : description</text><rect fill="none" height="6" style="stroke:#C82930;stroke-width:1.0;" width="6" x="219.5" y="615.4453"/><text fill="#000000" font-family="sans-serif" font-size="14" lengthAdjust="spacing" textLength="193" x="231.5" y="622.6738">numXCells : buildingDimension</text><rect fill="none" height="6" style="stroke:#C82930;stroke-width:1.0;" width="6" x="219.5" y="633.0547"/><text fill="#000000" font-family="sans-serif" font-size="14" lengthAdjust="spacing" textLength="194" x="231.5" y="640.2832">numYCells : buildingDimension</text><line style="stroke:#181818;stroke-width:0.5;" x1="212.5" x2="430.5" y1="647.3594" y2="647.3594"/><ellipse cx="222.5" cy="661.6641" fill="#84BE84" rx="3" ry="3" style="stroke:#038048;stroke-width:1.0;"/><text fill="#000000" font-family="sans-serif" font-size="14" lengthAdjust="spacing" textLength="159" x="231.5" y="665.8926">getCode() : buildingCode</text><ellipse cx="222.5" cy="679.2734" fill="#84BE84" rx="3" ry="3" style="stroke:#038048;stroke-width:1.0;"/><text fill="#000000" font-family="sans-serif" font-size="14" lengthAdjust="spacing" textLength="163" x="231.5" y="683.502">getName() : buildingName</text><ellipse cx="222.5" cy="696.8828" fill="#84BE84" rx="3" ry="3" style="stroke:#038048;stroke-width:1.0;"/><text fill="#000000" font-family="sans-serif" font-size="14" lengthAdjust="spacing" textLength="182" x="231.5" y="701.1113">getDescription() : description</text><ellipse cx="222.5" cy="714.4922" fill="#84BE84" rx="3" ry="3" style="stroke:#038048;stroke-width:1.0;"/><text fill="#000000" font-family="sans-serif" font-size="14" lengthAdjust="spacing" textLength="174" x="231.5" y="718.7207">xCells() : buildingDimension</text><ellipse cx="222.5" cy="732.1016" fill="#84BE84" rx="3" ry="3" style="stroke:#038048;stroke-width:1.0;"/><text fill="#000000" font-family="sans-serif" font-size="14" lengthAdjust="spacing" textLength="175" x="231.5" y="736.3301">yCells() : buildingDimension</text></g><!--MD5=[e59f14cf94c7d20e46684061116698bd]
class buildingCode--><g id="elem_buildingCode"><rect codeLine="49" fill="#F1F1F1" height="58.7031" id="buildingCode" rx="2.5" ry="2.5" style="stroke:#181818;stroke-width:0.5;" width="115" x="189" y="830.1094"/><ellipse cx="204" cy="851.4609" fill="#ADD1B2" rx="11" ry="11" style="stroke:#181818;stroke-width:1.0;"/><path d="M206.7656,847.3359 Q206.9219,847.1172 207.1094,847.0078 Q207.2969,846.8984 207.5156,846.8984 Q207.8906,846.8984 208.125,847.1641 Q208.3594,847.4141 208.3594,848.0234 L208.3594,849.4766 Q208.3594,850.0859 208.125,850.3516 Q207.8906,850.6172 207.5156,850.6172 Q207.1719,850.6172 206.9688,850.4141 Q206.7656,850.2266 206.6563,849.7109 Q206.6094,849.3516 206.4219,849.1641 Q206.0938,848.7891 205.4844,848.5703 Q204.875,848.3516 204.25,848.3516 Q203.4844,848.3516 202.8438,848.6797 Q202.2188,849.0078 201.7188,849.7578 Q201.2344,850.5078 201.2344,851.5391 L201.2344,852.6328 Q201.2344,853.8672 202.125,854.6953 Q203.0156,855.5078 204.6094,855.5078 Q205.5469,855.5078 206.2031,855.2578 Q206.5938,855.1016 207.0156,854.6641 Q207.2813,854.3984 207.4219,854.3203 Q207.5781,854.2422 207.7813,854.2422 Q208.1094,854.2422 208.3594,854.5078 Q208.625,854.7578 208.625,855.1016 Q208.625,855.4453 208.2813,855.8516 Q207.7813,856.4297 206.9844,856.7578 Q205.9063,857.2109 204.6094,857.2109 Q203.0938,857.2109 201.8906,856.5859 Q200.9063,856.0859 200.2188,855.0234 Q199.5313,853.9453 199.5313,852.6641 L199.5313,851.5078 Q199.5313,850.1797 200.1406,849.0391 Q200.7656,847.8828 201.8594,847.2734 Q202.9531,846.6484 204.1875,846.6484 Q204.9219,846.6484 205.5625,846.8203 Q206.2188,846.9766 206.7656,847.3359 Z " fill="#000000"/><text fill="#000000" font-family="sans-serif" font-size="12" font-style="italic" lengthAdjust="spacing" textLength="85" x="217" y="847.5664">«Value Object»</text><text fill="#000000" font-family="sans-serif" font-size="14" lengthAdjust="spacing" textLength="83" x="218" y="864.7363">buildingCode</text><line style="stroke:#181818;stroke-width:0.5;" x1="190" x2="303" y1="872.8125" y2="872.8125"/><line style="stroke:#181818;stroke-width:0.5;" x1="190" x2="303" y1="880.8125" y2="880.8125"/></g><!--MD5=[cafc1b42845b115e1fd9a403a64b6b67]
class buildingName--><g id="elem_buildingName"><rect codeLine="52" fill="#F1F1F1" height="58.7031" id="buildingName" rx="2.5" ry="2.5" style="stroke:#181818;stroke-width:0.5;" width="117" x="339" y="830.1094"/><ellipse cx="354" cy="851.4609" fill="#ADD1B2" rx="11" ry="11" style="stroke:#181818;stroke-width:1.0;"/><path d="M356.7656,847.3359 Q356.9219,847.1172 357.1094,847.0078 Q357.2969,846.8984 357.5156,846.8984 Q357.8906,846.8984 358.125,847.1641 Q358.3594,847.4141 358.3594,848.0234 L358.3594,849.4766 Q358.3594,850.0859 358.125,850.3516 Q357.8906,850.6172 357.5156,850.6172 Q357.1719,850.6172 356.9688,850.4141 Q356.7656,850.2266 356.6563,849.7109 Q356.6094,849.3516 356.4219,849.1641 Q356.0938,848.7891 355.4844,848.5703 Q354.875,848.3516 354.25,848.3516 Q353.4844,848.3516 352.8438,848.6797 Q352.2188,849.0078 351.7188,849.7578 Q351.2344,850.5078 351.2344,851.5391 L351.2344,852.6328 Q351.2344,853.8672 352.125,854.6953 Q353.0156,855.5078 354.6094,855.5078 Q355.5469,855.5078 356.2031,855.2578 Q356.5938,855.1016 357.0156,854.6641 Q357.2813,854.3984 357.4219,854.3203 Q357.5781,854.2422 357.7813,854.2422 Q358.1094,854.2422 358.3594,854.5078 Q358.625,854.7578 358.625,855.1016 Q358.625,855.4453 358.2813,855.8516 Q357.7813,856.4297 356.9844,856.7578 Q355.9063,857.2109 354.6094,857.2109 Q353.0938,857.2109 351.8906,856.5859 Q350.9063,856.0859 350.2188,855.0234 Q349.5313,853.9453 349.5313,852.6641 L349.5313,851.5078 Q349.5313,850.1797 350.1406,849.0391 Q350.7656,847.8828 351.8594,847.2734 Q352.9531,846.6484 354.1875,846.6484 Q354.9219,846.6484 355.5625,846.8203 Q356.2188,846.9766 356.7656,847.3359 Z " fill="#000000"/><text fill="#000000" font-family="sans-serif" font-size="12" font-style="italic" lengthAdjust="spacing" textLength="85" x="368" y="847.5664">«Value Object»</text><text fill="#000000" font-family="sans-serif" font-size="14" lengthAdjust="spacing" textLength="85" x="368" y="864.7363">buildingName</text><line style="stroke:#181818;stroke-width:0.5;" x1="340" x2="455" y1="872.8125" y2="872.8125"/><line style="stroke:#181818;stroke-width:0.5;" x1="340" x2="455" y1="880.8125" y2="880.8125"/></g><!--MD5=[52bf045bf7baca4a9cba833ddb0fbbe2]
class description--><g id="elem_description"><rect codeLine="55" fill="#F1F1F1" height="58.7031" id="description" rx="2.5" ry="2.5" style="stroke:#181818;stroke-width:0.5;" width="113" x="491" y="830.1094"/><ellipse cx="506" cy="851.4609" fill="#ADD1B2" rx="11" ry="11" style="stroke:#181818;stroke-width:1.0;"/><path d="M508.7656,847.3359 Q508.9219,847.1172 509.1094,847.0078 Q509.2969,846.8984 509.5156,846.8984 Q509.8906,846.8984 510.125,847.1641 Q510.3594,847.4141 510.3594,848.0234 L510.3594,849.4766 Q510.3594,850.0859 510.125,850.3516 Q509.8906,850.6172 509.5156,850.6172 Q509.1719,850.6172 508.9688,850.4141 Q508.7656,850.2266 508.6563,849.7109 Q508.6094,849.3516 508.4219,849.1641 Q508.0938,848.7891 507.4844,848.5703 Q506.875,848.3516 506.25,848.3516 Q505.4844,848.3516 504.8438,848.6797 Q504.2188,849.0078 503.7188,849.7578 Q503.2344,850.5078 503.2344,851.5391 L503.2344,852.6328 Q503.2344,853.8672 504.125,854.6953 Q505.0156,855.5078 506.6094,855.5078 Q507.5469,855.5078 508.2031,855.2578 Q508.5938,855.1016 509.0156,854.6641 Q509.2813,854.3984 509.4219,854.3203 Q509.5781,854.2422 509.7813,854.2422 Q510.1094,854.2422 510.3594,854.5078 Q510.625,854.7578 510.625,855.1016 Q510.625,855.4453 510.2813,855.8516 Q509.7813,856.4297 508.9844,856.7578 Q507.9063,857.2109 506.6094,857.2109 Q505.0938,857.2109 503.8906,856.5859 Q502.9063,856.0859 502.2188,855.0234 Q501.5313,853.9453 501.5313,852.6641 L501.5313,851.5078 Q501.5313,850.1797 502.1406,849.0391 Q502.7656,847.8828 503.8594,847.2734 Q504.9531,846.6484 506.1875,846.6484 Q506.9219,846.6484 507.5625,846.8203 Q508.2188,846.9766 508.7656,847.3359 Z " fill="#000000"/><text fill="#000000" font-family="sans-serif" font-size="12" font-style="italic" lengthAdjust="spacing" textLength="85" x="518" y="847.5664">«Value Object»</text><text fill="#000000" font-family="sans-serif" font-size="14" lengthAdjust="spacing" textLength="69" x="526" y="864.7363">description</text><line style="stroke:#181818;stroke-width:0.5;" x1="492" x2="603" y1="872.8125" y2="872.8125"/><line style="stroke:#181818;stroke-width:0.5;" x1="492" x2="603" y1="880.8125" y2="880.8125"/></g><!--MD5=[8d6f170c3ec21a265c32a099f6117284]
class buildingDimension--><g id="elem_buildingDimension"><rect codeLine="58" fill="#F1F1F1" height="58.7031" id="buildingDimension" rx="2.5" ry="2.5" style="stroke:#181818;stroke-width:0.5;" width="147" x="7" y="830.1094"/><ellipse cx="22" cy="851.4609" fill="#ADD1B2" rx="11" ry="11" style="stroke:#181818;stroke-width:1.0;"/><path d="M24.7656,847.3359 Q24.9219,847.1172 25.1094,847.0078 Q25.2969,846.8984 25.5156,846.8984 Q25.8906,846.8984 26.125,847.1641 Q26.3594,847.4141 26.3594,848.0234 L26.3594,849.4766 Q26.3594,850.0859 26.125,850.3516 Q25.8906,850.6172 25.5156,850.6172 Q25.1719,850.6172 24.9688,850.4141 Q24.7656,850.2266 24.6563,849.7109 Q24.6094,849.3516 24.4219,849.1641 Q24.0938,848.7891 23.4844,848.5703 Q22.875,848.3516 22.25,848.3516 Q21.4844,848.3516 20.8438,848.6797 Q20.2188,849.0078 19.7188,849.7578 Q19.2344,850.5078 19.2344,851.5391 L19.2344,852.6328 Q19.2344,853.8672 20.125,854.6953 Q21.0156,855.5078 22.6094,855.5078 Q23.5469,855.5078 24.2031,855.2578 Q24.5938,855.1016 25.0156,854.6641 Q25.2813,854.3984 25.4219,854.3203 Q25.5781,854.2422 25.7813,854.2422 Q26.1094,854.2422 26.3594,854.5078 Q26.625,854.7578 26.625,855.1016 Q26.625,855.4453 26.2813,855.8516 Q25.7813,856.4297 24.9844,856.7578 Q23.9063,857.2109 22.6094,857.2109 Q21.0938,857.2109 19.8906,856.5859 Q18.9063,856.0859 18.2188,855.0234 Q17.5313,853.9453 17.5313,852.6641 L17.5313,851.5078 Q17.5313,850.1797 18.1406,849.0391 Q18.7656,847.8828 19.8594,847.2734 Q20.9531,846.6484 22.1875,846.6484 Q22.9219,846.6484 23.5625,846.8203 Q24.2188,846.9766 24.7656,847.3359 Z " fill="#000000"/><text fill="#000000" font-family="sans-serif" font-size="12" font-style="italic" lengthAdjust="spacing" textLength="85" x="51" y="847.5664">«Value Object»</text><text fill="#000000" font-family="sans-serif" font-size="14" lengthAdjust="spacing" textLength="115" x="36" y="864.7363">buildingDimension</text><line style="stroke:#181818;stroke-width:0.5;" x1="8" x2="153" y1="872.8125" y2="872.8125"/><line style="stroke:#181818;stroke-width:0.5;" x1="8" x2="153" y1="880.8125" y2="880.8125"/></g><!--MD5=[9862e69d6b471bfdd78e76f987f0bc67]
link building to buildingCode--><g id="link_building_buildingCode"><path codeLine="62" d="M283.67,743.8794 C273.99,773.7594 264.34,803.5394 257.3,825.2794 " fill="none" id="building-to-buildingCode" style="stroke:#181818;stroke-width:1.0;"/><polygon fill="#181818" points="255.75,830.0694,262.3314,822.7424,257.2925,825.3133,254.7217,820.2744,255.75,830.0694" style="stroke:#181818;stroke-width:1.0;"/></g><!--MD5=[912f13094641859d8a3543eceafff096]
link building to buildingName--><g id="link_building_buildingName"><path codeLine="63" d="M359.83,743.8794 C369.64,773.7594 379.42,803.5394 386.56,825.2794 " fill="none" id="building-to-buildingName" style="stroke:#181818;stroke-width:1.0;"/><polygon fill="#181818" points="388.13,830.0694,389.123,820.2707,386.5703,825.3189,381.5222,822.7662,388.13,830.0694" style="stroke:#181818;stroke-width:1.0;"/></g><!--MD5=[0def577dc25f80aba04a5ac3e255988c]
link building to description--><g id="link_building_description"><path codeLine="64" d="M431.52,739.8094 C462.29,771.3294 493.36,803.1594 515.59,825.9194 " fill="none" id="building-to-description" style="stroke:#181818;stroke-width:1.0;"/><polygon fill="#181818" points="519.36,829.7794,515.9359,820.5449,515.8675,826.2013,510.211,826.1329,519.36,829.7794" style="stroke:#181818;stroke-width:1.0;"/></g><!--MD5=[f26316f7e1d726105ca96f3c4801ad33]
link building to buildingDimension--><g id="link_building_buildingDimension"><path codeLine="65" d="M211.23,733.0394 C175.91,766.9694 139.4,802.0294 113.98,826.4494 " fill="none" id="building-to-buildingDimension" style="stroke:#181818;stroke-width:1.0;"/><polygon fill="#181818" points="110.31,829.9794,119.5651,826.6115,113.9092,826.5087,114.0121,820.8528,110.31,829.9794" style="stroke:#181818;stroke-width:1.0;"/></g><!--MD5=[7cdbf76b9d523ebb614c632285b1e2b9]
link buildingRoute to buildingController--><g id="link_buildingRoute_buildingController"><path codeLine="67" d="M649.5,104.7894 C649.5,125.1694 649.5,153.0994 649.5,177.2694 " fill="none" id="buildingRoute-to-buildingController" style="stroke:#181818;stroke-width:1.0;"/><polygon fill="#181818" points="649.5,182.3694,653.5,173.3694,649.5,177.3694,645.5,173.3694,649.5,182.3694" style="stroke:#181818;stroke-width:1.0;"/><text fill="#000000" font-family="sans-serif" font-size="13" lengthAdjust="spacing" textLength="73" x="650.5" y="149.1045">theController</text></g><!--MD5=[a0256c618b432000a89ac78d7f5216dd]
link buildingController to buildingService--><g id="link_buildingController_buildingService"><path codeLine="68" d="M705.09,276.7494 C733.37,300.2194 767.43,328.4794 794.69,351.0994 " fill="none" id="buildingController-to-buildingService" style="stroke:#181818;stroke-width:1.0;"/><polygon fill="#181818" points="798.66,354.3994,794.2841,345.576,794.8107,351.2083,789.1784,351.7349,798.66,354.3994" style="stroke:#181818;stroke-width:1.0;"/><text fill="#000000" font-family="sans-serif" font-size="13" lengthAdjust="spacing" textLength="40" x="758.5" y="321.1045">service</text></g><!--MD5=[b9512010d5f1fe992e95c69bd1bc2b86]
link buildingService to buildingMapper--><g id="link_buildingService_buildingMapper"><path codeLine="69" d="M826.31,430.7994 C810.67,464.6494 787.18,515.4594 768.15,556.6294 " fill="none" id="buildingService-to-buildingMapper" style="stroke:#181818;stroke-width:1.0;"/><polygon fill="#181818" points="765.97,561.3494,773.3772,554.8584,768.068,556.8108,766.1156,551.5016,765.97,561.3494" style="stroke:#181818;stroke-width:1.0;"/><text fill="#000000" font-family="sans-serif" font-size="13" lengthAdjust="spacing" textLength="43" x="812.5" y="475.1045">mapper</text></g><!--MD5=[23cd60776ecbb9c83e83eea209a9c4e9]
link buildingService to buildingRepo--><g id="link_buildingService_buildingRepo"><path codeLine="70" d="M903.69,430.7494 C916.18,439.7594 928.79,449.9094 939.5,460.6094 C976.65,497.7394 1009.92,548.1694 1031,583.3694 " fill="none" id="buildingService-to-buildingRepo" style="stroke:#181818;stroke-width:1.0;"/><polygon fill="#181818" points="1033.77,588.0194,1032.6078,578.2393,1031.2143,583.7219,1025.7318,582.3284,1033.77,588.0194" style="stroke:#181818;stroke-width:1.0;"/><text fill="#000000" font-family="sans-serif" font-size="13" lengthAdjust="spacing" textLength="25" x="954.5" y="475.1045">repo</text></g><!--MD5=[4b900342c6342943581179a576628283]
link buildingService to building--><g id="link_buildingService_building"><path codeLine="71" d="M702.3,416.3994 C623.81,433.4594 526.7,462.0794 449.5,508.6094 C445.06,511.2894 440.64,514.1294 436.25,517.1094 " fill="none" id="buildingService-to-building" style="stroke:#181818;stroke-width:1.0;"/><polygon fill="#181818" points="431.88,520.1294,441.5625,518.3268,436.0002,517.2967,437.0303,511.7344,431.88,520.1294" style="stroke:#181818;stroke-width:1.0;"/><text fill="#000000" font-family="sans-serif" font-size="13" lengthAdjust="spacing" textLength="44" x="541.5" y="475.1045">building</text></g><!--MD5=[757a3387a05b7b3cdba2fbf78f01d6d6]
link buildingService to buildingDTO--><g id="link_buildingService_buildingDTO"><path codeLine="72" d="M728.91,430.6194 C683.86,449.0694 633.86,474.7894 595.5,508.6094 C569.38,531.6394 549.32,566.2694 536.89,591.7894 " fill="none" id="buildingService-to-buildingDTO" style="stroke:#181818;stroke-width:1.0;"/><polygon fill="#181818" points="534.66,596.4394,542.1574,590.0527,536.8213,591.9306,534.9434,586.5946,534.66,596.4394" style="stroke:#181818;stroke-width:1.0;"/><text fill="#000000" font-family="sans-serif" font-size="13" lengthAdjust="spacing" textLength="70" x="663.5" y="475.1045">buildingDTO</text></g><!--MD5=[5b991b070e21576981ead16053238e10]
link buildingRepo to buildingSchema--><g id="link_buildingRepo_buildingSchema"><path codeLine="73" d="M1039.88,664.2994 C1023.53,705.8994 997.1,773.1294 980.02,816.5894 " fill="none" id="buildingRepo-to-buildingSchema" style="stroke:#181818;stroke-width:1.0;"/><polygon fill="#181818" points="978.08,821.5094,985.0998,814.6012,979.9122,816.8572,977.6563,811.6696,978.08,821.5094" style="stroke:#181818;stroke-width:1.0;"/><text fill="#000000" font-family="sans-serif" font-size="13" lengthAdjust="spacing" textLength="46" x="996.5" y="788.1045">schema</text></g><!--MD5=[6bbc25b4319374827d40254ad8bdb882]
link buildingController to buildingMapper--><g id="link_buildingController_buildingMapper"><path codeLine="76" d="M649.1,276.6294 C649.69,326.9994 653.7,409.7694 671.5,478.6094 C678.32,504.9994 689.44,532.6494 700.57,556.7294 " fill="none" id="buildingController-to-buildingMapper" style="stroke:#181818;stroke-width:1.0;stroke-dasharray:7.0,7.0;"/><polygon fill="#181818" points="702.8,561.4894,702.6171,551.6422,700.6848,556.9588,695.3682,555.0266,702.8,561.4894" style="stroke:#181818;stroke-width:1.0;"/></g><!--MD5=[15b58a52778e1a76623d070ad3b3c312]
link buildingController to building--><g id="link_buildingController_building"><path codeLine="77" d="M611.23,276.6394 C565.16,332.0494 486.01,427.2494 422.07,504.1594 " fill="none" id="buildingController-to-building" style="stroke:#181818;stroke-width:1.0;stroke-dasharray:7.0,7.0;"/><polygon fill="#181818" points="418.65,508.2694,427.483,503.9129,421.8495,504.4271,421.3353,498.7937,418.65,508.2694" style="stroke:#181818;stroke-width:1.0;"/></g><!--MD5=[60eb1e33f73c34682c1f713f9dfc7534]
link buildingController to buildingDTO--><g id="link_buildingController_buildingDTO"><path codeLine="78" d="M623.56,276.6194 C599.2,321.9794 563.71,393.9694 544.5,460.6094 C531.81,504.6294 526.4,557.4194 524.12,591.1094 " fill="none" id="buildingController-to-buildingDTO" style="stroke:#181818;stroke-width:1.0;stroke-dasharray:7.0,7.0;"/><polygon fill="#181818" points="523.78,596.3494,528.3383,587.6189,524.0946,591.3593,520.3541,587.1156,523.78,596.3494" style="stroke:#181818;stroke-width:1.0;"/></g><!--MD5=[790c1f538cde786ebb6554e76adcf244]
link buildingController to buildingRepo--><g id="link_buildingController_buildingRepo"><path codeLine="79" d="M750.24,239.1294 C830.46,251.4294 939.41,281.4294 1002.5,354.6094 C1057.97,418.9494 1061.49,524.2494 1058.46,582.6794 " fill="none" id="buildingController-to-buildingRepo" style="stroke:#181818;stroke-width:1.0;stroke-dasharray:7.0,7.0;"/><polygon fill="#181818" points="1058.17,587.8394,1062.652,579.0694,1058.441,582.8467,1054.6637,578.6358,1058.17,587.8394" style="stroke:#181818;stroke-width:1.0;"/></g><!--MD5=[4a75a19c242e5273e6c026d163e7324c]
link buildingService to buildingSchema--><g id="link_buildingService_buildingSchema"><path codeLine="80" d="M855.42,430.7394 C858.46,440.4394 861.66,450.8994 864.5,460.6094 C870.7,481.8294 871.97,487.2094 877.5,508.6094 C906.13,619.4694 937.77,750.6694 953.49,816.4894 " fill="none" id="buildingService-to-buildingSchema" style="stroke:#181818;stroke-width:1.0;stroke-dasharray:7.0,7.0;"/><polygon fill="#181818" points="954.68,821.4994,956.4918,811.8186,953.5245,816.6347,948.7083,813.6674,954.68,821.4994" style="stroke:#181818;stroke-width:1.0;"/></g><!--MD5=[6fdc1c9aad25139e74bef208ebdbeb07]
@startuml

title Class Diagram (CD) - US 150

'Classes
class buildingRoute <<Web>> {
}

class buildingController <<Controllers>> {
    +createBuilding(json : String)
    -validate(json : String)
}

class buildingDTO <<DTO>> {
}

class buildingService <<Use Cases>> {
    createBuilding(buildingDTO : buildingDTO)
}


class buildingRepo <<Gateways>> {
    +save(building : building)
}

class buildingMapper <<Mapper>> {
    +toDTO(json : String) : buildingDTO
    +toPersistence(building : building)
    +toDomain(building : building)
    +toJson(buildingDTO : buildingDTO)
}

class buildingSchema <<DB>> {
    +create(building : building)
}

class building <<Domain>> {
    -code : buildingCode
    -name : buildingName
    -description : description
    -numXCells : buildingDimension
    -numYCells : buildingDimension
    +getCode() : buildingCode
    +getName() : buildingName
    +getDescription() : description
    +xCells() : buildingDimension
    +yCells() : buildingDimension
}

class buildingCode <<Value Object>> {
}

class buildingName <<Value Object>> {
}

class description <<Value Object>> {
}

class buildingDimension <<Value Object>> {
}

'Navigation
building - -> buildingCode
building - -> buildingName
building - -> description
building - -> buildingDimension

buildingRoute - -> buildingController : theController
buildingController - -> buildingService : service
buildingService - -> buildingMapper : mapper
buildingService - -> buildingRepo : repo
buildingService - -> building : building
buildingService - -> buildingDTO : buildingDTO
buildingRepo - -> buildingSchema : schema

'Dependencies
buildingController -[dashed]-> buildingMapper
buildingController -[dashed]-> building
buildingController -[dashed]-> buildingDTO
buildingController -[dashed]-> buildingRepo
buildingService -[dashed]-> buildingSchema

@enduml

@startuml

title Class Diagram (CD) - US 150

class buildingRoute <<Web>> {
}

class buildingController <<Controllers>> {
    +createBuilding(json : String)
    -validate(json : String)
}

class buildingDTO <<DTO>> {
}

class buildingService <<Use Cases>> {
    createBuilding(buildingDTO : buildingDTO)
}


class buildingRepo <<Gateways>> {
    +save(building : building)
}

class buildingMapper <<Mapper>> {
    +toDTO(json : String) : buildingDTO
    +toPersistence(building : building)
    +toDomain(building : building)
    +toJson(buildingDTO : buildingDTO)
}

class buildingSchema <<DB>> {
    +create(building : building)
}

class building <<Domain>> {
    -code : buildingCode
    -name : buildingName
    -description : description
    -numXCells : buildingDimension
    -numYCells : buildingDimension
    +getCode() : buildingCode
    +getName() : buildingName
    +getDescription() : description
    +xCells() : buildingDimension
    +yCells() : buildingDimension
}

class buildingCode <<Value Object>> {
}

class buildingName <<Value Object>> {
}

class description <<Value Object>> {
}

class buildingDimension <<Value Object>> {
}

building - -> buildingCode
building - -> buildingName
building - -> description
building - -> buildingDimension

buildingRoute - -> buildingController : theController
buildingController - -> buildingService : service
buildingService - -> buildingMapper : mapper
buildingService - -> buildingRepo : repo
buildingService - -> building : building
buildingService - -> buildingDTO : buildingDTO
buildingRepo - -> buildingSchema : schema

buildingController -[dashed]-> buildingMapper
buildingController -[dashed]-> building
buildingController -[dashed]-> buildingDTO
buildingController -[dashed]-> buildingRepo
buildingService -[dashed]-> buildingSchema

@enduml

PlantUML version 1.2022.7(Mon Aug 22 18:01:30 WEST 2022)
(GPL source distribution)
Java Runtime: Java(TM) SE Runtime Environment
JVM: Java HotSpot(TM) 64-Bit Server VM
Default Encoding: Cp1252
Language: pt
Country: PT
--></g></svg>