<?xml version="1.0" encoding="us-ascii" standalone="no"?><svg xmlns="http://www.w3.org/2000/svg" xmlns:xlink="http://www.w3.org/1999/xlink" contentStyleType="text/css" height="736px" preserveAspectRatio="none" style="width:972px;height:736px;background:#FFFFFF;" version="1.1" viewBox="0 0 972 736" width="972px" zoomAndPan="magnify"><defs/><g><text fill="#000000" font-family="sans-serif" font-size="14" font-weight="bold" lengthAdjust="spacing" textLength="399" x="283" y="30.1074">Sequence Diagram (Level 3 - Process View - UI) - US 1140</text><rect fill="#FFFFFF" height="219.0371" style="stroke:#181818;stroke-width:1.0;" width="10" x="236" y="130.1543"/><rect fill="#FFFFFF" height="281.2793" style="stroke:#181818;stroke-width:1.0;" width="10" x="236" y="380.4824"/><rect fill="#FFFFFF" height="156.4551" style="stroke:#181818;stroke-width:1.0;" width="10" x="492" y="161.4453"/><rect fill="#FFFFFF" height="218.6973" style="stroke:#181818;stroke-width:1.0;" width="10" x="492" y="411.7734"/><rect fill="#FFFFFF" height="93.873" style="stroke:#181818;stroke-width:1.0;" width="10" x="718" y="192.7363"/><rect fill="#FFFFFF" height="93.873" style="stroke:#181818;stroke-width:1.0;" width="10" x="718" y="505.3066"/><line style="stroke:#181818;stroke-width:0.5;stroke-dasharray:5.0,5.0;" x1="240.5" x2="240.5" y1="96.8633" y2="679.7617"/><line style="stroke:#181818;stroke-width:0.5;stroke-dasharray:5.0,5.0;" x1="496.5" x2="496.5" y1="96.8633" y2="679.7617"/><line style="stroke:#181818;stroke-width:0.5;stroke-dasharray:5.0,5.0;" x1="609.5" x2="609.5" y1="460.8945" y2="679.7617"/><line style="stroke:#181818;stroke-width:0.5;stroke-dasharray:5.0,5.0;" x1="722.5" x2="722.5" y1="96.8633" y2="679.7617"/><rect fill="#E3E3E3" height="51.2422" rx="2.5" ry="2.5" style="stroke:#181818;stroke-width:0.5;" width="103" x="189.5" y="44.6211"/><text fill="#000000" font-family="sans-serif" font-size="14" font-style="italic" lengthAdjust="spacing" textLength="89" x="196.5" y="66.7285">&#171;Component&#187;</text><text fill="#000000" font-family="sans-serif" font-size="14" lengthAdjust="spacing" textLength="29" x="226.5" y="85.3496">View</text><rect fill="#E3E3E3" height="51.2422" rx="2.5" ry="2.5" style="stroke:#181818;stroke-width:0.5;" width="103" x="189.5" y="678.7617"/><text fill="#000000" font-family="sans-serif" font-size="14" font-style="italic" lengthAdjust="spacing" textLength="89" x="196.5" y="700.8691">&#171;Component&#187;</text><text fill="#000000" font-family="sans-serif" font-size="14" lengthAdjust="spacing" textLength="29" x="226.5" y="719.4902">View</text><rect fill="#E3E3E3" height="51.2422" rx="2.5" ry="2.5" style="stroke:#181818;stroke-width:0.5;" width="103" x="445.5" y="44.6211"/><text fill="#000000" font-family="sans-serif" font-size="14" font-style="italic" lengthAdjust="spacing" textLength="89" x="452.5" y="66.7285">&#171;Component&#187;</text><text fill="#000000" font-family="sans-serif" font-size="14" lengthAdjust="spacing" textLength="73" x="460.5" y="85.3496">Component</text><rect fill="#E3E3E3" height="51.2422" rx="2.5" ry="2.5" style="stroke:#181818;stroke-width:0.5;" width="103" x="445.5" y="678.7617"/><text fill="#000000" font-family="sans-serif" font-size="14" font-style="italic" lengthAdjust="spacing" textLength="89" x="452.5" y="700.8691">&#171;Component&#187;</text><text fill="#000000" font-family="sans-serif" font-size="14" lengthAdjust="spacing" textLength="73" x="460.5" y="719.4902">Component</text><rect fill="#E3E3E3" height="51.2422" rx="2.5" ry="2.5" style="stroke:#181818;stroke-width:0.5;" width="103" x="558.5" y="678.7617"/><text fill="#000000" font-family="sans-serif" font-size="14" font-style="italic" lengthAdjust="spacing" textLength="89" x="565.5" y="700.8691">&#171;Component&#187;</text><text fill="#000000" font-family="sans-serif" font-size="14" lengthAdjust="spacing" textLength="38" x="591" y="719.4902">Model</text><rect fill="#E3E3E3" height="51.2422" rx="2.5" ry="2.5" style="stroke:#181818;stroke-width:0.5;" width="103" x="671.5" y="44.6211"/><text fill="#000000" font-family="sans-serif" font-size="14" font-style="italic" lengthAdjust="spacing" textLength="89" x="678.5" y="66.7285">&#171;Component&#187;</text><text fill="#000000" font-family="sans-serif" font-size="14" lengthAdjust="spacing" textLength="47" x="699.5" y="85.3496">Service</text><rect fill="#E3E3E3" height="51.2422" rx="2.5" ry="2.5" style="stroke:#181818;stroke-width:0.5;" width="103" x="671.5" y="678.7617"/><text fill="#000000" font-family="sans-serif" font-size="14" font-style="italic" lengthAdjust="spacing" textLength="89" x="678.5" y="700.8691">&#171;Component&#187;</text><text fill="#000000" font-family="sans-serif" font-size="14" lengthAdjust="spacing" textLength="47" x="699.5" y="719.4902">Service</text><rect fill="#FFFFFF" height="219.0371" style="stroke:#181818;stroke-width:1.0;" width="10" x="236" y="130.1543"/><rect fill="#FFFFFF" height="281.2793" style="stroke:#181818;stroke-width:1.0;" width="10" x="236" y="380.4824"/><rect fill="#FFFFFF" height="156.4551" style="stroke:#181818;stroke-width:1.0;" width="10" x="492" y="161.4453"/><rect fill="#FFFFFF" height="218.6973" style="stroke:#181818;stroke-width:1.0;" width="10" x="492" y="411.7734"/><rect fill="#FFFFFF" height="93.873" style="stroke:#181818;stroke-width:1.0;" width="10" x="718" y="192.7363"/><rect fill="#FFFFFF" height="93.873" style="stroke:#181818;stroke-width:1.0;" width="10" x="718" y="505.3066"/><ellipse cx="4.5" cy="129.4043" fill="none" rx="4" ry="4" style="stroke:#181818;stroke-width:1.5;"/><polygon fill="#181818" points="224,126.1543,234,130.1543,224,134.1543,228,130.1543" style="stroke:#181818;stroke-width:1.0;"/><line style="stroke:#181818;stroke-width:1.0;" x1="9" x2="230" y1="130.1543" y2="130.1543"/><text fill="#000000" font-family="sans-serif" font-size="13" font-weight="bold" lengthAdjust="spacing" textLength="7" x="12" y="124.8916">1</text><text fill="#000000" font-family="sans-serif" font-size="13" lengthAdjust="spacing" textLength="198" x="23" y="124.8916">Ask to list an elevator in a building</text><polygon fill="#181818" points="480,157.4453,490,161.4453,480,165.4453,484,161.4453" style="stroke:#181818;stroke-width:1.0;"/><line style="stroke:#181818;stroke-width:1.0;" x1="246" x2="486" y1="161.4453" y2="161.4453"/><text fill="#000000" font-family="sans-serif" font-size="13" font-weight="bold" lengthAdjust="spacing" textLength="7" x="253" y="156.1826">2</text><text fill="#000000" font-family="sans-serif" font-size="13" lengthAdjust="spacing" textLength="94" x="264" y="156.1826">getAllBuildings()</text><polygon fill="#181818" points="706,188.7363,716,192.7363,706,196.7363,710,192.7363" style="stroke:#181818;stroke-width:1.0;"/><line style="stroke:#181818;stroke-width:1.0;" x1="502" x2="712" y1="192.7363" y2="192.7363"/><text fill="#000000" font-family="sans-serif" font-size="13" font-weight="bold" lengthAdjust="spacing" textLength="7" x="509" y="187.4736">3</text><text fill="#000000" font-family="sans-serif" font-size="13" lengthAdjust="spacing" textLength="114" x="520" y="187.4736">getAllBuildingsInfo()</text><polygon fill="#181818" points="954,220.0273,964,224.0273,954,228.0273,958,224.0273" style="stroke:#181818;stroke-width:1.0;"/><line style="stroke:#181818;stroke-width:1.0;" x1="728" x2="960" y1="224.0273" y2="224.0273"/><text fill="#000000" font-family="sans-serif" font-size="13" font-weight="bold" lengthAdjust="spacing" textLength="7" x="735" y="218.7646">4</text><text fill="#000000" font-family="sans-serif" font-size="13" lengthAdjust="spacing" textLength="105" x="746" y="218.7646">GET (.../buildings)</text><polygon fill="#181818" points="739,251.3184,729,255.3184,739,259.3184,735,255.3184" style="stroke:#181818;stroke-width:1.0;"/><line style="stroke:#181818;stroke-width:1.0;stroke-dasharray:2.0,2.0;" x1="733" x2="965" y1="255.3184" y2="255.3184"/><text fill="#000000" font-family="sans-serif" font-size="13" font-weight="bold" lengthAdjust="spacing" textLength="7" x="745" y="250.0557">5</text><text fill="#000000" font-family="sans-serif" font-size="13" lengthAdjust="spacing" textLength="90" x="756" y="250.0557">status: 200/404</text><polygon fill="#181818" points="513,282.6094,503,286.6094,513,290.6094,509,286.6094" style="stroke:#181818;stroke-width:1.0;"/><line style="stroke:#181818;stroke-width:1.0;stroke-dasharray:2.0,2.0;" x1="507" x2="722" y1="286.6094" y2="286.6094"/><text fill="#000000" font-family="sans-serif" font-size="13" font-weight="bold" lengthAdjust="spacing" textLength="7" x="519" y="281.3467">6</text><text fill="#000000" font-family="sans-serif" font-size="13" lengthAdjust="spacing" textLength="91" x="530" y="281.3467">Success / Error</text><polygon fill="#181818" points="257,313.9004,247,317.9004,257,321.9004,253,317.9004" style="stroke:#181818;stroke-width:1.0;"/><line style="stroke:#181818;stroke-width:1.0;stroke-dasharray:2.0,2.0;" x1="251" x2="496" y1="317.9004" y2="317.9004"/><text fill="#000000" font-family="sans-serif" font-size="13" font-weight="bold" lengthAdjust="spacing" textLength="7" x="263" y="312.6377">7</text><text fill="#000000" font-family="sans-serif" font-size="13" lengthAdjust="spacing" textLength="204" x="274" y="312.6377">Information about the success/error</text><polygon fill="#181818" points="11,345.1914,1,349.1914,11,353.1914,7,349.1914" style="stroke:#181818;stroke-width:1.0;"/><line style="stroke:#181818;stroke-width:1.0;stroke-dasharray:2.0,2.0;" x1="5" x2="240" y1="349.1914" y2="349.1914"/><text fill="#000000" font-family="sans-serif" font-size="13" font-weight="bold" lengthAdjust="spacing" textLength="7" x="17" y="343.9287">8</text><text fill="#000000" font-family="sans-serif" font-size="13" lengthAdjust="spacing" textLength="150" x="28" y="343.9287">Ask to choose an building</text><ellipse cx="88.5" cy="379.7324" fill="none" rx="4" ry="4" style="stroke:#181818;stroke-width:1.5;"/><polygon fill="#181818" points="224,376.4824,234,380.4824,224,384.4824,228,380.4824" style="stroke:#181818;stroke-width:1.0;"/><line style="stroke:#181818;stroke-width:1.0;" x1="93" x2="230" y1="380.4824" y2="380.4824"/><text fill="#000000" font-family="sans-serif" font-size="13" font-weight="bold" lengthAdjust="spacing" textLength="7" x="96" y="375.2197">9</text><text fill="#000000" font-family="sans-serif" font-size="13" lengthAdjust="spacing" textLength="114" x="107" y="375.2197">Choose the building</text><polygon fill="#181818" points="480,407.7734,490,411.7734,480,415.7734,484,411.7734" style="stroke:#181818;stroke-width:1.0;"/><line style="stroke:#181818;stroke-width:1.0;" x1="246" x2="486" y1="411.7734" y2="411.7734"/><text fill="#000000" font-family="sans-serif" font-size="13" font-weight="bold" lengthAdjust="spacing" textLength="14" x="253" y="406.5107">10</text><text fill="#000000" font-family="sans-serif" font-size="13" lengthAdjust="spacing" textLength="71" x="271" y="406.5107">listElevator()</text><polygon fill="#181818" points="546.5,439.0645,556.5,443.0645,546.5,447.0645,550.5,443.0645" style="stroke:#181818;stroke-width:1.0;"/><line style="stroke:#181818;stroke-width:1.0;stroke-dasharray:2.0,2.0;" x1="502" x2="552.5" y1="443.0645" y2="443.0645"/><text fill="#000000" font-family="sans-serif" font-size="13" font-weight="bold" lengthAdjust="spacing" textLength="14" x="509" y="437.8018">11</text><text fill="#000000" font-family="sans-serif" font-size="13" lengthAdjust="spacing" textLength="4" x="527" y="437.8018">&#160;</text><rect fill="#E3E3E3" height="51.2422" rx="2.5" ry="2.5" style="stroke:#181818;stroke-width:0.5;" width="103" x="558.5" y="419.7734"/><text fill="#000000" font-family="sans-serif" font-size="14" font-style="italic" lengthAdjust="spacing" textLength="89" x="565.5" y="441.8809">&#171;Component&#187;</text><text fill="#000000" font-family="sans-serif" font-size="14" lengthAdjust="spacing" textLength="38" x="591" y="460.502">Model</text><polygon fill="#181818" points="706,501.3066,716,505.3066,706,509.3066,710,505.3066" style="stroke:#181818;stroke-width:1.0;"/><line style="stroke:#181818;stroke-width:1.0;" x1="502" x2="712" y1="505.3066" y2="505.3066"/><text fill="#000000" font-family="sans-serif" font-size="13" font-weight="bold" lengthAdjust="spacing" textLength="14" x="509" y="500.0439">12</text><text fill="#000000" font-family="sans-serif" font-size="13" lengthAdjust="spacing" textLength="178" x="527" y="500.0439">getElevatorByBuilding(building)</text><polygon fill="#181818" points="954,532.5977,964,536.5977,954,540.5977,958,536.5977" style="stroke:#181818;stroke-width:1.0;"/><line style="stroke:#181818;stroke-width:1.0;" x1="728" x2="960" y1="536.5977" y2="536.5977"/><text fill="#000000" font-family="sans-serif" font-size="13" font-weight="bold" lengthAdjust="spacing" textLength="14" x="735" y="531.335">13</text><text fill="#000000" font-family="sans-serif" font-size="13" lengthAdjust="spacing" textLength="196" x="753" y="531.335">GET (.../buildings/:code/elevators)</text><polygon fill="#181818" points="739,563.8887,729,567.8887,739,571.8887,735,567.8887" style="stroke:#181818;stroke-width:1.0;"/><line style="stroke:#181818;stroke-width:1.0;stroke-dasharray:2.0,2.0;" x1="733" x2="965" y1="567.8887" y2="567.8887"/><text fill="#000000" font-family="sans-serif" font-size="13" font-weight="bold" lengthAdjust="spacing" textLength="14" x="745" y="562.626">14</text><text fill="#000000" font-family="sans-serif" font-size="13" lengthAdjust="spacing" textLength="90" x="763" y="562.626">status: 200/404</text><polygon fill="#181818" points="513,595.1797,503,599.1797,513,603.1797,509,599.1797" style="stroke:#181818;stroke-width:1.0;"/><line style="stroke:#181818;stroke-width:1.0;stroke-dasharray:2.0,2.0;" x1="507" x2="722" y1="599.1797" y2="599.1797"/><text fill="#000000" font-family="sans-serif" font-size="13" font-weight="bold" lengthAdjust="spacing" textLength="14" x="519" y="593.917">15</text><text fill="#000000" font-family="sans-serif" font-size="13" lengthAdjust="spacing" textLength="91" x="537" y="593.917">Success / Error</text><polygon fill="#181818" points="257,626.4707,247,630.4707,257,634.4707,253,630.4707" style="stroke:#181818;stroke-width:1.0;"/><line style="stroke:#181818;stroke-width:1.0;stroke-dasharray:2.0,2.0;" x1="251" x2="496" y1="630.4707" y2="630.4707"/><text fill="#000000" font-family="sans-serif" font-size="13" font-weight="bold" lengthAdjust="spacing" textLength="14" x="263" y="625.208">16</text><text fill="#000000" font-family="sans-serif" font-size="13" lengthAdjust="spacing" textLength="204" x="281" y="625.208">Information about the success/error</text><polygon fill="#181818" points="11,657.7617,1,661.7617,11,665.7617,7,661.7617" style="stroke:#181818;stroke-width:1.0;"/><line style="stroke:#181818;stroke-width:1.0;stroke-dasharray:2.0,2.0;" x1="5" x2="240" y1="661.7617" y2="661.7617"/><text fill="#000000" font-family="sans-serif" font-size="13" font-weight="bold" lengthAdjust="spacing" textLength="14" x="17" y="656.499">17</text><text fill="#000000" font-family="sans-serif" font-size="13" lengthAdjust="spacing" textLength="84" x="35" y="656.499">Sucess / Error</text><!--SRC=[tL9DQ-Cm4BthLmmz9ON4QPkJ2Idz24kXXGNlxbrHfew8hCbAuvJ- -vKLMt7IKBQmfzN1MD9xJszcdjzekvLELb2H9RLsL26mgr7uTBELQYDBBFZT83XKB6rf-W2_bYjwqxQ4Lsay2i6Q0xJ0tpLQXV2ePTdW1i-uGmCtC8BlZXHw3xyqleNjpwTXyotWwcew4R9cidMrH2T4U86rqbjf6IuQz0N8bZQRFL2r9OkMv_DZOBg8wBJxZF92ApGH7ly-WnReTbfX1BV_9t1nIwFvtcKETtu3J62qPv0MqE1ECZdG5YGiQsrMeNL2AjRX72DBG5ZxtinxzdCeaU-CkMz9VZ2CoCHDq7ZSh0CvA7LcF-WysLTgjOxqMaAwQ5Od4lHo-BRu0OFnU9nrTVZXMV1iDCh1i-JQvt0zcMJJoVIywad1HQrYK39OE4SkSLRumUIvcWzJQ4fqbMHDeUrBgXbuZU3tyXacyPxmePl1_iaqrPh8OpFFDC4UCyxmA0GFUtppvXT7tkHcqMRcI_CEEZ7AbvUG_qKUkZVktxjO33gd_oOPMQw2dQpB_t-Vb62ex-Sq7dy0]--></g></svg>