<?xml version="1.0" encoding="us-ascii" standalone="no"?><svg xmlns="http://www.w3.org/2000/svg" xmlns:xlink="http://www.w3.org/1999/xlink" contentStyleType="text/css" height="705px" preserveAspectRatio="none" style="width:802px;height:705px;background:#FFFFFF;" version="1.1" viewBox="0 0 802 705" width="802.8px" zoomAndPan="magnify"><defs/><g><text fill="#000000" font-family="sans-serif" font-size="8.4" font-weight="bold" lengthAdjust="spacing" textLength="244.8" x="278.55" y="18.0645">Sequence Diagram (Level 3 - Process View - MD) - US 1140</text><rect fill="#FFFFFF" height="270.6387" style="stroke:#181818;stroke-width:0.6;" width="6" x="144.6" y="89.2652"/><rect fill="#FFFFFF" height="270.6387" style="stroke:#181818;stroke-width:0.6;" width="6" x="144.6" y="378.6785"/><rect fill="#FFFFFF" height="233.0895" style="stroke:#181818;stroke-width:0.6;" width="6" x="251.4" y="108.0398"/><rect fill="#FFFFFF" height="186.5402" style="stroke:#181818;stroke-width:0.6;" width="6" x="254.4" y="131.6145"/><rect fill="#FFFFFF" height="233.0895" style="stroke:#181818;stroke-width:0.6;" width="6" x="251.4" y="397.4531"/><rect fill="#FFFFFF" height="186.5402" style="stroke:#181818;stroke-width:0.6;" width="6" x="254.4" y="421.0277"/><rect fill="#FFFFFF" height="142.391" style="stroke:#181818;stroke-width:0.6;" width="6" x="403.2" y="153.3891"/><rect fill="#FFFFFF" height="142.391" style="stroke:#181818;stroke-width:0.6;" width="6" x="403.2" y="442.8023"/><rect fill="#FFFFFF" height="56.3238" style="stroke:#181818;stroke-width:0.6;" width="6" x="693.6" y="172.1637"/><rect fill="#FFFFFF" height="56.3238" style="stroke:#181818;stroke-width:0.6;" width="6" x="693.6" y="461.577"/><rect fill="#FFFFFF" height="18.7746" style="stroke:#181818;stroke-width:0.6;" width="6" x="768.9" y="190.9383"/><rect fill="#FFFFFF" height="18.7746" style="stroke:#181818;stroke-width:0.6;" width="6" x="768.9" y="480.3516"/><line style="stroke:#181818;stroke-width:0.3;stroke-dasharray:5.0,5.0;" x1="147.3" x2="147.3" y1="69.2906" y2="660.1172"/><line style="stroke:#181818;stroke-width:0.3;stroke-dasharray:5.0,5.0;" x1="254.1" x2="254.1" y1="69.2906" y2="660.1172"/><line style="stroke:#181818;stroke-width:0.3;stroke-dasharray:5.0,5.0;" x1="405.9" x2="405.9" y1="69.2906" y2="660.1172"/><line style="stroke:#181818;stroke-width:0.3;stroke-dasharray:5.0,5.0;" x1="495.9" x2="495.9" y1="263.5465" y2="660.1172"/><line style="stroke:#181818;stroke-width:0.3;stroke-dasharray:5.0,5.0;" x1="564.9" x2="564.9" y1="552.9598" y2="660.1172"/><line style="stroke:#181818;stroke-width:0.3;stroke-dasharray:5.0,5.0;" x1="625.5" x2="625.5" y1="69.2906" y2="660.1172"/><line style="stroke:#181818;stroke-width:0.3;stroke-dasharray:5.0,5.0;" x1="696.3" x2="696.3" y1="69.2906" y2="660.1172"/><line style="stroke:#181818;stroke-width:0.3;stroke-dasharray:5.0,5.0;" x1="771.9" x2="771.9" y1="69.2906" y2="660.1172"/><rect fill="#E3E3E3" height="30.7453" rx="1.5" ry="1.5" style="stroke:#181818;stroke-width:0.3;" width="60.6" x="117.3" y="37.9453"/><text fill="#000000" font-family="sans-serif" font-size="8.4" font-style="italic" lengthAdjust="spacing" textLength="32.4" x="131.4" y="51.2098">&#171;Route&#187;</text><text fill="#000000" font-family="sans-serif" font-size="8.4" lengthAdjust="spacing" textLength="52.2" x="121.5" y="62.3824">buildingRoute</text><rect fill="#E3E3E3" height="30.7453" rx="1.5" ry="1.5" style="stroke:#181818;stroke-width:0.3;" width="60.6" x="117.3" y="659.5172"/><text fill="#000000" font-family="sans-serif" font-size="8.4" font-style="italic" lengthAdjust="spacing" textLength="32.4" x="131.4" y="672.7816">&#171;Route&#187;</text><text fill="#000000" font-family="sans-serif" font-size="8.4" lengthAdjust="spacing" textLength="52.2" x="121.5" y="683.9543">buildingRoute</text><rect fill="#E3E3E3" height="41.918" rx="1.5" ry="1.5" style="stroke:#181818;stroke-width:0.3;" width="79.8" x="214.5" y="26.7727"/><text fill="#000000" font-family="sans-serif" font-size="8.4" font-style="italic" lengthAdjust="spacing" textLength="46.8" x="231" y="40.0371">&#171;Controller&#187;</text><text fill="#000000" font-family="sans-serif" font-size="8.4" lengthAdjust="spacing" textLength="46.2" x="231.3" y="51.2098">ctrlBuilding :</text><text fill="#000000" font-family="sans-serif" font-size="8.4" lengthAdjust="spacing" textLength="69" x="221.1" y="62.3824">IBuildingController</text><rect fill="#E3E3E3" height="41.918" rx="1.5" ry="1.5" style="stroke:#181818;stroke-width:0.3;" width="79.8" x="214.5" y="659.5172"/><text fill="#000000" font-family="sans-serif" font-size="8.4" font-style="italic" lengthAdjust="spacing" textLength="46.8" x="231" y="672.7816">&#171;Controller&#187;</text><text fill="#000000" font-family="sans-serif" font-size="8.4" lengthAdjust="spacing" textLength="46.2" x="231.3" y="683.9543">ctrlBuilding :</text><text fill="#000000" font-family="sans-serif" font-size="8.4" lengthAdjust="spacing" textLength="69" x="221.1" y="695.127">IBuildingController</text><rect fill="#E3E3E3" height="41.918" rx="1.5" ry="1.5" style="stroke:#181818;stroke-width:0.3;" width="102.6" x="354.9" y="26.7727"/><text fill="#000000" font-family="sans-serif" font-size="8.4" font-style="italic" lengthAdjust="spacing" textLength="37.2" x="387.6" y="40.0371">&#171;Service&#187;</text><text fill="#000000" font-family="sans-serif" font-size="8.4" lengthAdjust="spacing" textLength="94.2" x="359.1" y="51.2098">buildingServiceInstance :</text><text fill="#000000" font-family="sans-serif" font-size="8.4" lengthAdjust="spacing" textLength="60" x="377.4" y="62.3824">IBuildingService</text><rect fill="#E3E3E3" height="41.918" rx="1.5" ry="1.5" style="stroke:#181818;stroke-width:0.3;" width="102.6" x="354.9" y="659.5172"/><text fill="#000000" font-family="sans-serif" font-size="8.4" font-style="italic" lengthAdjust="spacing" textLength="37.2" x="387.6" y="672.7816">&#171;Service&#187;</text><text fill="#000000" font-family="sans-serif" font-size="8.4" lengthAdjust="spacing" textLength="94.2" x="359.1" y="683.9543">buildingServiceInstance :</text><text fill="#000000" font-family="sans-serif" font-size="8.4" lengthAdjust="spacing" textLength="60" x="377.4" y="695.127">IBuildingService</text><rect fill="#E3E3E3" height="41.918" rx="1.5" ry="1.5" style="stroke:#181818;stroke-width:0.3;" width="64.8" x="463.5" y="659.5172"/><text fill="#000000" font-family="sans-serif" font-size="8.4" font-style="italic" lengthAdjust="spacing" textLength="27.6" x="482.1" y="672.7816">&#171;DTO&#187;</text><text fill="#000000" font-family="sans-serif" font-size="8.4" lengthAdjust="spacing" textLength="56.4" x="467.7" y="683.9543">buildingDTOs :</text><text fill="#000000" font-family="sans-serif" font-size="8.4" lengthAdjust="spacing" textLength="52.8" x="470.7" y="695.127">IBuildngDTO[]</text><rect fill="#E3E3E3" height="41.918" rx="1.5" ry="1.5" style="stroke:#181818;stroke-width:0.3;" width="61.8" x="534.3" y="659.5172"/><text fill="#000000" font-family="sans-serif" font-size="8.4" font-style="italic" lengthAdjust="spacing" textLength="27.6" x="551.4" y="672.7816">&#171;DTO&#187;</text><text fill="#000000" font-family="sans-serif" font-size="8.4" lengthAdjust="spacing" textLength="53.4" x="538.5" y="683.9543">elevatorDTO :</text><text fill="#000000" font-family="sans-serif" font-size="8.4" lengthAdjust="spacing" textLength="51" x="540.9" y="695.127">IElevatorDTO</text><rect fill="#E3E3E3" height="41.918" rx="1.5" ry="1.5" style="stroke:#181818;stroke-width:0.3;" width="46.8" x="602.1" y="26.7727"/><text fill="#000000" font-family="sans-serif" font-size="8.4" font-style="italic" lengthAdjust="spacing" textLength="38.4" x="606.3" y="40.0371">&#171;Domain&#187;</text><text fill="#000000" font-family="sans-serif" font-size="8.4" lengthAdjust="spacing" textLength="35.4" x="607.8" y="51.2098">elevator :</text><text fill="#000000" font-family="sans-serif" font-size="8.4" lengthAdjust="spacing" textLength="30.6" x="611.4" y="62.3824">elevator</text><rect fill="#E3E3E3" height="41.918" rx="1.5" ry="1.5" style="stroke:#181818;stroke-width:0.3;" width="46.8" x="602.1" y="659.5172"/><text fill="#000000" font-family="sans-serif" font-size="8.4" font-style="italic" lengthAdjust="spacing" textLength="38.4" x="606.3" y="672.7816">&#171;Domain&#187;</text><text fill="#000000" font-family="sans-serif" font-size="8.4" lengthAdjust="spacing" textLength="35.4" x="607.8" y="683.9543">elevator :</text><text fill="#000000" font-family="sans-serif" font-size="8.4" lengthAdjust="spacing" textLength="30.6" x="611.4" y="695.127">elevator</text><rect fill="#E3E3E3" height="41.918" rx="1.5" ry="1.5" style="stroke:#181818;stroke-width:0.3;" width="83.4" x="654.9" y="26.7727"/><text fill="#000000" font-family="sans-serif" font-size="8.4" font-style="italic" lengthAdjust="spacing" textLength="50.4" x="671.4" y="40.0371">&#171;Repository&#187;</text><text fill="#000000" font-family="sans-serif" font-size="8.4" lengthAdjust="spacing" textLength="54.6" x="669.3" y="51.2098">buildingRepo :</text><text fill="#000000" font-family="sans-serif" font-size="8.4" lengthAdjust="spacing" textLength="72.6" x="661.5" y="62.3824">IBuildingRepository</text><rect fill="#E3E3E3" height="41.918" rx="1.5" ry="1.5" style="stroke:#181818;stroke-width:0.3;" width="83.4" x="654.9" y="659.5172"/><text fill="#000000" font-family="sans-serif" font-size="8.4" font-style="italic" lengthAdjust="spacing" textLength="50.4" x="671.4" y="672.7816">&#171;Repository&#187;</text><text fill="#000000" font-family="sans-serif" font-size="8.4" lengthAdjust="spacing" textLength="54.6" x="669.3" y="683.9543">buildingRepo :</text><text fill="#000000" font-family="sans-serif" font-size="8.4" lengthAdjust="spacing" textLength="72.6" x="661.5" y="695.127">IBuildingRepository</text><rect fill="#E3E3E3" height="30.7453" rx="1.5" ry="1.5" style="stroke:#181818;stroke-width:0.3;" width="55.2" x="744.3" y="37.9453"/><text fill="#000000" font-family="sans-serif" font-size="8.4" font-style="italic" lengthAdjust="spacing" textLength="46.8" x="748.5" y="51.2098">&#171;DataBase&#187;</text><text fill="#000000" font-family="sans-serif" font-size="8.4" lengthAdjust="spacing" textLength="11.4" x="766.2" y="62.3824">DB</text><rect fill="#E3E3E3" height="30.7453" rx="1.5" ry="1.5" style="stroke:#181818;stroke-width:0.3;" width="55.2" x="744.3" y="659.5172"/><text fill="#000000" font-family="sans-serif" font-size="8.4" font-style="italic" lengthAdjust="spacing" textLength="46.8" x="748.5" y="672.7816">&#171;DataBase&#187;</text><text fill="#000000" font-family="sans-serif" font-size="8.4" lengthAdjust="spacing" textLength="11.4" x="766.2" y="683.9543">DB</text><rect fill="#FFFFFF" height="270.6387" style="stroke:#181818;stroke-width:0.6;" width="6" x="144.6" y="89.2652"/><rect fill="#FFFFFF" height="270.6387" style="stroke:#181818;stroke-width:0.6;" width="6" x="144.6" y="378.6785"/><rect fill="#FFFFFF" height="233.0895" style="stroke:#181818;stroke-width:0.6;" width="6" x="251.4" y="108.0398"/><rect fill="#FFFFFF" height="186.5402" style="stroke:#181818;stroke-width:0.6;" width="6" x="254.4" y="131.6145"/><rect fill="#FFFFFF" height="233.0895" style="stroke:#181818;stroke-width:0.6;" width="6" x="251.4" y="397.4531"/><rect fill="#FFFFFF" height="186.5402" style="stroke:#181818;stroke-width:0.6;" width="6" x="254.4" y="421.0277"/><rect fill="#FFFFFF" height="142.391" style="stroke:#181818;stroke-width:0.6;" width="6" x="403.2" y="153.3891"/><rect fill="#FFFFFF" height="142.391" style="stroke:#181818;stroke-width:0.6;" width="6" x="403.2" y="442.8023"/><rect fill="#FFFFFF" height="56.3238" style="stroke:#181818;stroke-width:0.6;" width="6" x="693.6" y="172.1637"/><rect fill="#FFFFFF" height="56.3238" style="stroke:#181818;stroke-width:0.6;" width="6" x="693.6" y="461.577"/><rect fill="#FFFFFF" height="18.7746" style="stroke:#181818;stroke-width:0.6;" width="6" x="768.9" y="190.9383"/><rect fill="#FFFFFF" height="18.7746" style="stroke:#181818;stroke-width:0.6;" width="6" x="768.9" y="480.3516"/><ellipse cx="61.5" cy="88.8152" fill="none" rx="2.4" ry="2.4" style="stroke:#181818;stroke-width:0.8999999999999999;"/><polygon fill="#181818" points="137.4,86.8652,143.4,89.2652,137.4,91.6652,139.8,89.2652" style="stroke:#181818;stroke-width:0.6;"/><line style="stroke:#181818;stroke-width:0.6;" x1="64.2" x2="141" y1="89.2652" y2="89.2652"/><text fill="#000000" font-family="sans-serif" font-size="7.8" font-weight="bold" lengthAdjust="spacing" textLength="4.2" x="66" y="86.1076">1</text><text fill="#000000" font-family="sans-serif" font-size="7.8" lengthAdjust="spacing" textLength="63" x="72.6" y="86.1076">GET (.../buildings)</text><polygon fill="#181818" points="244.2,105.6398,250.2,108.0398,244.2,110.4398,246.6,108.0398" style="stroke:#181818;stroke-width:0.6;"/><line style="stroke:#181818;stroke-width:0.6;" x1="150.6" x2="247.8" y1="108.0398" y2="108.0398"/><text fill="#000000" font-family="sans-serif" font-size="7.8" font-weight="bold" lengthAdjust="spacing" textLength="4.2" x="154.8" y="104.8822">2</text><text fill="#000000" font-family="sans-serif" font-size="7.8" lengthAdjust="spacing" textLength="78.6" x="161.4" y="104.8822">execute(req, res, next)</text><line style="stroke:#181818;stroke-width:0.6;" x1="257.4" x2="285.6" y1="123.8145" y2="123.8145"/><line style="stroke:#181818;stroke-width:0.6;" x1="285.6" x2="285.6" y1="123.8145" y2="131.6145"/><line style="stroke:#181818;stroke-width:0.6;" x1="261" x2="285.6" y1="131.6145" y2="131.6145"/><polygon fill="#181818" points="267,129.2145,261,131.6145,267,134.0145,264.6,131.6145" style="stroke:#181818;stroke-width:0.6;"/><text fill="#000000" font-family="sans-serif" font-size="7.8" font-weight="bold" lengthAdjust="spacing" textLength="4.2" x="264.6" y="120.6568">3</text><text fill="#000000" font-family="sans-serif" font-size="7.8" lengthAdjust="spacing" textLength="102.6" x="271.2" y="120.6568">getAllBuildings(req, res, next)</text><polygon fill="#181818" points="396,150.9891,402,153.3891,396,155.7891,398.4,153.3891" style="stroke:#181818;stroke-width:0.6;"/><line style="stroke:#181818;stroke-width:0.6;" x1="260.4" x2="399.6" y1="153.3891" y2="153.3891"/><text fill="#000000" font-family="sans-serif" font-size="7.8" font-weight="bold" lengthAdjust="spacing" textLength="4.2" x="264.6" y="150.2314">4</text><text fill="#000000" font-family="sans-serif" font-size="7.8" lengthAdjust="spacing" textLength="47.4" x="271.2" y="150.2314">getBuildings()</text><polygon fill="#181818" points="686.4,169.7637,692.4,172.1637,686.4,174.5637,688.8,172.1637" style="stroke:#181818;stroke-width:0.6;"/><line style="stroke:#181818;stroke-width:0.6;" x1="409.2" x2="690" y1="172.1637" y2="172.1637"/><text fill="#000000" font-family="sans-serif" font-size="7.8" font-weight="bold" lengthAdjust="spacing" textLength="4.2" x="413.4" y="169.0061">5</text><text fill="#000000" font-family="sans-serif" font-size="7.8" lengthAdjust="spacing" textLength="25.8" x="420" y="169.0061">findAll()</text><polygon fill="#181818" points="761.7,188.5383,767.7,190.9383,761.7,193.3383,764.1,190.9383" style="stroke:#181818;stroke-width:0.6;"/><line style="stroke:#181818;stroke-width:0.6;" x1="699.6" x2="765.3" y1="190.9383" y2="190.9383"/><text fill="#000000" font-family="sans-serif" font-size="7.8" font-weight="bold" lengthAdjust="spacing" textLength="4.2" x="703.8" y="187.7807">6</text><text fill="#000000" font-family="sans-serif" font-size="7.8" lengthAdjust="spacing" textLength="2.4" x="710.4" y="187.7807">&#160;</text><polygon fill="#181818" points="706.2,207.3129,700.2,209.7129,706.2,212.1129,703.8,209.7129" style="stroke:#181818;stroke-width:0.6;"/><line style="stroke:#181818;stroke-width:0.6;stroke-dasharray:2.0,2.0;" x1="702.6" x2="771.3" y1="209.7129" y2="209.7129"/><text fill="#000000" font-family="sans-serif" font-size="7.8" font-weight="bold" lengthAdjust="spacing" textLength="4.2" x="709.8" y="206.5553">7</text><text fill="#000000" font-family="sans-serif" font-size="7.8" lengthAdjust="spacing" textLength="2.4" x="716.4" y="206.5553">&#160;</text><polygon fill="#181818" points="415.8,226.0875,409.8,228.4875,415.8,230.8875,413.4,228.4875" style="stroke:#181818;stroke-width:0.6;"/><line style="stroke:#181818;stroke-width:0.6;stroke-dasharray:2.0,2.0;" x1="412.2" x2="696" y1="228.4875" y2="228.4875"/><text fill="#000000" font-family="sans-serif" font-size="7.8" font-weight="bold" lengthAdjust="spacing" textLength="4.2" x="419.4" y="225.3299">8</text><text fill="#000000" font-family="sans-serif" font-size="7.8" lengthAdjust="spacing" textLength="2.4" x="426" y="225.3299">&#160;</text><polygon fill="#181818" points="456.3,244.8621,462.3,247.2621,456.3,249.6621,458.7,247.2621" style="stroke:#181818;stroke-width:0.6;"/><line style="stroke:#181818;stroke-width:0.6;stroke-dasharray:2.0,2.0;" x1="409.2" x2="459.9" y1="247.2621" y2="247.2621"/><text fill="#000000" font-family="sans-serif" font-size="7.8" font-weight="bold" lengthAdjust="spacing" textLength="4.2" x="413.4" y="244.1045">9</text><text fill="#000000" font-family="sans-serif" font-size="7.8" lengthAdjust="spacing" textLength="21.6" x="420" y="244.1045">create</text><rect fill="#E3E3E3" height="41.918" rx="1.5" ry="1.5" style="stroke:#181818;stroke-width:0.3;" width="64.8" x="463.5" y="233.2875"/><text fill="#000000" font-family="sans-serif" font-size="8.4" font-style="italic" lengthAdjust="spacing" textLength="27.6" x="482.1" y="246.552">&#171;DTO&#187;</text><text fill="#000000" font-family="sans-serif" font-size="8.4" lengthAdjust="spacing" textLength="56.4" x="467.7" y="257.7246">buildingDTOs :</text><text fill="#000000" font-family="sans-serif" font-size="8.4" lengthAdjust="spacing" textLength="52.8" x="470.7" y="268.8973">IBuildngDTO[]</text><polygon fill="#181818" points="267,293.3801,261,295.7801,267,298.1801,264.6,295.7801" style="stroke:#181818;stroke-width:0.6;"/><line style="stroke:#181818;stroke-width:0.6;stroke-dasharray:2.0,2.0;" x1="263.4" x2="405.6" y1="295.7801" y2="295.7801"/><text fill="#000000" font-family="sans-serif" font-size="7.8" font-weight="bold" lengthAdjust="spacing" textLength="8.4" x="270.6" y="292.6225">10</text><text fill="#000000" font-family="sans-serif" font-size="7.8" lengthAdjust="spacing" textLength="46.2" x="281.4" y="292.6225">buildingDTOs</text><line style="stroke:#181818;stroke-width:0.6;stroke-dasharray:2.0,2.0;" x1="260.4" x2="285.6" y1="317.5547" y2="317.5547"/><line style="stroke:#181818;stroke-width:0.6;stroke-dasharray:2.0,2.0;" x1="285.6" x2="285.6" y1="317.5547" y2="325.3547"/><line style="stroke:#181818;stroke-width:0.6;stroke-dasharray:2.0,2.0;" x1="257.4" x2="285.6" y1="325.3547" y2="325.3547"/><polygon fill="#181818" points="263.4,322.9547,257.4,325.3547,263.4,327.7547,261,325.3547" style="stroke:#181818;stroke-width:0.6;"/><text fill="#000000" font-family="sans-serif" font-size="7.8" font-weight="bold" lengthAdjust="spacing" textLength="8.4" x="264.6" y="314.3971">11</text><text fill="#000000" font-family="sans-serif" font-size="7.8" lengthAdjust="spacing" textLength="54" x="275.4" y="314.3971">status: 200/404</text><polygon fill="#181818" points="157.2,338.7293,151.2,341.1293,157.2,343.5293,154.8,341.1293" style="stroke:#181818;stroke-width:0.6;"/><line style="stroke:#181818;stroke-width:0.6;stroke-dasharray:2.0,2.0;" x1="153.6" x2="253.8" y1="341.1293" y2="341.1293"/><text fill="#000000" font-family="sans-serif" font-size="7.8" font-weight="bold" lengthAdjust="spacing" textLength="8.4" x="160.8" y="337.9717">12</text><text fill="#000000" font-family="sans-serif" font-size="7.8" lengthAdjust="spacing" textLength="54" x="171.6" y="337.9717">status: 200/404</text><polygon fill="#181818" points="6.6,357.5039,0.6,359.9039,6.6,362.3039,4.2,359.9039" style="stroke:#181818;stroke-width:0.6;"/><line style="stroke:#181818;stroke-width:0.6;stroke-dasharray:2.0,2.0;" x1="3" x2="147" y1="359.9039" y2="359.9039"/><text fill="#000000" font-family="sans-serif" font-size="7.8" font-weight="bold" lengthAdjust="spacing" textLength="8.4" x="10.2" y="356.7463">13</text><text fill="#000000" font-family="sans-serif" font-size="7.8" lengthAdjust="spacing" textLength="54" x="21" y="356.7463">status: 200/404</text><ellipse cx="2.7" cy="378.2285" fill="none" rx="2.4" ry="2.4" style="stroke:#181818;stroke-width:0.8999999999999999;"/><polygon fill="#181818" points="137.4,376.2785,143.4,378.6785,137.4,381.0785,139.8,378.6785" style="stroke:#181818;stroke-width:0.6;"/><line style="stroke:#181818;stroke-width:0.6;" x1="5.4" x2="141" y1="378.6785" y2="378.6785"/><text fill="#000000" font-family="sans-serif" font-size="7.8" font-weight="bold" lengthAdjust="spacing" textLength="8.4" x="7.2" y="375.5209">14</text><text fill="#000000" font-family="sans-serif" font-size="7.8" lengthAdjust="spacing" textLength="117.6" x="18" y="375.5209">GET (.../buildings/:code/elevators)</text><polygon fill="#181818" points="244.2,395.0531,250.2,397.4531,244.2,399.8531,246.6,397.4531" style="stroke:#181818;stroke-width:0.6;"/><line style="stroke:#181818;stroke-width:0.6;" x1="150.6" x2="247.8" y1="397.4531" y2="397.4531"/><text fill="#000000" font-family="sans-serif" font-size="7.8" font-weight="bold" lengthAdjust="spacing" textLength="8.4" x="154.8" y="394.2955">15</text><text fill="#000000" font-family="sans-serif" font-size="7.8" lengthAdjust="spacing" textLength="78.6" x="165.6" y="394.2955">execute(req, res, next)</text><line style="stroke:#181818;stroke-width:0.6;" x1="257.4" x2="285.6" y1="413.2277" y2="413.2277"/><line style="stroke:#181818;stroke-width:0.6;" x1="285.6" x2="285.6" y1="413.2277" y2="421.0277"/><line style="stroke:#181818;stroke-width:0.6;" x1="261" x2="285.6" y1="421.0277" y2="421.0277"/><polygon fill="#181818" points="267,418.6277,261,421.0277,267,423.4277,264.6,421.0277" style="stroke:#181818;stroke-width:0.6;"/><text fill="#000000" font-family="sans-serif" font-size="7.8" font-weight="bold" lengthAdjust="spacing" textLength="8.4" x="264.6" y="410.0701">16</text><text fill="#000000" font-family="sans-serif" font-size="7.8" lengthAdjust="spacing" textLength="126.6" x="275.4" y="410.0701">getElevatorByBuilding(req, res, next)</text><polygon fill="#181818" points="396,440.4023,402,442.8023,396,445.2023,398.4,442.8023" style="stroke:#181818;stroke-width:0.6;"/><line style="stroke:#181818;stroke-width:0.6;" x1="260.4" x2="399.6" y1="442.8023" y2="442.8023"/><text fill="#000000" font-family="sans-serif" font-size="7.8" font-weight="bold" lengthAdjust="spacing" textLength="8.4" x="264.6" y="439.6447">17</text><text fill="#000000" font-family="sans-serif" font-size="7.8" lengthAdjust="spacing" textLength="97.2" x="275.4" y="439.6447">getElevatorByBuilding(code)</text><polygon fill="#181818" points="686.4,459.177,692.4,461.577,686.4,463.977,688.8,461.577" style="stroke:#181818;stroke-width:0.6;"/><line style="stroke:#181818;stroke-width:0.6;" x1="409.2" x2="690" y1="461.577" y2="461.577"/><text fill="#000000" font-family="sans-serif" font-size="7.8" font-weight="bold" lengthAdjust="spacing" textLength="8.4" x="413.4" y="458.4193">18</text><text fill="#000000" font-family="sans-serif" font-size="7.8" lengthAdjust="spacing" textLength="97.2" x="424.2" y="458.4193">elevator = findElevator(code)</text><polygon fill="#181818" points="761.7,477.9516,767.7,480.3516,761.7,482.7516,764.1,480.3516" style="stroke:#181818;stroke-width:0.6;"/><line style="stroke:#181818;stroke-width:0.6;" x1="699.6" x2="765.3" y1="480.3516" y2="480.3516"/><text fill="#000000" font-family="sans-serif" font-size="7.8" font-weight="bold" lengthAdjust="spacing" textLength="8.4" x="703.8" y="477.1939">19</text><text fill="#000000" font-family="sans-serif" font-size="7.8" lengthAdjust="spacing" textLength="2.4" x="714.6" y="477.1939">&#160;</text><polygon fill="#181818" points="706.2,496.7262,700.2,499.1262,706.2,501.5262,703.8,499.1262" style="stroke:#181818;stroke-width:0.6;"/><line style="stroke:#181818;stroke-width:0.6;stroke-dasharray:2.0,2.0;" x1="702.6" x2="771.3" y1="499.1262" y2="499.1262"/><text fill="#000000" font-family="sans-serif" font-size="7.8" font-weight="bold" lengthAdjust="spacing" textLength="8.4" x="709.8" y="495.9686">20</text><text fill="#000000" font-family="sans-serif" font-size="7.8" lengthAdjust="spacing" textLength="2.4" x="720.6" y="495.9686">&#160;</text><polygon fill="#181818" points="415.8,515.5008,409.8,517.9008,415.8,520.3008,413.4,517.9008" style="stroke:#181818;stroke-width:0.6;"/><line style="stroke:#181818;stroke-width:0.6;stroke-dasharray:2.0,2.0;" x1="412.2" x2="696" y1="517.9008" y2="517.9008"/><text fill="#000000" font-family="sans-serif" font-size="7.8" font-weight="bold" lengthAdjust="spacing" textLength="8.4" x="419.4" y="514.7432">21</text><text fill="#000000" font-family="sans-serif" font-size="7.8" lengthAdjust="spacing" textLength="2.4" x="430.2" y="514.7432">&#160;</text><polygon fill="#181818" points="527.1,534.2754,533.1,536.6754,527.1,539.0754,529.5,536.6754" style="stroke:#181818;stroke-width:0.6;"/><line style="stroke:#181818;stroke-width:0.6;stroke-dasharray:2.0,2.0;" x1="409.2" x2="530.7" y1="536.6754" y2="536.6754"/><text fill="#000000" font-family="sans-serif" font-size="7.8" font-weight="bold" lengthAdjust="spacing" textLength="8.4" x="413.4" y="533.5178">22</text><text fill="#000000" font-family="sans-serif" font-size="7.8" lengthAdjust="spacing" textLength="21.6" x="424.2" y="533.5178">create</text><rect fill="#E3E3E3" height="41.918" rx="1.5" ry="1.5" style="stroke:#181818;stroke-width:0.3;" width="61.8" x="534.3" y="522.7008"/><text fill="#000000" font-family="sans-serif" font-size="8.4" font-style="italic" lengthAdjust="spacing" textLength="27.6" x="551.4" y="535.9652">&#171;DTO&#187;</text><text fill="#000000" font-family="sans-serif" font-size="8.4" lengthAdjust="spacing" textLength="53.4" x="538.5" y="547.1379">elevatorDTO :</text><text fill="#000000" font-family="sans-serif" font-size="8.4" lengthAdjust="spacing" textLength="51" x="540.9" y="558.3105">IElevatorDTO</text><polygon fill="#181818" points="267,582.7934,261,585.1934,267,587.5934,264.6,585.1934" style="stroke:#181818;stroke-width:0.6;"/><line style="stroke:#181818;stroke-width:0.6;stroke-dasharray:2.0,2.0;" x1="263.4" x2="405.6" y1="585.1934" y2="585.1934"/><text fill="#000000" font-family="sans-serif" font-size="7.8" font-weight="bold" lengthAdjust="spacing" textLength="8.4" x="270.6" y="582.0357">23</text><text fill="#000000" font-family="sans-serif" font-size="7.8" lengthAdjust="spacing" textLength="42" x="281.4" y="582.0357">elevatorDTO</text><line style="stroke:#181818;stroke-width:0.6;stroke-dasharray:2.0,2.0;" x1="260.4" x2="285.6" y1="606.968" y2="606.968"/><line style="stroke:#181818;stroke-width:0.6;stroke-dasharray:2.0,2.0;" x1="285.6" x2="285.6" y1="606.968" y2="614.768"/><line style="stroke:#181818;stroke-width:0.6;stroke-dasharray:2.0,2.0;" x1="257.4" x2="285.6" y1="614.768" y2="614.768"/><polygon fill="#181818" points="263.4,612.368,257.4,614.768,263.4,617.168,261,614.768" style="stroke:#181818;stroke-width:0.6;"/><text fill="#000000" font-family="sans-serif" font-size="7.8" font-weight="bold" lengthAdjust="spacing" textLength="8.4" x="264.6" y="603.8104">24</text><text fill="#000000" font-family="sans-serif" font-size="7.8" lengthAdjust="spacing" textLength="54" x="275.4" y="603.8104">status: 200/404</text><polygon fill="#181818" points="157.2,628.1426,151.2,630.5426,157.2,632.9426,154.8,630.5426" style="stroke:#181818;stroke-width:0.6;"/><line style="stroke:#181818;stroke-width:0.6;stroke-dasharray:2.0,2.0;" x1="153.6" x2="253.8" y1="630.5426" y2="630.5426"/><text fill="#000000" font-family="sans-serif" font-size="7.8" font-weight="bold" lengthAdjust="spacing" textLength="8.4" x="160.8" y="627.385">25</text><text fill="#000000" font-family="sans-serif" font-size="7.8" lengthAdjust="spacing" textLength="54" x="171.6" y="627.385">status: 200/404</text><polygon fill="#181818" points="6.6,646.9172,0.6,649.3172,6.6,651.7172,4.2,649.3172" style="stroke:#181818;stroke-width:0.6;"/><line style="stroke:#181818;stroke-width:0.6;stroke-dasharray:2.0,2.0;" x1="3" x2="147" y1="649.3172" y2="649.3172"/><text fill="#000000" font-family="sans-serif" font-size="7.8" font-weight="bold" lengthAdjust="spacing" textLength="8.4" x="10.2" y="646.1596">26</text><text fill="#000000" font-family="sans-serif" font-size="7.8" lengthAdjust="spacing" textLength="54" x="21" y="646.1596">status: 200/404</text><!--SRC=[xPLBRnCn4CVl_XHMJqdLF0evhT8WbgrGfI9GKxXG3gupJQrkxDJsfistP-nTxokRH08X8O4FYH__-Oqzu_6Q9o7NJBCLNIcf-ADMAw1MPq1CkR9c_8ajOMwtAL0Dt3AvJEi2yyWMwaN89NrWgG52hB0edSDp1f83JGHREbtl6ZQGqhTqGBzenS4O-at02mu_9Nty_Jgdv-UJCM6PLJ9RtOCc13rOmSMQIKjFxZEHBj3FZSeid51cgE_HwTJ_psPDERSwZGiJ6jr9UXL67vIqMgKfQ4-fXeYg1crUS3y7lH4ShgJ1KE3v6kXYqNEBFaABtZvYSllPr31-uliFpuWhoRKm5bdOQtCWXGspIkDIZhci9ZobDZvCyEPXq31rTch5XDntY1jOgsOit8mHQBlDa-K4cAjojarAOgzBOkUBMHOpuq96tgd1h4XrH3zUtjBUS3WS1R-cJnYt0ZS9kOWGYYtNes4jkn65L-0utzFmV8QNsPnH2Q-sxorAIcNXvrshGTh89TZtQNdHJ2Vw67xNHRWxdb_1-wHXKp8BUMFHjO1n0VJveGz2Bd2_lVwEjeeYAdTMVKmT0b6OeQXJK2AIk7CT3GVbLZeL2pZ6o3TH3n4v0EayInaLfBGAxFGKOyGreEr1iyOLgDSnsREHaA6zEMz3yNMncOdec_5uD1bFI0UpTPDQj50nNQ1k29aE1dlDwa7Do-n8NOuYhXOm2g_9Nr2duIsBjo7hVw9QExouGFn-wPQFz8Mluk2deFylPqUfVUb-gPHhdz9_fv9_0W00]--></g></svg>