<?xml version="1.0" encoding="us-ascii" standalone="no"?><svg xmlns="http://www.w3.org/2000/svg" xmlns:xlink="http://www.w3.org/1999/xlink" contentStyleType="text/css" height="339px" preserveAspectRatio="none" style="width:322px;height:339px;background:#FFFFFF;" version="1.1" viewBox="0 0 322 339" width="322px" zoomAndPan="magnify"><defs/><g><text fill="#000000" font-family="sans-serif" font-size="25" font-weight="bold" lengthAdjust="spacing" text-decoration="underline" textLength="294" x="10" y="36.9775">US 190 - Domain classes</text><!--cluster <<aggregate>> Building--><g id="cluster_&lt;&lt;aggregate&gt;&gt; Building"><path d="M36.5,60.2656 L187.5,60.2656 A3.75,3.75 0 0 1 190,62.7656 L197,84.8867 L290.5,84.8867 A2.5,2.5 0 0 1 293,87.3867 L293,329.7656 A2.5,2.5 0 0 1 290.5,332.2656 L36.5,332.2656 A2.5,2.5 0 0 1 34,329.7656 L34,62.7656 A2.5,2.5 0 0 1 36.5,60.2656 " fill="none" style="stroke:#000000;stroke-width:1.5;"/><line style="stroke:#000000;stroke-width:1.5;" x1="34" x2="197" y1="84.8867" y2="84.8867"/><text fill="#000000" font-family="sans-serif" font-size="14" font-weight="bold" lengthAdjust="spacing" textLength="150" x="38" y="77.373">&#171;aggregate&#187; Building</text></g><!--class Building--><g id="elem_Building"><rect codeLine="10" fill="#F1F1F1" height="68.543" id="Building" rx="2.5" ry="2.5" style="stroke:#181818;stroke-width:0.5;" width="82" x="50" y="97.2656"/><ellipse cx="65" cy="127.5371" fill="#ADD1B2" rx="11" ry="11" style="stroke:#181818;stroke-width:1.0;"/><path d="M63.8594,128.334 L63.8594,130.834 L68.1875,130.834 L68.1875,129.9121 Q68.1875,129.3027 68.4219,129.0371 Q68.6719,128.7715 69.0469,128.7715 Q69.4219,128.7715 69.6563,129.0371 Q69.8906,129.3027 69.8906,129.9121 L69.8906,132.5371 L61.8906,132.5371 Q61.2656,132.5371 61,132.3027 Q60.75,132.0684 60.75,131.6777 Q60.75,131.3027 61.0156,131.0684 Q61.2813,130.834 61.8906,130.834 L62.1563,130.834 L62.1563,124.1777 L61.8906,124.1777 Q61.2656,124.1777 61,123.9434 Q60.75,123.709 60.75,123.3184 Q60.75,122.9434 61,122.709 Q61.2656,122.4746 61.8906,122.4746 L69.5156,122.4746 L69.5156,125.0684 Q69.5156,125.6777 69.2813,125.9434 Q69.0625,126.1934 68.6719,126.1934 Q68.2969,126.1934 68.0625,125.9434 Q67.8281,125.6777 67.8281,125.0684 L67.8281,124.1777 L63.8594,124.1777 L63.8594,126.6309 L65.3438,126.6309 Q65.3438,125.9746 65.4688,125.7871 Q65.7344,125.3809 66.2031,125.3809 Q66.5781,125.3809 66.8125,125.6465 Q67.0469,125.8965 67.0469,126.5059 L67.0469,128.4746 Q67.0469,129.0215 66.9219,129.209 Q66.6563,129.5996 66.2031,129.5996 Q65.7344,129.5996 65.4688,129.1934 Q65.3438,129.0059 65.3438,128.334 L63.8594,128.334 Z " fill="#000000"/><text fill="#000000" font-family="sans-serif" font-size="12" font-style="italic" lengthAdjust="spacing" textLength="43" x="82.5" y="115.2148">&#171;entity&#187;</text><text fill="#000000" font-family="sans-serif" font-size="12" font-style="italic" lengthAdjust="spacing" textLength="35" x="86.5" y="131.1758">&#171;root&#187;</text><text fill="#000000" font-family="sans-serif" font-size="14" lengthAdjust="spacing" textLength="50" x="79" y="149.2949">Building</text><line style="stroke:#181818;stroke-width:0.5;" x1="51" x2="131" y1="157.8086" y2="157.8086"/></g><!--class Code--><g id="elem_Code"><rect codeLine="11" fill="#F1F1F1" height="52.582" id="Code" rx="2.5" ry="2.5" style="stroke:#181818;stroke-width:0.5;" width="109" x="50.5" y="254.2656"/><ellipse cx="65.5" cy="276.5566" fill="#FF8B40" rx="11" ry="11" style="stroke:#181818;stroke-width:1.0;"/><path d="M66.0938,279.8223 L68.5625,273.9473 L68.1719,273.9473 Q67.5625,273.9473 67.2969,273.7129 Q67.0313,273.4785 67.0313,273.0879 Q67.0313,272.7129 67.2969,272.4785 Q67.5625,272.2441 68.1719,272.2441 L70.4531,272.2441 Q71.0625,272.2441 71.3281,272.4785 Q71.5938,272.7129 71.5938,273.0879 Q71.5938,273.5566 71.1875,273.8223 Q71,273.9473 70.4063,273.9473 L66.9219,282.3066 L65.2813,282.3066 L61.7969,273.9473 Q61.2031,273.9473 61.0156,273.8223 Q60.6094,273.5566 60.6094,273.0879 Q60.6094,272.7129 60.875,272.4785 Q61.1406,272.2441 61.75,272.2441 L64.0469,272.2441 Q64.6563,272.2441 64.9063,272.4785 Q65.1719,272.7129 65.1719,273.0879 Q65.1719,273.4785 64.9063,273.7129 Q64.6563,273.9473 64.0469,273.9473 L63.6406,273.9473 L66.0938,279.8223 Z " fill="#000000"/><text fill="#000000" font-family="sans-serif" font-size="12" font-style="italic" lengthAdjust="spacing" textLength="81" x="77.5" y="272.2148">&#171;value object&#187;</text><text fill="#000000" font-family="sans-serif" font-size="14" lengthAdjust="spacing" textLength="34" x="101" y="290.334">Code</text><line style="stroke:#181818;stroke-width:0.5;" x1="51.5" x2="158.5" y1="298.8477" y2="298.8477"/></g><!--class Floor--><g id="elem_Floor"><rect codeLine="13" fill="#F1F1F1" height="71.2031" id="Floor" rx="2.5" ry="2.5" style="stroke:#181818;stroke-width:0.5;" width="71" x="194.5" y="245.2656"/><ellipse cx="209.5" cy="267.5566" fill="#ADD1B2" rx="11" ry="11" style="stroke:#181818;stroke-width:1.0;"/><path d="M208.3594,268.3535 L208.3594,270.8535 L212.6875,270.8535 L212.6875,269.9316 Q212.6875,269.3223 212.9219,269.0566 Q213.1719,268.791 213.5469,268.791 Q213.9219,268.791 214.1563,269.0566 Q214.3906,269.3223 214.3906,269.9316 L214.3906,272.5566 L206.3906,272.5566 Q205.7656,272.5566 205.5,272.3223 Q205.25,272.0879 205.25,271.6973 Q205.25,271.3223 205.5156,271.0879 Q205.7813,270.8535 206.3906,270.8535 L206.6563,270.8535 L206.6563,264.1973 L206.3906,264.1973 Q205.7656,264.1973 205.5,263.9629 Q205.25,263.7285 205.25,263.3379 Q205.25,262.9629 205.5,262.7285 Q205.7656,262.4941 206.3906,262.4941 L214.0156,262.4941 L214.0156,265.0879 Q214.0156,265.6973 213.7813,265.9629 Q213.5625,266.2129 213.1719,266.2129 Q212.7969,266.2129 212.5625,265.9629 Q212.3281,265.6973 212.3281,265.0879 L212.3281,264.1973 L208.3594,264.1973 L208.3594,266.6504 L209.8438,266.6504 Q209.8438,265.9941 209.9688,265.8066 Q210.2344,265.4004 210.7031,265.4004 Q211.0781,265.4004 211.3125,265.666 Q211.5469,265.916 211.5469,266.5254 L211.5469,268.4941 Q211.5469,269.041 211.4219,269.2285 Q211.1563,269.6191 210.7031,269.6191 Q210.2344,269.6191 209.9688,269.2129 Q209.8438,269.0254 209.8438,268.3535 L208.3594,268.3535 Z " fill="#000000"/><text fill="#000000" font-family="sans-serif" font-size="12" font-style="italic" lengthAdjust="spacing" textLength="43" x="221.5" y="263.2148">&#171;entity&#187;</text><text fill="#000000" font-family="sans-serif" font-size="14" lengthAdjust="spacing" textLength="33" x="226.5" y="281.334">Floor</text><line style="stroke:#181818;stroke-width:0.5;" x1="195.5" x2="264.5" y1="289.8477" y2="289.8477"/><text fill="#000000" font-family="sans-serif" font-size="14" lengthAdjust="spacing" textLength="48" x="200.5" y="308.9551">number</text></g><!--class Description--><g id="elem_Description"><rect codeLine="16" fill="#F1F1F1" height="52.582" id="Description" rx="2.5" ry="2.5" style="stroke:#181818;stroke-width:0.5;" width="109" x="167.5" y="105.2656"/><ellipse cx="182.5" cy="127.5566" fill="#FF8B40" rx="11" ry="11" style="stroke:#181818;stroke-width:1.0;"/><path d="M183.0938,130.8223 L185.5625,124.9473 L185.1719,124.9473 Q184.5625,124.9473 184.2969,124.7129 Q184.0313,124.4785 184.0313,124.0879 Q184.0313,123.7129 184.2969,123.4785 Q184.5625,123.2441 185.1719,123.2441 L187.4531,123.2441 Q188.0625,123.2441 188.3281,123.4785 Q188.5938,123.7129 188.5938,124.0879 Q188.5938,124.5566 188.1875,124.8223 Q188,124.9473 187.4063,124.9473 L183.9219,133.3066 L182.2813,133.3066 L178.7969,124.9473 Q178.2031,124.9473 178.0156,124.8223 Q177.6094,124.5566 177.6094,124.0879 Q177.6094,123.7129 177.875,123.4785 Q178.1406,123.2441 178.75,123.2441 L181.0469,123.2441 Q181.6563,123.2441 181.9063,123.4785 Q182.1719,123.7129 182.1719,124.0879 Q182.1719,124.4785 181.9063,124.7129 Q181.6563,124.9473 181.0469,124.9473 L180.6406,124.9473 L183.0938,130.8223 Z " fill="#000000"/><text fill="#000000" font-family="sans-serif" font-size="12" font-style="italic" lengthAdjust="spacing" textLength="81" x="194.5" y="123.2148">&#171;value object&#187;</text><text fill="#000000" font-family="sans-serif" font-size="14" lengthAdjust="spacing" textLength="71" x="199.5" y="141.334">Description</text><line style="stroke:#181818;stroke-width:0.5;" x1="168.5" x2="275.5" y1="149.8477" y2="149.8477"/></g><!--link Building to Code--><g id="link_Building_Code"><path codeLine="19" d="M94.21,166.4856 C96.58,191.3356 99.77,224.8656 102.07,248.9856 " fill="none" id="Building-to-Code" style="stroke:#181818;stroke-width:1.0;"/><polygon fill="#181818" points="102.54,253.9856,105.6725,244.6482,102.068,249.008,97.7082,245.4034,102.54,253.9856" style="stroke:#181818;stroke-width:1.0;"/></g><!--reverse link Description to Floor--><g id="link_Description_Floor"><path codeLine="20" d="M223.68,163.6056 C224.97,187.4256 226.77,220.3656 228.11,245.0956 " fill="none" id="Description-backto-Floor" style="stroke:#181818;stroke-width:1.0;"/><polygon fill="#181818" points="223.39,158.3756,219.8852,167.5798,223.6618,163.3682,227.8733,167.1449,223.39,158.3756" style="stroke:#181818;stroke-width:1.0;"/></g><!--link Building to Floor--><g id="link_Building_Floor"><path codeLine="22" d="M122.89,166.4856 C145.17,190.0556 174.83,221.4256 197.29,245.1756 " fill="none" id="Building-Floor" style="stroke:#181818;stroke-width:1.0;"/><polygon fill="#000000" points="176.4351,209.5443,172.3565,200.9527,168.0854,204.9909,176.4351,209.5443" style="stroke:#000000;stroke-width:1.0;"/><text fill="#000000" font-family="sans-serif" font-size="13" lengthAdjust="spacing" textLength="21" x="182" y="211.2939">has</text><text fill="#000000" font-family="sans-serif" font-size="13" lengthAdjust="spacing" textLength="7" x="120.5921" y="187.7342">1</text><text fill="#000000" font-family="sans-serif" font-size="13" lengthAdjust="spacing" textLength="5" x="185.7982" y="234.083">*</text></g><!--SRC=[XOxBIiH044NtzHL5k_21ZHbHK6aQ78U0wq7tFKcHj9DqXNueAlFlPZeQihDsTJdSUyBUki5uqsEqiQEINTpQByBhMyW1ggHVjhYwBr3YXdjZ7LQT2O62kaeQeBKrOK-nvJf0cDioynYZjxiKwRbYbsiBWDDribrjNOEcQJmr9X8CfjgRXb0eDOTQunyfy1jmF7AZq-SSer9JCg9AUUQeTURoE3xnQARKsUibdfJbtVgcECTtqoL2thrHTOINhMN7x9ULq-RnNEftvFDxM0niA5JU3j6o-sVd031Bove_dDHP3wPHcOOnMDGjSB4IA2MA2_5h-82j2QZX1m00]--></g></svg>