<?xml version="1.0" encoding="us-ascii" standalone="no"?><svg xmlns="http://www.w3.org/2000/svg" xmlns:xlink="http://www.w3.org/1999/xlink" contentStyleType="text/css" height="1092px" preserveAspectRatio="none" style="width:1124px;height:1092px;background:#FFFFFF;" version="1.1" viewBox="0 0 1124 1092" width="1124px" zoomAndPan="magnify"><defs/><g><text fill="#000000" font-family="sans-serif" font-size="14" font-weight="bold" lengthAdjust="spacing" textLength="391" x="363" y="30.1074">Sequence Diagram (Level 3 - Process View - UI) - US 470</text><rect fill="#FFFFFF" height="331.541" style="stroke:#181818;stroke-width:1.0;" width="10" x="312" y="130.1543"/><rect fill="#FFFFFF" height="524.918" style="stroke:#181818;stroke-width:1.0;" width="10" x="312" y="492.9863"/><rect fill="#FFFFFF" height="268.959" style="stroke:#181818;stroke-width:1.0;" width="10" x="568" y="161.4453"/><rect fill="#FFFFFF" height="462.3359" style="stroke:#181818;stroke-width:1.0;" width="10" x="568" y="524.2773"/><rect fill="#FFFFFF" height="237.668" style="stroke:#181818;stroke-width:1.0;" width="10" x="794" y="161.4453"/><rect fill="#FFFFFF" height="337.5117" style="stroke:#181818;stroke-width:1.0;" width="10" x="794" y="617.8105"/><rect fill="none" height="161.0859" style="stroke:#000000;stroke-width:1.5;" width="556.5" x="511.5" y="176.4453"/><rect fill="none" height="260.9297" style="stroke:#000000;stroke-width:1.5;" width="380.5" x="727.5" y="632.8105"/><rect fill="none" height="98.5039" style="stroke:#000000;stroke-width:1.5;" width="349.5" x="737.5" y="659.1016"/><rect fill="none" height="98.5039" style="stroke:#000000;stroke-width:1.5;" width="370.5" x="737.5" y="788.2363"/><line style="stroke:#181818;stroke-width:0.5;stroke-dasharray:5.0,5.0;" x1="316.5" x2="316.5" y1="96.8633" y2="1035.9043"/><line style="stroke:#181818;stroke-width:0.5;stroke-dasharray:5.0,5.0;" x1="572.5" x2="572.5" y1="96.8633" y2="1035.9043"/><line style="stroke:#181818;stroke-width:0.5;stroke-dasharray:5.0,5.0;" x1="685.5" x2="685.5" y1="573.3984" y2="1035.9043"/><line style="stroke:#181818;stroke-width:0.5;stroke-dasharray:5.0,5.0;" x1="798.5" x2="798.5" y1="96.8633" y2="1035.9043"/><rect fill="#E3E3E3" height="51.2422" rx="2.5" ry="2.5" style="stroke:#181818;stroke-width:0.5;" width="103" x="265.5" y="44.6211"/><text fill="#000000" font-family="sans-serif" font-size="14" font-style="italic" lengthAdjust="spacing" textLength="89" x="272.5" y="66.7285">&#171;Component&#187;</text><text fill="#000000" font-family="sans-serif" font-size="14" lengthAdjust="spacing" textLength="29" x="302.5" y="85.3496">View</text><rect fill="#E3E3E3" height="51.2422" rx="2.5" ry="2.5" style="stroke:#181818;stroke-width:0.5;" width="103" x="265.5" y="1034.9043"/><text fill="#000000" font-family="sans-serif" font-size="14" font-style="italic" lengthAdjust="spacing" textLength="89" x="272.5" y="1057.0117">&#171;Component&#187;</text><text fill="#000000" font-family="sans-serif" font-size="14" lengthAdjust="spacing" textLength="29" x="302.5" y="1075.6328">View</text><rect fill="#E3E3E3" height="51.2422" rx="2.5" ry="2.5" style="stroke:#181818;stroke-width:0.5;" width="103" x="521.5" y="44.6211"/><text fill="#000000" font-family="sans-serif" font-size="14" font-style="italic" lengthAdjust="spacing" textLength="89" x="528.5" y="66.7285">&#171;Component&#187;</text><text fill="#000000" font-family="sans-serif" font-size="14" lengthAdjust="spacing" textLength="73" x="536.5" y="85.3496">Component</text><rect fill="#E3E3E3" height="51.2422" rx="2.5" ry="2.5" style="stroke:#181818;stroke-width:0.5;" width="103" x="521.5" y="1034.9043"/><text fill="#000000" font-family="sans-serif" font-size="14" font-style="italic" lengthAdjust="spacing" textLength="89" x="528.5" y="1057.0117">&#171;Component&#187;</text><text fill="#000000" font-family="sans-serif" font-size="14" lengthAdjust="spacing" textLength="73" x="536.5" y="1075.6328">Component</text><rect fill="#E3E3E3" height="51.2422" rx="2.5" ry="2.5" style="stroke:#181818;stroke-width:0.5;" width="103" x="634.5" y="1034.9043"/><text fill="#000000" font-family="sans-serif" font-size="14" font-style="italic" lengthAdjust="spacing" textLength="89" x="641.5" y="1057.0117">&#171;Component&#187;</text><text fill="#000000" font-family="sans-serif" font-size="14" lengthAdjust="spacing" textLength="38" x="667" y="1075.6328">Model</text><rect fill="#E3E3E3" height="51.2422" rx="2.5" ry="2.5" style="stroke:#181818;stroke-width:0.5;" width="103" x="747.5" y="44.6211"/><text fill="#000000" font-family="sans-serif" font-size="14" font-style="italic" lengthAdjust="spacing" textLength="89" x="754.5" y="66.7285">&#171;Component&#187;</text><text fill="#000000" font-family="sans-serif" font-size="14" lengthAdjust="spacing" textLength="47" x="775.5" y="85.3496">Service</text><rect fill="#E3E3E3" height="51.2422" rx="2.5" ry="2.5" style="stroke:#181818;stroke-width:0.5;" width="103" x="747.5" y="1034.9043"/><text fill="#000000" font-family="sans-serif" font-size="14" font-style="italic" lengthAdjust="spacing" textLength="89" x="754.5" y="1057.0117">&#171;Component&#187;</text><text fill="#000000" font-family="sans-serif" font-size="14" lengthAdjust="spacing" textLength="47" x="775.5" y="1075.6328">Service</text><rect fill="#FFFFFF" height="331.541" style="stroke:#181818;stroke-width:1.0;" width="10" x="312" y="130.1543"/><rect fill="#FFFFFF" height="524.918" style="stroke:#181818;stroke-width:1.0;" width="10" x="312" y="492.9863"/><rect fill="#FFFFFF" height="268.959" style="stroke:#181818;stroke-width:1.0;" width="10" x="568" y="161.4453"/><rect fill="#FFFFFF" height="462.3359" style="stroke:#181818;stroke-width:1.0;" width="10" x="568" y="524.2773"/><rect fill="#FFFFFF" height="237.668" style="stroke:#181818;stroke-width:1.0;" width="10" x="794" y="161.4453"/><rect fill="#FFFFFF" height="337.5117" style="stroke:#181818;stroke-width:1.0;" width="10" x="794" y="617.8105"/><ellipse cx="4.5" cy="129.4043" fill="none" rx="4" ry="4" style="stroke:#181818;stroke-width:1.5;"/><polygon fill="#181818" points="300,126.1543,310,130.1543,300,134.1543,304,130.1543" style="stroke:#181818;stroke-width:1.0;"/><line style="stroke:#181818;stroke-width:1.0;" x1="9" x2="306" y1="130.1543" y2="130.1543"/><text fill="#000000" font-family="sans-serif" font-size="13" font-weight="bold" lengthAdjust="spacing" textLength="7" x="12" y="124.8916">1</text><text fill="#000000" font-family="sans-serif" font-size="13" lengthAdjust="spacing" textLength="274" x="23" y="124.8916">Ask to consult pending requests for a task type</text><polygon fill="#181818" points="556,157.4453,566,161.4453,556,165.4453,560,161.4453" style="stroke:#181818;stroke-width:1.0;"/><line style="stroke:#181818;stroke-width:1.0;" x1="322" x2="562" y1="161.4453" y2="161.4453"/><text fill="#000000" font-family="sans-serif" font-size="13" font-weight="bold" lengthAdjust="spacing" textLength="7" x="329" y="156.1826">2</text><text fill="#000000" font-family="sans-serif" font-size="13" lengthAdjust="spacing" textLength="122" x="340" y="156.1826">onTaskTypeChange()</text><path d="M511.5,176.4453 L572.5,176.4453 L572.5,185.7363 L562.5,195.7363 L511.5,195.7363 L511.5,176.4453 " fill="#EEEEEE" style="stroke:#000000;stroke-width:1.5;"/><rect fill="none" height="161.0859" style="stroke:#000000;stroke-width:1.5;" width="556.5" x="511.5" y="176.4453"/><text fill="#000000" font-family="sans-serif" font-size="13" font-weight="bold" lengthAdjust="spacing" textLength="16" x="526.5" y="191.4736">alt</text><text fill="#000000" font-family="sans-serif" font-size="11" font-weight="bold" lengthAdjust="spacing" textLength="142" x="587.5" y="190.3154">[pickup and delivery task]</text><polygon fill="#181818" points="782,215.0273,792,219.0273,782,223.0273,786,219.0273" style="stroke:#181818;stroke-width:1.0;"/><line style="stroke:#181818;stroke-width:1.0;" x1="578" x2="788" y1="219.0273" y2="219.0273"/><text fill="#000000" font-family="sans-serif" font-size="13" font-weight="bold" lengthAdjust="spacing" textLength="7" x="585" y="213.7646">3</text><text fill="#000000" font-family="sans-serif" font-size="13" lengthAdjust="spacing" textLength="162" x="596" y="213.7646">getPickupAndDeliveryTask()</text><polygon fill="#181818" points="1106,246.3184,1116,250.3184,1106,254.3184,1110,250.3184" style="stroke:#181818;stroke-width:1.0;"/><line style="stroke:#181818;stroke-width:1.0;" x1="804" x2="1112" y1="250.3184" y2="250.3184"/><text fill="#000000" font-family="sans-serif" font-size="13" font-weight="bold" lengthAdjust="spacing" textLength="7" x="811" y="245.0557">4</text><text fill="#000000" font-family="sans-serif" font-size="13" lengthAdjust="spacing" textLength="211" x="822" y="245.0557">GET (.../tasks/deliveries/requesteds)</text><line style="stroke:#000000;stroke-width:1.0;stroke-dasharray:2.0,2.0;" x1="511.5" x2="1068" y1="259.3184" y2="259.3184"/><text fill="#000000" font-family="sans-serif" font-size="11" font-weight="bold" lengthAdjust="spacing" textLength="102" x="516.5" y="271.1885">[surveillance task]</text><polygon fill="#181818" points="782,294.2402,792,298.2402,782,302.2402,786,298.2402" style="stroke:#181818;stroke-width:1.0;"/><line style="stroke:#181818;stroke-width:1.0;" x1="578" x2="788" y1="298.2402" y2="298.2402"/><text fill="#000000" font-family="sans-serif" font-size="13" font-weight="bold" lengthAdjust="spacing" textLength="7" x="585" y="292.9775">5</text><text fill="#000000" font-family="sans-serif" font-size="13" lengthAdjust="spacing" textLength="130" x="596" y="292.9775">getSurveillanceTasks()</text><polygon fill="#181818" points="1106,325.5313,1116,329.5313,1106,333.5313,1110,329.5313" style="stroke:#181818;stroke-width:1.0;"/><line style="stroke:#181818;stroke-width:1.0;" x1="804" x2="1112" y1="329.5313" y2="329.5313"/><text fill="#000000" font-family="sans-serif" font-size="13" font-weight="bold" lengthAdjust="spacing" textLength="7" x="811" y="324.2686">6</text><text fill="#000000" font-family="sans-serif" font-size="13" lengthAdjust="spacing" textLength="232" x="822" y="324.2686">GET (.../tasks/surveillances/requesteds)</text><polygon fill="#181818" points="815,363.8223,805,367.8223,815,371.8223,811,367.8223" style="stroke:#181818;stroke-width:1.0;"/><line style="stroke:#181818;stroke-width:1.0;stroke-dasharray:2.0,2.0;" x1="809" x2="1117" y1="367.8223" y2="367.8223"/><text fill="#000000" font-family="sans-serif" font-size="13" font-weight="bold" lengthAdjust="spacing" textLength="7" x="821" y="362.5596">7</text><text fill="#000000" font-family="sans-serif" font-size="13" lengthAdjust="spacing" textLength="90" x="832" y="362.5596">status: 200/404</text><polygon fill="#181818" points="589,395.1133,579,399.1133,589,403.1133,585,399.1133" style="stroke:#181818;stroke-width:1.0;"/><line style="stroke:#181818;stroke-width:1.0;stroke-dasharray:2.0,2.0;" x1="583" x2="798" y1="399.1133" y2="399.1133"/><text fill="#000000" font-family="sans-serif" font-size="13" font-weight="bold" lengthAdjust="spacing" textLength="7" x="595" y="393.8506">8</text><text fill="#000000" font-family="sans-serif" font-size="13" lengthAdjust="spacing" textLength="91" x="606" y="393.8506">Success / Error</text><polygon fill="#181818" points="333,426.4043,323,430.4043,333,434.4043,329,430.4043" style="stroke:#181818;stroke-width:1.0;"/><line style="stroke:#181818;stroke-width:1.0;stroke-dasharray:2.0,2.0;" x1="327" x2="572" y1="430.4043" y2="430.4043"/><text fill="#000000" font-family="sans-serif" font-size="13" font-weight="bold" lengthAdjust="spacing" textLength="7" x="339" y="425.1416">9</text><text fill="#000000" font-family="sans-serif" font-size="13" lengthAdjust="spacing" textLength="204" x="350" y="425.1416">Information about the success/error</text><polygon fill="#181818" points="11,457.6953,1,461.6953,11,465.6953,7,461.6953" style="stroke:#181818;stroke-width:1.0;"/><line style="stroke:#181818;stroke-width:1.0;stroke-dasharray:2.0,2.0;" x1="5" x2="316" y1="461.6953" y2="461.6953"/><text fill="#000000" font-family="sans-serif" font-size="13" font-weight="bold" lengthAdjust="spacing" textLength="14" x="17" y="456.4326">10</text><text fill="#000000" font-family="sans-serif" font-size="13" lengthAdjust="spacing" textLength="272" x="35" y="456.4326">Ask to choose a request and the action to take</text><ellipse cx="31.5" cy="492.2363" fill="none" rx="4" ry="4" style="stroke:#181818;stroke-width:1.5;"/><polygon fill="#181818" points="300,488.9863,310,492.9863,300,496.9863,304,492.9863" style="stroke:#181818;stroke-width:1.0;"/><line style="stroke:#181818;stroke-width:1.0;" x1="36" x2="306" y1="492.9863" y2="492.9863"/><text fill="#000000" font-family="sans-serif" font-size="13" font-weight="bold" lengthAdjust="spacing" textLength="14" x="39" y="487.7236">11</text><text fill="#000000" font-family="sans-serif" font-size="13" lengthAdjust="spacing" textLength="240" x="57" y="487.7236">Choose the request and approve or refuse</text><polygon fill="#181818" points="556,520.2773,566,524.2773,556,528.2773,560,524.2773" style="stroke:#181818;stroke-width:1.0;"/><line style="stroke:#181818;stroke-width:1.0;" x1="322" x2="562" y1="524.2773" y2="524.2773"/><text fill="#000000" font-family="sans-serif" font-size="13" font-weight="bold" lengthAdjust="spacing" textLength="14" x="329" y="519.0146">12</text><text fill="#000000" font-family="sans-serif" font-size="13" lengthAdjust="spacing" textLength="116" x="347" y="519.0146">performTaskAction()</text><polygon fill="#181818" points="622.5,551.5684,632.5,555.5684,622.5,559.5684,626.5,555.5684" style="stroke:#181818;stroke-width:1.0;"/><line style="stroke:#181818;stroke-width:1.0;stroke-dasharray:2.0,2.0;" x1="578" x2="628.5" y1="555.5684" y2="555.5684"/><text fill="#000000" font-family="sans-serif" font-size="13" font-weight="bold" lengthAdjust="spacing" textLength="14" x="585" y="550.3057">13</text><text fill="#000000" font-family="sans-serif" font-size="13" lengthAdjust="spacing" textLength="4" x="603" y="550.3057">&#160;</text><rect fill="#E3E3E3" height="51.2422" rx="2.5" ry="2.5" style="stroke:#181818;stroke-width:0.5;" width="103" x="634.5" y="532.2773"/><text fill="#000000" font-family="sans-serif" font-size="14" font-style="italic" lengthAdjust="spacing" textLength="89" x="641.5" y="554.3848">&#171;Component&#187;</text><text fill="#000000" font-family="sans-serif" font-size="14" lengthAdjust="spacing" textLength="38" x="667" y="573.0059">Model</text><polygon fill="#181818" points="782,613.8105,792,617.8105,782,621.8105,786,617.8105" style="stroke:#181818;stroke-width:1.0;"/><line style="stroke:#181818;stroke-width:1.0;" x1="578" x2="788" y1="617.8105" y2="617.8105"/><text fill="#000000" font-family="sans-serif" font-size="13" font-weight="bold" lengthAdjust="spacing" textLength="14" x="585" y="612.5479">14</text><text fill="#000000" font-family="sans-serif" font-size="13" lengthAdjust="spacing" textLength="142" x="603" y="612.5479">approveRejectTask(user)</text><path d="M727.5,632.8105 L788.5,632.8105 L788.5,642.1016 L778.5,652.1016 L727.5,652.1016 L727.5,632.8105 " fill="#EEEEEE" style="stroke:#000000;stroke-width:1.5;"/><rect fill="none" height="260.9297" style="stroke:#000000;stroke-width:1.5;" width="380.5" x="727.5" y="632.8105"/><text fill="#000000" font-family="sans-serif" font-size="13" font-weight="bold" lengthAdjust="spacing" textLength="16" x="742.5" y="647.8389">alt</text><text fill="#000000" font-family="sans-serif" font-size="11" font-weight="bold" lengthAdjust="spacing" textLength="142" x="803.5" y="646.6807">[pickup and delivery task]</text><path d="M737.5,659.1016 L798.5,659.1016 L798.5,668.3926 L788.5,678.3926 L737.5,678.3926 L737.5,659.1016 " fill="#EEEEEE" style="stroke:#000000;stroke-width:1.5;"/><rect fill="none" height="98.5039" style="stroke:#000000;stroke-width:1.5;" width="349.5" x="737.5" y="659.1016"/><text fill="#000000" font-family="sans-serif" font-size="13" font-weight="bold" lengthAdjust="spacing" textLength="16" x="752.5" y="674.1299">alt</text><text fill="#000000" font-family="sans-serif" font-size="11" font-weight="bold" lengthAdjust="spacing" textLength="53" x="813.5" y="672.9717">[approve]</text><polygon fill="#181818" points="1106,697.6836,1116,701.6836,1106,705.6836,1110,701.6836" style="stroke:#181818;stroke-width:1.0;"/><line style="stroke:#181818;stroke-width:1.0;" x1="804" x2="1112" y1="701.6836" y2="701.6836"/><text fill="#000000" font-family="sans-serif" font-size="13" font-weight="bold" lengthAdjust="spacing" textLength="14" x="811" y="696.4209">15</text><text fill="#000000" font-family="sans-serif" font-size="13" lengthAdjust="spacing" textLength="244" x="829" y="696.4209">PATCH (.../tasks/deliveries/:code/approve)</text><line style="stroke:#000000;stroke-width:1.0;stroke-dasharray:2.0,2.0;" x1="737.5" x2="1087" y1="710.6836" y2="710.6836"/><text fill="#000000" font-family="sans-serif" font-size="11" font-weight="bold" lengthAdjust="spacing" textLength="40" x="742.5" y="722.5537">[reject]</text><polygon fill="#181818" points="1106,745.6055,1116,749.6055,1106,753.6055,1110,749.6055" style="stroke:#181818;stroke-width:1.0;"/><line style="stroke:#181818;stroke-width:1.0;" x1="804" x2="1112" y1="749.6055" y2="749.6055"/><text fill="#000000" font-family="sans-serif" font-size="13" font-weight="bold" lengthAdjust="spacing" textLength="14" x="811" y="744.3428">16</text><text fill="#000000" font-family="sans-serif" font-size="13" lengthAdjust="spacing" textLength="232" x="829" y="744.3428">PATCH (.../tasks/deliveries/:code/reject)</text><line style="stroke:#000000;stroke-width:1.0;stroke-dasharray:2.0,2.0;" x1="727.5" x2="1108" y1="765.6055" y2="765.6055"/><text fill="#000000" font-family="sans-serif" font-size="11" font-weight="bold" lengthAdjust="spacing" textLength="102" x="732.5" y="777.4756">[surveillance task]</text><path d="M737.5,788.2363 L798.5,788.2363 L798.5,797.5273 L788.5,807.5273 L737.5,807.5273 L737.5,788.2363 " fill="#EEEEEE" style="stroke:#000000;stroke-width:1.5;"/><rect fill="none" height="98.5039" style="stroke:#000000;stroke-width:1.5;" width="370.5" x="737.5" y="788.2363"/><text fill="#000000" font-family="sans-serif" font-size="13" font-weight="bold" lengthAdjust="spacing" textLength="16" x="752.5" y="803.2646">alt</text><text fill="#000000" font-family="sans-serif" font-size="11" font-weight="bold" lengthAdjust="spacing" textLength="53" x="813.5" y="802.1064">[approve]</text><polygon fill="#181818" points="1106,826.8184,1116,830.8184,1106,834.8184,1110,830.8184" style="stroke:#181818;stroke-width:1.0;"/><line style="stroke:#181818;stroke-width:1.0;" x1="804" x2="1112" y1="830.8184" y2="830.8184"/><text fill="#000000" font-family="sans-serif" font-size="13" font-weight="bold" lengthAdjust="spacing" textLength="14" x="811" y="825.5557">17</text><text fill="#000000" font-family="sans-serif" font-size="13" lengthAdjust="spacing" textLength="265" x="829" y="825.5557">PATCH (.../tasks/surveillances/:code/approve)</text><line style="stroke:#000000;stroke-width:1.0;stroke-dasharray:2.0,2.0;" x1="737.5" x2="1108" y1="839.8184" y2="839.8184"/><text fill="#000000" font-family="sans-serif" font-size="11" font-weight="bold" lengthAdjust="spacing" textLength="40" x="742.5" y="851.6885">[reject]</text><polygon fill="#181818" points="1106,874.7402,1116,878.7402,1106,882.7402,1110,878.7402" style="stroke:#181818;stroke-width:1.0;"/><line style="stroke:#181818;stroke-width:1.0;" x1="804" x2="1112" y1="878.7402" y2="878.7402"/><text fill="#000000" font-family="sans-serif" font-size="13" font-weight="bold" lengthAdjust="spacing" textLength="14" x="811" y="873.4775">18</text><text fill="#000000" font-family="sans-serif" font-size="13" lengthAdjust="spacing" textLength="253" x="829" y="873.4775">PATCH (.../tasks/surveillances/:code/reject)</text><polygon fill="#181818" points="815,920.0313,805,924.0313,815,928.0313,811,924.0313" style="stroke:#181818;stroke-width:1.0;"/><line style="stroke:#181818;stroke-width:1.0;stroke-dasharray:2.0,2.0;" x1="809" x2="1117" y1="924.0313" y2="924.0313"/><text fill="#000000" font-family="sans-serif" font-size="13" font-weight="bold" lengthAdjust="spacing" textLength="14" x="821" y="918.7686">19</text><text fill="#000000" font-family="sans-serif" font-size="13" lengthAdjust="spacing" textLength="90" x="839" y="918.7686">status: 200/404</text><polygon fill="#181818" points="589,951.3223,579,955.3223,589,959.3223,585,955.3223" style="stroke:#181818;stroke-width:1.0;"/><line style="stroke:#181818;stroke-width:1.0;stroke-dasharray:2.0,2.0;" x1="583" x2="798" y1="955.3223" y2="955.3223"/><text fill="#000000" font-family="sans-serif" font-size="13" font-weight="bold" lengthAdjust="spacing" textLength="14" x="595" y="950.0596">20</text><text fill="#000000" font-family="sans-serif" font-size="13" lengthAdjust="spacing" textLength="91" x="613" y="950.0596">Success / Error</text><polygon fill="#181818" points="333,982.6133,323,986.6133,333,990.6133,329,986.6133" style="stroke:#181818;stroke-width:1.0;"/><line style="stroke:#181818;stroke-width:1.0;stroke-dasharray:2.0,2.0;" x1="327" x2="572" y1="986.6133" y2="986.6133"/><text fill="#000000" font-family="sans-serif" font-size="13" font-weight="bold" lengthAdjust="spacing" textLength="14" x="339" y="981.3506">21</text><text fill="#000000" font-family="sans-serif" font-size="13" lengthAdjust="spacing" textLength="204" x="357" y="981.3506">Information about the success/error</text><polygon fill="#181818" points="11,1013.9043,1,1017.9043,11,1021.9043,7,1017.9043" style="stroke:#181818;stroke-width:1.0;"/><line style="stroke:#181818;stroke-width:1.0;stroke-dasharray:2.0,2.0;" x1="5" x2="316" y1="1017.9043" y2="1017.9043"/><text fill="#000000" font-family="sans-serif" font-size="13" font-weight="bold" lengthAdjust="spacing" textLength="14" x="17" y="1012.6416">22</text><text fill="#000000" font-family="sans-serif" font-size="13" lengthAdjust="spacing" textLength="223" x="35" y="1012.6416">Request approved or refused/data error</text><!--SRC=[tLJHRjem57ttLrpr2If1q8OqAK9CY5PRfKr23TtxRN81ZyJER2TL_tws2I49B2tQdfO7bE1ppps-FiTwpqME2ZF8f93nJicCmAY2cAvNSeptkAN8lAO4YcA3Ofis0Ng7YNpXOWiRJ3KnPhYnq8X-5IHYWZkEMuSRVAEIKlW88rWf6PFMy8FJY_ryUXYwtmYcdoOC2oD5aJsJOimsC3pcEGe3Dmvy0rXLpMPBcULIa33pUHjOBtXq_TLNybqcb7guV-k3HgHA7fC7L-yTEFiiH_E3oX0MUWz6GYo5Bb83EOd4ZKgvwMYZOICL81XqiDUS6CQ6bsZ8rpEmps58yyP6Gf1YRIlMjc2vi-T1Ww67riKrrl_TMgeqrmj-qIdZyRx80KK2TWAy9FNgPRM0xZdfiAAE4mXXIsRbAHOYkQi8dCXAMlCv5jdw4BxShs4m7ey3rqm7LMzEEgXcH8bkKv1r6UX2bSJJ59t5hjGPDMgTH7sbncRl7faYOPSOPwDH2DgWANG87oQJO3gPNWIEEeSU5R5FJG3tIabLroHqThZimX1EddmGrdKP6Yu5uBCi39YTcwYd3wWcRn2V36NbTxszazAU21vDxJta65srRM4X1lV46dJUtAsSB0yahgn9WtckP4bWKw9eK-Zt1YGdvVReJdVXLRoTaFQe_3rmUmiXUyDFbS97-cdlHczugr8D_ttm7BPgTkRMhc5NY_NownzY5SPsQq75T6Py7oxbDyF-kic1vxn79ndl2dJ_zlk5jGFREu3U_L_VvV84pWRmtryLZyTC7wQUd0AT10aQX0DLzuhu3G00]--></g></svg>