<?xml version="1.0" encoding="us-ascii" standalone="no"?><svg xmlns="http://www.w3.org/2000/svg" xmlns:xlink="http://www.w3.org/1999/xlink" contentStyleType="text/css" height="873px" preserveAspectRatio="none" style="width:709px;height:873px;background:#FFFFFF;" version="1.1" viewBox="0 0 709 873" width="709px" zoomAndPan="magnify"><defs/><g><text fill="#000000" font-family="sans-serif" font-size="14" font-weight="bold" lengthAdjust="spacing" textLength="418" x="146.5" y="30.1074">System Sequence Diagram (Level 2 - Process View) - US 470</text><rect fill="#FFFFFF" height="206.377" style="stroke:#181818;stroke-width:1.0;" width="10" x="312" y="130.1543"/><rect fill="#FFFFFF" height="431.3848" style="stroke:#181818;stroke-width:1.0;" width="10" x="312" y="367.8223"/><rect fill="#FFFFFF" height="31.291" style="stroke:#181818;stroke-width:1.0;" width="10" x="624" y="187.7363"/><rect fill="#FFFFFF" height="31.291" style="stroke:#181818;stroke-width:1.0;" width="10" x="624" y="266.9492"/><rect fill="#FFFFFF" height="31.291" style="stroke:#181818;stroke-width:1.0;" width="10" x="624" y="451.6953"/><rect fill="#FFFFFF" height="31.291" style="stroke:#181818;stroke-width:1.0;" width="10" x="624" y="530.9082"/><rect fill="#FFFFFF" height="31.291" style="stroke:#181818;stroke-width:1.0;" width="10" x="624" y="643.4121"/><rect fill="#FFFFFF" height="31.291" style="stroke:#181818;stroke-width:1.0;" width="10" x="624" y="722.625"/><rect fill="none" height="161.0859" style="stroke:#000000;stroke-width:1.5;" width="438" x="254" y="145.1543"/><rect fill="none" height="386.0938" style="stroke:#000000;stroke-width:1.5;" width="458" x="244" y="382.8223"/><rect fill="none" height="161.0859" style="stroke:#000000;stroke-width:1.5;" width="438" x="254" y="409.1133"/><rect fill="none" height="161.0859" style="stroke:#000000;stroke-width:1.5;" width="438" x="254" y="600.8301"/><line style="stroke:#181818;stroke-width:0.5;stroke-dasharray:5.0,5.0;" x1="317" x2="317" y1="96.8633" y2="817.207"/><line style="stroke:#181818;stroke-width:0.5;stroke-dasharray:5.0,5.0;" x1="629" x2="629" y1="96.8633" y2="817.207"/><rect fill="#E3E3E3" height="51.2422" rx="2.5" ry="2.5" style="stroke:#181818;stroke-width:0.5;" width="106" x="264" y="44.6211"/><text fill="#000000" font-family="sans-serif" font-size="14" font-style="italic" lengthAdjust="spacing" textLength="92" x="271" y="66.7285">&#171;system (C4)&#187;</text><text fill="#000000" font-family="sans-serif" font-size="14" lengthAdjust="spacing" textLength="12" x="311" y="85.3496">UI</text><rect fill="#E3E3E3" height="51.2422" rx="2.5" ry="2.5" style="stroke:#181818;stroke-width:0.5;" width="106" x="264" y="816.207"/><text fill="#000000" font-family="sans-serif" font-size="14" font-style="italic" lengthAdjust="spacing" textLength="92" x="271" y="838.3145">&#171;system (C4)&#187;</text><text fill="#000000" font-family="sans-serif" font-size="14" lengthAdjust="spacing" textLength="12" x="311" y="856.9355">UI</text><rect fill="#E3E3E3" height="51.2422" rx="2.5" ry="2.5" style="stroke:#181818;stroke-width:0.5;" width="106" x="576" y="44.6211"/><text fill="#000000" font-family="sans-serif" font-size="14" font-style="italic" lengthAdjust="spacing" textLength="92" x="583" y="66.7285">&#171;system (C4)&#187;</text><text fill="#000000" font-family="sans-serif" font-size="14" lengthAdjust="spacing" textLength="30" x="614" y="85.3496">MDT</text><rect fill="#E3E3E3" height="51.2422" rx="2.5" ry="2.5" style="stroke:#181818;stroke-width:0.5;" width="106" x="576" y="816.207"/><text fill="#000000" font-family="sans-serif" font-size="14" font-style="italic" lengthAdjust="spacing" textLength="92" x="583" y="838.3145">&#171;system (C4)&#187;</text><text fill="#000000" font-family="sans-serif" font-size="14" lengthAdjust="spacing" textLength="30" x="614" y="856.9355">MDT</text><rect fill="#FFFFFF" height="206.377" style="stroke:#181818;stroke-width:1.0;" width="10" x="312" y="130.1543"/><rect fill="#FFFFFF" height="431.3848" style="stroke:#181818;stroke-width:1.0;" width="10" x="312" y="367.8223"/><rect fill="#FFFFFF" height="31.291" style="stroke:#181818;stroke-width:1.0;" width="10" x="624" y="187.7363"/><rect fill="#FFFFFF" height="31.291" style="stroke:#181818;stroke-width:1.0;" width="10" x="624" y="266.9492"/><rect fill="#FFFFFF" height="31.291" style="stroke:#181818;stroke-width:1.0;" width="10" x="624" y="451.6953"/><rect fill="#FFFFFF" height="31.291" style="stroke:#181818;stroke-width:1.0;" width="10" x="624" y="530.9082"/><rect fill="#FFFFFF" height="31.291" style="stroke:#181818;stroke-width:1.0;" width="10" x="624" y="643.4121"/><rect fill="#FFFFFF" height="31.291" style="stroke:#181818;stroke-width:1.0;" width="10" x="624" y="722.625"/><ellipse cx="4.5" cy="129.4043" fill="none" rx="4" ry="4" style="stroke:#181818;stroke-width:1.5;"/><polygon fill="#181818" points="300,126.1543,310,130.1543,300,134.1543,304,130.1543" style="stroke:#181818;stroke-width:1.0;"/><line style="stroke:#181818;stroke-width:1.0;" x1="9" x2="306" y1="130.1543" y2="130.1543"/><text fill="#000000" font-family="sans-serif" font-size="13" font-weight="bold" lengthAdjust="spacing" textLength="7" x="12" y="124.8916">1</text><text fill="#000000" font-family="sans-serif" font-size="13" lengthAdjust="spacing" textLength="274" x="23" y="124.8916">Ask to consult pending requests for a task type</text><path d="M254,145.1543 L315,145.1543 L315,154.4453 L305,164.4453 L254,164.4453 L254,145.1543 " fill="#EEEEEE" style="stroke:#000000;stroke-width:1.5;"/><rect fill="none" height="161.0859" style="stroke:#000000;stroke-width:1.5;" width="438" x="254" y="145.1543"/><text fill="#000000" font-family="sans-serif" font-size="13" font-weight="bold" lengthAdjust="spacing" textLength="16" x="269" y="160.1826">alt</text><text fill="#000000" font-family="sans-serif" font-size="11" font-weight="bold" lengthAdjust="spacing" textLength="142" x="330" y="159.0244">[pickup and delivery task]</text><polygon fill="#181818" points="612,183.7363,622,187.7363,612,191.7363,616,187.7363" style="stroke:#181818;stroke-width:1.0;"/><line style="stroke:#181818;stroke-width:1.0;" x1="322" x2="618" y1="187.7363" y2="187.7363"/><text fill="#000000" font-family="sans-serif" font-size="13" font-weight="bold" lengthAdjust="spacing" textLength="7" x="329" y="182.4736">2</text><text fill="#000000" font-family="sans-serif" font-size="13" lengthAdjust="spacing" textLength="211" x="340" y="182.4736">GET (.../tasks/deliveries/requesteds)</text><polygon fill="#181818" points="333,215.0273,323,219.0273,333,223.0273,329,219.0273" style="stroke:#181818;stroke-width:1.0;"/><line style="stroke:#181818;stroke-width:1.0;stroke-dasharray:2.0,2.0;" x1="327" x2="628" y1="219.0273" y2="219.0273"/><text fill="#000000" font-family="sans-serif" font-size="13" font-weight="bold" lengthAdjust="spacing" textLength="7" x="339" y="213.7646">3</text><text fill="#000000" font-family="sans-serif" font-size="13" lengthAdjust="spacing" textLength="90" x="350" y="213.7646">status: 200/404</text><line style="stroke:#000000;stroke-width:1.0;stroke-dasharray:2.0,2.0;" x1="254" x2="692" y1="228.0273" y2="228.0273"/><text fill="#000000" font-family="sans-serif" font-size="11" font-weight="bold" lengthAdjust="spacing" textLength="102" x="259" y="239.8975">[surveillance task]</text><polygon fill="#181818" points="612,262.9492,622,266.9492,612,270.9492,616,266.9492" style="stroke:#181818;stroke-width:1.0;"/><line style="stroke:#181818;stroke-width:1.0;" x1="322" x2="618" y1="266.9492" y2="266.9492"/><text fill="#000000" font-family="sans-serif" font-size="13" font-weight="bold" lengthAdjust="spacing" textLength="7" x="329" y="261.6865">4</text><text fill="#000000" font-family="sans-serif" font-size="13" lengthAdjust="spacing" textLength="232" x="340" y="261.6865">GET (.../tasks/surveillances/requesteds)</text><polygon fill="#181818" points="333,294.2402,323,298.2402,333,302.2402,329,298.2402" style="stroke:#181818;stroke-width:1.0;"/><line style="stroke:#181818;stroke-width:1.0;stroke-dasharray:2.0,2.0;" x1="327" x2="628" y1="298.2402" y2="298.2402"/><text fill="#000000" font-family="sans-serif" font-size="13" font-weight="bold" lengthAdjust="spacing" textLength="7" x="339" y="292.9775">5</text><text fill="#000000" font-family="sans-serif" font-size="13" lengthAdjust="spacing" textLength="90" x="350" y="292.9775">status: 200/404</text><polygon fill="#181818" points="11,332.5313,1,336.5313,11,340.5313,7,336.5313" style="stroke:#181818;stroke-width:1.0;"/><line style="stroke:#181818;stroke-width:1.0;stroke-dasharray:2.0,2.0;" x1="5" x2="316" y1="336.5313" y2="336.5313"/><text fill="#000000" font-family="sans-serif" font-size="13" font-weight="bold" lengthAdjust="spacing" textLength="7" x="17" y="331.2686">6</text><text fill="#000000" font-family="sans-serif" font-size="13" lengthAdjust="spacing" textLength="272" x="28" y="331.2686">Ask to choose a request and the action to take</text><ellipse cx="38.5" cy="367.0723" fill="none" rx="4" ry="4" style="stroke:#181818;stroke-width:1.5;"/><polygon fill="#181818" points="300,363.8223,310,367.8223,300,371.8223,304,367.8223" style="stroke:#181818;stroke-width:1.0;"/><line style="stroke:#181818;stroke-width:1.0;" x1="43" x2="306" y1="367.8223" y2="367.8223"/><text fill="#000000" font-family="sans-serif" font-size="13" font-weight="bold" lengthAdjust="spacing" textLength="7" x="46" y="362.5596">7</text><text fill="#000000" font-family="sans-serif" font-size="13" lengthAdjust="spacing" textLength="240" x="57" y="362.5596">Choose the request and approve or refuse</text><path d="M244,382.8223 L305,382.8223 L305,392.1133 L295,402.1133 L244,402.1133 L244,382.8223 " fill="#EEEEEE" style="stroke:#000000;stroke-width:1.5;"/><rect fill="none" height="386.0938" style="stroke:#000000;stroke-width:1.5;" width="458" x="244" y="382.8223"/><text fill="#000000" font-family="sans-serif" font-size="13" font-weight="bold" lengthAdjust="spacing" textLength="16" x="259" y="397.8506">alt</text><text fill="#000000" font-family="sans-serif" font-size="11" font-weight="bold" lengthAdjust="spacing" textLength="142" x="320" y="396.6924">[pickup and delivery task]</text><path d="M254,409.1133 L315,409.1133 L315,418.4043 L305,428.4043 L254,428.4043 L254,409.1133 " fill="#EEEEEE" style="stroke:#000000;stroke-width:1.5;"/><rect fill="none" height="161.0859" style="stroke:#000000;stroke-width:1.5;" width="438" x="254" y="409.1133"/><text fill="#000000" font-family="sans-serif" font-size="13" font-weight="bold" lengthAdjust="spacing" textLength="16" x="269" y="424.1416">alt</text><text fill="#000000" font-family="sans-serif" font-size="11" font-weight="bold" lengthAdjust="spacing" textLength="53" x="330" y="422.9834">[approve]</text><polygon fill="#181818" points="612,447.6953,622,451.6953,612,455.6953,616,451.6953" style="stroke:#181818;stroke-width:1.0;"/><line style="stroke:#181818;stroke-width:1.0;" x1="322" x2="618" y1="451.6953" y2="451.6953"/><text fill="#000000" font-family="sans-serif" font-size="13" font-weight="bold" lengthAdjust="spacing" textLength="7" x="329" y="446.4326">8</text><text fill="#000000" font-family="sans-serif" font-size="13" lengthAdjust="spacing" textLength="244" x="340" y="446.4326">PATCH (.../tasks/deliveries/:code/approve)</text><polygon fill="#181818" points="333,478.9863,323,482.9863,333,486.9863,329,482.9863" style="stroke:#181818;stroke-width:1.0;"/><line style="stroke:#181818;stroke-width:1.0;stroke-dasharray:2.0,2.0;" x1="327" x2="628" y1="482.9863" y2="482.9863"/><text fill="#000000" font-family="sans-serif" font-size="13" font-weight="bold" lengthAdjust="spacing" textLength="7" x="339" y="477.7236">9</text><text fill="#000000" font-family="sans-serif" font-size="13" lengthAdjust="spacing" textLength="90" x="350" y="477.7236">status: 200/404</text><line style="stroke:#000000;stroke-width:1.0;stroke-dasharray:2.0,2.0;" x1="254" x2="692" y1="491.9863" y2="491.9863"/><text fill="#000000" font-family="sans-serif" font-size="11" font-weight="bold" lengthAdjust="spacing" textLength="40" x="259" y="503.8564">[reject]</text><polygon fill="#181818" points="612,526.9082,622,530.9082,612,534.9082,616,530.9082" style="stroke:#181818;stroke-width:1.0;"/><line style="stroke:#181818;stroke-width:1.0;" x1="322" x2="618" y1="530.9082" y2="530.9082"/><text fill="#000000" font-family="sans-serif" font-size="13" font-weight="bold" lengthAdjust="spacing" textLength="14" x="329" y="525.6455">10</text><text fill="#000000" font-family="sans-serif" font-size="13" lengthAdjust="spacing" textLength="232" x="347" y="525.6455">PATCH (.../tasks/deliveries/:code/reject)</text><polygon fill="#181818" points="333,558.1992,323,562.1992,333,566.1992,329,562.1992" style="stroke:#181818;stroke-width:1.0;"/><line style="stroke:#181818;stroke-width:1.0;stroke-dasharray:2.0,2.0;" x1="327" x2="628" y1="562.1992" y2="562.1992"/><text fill="#000000" font-family="sans-serif" font-size="13" font-weight="bold" lengthAdjust="spacing" textLength="14" x="339" y="556.9365">11</text><text fill="#000000" font-family="sans-serif" font-size="13" lengthAdjust="spacing" textLength="90" x="357" y="556.9365">status: 200/404</text><line style="stroke:#000000;stroke-width:1.0;stroke-dasharray:2.0,2.0;" x1="244" x2="702" y1="578.1992" y2="578.1992"/><text fill="#000000" font-family="sans-serif" font-size="11" font-weight="bold" lengthAdjust="spacing" textLength="102" x="249" y="590.0693">[surveillance task]</text><path d="M254,600.8301 L315,600.8301 L315,610.1211 L305,620.1211 L254,620.1211 L254,600.8301 " fill="#EEEEEE" style="stroke:#000000;stroke-width:1.5;"/><rect fill="none" height="161.0859" style="stroke:#000000;stroke-width:1.5;" width="438" x="254" y="600.8301"/><text fill="#000000" font-family="sans-serif" font-size="13" font-weight="bold" lengthAdjust="spacing" textLength="16" x="269" y="615.8584">alt</text><text fill="#000000" font-family="sans-serif" font-size="11" font-weight="bold" lengthAdjust="spacing" textLength="53" x="330" y="614.7002">[approve]</text><polygon fill="#181818" points="612,639.4121,622,643.4121,612,647.4121,616,643.4121" style="stroke:#181818;stroke-width:1.0;"/><line style="stroke:#181818;stroke-width:1.0;" x1="322" x2="618" y1="643.4121" y2="643.4121"/><text fill="#000000" font-family="sans-serif" font-size="13" font-weight="bold" lengthAdjust="spacing" textLength="14" x="329" y="638.1494">12</text><text fill="#000000" font-family="sans-serif" font-size="13" lengthAdjust="spacing" textLength="265" x="347" y="638.1494">PATCH (.../tasks/surveillances/:code/approve)</text><polygon fill="#181818" points="333,670.7031,323,674.7031,333,678.7031,329,674.7031" style="stroke:#181818;stroke-width:1.0;"/><line style="stroke:#181818;stroke-width:1.0;stroke-dasharray:2.0,2.0;" x1="327" x2="628" y1="674.7031" y2="674.7031"/><text fill="#000000" font-family="sans-serif" font-size="13" font-weight="bold" lengthAdjust="spacing" textLength="14" x="339" y="669.4404">13</text><text fill="#000000" font-family="sans-serif" font-size="13" lengthAdjust="spacing" textLength="90" x="357" y="669.4404">status: 200/404</text><line style="stroke:#000000;stroke-width:1.0;stroke-dasharray:2.0,2.0;" x1="254" x2="692" y1="683.7031" y2="683.7031"/><text fill="#000000" font-family="sans-serif" font-size="11" font-weight="bold" lengthAdjust="spacing" textLength="40" x="259" y="695.5732">[reject]</text><polygon fill="#181818" points="612,718.625,622,722.625,612,726.625,616,722.625" style="stroke:#181818;stroke-width:1.0;"/><line style="stroke:#181818;stroke-width:1.0;" x1="322" x2="618" y1="722.625" y2="722.625"/><text fill="#000000" font-family="sans-serif" font-size="13" font-weight="bold" lengthAdjust="spacing" textLength="14" x="329" y="717.3623">14</text><text fill="#000000" font-family="sans-serif" font-size="13" lengthAdjust="spacing" textLength="253" x="347" y="717.3623">PATCH (.../tasks/surveillances/:code/reject)</text><polygon fill="#181818" points="333,749.916,323,753.916,333,757.916,329,753.916" style="stroke:#181818;stroke-width:1.0;"/><line style="stroke:#181818;stroke-width:1.0;stroke-dasharray:2.0,2.0;" x1="327" x2="628" y1="753.916" y2="753.916"/><text fill="#000000" font-family="sans-serif" font-size="13" font-weight="bold" lengthAdjust="spacing" textLength="14" x="339" y="748.6533">15</text><text fill="#000000" font-family="sans-serif" font-size="13" lengthAdjust="spacing" textLength="90" x="357" y="748.6533">status: 200/404</text><polygon fill="#181818" points="11,795.207,1,799.207,11,803.207,7,799.207" style="stroke:#181818;stroke-width:1.0;"/><line style="stroke:#181818;stroke-width:1.0;stroke-dasharray:2.0,2.0;" x1="5" x2="316" y1="799.207" y2="799.207"/><text fill="#000000" font-family="sans-serif" font-size="13" font-weight="bold" lengthAdjust="spacing" textLength="14" x="17" y="793.9443">16</text><text fill="#000000" font-family="sans-serif" font-size="13" lengthAdjust="spacing" textLength="223" x="35" y="793.9443">Request approved or refused/data error</text><!--SRC=[lLF1Zjem4BtxAqPxWWC4hP0g8KIrOgjsfLPQ5UXzrXx0JMAdzYGh_hus96nWoPQkrEOI9NxlpPjv7fzgKw33779hhDmwcnEmAqduuqc1CiKDBNYN4JYIZ6QJjG5-Yye-QxE1DMQUX63D0RhOUQOS5lIh92C9xZLk8hptbIhAu1O6yEYi9E_XXwRdVlXUBM3yOIImP6lA_8cS4A44QwaBD0mtguSRG0-h1vXE_K6-Dn_tPxDJsBVxvHuNtg-0ugCTpAB21Evy2cn1MkFBZA4Wes8JBXhsx65j7I0mHjYk886ITOLCWIq4060aQPcM1Q1He2ZJ5RdTdX7FunCAXNBHo0G-Vrf2RpWS9X7WangloITrILA-tn2FnGAt-LSBJWU3Mj4pSkadS3iQ9UFHkC4fEcTJo0LywIhIMOOnZIjDjZd_mwTHGaJUIK1RQuDzR9BPJvktjAzjJOGmfYHQSZ6Xbw3d1u58QKjWKJXR4OIO7QrB_xw48wPMEkl_EDF7k-NyIqVq4saL9RL0lwtGDTbhftjvmj3S1aS_mowBzpe-qDk6t_1xfTqEj-5E_EaANmxXpOvERtPd3F-eguiH_BNVLo5qkxtEx6MlTG0dk_czMQJ3oDJB5gb48IEGSzQTxUHl]--></g></svg>