<?xml version="1.0" encoding="UTF-8" standalone="no"?><svg xmlns="http://www.w3.org/2000/svg" xmlns:xlink="http://www.w3.org/1999/xlink" contentStyleType="text/css" height="800px" preserveAspectRatio="none" style="width:1257px;height:800px;background:#FFFFFF;" version="1.1" viewBox="0 0 1257 800" width="1257px" zoomAndPan="magnify"><defs/><g><rect fill="none" height="27.6094" id="_title" style="stroke:none;stroke-width:1.0;" width="235" x="512.5" y="10"/><text fill="#000000" font-family="sans-serif" font-size="14" font-weight="bold" lengthAdjust="spacing" textLength="225" x="517.5" y="29.5332">Sequence Diagram (SD) - US 170</text><rect fill="#FFFFFF" height="502.1719" style="stroke:#181818;stroke-width:1.0;" width="10" x="197" y="174.7891"/><rect fill="#FFFFFF" height="432.4688" style="stroke:#181818;stroke-width:1.0;" width="10" x="331" y="205.1406"/><rect fill="#FFFFFF" height="379.7656" style="stroke:#181818;stroke-width:1.0;" width="10" x="618.5" y="235.4922"/><rect fill="#FFFFFF" height="146.4063" style="stroke:#181818;stroke-width:1.0;" width="10" x="760.5" y="265.8438"/><rect fill="#FFFFFF" height="30.3516" style="stroke:#181818;stroke-width:1.0;" width="10" x="944.5" y="381.8984"/><rect fill="#FFFFFF" height="30.3516" style="stroke:#181818;stroke-width:1.0;" width="10" x="944.5" y="522.4297"/><rect fill="#FFFFFF" height="30" style="stroke:#181818;stroke-width:1.0;" width="10" x="1057.5" y="296.1953"/><rect fill="none" height="126.5313" style="stroke:#000000;stroke-width:1.5;" width="544" x="707" y="341.1953"/><rect fill="none" height="126.5313" style="stroke:#000000;stroke-width:1.5;" width="606.5" x="398.5" y="481.7266"/><line style="stroke:#181818;stroke-width:0.5;stroke-dasharray:5.0,5.0;" x1="201.5" x2="201.5" y1="142.4375" y2="685.9609"/><line style="stroke:#181818;stroke-width:0.5;stroke-dasharray:5.0,5.0;" x1="335.5" x2="335.5" y1="142.4375" y2="685.9609"/><line style="stroke:#181818;stroke-width:0.5;stroke-dasharray:5.0,5.0;" x1="481.5" x2="481.5" y1="579.3438" y2="685.9609"/><line style="stroke:#181818;stroke-width:0.5;stroke-dasharray:5.0,5.0;" x1="623.5" x2="623.5" y1="142.4375" y2="685.9609"/><line style="stroke:#181818;stroke-width:0.5;stroke-dasharray:5.0,5.0;" x1="765" x2="765" y1="142.4375" y2="685.9609"/><line style="stroke:#181818;stroke-width:0.5;stroke-dasharray:5.0,5.0;" x1="949" x2="949" y1="142.4375" y2="685.9609"/><line style="stroke:#181818;stroke-width:0.5;stroke-dasharray:5.0,5.0;" x1="1062" x2="1062" y1="142.4375" y2="685.9609"/><line style="stroke:#181818;stroke-width:0.5;stroke-dasharray:5.0,5.0;" x1="1185" x2="1185" y1="438.8125" y2="685.9609"/><rect fill="#E3E3E3" height="49.2188" rx="2.5" ry="2.5" style="stroke:#181818;stroke-width:0.5;" width="101" x="151.5" y="92.2188"/><text fill="#000000" font-family="sans-serif" font-size="14" font-style="italic" lengthAdjust="spacing" textLength="46" x="179" y="113.752">«Web»</text><text fill="#000000" font-family="sans-serif" font-size="14" lengthAdjust="spacing" textLength="87" x="158.5" y="131.3613">buildingRoute</text><rect fill="#E3E3E3" height="49.2188" rx="2.5" ry="2.5" style="stroke:#181818;stroke-width:0.5;" width="101" x="151.5" y="684.9609"/><text fill="#000000" font-family="sans-serif" font-size="14" font-style="italic" lengthAdjust="spacing" textLength="46" x="179" y="706.4941">«Web»</text><text fill="#000000" font-family="sans-serif" font-size="14" lengthAdjust="spacing" textLength="87" x="158.5" y="724.1035">buildingRoute</text><text fill="#000000" font-family="sans-serif" font-size="14" font-style="italic" lengthAdjust="spacing" textLength="85" x="290.5" y="104.1426">«Controllers»</text><text fill="#000000" font-family="sans-serif" font-size="14" lengthAdjust="spacing" textLength="119" x="273.5" y="121.752">buildingController :</text><text fill="#000000" font-family="sans-serif" font-size="14" lengthAdjust="spacing" textLength="111" x="279.5" y="139.3613">buildingController</text><ellipse cx="336" cy="73.6094" fill="#E3E3E3" rx="12" ry="12" style="stroke:#181818;stroke-width:0.5;"/><polygon fill="#181818" points="332,61.6094,338,56.6094,336,61.6094,338,66.6094,332,61.6094" style="stroke:#181818;stroke-width:1.0;"/><text fill="#000000" font-family="sans-serif" font-size="14" font-style="italic" lengthAdjust="spacing" textLength="85" x="290.5" y="699.4941">«Controllers»</text><text fill="#000000" font-family="sans-serif" font-size="14" lengthAdjust="spacing" textLength="119" x="273.5" y="717.1035">buildingController :</text><text fill="#000000" font-family="sans-serif" font-size="14" lengthAdjust="spacing" textLength="111" x="279.5" y="734.7129">buildingController</text><ellipse cx="336" cy="753.7891" fill="#E3E3E3" rx="12" ry="12" style="stroke:#181818;stroke-width:0.5;"/><polygon fill="#181818" points="332,741.7891,338,736.7891,336,741.7891,338,746.7891,332,741.7891" style="stroke:#181818;stroke-width:1.0;"/><rect fill="#E3E3E3" height="66.8281" rx="2.5" ry="2.5" style="stroke:#181818;stroke-width:0.5;" width="146" x="408.5" y="684.9609"/><text fill="#000000" font-family="sans-serif" font-size="14" font-style="italic" lengthAdjust="spacing" textLength="46" x="458.5" y="706.4941">«DTO»</text><text fill="#000000" font-family="sans-serif" font-size="14" lengthAdjust="spacing" textLength="132" x="415.5" y="724.1035">buildingDTODresult :</text><text fill="#000000" font-family="sans-serif" font-size="14" lengthAdjust="spacing" textLength="80" x="443.5" y="741.7129">BuildingDTO</text><rect fill="#E3E3E3" height="66.8281" rx="2.5" ry="2.5" style="stroke:#181818;stroke-width:0.5;" width="118" x="564.5" y="74.6094"/><text fill="#000000" font-family="sans-serif" font-size="14" font-style="italic" lengthAdjust="spacing" textLength="85" x="581" y="96.1426">«Use Cases»</text><text fill="#000000" font-family="sans-serif" font-size="14" lengthAdjust="spacing" textLength="104" x="571.5" y="113.752">buildingService :</text><text fill="#000000" font-family="sans-serif" font-size="14" lengthAdjust="spacing" textLength="96" x="577.5" y="131.3613">buildingService</text><rect fill="#E3E3E3" height="66.8281" rx="2.5" ry="2.5" style="stroke:#181818;stroke-width:0.5;" width="118" x="564.5" y="684.9609"/><text fill="#000000" font-family="sans-serif" font-size="14" font-style="italic" lengthAdjust="spacing" textLength="85" x="581" y="706.4941">«Use Cases»</text><text fill="#000000" font-family="sans-serif" font-size="14" lengthAdjust="spacing" textLength="104" x="571.5" y="724.1035">buildingService :</text><text fill="#000000" font-family="sans-serif" font-size="14" lengthAdjust="spacing" textLength="96" x="577.5" y="741.7129">buildingService</text><text fill="#000000" font-family="sans-serif" font-size="14" font-style="italic" lengthAdjust="spacing" textLength="78" x="723.5" y="104.1426">«Gateways»</text><text fill="#000000" font-family="sans-serif" font-size="14" lengthAdjust="spacing" textLength="91" x="717" y="121.752">buildingRepo :</text><text fill="#000000" font-family="sans-serif" font-size="14" lengthAdjust="spacing" textLength="83" x="723" y="139.3613">buildingRepo</text><path d="M747.5,53.6094 C747.5,43.6094 765.5,43.6094 765.5,43.6094 C765.5,43.6094 783.5,43.6094 783.5,53.6094 L783.5,79.6094 C783.5,89.6094 765.5,89.6094 765.5,89.6094 C765.5,89.6094 747.5,89.6094 747.5,79.6094 L747.5,53.6094 " fill="#E3E3E3" style="stroke:#181818;stroke-width:1.5;"/><path d="M747.5,53.6094 C747.5,63.6094 765.5,63.6094 765.5,63.6094 C765.5,63.6094 783.5,63.6094 783.5,53.6094 " fill="none" style="stroke:#181818;stroke-width:1.5;"/><text fill="#000000" font-family="sans-serif" font-size="14" font-style="italic" lengthAdjust="spacing" textLength="78" x="723.5" y="699.4941">«Gateways»</text><text fill="#000000" font-family="sans-serif" font-size="14" lengthAdjust="spacing" textLength="91" x="717" y="717.1035">buildingRepo :</text><text fill="#000000" font-family="sans-serif" font-size="14" lengthAdjust="spacing" textLength="83" x="723" y="734.7129">buildingRepo</text><path d="M747.5,747.7891 C747.5,737.7891 765.5,737.7891 765.5,737.7891 C765.5,737.7891 783.5,737.7891 783.5,747.7891 L783.5,773.7891 C783.5,783.7891 765.5,783.7891 765.5,783.7891 C765.5,783.7891 747.5,783.7891 747.5,773.7891 L747.5,747.7891 " fill="#E3E3E3" style="stroke:#181818;stroke-width:1.5;"/><path d="M747.5,747.7891 C747.5,757.7891 765.5,757.7891 765.5,757.7891 C765.5,757.7891 783.5,757.7891 783.5,747.7891 " fill="none" style="stroke:#181818;stroke-width:1.5;"/><rect fill="#E3E3E3" height="49.2188" rx="2.5" ry="2.5" style="stroke:#181818;stroke-width:0.5;" width="91" x="904" y="92.2188"/><text fill="#000000" font-family="sans-serif" font-size="14" font-style="italic" lengthAdjust="spacing" textLength="65" x="917" y="113.752">«Mapper»</text><text fill="#000000" font-family="sans-serif" font-size="14" lengthAdjust="spacing" textLength="77" x="911" y="131.3613">BuildingMap</text><rect fill="#E3E3E3" height="49.2188" rx="2.5" ry="2.5" style="stroke:#181818;stroke-width:0.5;" width="91" x="904" y="684.9609"/><text fill="#000000" font-family="sans-serif" font-size="14" font-style="italic" lengthAdjust="spacing" textLength="65" x="917" y="706.4941">«Mapper»</text><text fill="#000000" font-family="sans-serif" font-size="14" lengthAdjust="spacing" textLength="77" x="911" y="724.1035">BuildingMap</text><rect fill="#E3E3E3" height="49.2188" rx="2.5" ry="2.5" style="stroke:#181818;stroke-width:0.5;" width="115" x="1005" y="92.2188"/><text fill="#000000" font-family="sans-serif" font-size="14" font-style="italic" lengthAdjust="spacing" textLength="67" x="1029" y="113.752">«Schema»</text><text fill="#000000" font-family="sans-serif" font-size="14" lengthAdjust="spacing" textLength="101" x="1012" y="131.3613">BuildingSchema</text><rect fill="#E3E3E3" height="49.2188" rx="2.5" ry="2.5" style="stroke:#181818;stroke-width:0.5;" width="115" x="1005" y="684.9609"/><text fill="#000000" font-family="sans-serif" font-size="14" font-style="italic" lengthAdjust="spacing" textLength="67" x="1029" y="706.4941">«Schema»</text><text fill="#000000" font-family="sans-serif" font-size="14" lengthAdjust="spacing" textLength="101" x="1012" y="724.1035">BuildingSchema</text><rect fill="#E3E3E3" height="66.8281" rx="2.5" ry="2.5" style="stroke:#181818;stroke-width:0.5;" width="111" x="1130" y="684.9609"/><text fill="#000000" font-family="sans-serif" font-size="14" font-style="italic" lengthAdjust="spacing" textLength="64" x="1153.5" y="706.4941">«Domain»</text><text fill="#000000" font-family="sans-serif" font-size="14" lengthAdjust="spacing" textLength="93" x="1137" y="724.1035">buildingResult:</text><text fill="#000000" font-family="sans-serif" font-size="14" lengthAdjust="spacing" textLength="49" x="1163" y="741.7129">building</text><rect fill="#FFFFFF" height="502.1719" style="stroke:#181818;stroke-width:1.0;" width="10" x="197" y="174.7891"/><rect fill="#FFFFFF" height="432.4688" style="stroke:#181818;stroke-width:1.0;" width="10" x="331" y="205.1406"/><rect fill="#FFFFFF" height="379.7656" style="stroke:#181818;stroke-width:1.0;" width="10" x="618.5" y="235.4922"/><rect fill="#FFFFFF" height="146.4063" style="stroke:#181818;stroke-width:1.0;" width="10" x="760.5" y="265.8438"/><rect fill="#FFFFFF" height="30.3516" style="stroke:#181818;stroke-width:1.0;" width="10" x="944.5" y="381.8984"/><rect fill="#FFFFFF" height="30.3516" style="stroke:#181818;stroke-width:1.0;" width="10" x="944.5" y="522.4297"/><rect fill="#FFFFFF" height="30" style="stroke:#181818;stroke-width:1.0;" width="10" x="1057.5" y="296.1953"/><ellipse cx="62.5" cy="174.0391" fill="none" rx="4" ry="4" style="stroke:#181818;stroke-width:1.5;"/><polygon fill="#181818" points="185,170.7891,195,174.7891,185,178.7891,189,174.7891" style="stroke:#181818;stroke-width:1.0;"/><line style="stroke:#181818;stroke-width:1.0;" x1="67" x2="191" y1="174.7891" y2="174.7891"/><text fill="#000000" font-family="sans-serif" font-size="13" font-weight="bold" lengthAdjust="spacing" textLength="7" x="70" y="169.9326">1</text><text fill="#000000" font-family="sans-serif" font-size="13" lengthAdjust="spacing" textLength="101" x="81" y="169.9326">GET (../buildings)</text><polygon fill="#181818" points="319,201.1406,329,205.1406,319,209.1406,323,205.1406" style="stroke:#181818;stroke-width:1.0;"/><line style="stroke:#181818;stroke-width:1.0;" x1="207" x2="325" y1="205.1406" y2="205.1406"/><text fill="#000000" font-family="sans-serif" font-size="13" font-weight="bold" lengthAdjust="spacing" textLength="7" x="214" y="200.2842">2</text><text fill="#000000" font-family="sans-serif" font-size="13" lengthAdjust="spacing" textLength="94" x="225" y="200.2842">getAllBuildings()</text><polygon fill="#181818" points="606.5,231.4922,616.5,235.4922,606.5,239.4922,610.5,235.4922" style="stroke:#181818;stroke-width:1.0;"/><line style="stroke:#181818;stroke-width:1.0;" x1="341" x2="612.5" y1="235.4922" y2="235.4922"/><text fill="#000000" font-family="sans-serif" font-size="13" font-weight="bold" lengthAdjust="spacing" textLength="7" x="348" y="230.6357">3</text><text fill="#000000" font-family="sans-serif" font-size="13" lengthAdjust="spacing" textLength="79" x="359" y="230.6357">getBuildings()</text><polygon fill="#181818" points="748.5,261.8438,758.5,265.8438,748.5,269.8438,752.5,265.8438" style="stroke:#181818;stroke-width:1.0;"/><line style="stroke:#181818;stroke-width:1.0;" x1="628.5" x2="754.5" y1="265.8438" y2="265.8438"/><text fill="#000000" font-family="sans-serif" font-size="13" font-weight="bold" lengthAdjust="spacing" textLength="7" x="635.5" y="260.9873">4</text><text fill="#000000" font-family="sans-serif" font-size="13" lengthAdjust="spacing" textLength="102" x="646.5" y="260.9873">findAll(): buildings</text><polygon fill="#181818" points="1045.5,292.1953,1055.5,296.1953,1045.5,300.1953,1049.5,296.1953" style="stroke:#181818;stroke-width:1.0;"/><line style="stroke:#181818;stroke-width:1.0;" x1="770.5" x2="1051.5" y1="296.1953" y2="296.1953"/><text fill="#000000" font-family="sans-serif" font-size="13" font-weight="bold" lengthAdjust="spacing" textLength="7" x="777.5" y="291.3389">5</text><text fill="#000000" font-family="sans-serif" font-size="13" lengthAdjust="spacing" textLength="93" x="788.5" y="291.3389">find(): document</text><path d="M707,341.1953 L780,341.1953 L780,349.5469 L770,359.5469 L707,359.5469 L707,341.1953 " fill="#EEEEEE" style="stroke:#000000;stroke-width:1.5;"/><rect fill="none" height="126.5313" style="stroke:#000000;stroke-width:1.5;" width="544" x="707" y="341.1953"/><text fill="#000000" font-family="sans-serif" font-size="13" font-weight="bold" lengthAdjust="spacing" textLength="28" x="722" y="355.6904">loop</text><text fill="#000000" font-family="sans-serif" font-size="11" font-weight="bold" lengthAdjust="spacing" textLength="100" x="795" y="354.6143">[for each building]</text><polygon fill="#181818" points="932.5,377.8984,942.5,381.8984,932.5,385.8984,936.5,381.8984" style="stroke:#181818;stroke-width:1.0;"/><line style="stroke:#181818;stroke-width:1.0;" x1="770.5" x2="938.5" y1="381.8984" y2="381.8984"/><text fill="#000000" font-family="sans-serif" font-size="13" font-weight="bold" lengthAdjust="spacing" textLength="7" x="777.5" y="377.042">6</text><text fill="#000000" font-family="sans-serif" font-size="13" lengthAdjust="spacing" textLength="144" x="788.5" y="377.042">toDomain(documentLine)</text><polygon fill="#181818" points="1118,408.25,1128,412.25,1118,416.25,1122,412.25" style="stroke:#181818;stroke-width:1.0;"/><line style="stroke:#181818;stroke-width:1.0;" x1="949.5" x2="1124" y1="412.25" y2="412.25"/><text fill="#000000" font-family="sans-serif" font-size="13" font-weight="bold" lengthAdjust="spacing" textLength="7" x="956.5" y="407.3936">7</text><text fill="#000000" font-family="sans-serif" font-size="13" lengthAdjust="spacing" textLength="44" x="967.5" y="407.3936">create()</text><rect fill="#E3E3E3" height="66.8281" rx="2.5" ry="2.5" style="stroke:#181818;stroke-width:0.5;" width="111" x="1130" y="389.8984"/><text fill="#000000" font-family="sans-serif" font-size="14" font-style="italic" lengthAdjust="spacing" textLength="64" x="1153.5" y="411.4316">«Domain»</text><text fill="#000000" font-family="sans-serif" font-size="14" lengthAdjust="spacing" textLength="93" x="1137" y="429.041">buildingResult:</text><text fill="#000000" font-family="sans-serif" font-size="14" lengthAdjust="spacing" textLength="49" x="1163" y="446.6504">building</text><path d="M398.5,481.7266 L471.5,481.7266 L471.5,490.0781 L461.5,500.0781 L398.5,500.0781 L398.5,481.7266 " fill="#EEEEEE" style="stroke:#000000;stroke-width:1.5;"/><rect fill="none" height="126.5313" style="stroke:#000000;stroke-width:1.5;" width="606.5" x="398.5" y="481.7266"/><text fill="#000000" font-family="sans-serif" font-size="13" font-weight="bold" lengthAdjust="spacing" textLength="28" x="413.5" y="496.2217">loop</text><text fill="#000000" font-family="sans-serif" font-size="11" font-weight="bold" lengthAdjust="spacing" textLength="100" x="486.5" y="495.1455">[for each building]</text><polygon fill="#181818" points="932.5,518.4297,942.5,522.4297,932.5,526.4297,936.5,522.4297" style="stroke:#181818;stroke-width:1.0;"/><line style="stroke:#181818;stroke-width:1.0;" x1="628.5" x2="938.5" y1="522.4297" y2="522.4297"/><text fill="#000000" font-family="sans-serif" font-size="13" font-weight="bold" lengthAdjust="spacing" textLength="7" x="635.5" y="517.5732">8</text><text fill="#000000" font-family="sans-serif" font-size="13" lengthAdjust="spacing" textLength="189" x="646.5" y="517.5732">buildingsDTO = toDTO(buildings)</text><polygon fill="#181818" points="565.5,548.7813,555.5,552.7813,565.5,556.7813,561.5,552.7813" style="stroke:#181818;stroke-width:1.0;"/><line style="stroke:#181818;stroke-width:1.0;stroke-dasharray:2.0,2.0;" x1="559.5" x2="948.5" y1="552.7813" y2="552.7813"/><text fill="#000000" font-family="sans-serif" font-size="13" font-weight="bold" lengthAdjust="spacing" textLength="7" x="571.5" y="547.9248">9</text><text fill="#000000" font-family="sans-serif" font-size="13" lengthAdjust="spacing" textLength="44" x="582.5" y="547.9248">create()</text><rect fill="#E3E3E3" height="66.8281" rx="2.5" ry="2.5" style="stroke:#181818;stroke-width:0.5;" width="146" x="408.5" y="530.4297"/><text fill="#000000" font-family="sans-serif" font-size="14" font-style="italic" lengthAdjust="spacing" textLength="46" x="458.5" y="551.9629">«DTO»</text><text fill="#000000" font-family="sans-serif" font-size="14" lengthAdjust="spacing" textLength="132" x="415.5" y="569.5723">buildingDTODresult :</text><text fill="#000000" font-family="sans-serif" font-size="14" lengthAdjust="spacing" textLength="80" x="443.5" y="587.1816">BuildingDTO</text><polygon fill="#181818" points="218,633.6094,208,637.6094,218,641.6094,214,637.6094" style="stroke:#181818;stroke-width:1.0;"/><line style="stroke:#181818;stroke-width:1.0;stroke-dasharray:2.0,2.0;" x1="212" x2="335" y1="637.6094" y2="637.6094"/><text fill="#000000" font-family="sans-serif" font-size="13" font-weight="bold" lengthAdjust="spacing" textLength="14" x="224" y="632.7529">10</text><text fill="#000000" font-family="sans-serif" font-size="13" lengthAdjust="spacing" textLength="53" x="242" y="632.7529">response</text><polygon fill="#181818" points="11,663.9609,1,667.9609,11,671.9609,7,667.9609" style="stroke:#181818;stroke-width:1.0;"/><line style="stroke:#181818;stroke-width:1.0;stroke-dasharray:2.0,2.0;" x1="5" x2="196" y1="667.9609" y2="667.9609"/><text fill="#000000" font-family="sans-serif" font-size="13" font-weight="bold" lengthAdjust="spacing" textLength="14" x="17" y="663.1045">11</text><text fill="#000000" font-family="sans-serif" font-size="13" lengthAdjust="spacing" textLength="160" x="35" y="663.1045">status: 201 mostra edificios</text><!--MD5=[5f13b4eba28cc9e83ce17880c88a8f71]
@startuml
skinparam monochrome true
skinparam packageStyle rectangle
skinparam shadowing false

title Sequence Diagram (SD) - US 170
autonumber

participant buildingRoute as route <<Web>>
control "buildingController :\n buildingController" as controller <<Controllers>>
participant "buildingDTODresult :\n BuildingDTO" as dtoResult <<DTO>>
participant "buildingService :\n buildingService" as service <<Use Cases>>
database "buildingRepo :\n buildingRepo" as repo <<Gateways>>
participant BuildingMap as map <<Mapper>>
participant "BuildingSchema" as schema <<Schema>>
participant "buildingResult: \n building" as buildingResult <<Domain>>


?o->route : GET (../buildings)
    activate route
    route -> controller : getAllBuildings()

    activate controller
    controller -> service : getBuildings()

    activate service
    service -> repo : findAll(): buildings
    activate repo
    repo -> schema: find(): document
    activate schema
    deactivate schema

loop for each building
    repo -> map: toDomain(documentLine)
    activate map
    map -> buildingResult** : create()
    deactivate map
    deactivate repo
end
loop for each building
    service -> map : buildingsDTO = toDTO(buildings)
    activate map
    map - -> dtoResult** : create()
    deactivate map
end
    deactivate service
    controller - -> route : response
    deactivate controller
<- - route : status: 201 mostra edificios

@enduml

PlantUML version 1.2022.7(Mon Aug 22 18:01:30 WEST 2022)
(GPL source distribution)
Java Runtime: OpenJDK Runtime Environment
JVM: OpenJDK 64-Bit Server VM
Default Encoding: UTF-8
Language: en
Country: GB
--></g></svg>