<?xml version="1.0" encoding="UTF-8" standalone="no"?><svg xmlns="http://www.w3.org/2000/svg" xmlns:xlink="http://www.w3.org/1999/xlink" contentStyleType="text/css" height="603px" preserveAspectRatio="none" style="width:751px;height:603px;background:#FFFFFF;" version="1.1" viewBox="0 0 751 603" width="751px" zoomAndPan="magnify"><defs/><g><rect fill="none" height="41.4453" id="_title" style="stroke:none;stroke-width:1.0;" width="304" x="216.5" y="5"/><text fill="#000000" font-family="sans-serif" font-size="25" font-weight="bold" lengthAdjust="spacing" text-decoration="underline" textLength="294" x="221.5" y="35.9521">US 230 - Domain classes</text><!--MD5=[a8c72dcb0993599bf4f10d1dea215f72]
cluster <<aggregate>> Building--><g id="cluster_&lt;&lt;aggregate&gt;&gt; Building"><path d="M8.5,60.4385 L294.5,60.4385 A3.75,3.75 0 0 1 297,62.9385 L304,97.8838 L741.5,97.8838 A2.5,2.5 0 0 1 744,100.3838 L744,593.9385 A2.5,2.5 0 0 1 741.5,596.4385 L8.5,596.4385 A2.5,2.5 0 0 1 6,593.9385 L6,62.9385 A2.5,2.5 0 0 1 8.5,60.4385 " fill="none" style="stroke:#000000;stroke-width:1.5;"/><line style="stroke:#000000;stroke-width:1.5;" x1="6" x2="304" y1="97.8838" y2="97.8838"/><text fill="#000000" font-family="sans-serif" font-size="25" font-weight="bold" lengthAdjust="spacing" textLength="285" x="10" y="88.3906">&lt;&lt;aggregate&gt;&gt; Building</text></g><!--MD5=[8560f289a30852a9f75d64e53f926853]
class Building--><g id="elem_Building"><rect codeLine="10" fill="#F1F1F1" height="65.7969" id="Building" rx="2.5" ry="2.5" style="stroke:#181818;stroke-width:0.5;" width="82" x="605" y="110.4385"/><ellipse cx="620" cy="139.3369" fill="#ADD1B2" rx="11" ry="11" style="stroke:#181818;stroke-width:1.0;"/><path d="M618.8594,140.1338 L618.8594,142.6338 L623.1875,142.6338 L623.1875,141.7119 Q623.1875,141.1025 623.4219,140.8369 Q623.6719,140.5713 624.0469,140.5713 Q624.4219,140.5713 624.6563,140.8369 Q624.8906,141.1025 624.8906,141.7119 L624.8906,144.3369 L616.8906,144.3369 Q616.2656,144.3369 616,144.1025 Q615.75,143.8682 615.75,143.4775 Q615.75,143.1025 616.0156,142.8682 Q616.2813,142.6338 616.8906,142.6338 L617.1563,142.6338 L617.1563,135.9775 L616.8906,135.9775 Q616.2656,135.9775 616,135.7432 Q615.75,135.5088 615.75,135.1182 Q615.75,134.7432 616,134.5088 Q616.2656,134.2744 616.8906,134.2744 L624.5156,134.2744 L624.5156,136.8682 Q624.5156,137.4775 624.2813,137.7432 Q624.0625,137.9932 623.6719,137.9932 Q623.2969,137.9932 623.0625,137.7432 Q622.8281,137.4775 622.8281,136.8682 L622.8281,135.9775 L618.8594,135.9775 L618.8594,138.4307 L620.3438,138.4307 Q620.3438,137.7744 620.4688,137.5869 Q620.7344,137.1807 621.2031,137.1807 Q621.5781,137.1807 621.8125,137.4463 Q622.0469,137.6963 622.0469,138.3057 L622.0469,140.2744 Q622.0469,140.8213 621.9219,141.0088 Q621.6563,141.3994 621.2031,141.3994 Q620.7344,141.3994 620.4688,140.9932 Q620.3438,140.8057 620.3438,140.1338 L618.8594,140.1338 Z " fill="#000000"/><text fill="#000000" font-family="sans-serif" font-size="12" font-style="italic" lengthAdjust="spacing" textLength="43" x="637.5" y="127.8955">«entity»</text><text fill="#000000" font-family="sans-serif" font-size="12" font-style="italic" lengthAdjust="spacing" textLength="35" x="641.5" y="142.9893">«root»</text><text fill="#000000" font-family="sans-serif" font-size="14" lengthAdjust="spacing" textLength="50" x="634" y="160.1592">Building</text><line style="stroke:#181818;stroke-width:0.5;" x1="606" x2="686" y1="168.2354" y2="168.2354"/></g><!--MD5=[ba580110b1777f63e0f1dfe3fcefdac0]
class Code--><g id="elem_Code"><rect codeLine="11" fill="#F1F1F1" height="50.7031" id="Code" rx="2.5" ry="2.5" style="stroke:#181818;stroke-width:0.5;" width="109" x="618.5" y="262.9385"/><ellipse cx="633.5" cy="284.29" fill="#FF8B40" rx="11" ry="11" style="stroke:#181818;stroke-width:1.0;"/><path d="M634.0938,287.5557 L636.5625,281.6807 L636.1719,281.6807 Q635.5625,281.6807 635.2969,281.4463 Q635.0313,281.2119 635.0313,280.8213 Q635.0313,280.4463 635.2969,280.2119 Q635.5625,279.9775 636.1719,279.9775 L638.4531,279.9775 Q639.0625,279.9775 639.3281,280.2119 Q639.5938,280.4463 639.5938,280.8213 Q639.5938,281.29 639.1875,281.5557 Q639,281.6807 638.4063,281.6807 L634.9219,290.04 L633.2813,290.04 L629.7969,281.6807 Q629.2031,281.6807 629.0156,281.5557 Q628.6094,281.29 628.6094,280.8213 Q628.6094,280.4463 628.875,280.2119 Q629.1406,279.9775 629.75,279.9775 L632.0469,279.9775 Q632.6563,279.9775 632.9063,280.2119 Q633.1719,280.4463 633.1719,280.8213 Q633.1719,281.2119 632.9063,281.4463 Q632.6563,281.6807 632.0469,281.6807 L631.6406,281.6807 L634.0938,287.5557 Z " fill="#000000"/><text fill="#000000" font-family="sans-serif" font-size="12" font-style="italic" lengthAdjust="spacing" textLength="81" x="645.5" y="280.3955">«value object»</text><text fill="#000000" font-family="sans-serif" font-size="14" lengthAdjust="spacing" textLength="34" x="669" y="297.5654">Code</text><line style="stroke:#181818;stroke-width:0.5;" x1="619.5" x2="726.5" y1="305.6416" y2="305.6416"/></g><!--MD5=[b098efa4dd65edfeebe973e4edec7c36]
class Floor--><g id="elem_Floor"><rect codeLine="13" fill="#F1F1F1" height="68.3125" id="Floor" rx="2.5" ry="2.5" style="stroke:#181818;stroke-width:0.5;" width="71" x="512.5" y="254.4385"/><ellipse cx="527.5" cy="275.79" fill="#ADD1B2" rx="11" ry="11" style="stroke:#181818;stroke-width:1.0;"/><path d="M526.3594,276.5869 L526.3594,279.0869 L530.6875,279.0869 L530.6875,278.165 Q530.6875,277.5557 530.9219,277.29 Q531.1719,277.0244 531.5469,277.0244 Q531.9219,277.0244 532.1563,277.29 Q532.3906,277.5557 532.3906,278.165 L532.3906,280.79 L524.3906,280.79 Q523.7656,280.79 523.5,280.5557 Q523.25,280.3213 523.25,279.9307 Q523.25,279.5557 523.5156,279.3213 Q523.7813,279.0869 524.3906,279.0869 L524.6563,279.0869 L524.6563,272.4307 L524.3906,272.4307 Q523.7656,272.4307 523.5,272.1963 Q523.25,271.9619 523.25,271.5713 Q523.25,271.1963 523.5,270.9619 Q523.7656,270.7275 524.3906,270.7275 L532.0156,270.7275 L532.0156,273.3213 Q532.0156,273.9307 531.7813,274.1963 Q531.5625,274.4463 531.1719,274.4463 Q530.7969,274.4463 530.5625,274.1963 Q530.3281,273.9307 530.3281,273.3213 L530.3281,272.4307 L526.3594,272.4307 L526.3594,274.8838 L527.8438,274.8838 Q527.8438,274.2275 527.9688,274.04 Q528.2344,273.6338 528.7031,273.6338 Q529.0781,273.6338 529.3125,273.8994 Q529.5469,274.1494 529.5469,274.7588 L529.5469,276.7275 Q529.5469,277.2744 529.4219,277.4619 Q529.1563,277.8525 528.7031,277.8525 Q528.2344,277.8525 527.9688,277.4463 Q527.8438,277.2588 527.8438,276.5869 L526.3594,276.5869 Z " fill="#000000"/><text fill="#000000" font-family="sans-serif" font-size="12" font-style="italic" lengthAdjust="spacing" textLength="43" x="539.5" y="271.8955">«entity»</text><text fill="#000000" font-family="sans-serif" font-size="14" lengthAdjust="spacing" textLength="33" x="544.5" y="289.0654">Floor</text><line style="stroke:#181818;stroke-width:0.5;" x1="513.5" x2="582.5" y1="297.1416" y2="297.1416"/><text fill="#000000" font-family="sans-serif" font-size="14" lengthAdjust="spacing" textLength="48" x="518.5" y="315.6748">number</text></g><!--MD5=[315731868791fa8362f5fb8b9bb7d5a6]
class CellInfo--><g id="elem_CellInfo"><rect codeLine="16" fill="#F1F1F1" height="50.7031" id="CellInfo" rx="2.5" ry="2.5" style="stroke:#181818;stroke-width:0.5;" width="109" x="582.5" y="400.4385"/><ellipse cx="597.5" cy="421.79" fill="#FF8B40" rx="11" ry="11" style="stroke:#181818;stroke-width:1.0;"/><path d="M598.0938,425.0557 L600.5625,419.1807 L600.1719,419.1807 Q599.5625,419.1807 599.2969,418.9463 Q599.0313,418.7119 599.0313,418.3213 Q599.0313,417.9463 599.2969,417.7119 Q599.5625,417.4775 600.1719,417.4775 L602.4531,417.4775 Q603.0625,417.4775 603.3281,417.7119 Q603.5938,417.9463 603.5938,418.3213 Q603.5938,418.79 603.1875,419.0557 Q603,419.1807 602.4063,419.1807 L598.9219,427.54 L597.2813,427.54 L593.7969,419.1807 Q593.2031,419.1807 593.0156,419.0557 Q592.6094,418.79 592.6094,418.3213 Q592.6094,417.9463 592.875,417.7119 Q593.1406,417.4775 593.75,417.4775 L596.0469,417.4775 Q596.6563,417.4775 596.9063,417.7119 Q597.1719,417.9463 597.1719,418.3213 Q597.1719,418.7119 596.9063,418.9463 Q596.6563,419.1807 596.0469,419.1807 L595.6406,419.1807 L598.0938,425.0557 Z " fill="#000000"/><text fill="#000000" font-family="sans-serif" font-size="12" font-style="italic" lengthAdjust="spacing" textLength="81" x="609.5" y="417.8955">«value object»</text><text fill="#000000" font-family="sans-serif" font-size="14" lengthAdjust="spacing" textLength="47" x="626.5" y="435.0654">CellInfo</text><line style="stroke:#181818;stroke-width:0.5;" x1="583.5" x2="690.5" y1="443.1416" y2="443.1416"/></g><!--MD5=[93e485d66e62470c0e68a81214641dfb]
class Elevator--><g id="elem_Elevator"><rect codeLine="18" fill="#F1F1F1" height="50.7031" id="Elevator" rx="2.5" ry="2.5" style="stroke:#181818;stroke-width:0.5;" width="84" x="416" y="117.9385"/><ellipse cx="431" cy="139.29" fill="#ADD1B2" rx="11" ry="11" style="stroke:#181818;stroke-width:1.0;"/><path d="M429.8594,140.0869 L429.8594,142.5869 L434.1875,142.5869 L434.1875,141.665 Q434.1875,141.0557 434.4219,140.79 Q434.6719,140.5244 435.0469,140.5244 Q435.4219,140.5244 435.6563,140.79 Q435.8906,141.0557 435.8906,141.665 L435.8906,144.29 L427.8906,144.29 Q427.2656,144.29 427,144.0557 Q426.75,143.8213 426.75,143.4307 Q426.75,143.0557 427.0156,142.8213 Q427.2813,142.5869 427.8906,142.5869 L428.1563,142.5869 L428.1563,135.9307 L427.8906,135.9307 Q427.2656,135.9307 427,135.6963 Q426.75,135.4619 426.75,135.0713 Q426.75,134.6963 427,134.4619 Q427.2656,134.2275 427.8906,134.2275 L435.5156,134.2275 L435.5156,136.8213 Q435.5156,137.4307 435.2813,137.6963 Q435.0625,137.9463 434.6719,137.9463 Q434.2969,137.9463 434.0625,137.6963 Q433.8281,137.4307 433.8281,136.8213 L433.8281,135.9307 L429.8594,135.9307 L429.8594,138.3838 L431.3438,138.3838 Q431.3438,137.7275 431.4688,137.54 Q431.7344,137.1338 432.2031,137.1338 Q432.5781,137.1338 432.8125,137.3994 Q433.0469,137.6494 433.0469,138.2588 L433.0469,140.2275 Q433.0469,140.7744 432.9219,140.9619 Q432.6563,141.3525 432.2031,141.3525 Q431.7344,141.3525 431.4688,140.9463 Q431.3438,140.7588 431.3438,140.0869 L429.8594,140.0869 Z " fill="#000000"/><text fill="#000000" font-family="sans-serif" font-size="12" font-style="italic" lengthAdjust="spacing" textLength="43" x="449.5" y="135.3955">«entity»</text><text fill="#000000" font-family="sans-serif" font-size="14" lengthAdjust="spacing" textLength="52" x="445" y="152.5654">Elevator</text><line style="stroke:#181818;stroke-width:0.5;" x1="417" x2="499" y1="160.6416" y2="160.6416"/></g><!--MD5=[e56fe874e07467227b4c0f5e776dac74]
class Passageway--><g id="elem_Passageway"><rect codeLine="20" fill="#F1F1F1" height="50.7031" id="Passageway" rx="2.5" ry="2.5" style="stroke:#181818;stroke-width:0.5;" width="111" x="113.5" y="117.9385"/><ellipse cx="128.5" cy="139.29" fill="#ADD1B2" rx="11" ry="11" style="stroke:#181818;stroke-width:1.0;"/><path d="M127.3594,140.0869 L127.3594,142.5869 L131.6875,142.5869 L131.6875,141.665 Q131.6875,141.0557 131.9219,140.79 Q132.1719,140.5244 132.5469,140.5244 Q132.9219,140.5244 133.1563,140.79 Q133.3906,141.0557 133.3906,141.665 L133.3906,144.29 L125.3906,144.29 Q124.7656,144.29 124.5,144.0557 Q124.25,143.8213 124.25,143.4307 Q124.25,143.0557 124.5156,142.8213 Q124.7813,142.5869 125.3906,142.5869 L125.6563,142.5869 L125.6563,135.9307 L125.3906,135.9307 Q124.7656,135.9307 124.5,135.6963 Q124.25,135.4619 124.25,135.0713 Q124.25,134.6963 124.5,134.4619 Q124.7656,134.2275 125.3906,134.2275 L133.0156,134.2275 L133.0156,136.8213 Q133.0156,137.4307 132.7813,137.6963 Q132.5625,137.9463 132.1719,137.9463 Q131.7969,137.9463 131.5625,137.6963 Q131.3281,137.4307 131.3281,136.8213 L131.3281,135.9307 L127.3594,135.9307 L127.3594,138.3838 L128.8438,138.3838 Q128.8438,137.7275 128.9688,137.54 Q129.2344,137.1338 129.7031,137.1338 Q130.0781,137.1338 130.3125,137.3994 Q130.5469,137.6494 130.5469,138.2588 L130.5469,140.2275 Q130.5469,140.7744 130.4219,140.9619 Q130.1563,141.3525 129.7031,141.3525 Q129.2344,141.3525 128.9688,140.9463 Q128.8438,140.7588 128.8438,140.0869 L127.3594,140.0869 Z " fill="#000000"/><text fill="#000000" font-family="sans-serif" font-size="12" font-style="italic" lengthAdjust="spacing" textLength="43" x="160.5" y="135.3955">«entity»</text><text fill="#000000" font-family="sans-serif" font-size="14" lengthAdjust="spacing" textLength="79" x="142.5" y="152.5654">Passageway</text><line style="stroke:#181818;stroke-width:0.5;" x1="114.5" x2="223.5" y1="160.6416" y2="160.6416"/></g><!--MD5=[fde311be92f6e4d97ae9feed82503bdf]
class PassagewayCode--><g id="elem_PassagewayCode"><rect codeLine="21" fill="#F1F1F1" height="50.7031" id="PassagewayCode" rx="2.5" ry="2.5" style="stroke:#181818;stroke-width:0.5;" width="145" x="96.5" y="262.9385"/><ellipse cx="111.5" cy="284.29" fill="#FF8B40" rx="11" ry="11" style="stroke:#181818;stroke-width:1.0;"/><path d="M112.0938,287.5557 L114.5625,281.6807 L114.1719,281.6807 Q113.5625,281.6807 113.2969,281.4463 Q113.0313,281.2119 113.0313,280.8213 Q113.0313,280.4463 113.2969,280.2119 Q113.5625,279.9775 114.1719,279.9775 L116.4531,279.9775 Q117.0625,279.9775 117.3281,280.2119 Q117.5938,280.4463 117.5938,280.8213 Q117.5938,281.29 117.1875,281.5557 Q117,281.6807 116.4063,281.6807 L112.9219,290.04 L111.2813,290.04 L107.7969,281.6807 Q107.2031,281.6807 107.0156,281.5557 Q106.6094,281.29 106.6094,280.8213 Q106.6094,280.4463 106.875,280.2119 Q107.1406,279.9775 107.75,279.9775 L110.0469,279.9775 Q110.6563,279.9775 110.9063,280.2119 Q111.1719,280.4463 111.1719,280.8213 Q111.1719,281.2119 110.9063,281.4463 Q110.6563,281.6807 110.0469,281.6807 L109.6406,281.6807 L112.0938,287.5557 Z " fill="#000000"/><text fill="#000000" font-family="sans-serif" font-size="12" font-style="italic" lengthAdjust="spacing" textLength="81" x="141.5" y="280.3955">«value object»</text><text fill="#000000" font-family="sans-serif" font-size="14" lengthAdjust="spacing" textLength="113" x="125.5" y="297.5654">PassagewayCode</text><line style="stroke:#181818;stroke-width:0.5;" x1="97.5" x2="240.5" y1="305.6416" y2="305.6416"/></g><!--MD5=[a797a67b4a83f909acd6fcf0c59cbc5a]
class CellOrientation--><g id="elem_CellOrientation"><rect codeLine="23" fill="#F1F1F1" height="50.7031" id="CellOrientation" rx="2.5" ry="2.5" style="stroke:#181818;stroke-width:0.5;" width="126" x="277" y="262.9385"/><ellipse cx="292" cy="284.29" fill="#FF8B40" rx="11" ry="11" style="stroke:#181818;stroke-width:1.0;"/><path d="M292.5938,287.5557 L295.0625,281.6807 L294.6719,281.6807 Q294.0625,281.6807 293.7969,281.4463 Q293.5313,281.2119 293.5313,280.8213 Q293.5313,280.4463 293.7969,280.2119 Q294.0625,279.9775 294.6719,279.9775 L296.9531,279.9775 Q297.5625,279.9775 297.8281,280.2119 Q298.0938,280.4463 298.0938,280.8213 Q298.0938,281.29 297.6875,281.5557 Q297.5,281.6807 296.9063,281.6807 L293.4219,290.04 L291.7813,290.04 L288.2969,281.6807 Q287.7031,281.6807 287.5156,281.5557 Q287.1094,281.29 287.1094,280.8213 Q287.1094,280.4463 287.375,280.2119 Q287.6406,279.9775 288.25,279.9775 L290.5469,279.9775 Q291.1563,279.9775 291.4063,280.2119 Q291.6719,280.4463 291.6719,280.8213 Q291.6719,281.2119 291.4063,281.4463 Q291.1563,281.6807 290.5469,281.6807 L290.1406,281.6807 L292.5938,287.5557 Z " fill="#000000"/><text fill="#000000" font-family="sans-serif" font-size="12" font-style="italic" lengthAdjust="spacing" textLength="46" x="330" y="280.3955">«enum»</text><text fill="#000000" font-family="sans-serif" font-size="14" lengthAdjust="spacing" textLength="94" x="306" y="297.5654">CellOrientation</text><line style="stroke:#181818;stroke-width:0.5;" x1="278" x2="402" y1="305.6416" y2="305.6416"/></g><!--MD5=[d218c48b946d362ff1ecd879cabebcad]
class Room--><g id="elem_Room"><rect codeLine="25" fill="#F1F1F1" height="50.7031" id="Room" rx="2.5" ry="2.5" style="stroke:#181818;stroke-width:0.5;" width="71" x="476.5" y="400.4385"/><ellipse cx="491.5" cy="421.79" fill="#ADD1B2" rx="11" ry="11" style="stroke:#181818;stroke-width:1.0;"/><path d="M490.3594,422.5869 L490.3594,425.0869 L494.6875,425.0869 L494.6875,424.165 Q494.6875,423.5557 494.9219,423.29 Q495.1719,423.0244 495.5469,423.0244 Q495.9219,423.0244 496.1563,423.29 Q496.3906,423.5557 496.3906,424.165 L496.3906,426.79 L488.3906,426.79 Q487.7656,426.79 487.5,426.5557 Q487.25,426.3213 487.25,425.9307 Q487.25,425.5557 487.5156,425.3213 Q487.7813,425.0869 488.3906,425.0869 L488.6563,425.0869 L488.6563,418.4307 L488.3906,418.4307 Q487.7656,418.4307 487.5,418.1963 Q487.25,417.9619 487.25,417.5713 Q487.25,417.1963 487.5,416.9619 Q487.7656,416.7275 488.3906,416.7275 L496.0156,416.7275 L496.0156,419.3213 Q496.0156,419.9307 495.7813,420.1963 Q495.5625,420.4463 495.1719,420.4463 Q494.7969,420.4463 494.5625,420.1963 Q494.3281,419.9307 494.3281,419.3213 L494.3281,418.4307 L490.3594,418.4307 L490.3594,420.8838 L491.8438,420.8838 Q491.8438,420.2275 491.9688,420.04 Q492.2344,419.6338 492.7031,419.6338 Q493.0781,419.6338 493.3125,419.8994 Q493.5469,420.1494 493.5469,420.7588 L493.5469,422.7275 Q493.5469,423.2744 493.4219,423.4619 Q493.1563,423.8525 492.7031,423.8525 Q492.2344,423.8525 491.9688,423.4463 Q491.8438,423.2588 491.8438,422.5869 L490.3594,422.5869 Z " fill="#000000"/><text fill="#000000" font-family="sans-serif" font-size="12" font-style="italic" lengthAdjust="spacing" textLength="43" x="503.5" y="417.8955">«entity»</text><text fill="#000000" font-family="sans-serif" font-size="14" lengthAdjust="spacing" textLength="37" x="506.5" y="435.0654">Room</text><line style="stroke:#181818;stroke-width:0.5;" x1="477.5" x2="546.5" y1="443.1416" y2="443.1416"/></g><!--MD5=[b4bfad73b08c8f15addfbfdeea39636e]
class RoomName--><g id="elem_RoomName"><rect codeLine="26" fill="#F1F1F1" height="50.7031" id="RoomName" rx="2.5" ry="2.5" style="stroke:#181818;stroke-width:0.5;" width="109" x="618.5" y="529.4385"/><ellipse cx="633.5" cy="550.79" fill="#FF8B40" rx="11" ry="11" style="stroke:#181818;stroke-width:1.0;"/><path d="M634.0938,554.0557 L636.5625,548.1807 L636.1719,548.1807 Q635.5625,548.1807 635.2969,547.9463 Q635.0313,547.7119 635.0313,547.3213 Q635.0313,546.9463 635.2969,546.7119 Q635.5625,546.4775 636.1719,546.4775 L638.4531,546.4775 Q639.0625,546.4775 639.3281,546.7119 Q639.5938,546.9463 639.5938,547.3213 Q639.5938,547.79 639.1875,548.0557 Q639,548.1807 638.4063,548.1807 L634.9219,556.54 L633.2813,556.54 L629.7969,548.1807 Q629.2031,548.1807 629.0156,548.0557 Q628.6094,547.79 628.6094,547.3213 Q628.6094,546.9463 628.875,546.7119 Q629.1406,546.4775 629.75,546.4775 L632.0469,546.4775 Q632.6563,546.4775 632.9063,546.7119 Q633.1719,546.9463 633.1719,547.3213 Q633.1719,547.7119 632.9063,547.9463 Q632.6563,548.1807 632.0469,548.1807 L631.6406,548.1807 L634.0938,554.0557 Z " fill="#000000"/><text fill="#000000" font-family="sans-serif" font-size="12" font-style="italic" lengthAdjust="spacing" textLength="81" x="645.5" y="546.8955">«value object»</text><text fill="#000000" font-family="sans-serif" font-size="14" lengthAdjust="spacing" textLength="73" x="649.5" y="564.0654">RoomName</text><line style="stroke:#181818;stroke-width:0.5;" x1="619.5" x2="726.5" y1="572.1416" y2="572.1416"/></g><!--MD5=[72324d1de0cb25dd7de7d040294b58b2]
class CellPosition--><g id="elem_CellPosition"><rect codeLine="28" fill="#F1F1F1" height="50.7031" id="CellPosition" rx="2.5" ry="2.5" style="stroke:#181818;stroke-width:0.5;" width="109" x="246.5" y="529.4385"/><ellipse cx="261.5" cy="550.79" fill="#FF8B40" rx="11" ry="11" style="stroke:#181818;stroke-width:1.0;"/><path d="M262.0938,554.0557 L264.5625,548.1807 L264.1719,548.1807 Q263.5625,548.1807 263.2969,547.9463 Q263.0313,547.7119 263.0313,547.3213 Q263.0313,546.9463 263.2969,546.7119 Q263.5625,546.4775 264.1719,546.4775 L266.4531,546.4775 Q267.0625,546.4775 267.3281,546.7119 Q267.5938,546.9463 267.5938,547.3213 Q267.5938,547.79 267.1875,548.0557 Q267,548.1807 266.4063,548.1807 L262.9219,556.54 L261.2813,556.54 L257.7969,548.1807 Q257.2031,548.1807 257.0156,548.0557 Q256.6094,547.79 256.6094,547.3213 Q256.6094,546.9463 256.875,546.7119 Q257.1406,546.4775 257.75,546.4775 L260.0469,546.4775 Q260.6563,546.4775 260.9063,546.7119 Q261.1719,546.9463 261.1719,547.3213 Q261.1719,547.7119 260.9063,547.9463 Q260.6563,548.1807 260.0469,548.1807 L259.6406,548.1807 L262.0938,554.0557 Z " fill="#000000"/><text fill="#000000" font-family="sans-serif" font-size="12" font-style="italic" lengthAdjust="spacing" textLength="81" x="273.5" y="546.8955">«value object»</text><text fill="#000000" font-family="sans-serif" font-size="14" lengthAdjust="spacing" textLength="74" x="277" y="564.0654">CellPosition</text><line style="stroke:#181818;stroke-width:0.5;" x1="247.5" x2="354.5" y1="572.1416" y2="572.1416"/></g><!--MD5=[727797ff5554768dd76684d70c1ef924]
link Building to Code--><g id="link_Building_Code"><path codeLine="31" d="M657.19,176.6285 C660.13,186.1285 663.03,196.6185 665,206.4385 C668.37,223.2385 670.34,242.3085 671.49,257.7185 " fill="none" id="Building-to-Code" style="stroke:#181818;stroke-width:1.0;"/><polygon fill="#181818" points="671.84,262.7885,675.1867,253.5257,671.4827,257.8013,667.2072,254.0973,671.84,262.7885" style="stroke:#181818;stroke-width:1.0;"/></g><!--MD5=[7f24c458619c92f5ac8314a0a4a9fc47]
link Floor to CellInfo--><g id="link_Floor_CellInfo"><path codeLine="33" d="M569.77,322.5885 C584.53,345.0585 603.86,374.4885 618,396.0085 " fill="none" id="Floor-to-CellInfo" style="stroke:#181818;stroke-width:1.0;"/><polygon fill="#181818" points="620.76,400.2085,619.1576,390.4909,618.013,396.0307,612.4731,394.8861,620.76,400.2085" style="stroke:#181818;stroke-width:1.0;"/><text fill="#000000" font-family="sans-serif" font-size="13" lengthAdjust="spacing" textLength="25" x="601" y="366.9336">map</text><text fill="#000000" font-family="sans-serif" font-size="13" lengthAdjust="spacing" textLength="5" x="611.1921" y="389.5609">*</text></g><!--MD5=[aab667148c96bf2615dd2533617eaefb]
link Room to RoomName--><g id="link_Room_RoomName"><path codeLine="35" d="M547.74,444.8885 C553.42,447.3185 559.31,449.6085 565,451.4385 C632.63,473.1685 676.73,426.6985 722,481.4385 C733.42,495.2385 723.92,511.7085 710.35,525.4585 " fill="none" id="Room-to-RoomName" style="stroke:#181818;stroke-width:1.0;"/><polygon fill="#181818" points="706.43,529.2685,715.6784,525.8823,710.0223,525.7907,710.1139,520.1345,706.43,529.2685" style="stroke:#181818;stroke-width:1.0;"/></g><!--MD5=[57185c171e91477c2d97d6600218a0c5]
link Room to CellPosition--><g id="link_Room_CellPosition"><path codeLine="36" d="M524.77,451.4785 C530.77,466.7585 534.56,485.9885 524,499.4385 C504.05,524.8485 419.95,539.9285 360.94,547.5785 " fill="none" id="Room-to-CellPosition" style="stroke:#181818;stroke-width:1.0;"/><polygon fill="#181818" points="355.67,548.2485,365.1017,551.0846,360.6303,547.6195,364.0953,543.1481,355.67,548.2485" style="stroke:#181818;stroke-width:1.0;"/><text fill="#000000" font-family="sans-serif" font-size="13" lengthAdjust="spacing" textLength="57" x="531" y="495.9336">yStartCell</text></g><!--MD5=[57185c171e91477c2d97d6600218a0c5]
link Room to CellPosition--><g id="link_Room_CellPosition"><path codeLine="37" d="M547.68,445.2485 C568.34,456.6885 591.37,471.1285 597,481.4385 C600.84,488.4585 602.12,493.2885 597,499.4385 C567.55,534.7985 438.51,547.2985 360.86,551.6585 " fill="none" id="Room-to-CellPosition-1" style="stroke:#181818;stroke-width:1.0;"/><polygon fill="#181818" points="355.82,551.9385,365.0341,555.417,360.8118,551.6524,364.5764,547.4301,355.82,551.9385" style="stroke:#181818;stroke-width:1.0;"/><text fill="#000000" font-family="sans-serif" font-size="13" lengthAdjust="spacing" textLength="57" x="601" y="495.9336">xStartCell</text></g><!--MD5=[57185c171e91477c2d97d6600218a0c5]
link Room to CellPosition--><g id="link_Room_CellPosition"><path codeLine="38" d="M476.14,433.5985 C418.12,444.7285 309,467.2885 298,481.4385 C288.77,493.3085 288.8,509.8685 291.46,524.1685 " fill="none" id="Room-to-CellPosition-2" style="stroke:#181818;stroke-width:1.0;"/><polygon fill="#181818" points="292.55,529.3185,294.5889,519.683,291.5092,524.428,286.7641,521.3483,292.55,529.3185" style="stroke:#181818;stroke-width:1.0;"/><text fill="#000000" font-family="sans-serif" font-size="13" lengthAdjust="spacing" textLength="52" x="299" y="495.9336">yEndCell</text></g><!--MD5=[57185c171e91477c2d97d6600218a0c5]
link Room to CellPosition--><g id="link_Room_CellPosition"><path codeLine="39" d="M476.45,440.3785 C451.93,450.2885 419.02,464.8885 392,481.4385 C371.04,494.2785 349.44,511.2885 332.55,525.6085 " fill="none" id="Room-to-CellPosition-3" style="stroke:#181818;stroke-width:1.0;"/><polygon fill="#181818" points="328.36,529.1885,337.8026,526.3889,332.1633,525.9428,332.6094,520.3035,328.36,529.1885" style="stroke:#181818;stroke-width:1.0;"/><text fill="#000000" font-family="sans-serif" font-size="13" lengthAdjust="spacing" textLength="52" x="393" y="495.9336">xEndCell</text></g><!--MD5=[57185c171e91477c2d97d6600218a0c5]
link Room to CellPosition--><g id="link_Room_CellPosition"><path codeLine="40" d="M495.85,451.6685 C484.6,467.2185 468.36,486.6885 450,499.4385 C423.16,518.0785 389.2,531.1485 360.48,539.7985 " fill="none" id="Room-to-CellPosition-4" style="stroke:#181818;stroke-width:1.0;"/><polygon fill="#181818" points="355.55,541.2585,365.3146,542.5438,360.345,539.8414,363.0474,534.8718,355.55,541.2585" style="stroke:#181818;stroke-width:1.0;"/><text fill="#000000" font-family="sans-serif" font-size="13" lengthAdjust="spacing" textLength="32" x="470" y="495.9336">doors</text></g><!--MD5=[225937d50a05de1923bb8af062e58a52]
link Elevator to CellOrientation--><g id="link_Elevator_CellOrientation"><path codeLine="42" d="M437.72,169.0185 C417.2,193.8785 385.5,232.2985 363.81,258.5885 " fill="none" id="Elevator-to-CellOrientation" style="stroke:#181818;stroke-width:1.0;"/><polygon fill="#181818" points="360.42,262.6985,369.2354,258.3065,363.604,258.8434,363.0672,253.212,360.42,262.6985" style="stroke:#181818;stroke-width:1.0;"/></g><!--MD5=[95cc3cd612ae049eeb4fed4a19149555]
link Elevator to CellPosition--><g id="link_Elevator_CellPosition"><path codeLine="43" d="M460.29,168.9985 C462.4,207.0085 460.53,280.1085 421,322.4385 C387.29,358.5385 351.22,319.9685 314,352.4385 C266.9,393.5285 270.71,420.2385 258,481.4385 C256.37,489.2685 255.38,491.8785 258,499.4385 C261.17,508.5685 266.57,517.3185 272.49,525.0385 " fill="none" id="Elevator-to-CellPosition" style="stroke:#181818;stroke-width:1.0;"/><polygon fill="#181818" points="275.82,529.2185,273.3297,519.6896,272.7,525.3113,267.0783,524.6816,275.82,529.2185" style="stroke:#181818;stroke-width:1.0;"/><text fill="#000000" font-family="sans-serif" font-size="13" lengthAdjust="spacing" textLength="57" x="315" y="366.9336">xStartCell</text></g><!--MD5=[95cc3cd612ae049eeb4fed4a19149555]
link Elevator to CellPosition--><g id="link_Elevator_CellPosition"><path codeLine="44" d="M462.9,169.0685 C464.92,180.3985 467.01,194.0485 468,206.4385 C472.19,258.7485 471.66,276.6585 446,322.4385 C396.36,410.9985 321.58,387.9485 282,481.4385 C276.22,495.0985 279.35,510.9685 284.61,524.3785 " fill="none" id="Elevator-to-CellPosition-1" style="stroke:#181818;stroke-width:1.0;"/><polygon fill="#181818" points="286.63,529.1885,286.85,519.3421,284.7019,524.5752,279.4687,522.4271,286.63,529.1885" style="stroke:#181818;stroke-width:1.0;"/><text fill="#000000" font-family="sans-serif" font-size="13" lengthAdjust="spacing" textLength="57" x="425" y="366.9336">yStartCell</text></g><!--MD5=[067c25a3ef65834efeec140739d3a127]
link Passageway to PassagewayCode--><g id="link_Passageway_PassagewayCode"><path codeLine="46" d="M169,169.0185 C169,193.5785 169,231.3485 169,257.6085 " fill="none" id="Passageway-to-PassagewayCode" style="stroke:#181818;stroke-width:1.0;"/><polygon fill="#181818" points="169,262.6985,173,253.6985,169,257.6985,165,253.6985,169,262.6985" style="stroke:#181818;stroke-width:1.0;"/></g><!--MD5=[5686aa3dc9cfd20c81058c42254c1131]
link Passageway to CellOrientation--><g id="link_Passageway_CellOrientation"><path codeLine="47" d="M198.06,169.0085 C216.84,184.8585 241.83,205.9085 264,224.4385 C277.71,235.8885 292.85,248.4585 305.99,259.3385 " fill="none" id="Passageway-to-CellOrientation" style="stroke:#181818;stroke-width:1.0;"/><polygon fill="#181818" points="310,262.6585,305.608,253.8431,306.1449,259.4744,300.5136,260.0113,310,262.6585" style="stroke:#181818;stroke-width:1.0;"/></g><!--MD5=[f6564e3443aef7f2387c33ea2e12203e]
link Passageway to CellPosition--><g id="link_Passageway_CellPosition"><path codeLine="48" d="M140.14,169.1185 C118.68,189.4985 91.11,220.5085 79,254.4385 C68.84,282.8985 65.82,295.2385 79,322.4385 C88.38,341.7985 101.45,337.5585 117,352.4385 C179.39,412.1285 184.51,436.8685 244,499.4385 C252.34,508.2085 261.71,517.4185 270.41,525.7185 " fill="none" id="Passageway-to-CellPosition" style="stroke:#181818;stroke-width:1.0;"/><polygon fill="#181818" points="274.1,529.2185,270.3611,520.1069,270.4868,525.7624,264.8313,525.888,274.1,529.2185" style="stroke:#181818;stroke-width:1.0;"/><text fill="#000000" font-family="sans-serif" font-size="13" lengthAdjust="spacing" textLength="57" x="135" y="366.9336">xStartCell</text></g><!--MD5=[f6564e3443aef7f2387c33ea2e12203e]
link Passageway to CellPosition--><g id="link_Passageway_CellPosition"><path codeLine="49" d="M128.23,169.1785 C113.64,179.4185 97.88,192.2285 86,206.4385 C38.13,263.6885 17.24,303.3885 50,370.4385 C88.75,449.7285 180.38,502.5885 241.54,530.4285 " fill="none" id="Passageway-to-CellPosition-1" style="stroke:#181818;stroke-width:1.0;"/><polygon fill="#181818" points="246.25,532.5585,239.6928,525.2098,241.6928,530.5013,236.4013,532.5013,246.25,532.5585" style="stroke:#181818;stroke-width:1.0;"/><text fill="#000000" font-family="sans-serif" font-size="13" lengthAdjust="spacing" textLength="57" x="51" y="366.9336">yStartCell</text></g><!--MD5=[c5fead04db50ad272312b70da3db85d3]
link Building to Floor--><g id="link_Building_Floor"><path codeLine="51" d="M624.01,176.5285 C608.21,199.5885 586.96,230.5985 570.94,253.9585 " fill="none" id="Building-Floor" style="stroke:#181818;stroke-width:1.0;"/><polygon fill="#000000" points="604.1733,219.7385,611.7111,213.9392,606.8627,210.6161,604.1733,219.7385" style="stroke:#000000;stroke-width:1.0;"/><text fill="#000000" font-family="sans-serif" font-size="13" lengthAdjust="spacing" textLength="21" x="616" y="220.9336">has</text><text fill="#000000" font-family="sans-serif" font-size="13" lengthAdjust="spacing" textLength="7" x="612.3103" y="197.6507">1</text><text fill="#000000" font-family="sans-serif" font-size="13" lengthAdjust="spacing" textLength="5" x="569.7086" y="243.6249">*</text></g><!--MD5=[2fa8f95b740a5ed420cd7ca110429825]
link Elevator to Floor--><g id="link_Elevator_Floor"><path codeLine="53" d="M473.47,169.0185 C488.3,192.5785 510.78,228.2985 527.18,254.3485 " fill="none" id="Elevator-Floor" style="stroke:#181818;stroke-width:1.0;"/><polygon fill="#000000" points="512.6635,219.8458,510.3324,210.6253,505.358,213.7564,512.6635,219.8458" style="stroke:#000000;stroke-width:1.0;"/><text fill="#000000" font-family="sans-serif" font-size="13" lengthAdjust="spacing" textLength="37" x="519" y="220.9336">serves</text><text fill="#000000" font-family="sans-serif" font-size="13" lengthAdjust="spacing" textLength="7" x="469.0884" y="189.9301">1</text><text fill="#000000" font-family="sans-serif" font-size="13" lengthAdjust="spacing" textLength="5" x="517.5889" y="243.561">*</text></g><!--MD5=[64300517f2b2458b06da27610560bc42]
link Passageway to Floor--><g id="link_Passageway_Floor"><path codeLine="55" d="M224.52,165.3885 C303.47,195.1785 445.95,248.9385 512.26,273.9485 " fill="none" id="Passageway-Floor" style="stroke:#181818;stroke-width:1.0;"/><polygon fill="#000000" points="378.6781,217.3792,371.2528,211.4366,369.1779,216.9361,378.6781,217.3792" style="stroke:#000000;stroke-width:1.0;"/><text fill="#000000" font-family="sans-serif" font-size="13" lengthAdjust="spacing" textLength="43" x="383" y="220.9336">through</text><text fill="#000000" font-family="sans-serif" font-size="13" lengthAdjust="spacing" textLength="7" x="232.4508" y="164.8017">1</text><text fill="#000000" font-family="sans-serif" font-size="13" lengthAdjust="spacing" textLength="5" x="499.373" y="266.8091">*</text></g><!--MD5=[795e9da6541f49f26a461713defed014]
link Floor to Room--><g id="link_Floor_Room"><path codeLine="57" d="M539.19,322.5885 C532.82,346.5585 524.35,378.4385 518.57,400.2085 " fill="none" id="Floor-Room" style="stroke:#181818;stroke-width:1.0;"/><polygon fill="#000000" points="534.7163,366.4466,539.879,358.4593,534.1982,356.9502,534.7163,366.4466" style="stroke:#000000;stroke-width:1.0;"/><text fill="#000000" font-family="sans-serif" font-size="13" lengthAdjust="spacing" textLength="21" x="545" y="366.9336">has</text><text fill="#000000" font-family="sans-serif" font-size="13" lengthAdjust="spacing" textLength="7" x="529.8434" y="344.1222">1</text><text fill="#000000" font-family="sans-serif" font-size="13" lengthAdjust="spacing" textLength="5" x="514.5621" y="389.5609">*</text></g><!--MD5=[adc48a7ed3ae377f40b7cdf52eecea15]
@startuml

skinparam titleFontSize 25
title <u>US 230 - Domain classes</u>

hide methods
skinparam classAttributeIconSize 0

'Building aggregate
package "<<aggregate>> Building" {
    entity Building <<entity>> <<root>>
    class Code <<(V, #FF8B40) value object>>

    entity Floor <<entity>> {
        number
    }
    class CellInfo <<(V, #FF8B40) value object>>

    entity Elevator <<entity>>

    entity Passageway <<entity>>
    class PassagewayCode <<(V, #FF8B40) value object>>

    class CellOrientation <<(V, #FF8B40) enum>>

    entity Room <<entity>>
    class RoomName <<(V, #FF8B40) value object>>

    class CellPosition <<(V, #FF8B40) value object>>
}

Building - -> Code

Floor - -> "*" CellInfo : map

Room - -> RoomName
Room - -> CellPosition : yStartCell
Room - -> CellPosition : xStartCell
Room - -> CellPosition : yEndCell
Room - -> CellPosition : xEndCell
Room - -> CellPosition : doors

Elevator - -> CellOrientation
Elevator - -> CellPosition : xStartCell
Elevator - -> CellPosition : yStartCell

Passageway - -> PassagewayCode
Passageway - -> CellOrientation
Passageway - -> CellPosition : xStartCell
Passageway - -> CellPosition : yStartCell

Building "1" - - "*" Floor : has >

Elevator "1" - - "*" Floor : serves >

Passageway "1" - - "*" Floor : through >

Floor "1" - - "*" Room : has >

@enduml

@startuml

skinparam titleFontSize 25
title <u>US 230 - Domain classes</u>

hide methods
skinparam classAttributeIconSize 0

package "<<aggregate>> Building" {
    entity Building <<entity>> <<root>>
    class Code <<(V, #FF8B40) value object>>

    entity Floor <<entity>> {
        number
    }
    class CellInfo <<(V, #FF8B40) value object>>

    entity Elevator <<entity>>

    entity Passageway <<entity>>
    class PassagewayCode <<(V, #FF8B40) value object>>

    class CellOrientation <<(V, #FF8B40) enum>>

    entity Room <<entity>>
    class RoomName <<(V, #FF8B40) value object>>

    class CellPosition <<(V, #FF8B40) value object>>
}

Building - -> Code

Floor - -> "*" CellInfo : map

Room - -> RoomName
Room - -> CellPosition : yStartCell
Room - -> CellPosition : xStartCell
Room - -> CellPosition : yEndCell
Room - -> CellPosition : xEndCell
Room - -> CellPosition : doors

Elevator - -> CellOrientation
Elevator - -> CellPosition : xStartCell
Elevator - -> CellPosition : yStartCell

Passageway - -> PassagewayCode
Passageway - -> CellOrientation
Passageway - -> CellPosition : xStartCell
Passageway - -> CellPosition : yStartCell

Building "1" - - "*" Floor : has >

Elevator "1" - - "*" Floor : serves >

Passageway "1" - - "*" Floor : through >

Floor "1" - - "*" Room : has >

@enduml

PlantUML version 1.2022.7(Mon Aug 22 18:01:30 WEST 2022)
(GPL source distribution)
Java Runtime: Java(TM) SE Runtime Environment
JVM: Java HotSpot(TM) 64-Bit Server VM
Default Encoding: Cp1252
Language: pt
Country: PT
--></g></svg>