<?xml version="1.0" encoding="UTF-8" standalone="no"?><svg xmlns="http://www.w3.org/2000/svg" xmlns:xlink="http://www.w3.org/1999/xlink" contentStyleType="text/css" height="1522px" preserveAspectRatio="none" style="width:1660px;height:1522px;background:#FFFFFF;" version="1.1" viewBox="0 0 1660 1522" width="1660px" zoomAndPan="magnify"><defs/><g><rect fill="none" height="27.6094" id="_title" style="stroke:none;stroke-width:1.0;" width="511" x="573.75" y="10"/><text fill="#000000" font-family="sans-serif" font-size="14" font-weight="bold" lengthAdjust="spacing" textLength="501" x="578.75" y="29.5332">Sequence Diagram (Level 3 - Process View) - US 460 - Surveillance Task</text><rect fill="#FFFFFF" height="1290.9609" style="stroke:#181818;stroke-width:1.0;" width="10" x="17.5" y="131.2188"/><rect fill="#FFFFFF" height="480.7891" style="stroke:#181818;stroke-width:1.0;" width="10" x="373.5" y="153.5703"/><rect fill="#FFFFFF" height="272.6797" style="stroke:#181818;stroke-width:1.0;" width="10" x="373.5" y="664.7109"/><rect fill="#FFFFFF" height="90.7031" style="stroke:#181818;stroke-width:1.0;" width="10" x="373.5" y="967.7422"/><rect fill="#FFFFFF" height="30.3516" style="stroke:#181818;stroke-width:1.0;" width="10" x="373.5" y="1088.7969"/><rect fill="#FFFFFF" height="272.6797" style="stroke:#181818;stroke-width:1.0;" width="10" x="373.5" y="1149.5"/><rect fill="#FFFFFF" height="420.0859" style="stroke:#181818;stroke-width:1.0;" width="10" x="629.5" y="183.9219"/><rect fill="#FFFFFF" height="216.9766" style="stroke:#181818;stroke-width:1.0;" width="10" x="634.5" y="222.2734"/><rect fill="#FFFFFF" height="126.4063" style="stroke:#181818;stroke-width:1.0;" width="10" x="634.5" y="477.6016"/><rect fill="#FFFFFF" height="211.9766" style="stroke:#181818;stroke-width:1.0;" width="10" x="629.5" y="695.0625"/><rect fill="#FFFFFF" height="30" style="stroke:#181818;stroke-width:1.0;" width="10" x="629.5" y="998.0938"/><rect fill="#FFFFFF" height="211.9766" style="stroke:#181818;stroke-width:1.0;" width="10" x="629.5" y="1179.8516"/><rect fill="#FFFFFF" height="91.0547" style="stroke:#181818;stroke-width:1.0;" width="10" x="1236.5" y="317.8438"/><rect fill="#FFFFFF" height="91.0547" style="stroke:#181818;stroke-width:1.0;" width="10" x="1236.5" y="512.9531"/><rect fill="#FFFFFF" height="91.0547" style="stroke:#181818;stroke-width:1.0;" width="10" x="1236.5" y="785.6328"/><rect fill="#FFFFFF" height="91.0547" style="stroke:#181818;stroke-width:1.0;" width="10" x="1236.5" y="1270.4219"/><rect fill="#FFFFFF" height="30.3516" style="stroke:#181818;stroke-width:1.0;" width="10" x="1480.5" y="348.1953"/><rect fill="#FFFFFF" height="30.3516" style="stroke:#181818;stroke-width:1.0;" width="10" x="1480.5" y="543.3047"/><rect fill="#FFFFFF" height="30.3516" style="stroke:#181818;stroke-width:1.0;" width="10" x="1480.5" y="815.9844"/><rect fill="#FFFFFF" height="30.3516" style="stroke:#181818;stroke-width:1.0;" width="10" x="1596.5" y="1300.7734"/><line style="stroke:#181818;stroke-width:0.5;stroke-dasharray:5.0,5.0;" x1="22" x2="22" y1="121.2188" y2="1440.1797"/><line style="stroke:#181818;stroke-width:0.5;stroke-dasharray:5.0,5.0;" x1="378" x2="378" y1="121.2188" y2="1440.1797"/><line style="stroke:#181818;stroke-width:0.5;stroke-dasharray:5.0,5.0;" x1="634" x2="634" y1="121.2188" y2="1440.1797"/><line style="stroke:#181818;stroke-width:0.5;stroke-dasharray:5.0,5.0;" x1="775" x2="775" y1="275.3828" y2="1440.1797"/><line style="stroke:#181818;stroke-width:0.5;stroke-dasharray:5.0,5.0;" x1="942" x2="942" y1="1227.9609" y2="1440.1797"/><line style="stroke:#181818;stroke-width:0.5;stroke-dasharray:5.0,5.0;" x1="1117" x2="1117" y1="743.1719" y2="1440.1797"/><line style="stroke:#181818;stroke-width:0.5;stroke-dasharray:5.0,5.0;" x1="1241" x2="1241" y1="121.2188" y2="1440.1797"/><line style="stroke:#181818;stroke-width:0.5;stroke-dasharray:5.0,5.0;" x1="1485.5" x2="1485.5" y1="121.2188" y2="1440.1797"/><line style="stroke:#181818;stroke-width:0.5;stroke-dasharray:5.0,5.0;" x1="1601.5" x2="1601.5" y1="121.2188" y2="1440.1797"/><text fill="#000000" font-family="sans-serif" font-size="14" lengthAdjust="spacing" textLength="29" x="5" y="118.1426">User</text><ellipse cx="22.5" cy="52.1094" fill="#E3E3E3" rx="8" ry="8" style="stroke:#181818;stroke-width:0.5;"/><path d="M22.5,60.1094 L22.5,87.1094 M9.5,68.1094 L35.5,68.1094 M22.5,87.1094 L9.5,102.1094 M22.5,87.1094 L35.5,102.1094 " fill="none" style="stroke:#181818;stroke-width:0.5;"/><text fill="#000000" font-family="sans-serif" font-size="14" lengthAdjust="spacing" textLength="29" x="5" y="1453.7129">User</text><ellipse cx="22.5" cy="1465.2891" fill="#E3E3E3" rx="8" ry="8" style="stroke:#181818;stroke-width:0.5;"/><path d="M22.5,1473.2891 L22.5,1500.2891 M9.5,1481.2891 L35.5,1481.2891 M22.5,1500.2891 L9.5,1515.2891 M22.5,1500.2891 L35.5,1515.2891 " fill="none" style="stroke:#181818;stroke-width:0.5;"/><rect fill="#E3E3E3" height="49.2188" rx="2.5" ry="2.5" style="stroke:#181818;stroke-width:0.5;" width="103" x="327" y="71"/><text fill="#000000" font-family="sans-serif" font-size="14" font-style="italic" lengthAdjust="spacing" textLength="89" x="334" y="92.5332">«Component»</text><text fill="#000000" font-family="sans-serif" font-size="14" lengthAdjust="spacing" textLength="29" x="364" y="110.1426">View</text><rect fill="#E3E3E3" height="49.2188" rx="2.5" ry="2.5" style="stroke:#181818;stroke-width:0.5;" width="103" x="327" y="1439.1797"/><text fill="#000000" font-family="sans-serif" font-size="14" font-style="italic" lengthAdjust="spacing" textLength="89" x="334" y="1460.7129">«Component»</text><text fill="#000000" font-family="sans-serif" font-size="14" lengthAdjust="spacing" textLength="29" x="364" y="1478.3223">View</text><rect fill="#E3E3E3" height="49.2188" rx="2.5" ry="2.5" style="stroke:#181818;stroke-width:0.5;" width="103" x="583" y="71"/><text fill="#000000" font-family="sans-serif" font-size="14" font-style="italic" lengthAdjust="spacing" textLength="89" x="590" y="92.5332">«Component»</text><text fill="#000000" font-family="sans-serif" font-size="14" lengthAdjust="spacing" textLength="73" x="598" y="110.1426">Component</text><rect fill="#E3E3E3" height="49.2188" rx="2.5" ry="2.5" style="stroke:#181818;stroke-width:0.5;" width="103" x="583" y="1439.1797"/><text fill="#000000" font-family="sans-serif" font-size="14" font-style="italic" lengthAdjust="spacing" textLength="89" x="590" y="1460.7129">«Component»</text><text fill="#000000" font-family="sans-serif" font-size="14" lengthAdjust="spacing" textLength="73" x="598" y="1478.3223">Component</text><rect fill="#E3E3E3" height="49.2188" rx="2.5" ry="2.5" style="stroke:#181818;stroke-width:0.5;" width="109" x="721" y="1439.1797"/><text fill="#000000" font-family="sans-serif" font-size="14" lengthAdjust="spacing" textLength="95" x="728" y="1460.7129">buildingModel :</text><text fill="#000000" font-family="sans-serif" font-size="14" lengthAdjust="spacing" textLength="91" x="732" y="1478.3223">building.model</text><rect fill="#E3E3E3" height="49.2188" rx="2.5" ry="2.5" style="stroke:#181818;stroke-width:0.5;" width="204" x="840" y="1439.1797"/><text fill="#000000" font-family="sans-serif" font-size="14" lengthAdjust="spacing" textLength="114" x="885" y="1460.7129">surveillanceTask :</text><text fill="#000000" font-family="sans-serif" font-size="14" lengthAdjust="spacing" textLength="186" x="851" y="1478.3223">surveillanceTaskModel.model</text><rect fill="#E3E3E3" height="49.2188" rx="2.5" ry="2.5" style="stroke:#181818;stroke-width:0.5;" width="126" x="1054" y="1439.1797"/><text fill="#000000" font-family="sans-serif" font-size="14" lengthAdjust="spacing" textLength="96" x="1069" y="1460.7129">floorModelList :</text><text fill="#000000" font-family="sans-serif" font-size="14" lengthAdjust="spacing" textLength="108" x="1065" y="1478.3223">floorModel.model</text><rect fill="#E3E3E3" height="49.2188" rx="2.5" ry="2.5" style="stroke:#181818;stroke-width:0.5;" width="103" x="1190" y="71"/><text fill="#000000" font-family="sans-serif" font-size="14" font-style="italic" lengthAdjust="spacing" textLength="89" x="1197" y="92.5332">«Component»</text><text fill="#000000" font-family="sans-serif" font-size="14" lengthAdjust="spacing" textLength="47" x="1218" y="110.1426">Service</text><rect fill="#E3E3E3" height="49.2188" rx="2.5" ry="2.5" style="stroke:#181818;stroke-width:0.5;" width="103" x="1190" y="1439.1797"/><text fill="#000000" font-family="sans-serif" font-size="14" font-style="italic" lengthAdjust="spacing" textLength="89" x="1197" y="1460.7129">«Component»</text><text fill="#000000" font-family="sans-serif" font-size="14" lengthAdjust="spacing" textLength="47" x="1218" y="1478.3223">Service</text><rect fill="#E3E3E3" height="49.2188" rx="2.5" ry="2.5" style="stroke:#181818;stroke-width:0.5;" width="106" x="1432.5" y="71"/><text fill="#000000" font-family="sans-serif" font-size="14" font-style="italic" lengthAdjust="spacing" textLength="92" x="1439.5" y="92.5332">«system (C4)»</text><text fill="#000000" font-family="sans-serif" font-size="14" lengthAdjust="spacing" textLength="21" x="1475" y="110.1426">MD</text><rect fill="#E3E3E3" height="49.2188" rx="2.5" ry="2.5" style="stroke:#181818;stroke-width:0.5;" width="106" x="1432.5" y="1439.1797"/><text fill="#000000" font-family="sans-serif" font-size="14" font-style="italic" lengthAdjust="spacing" textLength="92" x="1439.5" y="1460.7129">«system (C4)»</text><text fill="#000000" font-family="sans-serif" font-size="14" lengthAdjust="spacing" textLength="21" x="1475" y="1478.3223">MD</text><rect fill="#E3E3E3" height="49.2188" rx="2.5" ry="2.5" style="stroke:#181818;stroke-width:0.5;" width="106" x="1548.5" y="71"/><text fill="#000000" font-family="sans-serif" font-size="14" font-style="italic" lengthAdjust="spacing" textLength="92" x="1555.5" y="92.5332">«system (C4)»</text><text fill="#000000" font-family="sans-serif" font-size="14" lengthAdjust="spacing" textLength="30" x="1586.5" y="110.1426">MDT</text><rect fill="#E3E3E3" height="49.2188" rx="2.5" ry="2.5" style="stroke:#181818;stroke-width:0.5;" width="106" x="1548.5" y="1439.1797"/><text fill="#000000" font-family="sans-serif" font-size="14" font-style="italic" lengthAdjust="spacing" textLength="92" x="1555.5" y="1460.7129">«system (C4)»</text><text fill="#000000" font-family="sans-serif" font-size="14" lengthAdjust="spacing" textLength="30" x="1586.5" y="1478.3223">MDT</text><rect fill="#FFFFFF" height="1290.9609" style="stroke:#181818;stroke-width:1.0;" width="10" x="17.5" y="131.2188"/><rect fill="#FFFFFF" height="480.7891" style="stroke:#181818;stroke-width:1.0;" width="10" x="373.5" y="153.5703"/><rect fill="#FFFFFF" height="272.6797" style="stroke:#181818;stroke-width:1.0;" width="10" x="373.5" y="664.7109"/><rect fill="#FFFFFF" height="90.7031" style="stroke:#181818;stroke-width:1.0;" width="10" x="373.5" y="967.7422"/><rect fill="#FFFFFF" height="30.3516" style="stroke:#181818;stroke-width:1.0;" width="10" x="373.5" y="1088.7969"/><rect fill="#FFFFFF" height="272.6797" style="stroke:#181818;stroke-width:1.0;" width="10" x="373.5" y="1149.5"/><rect fill="#FFFFFF" height="420.0859" style="stroke:#181818;stroke-width:1.0;" width="10" x="629.5" y="183.9219"/><rect fill="#FFFFFF" height="216.9766" style="stroke:#181818;stroke-width:1.0;" width="10" x="634.5" y="222.2734"/><rect fill="#FFFFFF" height="126.4063" style="stroke:#181818;stroke-width:1.0;" width="10" x="634.5" y="477.6016"/><rect fill="#FFFFFF" height="211.9766" style="stroke:#181818;stroke-width:1.0;" width="10" x="629.5" y="695.0625"/><rect fill="#FFFFFF" height="30" style="stroke:#181818;stroke-width:1.0;" width="10" x="629.5" y="998.0938"/><rect fill="#FFFFFF" height="211.9766" style="stroke:#181818;stroke-width:1.0;" width="10" x="629.5" y="1179.8516"/><rect fill="#FFFFFF" height="91.0547" style="stroke:#181818;stroke-width:1.0;" width="10" x="1236.5" y="317.8438"/><rect fill="#FFFFFF" height="91.0547" style="stroke:#181818;stroke-width:1.0;" width="10" x="1236.5" y="512.9531"/><rect fill="#FFFFFF" height="91.0547" style="stroke:#181818;stroke-width:1.0;" width="10" x="1236.5" y="785.6328"/><rect fill="#FFFFFF" height="91.0547" style="stroke:#181818;stroke-width:1.0;" width="10" x="1236.5" y="1270.4219"/><rect fill="#FFFFFF" height="30.3516" style="stroke:#181818;stroke-width:1.0;" width="10" x="1480.5" y="348.1953"/><rect fill="#FFFFFF" height="30.3516" style="stroke:#181818;stroke-width:1.0;" width="10" x="1480.5" y="543.3047"/><rect fill="#FFFFFF" height="30.3516" style="stroke:#181818;stroke-width:1.0;" width="10" x="1480.5" y="815.9844"/><rect fill="#FFFFFF" height="30.3516" style="stroke:#181818;stroke-width:1.0;" width="10" x="1596.5" y="1300.7734"/><polygon fill="#181818" points="361.5,149.5703,371.5,153.5703,361.5,157.5703,365.5,153.5703" style="stroke:#181818;stroke-width:1.0;"/><line style="stroke:#181818;stroke-width:1.0;" x1="27.5" x2="367.5" y1="153.5703" y2="153.5703"/><text fill="#000000" font-family="sans-serif" font-size="13" font-weight="bold" lengthAdjust="spacing" textLength="7" x="34.5" y="148.7139">1</text><text fill="#000000" font-family="sans-serif" font-size="13" lengthAdjust="spacing" textLength="196" x="45.5" y="148.7139">Ask to request a surveillance task</text><polygon fill="#181818" points="617.5,179.9219,627.5,183.9219,617.5,187.9219,621.5,183.9219" style="stroke:#181818;stroke-width:1.0;"/><line style="stroke:#181818;stroke-width:1.0;" x1="383.5" x2="623.5" y1="183.9219" y2="183.9219"/><text fill="#000000" font-family="sans-serif" font-size="13" font-weight="bold" lengthAdjust="spacing" textLength="7" x="390.5" y="179.0654">2</text><text fill="#000000" font-family="sans-serif" font-size="13" lengthAdjust="spacing" textLength="56" x="401.5" y="179.0654">ngOnInit()</text><line style="stroke:#181818;stroke-width:1.0;" x1="639.5" x2="686.5" y1="209.2734" y2="209.2734"/><line style="stroke:#181818;stroke-width:1.0;" x1="686.5" x2="686.5" y1="209.2734" y2="222.2734"/><line style="stroke:#181818;stroke-width:1.0;" x1="645.5" x2="686.5" y1="222.2734" y2="222.2734"/><polygon fill="#181818" points="655.5,218.2734,645.5,222.2734,655.5,226.2734,651.5,222.2734" style="stroke:#181818;stroke-width:1.0;"/><text fill="#000000" font-family="sans-serif" font-size="13" font-weight="bold" lengthAdjust="spacing" textLength="7" x="651.5" y="204.417">3</text><text fill="#000000" font-family="sans-serif" font-size="13" lengthAdjust="spacing" textLength="85" x="662.5" y="204.417">loadBuildings()</text><polygon fill="#181818" points="709,253.625,719,257.625,709,261.625,713,257.625" style="stroke:#181818;stroke-width:1.0;"/><line style="stroke:#181818;stroke-width:1.0;stroke-dasharray:2.0,2.0;" x1="644.5" x2="715" y1="257.625" y2="257.625"/><text fill="#000000" font-family="sans-serif" font-size="13" font-weight="bold" lengthAdjust="spacing" textLength="7" x="651.5" y="252.7686">4</text><text fill="#000000" font-family="sans-serif" font-size="13" lengthAdjust="spacing" textLength="4" x="662.5" y="252.7686"> </text><rect fill="#E3E3E3" height="49.2188" rx="2.5" ry="2.5" style="stroke:#181818;stroke-width:0.5;" width="109" x="721" y="235.2734"/><text fill="#000000" font-family="sans-serif" font-size="14" lengthAdjust="spacing" textLength="95" x="728" y="256.8066">buildingModel :</text><text fill="#000000" font-family="sans-serif" font-size="14" lengthAdjust="spacing" textLength="91" x="732" y="274.416">building.model</text><polygon fill="#181818" points="1224.5,313.8438,1234.5,317.8438,1224.5,321.8438,1228.5,317.8438" style="stroke:#181818;stroke-width:1.0;"/><line style="stroke:#181818;stroke-width:1.0;" x1="644.5" x2="1230.5" y1="317.8438" y2="317.8438"/><text fill="#000000" font-family="sans-serif" font-size="13" font-weight="bold" lengthAdjust="spacing" textLength="7" x="651.5" y="312.9873">5</text><text fill="#000000" font-family="sans-serif" font-size="13" lengthAdjust="spacing" textLength="114" x="662.5" y="312.9873">getAllBuildingsInfo()</text><polygon fill="#181818" points="1468.5,344.1953,1478.5,348.1953,1468.5,352.1953,1472.5,348.1953" style="stroke:#181818;stroke-width:1.0;"/><line style="stroke:#181818;stroke-width:1.0;" x1="1246.5" x2="1474.5" y1="348.1953" y2="348.1953"/><text fill="#000000" font-family="sans-serif" font-size="13" font-weight="bold" lengthAdjust="spacing" textLength="7" x="1253.5" y="343.3389">6</text><text fill="#000000" font-family="sans-serif" font-size="13" lengthAdjust="spacing" textLength="122" x="1264.5" y="343.3389">GET (../api/buildings)</text><polygon fill="#181818" points="1257.5,374.5469,1247.5,378.5469,1257.5,382.5469,1253.5,378.5469" style="stroke:#181818;stroke-width:1.0;"/><line style="stroke:#181818;stroke-width:1.0;stroke-dasharray:2.0,2.0;" x1="1251.5" x2="1484.5" y1="378.5469" y2="378.5469"/><text fill="#000000" font-family="sans-serif" font-size="13" font-weight="bold" lengthAdjust="spacing" textLength="7" x="1263.5" y="373.6904">7</text><text fill="#000000" font-family="sans-serif" font-size="13" lengthAdjust="spacing" textLength="90" x="1274.5" y="373.6904">status: 200/404</text><polygon fill="#181818" points="655.5,404.8984,645.5,408.8984,655.5,412.8984,651.5,408.8984" style="stroke:#181818;stroke-width:1.0;"/><line style="stroke:#181818;stroke-width:1.0;stroke-dasharray:2.0,2.0;" x1="649.5" x2="1240.5" y1="408.8984" y2="408.8984"/><text fill="#000000" font-family="sans-serif" font-size="13" font-weight="bold" lengthAdjust="spacing" textLength="7" x="661.5" y="404.042">8</text><text fill="#000000" font-family="sans-serif" font-size="13" lengthAdjust="spacing" textLength="91" x="672.5" y="404.042">Success / Error</text><polygon fill="#181818" points="394.5,435.25,384.5,439.25,394.5,443.25,390.5,439.25" style="stroke:#181818;stroke-width:1.0;"/><line style="stroke:#181818;stroke-width:1.0;stroke-dasharray:2.0,2.0;" x1="388.5" x2="628.5" y1="439.25" y2="439.25"/><text fill="#000000" font-family="sans-serif" font-size="13" font-weight="bold" lengthAdjust="spacing" textLength="7" x="400.5" y="434.3936">9</text><text fill="#000000" font-family="sans-serif" font-size="13" lengthAdjust="spacing" textLength="204" x="411.5" y="434.3936">Information about the success/error</text><line style="stroke:#181818;stroke-width:1.0;" x1="639.5" x2="686.5" y1="464.6016" y2="464.6016"/><line style="stroke:#181818;stroke-width:1.0;" x1="686.5" x2="686.5" y1="464.6016" y2="477.6016"/><line style="stroke:#181818;stroke-width:1.0;" x1="645.5" x2="686.5" y1="477.6016" y2="477.6016"/><polygon fill="#181818" points="655.5,473.6016,645.5,477.6016,655.5,481.6016,651.5,477.6016" style="stroke:#181818;stroke-width:1.0;"/><text fill="#000000" font-family="sans-serif" font-size="13" font-weight="bold" lengthAdjust="spacing" textLength="14" x="651.5" y="459.7451">10</text><text fill="#000000" font-family="sans-serif" font-size="13" lengthAdjust="spacing" textLength="99" x="669.5" y="459.7451">loadDefaultData()</text><polygon fill="#181818" points="1224.5,508.9531,1234.5,512.9531,1224.5,516.9531,1228.5,512.9531" style="stroke:#181818;stroke-width:1.0;"/><line style="stroke:#181818;stroke-width:1.0;" x1="644.5" x2="1230.5" y1="512.9531" y2="512.9531"/><text fill="#000000" font-family="sans-serif" font-size="13" font-weight="bold" lengthAdjust="spacing" textLength="14" x="651.5" y="508.0967">11</text><text fill="#000000" font-family="sans-serif" font-size="13" lengthAdjust="spacing" textLength="80" x="669.5" y="508.0967">getUserData()</text><polygon fill="#181818" points="1468.5,539.3047,1478.5,543.3047,1468.5,547.3047,1472.5,543.3047" style="stroke:#181818;stroke-width:1.0;"/><line style="stroke:#181818;stroke-width:1.0;" x1="1246.5" x2="1474.5" y1="543.3047" y2="543.3047"/><text fill="#000000" font-family="sans-serif" font-size="13" font-weight="bold" lengthAdjust="spacing" textLength="14" x="1253.5" y="538.4482">12</text><text fill="#000000" font-family="sans-serif" font-size="13" lengthAdjust="spacing" textLength="89" x="1271.5" y="538.4482">GET (../api/me)</text><polygon fill="#181818" points="1257.5,569.6563,1247.5,573.6563,1257.5,577.6563,1253.5,573.6563" style="stroke:#181818;stroke-width:1.0;"/><line style="stroke:#181818;stroke-width:1.0;stroke-dasharray:2.0,2.0;" x1="1251.5" x2="1484.5" y1="573.6563" y2="573.6563"/><text fill="#000000" font-family="sans-serif" font-size="13" font-weight="bold" lengthAdjust="spacing" textLength="14" x="1263.5" y="568.7998">13</text><text fill="#000000" font-family="sans-serif" font-size="13" lengthAdjust="spacing" textLength="90" x="1281.5" y="568.7998">status: 200/404</text><polygon fill="#181818" points="645.5,600.0078,635.5,604.0078,645.5,608.0078,641.5,604.0078" style="stroke:#181818;stroke-width:1.0;"/><line style="stroke:#181818;stroke-width:1.0;stroke-dasharray:2.0,2.0;" x1="639.5" x2="1240.5" y1="604.0078" y2="604.0078"/><text fill="#000000" font-family="sans-serif" font-size="13" font-weight="bold" lengthAdjust="spacing" textLength="14" x="651.5" y="599.1514">14</text><text fill="#000000" font-family="sans-serif" font-size="13" lengthAdjust="spacing" textLength="91" x="669.5" y="599.1514">Success / Error</text><polygon fill="#181818" points="38.5,630.3594,28.5,634.3594,38.5,638.3594,34.5,634.3594" style="stroke:#181818;stroke-width:1.0;"/><line style="stroke:#181818;stroke-width:1.0;stroke-dasharray:2.0,2.0;" x1="32.5" x2="377.5" y1="634.3594" y2="634.3594"/><text fill="#000000" font-family="sans-serif" font-size="13" font-weight="bold" lengthAdjust="spacing" textLength="14" x="44.5" y="629.5029">15</text><text fill="#000000" font-family="sans-serif" font-size="13" lengthAdjust="spacing" textLength="212" x="62.5" y="629.5029">List buildings and ask to choose one</text><polygon fill="#181818" points="361.5,660.7109,371.5,664.7109,361.5,668.7109,365.5,664.7109" style="stroke:#181818;stroke-width:1.0;"/><line style="stroke:#181818;stroke-width:1.0;" x1="27.5" x2="367.5" y1="664.7109" y2="664.7109"/><text fill="#000000" font-family="sans-serif" font-size="13" font-weight="bold" lengthAdjust="spacing" textLength="14" x="34.5" y="659.8545">16</text><text fill="#000000" font-family="sans-serif" font-size="13" lengthAdjust="spacing" textLength="117" x="52.5" y="659.8545">Choose one building</text><polygon fill="#181818" points="617.5,691.0625,627.5,695.0625,617.5,699.0625,621.5,695.0625" style="stroke:#181818;stroke-width:1.0;"/><line style="stroke:#181818;stroke-width:1.0;" x1="383.5" x2="623.5" y1="695.0625" y2="695.0625"/><text fill="#000000" font-family="sans-serif" font-size="13" font-weight="bold" lengthAdjust="spacing" textLength="14" x="390.5" y="690.2061">17</text><text fill="#000000" font-family="sans-serif" font-size="13" lengthAdjust="spacing" textLength="112" x="408.5" y="690.2061">onBuildingChange()</text><polygon fill="#181818" points="1042,721.4141,1052,725.4141,1042,729.4141,1046,725.4141" style="stroke:#181818;stroke-width:1.0;"/><line style="stroke:#181818;stroke-width:1.0;stroke-dasharray:2.0,2.0;" x1="639.5" x2="1048" y1="725.4141" y2="725.4141"/><text fill="#000000" font-family="sans-serif" font-size="13" font-weight="bold" lengthAdjust="spacing" textLength="14" x="646.5" y="720.5576">18</text><text fill="#000000" font-family="sans-serif" font-size="13" lengthAdjust="spacing" textLength="4" x="664.5" y="720.5576"> </text><rect fill="#E3E3E3" height="49.2188" rx="2.5" ry="2.5" style="stroke:#181818;stroke-width:0.5;" width="126" x="1054" y="703.0625"/><text fill="#000000" font-family="sans-serif" font-size="14" lengthAdjust="spacing" textLength="96" x="1069" y="724.5957">floorModelList :</text><text fill="#000000" font-family="sans-serif" font-size="14" lengthAdjust="spacing" textLength="108" x="1065" y="742.2051">floorModel.model</text><polygon fill="#181818" points="1224.5,781.6328,1234.5,785.6328,1224.5,789.6328,1228.5,785.6328" style="stroke:#181818;stroke-width:1.0;"/><line style="stroke:#181818;stroke-width:1.0;" x1="639.5" x2="1230.5" y1="785.6328" y2="785.6328"/><text fill="#000000" font-family="sans-serif" font-size="13" font-weight="bold" lengthAdjust="spacing" textLength="14" x="646.5" y="780.7764">19</text><text fill="#000000" font-family="sans-serif" font-size="13" lengthAdjust="spacing" textLength="198" x="664.5" y="780.7764">getFloorsByBuilding(buildingCode)</text><polygon fill="#181818" points="1468.5,811.9844,1478.5,815.9844,1468.5,819.9844,1472.5,815.9844" style="stroke:#181818;stroke-width:1.0;"/><line style="stroke:#181818;stroke-width:1.0;" x1="1246.5" x2="1474.5" y1="815.9844" y2="815.9844"/><text fill="#000000" font-family="sans-serif" font-size="13" font-weight="bold" lengthAdjust="spacing" textLength="14" x="1253.5" y="811.1279">20</text><text fill="#000000" font-family="sans-serif" font-size="13" lengthAdjust="spacing" textLength="197" x="1271.5" y="811.1279">GET (.../api/buildings/:code/floors)</text><polygon fill="#181818" points="1257.5,842.3359,1247.5,846.3359,1257.5,850.3359,1253.5,846.3359" style="stroke:#181818;stroke-width:1.0;"/><line style="stroke:#181818;stroke-width:1.0;stroke-dasharray:2.0,2.0;" x1="1251.5" x2="1484.5" y1="846.3359" y2="846.3359"/><text fill="#000000" font-family="sans-serif" font-size="13" font-weight="bold" lengthAdjust="spacing" textLength="14" x="1263.5" y="841.4795">21</text><text fill="#000000" font-family="sans-serif" font-size="13" lengthAdjust="spacing" textLength="90" x="1281.5" y="841.4795">status: 200/404</text><polygon fill="#181818" points="650.5,872.6875,640.5,876.6875,650.5,880.6875,646.5,876.6875" style="stroke:#181818;stroke-width:1.0;"/><line style="stroke:#181818;stroke-width:1.0;stroke-dasharray:2.0,2.0;" x1="644.5" x2="1240.5" y1="876.6875" y2="876.6875"/><text fill="#000000" font-family="sans-serif" font-size="13" font-weight="bold" lengthAdjust="spacing" textLength="14" x="656.5" y="871.8311">22</text><text fill="#000000" font-family="sans-serif" font-size="13" lengthAdjust="spacing" textLength="91" x="674.5" y="871.8311">Success / Error</text><polygon fill="#181818" points="394.5,903.0391,384.5,907.0391,394.5,911.0391,390.5,907.0391" style="stroke:#181818;stroke-width:1.0;"/><line style="stroke:#181818;stroke-width:1.0;stroke-dasharray:2.0,2.0;" x1="388.5" x2="633.5" y1="907.0391" y2="907.0391"/><text fill="#000000" font-family="sans-serif" font-size="13" font-weight="bold" lengthAdjust="spacing" textLength="14" x="400.5" y="902.1826">23</text><text fill="#000000" font-family="sans-serif" font-size="13" lengthAdjust="spacing" textLength="204" x="418.5" y="902.1826">Information about the success/error</text><polygon fill="#181818" points="38.5,933.3906,28.5,937.3906,38.5,941.3906,34.5,937.3906" style="stroke:#181818;stroke-width:1.0;"/><line style="stroke:#181818;stroke-width:1.0;stroke-dasharray:2.0,2.0;" x1="32.5" x2="377.5" y1="937.3906" y2="937.3906"/><text fill="#000000" font-family="sans-serif" font-size="13" font-weight="bold" lengthAdjust="spacing" textLength="14" x="44.5" y="932.5342">24</text><text fill="#000000" font-family="sans-serif" font-size="13" lengthAdjust="spacing" textLength="288" x="62.5" y="932.5342">List building floors and ask to choose one or more</text><polygon fill="#181818" points="361.5,963.7422,371.5,967.7422,361.5,971.7422,365.5,967.7422" style="stroke:#181818;stroke-width:1.0;"/><line style="stroke:#181818;stroke-width:1.0;" x1="27.5" x2="367.5" y1="967.7422" y2="967.7422"/><text fill="#000000" font-family="sans-serif" font-size="13" font-weight="bold" lengthAdjust="spacing" textLength="14" x="34.5" y="962.8857">25</text><text fill="#000000" font-family="sans-serif" font-size="13" lengthAdjust="spacing" textLength="152" x="52.5" y="962.8857">Choose one or more floors</text><polygon fill="#181818" points="617.5,994.0938,627.5,998.0938,617.5,1002.0938,621.5,998.0938" style="stroke:#181818;stroke-width:1.0;"/><line style="stroke:#181818;stroke-width:1.0;" x1="383.5" x2="623.5" y1="998.0938" y2="998.0938"/><text fill="#000000" font-family="sans-serif" font-size="13" font-weight="bold" lengthAdjust="spacing" textLength="14" x="390.5" y="993.2373">26</text><text fill="#000000" font-family="sans-serif" font-size="13" lengthAdjust="spacing" textLength="149" x="408.5" y="993.2373">onFloorSelectionChange()</text><polygon fill="#181818" points="38.5,1054.4453,28.5,1058.4453,38.5,1062.4453,34.5,1058.4453" style="stroke:#181818;stroke-width:1.0;"/><line style="stroke:#181818;stroke-width:1.0;stroke-dasharray:2.0,2.0;" x1="32.5" x2="377.5" y1="1058.4453" y2="1058.4453"/><text fill="#000000" font-family="sans-serif" font-size="13" font-weight="bold" lengthAdjust="spacing" textLength="14" x="44.5" y="1053.5889">27</text><text fill="#000000" font-family="sans-serif" font-size="13" lengthAdjust="spacing" textLength="254" x="62.5" y="1053.5889">Asks to insert the emergency contact name</text><polygon fill="#181818" points="361.5,1084.7969,371.5,1088.7969,361.5,1092.7969,365.5,1088.7969" style="stroke:#181818;stroke-width:1.0;"/><line style="stroke:#181818;stroke-width:1.0;" x1="27.5" x2="367.5" y1="1088.7969" y2="1088.7969"/><text fill="#000000" font-family="sans-serif" font-size="13" font-weight="bold" lengthAdjust="spacing" textLength="14" x="34.5" y="1083.9404">28</text><text fill="#000000" font-family="sans-serif" font-size="13" lengthAdjust="spacing" textLength="205" x="52.5" y="1083.9404">Insert the emergency contact name</text><polygon fill="#181818" points="38.5,1115.1484,28.5,1119.1484,38.5,1123.1484,34.5,1119.1484" style="stroke:#181818;stroke-width:1.0;"/><line style="stroke:#181818;stroke-width:1.0;stroke-dasharray:2.0,2.0;" x1="32.5" x2="377.5" y1="1119.1484" y2="1119.1484"/><text fill="#000000" font-family="sans-serif" font-size="13" font-weight="bold" lengthAdjust="spacing" textLength="14" x="44.5" y="1114.292">29</text><text fill="#000000" font-family="sans-serif" font-size="13" lengthAdjust="spacing" textLength="304" x="62.5" y="1114.292">Asks to insert the emergency contact phone number</text><polygon fill="#181818" points="361.5,1145.5,371.5,1149.5,361.5,1153.5,365.5,1149.5" style="stroke:#181818;stroke-width:1.0;"/><line style="stroke:#181818;stroke-width:1.0;" x1="27.5" x2="367.5" y1="1149.5" y2="1149.5"/><text fill="#000000" font-family="sans-serif" font-size="13" font-weight="bold" lengthAdjust="spacing" textLength="14" x="34.5" y="1144.6436">30</text><text fill="#000000" font-family="sans-serif" font-size="13" lengthAdjust="spacing" textLength="255" x="52.5" y="1144.6436">Insert the emergency contact phone number</text><polygon fill="#181818" points="617.5,1175.8516,627.5,1179.8516,617.5,1183.8516,621.5,1179.8516" style="stroke:#181818;stroke-width:1.0;"/><line style="stroke:#181818;stroke-width:1.0;" x1="383.5" x2="623.5" y1="1179.8516" y2="1179.8516"/><text fill="#000000" font-family="sans-serif" font-size="13" font-weight="bold" lengthAdjust="spacing" textLength="14" x="390.5" y="1174.9951">31</text><text fill="#000000" font-family="sans-serif" font-size="13" lengthAdjust="spacing" textLength="141" x="408.5" y="1174.9951">createSurveillanceTask()</text><polygon fill="#181818" points="828,1206.2031,838,1210.2031,828,1214.2031,832,1210.2031" style="stroke:#181818;stroke-width:1.0;"/><line style="stroke:#181818;stroke-width:1.0;stroke-dasharray:2.0,2.0;" x1="639.5" x2="834" y1="1210.2031" y2="1210.2031"/><text fill="#000000" font-family="sans-serif" font-size="13" font-weight="bold" lengthAdjust="spacing" textLength="14" x="646.5" y="1205.3467">32</text><text fill="#000000" font-family="sans-serif" font-size="13" lengthAdjust="spacing" textLength="4" x="664.5" y="1205.3467"> </text><rect fill="#E3E3E3" height="49.2188" rx="2.5" ry="2.5" style="stroke:#181818;stroke-width:0.5;" width="204" x="840" y="1187.8516"/><text fill="#000000" font-family="sans-serif" font-size="14" lengthAdjust="spacing" textLength="114" x="885" y="1209.3848">surveillanceTask :</text><text fill="#000000" font-family="sans-serif" font-size="14" lengthAdjust="spacing" textLength="186" x="851" y="1226.9941">surveillanceTaskModel.model</text><polygon fill="#181818" points="1224.5,1266.4219,1234.5,1270.4219,1224.5,1274.4219,1228.5,1270.4219" style="stroke:#181818;stroke-width:1.0;"/><line style="stroke:#181818;stroke-width:1.0;" x1="639.5" x2="1230.5" y1="1270.4219" y2="1270.4219"/><text fill="#000000" font-family="sans-serif" font-size="13" font-weight="bold" lengthAdjust="spacing" textLength="14" x="646.5" y="1265.5654">33</text><text fill="#000000" font-family="sans-serif" font-size="13" lengthAdjust="spacing" textLength="236" x="664.5" y="1265.5654">createSurveillanceTask(surveillanceTask)</text><polygon fill="#181818" points="1584.5,1296.7734,1594.5,1300.7734,1584.5,1304.7734,1588.5,1300.7734" style="stroke:#181818;stroke-width:1.0;"/><line style="stroke:#181818;stroke-width:1.0;" x1="1246.5" x2="1590.5" y1="1300.7734" y2="1300.7734"/><text fill="#000000" font-family="sans-serif" font-size="13" font-weight="bold" lengthAdjust="spacing" textLength="14" x="1253.5" y="1295.917">34</text><text fill="#000000" font-family="sans-serif" font-size="13" lengthAdjust="spacing" textLength="194" x="1271.5" y="1295.917">POST (.../api/tasks/surveillances)</text><polygon fill="#181818" points="1257.5,1327.125,1247.5,1331.125,1257.5,1335.125,1253.5,1331.125" style="stroke:#181818;stroke-width:1.0;"/><line style="stroke:#181818;stroke-width:1.0;stroke-dasharray:2.0,2.0;" x1="1251.5" x2="1600.5" y1="1331.125" y2="1331.125"/><text fill="#000000" font-family="sans-serif" font-size="13" font-weight="bold" lengthAdjust="spacing" textLength="14" x="1263.5" y="1326.2686">35</text><text fill="#000000" font-family="sans-serif" font-size="13" lengthAdjust="spacing" textLength="90" x="1281.5" y="1326.2686">status: 201/400</text><polygon fill="#181818" points="650.5,1357.4766,640.5,1361.4766,650.5,1365.4766,646.5,1361.4766" style="stroke:#181818;stroke-width:1.0;"/><line style="stroke:#181818;stroke-width:1.0;stroke-dasharray:2.0,2.0;" x1="644.5" x2="1240.5" y1="1361.4766" y2="1361.4766"/><text fill="#000000" font-family="sans-serif" font-size="13" font-weight="bold" lengthAdjust="spacing" textLength="14" x="656.5" y="1356.6201">36</text><text fill="#000000" font-family="sans-serif" font-size="13" lengthAdjust="spacing" textLength="91" x="674.5" y="1356.6201">Success / Error</text><polygon fill="#181818" points="394.5,1387.8281,384.5,1391.8281,394.5,1395.8281,390.5,1391.8281" style="stroke:#181818;stroke-width:1.0;"/><line style="stroke:#181818;stroke-width:1.0;stroke-dasharray:2.0,2.0;" x1="388.5" x2="633.5" y1="1391.8281" y2="1391.8281"/><text fill="#000000" font-family="sans-serif" font-size="13" font-weight="bold" lengthAdjust="spacing" textLength="14" x="400.5" y="1386.9717">37</text><text fill="#000000" font-family="sans-serif" font-size="13" lengthAdjust="spacing" textLength="204" x="418.5" y="1386.9717">Information about the success/error</text><polygon fill="#181818" points="33.5,1418.1797,23.5,1422.1797,33.5,1426.1797,29.5,1422.1797" style="stroke:#181818;stroke-width:1.0;"/><line style="stroke:#181818;stroke-width:1.0;stroke-dasharray:2.0,2.0;" x1="27.5" x2="377.5" y1="1422.1797" y2="1422.1797"/><text fill="#000000" font-family="sans-serif" font-size="13" font-weight="bold" lengthAdjust="spacing" textLength="14" x="39.5" y="1417.3232">38</text><text fill="#000000" font-family="sans-serif" font-size="13" lengthAdjust="spacing" textLength="144" x="57.5" y="1417.3232">Task created / Data error</text><!--MD5=[95a2f1adab3c71405a7308b64127ddfb]
@startuml
skinparam monochrome true
skinparam packageStyle rectangle
skinparam shadowing false

title Sequence Diagram (Level 3 - Process View) - US 460 - Surveillance Task
autonumber

Actor "User" as user
participant "View" as View <<Component>>
participant "Component" as Component <<Component>>
participant "buildingModel :\n building.model" as buildingModel
participant "surveillanceTask :\n surveillanceTaskModel.model" as surveillanceTaskModel
participant "floorModelList :\n floorModel.model" as floorModelList
participant "Service" as Service <<Component>>
participant "MD" as MD <<system (C4)>>
participant "MDT" as MDT <<system (C4)>>

activate user
    user -> View : Ask to request a surveillance task
    activate View

        View -> Component : ngOnInit()
        activate Component
            Component -> Component : loadBuildings()
            activate Component
                Component - -> buildingModel** :
                Component -> Service : getAllBuildingsInfo()
                activate Service
                    Service -> MD : GET (../api/buildings)
                    activate MD
                        Service <- - MD : status: 200/404
                    deactivate MD

                    Component <- - Service : Success / Error
                deactivate Service
                View <- - Component : Information about the success/error
            deactivate Component

            Component -> Component : loadDefaultData()
            activate Component
                Component -> Service : getUserData()
                activate Service
                    Service -> MD : GET (../api/me)
                    activate MD
                        Service <- - MD : status: 200/404
                    deactivate MD

                    Component <- - Service : Success / Error
                deactivate Service
            deactivate Component
        deactivate Component

        View - -> user : List buildings and ask to choose one
    deactivate View

    user -> View : Choose one building
    activate View
        View -> Component : onBuildingChange()
        activate Component
            Component - -> floorModelList** :
            Component -> Service : getFloorsByBuilding(buildingCode)
            activate Service
                Service -> MD : GET (.../api/buildings/:code/floors)
                activate MD
                    Service <- - MD : status: 200/404
                deactivate MD

                Component <- - Service : Success / Error
            deactivate Service
            View <- - Component : Information about the success/error
        deactivate Component

        View - -> user : List building floors and ask to choose one or more
    deactivate View

    user -> View : Choose one or more floors
    activate View
        View -> Component : onFloorSelectionChange()
        activate Component
        deactivate Component

        View - -> user : Asks to insert the emergency contact name
    deactivate View

    user -> View : Insert the emergency contact name
     activate View
        View - -> user : Asks to insert the emergency contact phone number
    deactivate View

    user -> View : Insert the emergency contact phone number
    activate View
        View -> Component : createSurveillanceTask()
        activate Component
            Component - -> surveillanceTaskModel** :
            Component -> Service : createSurveillanceTask(surveillanceTask)

            activate Service
                Service -> MDT : POST (.../api/tasks/surveillances)
                activate MDT
                    Service <- - MDT : status: 201/400
                deactivate MDT
                
                Component <- - Service : Success / Error
            deactivate Service

            View <- - Component : Information about the success/error
        deactivate Component

        user <- - View : Task created / Data error
    deactivate View
deactivate user

@enduml

PlantUML version 1.2022.7(Mon Aug 22 18:01:30 WEST 2022)
(GPL source distribution)
Java Runtime: Java(TM) SE Runtime Environment
JVM: Java HotSpot(TM) 64-Bit Server VM
Default Encoding: Cp1252
Language: pt
Country: PT
--></g></svg>