<?xml version="1.0" encoding="UTF-8" standalone="no"?><svg xmlns="http://www.w3.org/2000/svg" xmlns:xlink="http://www.w3.org/1999/xlink" contentStyleType="text/css" height="1388px" preserveAspectRatio="none" style="width:1595px;height:1388px;background:#FFFFFF;" version="1.1" viewBox="0 0 1595 1388" width="1595px" zoomAndPan="magnify"><defs/><g><rect fill="none" height="27.6094" id="_title" style="stroke:none;stroke-width:1.0;" width="546" x="523.5" y="10"/><text fill="#000000" font-family="sans-serif" font-size="14" font-weight="bold" lengthAdjust="spacing" textLength="536" x="528.5" y="29.5332">Sequence Diagram (Level 3 - Process View) - US 460 - Pickup &amp; Delivery Task</text><rect fill="#FFFFFF" height="1156.6875" style="stroke:#181818;stroke-width:1.0;" width="10" x="17.5" y="131.2188"/><rect fill="#FFFFFF" height="407.0859" style="stroke:#181818;stroke-width:1.0;" width="10" x="448.5" y="153.5703"/><rect fill="#FFFFFF" height="90.7031" style="stroke:#181818;stroke-width:1.0;" width="10" x="448.5" y="591.0078"/><rect fill="#FFFFFF" height="90.7031" style="stroke:#181818;stroke-width:1.0;" width="10" x="448.5" y="712.0625"/><rect fill="#FFFFFF" height="30.3516" style="stroke:#181818;stroke-width:1.0;" width="10" x="448.5" y="833.1172"/><rect fill="#FFFFFF" height="30.3516" style="stroke:#181818;stroke-width:1.0;" width="10" x="448.5" y="893.8203"/><rect fill="#FFFFFF" height="30.3516" style="stroke:#181818;stroke-width:1.0;" width="10" x="448.5" y="954.5234"/><rect fill="#FFFFFF" height="272.6797" style="stroke:#181818;stroke-width:1.0;" width="10" x="448.5" y="1015.2266"/><rect fill="#FFFFFF" height="346.3828" style="stroke:#181818;stroke-width:1.0;" width="10" x="704.5" y="183.9219"/><rect fill="#FFFFFF" height="126.4063" style="stroke:#181818;stroke-width:1.0;" width="10" x="709.5" y="222.2734"/><rect fill="#FFFFFF" height="151.2734" style="stroke:#181818;stroke-width:1.0;" width="10" x="709.5" y="379.0313"/><rect fill="#FFFFFF" height="30" style="stroke:#181818;stroke-width:1.0;" width="10" x="704.5" y="621.3594"/><rect fill="#FFFFFF" height="30" style="stroke:#181818;stroke-width:1.0;" width="10" x="704.5" y="742.4141"/><rect fill="#FFFFFF" height="211.9766" style="stroke:#181818;stroke-width:1.0;" width="10" x="704.5" y="1045.5781"/><rect fill="#FFFFFF" height="91.0547" style="stroke:#181818;stroke-width:1.0;" width="10" x="1202" y="257.625"/><rect fill="#FFFFFF" height="60.7031" style="stroke:#181818;stroke-width:1.0;" width="10" x="1202" y="469.6016"/><rect fill="#FFFFFF" height="91.0547" style="stroke:#181818;stroke-width:1.0;" width="10" x="1202" y="1136.1484"/><rect fill="#FFFFFF" height="30.3516" style="stroke:#181818;stroke-width:1.0;" width="10" x="1415" y="287.9766"/><rect fill="#FFFFFF" height="30.3516" style="stroke:#181818;stroke-width:1.0;" width="10" x="1415" y="499.9531"/><rect fill="#FFFFFF" height="30.3516" style="stroke:#181818;stroke-width:1.0;" width="10" x="1531" y="1166.5"/><line style="stroke:#181818;stroke-width:0.5;stroke-dasharray:5.0,5.0;" x1="22" x2="22" y1="121.2188" y2="1305.9063"/><line style="stroke:#181818;stroke-width:0.5;stroke-dasharray:5.0,5.0;" x1="453" x2="453" y1="121.2188" y2="1305.9063"/><line style="stroke:#181818;stroke-width:0.5;stroke-dasharray:5.0,5.0;" x1="709" x2="709" y1="121.2188" y2="1305.9063"/><line style="stroke:#181818;stroke-width:0.5;stroke-dasharray:5.0,5.0;" x1="843.5" x2="843.5" y1="427.1406" y2="1305.9063"/><line style="stroke:#181818;stroke-width:0.5;stroke-dasharray:5.0,5.0;" x1="1022.5" x2="1022.5" y1="1093.6875" y2="1305.9063"/><line style="stroke:#181818;stroke-width:0.5;stroke-dasharray:5.0,5.0;" x1="1206.5" x2="1206.5" y1="121.2188" y2="1305.9063"/><line style="stroke:#181818;stroke-width:0.5;stroke-dasharray:5.0,5.0;" x1="1420" x2="1420" y1="121.2188" y2="1305.9063"/><line style="stroke:#181818;stroke-width:0.5;stroke-dasharray:5.0,5.0;" x1="1536" x2="1536" y1="121.2188" y2="1305.9063"/><text fill="#000000" font-family="sans-serif" font-size="14" lengthAdjust="spacing" textLength="29" x="5" y="118.1426">User</text><ellipse cx="22.5" cy="52.1094" fill="#E3E3E3" rx="8" ry="8" style="stroke:#181818;stroke-width:0.5;"/><path d="M22.5,60.1094 L22.5,87.1094 M9.5,68.1094 L35.5,68.1094 M22.5,87.1094 L9.5,102.1094 M22.5,87.1094 L35.5,102.1094 " fill="none" style="stroke:#181818;stroke-width:0.5;"/><text fill="#000000" font-family="sans-serif" font-size="14" lengthAdjust="spacing" textLength="29" x="5" y="1319.4395">User</text><ellipse cx="22.5" cy="1331.0156" fill="#E3E3E3" rx="8" ry="8" style="stroke:#181818;stroke-width:0.5;"/><path d="M22.5,1339.0156 L22.5,1366.0156 M9.5,1347.0156 L35.5,1347.0156 M22.5,1366.0156 L9.5,1381.0156 M22.5,1366.0156 L35.5,1381.0156 " fill="none" style="stroke:#181818;stroke-width:0.5;"/><rect fill="#E3E3E3" height="49.2188" rx="2.5" ry="2.5" style="stroke:#181818;stroke-width:0.5;" width="103" x="402" y="71"/><text fill="#000000" font-family="sans-serif" font-size="14" font-style="italic" lengthAdjust="spacing" textLength="89" x="409" y="92.5332">«Component»</text><text fill="#000000" font-family="sans-serif" font-size="14" lengthAdjust="spacing" textLength="29" x="439" y="110.1426">View</text><rect fill="#E3E3E3" height="49.2188" rx="2.5" ry="2.5" style="stroke:#181818;stroke-width:0.5;" width="103" x="402" y="1304.9063"/><text fill="#000000" font-family="sans-serif" font-size="14" font-style="italic" lengthAdjust="spacing" textLength="89" x="409" y="1326.4395">«Component»</text><text fill="#000000" font-family="sans-serif" font-size="14" lengthAdjust="spacing" textLength="29" x="439" y="1344.0488">View</text><rect fill="#E3E3E3" height="49.2188" rx="2.5" ry="2.5" style="stroke:#181818;stroke-width:0.5;" width="103" x="658" y="71"/><text fill="#000000" font-family="sans-serif" font-size="14" font-style="italic" lengthAdjust="spacing" textLength="89" x="665" y="92.5332">«Component»</text><text fill="#000000" font-family="sans-serif" font-size="14" lengthAdjust="spacing" textLength="73" x="673" y="110.1426">Component</text><rect fill="#E3E3E3" height="49.2188" rx="2.5" ry="2.5" style="stroke:#181818;stroke-width:0.5;" width="103" x="658" y="1304.9063"/><text fill="#000000" font-family="sans-serif" font-size="14" font-style="italic" lengthAdjust="spacing" textLength="89" x="665" y="1326.4395">«Component»</text><text fill="#000000" font-family="sans-serif" font-size="14" lengthAdjust="spacing" textLength="73" x="673" y="1344.0488">Component</text><rect fill="#E3E3E3" height="49.2188" rx="2.5" ry="2.5" style="stroke:#181818;stroke-width:0.5;" width="92" x="797.5" y="1304.9063"/><text fill="#000000" font-family="sans-serif" font-size="14" lengthAdjust="spacing" textLength="47" x="820" y="1326.4395">rooms :</text><text fill="#000000" font-family="sans-serif" font-size="14" lengthAdjust="spacing" textLength="74" x="808.5" y="1344.0488">room.model</text><rect fill="#E3E3E3" height="49.2188" rx="2.5" ry="2.5" style="stroke:#181818;stroke-width:0.5;" width="246" x="899.5" y="1304.9063"/><text fill="#000000" font-family="sans-serif" font-size="14" lengthAdjust="spacing" textLength="156" x="944.5" y="1326.4395">pickupAndDeliveryTask :</text><text fill="#000000" font-family="sans-serif" font-size="14" lengthAdjust="spacing" textLength="228" x="910.5" y="1344.0488">pickupAndDeliveryTaskModel.model</text><rect fill="#E3E3E3" height="49.2188" rx="2.5" ry="2.5" style="stroke:#181818;stroke-width:0.5;" width="103" x="1155.5" y="71"/><text fill="#000000" font-family="sans-serif" font-size="14" font-style="italic" lengthAdjust="spacing" textLength="89" x="1162.5" y="92.5332">«Component»</text><text fill="#000000" font-family="sans-serif" font-size="14" lengthAdjust="spacing" textLength="47" x="1183.5" y="110.1426">Service</text><rect fill="#E3E3E3" height="49.2188" rx="2.5" ry="2.5" style="stroke:#181818;stroke-width:0.5;" width="103" x="1155.5" y="1304.9063"/><text fill="#000000" font-family="sans-serif" font-size="14" font-style="italic" lengthAdjust="spacing" textLength="89" x="1162.5" y="1326.4395">«Component»</text><text fill="#000000" font-family="sans-serif" font-size="14" lengthAdjust="spacing" textLength="47" x="1183.5" y="1344.0488">Service</text><rect fill="#E3E3E3" height="49.2188" rx="2.5" ry="2.5" style="stroke:#181818;stroke-width:0.5;" width="106" x="1367" y="71"/><text fill="#000000" font-family="sans-serif" font-size="14" font-style="italic" lengthAdjust="spacing" textLength="92" x="1374" y="92.5332">«system (C4)»</text><text fill="#000000" font-family="sans-serif" font-size="14" lengthAdjust="spacing" textLength="21" x="1409.5" y="110.1426">MD</text><rect fill="#E3E3E3" height="49.2188" rx="2.5" ry="2.5" style="stroke:#181818;stroke-width:0.5;" width="106" x="1367" y="1304.9063"/><text fill="#000000" font-family="sans-serif" font-size="14" font-style="italic" lengthAdjust="spacing" textLength="92" x="1374" y="1326.4395">«system (C4)»</text><text fill="#000000" font-family="sans-serif" font-size="14" lengthAdjust="spacing" textLength="21" x="1409.5" y="1344.0488">MD</text><rect fill="#E3E3E3" height="49.2188" rx="2.5" ry="2.5" style="stroke:#181818;stroke-width:0.5;" width="106" x="1483" y="71"/><text fill="#000000" font-family="sans-serif" font-size="14" font-style="italic" lengthAdjust="spacing" textLength="92" x="1490" y="92.5332">«system (C4)»</text><text fill="#000000" font-family="sans-serif" font-size="14" lengthAdjust="spacing" textLength="30" x="1521" y="110.1426">MDT</text><rect fill="#E3E3E3" height="49.2188" rx="2.5" ry="2.5" style="stroke:#181818;stroke-width:0.5;" width="106" x="1483" y="1304.9063"/><text fill="#000000" font-family="sans-serif" font-size="14" font-style="italic" lengthAdjust="spacing" textLength="92" x="1490" y="1326.4395">«system (C4)»</text><text fill="#000000" font-family="sans-serif" font-size="14" lengthAdjust="spacing" textLength="30" x="1521" y="1344.0488">MDT</text><rect fill="#FFFFFF" height="1156.6875" style="stroke:#181818;stroke-width:1.0;" width="10" x="17.5" y="131.2188"/><rect fill="#FFFFFF" height="407.0859" style="stroke:#181818;stroke-width:1.0;" width="10" x="448.5" y="153.5703"/><rect fill="#FFFFFF" height="90.7031" style="stroke:#181818;stroke-width:1.0;" width="10" x="448.5" y="591.0078"/><rect fill="#FFFFFF" height="90.7031" style="stroke:#181818;stroke-width:1.0;" width="10" x="448.5" y="712.0625"/><rect fill="#FFFFFF" height="30.3516" style="stroke:#181818;stroke-width:1.0;" width="10" x="448.5" y="833.1172"/><rect fill="#FFFFFF" height="30.3516" style="stroke:#181818;stroke-width:1.0;" width="10" x="448.5" y="893.8203"/><rect fill="#FFFFFF" height="30.3516" style="stroke:#181818;stroke-width:1.0;" width="10" x="448.5" y="954.5234"/><rect fill="#FFFFFF" height="272.6797" style="stroke:#181818;stroke-width:1.0;" width="10" x="448.5" y="1015.2266"/><rect fill="#FFFFFF" height="346.3828" style="stroke:#181818;stroke-width:1.0;" width="10" x="704.5" y="183.9219"/><rect fill="#FFFFFF" height="126.4063" style="stroke:#181818;stroke-width:1.0;" width="10" x="709.5" y="222.2734"/><rect fill="#FFFFFF" height="151.2734" style="stroke:#181818;stroke-width:1.0;" width="10" x="709.5" y="379.0313"/><rect fill="#FFFFFF" height="30" style="stroke:#181818;stroke-width:1.0;" width="10" x="704.5" y="621.3594"/><rect fill="#FFFFFF" height="30" style="stroke:#181818;stroke-width:1.0;" width="10" x="704.5" y="742.4141"/><rect fill="#FFFFFF" height="211.9766" style="stroke:#181818;stroke-width:1.0;" width="10" x="704.5" y="1045.5781"/><rect fill="#FFFFFF" height="91.0547" style="stroke:#181818;stroke-width:1.0;" width="10" x="1202" y="257.625"/><rect fill="#FFFFFF" height="60.7031" style="stroke:#181818;stroke-width:1.0;" width="10" x="1202" y="469.6016"/><rect fill="#FFFFFF" height="91.0547" style="stroke:#181818;stroke-width:1.0;" width="10" x="1202" y="1136.1484"/><rect fill="#FFFFFF" height="30.3516" style="stroke:#181818;stroke-width:1.0;" width="10" x="1415" y="287.9766"/><rect fill="#FFFFFF" height="30.3516" style="stroke:#181818;stroke-width:1.0;" width="10" x="1415" y="499.9531"/><rect fill="#FFFFFF" height="30.3516" style="stroke:#181818;stroke-width:1.0;" width="10" x="1531" y="1166.5"/><polygon fill="#181818" points="436.5,149.5703,446.5,153.5703,436.5,157.5703,440.5,153.5703" style="stroke:#181818;stroke-width:1.0;"/><line style="stroke:#181818;stroke-width:1.0;" x1="27.5" x2="442.5" y1="153.5703" y2="153.5703"/><text fill="#000000" font-family="sans-serif" font-size="13" font-weight="bold" lengthAdjust="spacing" textLength="7" x="34.5" y="148.7139">1</text><text fill="#000000" font-family="sans-serif" font-size="13" lengthAdjust="spacing" textLength="227" x="45.5" y="148.7139">Ask to request a pickup &amp; delivery task</text><polygon fill="#181818" points="692.5,179.9219,702.5,183.9219,692.5,187.9219,696.5,183.9219" style="stroke:#181818;stroke-width:1.0;"/><line style="stroke:#181818;stroke-width:1.0;" x1="458.5" x2="698.5" y1="183.9219" y2="183.9219"/><text fill="#000000" font-family="sans-serif" font-size="13" font-weight="bold" lengthAdjust="spacing" textLength="7" x="465.5" y="179.0654">2</text><text fill="#000000" font-family="sans-serif" font-size="13" lengthAdjust="spacing" textLength="56" x="476.5" y="179.0654">ngOnInit()</text><line style="stroke:#181818;stroke-width:1.0;" x1="714.5" x2="761.5" y1="209.2734" y2="209.2734"/><line style="stroke:#181818;stroke-width:1.0;" x1="761.5" x2="761.5" y1="209.2734" y2="222.2734"/><line style="stroke:#181818;stroke-width:1.0;" x1="720.5" x2="761.5" y1="222.2734" y2="222.2734"/><polygon fill="#181818" points="730.5,218.2734,720.5,222.2734,730.5,226.2734,726.5,222.2734" style="stroke:#181818;stroke-width:1.0;"/><text fill="#000000" font-family="sans-serif" font-size="13" font-weight="bold" lengthAdjust="spacing" textLength="7" x="726.5" y="204.417">3</text><text fill="#000000" font-family="sans-serif" font-size="13" lengthAdjust="spacing" textLength="99" x="737.5" y="204.417">loadDefaultData()</text><polygon fill="#181818" points="1190,253.625,1200,257.625,1190,261.625,1194,257.625" style="stroke:#181818;stroke-width:1.0;"/><line style="stroke:#181818;stroke-width:1.0;" x1="719.5" x2="1196" y1="257.625" y2="257.625"/><text fill="#000000" font-family="sans-serif" font-size="13" font-weight="bold" lengthAdjust="spacing" textLength="7" x="726.5" y="252.7686">4</text><text fill="#000000" font-family="sans-serif" font-size="13" lengthAdjust="spacing" textLength="80" x="737.5" y="252.7686">getUserData()</text><polygon fill="#181818" points="1403,283.9766,1413,287.9766,1403,291.9766,1407,287.9766" style="stroke:#181818;stroke-width:1.0;"/><line style="stroke:#181818;stroke-width:1.0;" x1="1212" x2="1409" y1="287.9766" y2="287.9766"/><text fill="#000000" font-family="sans-serif" font-size="13" font-weight="bold" lengthAdjust="spacing" textLength="7" x="1219" y="283.1201">5</text><text fill="#000000" font-family="sans-serif" font-size="13" lengthAdjust="spacing" textLength="89" x="1230" y="283.1201">GET (../api/me)</text><polygon fill="#181818" points="1223,314.3281,1213,318.3281,1223,322.3281,1219,318.3281" style="stroke:#181818;stroke-width:1.0;"/><line style="stroke:#181818;stroke-width:1.0;stroke-dasharray:2.0,2.0;" x1="1217" x2="1419" y1="318.3281" y2="318.3281"/><text fill="#000000" font-family="sans-serif" font-size="13" font-weight="bold" lengthAdjust="spacing" textLength="7" x="1229" y="313.4717">6</text><text fill="#000000" font-family="sans-serif" font-size="13" lengthAdjust="spacing" textLength="90" x="1240" y="313.4717">status: 200/404</text><polygon fill="#181818" points="725.5,344.6797,715.5,348.6797,725.5,352.6797,721.5,348.6797" style="stroke:#181818;stroke-width:1.0;"/><line style="stroke:#181818;stroke-width:1.0;stroke-dasharray:2.0,2.0;" x1="719.5" x2="1206" y1="348.6797" y2="348.6797"/><text fill="#000000" font-family="sans-serif" font-size="13" font-weight="bold" lengthAdjust="spacing" textLength="7" x="731.5" y="343.8232">7</text><text fill="#000000" font-family="sans-serif" font-size="13" lengthAdjust="spacing" textLength="91" x="742.5" y="343.8232">Success / Error</text><polygon fill="#181818" points="697.5,375.0313,707.5,379.0313,697.5,383.0313,701.5,379.0313" style="stroke:#181818;stroke-width:1.0;"/><line style="stroke:#181818;stroke-width:1.0;" x1="458.5" x2="703.5" y1="379.0313" y2="379.0313"/><text fill="#000000" font-family="sans-serif" font-size="13" font-weight="bold" lengthAdjust="spacing" textLength="7" x="465.5" y="374.1748">8</text><text fill="#000000" font-family="sans-serif" font-size="13" lengthAdjust="spacing" textLength="73" x="476.5" y="374.1748">loadRooms()</text><polygon fill="#181818" points="785.5,405.3828,795.5,409.3828,785.5,413.3828,789.5,409.3828" style="stroke:#181818;stroke-width:1.0;"/><line style="stroke:#181818;stroke-width:1.0;stroke-dasharray:2.0,2.0;" x1="719.5" x2="791.5" y1="409.3828" y2="409.3828"/><text fill="#000000" font-family="sans-serif" font-size="13" font-weight="bold" lengthAdjust="spacing" textLength="7" x="726.5" y="404.5264">9</text><text fill="#000000" font-family="sans-serif" font-size="13" lengthAdjust="spacing" textLength="4" x="737.5" y="404.5264"> </text><rect fill="#E3E3E3" height="49.2188" rx="2.5" ry="2.5" style="stroke:#181818;stroke-width:0.5;" width="92" x="797.5" y="387.0313"/><text fill="#000000" font-family="sans-serif" font-size="14" lengthAdjust="spacing" textLength="47" x="820" y="408.5645">rooms :</text><text fill="#000000" font-family="sans-serif" font-size="14" lengthAdjust="spacing" textLength="74" x="808.5" y="426.1738">room.model</text><polygon fill="#181818" points="1190,465.6016,1200,469.6016,1190,473.6016,1194,469.6016" style="stroke:#181818;stroke-width:1.0;"/><line style="stroke:#181818;stroke-width:1.0;" x1="719.5" x2="1196" y1="469.6016" y2="469.6016"/><text fill="#000000" font-family="sans-serif" font-size="13" font-weight="bold" lengthAdjust="spacing" textLength="14" x="726.5" y="464.7451">10</text><text fill="#000000" font-family="sans-serif" font-size="13" lengthAdjust="spacing" textLength="82" x="744.5" y="464.7451">getAllRooms()</text><polygon fill="#181818" points="1403,495.9531,1413,499.9531,1403,503.9531,1407,499.9531" style="stroke:#181818;stroke-width:1.0;"/><line style="stroke:#181818;stroke-width:1.0;" x1="1212" x2="1409" y1="499.9531" y2="499.9531"/><text fill="#000000" font-family="sans-serif" font-size="13" font-weight="bold" lengthAdjust="spacing" textLength="14" x="1219" y="495.0967">11</text><text fill="#000000" font-family="sans-serif" font-size="13" lengthAdjust="spacing" textLength="166" x="1237" y="495.0967">GET (.../api/buildings/rooms)</text><polygon fill="#181818" points="1218,526.3047,1208,530.3047,1218,534.3047,1214,530.3047" style="stroke:#181818;stroke-width:1.0;"/><line style="stroke:#181818;stroke-width:1.0;stroke-dasharray:2.0,2.0;" x1="1212" x2="1419" y1="530.3047" y2="530.3047"/><text fill="#000000" font-family="sans-serif" font-size="13" font-weight="bold" lengthAdjust="spacing" textLength="14" x="1224" y="525.4482">12</text><text fill="#000000" font-family="sans-serif" font-size="13" lengthAdjust="spacing" textLength="90" x="1242" y="525.4482">status: 200/404</text><polygon fill="#181818" points="38.5,556.6563,28.5,560.6563,38.5,564.6563,34.5,560.6563" style="stroke:#181818;stroke-width:1.0;"/><line style="stroke:#181818;stroke-width:1.0;stroke-dasharray:2.0,2.0;" x1="32.5" x2="452.5" y1="560.6563" y2="560.6563"/><text fill="#000000" font-family="sans-serif" font-size="13" font-weight="bold" lengthAdjust="spacing" textLength="14" x="44.5" y="555.7998">13</text><text fill="#000000" font-family="sans-serif" font-size="13" lengthAdjust="spacing" textLength="328" x="62.5" y="555.7998">List the existing rooms and ask to choose one for pickup</text><polygon fill="#181818" points="436.5,587.0078,446.5,591.0078,436.5,595.0078,440.5,591.0078" style="stroke:#181818;stroke-width:1.0;"/><line style="stroke:#181818;stroke-width:1.0;" x1="27.5" x2="442.5" y1="591.0078" y2="591.0078"/><text fill="#000000" font-family="sans-serif" font-size="13" font-weight="bold" lengthAdjust="spacing" textLength="14" x="34.5" y="586.1514">14</text><text fill="#000000" font-family="sans-serif" font-size="13" lengthAdjust="spacing" textLength="159" x="52.5" y="586.1514">Choose one room to pickup</text><polygon fill="#181818" points="692.5,617.3594,702.5,621.3594,692.5,625.3594,696.5,621.3594" style="stroke:#181818;stroke-width:1.0;"/><line style="stroke:#181818;stroke-width:1.0;" x1="458.5" x2="698.5" y1="621.3594" y2="621.3594"/><text fill="#000000" font-family="sans-serif" font-size="13" font-weight="bold" lengthAdjust="spacing" textLength="14" x="465.5" y="616.5029">15</text><text fill="#000000" font-family="sans-serif" font-size="13" lengthAdjust="spacing" textLength="140" x="483.5" y="616.5029">onPickupRoomChange()</text><polygon fill="#181818" points="38.5,677.7109,28.5,681.7109,38.5,685.7109,34.5,681.7109" style="stroke:#181818;stroke-width:1.0;"/><line style="stroke:#181818;stroke-width:1.0;stroke-dasharray:2.0,2.0;" x1="32.5" x2="452.5" y1="681.7109" y2="681.7109"/><text fill="#000000" font-family="sans-serif" font-size="13" font-weight="bold" lengthAdjust="spacing" textLength="14" x="44.5" y="676.8545">16</text><text fill="#000000" font-family="sans-serif" font-size="13" lengthAdjust="spacing" textLength="333" x="62.5" y="676.8545">List the existing rooms and ask to choose one for delivery</text><polygon fill="#181818" points="436.5,708.0625,446.5,712.0625,436.5,716.0625,440.5,712.0625" style="stroke:#181818;stroke-width:1.0;"/><line style="stroke:#181818;stroke-width:1.0;" x1="27.5" x2="442.5" y1="712.0625" y2="712.0625"/><text fill="#000000" font-family="sans-serif" font-size="13" font-weight="bold" lengthAdjust="spacing" textLength="14" x="34.5" y="707.2061">17</text><text fill="#000000" font-family="sans-serif" font-size="13" lengthAdjust="spacing" textLength="167" x="52.5" y="707.2061">Choose one room for delivery</text><polygon fill="#181818" points="692.5,738.4141,702.5,742.4141,692.5,746.4141,696.5,742.4141" style="stroke:#181818;stroke-width:1.0;"/><line style="stroke:#181818;stroke-width:1.0;" x1="458.5" x2="698.5" y1="742.4141" y2="742.4141"/><text fill="#000000" font-family="sans-serif" font-size="13" font-weight="bold" lengthAdjust="spacing" textLength="14" x="465.5" y="737.5576">18</text><text fill="#000000" font-family="sans-serif" font-size="13" lengthAdjust="spacing" textLength="145" x="483.5" y="737.5576">onDeliveryRoomChange()</text><polygon fill="#181818" points="38.5,798.7656,28.5,802.7656,38.5,806.7656,34.5,802.7656" style="stroke:#181818;stroke-width:1.0;"/><line style="stroke:#181818;stroke-width:1.0;stroke-dasharray:2.0,2.0;" x1="32.5" x2="452.5" y1="802.7656" y2="802.7656"/><text fill="#000000" font-family="sans-serif" font-size="13" font-weight="bold" lengthAdjust="spacing" textLength="14" x="44.5" y="797.9092">19</text><text fill="#000000" font-family="sans-serif" font-size="13" lengthAdjust="spacing" textLength="328" x="62.5" y="797.9092">Ask to insert name and phone number for pickup contact</text><polygon fill="#181818" points="436.5,829.1172,446.5,833.1172,436.5,837.1172,440.5,833.1172" style="stroke:#181818;stroke-width:1.0;"/><line style="stroke:#181818;stroke-width:1.0;" x1="27.5" x2="442.5" y1="833.1172" y2="833.1172"/><text fill="#000000" font-family="sans-serif" font-size="13" font-weight="bold" lengthAdjust="spacing" textLength="14" x="34.5" y="828.2607">20</text><text fill="#000000" font-family="sans-serif" font-size="13" lengthAdjust="spacing" textLength="61" x="52.5" y="828.2607">Insert data</text><polygon fill="#181818" points="38.5,859.4688,28.5,863.4688,38.5,867.4688,34.5,863.4688" style="stroke:#181818;stroke-width:1.0;"/><line style="stroke:#181818;stroke-width:1.0;stroke-dasharray:2.0,2.0;" x1="32.5" x2="452.5" y1="863.4688" y2="863.4688"/><text fill="#000000" font-family="sans-serif" font-size="13" font-weight="bold" lengthAdjust="spacing" textLength="14" x="44.5" y="858.6123">21</text><text fill="#000000" font-family="sans-serif" font-size="13" lengthAdjust="spacing" textLength="379" x="62.5" y="858.6123">Ask to insert name and contact for pickup and another for delivery</text><polygon fill="#181818" points="436.5,889.8203,446.5,893.8203,436.5,897.8203,440.5,893.8203" style="stroke:#181818;stroke-width:1.0;"/><line style="stroke:#181818;stroke-width:1.0;" x1="27.5" x2="442.5" y1="893.8203" y2="893.8203"/><text fill="#000000" font-family="sans-serif" font-size="13" font-weight="bold" lengthAdjust="spacing" textLength="14" x="34.5" y="888.9639">22</text><text fill="#000000" font-family="sans-serif" font-size="13" lengthAdjust="spacing" textLength="61" x="52.5" y="888.9639">Insert data</text><polygon fill="#181818" points="38.5,920.1719,28.5,924.1719,38.5,928.1719,34.5,924.1719" style="stroke:#181818;stroke-width:1.0;"/><line style="stroke:#181818;stroke-width:1.0;stroke-dasharray:2.0,2.0;" x1="32.5" x2="452.5" y1="924.1719" y2="924.1719"/><text fill="#000000" font-family="sans-serif" font-size="13" font-weight="bold" lengthAdjust="spacing" textLength="14" x="44.5" y="919.3154">23</text><text fill="#000000" font-family="sans-serif" font-size="13" lengthAdjust="spacing" textLength="152" x="62.5" y="919.3154">Ask to insert a description</text><polygon fill="#181818" points="436.5,950.5234,446.5,954.5234,436.5,958.5234,440.5,954.5234" style="stroke:#181818;stroke-width:1.0;"/><line style="stroke:#181818;stroke-width:1.0;stroke-dasharray:2.0,2.0;" x1="27.5" x2="442.5" y1="954.5234" y2="954.5234"/><text fill="#000000" font-family="sans-serif" font-size="13" font-weight="bold" lengthAdjust="spacing" textLength="14" x="34.5" y="949.667">24</text><text fill="#000000" font-family="sans-serif" font-size="13" lengthAdjust="spacing" textLength="99" x="52.5" y="949.667">Insert description</text><polygon fill="#181818" points="38.5,980.875,28.5,984.875,38.5,988.875,34.5,984.875" style="stroke:#181818;stroke-width:1.0;"/><line style="stroke:#181818;stroke-width:1.0;stroke-dasharray:2.0,2.0;" x1="32.5" x2="452.5" y1="984.875" y2="984.875"/><text fill="#000000" font-family="sans-serif" font-size="13" font-weight="bold" lengthAdjust="spacing" textLength="14" x="44.5" y="980.0186">25</text><text fill="#000000" font-family="sans-serif" font-size="13" lengthAdjust="spacing" textLength="191" x="62.5" y="980.0186">Ask to insert a confirmation code</text><polygon fill="#181818" points="436.5,1011.2266,446.5,1015.2266,436.5,1019.2266,440.5,1015.2266" style="stroke:#181818;stroke-width:1.0;"/><line style="stroke:#181818;stroke-width:1.0;stroke-dasharray:2.0,2.0;" x1="27.5" x2="442.5" y1="1015.2266" y2="1015.2266"/><text fill="#000000" font-family="sans-serif" font-size="13" font-weight="bold" lengthAdjust="spacing" textLength="14" x="34.5" y="1010.3701">26</text><text fill="#000000" font-family="sans-serif" font-size="13" lengthAdjust="spacing" textLength="149" x="52.5" y="1010.3701">Insert a confirmation code</text><polygon fill="#181818" points="692.5,1041.5781,702.5,1045.5781,692.5,1049.5781,696.5,1045.5781" style="stroke:#181818;stroke-width:1.0;"/><line style="stroke:#181818;stroke-width:1.0;" x1="458.5" x2="698.5" y1="1045.5781" y2="1045.5781"/><text fill="#000000" font-family="sans-serif" font-size="13" font-weight="bold" lengthAdjust="spacing" textLength="14" x="465.5" y="1040.7217">27</text><text fill="#000000" font-family="sans-serif" font-size="13" lengthAdjust="spacing" textLength="180" x="483.5" y="1040.7217">createPickupAndDeliveryTask()</text><polygon fill="#181818" points="887.5,1071.9297,897.5,1075.9297,887.5,1079.9297,891.5,1075.9297" style="stroke:#181818;stroke-width:1.0;"/><line style="stroke:#181818;stroke-width:1.0;" x1="714.5" x2="893.5" y1="1075.9297" y2="1075.9297"/><text fill="#000000" font-family="sans-serif" font-size="13" font-weight="bold" lengthAdjust="spacing" textLength="14" x="721.5" y="1071.0732">28</text><text fill="#000000" font-family="sans-serif" font-size="13" lengthAdjust="spacing" textLength="4" x="739.5" y="1071.0732"> </text><rect fill="#E3E3E3" height="49.2188" rx="2.5" ry="2.5" style="stroke:#181818;stroke-width:0.5;" width="246" x="899.5" y="1053.5781"/><text fill="#000000" font-family="sans-serif" font-size="14" lengthAdjust="spacing" textLength="156" x="944.5" y="1075.1113">pickupAndDeliveryTask :</text><text fill="#000000" font-family="sans-serif" font-size="14" lengthAdjust="spacing" textLength="228" x="910.5" y="1092.7207">pickupAndDeliveryTaskModel.model</text><polygon fill="#181818" points="1190,1132.1484,1200,1136.1484,1190,1140.1484,1194,1136.1484" style="stroke:#181818;stroke-width:1.0;"/><line style="stroke:#181818;stroke-width:1.0;" x1="714.5" x2="1196" y1="1136.1484" y2="1136.1484"/><text fill="#000000" font-family="sans-serif" font-size="13" font-weight="bold" lengthAdjust="spacing" textLength="14" x="721.5" y="1131.292">29</text><text fill="#000000" font-family="sans-serif" font-size="13" lengthAdjust="spacing" textLength="314" x="739.5" y="1131.292">createPickupAndDeliveryTask(pickupAndDeliveryTask)</text><polygon fill="#181818" points="1519,1162.5,1529,1166.5,1519,1170.5,1523,1166.5" style="stroke:#181818;stroke-width:1.0;"/><line style="stroke:#181818;stroke-width:1.0;" x1="1212" x2="1525" y1="1166.5" y2="1166.5"/><text fill="#000000" font-family="sans-serif" font-size="13" font-weight="bold" lengthAdjust="spacing" textLength="14" x="1219" y="1161.6436">30</text><text fill="#000000" font-family="sans-serif" font-size="13" lengthAdjust="spacing" textLength="173" x="1237" y="1161.6436">POST (.../api/tasks/deliveries)</text><polygon fill="#181818" points="1223,1192.8516,1213,1196.8516,1223,1200.8516,1219,1196.8516" style="stroke:#181818;stroke-width:1.0;"/><line style="stroke:#181818;stroke-width:1.0;stroke-dasharray:2.0,2.0;" x1="1217" x2="1535" y1="1196.8516" y2="1196.8516"/><text fill="#000000" font-family="sans-serif" font-size="13" font-weight="bold" lengthAdjust="spacing" textLength="14" x="1229" y="1191.9951">31</text><text fill="#000000" font-family="sans-serif" font-size="13" lengthAdjust="spacing" textLength="90" x="1247" y="1191.9951">status: 201/400</text><polygon fill="#181818" points="725.5,1223.2031,715.5,1227.2031,725.5,1231.2031,721.5,1227.2031" style="stroke:#181818;stroke-width:1.0;"/><line style="stroke:#181818;stroke-width:1.0;stroke-dasharray:2.0,2.0;" x1="719.5" x2="1206" y1="1227.2031" y2="1227.2031"/><text fill="#000000" font-family="sans-serif" font-size="13" font-weight="bold" lengthAdjust="spacing" textLength="14" x="731.5" y="1222.3467">32</text><text fill="#000000" font-family="sans-serif" font-size="13" lengthAdjust="spacing" textLength="91" x="749.5" y="1222.3467">Success / Error</text><polygon fill="#181818" points="469.5,1253.5547,459.5,1257.5547,469.5,1261.5547,465.5,1257.5547" style="stroke:#181818;stroke-width:1.0;"/><line style="stroke:#181818;stroke-width:1.0;stroke-dasharray:2.0,2.0;" x1="463.5" x2="708.5" y1="1257.5547" y2="1257.5547"/><text fill="#000000" font-family="sans-serif" font-size="13" font-weight="bold" lengthAdjust="spacing" textLength="14" x="475.5" y="1252.6982">33</text><text fill="#000000" font-family="sans-serif" font-size="13" lengthAdjust="spacing" textLength="204" x="493.5" y="1252.6982">Information about the success/error</text><polygon fill="#181818" points="33.5,1283.9063,23.5,1287.9063,33.5,1291.9063,29.5,1287.9063" style="stroke:#181818;stroke-width:1.0;"/><line style="stroke:#181818;stroke-width:1.0;stroke-dasharray:2.0,2.0;" x1="27.5" x2="452.5" y1="1287.9063" y2="1287.9063"/><text fill="#000000" font-family="sans-serif" font-size="13" font-weight="bold" lengthAdjust="spacing" textLength="14" x="39.5" y="1283.0498">34</text><text fill="#000000" font-family="sans-serif" font-size="13" lengthAdjust="spacing" textLength="144" x="57.5" y="1283.0498">Task created / Data error</text><!--MD5=[c194e51b9406deb9616d7d530eb416d8]
@startuml
skinparam monochrome true
skinparam packageStyle rectangle
skinparam shadowing false

title Sequence Diagram (Level 3 - Process View) - US 460 - Pickup & Delivery Task
autonumber

Actor "User" as user
participant "View" as View <<Component>>
participant "Component" as Component <<Component>>
participant "rooms :\n room.model" as roomModelList
participant "pickupAndDeliveryTask :\n pickupAndDeliveryTaskModel.model" as pickupAndDeliveryTaskModel
participant "Service" as Service <<Component>>
participant "MD" as MD <<system (C4)>>
participant "MDT" as MDT <<system (C4)>>

activate user
    user -> View : Ask to request a pickup & delivery task
    activate View
        View -> Component : ngOnInit()
        activate Component

            Component -> Component : loadDefaultData()
            activate Component
                Component -> Service : getUserData()
                activate Service
                    Service -> MD : GET (../api/me)
                    activate MD
                        Service <- - MD : status: 200/404
                    deactivate MD

                    Component <- - Service : Success / Error
                deactivate Service
            deactivate Component

            View -> Component : loadRooms()
            activate Component
                Component - -> roomModelList** :
                Component -> Service : getAllRooms()
                activate Service
                    Service -> MD : GET (.../api/buildings/rooms)
                    activate MD
                        Service <- - MD : status: 200/404
                    deactivate MD
                deactivate Service
            deactivate Component
        deactivate Component

        View - -> user : List the existing rooms and ask to choose one for pickup
    deactivate View

    user -> View : Choose one room to pickup
    activate View
        View -> Component : onPickupRoomChange()
        activate Component
        deactivate Component

        View - -> user : List the existing rooms and ask to choose one for delivery
    deactivate View
    user -> View : Choose one room for delivery

    activate View
        View -> Component : onDeliveryRoomChange()
        activate Component
        deactivate Component

        View - -> user : Ask to insert name and phone number for pickup contact
    deactivate View
    user -> View : Insert data

    activate View
        View - -> user : Ask to insert name and contact for pickup and another for delivery
    deactivate View
    user -> View : Insert data

    activate View
        View - -> user : Ask to insert a description
    deactivate View
    user - -> View : Insert description

    activate View
        View - -> user : Ask to insert a confirmation code
    deactivate View
    user - -> View : Insert a confirmation code

    activate View
        View -> Component : createPickupAndDeliveryTask()
        activate Component
            Component -> pickupAndDeliveryTaskModel** :
            Component -> Service : createPickupAndDeliveryTask(pickupAndDeliveryTask)

            activate Service
                Service -> MDT : POST (.../api/tasks/deliveries)
                activate MDT
                    Service <- - MDT : status: 201/400
                deactivate MDT
                Component <- - Service : Success / Error
            deactivate Service
            View <- - Component : Information about the success/error
        deactivate Component
        View - -> user : Task created / Data error
    deactivate View
deactivate user

@enduml

PlantUML version 1.2022.7(Mon Aug 22 18:01:30 WEST 2022)
(GPL source distribution)
Java Runtime: Java(TM) SE Runtime Environment
JVM: Java HotSpot(TM) 64-Bit Server VM
Default Encoding: Cp1252
Language: pt
Country: PT
--></g></svg>