<?xml version="1.0" encoding="UTF-8" standalone="no"?><svg xmlns="http://www.w3.org/2000/svg" xmlns:xlink="http://www.w3.org/1999/xlink" contentStyleType="text/css" height="830px" preserveAspectRatio="none" style="width:633px;height:830px;background:#FFFFFF;" version="1.1" viewBox="0 0 633 830" width="633px" zoomAndPan="magnify"><defs/><g><rect fill="none" height="27.6094" id="_title" style="stroke:none;stroke-width:1.0;" width="600" x="13.25" y="10"/><text fill="#000000" font-family="sans-serif" font-size="14" font-weight="bold" lengthAdjust="spacing" textLength="590" x="18.25" y="29.5332">System Sequence Diagram (Level 2 - Process View) - US 460 - Pickup &amp; Delivery Task</text><rect fill="#FFFFFF" height="599.0313" style="stroke:#181818;stroke-width:1.0;" width="10" x="17.5" y="131.2188"/><rect fill="#FFFFFF" height="151.7578" style="stroke:#181818;stroke-width:1.0;" width="10" x="402.5" y="153.5703"/><rect fill="#FFFFFF" height="30.3516" style="stroke:#181818;stroke-width:1.0;" width="10" x="402.5" y="335.6797"/><rect fill="#FFFFFF" height="30.3516" style="stroke:#181818;stroke-width:1.0;" width="10" x="402.5" y="396.3828"/><rect fill="#FFFFFF" height="30.3516" style="stroke:#181818;stroke-width:1.0;" width="10" x="402.5" y="457.0859"/><rect fill="#FFFFFF" height="30.3516" style="stroke:#181818;stroke-width:1.0;" width="10" x="402.5" y="517.7891"/><rect fill="#FFFFFF" height="30.3516" style="stroke:#181818;stroke-width:1.0;" width="10" x="402.5" y="578.4922"/><rect fill="#FFFFFF" height="91.0547" style="stroke:#181818;stroke-width:1.0;" width="10" x="402.5" y="639.1953"/><line style="stroke:#181818;stroke-width:0.5;stroke-dasharray:5.0,5.0;" x1="22" x2="22" y1="121.2188" y2="748.25"/><line style="stroke:#181818;stroke-width:0.5;stroke-dasharray:5.0,5.0;" x1="407.5" x2="407.5" y1="121.2188" y2="748.25"/><text fill="#000000" font-family="sans-serif" font-size="14" lengthAdjust="spacing" textLength="29" x="5" y="118.1426">User</text><ellipse cx="22.5" cy="52.1094" fill="#E3E3E3" rx="8" ry="8" style="stroke:#181818;stroke-width:0.5;"/><path d="M22.5,60.1094 L22.5,87.1094 M9.5,68.1094 L35.5,68.1094 M22.5,87.1094 L9.5,102.1094 M22.5,87.1094 L35.5,102.1094 " fill="none" style="stroke:#181818;stroke-width:0.5;"/><text fill="#000000" font-family="sans-serif" font-size="14" lengthAdjust="spacing" textLength="29" x="5" y="761.7832">User</text><ellipse cx="22.5" cy="773.3594" fill="#E3E3E3" rx="8" ry="8" style="stroke:#181818;stroke-width:0.5;"/><path d="M22.5,781.3594 L22.5,808.3594 M9.5,789.3594 L35.5,789.3594 M22.5,808.3594 L9.5,823.3594 M22.5,808.3594 L35.5,823.3594 " fill="none" style="stroke:#181818;stroke-width:0.5;"/><rect fill="#E3E3E3" height="49.2188" rx="2.5" ry="2.5" style="stroke:#181818;stroke-width:0.5;" width="106" x="354.5" y="71"/><text fill="#000000" font-family="sans-serif" font-size="14" font-style="italic" lengthAdjust="spacing" textLength="92" x="361.5" y="92.5332">«system (C4)»</text><text fill="#000000" font-family="sans-serif" font-size="14" lengthAdjust="spacing" textLength="12" x="401.5" y="110.1426">UI</text><rect fill="#E3E3E3" height="49.2188" rx="2.5" ry="2.5" style="stroke:#181818;stroke-width:0.5;" width="106" x="354.5" y="747.25"/><text fill="#000000" font-family="sans-serif" font-size="14" font-style="italic" lengthAdjust="spacing" textLength="92" x="361.5" y="768.7832">«system (C4)»</text><text fill="#000000" font-family="sans-serif" font-size="14" lengthAdjust="spacing" textLength="12" x="401.5" y="786.3926">UI</text><rect fill="#FFFFFF" height="599.0313" style="stroke:#181818;stroke-width:1.0;" width="10" x="17.5" y="131.2188"/><rect fill="#FFFFFF" height="151.7578" style="stroke:#181818;stroke-width:1.0;" width="10" x="402.5" y="153.5703"/><rect fill="#FFFFFF" height="30.3516" style="stroke:#181818;stroke-width:1.0;" width="10" x="402.5" y="335.6797"/><rect fill="#FFFFFF" height="30.3516" style="stroke:#181818;stroke-width:1.0;" width="10" x="402.5" y="396.3828"/><rect fill="#FFFFFF" height="30.3516" style="stroke:#181818;stroke-width:1.0;" width="10" x="402.5" y="457.0859"/><rect fill="#FFFFFF" height="30.3516" style="stroke:#181818;stroke-width:1.0;" width="10" x="402.5" y="517.7891"/><rect fill="#FFFFFF" height="30.3516" style="stroke:#181818;stroke-width:1.0;" width="10" x="402.5" y="578.4922"/><rect fill="#FFFFFF" height="91.0547" style="stroke:#181818;stroke-width:1.0;" width="10" x="402.5" y="639.1953"/><polygon fill="#181818" points="390.5,149.5703,400.5,153.5703,390.5,157.5703,394.5,153.5703" style="stroke:#181818;stroke-width:1.0;"/><line style="stroke:#181818;stroke-width:1.0;" x1="27.5" x2="396.5" y1="153.5703" y2="153.5703"/><text fill="#000000" font-family="sans-serif" font-size="13" font-weight="bold" lengthAdjust="spacing" textLength="7" x="34.5" y="148.7139">1</text><text fill="#000000" font-family="sans-serif" font-size="13" lengthAdjust="spacing" textLength="227" x="45.5" y="148.7139">Ask to request a pickup &amp; delivery task</text><polygon fill="#181818" points="615.5,179.9219,625.5,183.9219,615.5,187.9219,619.5,183.9219" style="stroke:#181818;stroke-width:1.0;"/><line style="stroke:#181818;stroke-width:1.0;" x1="412.5" x2="621.5" y1="183.9219" y2="183.9219"/><text fill="#000000" font-family="sans-serif" font-size="13" font-weight="bold" lengthAdjust="spacing" textLength="7" x="419.5" y="179.0654">2</text><text fill="#000000" font-family="sans-serif" font-size="13" lengthAdjust="spacing" textLength="166" x="430.5" y="179.0654">GET (.../api/buildings/rooms)</text><polygon fill="#181818" points="423.5,210.2734,413.5,214.2734,423.5,218.2734,419.5,214.2734" style="stroke:#181818;stroke-width:1.0;"/><line style="stroke:#181818;stroke-width:1.0;stroke-dasharray:2.0,2.0;" x1="417.5" x2="626.5" y1="214.2734" y2="214.2734"/><text fill="#000000" font-family="sans-serif" font-size="13" font-weight="bold" lengthAdjust="spacing" textLength="7" x="429.5" y="209.417">3</text><text fill="#000000" font-family="sans-serif" font-size="13" lengthAdjust="spacing" textLength="90" x="440.5" y="209.417">status: 200/404</text><polygon fill="#181818" points="615.5,240.625,625.5,244.625,615.5,248.625,619.5,244.625" style="stroke:#181818;stroke-width:1.0;"/><line style="stroke:#181818;stroke-width:1.0;" x1="412.5" x2="621.5" y1="244.625" y2="244.625"/><text fill="#000000" font-family="sans-serif" font-size="13" font-weight="bold" lengthAdjust="spacing" textLength="7" x="419.5" y="239.7686">4</text><text fill="#000000" font-family="sans-serif" font-size="13" lengthAdjust="spacing" textLength="93" x="430.5" y="239.7686">GET (.../api/me)</text><polygon fill="#181818" points="423.5,270.9766,413.5,274.9766,423.5,278.9766,419.5,274.9766" style="stroke:#181818;stroke-width:1.0;"/><line style="stroke:#181818;stroke-width:1.0;stroke-dasharray:2.0,2.0;" x1="417.5" x2="626.5" y1="274.9766" y2="274.9766"/><text fill="#000000" font-family="sans-serif" font-size="13" font-weight="bold" lengthAdjust="spacing" textLength="7" x="429.5" y="270.1201">5</text><text fill="#000000" font-family="sans-serif" font-size="13" lengthAdjust="spacing" textLength="90" x="440.5" y="270.1201">status: 200/404</text><polygon fill="#181818" points="38.5,301.3281,28.5,305.3281,38.5,309.3281,34.5,305.3281" style="stroke:#181818;stroke-width:1.0;"/><line style="stroke:#181818;stroke-width:1.0;stroke-dasharray:2.0,2.0;" x1="32.5" x2="406.5" y1="305.3281" y2="305.3281"/><text fill="#000000" font-family="sans-serif" font-size="13" font-weight="bold" lengthAdjust="spacing" textLength="7" x="44.5" y="300.4717">6</text><text fill="#000000" font-family="sans-serif" font-size="13" lengthAdjust="spacing" textLength="328" x="55.5" y="300.4717">List the existing rooms and ask to choose one for pickup</text><polygon fill="#181818" points="390.5,331.6797,400.5,335.6797,390.5,339.6797,394.5,335.6797" style="stroke:#181818;stroke-width:1.0;"/><line style="stroke:#181818;stroke-width:1.0;" x1="27.5" x2="396.5" y1="335.6797" y2="335.6797"/><text fill="#000000" font-family="sans-serif" font-size="13" font-weight="bold" lengthAdjust="spacing" textLength="7" x="34.5" y="330.8232">7</text><text fill="#000000" font-family="sans-serif" font-size="13" lengthAdjust="spacing" textLength="159" x="45.5" y="330.8232">Choose one room to pickup</text><polygon fill="#181818" points="38.5,362.0313,28.5,366.0313,38.5,370.0313,34.5,366.0313" style="stroke:#181818;stroke-width:1.0;"/><line style="stroke:#181818;stroke-width:1.0;stroke-dasharray:2.0,2.0;" x1="32.5" x2="406.5" y1="366.0313" y2="366.0313"/><text fill="#000000" font-family="sans-serif" font-size="13" font-weight="bold" lengthAdjust="spacing" textLength="7" x="44.5" y="361.1748">8</text><text fill="#000000" font-family="sans-serif" font-size="13" lengthAdjust="spacing" textLength="333" x="55.5" y="361.1748">List the existing rooms and ask to choose one for delivery</text><polygon fill="#181818" points="390.5,392.3828,400.5,396.3828,390.5,400.3828,394.5,396.3828" style="stroke:#181818;stroke-width:1.0;"/><line style="stroke:#181818;stroke-width:1.0;" x1="27.5" x2="396.5" y1="396.3828" y2="396.3828"/><text fill="#000000" font-family="sans-serif" font-size="13" font-weight="bold" lengthAdjust="spacing" textLength="7" x="34.5" y="391.5264">9</text><text fill="#000000" font-family="sans-serif" font-size="13" lengthAdjust="spacing" textLength="167" x="45.5" y="391.5264">Choose one room for delivery</text><polygon fill="#181818" points="38.5,422.7344,28.5,426.7344,38.5,430.7344,34.5,426.7344" style="stroke:#181818;stroke-width:1.0;"/><line style="stroke:#181818;stroke-width:1.0;stroke-dasharray:2.0,2.0;" x1="32.5" x2="406.5" y1="426.7344" y2="426.7344"/><text fill="#000000" font-family="sans-serif" font-size="13" font-weight="bold" lengthAdjust="spacing" textLength="14" x="44.5" y="421.8779">10</text><text fill="#000000" font-family="sans-serif" font-size="13" lengthAdjust="spacing" textLength="328" x="62.5" y="421.8779">Ask to insert name and phone number for pickup contact</text><polygon fill="#181818" points="390.5,453.0859,400.5,457.0859,390.5,461.0859,394.5,457.0859" style="stroke:#181818;stroke-width:1.0;"/><line style="stroke:#181818;stroke-width:1.0;" x1="27.5" x2="396.5" y1="457.0859" y2="457.0859"/><text fill="#000000" font-family="sans-serif" font-size="13" font-weight="bold" lengthAdjust="spacing" textLength="14" x="34.5" y="452.2295">11</text><text fill="#000000" font-family="sans-serif" font-size="13" lengthAdjust="spacing" textLength="61" x="52.5" y="452.2295">Insert data</text><polygon fill="#181818" points="38.5,483.4375,28.5,487.4375,38.5,491.4375,34.5,487.4375" style="stroke:#181818;stroke-width:1.0;"/><line style="stroke:#181818;stroke-width:1.0;stroke-dasharray:2.0,2.0;" x1="32.5" x2="406.5" y1="487.4375" y2="487.4375"/><text fill="#000000" font-family="sans-serif" font-size="13" font-weight="bold" lengthAdjust="spacing" textLength="14" x="44.5" y="482.5811">12</text><text fill="#000000" font-family="sans-serif" font-size="13" lengthAdjust="spacing" textLength="333" x="62.5" y="482.5811">Ask to insert name and phone number for delivery contact</text><polygon fill="#181818" points="390.5,513.7891,400.5,517.7891,390.5,521.7891,394.5,517.7891" style="stroke:#181818;stroke-width:1.0;"/><line style="stroke:#181818;stroke-width:1.0;" x1="27.5" x2="396.5" y1="517.7891" y2="517.7891"/><text fill="#000000" font-family="sans-serif" font-size="13" font-weight="bold" lengthAdjust="spacing" textLength="14" x="34.5" y="512.9326">13</text><text fill="#000000" font-family="sans-serif" font-size="13" lengthAdjust="spacing" textLength="61" x="52.5" y="512.9326">Insert data</text><polygon fill="#181818" points="38.5,544.1406,28.5,548.1406,38.5,552.1406,34.5,548.1406" style="stroke:#181818;stroke-width:1.0;"/><line style="stroke:#181818;stroke-width:1.0;stroke-dasharray:2.0,2.0;" x1="32.5" x2="406.5" y1="548.1406" y2="548.1406"/><text fill="#000000" font-family="sans-serif" font-size="13" font-weight="bold" lengthAdjust="spacing" textLength="14" x="44.5" y="543.2842">14</text><text fill="#000000" font-family="sans-serif" font-size="13" lengthAdjust="spacing" textLength="152" x="62.5" y="543.2842">Ask to insert a description</text><polygon fill="#181818" points="390.5,574.4922,400.5,578.4922,390.5,582.4922,394.5,578.4922" style="stroke:#181818;stroke-width:1.0;"/><line style="stroke:#181818;stroke-width:1.0;stroke-dasharray:2.0,2.0;" x1="27.5" x2="396.5" y1="578.4922" y2="578.4922"/><text fill="#000000" font-family="sans-serif" font-size="13" font-weight="bold" lengthAdjust="spacing" textLength="14" x="34.5" y="573.6357">15</text><text fill="#000000" font-family="sans-serif" font-size="13" lengthAdjust="spacing" textLength="99" x="52.5" y="573.6357">Insert description</text><polygon fill="#181818" points="38.5,604.8438,28.5,608.8438,38.5,612.8438,34.5,608.8438" style="stroke:#181818;stroke-width:1.0;"/><line style="stroke:#181818;stroke-width:1.0;stroke-dasharray:2.0,2.0;" x1="32.5" x2="406.5" y1="608.8438" y2="608.8438"/><text fill="#000000" font-family="sans-serif" font-size="13" font-weight="bold" lengthAdjust="spacing" textLength="14" x="44.5" y="603.9873">16</text><text fill="#000000" font-family="sans-serif" font-size="13" lengthAdjust="spacing" textLength="191" x="62.5" y="603.9873">Ask to insert a confirmation code</text><polygon fill="#181818" points="390.5,635.1953,400.5,639.1953,390.5,643.1953,394.5,639.1953" style="stroke:#181818;stroke-width:1.0;"/><line style="stroke:#181818;stroke-width:1.0;stroke-dasharray:2.0,2.0;" x1="27.5" x2="396.5" y1="639.1953" y2="639.1953"/><text fill="#000000" font-family="sans-serif" font-size="13" font-weight="bold" lengthAdjust="spacing" textLength="14" x="34.5" y="634.3389">17</text><text fill="#000000" font-family="sans-serif" font-size="13" lengthAdjust="spacing" textLength="149" x="52.5" y="634.3389">Insert a confirmation code</text><polygon fill="#181818" points="615.5,665.5469,625.5,669.5469,615.5,673.5469,619.5,669.5469" style="stroke:#181818;stroke-width:1.0;"/><line style="stroke:#181818;stroke-width:1.0;" x1="412.5" x2="621.5" y1="669.5469" y2="669.5469"/><text fill="#000000" font-family="sans-serif" font-size="13" font-weight="bold" lengthAdjust="spacing" textLength="14" x="419.5" y="664.6904">18</text><text fill="#000000" font-family="sans-serif" font-size="13" lengthAdjust="spacing" textLength="173" x="437.5" y="664.6904">POST (.../api/tasks/deliveries)</text><polygon fill="#181818" points="423.5,695.8984,413.5,699.8984,423.5,703.8984,419.5,699.8984" style="stroke:#181818;stroke-width:1.0;"/><line style="stroke:#181818;stroke-width:1.0;stroke-dasharray:2.0,2.0;" x1="417.5" x2="626.5" y1="699.8984" y2="699.8984"/><text fill="#000000" font-family="sans-serif" font-size="13" font-weight="bold" lengthAdjust="spacing" textLength="14" x="429.5" y="695.042">19</text><text fill="#000000" font-family="sans-serif" font-size="13" lengthAdjust="spacing" textLength="90" x="447.5" y="695.042">status: 201/400</text><polygon fill="#181818" points="33.5,726.25,23.5,730.25,33.5,734.25,29.5,730.25" style="stroke:#181818;stroke-width:1.0;"/><line style="stroke:#181818;stroke-width:1.0;stroke-dasharray:2.0,2.0;" x1="27.5" x2="406.5" y1="730.25" y2="730.25"/><text fill="#000000" font-family="sans-serif" font-size="13" font-weight="bold" lengthAdjust="spacing" textLength="14" x="39.5" y="725.3936">20</text><text fill="#000000" font-family="sans-serif" font-size="13" lengthAdjust="spacing" textLength="144" x="57.5" y="725.3936">Task created / Data error</text><!--MD5=[3068e85c64de0a5cc55c53e78c737fcd]
@startuml
skinparam monochrome true
skinparam packageStyle rectangle
skinparam shadowing false

title System Sequence Diagram (Level 2 - Process View) - US 460 - Pickup & Delivery Task
autonumber

Actor "User" as user
participant "UI" as UI <<system (C4)>>

activate user
    user -> UI : Ask to request a pickup & delivery task
    activate UI
        UI -> : GET (.../api/buildings/rooms)
        UI <- - : status: 200/404

        UI -> : GET (.../api/me)
        UI <- - : status: 200/404

        UI - -> user : List the existing rooms and ask to choose one for pickup
    deactivate UI

    user -> UI : Choose one room to pickup
    activate UI
        UI - -> user : List the existing rooms and ask to choose one for delivery
    deactivate UI
    user -> UI : Choose one room for delivery

    activate UI
        UI - -> user : Ask to insert name and phone number for pickup contact
    deactivate UI
    user -> UI : Insert data

    activate UI
        UI - -> user : Ask to insert name and phone number for delivery contact
    deactivate UI
    user -> UI : Insert data

    activate UI
        UI - -> user : Ask to insert a description
    deactivate UI
    user - -> UI : Insert description

    activate UI
        UI - -> user : Ask to insert a confirmation code
    deactivate UI
    user - -> UI : Insert a confirmation code

    activate UI
        UI -> : POST (.../api/tasks/deliveries)
        UI <- - : status: 201/400
        UI - -> user : Task created / Data error
    deactivate UI
deactivate user

@enduml

PlantUML version 1.2022.7(Mon Aug 22 18:01:30 WEST 2022)
(GPL source distribution)
Java Runtime: Java(TM) SE Runtime Environment
JVM: Java HotSpot(TM) 64-Bit Server VM
Default Encoding: Cp1252
Language: pt
Country: PT
--></g></svg>