<?xml version="1.0" encoding="UTF-8" standalone="no"?><svg xmlns="http://www.w3.org/2000/svg" xmlns:xlink="http://www.w3.org/1999/xlink" contentStyleType="text/css" height="648px" preserveAspectRatio="none" style="width:618px;height:648px;background:#FFFFFF;" version="1.1" viewBox="0 0 618 648" width="618px" zoomAndPan="magnify"><defs/><g><rect fill="none" height="27.6094" id="_title" style="stroke:none;stroke-width:1.0;" width="600" x="5" y="10"/><text fill="#000000" font-family="sans-serif" font-size="14" font-weight="bold" lengthAdjust="spacing" textLength="590" x="10" y="29.5332">System Sequence Diagram (Level 1 - Process View) - US 460 - Pickup &amp; Delivery Task</text><rect fill="#FFFFFF" height="416.9219" style="stroke:#181818;stroke-width:1.0;" width="10" x="81.25" y="131.2188"/><rect fill="#FFFFFF" height="30.3516" style="stroke:#181818;stroke-width:1.0;" width="10" x="459.25" y="153.5703"/><rect fill="#FFFFFF" height="30.3516" style="stroke:#181818;stroke-width:1.0;" width="10" x="459.25" y="214.2734"/><rect fill="#FFFFFF" height="30.3516" style="stroke:#181818;stroke-width:1.0;" width="10" x="459.25" y="274.9766"/><rect fill="#FFFFFF" height="30.3516" style="stroke:#181818;stroke-width:1.0;" width="10" x="459.25" y="335.6797"/><rect fill="#FFFFFF" height="30.3516" style="stroke:#181818;stroke-width:1.0;" width="10" x="459.25" y="396.3828"/><rect fill="#FFFFFF" height="30.3516" style="stroke:#181818;stroke-width:1.0;" width="10" x="459.25" y="457.0859"/><rect fill="#FFFFFF" height="30.3516" style="stroke:#181818;stroke-width:1.0;" width="10" x="459.25" y="517.7891"/><line style="stroke:#181818;stroke-width:0.5;stroke-dasharray:5.0,5.0;" x1="85.75" x2="85.75" y1="121.2188" y2="566.1406"/><line style="stroke:#181818;stroke-width:0.5;stroke-dasharray:5.0,5.0;" x1="464.25" x2="464.25" y1="121.2188" y2="566.1406"/><text fill="#000000" font-family="sans-serif" font-size="14" lengthAdjust="spacing" textLength="29" x="68.75" y="118.1426">User</text><ellipse cx="86.25" cy="52.1094" fill="#E3E3E3" rx="8" ry="8" style="stroke:#181818;stroke-width:0.5;"/><path d="M86.25,60.1094 L86.25,87.1094 M73.25,68.1094 L99.25,68.1094 M86.25,87.1094 L73.25,102.1094 M86.25,87.1094 L99.25,102.1094 " fill="none" style="stroke:#181818;stroke-width:0.5;"/><text fill="#000000" font-family="sans-serif" font-size="14" lengthAdjust="spacing" textLength="29" x="68.75" y="579.6738">User</text><ellipse cx="86.25" cy="591.25" fill="#E3E3E3" rx="8" ry="8" style="stroke:#181818;stroke-width:0.5;"/><path d="M86.25,599.25 L86.25,626.25 M73.25,607.25 L99.25,607.25 M86.25,626.25 L73.25,641.25 M86.25,626.25 L99.25,641.25 " fill="none" style="stroke:#181818;stroke-width:0.5;"/><rect fill="#E3E3E3" height="49.2188" rx="2.5" ry="2.5" style="stroke:#181818;stroke-width:0.5;" width="156" x="386.25" y="71"/><text fill="#000000" font-family="sans-serif" font-size="14" font-style="italic" lengthAdjust="spacing" textLength="92" x="418.25" y="92.5332">«system (C4)»</text><text fill="#000000" font-family="sans-serif" font-size="14" lengthAdjust="spacing" textLength="142" x="393.25" y="110.1426">RobDroneGo WebApp</text><rect fill="#E3E3E3" height="49.2188" rx="2.5" ry="2.5" style="stroke:#181818;stroke-width:0.5;" width="156" x="386.25" y="565.1406"/><text fill="#000000" font-family="sans-serif" font-size="14" font-style="italic" lengthAdjust="spacing" textLength="92" x="418.25" y="586.6738">«system (C4)»</text><text fill="#000000" font-family="sans-serif" font-size="14" lengthAdjust="spacing" textLength="142" x="393.25" y="604.2832">RobDroneGo WebApp</text><rect fill="#FFFFFF" height="416.9219" style="stroke:#181818;stroke-width:1.0;" width="10" x="81.25" y="131.2188"/><rect fill="#FFFFFF" height="30.3516" style="stroke:#181818;stroke-width:1.0;" width="10" x="459.25" y="153.5703"/><rect fill="#FFFFFF" height="30.3516" style="stroke:#181818;stroke-width:1.0;" width="10" x="459.25" y="214.2734"/><rect fill="#FFFFFF" height="30.3516" style="stroke:#181818;stroke-width:1.0;" width="10" x="459.25" y="274.9766"/><rect fill="#FFFFFF" height="30.3516" style="stroke:#181818;stroke-width:1.0;" width="10" x="459.25" y="335.6797"/><rect fill="#FFFFFF" height="30.3516" style="stroke:#181818;stroke-width:1.0;" width="10" x="459.25" y="396.3828"/><rect fill="#FFFFFF" height="30.3516" style="stroke:#181818;stroke-width:1.0;" width="10" x="459.25" y="457.0859"/><rect fill="#FFFFFF" height="30.3516" style="stroke:#181818;stroke-width:1.0;" width="10" x="459.25" y="517.7891"/><polygon fill="#181818" points="447.25,149.5703,457.25,153.5703,447.25,157.5703,451.25,153.5703" style="stroke:#181818;stroke-width:1.0;"/><line style="stroke:#181818;stroke-width:1.0;" x1="91.25" x2="453.25" y1="153.5703" y2="153.5703"/><text fill="#000000" font-family="sans-serif" font-size="13" font-weight="bold" lengthAdjust="spacing" textLength="7" x="98.25" y="148.7139">1</text><text fill="#000000" font-family="sans-serif" font-size="13" lengthAdjust="spacing" textLength="227" x="109.25" y="148.7139">Ask to request a pickup &amp; delivery task</text><polygon fill="#181818" points="102.25,179.9219,92.25,183.9219,102.25,187.9219,98.25,183.9219" style="stroke:#181818;stroke-width:1.0;"/><line style="stroke:#181818;stroke-width:1.0;stroke-dasharray:2.0,2.0;" x1="96.25" x2="463.25" y1="183.9219" y2="183.9219"/><text fill="#000000" font-family="sans-serif" font-size="13" font-weight="bold" lengthAdjust="spacing" textLength="7" x="108.25" y="179.0654">2</text><text fill="#000000" font-family="sans-serif" font-size="13" lengthAdjust="spacing" textLength="328" x="119.25" y="179.0654">List the existing rooms and ask to choose one for pickup</text><polygon fill="#181818" points="447.25,210.2734,457.25,214.2734,447.25,218.2734,451.25,214.2734" style="stroke:#181818;stroke-width:1.0;"/><line style="stroke:#181818;stroke-width:1.0;" x1="91.25" x2="453.25" y1="214.2734" y2="214.2734"/><text fill="#000000" font-family="sans-serif" font-size="13" font-weight="bold" lengthAdjust="spacing" textLength="7" x="98.25" y="209.417">3</text><text fill="#000000" font-family="sans-serif" font-size="13" lengthAdjust="spacing" textLength="159" x="109.25" y="209.417">Choose one room to pickup</text><polygon fill="#181818" points="102.25,240.625,92.25,244.625,102.25,248.625,98.25,244.625" style="stroke:#181818;stroke-width:1.0;"/><line style="stroke:#181818;stroke-width:1.0;stroke-dasharray:2.0,2.0;" x1="96.25" x2="463.25" y1="244.625" y2="244.625"/><text fill="#000000" font-family="sans-serif" font-size="13" font-weight="bold" lengthAdjust="spacing" textLength="7" x="108.25" y="239.7686">4</text><text fill="#000000" font-family="sans-serif" font-size="13" lengthAdjust="spacing" textLength="333" x="119.25" y="239.7686">List the existing rooms and ask to choose one for delivery</text><polygon fill="#181818" points="447.25,270.9766,457.25,274.9766,447.25,278.9766,451.25,274.9766" style="stroke:#181818;stroke-width:1.0;"/><line style="stroke:#181818;stroke-width:1.0;" x1="91.25" x2="453.25" y1="274.9766" y2="274.9766"/><text fill="#000000" font-family="sans-serif" font-size="13" font-weight="bold" lengthAdjust="spacing" textLength="7" x="98.25" y="270.1201">5</text><text fill="#000000" font-family="sans-serif" font-size="13" lengthAdjust="spacing" textLength="167" x="109.25" y="270.1201">Choose one room for delivery</text><polygon fill="#181818" points="102.25,301.3281,92.25,305.3281,102.25,309.3281,98.25,305.3281" style="stroke:#181818;stroke-width:1.0;"/><line style="stroke:#181818;stroke-width:1.0;stroke-dasharray:2.0,2.0;" x1="96.25" x2="463.25" y1="305.3281" y2="305.3281"/><text fill="#000000" font-family="sans-serif" font-size="13" font-weight="bold" lengthAdjust="spacing" textLength="7" x="108.25" y="300.4717">6</text><text fill="#000000" font-family="sans-serif" font-size="13" lengthAdjust="spacing" textLength="328" x="119.25" y="300.4717">Ask to insert name and phone number for pickup contact</text><polygon fill="#181818" points="447.25,331.6797,457.25,335.6797,447.25,339.6797,451.25,335.6797" style="stroke:#181818;stroke-width:1.0;"/><line style="stroke:#181818;stroke-width:1.0;" x1="91.25" x2="453.25" y1="335.6797" y2="335.6797"/><text fill="#000000" font-family="sans-serif" font-size="13" font-weight="bold" lengthAdjust="spacing" textLength="7" x="98.25" y="330.8232">7</text><text fill="#000000" font-family="sans-serif" font-size="13" lengthAdjust="spacing" textLength="61" x="109.25" y="330.8232">Insert data</text><polygon fill="#181818" points="102.25,362.0313,92.25,366.0313,102.25,370.0313,98.25,366.0313" style="stroke:#181818;stroke-width:1.0;"/><line style="stroke:#181818;stroke-width:1.0;stroke-dasharray:2.0,2.0;" x1="96.25" x2="463.25" y1="366.0313" y2="366.0313"/><text fill="#000000" font-family="sans-serif" font-size="13" font-weight="bold" lengthAdjust="spacing" textLength="7" x="108.25" y="361.1748">8</text><text fill="#000000" font-family="sans-serif" font-size="13" lengthAdjust="spacing" textLength="333" x="119.25" y="361.1748">Ask to insert name and phone number for delivery contact</text><polygon fill="#181818" points="447.25,392.3828,457.25,396.3828,447.25,400.3828,451.25,396.3828" style="stroke:#181818;stroke-width:1.0;"/><line style="stroke:#181818;stroke-width:1.0;" x1="91.25" x2="453.25" y1="396.3828" y2="396.3828"/><text fill="#000000" font-family="sans-serif" font-size="13" font-weight="bold" lengthAdjust="spacing" textLength="7" x="98.25" y="391.5264">9</text><text fill="#000000" font-family="sans-serif" font-size="13" lengthAdjust="spacing" textLength="61" x="109.25" y="391.5264">Insert data</text><polygon fill="#181818" points="102.25,422.7344,92.25,426.7344,102.25,430.7344,98.25,426.7344" style="stroke:#181818;stroke-width:1.0;"/><line style="stroke:#181818;stroke-width:1.0;stroke-dasharray:2.0,2.0;" x1="96.25" x2="463.25" y1="426.7344" y2="426.7344"/><text fill="#000000" font-family="sans-serif" font-size="13" font-weight="bold" lengthAdjust="spacing" textLength="14" x="108.25" y="421.8779">10</text><text fill="#000000" font-family="sans-serif" font-size="13" lengthAdjust="spacing" textLength="152" x="126.25" y="421.8779">Ask to insert a description</text><polygon fill="#181818" points="447.25,453.0859,457.25,457.0859,447.25,461.0859,451.25,457.0859" style="stroke:#181818;stroke-width:1.0;"/><line style="stroke:#181818;stroke-width:1.0;stroke-dasharray:2.0,2.0;" x1="91.25" x2="453.25" y1="457.0859" y2="457.0859"/><text fill="#000000" font-family="sans-serif" font-size="13" font-weight="bold" lengthAdjust="spacing" textLength="14" x="98.25" y="452.2295">11</text><text fill="#000000" font-family="sans-serif" font-size="13" lengthAdjust="spacing" textLength="99" x="116.25" y="452.2295">Insert description</text><polygon fill="#181818" points="102.25,483.4375,92.25,487.4375,102.25,491.4375,98.25,487.4375" style="stroke:#181818;stroke-width:1.0;"/><line style="stroke:#181818;stroke-width:1.0;stroke-dasharray:2.0,2.0;" x1="96.25" x2="463.25" y1="487.4375" y2="487.4375"/><text fill="#000000" font-family="sans-serif" font-size="13" font-weight="bold" lengthAdjust="spacing" textLength="14" x="108.25" y="482.5811">12</text><text fill="#000000" font-family="sans-serif" font-size="13" lengthAdjust="spacing" textLength="191" x="126.25" y="482.5811">Ask to insert a confirmation code</text><polygon fill="#181818" points="447.25,513.7891,457.25,517.7891,447.25,521.7891,451.25,517.7891" style="stroke:#181818;stroke-width:1.0;"/><line style="stroke:#181818;stroke-width:1.0;stroke-dasharray:2.0,2.0;" x1="91.25" x2="453.25" y1="517.7891" y2="517.7891"/><text fill="#000000" font-family="sans-serif" font-size="13" font-weight="bold" lengthAdjust="spacing" textLength="14" x="98.25" y="512.9326">13</text><text fill="#000000" font-family="sans-serif" font-size="13" lengthAdjust="spacing" textLength="149" x="116.25" y="512.9326">Insert a confirmation code</text><polygon fill="#181818" points="97.25,544.1406,87.25,548.1406,97.25,552.1406,93.25,548.1406" style="stroke:#181818;stroke-width:1.0;"/><line style="stroke:#181818;stroke-width:1.0;stroke-dasharray:2.0,2.0;" x1="91.25" x2="463.25" y1="548.1406" y2="548.1406"/><text fill="#000000" font-family="sans-serif" font-size="13" font-weight="bold" lengthAdjust="spacing" textLength="14" x="103.25" y="543.2842">14</text><text fill="#000000" font-family="sans-serif" font-size="13" lengthAdjust="spacing" textLength="144" x="121.25" y="543.2842">Task created / Data error</text><!--MD5=[7433878b84f71eac414f69c81a2eba66]
@startuml
skinparam monochrome true
skinparam packageStyle rectangle
skinparam shadowing false

title System Sequence Diagram (Level 1 - Process View) - US 460 - Pickup & Delivery Task
autonumber

Actor "User" as user
participant "RobDroneGo WebApp" as WebSite <<system (C4)>>

activate user
    user -> WebSite : Ask to request a pickup & delivery task
    activate WebSite
        WebSite - -> user : List the existing rooms and ask to choose one for pickup
    deactivate WebSite

    user -> WebSite : Choose one room to pickup
    activate WebSite
        WebSite - -> user : List the existing rooms and ask to choose one for delivery
    deactivate WebSite
    user -> WebSite : Choose one room for delivery
    
    activate WebSite
        WebSite - -> user : Ask to insert name and phone number for pickup contact
    deactivate WebSite
    user -> WebSite : Insert data

    activate WebSite
        WebSite - -> user : Ask to insert name and phone number for delivery contact
    deactivate WebSite
    user -> WebSite : Insert data

    activate WebSite
        WebSite - -> user : Ask to insert a description
    deactivate WebSite
    user - -> WebSite : Insert description

    activate WebSite
        WebSite - -> user : Ask to insert a confirmation code
    deactivate WebSite
    user - -> WebSite : Insert a confirmation code

    activate WebSite
        WebSite - -> user : Task created / Data error
    deactivate WebSite
deactivate user

@enduml

PlantUML version 1.2022.7(Mon Aug 22 18:01:30 WEST 2022)
(GPL source distribution)
Java Runtime: Java(TM) SE Runtime Environment
JVM: Java HotSpot(TM) 64-Bit Server VM
Default Encoding: Cp1252
Language: pt
Country: PT
--></g></svg>