<?xml version="1.0" encoding="UTF-8" standalone="no"?><svg xmlns="http://www.w3.org/2000/svg" xmlns:xlink="http://www.w3.org/1999/xlink" contentStyleType="text/css" height="724px" preserveAspectRatio="none" style="width:1856px;height:724px;background:#FFFFFF;" version="1.1" viewBox="0 0 1856 724" width="1856px" zoomAndPan="magnify"><defs/><g><rect fill="none" height="27.6094" id="_title" style="stroke:none;stroke-width:1.0;" width="235" x="812.25" y="10"/><text fill="#000000" font-family="sans-serif" font-size="14" font-weight="bold" lengthAdjust="spacing" textLength="225" x="817.25" y="29.5332">Sequence Diagram (SD) - US 180</text><rect fill="#FFFFFF" height="439.6953" style="stroke:#181818;stroke-width:1.0;" width="10" x="357" y="152.4375"/><rect fill="#FFFFFF" height="291.9375" style="stroke:#181818;stroke-width:1.0;" width="10" x="607" y="269.8438"/><rect fill="#FFFFFF" height="231.2344" style="stroke:#181818;stroke-width:1.0;" width="10" x="995" y="300.1953"/><rect fill="#FFFFFF" height="30" style="stroke:#181818;stroke-width:1.0;" width="10" x="1478" y="330.5469"/><rect fill="#FFFFFF" height="30.3516" style="stroke:#181818;stroke-width:1.0;" width="10" x="1621.5" y="416.25"/><rect fill="none" height="81.0547" style="stroke:#000000;stroke-width:1.5;" width="427" x="10" y="159.4375"/><rect fill="none" height="126.5313" style="stroke:#000000;stroke-width:1.5;" width="934" x="916.5" y="375.5469"/><line style="stroke:#181818;stroke-width:0.5;stroke-dasharray:5.0,5.0;" x1="362" x2="362" y1="142.4375" y2="610.1328"/><line style="stroke:#181818;stroke-width:0.5;stroke-dasharray:5.0,5.0;" x1="612" x2="612" y1="142.4375" y2="610.1328"/><line style="stroke:#181818;stroke-width:0.5;stroke-dasharray:5.0,5.0;" x1="999.5" x2="999.5" y1="142.4375" y2="610.1328"/><line style="stroke:#181818;stroke-width:0.5;stroke-dasharray:5.0,5.0;" x1="1133.5" x2="1133.5" y1="142.4375" y2="610.1328"/><line style="stroke:#181818;stroke-width:0.5;stroke-dasharray:5.0,5.0;" x1="1232.5" x2="1232.5" y1="142.4375" y2="610.1328"/><line style="stroke:#181818;stroke-width:0.5;stroke-dasharray:5.0,5.0;" x1="1483" x2="1483" y1="142.4375" y2="610.1328"/><line style="stroke:#181818;stroke-width:0.5;stroke-dasharray:5.0,5.0;" x1="1626" x2="1626" y1="142.4375" y2="610.1328"/><line style="stroke:#181818;stroke-width:0.5;stroke-dasharray:5.0,5.0;" x1="1775.5" x2="1775.5" y1="473.1641" y2="610.1328"/><rect fill="#E3E3E3" height="49.2188" rx="2.5" ry="2.5" style="stroke:#181818;stroke-width:0.5;" width="130" x="297" y="92.2188"/><text fill="#000000" font-family="sans-serif" font-size="14" font-style="italic" lengthAdjust="spacing" textLength="46" x="339" y="113.752">«Web»</text><text fill="#000000" font-family="sans-serif" font-size="14" lengthAdjust="spacing" textLength="116" x="304" y="131.3613">passagewayRoute</text><rect fill="#E3E3E3" height="49.2188" rx="2.5" ry="2.5" style="stroke:#181818;stroke-width:0.5;" width="130" x="297" y="609.1328"/><text fill="#000000" font-family="sans-serif" font-size="14" font-style="italic" lengthAdjust="spacing" textLength="46" x="339" y="630.666">«Web»</text><text fill="#000000" font-family="sans-serif" font-size="14" lengthAdjust="spacing" textLength="116" x="304" y="648.2754">passagewayRoute</text><text fill="#000000" font-family="sans-serif" font-size="14" font-style="italic" lengthAdjust="spacing" textLength="85" x="566.5" y="104.1426">«Controllers»</text><text fill="#000000" font-family="sans-serif" font-size="14" lengthAdjust="spacing" textLength="148" x="535" y="121.752">passagewayController :</text><text fill="#000000" font-family="sans-serif" font-size="14" lengthAdjust="spacing" textLength="140" x="541" y="139.3613">passagewayController</text><ellipse cx="612" cy="73.6094" fill="#E3E3E3" rx="12" ry="12" style="stroke:#181818;stroke-width:0.5;"/><polygon fill="#181818" points="608,61.6094,614,56.6094,612,61.6094,614,66.6094,608,61.6094" style="stroke:#181818;stroke-width:1.0;"/><text fill="#000000" font-family="sans-serif" font-size="14" font-style="italic" lengthAdjust="spacing" textLength="85" x="566.5" y="623.666">«Controllers»</text><text fill="#000000" font-family="sans-serif" font-size="14" lengthAdjust="spacing" textLength="148" x="535" y="641.2754">passagewayController :</text><text fill="#000000" font-family="sans-serif" font-size="14" lengthAdjust="spacing" textLength="140" x="541" y="658.8848">passagewayController</text><ellipse cx="612" cy="677.9609" fill="#E3E3E3" rx="12" ry="12" style="stroke:#181818;stroke-width:0.5;"/><polygon fill="#181818" points="608,665.9609,614,660.9609,612,665.9609,614,670.9609,608,665.9609" style="stroke:#181818;stroke-width:1.0;"/><rect fill="#E3E3E3" height="66.8281" rx="2.5" ry="2.5" style="stroke:#181818;stroke-width:0.5;" width="147" x="926.5" y="74.6094"/><text fill="#000000" font-family="sans-serif" font-size="14" font-style="italic" lengthAdjust="spacing" textLength="85" x="957.5" y="96.1426">«Use Cases»</text><text fill="#000000" font-family="sans-serif" font-size="14" lengthAdjust="spacing" textLength="133" x="933.5" y="113.752">passagewayService :</text><text fill="#000000" font-family="sans-serif" font-size="14" lengthAdjust="spacing" textLength="125" x="939.5" y="131.3613">passagewayService</text><rect fill="#E3E3E3" height="66.8281" rx="2.5" ry="2.5" style="stroke:#181818;stroke-width:0.5;" width="147" x="926.5" y="609.1328"/><text fill="#000000" font-family="sans-serif" font-size="14" font-style="italic" lengthAdjust="spacing" textLength="85" x="957.5" y="630.666">«Use Cases»</text><text fill="#000000" font-family="sans-serif" font-size="14" lengthAdjust="spacing" textLength="133" x="933.5" y="648.2754">passagewayService :</text><text fill="#000000" font-family="sans-serif" font-size="14" lengthAdjust="spacing" textLength="125" x="939.5" y="665.8848">passagewayService</text><rect fill="#E3E3E3" height="66.8281" rx="2.5" ry="2.5" style="stroke:#181818;stroke-width:0.5;" width="100" x="1083.5" y="74.6094"/><text fill="#000000" font-family="sans-serif" font-size="14" font-style="italic" lengthAdjust="spacing" textLength="64" x="1101.5" y="96.1426">«Domain»</text><text fill="#000000" font-family="sans-serif" font-size="14" lengthAdjust="spacing" textLength="86" x="1090.5" y="113.752">passageway :</text><text fill="#000000" font-family="sans-serif" font-size="14" lengthAdjust="spacing" textLength="78" x="1096.5" y="131.3613">passageway</text><rect fill="#E3E3E3" height="66.8281" rx="2.5" ry="2.5" style="stroke:#181818;stroke-width:0.5;" width="100" x="1083.5" y="609.1328"/><text fill="#000000" font-family="sans-serif" font-size="14" font-style="italic" lengthAdjust="spacing" textLength="64" x="1101.5" y="630.666">«Domain»</text><text fill="#000000" font-family="sans-serif" font-size="14" lengthAdjust="spacing" textLength="86" x="1090.5" y="648.2754">passageway :</text><text fill="#000000" font-family="sans-serif" font-size="14" lengthAdjust="spacing" textLength="78" x="1096.5" y="665.8848">passageway</text><rect fill="#E3E3E3" height="66.8281" rx="2.5" ry="2.5" style="stroke:#181818;stroke-width:0.5;" width="78" x="1193.5" y="74.6094"/><text fill="#000000" font-family="sans-serif" font-size="14" font-style="italic" lengthAdjust="spacing" textLength="64" x="1200.5" y="96.1426">«Domain»</text><text fill="#000000" font-family="sans-serif" font-size="14" lengthAdjust="spacing" textLength="36" x="1214.5" y="113.752">floor :</text><text fill="#000000" font-family="sans-serif" font-size="14" lengthAdjust="spacing" textLength="28" x="1220.5" y="131.3613">floor</text><rect fill="#E3E3E3" height="66.8281" rx="2.5" ry="2.5" style="stroke:#181818;stroke-width:0.5;" width="78" x="1193.5" y="609.1328"/><text fill="#000000" font-family="sans-serif" font-size="14" font-style="italic" lengthAdjust="spacing" textLength="64" x="1200.5" y="630.666">«Domain»</text><text fill="#000000" font-family="sans-serif" font-size="14" lengthAdjust="spacing" textLength="36" x="1214.5" y="648.2754">floor :</text><text fill="#000000" font-family="sans-serif" font-size="14" lengthAdjust="spacing" textLength="28" x="1220.5" y="665.8848">floor</text><text fill="#000000" font-family="sans-serif" font-size="14" font-style="italic" lengthAdjust="spacing" textLength="78" x="1441" y="104.1426">«Gateways»</text><text fill="#000000" font-family="sans-serif" font-size="14" lengthAdjust="spacing" textLength="120" x="1420" y="121.752">passagewayRepo :</text><text fill="#000000" font-family="sans-serif" font-size="14" lengthAdjust="spacing" textLength="112" x="1426" y="139.3613">passagewayRepo</text><path d="M1465,53.6094 C1465,43.6094 1483,43.6094 1483,43.6094 C1483,43.6094 1501,43.6094 1501,53.6094 L1501,79.6094 C1501,89.6094 1483,89.6094 1483,89.6094 C1483,89.6094 1465,89.6094 1465,79.6094 L1465,53.6094 " fill="#E3E3E3" style="stroke:#181818;stroke-width:1.5;"/><path d="M1465,53.6094 C1465,63.6094 1483,63.6094 1483,63.6094 C1483,63.6094 1501,63.6094 1501,53.6094 " fill="none" style="stroke:#181818;stroke-width:1.5;"/><text fill="#000000" font-family="sans-serif" font-size="14" font-style="italic" lengthAdjust="spacing" textLength="78" x="1441" y="623.666">«Gateways»</text><text fill="#000000" font-family="sans-serif" font-size="14" lengthAdjust="spacing" textLength="120" x="1420" y="641.2754">passagewayRepo :</text><text fill="#000000" font-family="sans-serif" font-size="14" lengthAdjust="spacing" textLength="112" x="1426" y="658.8848">passagewayRepo</text><path d="M1465,671.9609 C1465,661.9609 1483,661.9609 1483,661.9609 C1483,661.9609 1501,661.9609 1501,671.9609 L1501,697.9609 C1501,707.9609 1483,707.9609 1483,707.9609 C1483,707.9609 1465,707.9609 1465,697.9609 L1465,671.9609 " fill="#E3E3E3" style="stroke:#181818;stroke-width:1.5;"/><path d="M1465,671.9609 C1465,681.9609 1483,681.9609 1483,681.9609 C1483,681.9609 1501,681.9609 1501,671.9609 " fill="none" style="stroke:#181818;stroke-width:1.5;"/><rect fill="#E3E3E3" height="49.2188" rx="2.5" ry="2.5" style="stroke:#181818;stroke-width:0.5;" width="141" x="1556" y="92.2188"/><text fill="#000000" font-family="sans-serif" font-size="14" font-style="italic" lengthAdjust="spacing" textLength="65" x="1594" y="113.752">«Mapper»</text><text fill="#000000" font-family="sans-serif" font-size="14" lengthAdjust="spacing" textLength="127" x="1563" y="131.3613">PassagewayMapper</text><rect fill="#E3E3E3" height="49.2188" rx="2.5" ry="2.5" style="stroke:#181818;stroke-width:0.5;" width="141" x="1556" y="609.1328"/><text fill="#000000" font-family="sans-serif" font-size="14" font-style="italic" lengthAdjust="spacing" textLength="65" x="1594" y="630.666">«Mapper»</text><text fill="#000000" font-family="sans-serif" font-size="14" lengthAdjust="spacing" textLength="127" x="1563" y="648.2754">PassagewayMapper</text><rect fill="#E3E3E3" height="66.8281" rx="2.5" ry="2.5" style="stroke:#181818;stroke-width:0.5;" width="130" x="1710.5" y="609.1328"/><text fill="#000000" font-family="sans-serif" font-size="14" font-style="italic" lengthAdjust="spacing" textLength="46" x="1752.5" y="630.666">«DTO»</text><text fill="#000000" font-family="sans-serif" font-size="14" lengthAdjust="spacing" textLength="116" x="1717.5" y="648.2754">passagewayDTO :</text><text fill="#000000" font-family="sans-serif" font-size="14" lengthAdjust="spacing" textLength="109" x="1723" y="665.8848">PassagewayDTO</text><rect fill="#FFFFFF" height="439.6953" style="stroke:#181818;stroke-width:1.0;" width="10" x="357" y="152.4375"/><rect fill="#FFFFFF" height="291.9375" style="stroke:#181818;stroke-width:1.0;" width="10" x="607" y="269.8438"/><rect fill="#FFFFFF" height="231.2344" style="stroke:#181818;stroke-width:1.0;" width="10" x="995" y="300.1953"/><rect fill="#FFFFFF" height="30" style="stroke:#181818;stroke-width:1.0;" width="10" x="1478" y="330.5469"/><rect fill="#FFFFFF" height="30.3516" style="stroke:#181818;stroke-width:1.0;" width="10" x="1621.5" y="416.25"/><path d="M10,159.4375 L71,159.4375 L71,167.7891 L61,177.7891 L10,177.7891 L10,159.4375 " fill="#EEEEEE" style="stroke:#000000;stroke-width:1.5;"/><rect fill="none" height="81.0547" style="stroke:#000000;stroke-width:1.5;" width="427" x="10" y="159.4375"/><text fill="#000000" font-family="sans-serif" font-size="13" font-weight="bold" lengthAdjust="spacing" textLength="16" x="25" y="173.9326">alt</text><ellipse cx="186.5" cy="199.3906" fill="none" rx="4" ry="4" style="stroke:#181818;stroke-width:1.5;"/><polygon fill="#181818" points="345,196.1406,355,200.1406,345,204.1406,349,200.1406" style="stroke:#181818;stroke-width:1.0;"/><line style="stroke:#181818;stroke-width:1.0;" x1="191" x2="351" y1="200.1406" y2="200.1406"/><text fill="#000000" font-family="sans-serif" font-size="13" font-weight="bold" lengthAdjust="spacing" textLength="7" x="194" y="195.2842">1</text><text fill="#000000" font-family="sans-serif" font-size="13" lengthAdjust="spacing" textLength="137" x="205" y="195.2842">GET (.../passageways/)</text><line style="stroke:#000000;stroke-width:1.0;stroke-dasharray:2.0,2.0;" x1="10" x2="437" y1="209.1406" y2="209.1406"/><ellipse cx="6.5" cy="231.7422" fill="none" rx="4" ry="4" style="stroke:#181818;stroke-width:1.5;"/><polygon fill="#181818" points="345,228.4922,355,232.4922,345,236.4922,349,232.4922" style="stroke:#181818;stroke-width:1.0;"/><line style="stroke:#181818;stroke-width:1.0;" x1="11" x2="351" y1="232.4922" y2="232.4922"/><text fill="#000000" font-family="sans-serif" font-size="13" font-weight="bold" lengthAdjust="spacing" textLength="7" x="14" y="227.6357">2</text><text fill="#000000" font-family="sans-serif" font-size="13" lengthAdjust="spacing" textLength="317" x="25" y="227.6357">GET (.../passageways?building_1=:b1&amp;building_2=:b2)</text><polygon fill="#181818" points="595,265.8438,605,269.8438,595,273.8438,599,269.8438" style="stroke:#181818;stroke-width:1.0;"/><line style="stroke:#181818;stroke-width:1.0;" x1="367" x2="601" y1="269.8438" y2="269.8438"/><text fill="#000000" font-family="sans-serif" font-size="13" font-weight="bold" lengthAdjust="spacing" textLength="7" x="374" y="264.9873">3</text><text fill="#000000" font-family="sans-serif" font-size="13" lengthAdjust="spacing" textLength="210" x="385" y="264.9873">getPassagewaysBetweenBuildings()</text><polygon fill="#181818" points="983,296.1953,993,300.1953,983,304.1953,987,300.1953" style="stroke:#181818;stroke-width:1.0;"/><line style="stroke:#181818;stroke-width:1.0;" x1="617" x2="989" y1="300.1953" y2="300.1953"/><text fill="#000000" font-family="sans-serif" font-size="13" font-weight="bold" lengthAdjust="spacing" textLength="7" x="624" y="295.3389">4</text><text fill="#000000" font-family="sans-serif" font-size="13" lengthAdjust="spacing" textLength="348" x="635" y="295.3389">getPassagewaysBetweenBuildings(building_1?, building_2?)</text><polygon fill="#181818" points="1466,326.5469,1476,330.5469,1466,334.5469,1470,330.5469" style="stroke:#181818;stroke-width:1.0;"/><line style="stroke:#181818;stroke-width:1.0;" x1="1005" x2="1472" y1="330.5469" y2="330.5469"/><text fill="#000000" font-family="sans-serif" font-size="13" font-weight="bold" lengthAdjust="spacing" textLength="7" x="1012" y="325.6904">5</text><text fill="#000000" font-family="sans-serif" font-size="13" lengthAdjust="spacing" textLength="443" x="1023" y="325.6904">passageways = getPassagewaysBetweenBuildings(building_1?, building_2?)</text><path d="M916.5,375.5469 L989.5,375.5469 L989.5,383.8984 L979.5,393.8984 L916.5,393.8984 L916.5,375.5469 " fill="#EEEEEE" style="stroke:#000000;stroke-width:1.5;"/><rect fill="none" height="126.5313" style="stroke:#000000;stroke-width:1.5;" width="934" x="916.5" y="375.5469"/><text fill="#000000" font-family="sans-serif" font-size="13" font-weight="bold" lengthAdjust="spacing" textLength="28" x="931.5" y="390.042">loop</text><text fill="#000000" font-family="sans-serif" font-size="11" font-weight="bold" lengthAdjust="spacing" textLength="113" x="1004.5" y="388.9658">[each passageways]</text><polygon fill="#181818" points="1609.5,412.25,1619.5,416.25,1609.5,420.25,1613.5,416.25" style="stroke:#181818;stroke-width:1.0;"/><line style="stroke:#181818;stroke-width:1.0;" x1="1005" x2="1615.5" y1="416.25" y2="416.25"/><text fill="#000000" font-family="sans-serif" font-size="13" font-weight="bold" lengthAdjust="spacing" textLength="7" x="1012" y="411.3936">6</text><text fill="#000000" font-family="sans-serif" font-size="13" lengthAdjust="spacing" textLength="238" x="1023" y="411.3936">passagewaysDTO = toDTO(passageway)</text><polygon fill="#181818" points="1698.5,442.6016,1708.5,446.6016,1698.5,450.6016,1702.5,446.6016" style="stroke:#181818;stroke-width:1.0;"/><line style="stroke:#181818;stroke-width:1.0;stroke-dasharray:2.0,2.0;" x1="1626.5" x2="1704.5" y1="446.6016" y2="446.6016"/><text fill="#000000" font-family="sans-serif" font-size="13" font-weight="bold" lengthAdjust="spacing" textLength="7" x="1633.5" y="441.7451">7</text><text fill="#000000" font-family="sans-serif" font-size="13" lengthAdjust="spacing" textLength="44" x="1644.5" y="441.7451">create()</text><rect fill="#E3E3E3" height="66.8281" rx="2.5" ry="2.5" style="stroke:#181818;stroke-width:0.5;" width="130" x="1710.5" y="424.25"/><text fill="#000000" font-family="sans-serif" font-size="14" font-style="italic" lengthAdjust="spacing" textLength="46" x="1752.5" y="445.7832">«DTO»</text><text fill="#000000" font-family="sans-serif" font-size="14" lengthAdjust="spacing" textLength="116" x="1717.5" y="463.3926">passagewayDTO :</text><text fill="#000000" font-family="sans-serif" font-size="14" lengthAdjust="spacing" textLength="109" x="1723" y="481.002">PassagewayDTO</text><polygon fill="#181818" points="628,527.4297,618,531.4297,628,535.4297,624,531.4297" style="stroke:#181818;stroke-width:1.0;"/><line style="stroke:#181818;stroke-width:1.0;stroke-dasharray:2.0,2.0;" x1="622" x2="999" y1="531.4297" y2="531.4297"/><text fill="#000000" font-family="sans-serif" font-size="13" font-weight="bold" lengthAdjust="spacing" textLength="7" x="634" y="526.5732">8</text><text fill="#000000" font-family="sans-serif" font-size="13" lengthAdjust="spacing" textLength="105" x="645" y="526.5732">passagewaysDTO</text><polygon fill="#181818" points="378,557.7813,368,561.7813,378,565.7813,374,561.7813" style="stroke:#181818;stroke-width:1.0;"/><line style="stroke:#181818;stroke-width:1.0;stroke-dasharray:2.0,2.0;" x1="372" x2="611" y1="561.7813" y2="561.7813"/><text fill="#000000" font-family="sans-serif" font-size="13" font-weight="bold" lengthAdjust="spacing" textLength="7" x="384" y="556.9248">9</text><text fill="#000000" font-family="sans-serif" font-size="13" lengthAdjust="spacing" textLength="105" x="395" y="556.9248">passagewaysDTO</text><polygon fill="#181818" points="11,588.1328,1,592.1328,11,596.1328,7,592.1328" style="stroke:#181818;stroke-width:1.0;"/><line style="stroke:#181818;stroke-width:1.0;stroke-dasharray:2.0,2.0;" x1="5" x2="361" y1="592.1328" y2="592.1328"/><text fill="#000000" font-family="sans-serif" font-size="13" font-weight="bold" lengthAdjust="spacing" textLength="14" x="17" y="587.2764">10</text><text fill="#000000" font-family="sans-serif" font-size="13" lengthAdjust="spacing" textLength="105" x="35" y="587.2764">passagewaysDTO</text><!--MD5=[d8fd2a6d10aa17da21e864ff8db5df05]
@startuml
skinparam monochrome true
skinparam packageStyle rectangle
skinparam shadowing false

title Sequence Diagram (SD) - US 180
autonumber

participant passagewayRoute as route <<Web>>
control "passagewayController :\n passagewayController" as controller <<Controllers>>
participant "passagewayService :\n passagewayService" as passagewayService <<Use Cases>>
participant "passageway :\n passageway" as passageway <<Domain>>
participant "floor :\n floor" as floor <<Domain>>
database "passagewayRepo :\n passagewayRepo" as passagewayRepo <<Gateways>>
participant PassagewayMapper as passagewayMapper <<Mapper>>
participant "passagewayDTO :\n PassagewayDTO" as passagewayDTO <<DTO>>

alt
    ?o->route : GET (.../passageways/)
else
    ?o->route : GET (.../passageways?building_1=:b1&building_2=:b2)
end
activate route
    route -> controller : getPassagewaysBetweenBuildings()

    activate controller
        controller -> passagewayService : getPassagewaysBetweenBuildings(building_1?, building_2?)

        activate passagewayService
            passagewayService -> passagewayRepo : passageways = getPassagewaysBetweenBuildings(building_1?, building_2?)
            activate passagewayRepo
            deactivate passagewayRepo

            loop each passageways
                passagewayService -> passagewayMapper : passagewaysDTO = toDTO(passageway)
                activate passagewayMapper
                    passagewayMapper - -> passagewayDTO** : create()
                deactivate passagewayMapper
            end

            passagewayService - -> controller : passagewaysDTO
        deactivate passagewayService

        controller - -> route : passagewaysDTO
    deactivate controller
    <- - route : passagewaysDTO
deactivate route

@enduml

PlantUML version 1.2022.7(Mon Aug 22 18:01:30 WEST 2022)
(GPL source distribution)
Java Runtime: Java(TM) SE Runtime Environment
JVM: Java HotSpot(TM) 64-Bit Server VM
Default Encoding: Cp1252
Language: pt
Country: PT
--></g></svg>