<?xml version="1.0" encoding="us-ascii" standalone="no"?><svg xmlns="http://www.w3.org/2000/svg" xmlns:xlink="http://www.w3.org/1999/xlink" contentStyleType="text/css" height="496px" preserveAspectRatio="none" style="width:635px;height:496px;background:#FFFFFF;" version="1.1" viewBox="0 0 635 496" width="635px" zoomAndPan="magnify"><defs/><g><text fill="#000000" font-family="sans-serif" font-size="25" font-weight="bold" lengthAdjust="spacing" text-decoration="underline" textLength="294" x="163.5" y="36.9775">US 350 - Domain classes</text><!--cluster <<aggregate>> Task--><g id="cluster_&lt;&lt;aggregate&gt;&gt; Task"><path d="M210.5,383.2656 L335.5,383.2656 A3.75,3.75 0 0 1 338,385.7656 L345,407.8867 L345.5,407.8867 A2.5,2.5 0 0 1 348,410.3867 L348,486.7656 A2.5,2.5 0 0 1 345.5,489.2656 L210.5,489.2656 A2.5,2.5 0 0 1 208,486.7656 L208,385.7656 A2.5,2.5 0 0 1 210.5,383.2656 " fill="none" style="stroke:#000000;stroke-width:1.5;"/><line style="stroke:#000000;stroke-width:1.5;" x1="208" x2="345" y1="407.8867" y2="407.8867"/><text fill="#000000" font-family="sans-serif" font-size="14" font-weight="bold" lengthAdjust="spacing" textLength="124" x="212" y="400.373">&#171;aggregate&#187; Task</text></g><!--cluster <<aggregate>> Device--><g id="cluster_&lt;&lt;aggregate&gt;&gt; Device"><path d="M8.5,60.2656 L150.5,60.2656 A3.75,3.75 0 0 1 153,62.7656 L160,84.8867 L625.5,84.8867 A2.5,2.5 0 0 1 628,87.3867 L628,329.7656 A2.5,2.5 0 0 1 625.5,332.2656 L8.5,332.2656 A2.5,2.5 0 0 1 6,329.7656 L6,62.7656 A2.5,2.5 0 0 1 8.5,60.2656 " fill="none" style="stroke:#000000;stroke-width:1.5;"/><line style="stroke:#000000;stroke-width:1.5;" x1="6" x2="160" y1="84.8867" y2="84.8867"/><text fill="#000000" font-family="sans-serif" font-size="14" font-weight="bold" lengthAdjust="spacing" textLength="141" x="10" y="77.373">&#171;aggregate&#187; Device</text></g><!--class TaskType--><g id="elem_TaskType"><rect codeLine="10" fill="#F1F1F1" height="52.582" id="TaskType" rx="2.5" ry="2.5" style="stroke:#181818;stroke-width:0.5;" width="95" x="230.5" y="420.2656"/><ellipse cx="245.5" cy="442.5566" fill="#FF8B40" rx="11" ry="11" style="stroke:#181818;stroke-width:1.0;"/><path d="M246.0938,445.8223 L248.5625,439.9473 L248.1719,439.9473 Q247.5625,439.9473 247.2969,439.7129 Q247.0313,439.4785 247.0313,439.0879 Q247.0313,438.7129 247.2969,438.4785 Q247.5625,438.2441 248.1719,438.2441 L250.4531,438.2441 Q251.0625,438.2441 251.3281,438.4785 Q251.5938,438.7129 251.5938,439.0879 Q251.5938,439.5566 251.1875,439.8223 Q251,439.9473 250.4063,439.9473 L246.9219,448.3066 L245.2813,448.3066 L241.7969,439.9473 Q241.2031,439.9473 241.0156,439.8223 Q240.6094,439.5566 240.6094,439.0879 Q240.6094,438.7129 240.875,438.4785 Q241.1406,438.2441 241.75,438.2441 L244.0469,438.2441 Q244.6563,438.2441 244.9063,438.4785 Q245.1719,438.7129 245.1719,439.0879 Q245.1719,439.4785 244.9063,439.7129 Q244.6563,439.9473 244.0469,439.9473 L243.6406,439.9473 L246.0938,445.8223 Z " fill="#000000"/><text fill="#000000" font-family="sans-serif" font-size="12" font-style="italic" lengthAdjust="spacing" textLength="46" x="268" y="438.2148">&#171;enum&#187;</text><text fill="#000000" font-family="sans-serif" font-size="14" lengthAdjust="spacing" textLength="63" x="259.5" y="456.334">TaskType</text><line style="stroke:#181818;stroke-width:0.5;" x1="231.5" x2="324.5" y1="464.8477" y2="464.8477"/></g><!--class Device--><g id="elem_Device"><rect codeLine="15" fill="#F1F1F1" height="87.1641" id="Device" rx="2.5" ry="2.5" style="stroke:#181818;stroke-width:0.5;" width="85" x="22.5" y="97.2656"/><ellipse cx="42" cy="127.5371" fill="#ADD1B2" rx="11" ry="11" style="stroke:#181818;stroke-width:1.0;"/><path d="M40.8594,128.334 L40.8594,130.834 L45.1875,130.834 L45.1875,129.9121 Q45.1875,129.3027 45.4219,129.0371 Q45.6719,128.7715 46.0469,128.7715 Q46.4219,128.7715 46.6563,129.0371 Q46.8906,129.3027 46.8906,129.9121 L46.8906,132.5371 L38.8906,132.5371 Q38.2656,132.5371 38,132.3027 Q37.75,132.0684 37.75,131.6777 Q37.75,131.3027 38.0156,131.0684 Q38.2813,130.834 38.8906,130.834 L39.1563,130.834 L39.1563,124.1777 L38.8906,124.1777 Q38.2656,124.1777 38,123.9434 Q37.75,123.709 37.75,123.3184 Q37.75,122.9434 38,122.709 Q38.2656,122.4746 38.8906,122.4746 L46.5156,122.4746 L46.5156,125.0684 Q46.5156,125.6777 46.2813,125.9434 Q46.0625,126.1934 45.6719,126.1934 Q45.2969,126.1934 45.0625,125.9434 Q44.8281,125.6777 44.8281,125.0684 L44.8281,124.1777 L40.8594,124.1777 L40.8594,126.6309 L42.3438,126.6309 Q42.3438,125.9746 42.4688,125.7871 Q42.7344,125.3809 43.2031,125.3809 Q43.5781,125.3809 43.8125,125.6465 Q44.0469,125.8965 44.0469,126.5059 L44.0469,128.4746 Q44.0469,129.0215 43.9219,129.209 Q43.6563,129.5996 43.2031,129.5996 Q42.7344,129.5996 42.4688,129.1934 Q42.3438,129.0059 42.3438,128.334 L40.8594,128.334 Z " fill="#000000"/><text fill="#000000" font-family="sans-serif" font-size="12" font-style="italic" lengthAdjust="spacing" textLength="43" x="57" y="115.2148">&#171;entity&#187;</text><text fill="#000000" font-family="sans-serif" font-size="12" font-style="italic" lengthAdjust="spacing" textLength="35" x="61" y="131.1758">&#171;root&#187;</text><text fill="#000000" font-family="sans-serif" font-size="14" lengthAdjust="spacing" textLength="43" x="57" y="149.2949">Device</text><line style="stroke:#181818;stroke-width:0.5;" x1="23.5" x2="106.5" y1="157.8086" y2="157.8086"/><text fill="#000000" font-family="sans-serif" font-size="14" lengthAdjust="spacing" textLength="73" x="28.5" y="176.916">designation</text></g><!--class DeviceType--><g id="elem_DeviceType"><rect codeLine="19" fill="#F1F1F1" height="52.582" id="DeviceType" rx="2.5" ry="2.5" style="stroke:#181818;stroke-width:0.5;" width="107" x="224.5" y="263.2656"/><ellipse cx="239.5" cy="285.5566" fill="#ADD1B2" rx="11" ry="11" style="stroke:#181818;stroke-width:1.0;"/><path d="M238.3594,286.3535 L238.3594,288.8535 L242.6875,288.8535 L242.6875,287.9316 Q242.6875,287.3223 242.9219,287.0566 Q243.1719,286.791 243.5469,286.791 Q243.9219,286.791 244.1563,287.0566 Q244.3906,287.3223 244.3906,287.9316 L244.3906,290.5566 L236.3906,290.5566 Q235.7656,290.5566 235.5,290.3223 Q235.25,290.0879 235.25,289.6973 Q235.25,289.3223 235.5156,289.0879 Q235.7813,288.8535 236.3906,288.8535 L236.6563,288.8535 L236.6563,282.1973 L236.3906,282.1973 Q235.7656,282.1973 235.5,281.9629 Q235.25,281.7285 235.25,281.3379 Q235.25,280.9629 235.5,280.7285 Q235.7656,280.4941 236.3906,280.4941 L244.0156,280.4941 L244.0156,283.0879 Q244.0156,283.6973 243.7813,283.9629 Q243.5625,284.2129 243.1719,284.2129 Q242.7969,284.2129 242.5625,283.9629 Q242.3281,283.6973 242.3281,283.0879 L242.3281,282.1973 L238.3594,282.1973 L238.3594,284.6504 L239.8438,284.6504 Q239.8438,283.9941 239.9688,283.8066 Q240.2344,283.4004 240.7031,283.4004 Q241.0781,283.4004 241.3125,283.666 Q241.5469,283.916 241.5469,284.5254 L241.5469,286.4941 Q241.5469,287.041 241.4219,287.2285 Q241.1563,287.6191 240.7031,287.6191 Q240.2344,287.6191 239.9688,287.2129 Q239.8438,287.0254 239.8438,286.3535 L238.3594,286.3535 Z " fill="#000000"/><text fill="#000000" font-family="sans-serif" font-size="12" font-style="italic" lengthAdjust="spacing" textLength="43" x="269.5" y="281.2148">&#171;entity&#187;</text><text fill="#000000" font-family="sans-serif" font-size="14" lengthAdjust="spacing" textLength="75" x="253.5" y="299.334">DeviceType</text><line style="stroke:#181818;stroke-width:0.5;" x1="225.5" x2="330.5" y1="307.8477" y2="307.8477"/></g><!--class Type--><g id="elem_Type"><rect codeLine="20" fill="#F1F1F1" height="52.582" id="Type" rx="2.5" ry="2.5" style="stroke:#181818;stroke-width:0.5;" width="109" x="142.5" y="114.2656"/><ellipse cx="157.5" cy="136.5566" fill="#FF8B40" rx="11" ry="11" style="stroke:#181818;stroke-width:1.0;"/><path d="M158.0938,139.8223 L160.5625,133.9473 L160.1719,133.9473 Q159.5625,133.9473 159.2969,133.7129 Q159.0313,133.4785 159.0313,133.0879 Q159.0313,132.7129 159.2969,132.4785 Q159.5625,132.2441 160.1719,132.2441 L162.4531,132.2441 Q163.0625,132.2441 163.3281,132.4785 Q163.5938,132.7129 163.5938,133.0879 Q163.5938,133.5566 163.1875,133.8223 Q163,133.9473 162.4063,133.9473 L158.9219,142.3066 L157.2813,142.3066 L153.7969,133.9473 Q153.2031,133.9473 153.0156,133.8223 Q152.6094,133.5566 152.6094,133.0879 Q152.6094,132.7129 152.875,132.4785 Q153.1406,132.2441 153.75,132.2441 L156.0469,132.2441 Q156.6563,132.2441 156.9063,132.4785 Q157.1719,132.7129 157.1719,133.0879 Q157.1719,133.4785 156.9063,133.7129 Q156.6563,133.9473 156.0469,133.9473 L155.6406,133.9473 L158.0938,139.8223 Z " fill="#000000"/><text fill="#000000" font-family="sans-serif" font-size="12" font-style="italic" lengthAdjust="spacing" textLength="81" x="169.5" y="132.2148">&#171;value object&#187;</text><text fill="#000000" font-family="sans-serif" font-size="14" lengthAdjust="spacing" textLength="32" x="194" y="150.334">Type</text><line style="stroke:#181818;stroke-width:0.5;" x1="143.5" x2="250.5" y1="158.8477" y2="158.8477"/></g><!--class DeviceTypeBrand--><g id="elem_DeviceTypeBrand"><rect codeLine="21" fill="#F1F1F1" height="52.582" id="DeviceTypeBrand" rx="2.5" ry="2.5" style="stroke:#181818;stroke-width:0.5;" width="145" x="466.5" y="114.2656"/><ellipse cx="481.5" cy="136.5566" fill="#FF8B40" rx="11" ry="11" style="stroke:#181818;stroke-width:1.0;"/><path d="M482.0938,139.8223 L484.5625,133.9473 L484.1719,133.9473 Q483.5625,133.9473 483.2969,133.7129 Q483.0313,133.4785 483.0313,133.0879 Q483.0313,132.7129 483.2969,132.4785 Q483.5625,132.2441 484.1719,132.2441 L486.4531,132.2441 Q487.0625,132.2441 487.3281,132.4785 Q487.5938,132.7129 487.5938,133.0879 Q487.5938,133.5566 487.1875,133.8223 Q487,133.9473 486.4063,133.9473 L482.9219,142.3066 L481.2813,142.3066 L477.7969,133.9473 Q477.2031,133.9473 477.0156,133.8223 Q476.6094,133.5566 476.6094,133.0879 Q476.6094,132.7129 476.875,132.4785 Q477.1406,132.2441 477.75,132.2441 L480.0469,132.2441 Q480.6563,132.2441 480.9063,132.4785 Q481.1719,132.7129 481.1719,133.0879 Q481.1719,133.4785 480.9063,133.7129 Q480.6563,133.9473 480.0469,133.9473 L479.6406,133.9473 L482.0938,139.8223 Z " fill="#000000"/><text fill="#000000" font-family="sans-serif" font-size="12" font-style="italic" lengthAdjust="spacing" textLength="81" x="511.5" y="132.2148">&#171;value object&#187;</text><text fill="#000000" font-family="sans-serif" font-size="14" lengthAdjust="spacing" textLength="113" x="495.5" y="150.334">DeviceTypeBrand</text><line style="stroke:#181818;stroke-width:0.5;" x1="467.5" x2="610.5" y1="158.8477" y2="158.8477"/></g><!--class DeviceTypeModel--><g id="elem_DeviceTypeModel"><rect codeLine="22" fill="#F1F1F1" height="52.582" id="DeviceTypeModel" rx="2.5" ry="2.5" style="stroke:#181818;stroke-width:0.5;" width="145" x="286.5" y="114.2656"/><ellipse cx="301.5" cy="136.5566" fill="#FF8B40" rx="11" ry="11" style="stroke:#181818;stroke-width:1.0;"/><path d="M302.0938,139.8223 L304.5625,133.9473 L304.1719,133.9473 Q303.5625,133.9473 303.2969,133.7129 Q303.0313,133.4785 303.0313,133.0879 Q303.0313,132.7129 303.2969,132.4785 Q303.5625,132.2441 304.1719,132.2441 L306.4531,132.2441 Q307.0625,132.2441 307.3281,132.4785 Q307.5938,132.7129 307.5938,133.0879 Q307.5938,133.5566 307.1875,133.8223 Q307,133.9473 306.4063,133.9473 L302.9219,142.3066 L301.2813,142.3066 L297.7969,133.9473 Q297.2031,133.9473 297.0156,133.8223 Q296.6094,133.5566 296.6094,133.0879 Q296.6094,132.7129 296.875,132.4785 Q297.1406,132.2441 297.75,132.2441 L300.0469,132.2441 Q300.6563,132.2441 300.9063,132.4785 Q301.1719,132.7129 301.1719,133.0879 Q301.1719,133.4785 300.9063,133.7129 Q300.6563,133.9473 300.0469,133.9473 L299.6406,133.9473 L302.0938,139.8223 Z " fill="#000000"/><text fill="#000000" font-family="sans-serif" font-size="12" font-style="italic" lengthAdjust="spacing" textLength="81" x="331.5" y="132.2148">&#171;value object&#187;</text><text fill="#000000" font-family="sans-serif" font-size="14" lengthAdjust="spacing" textLength="113" x="315.5" y="150.334">DeviceTypeModel</text><line style="stroke:#181818;stroke-width:0.5;" x1="287.5" x2="430.5" y1="158.8477" y2="158.8477"/></g><!--reverse link Type to DeviceType--><g id="link_Type_DeviceType"><path codeLine="25" d="M213.61,171.9056 C228.38,198.7256 249.77,237.5356 263.78,262.9556 " fill="none" id="Type-backto-DeviceType" style="stroke:#181818;stroke-width:1.0;"/><polygon fill="#181818" points="211.11,167.3756,211.9596,177.1878,213.5273,171.7525,218.9626,173.3201,211.11,167.3756" style="stroke:#181818;stroke-width:1.0;"/></g><!--reverse link DeviceTypeModel to DeviceType--><g id="link_DeviceTypeModel_DeviceType"><path codeLine="26" d="M342.39,171.9056 C327.62,198.7256 306.23,237.5356 292.22,262.9556 " fill="none" id="DeviceTypeModel-backto-DeviceType" style="stroke:#181818;stroke-width:1.0;"/><polygon fill="#181818" points="344.89,167.3756,337.0374,173.3201,342.4727,171.7525,344.0404,177.1878,344.89,167.3756" style="stroke:#181818;stroke-width:1.0;"/></g><!--reverse link DeviceTypeBrand to DeviceType--><g id="link_DeviceTypeBrand_DeviceType"><path codeLine="27" d="M488.98,169.9356 C441.14,196.8856 369.61,237.1656 323.38,263.2056 " fill="none" id="DeviceTypeBrand-backto-DeviceType" style="stroke:#181818;stroke-width:1.0;"/><polygon fill="#181818" points="493.54,167.3756,483.7358,168.3124,489.1848,169.8317,487.6655,175.2807,493.54,167.3756" style="stroke:#181818;stroke-width:1.0;"/></g><!--link Device to DeviceType--><g id="link_Device_DeviceType"><path codeLine="29" d="M107.64,172.9256 C132.38,190.8356 164.25,213.6156 193,233.2656 C207.55,243.2056 223.7,253.8556 237.99,263.1356 " fill="none" id="Device-DeviceType" style="stroke:#181818;stroke-width:1.0;"/><polygon fill="#000000" points="202.1114,226.7565,196.3462,219.1925,193.0013,224.0258,202.1114,226.7565" style="stroke:#000000;stroke-width:1.0;"/><text fill="#000000" font-family="sans-serif" font-size="13" lengthAdjust="spacing" textLength="21" x="207" y="229.2939">has</text><text fill="#000000" font-family="sans-serif" font-size="13" lengthAdjust="spacing" textLength="5" x="115.3984" y="174.0314">*</text><text fill="#000000" font-family="sans-serif" font-size="13" lengthAdjust="spacing" textLength="7" x="220.9283" y="252.1221">1</text></g><!--link DeviceType to TaskType--><g id="link_DeviceType_TaskType"><path codeLine="32" d="M278,316.3656 C278,345.0756 278,391.3956 278,420.1356 " fill="none" id="DeviceType-TaskType" style="stroke:#181818;stroke-width:1.0;"/><polygon fill="#000000" points="283,362.9111,285.9389,353.866,280.0611,353.866,283,362.9111" style="stroke:#000000;stroke-width:1.0;"/><text fill="#000000" font-family="sans-serif" font-size="13" lengthAdjust="spacing" textLength="68" x="292" y="363.2939">can perform</text><text fill="#000000" font-family="sans-serif" font-size="13" lengthAdjust="spacing" textLength="7" x="270.2781" y="337.7064">1</text><text fill="#000000" font-family="sans-serif" font-size="13" lengthAdjust="spacing" textLength="5" x="272.4219" y="409.1221">*</text></g><!--SRC=[dP9TIyCm58RlyoiEzS8FBDQFWOmGS8o15rvjUd_M7jlODYb9EfZYVpVDjguwSM2kafVtF7bFJcmfLOC6Qt3ILJJJoitbEy7DY0K1U2kUvt0xIY26gQvHAaWhj9Oilse5OuNC26foXSuiipqjU1wSCtBPEdfCjGhOXB7J1TeICCyDvUY8DPYMc1D4dFUY4D2v8lXWu5U01MMnRdmaVlPo2IUpsVtaBZa7Kcqj1Flqw2cjP4h7uHlV3a_AjxhUYfw-ENiRvqPhvpSRNxSoiZ9NwAHMGVEt7Y2s8NUOOGk_n5zXrHBevHkbxfjv3viOLDa_wfvqHjMHEj_087NSDh48CG_L7zo_327m3WpHHGHn3D5rD7oWCHHeGVHJ2wBJ_PY7_Awq8tXG_ml6aAA2XiohDhNdV040]--></g></svg>