<?xml version="1.0" encoding="UTF-8" standalone="no"?><svg xmlns="http://www.w3.org/2000/svg" xmlns:xlink="http://www.w3.org/1999/xlink" contentStyleType="text/css" height="979px" preserveAspectRatio="none" style="width:2514px;height:979px;background:#FFFFFF;" version="1.1" viewBox="0 0 2514 979" width="2514px" zoomAndPan="magnify"><defs/><g><rect fill="#FFFFFF" height="719.7578" style="stroke:#181818;stroke-width:1.0;" width="10" x="311" y="136.1797"/><rect fill="#FFFFFF" height="689.4063" style="stroke:#181818;stroke-width:1.0;" width="10" x="709" y="166.5313"/><rect fill="#FFFFFF" height="488.1719" style="stroke:#181818;stroke-width:1.0;" width="10" x="1223" y="196.8828"/><rect fill="#FFFFFF" height="153.5313" style="stroke:#181818;stroke-width:1.0;" width="10" x="1494" y="483.8203"/><rect fill="#FFFFFF" height="208.8828" style="stroke:#181818;stroke-width:1.0;" width="10" x="1619" y="227.2344"/><rect fill="#FFFFFF" height="92.8281" style="stroke:#181818;stroke-width:1.0;" width="10" x="1779" y="544.5234"/><rect fill="#FFFFFF" height="30.3516" style="stroke:#181818;stroke-width:1.0;" width="10" x="1779" y="685.0547"/><rect fill="#FFFFFF" height="30.3516" style="stroke:#181818;stroke-width:1.0;" width="10" x="1904" y="343.2891"/><rect fill="#FFFFFF" height="30" style="stroke:#181818;stroke-width:1.0;" width="10" x="2171" y="257.5859"/><rect fill="none" height="126.5313" style="stroke:#000000;stroke-width:1.5;" width="860.5" x="1547.5" y="302.5859"/><rect fill="none" height="187.2344" style="stroke:#000000;stroke-width:1.5;" width="1349" x="1159" y="443.1172"/><rect fill="none" height="126.5313" style="stroke:#000000;stroke-width:1.5;" width="1057" x="776.5" y="644.3516"/><line style="stroke:#181818;stroke-width:0.5;stroke-dasharray:5.0,5.0;" x1="315.5" x2="315.5" y1="103.8281" y2="864.9375"/><line style="stroke:#181818;stroke-width:0.5;stroke-dasharray:5.0,5.0;" x1="713.5" x2="713.5" y1="103.8281" y2="864.9375"/><line style="stroke:#181818;stroke-width:0.5;stroke-dasharray:5.0,5.0;" x1="846.5" x2="846.5" y1="741.9688" y2="864.9375"/><line style="stroke:#181818;stroke-width:0.5;stroke-dasharray:5.0,5.0;" x1="1228" x2="1228" y1="103.8281" y2="864.9375"/><line style="stroke:#181818;stroke-width:0.5;stroke-dasharray:5.0,5.0;" x1="1498.5" x2="1498.5" y1="103.8281" y2="864.9375"/><line style="stroke:#181818;stroke-width:0.5;stroke-dasharray:5.0,5.0;" x1="1623.5" x2="1623.5" y1="103.8281" y2="864.9375"/><line style="stroke:#181818;stroke-width:0.5;stroke-dasharray:5.0,5.0;" x1="1783.5" x2="1783.5" y1="103.8281" y2="864.9375"/><line style="stroke:#181818;stroke-width:0.5;stroke-dasharray:5.0,5.0;" x1="1909" x2="1909" y1="103.8281" y2="864.9375"/><line style="stroke:#181818;stroke-width:0.5;stroke-dasharray:5.0,5.0;" x1="2036" x2="2036" y1="103.8281" y2="864.9375"/><line style="stroke:#181818;stroke-width:0.5;stroke-dasharray:5.0,5.0;" x1="2176" x2="2176" y1="103.8281" y2="864.9375"/><line style="stroke:#181818;stroke-width:0.5;stroke-dasharray:5.0,5.0;" x1="2328" x2="2328" y1="400.2031" y2="864.9375"/><line style="stroke:#181818;stroke-width:0.5;stroke-dasharray:5.0,5.0;" x1="2453" x2="2453" y1="601.4375" y2="864.9375"/><rect fill="#E3E3E3" height="49.2188" rx="2.5" ry="2.5" style="stroke:#181818;stroke-width:0.5;" width="101" x="265.5" y="53.6094"/><text fill="#000000" font-family="sans-serif" font-size="14" font-style="italic" lengthAdjust="spacing" textLength="46" x="293" y="75.1426">«Web»</text><text fill="#000000" font-family="sans-serif" font-size="14" lengthAdjust="spacing" textLength="87" x="272.5" y="92.752">buildingRoute</text><rect fill="#E3E3E3" height="49.2188" rx="2.5" ry="2.5" style="stroke:#181818;stroke-width:0.5;" width="101" x="265.5" y="863.9375"/><text fill="#000000" font-family="sans-serif" font-size="14" font-style="italic" lengthAdjust="spacing" textLength="46" x="293" y="885.4707">«Web»</text><text fill="#000000" font-family="sans-serif" font-size="14" lengthAdjust="spacing" textLength="87" x="272.5" y="903.0801">buildingRoute</text><text fill="#000000" font-family="sans-serif" font-size="14" font-style="italic" lengthAdjust="spacing" textLength="85" x="668.5" y="65.5332">«Controllers»</text><text fill="#000000" font-family="sans-serif" font-size="14" lengthAdjust="spacing" textLength="119" x="651.5" y="83.1426">buildingController :</text><text fill="#000000" font-family="sans-serif" font-size="14" lengthAdjust="spacing" textLength="111" x="657.5" y="100.752">buildingController</text><ellipse cx="714" cy="35" fill="#E3E3E3" rx="12" ry="12" style="stroke:#181818;stroke-width:0.5;"/><polygon fill="#181818" points="710,23,716,18,714,23,716,28,710,23" style="stroke:#181818;stroke-width:1.0;"/><text fill="#000000" font-family="sans-serif" font-size="14" font-style="italic" lengthAdjust="spacing" textLength="85" x="668.5" y="878.4707">«Controllers»</text><text fill="#000000" font-family="sans-serif" font-size="14" lengthAdjust="spacing" textLength="119" x="651.5" y="896.0801">buildingController :</text><text fill="#000000" font-family="sans-serif" font-size="14" lengthAdjust="spacing" textLength="111" x="657.5" y="913.6895">buildingController</text><ellipse cx="714" cy="932.7656" fill="#E3E3E3" rx="12" ry="12" style="stroke:#181818;stroke-width:0.5;"/><polygon fill="#181818" points="710,920.7656,716,915.7656,714,920.7656,716,925.7656,710,920.7656" style="stroke:#181818;stroke-width:1.0;"/><rect fill="#E3E3E3" height="66.8281" rx="2.5" ry="2.5" style="stroke:#181818;stroke-width:0.5;" width="120" x="786.5" y="863.9375"/><text fill="#000000" font-family="sans-serif" font-size="14" font-style="italic" lengthAdjust="spacing" textLength="46" x="823.5" y="885.4707">«DTO»</text><text fill="#000000" font-family="sans-serif" font-size="14" lengthAdjust="spacing" textLength="106" x="793.5" y="903.0801">floorDTOResult :</text><text fill="#000000" font-family="sans-serif" font-size="14" lengthAdjust="spacing" textLength="63" x="817" y="920.6895">FloorDTO</text><rect fill="#E3E3E3" height="66.8281" rx="2.5" ry="2.5" style="stroke:#181818;stroke-width:0.5;" width="118" x="1169" y="36"/><text fill="#000000" font-family="sans-serif" font-size="14" font-style="italic" lengthAdjust="spacing" textLength="85" x="1185.5" y="57.5332">«Use Cases»</text><text fill="#000000" font-family="sans-serif" font-size="14" lengthAdjust="spacing" textLength="104" x="1176" y="75.1426">buildingService :</text><text fill="#000000" font-family="sans-serif" font-size="14" lengthAdjust="spacing" textLength="96" x="1182" y="92.752">buildingService</text><rect fill="#E3E3E3" height="66.8281" rx="2.5" ry="2.5" style="stroke:#181818;stroke-width:0.5;" width="118" x="1169" y="863.9375"/><text fill="#000000" font-family="sans-serif" font-size="14" font-style="italic" lengthAdjust="spacing" textLength="85" x="1185.5" y="885.4707">«Use Cases»</text><text fill="#000000" font-family="sans-serif" font-size="14" lengthAdjust="spacing" textLength="104" x="1176" y="903.0801">buildingService :</text><text fill="#000000" font-family="sans-serif" font-size="14" lengthAdjust="spacing" textLength="96" x="1182" y="920.6895">buildingService</text><text fill="#000000" font-family="sans-serif" font-size="14" font-style="italic" lengthAdjust="spacing" textLength="78" x="1457" y="65.5332">«Gateways»</text><text fill="#000000" font-family="sans-serif" font-size="14" lengthAdjust="spacing" textLength="91" x="1450.5" y="83.1426">buildingRepo :</text><text fill="#000000" font-family="sans-serif" font-size="14" lengthAdjust="spacing" textLength="83" x="1456.5" y="100.752">buildingRepo</text><path d="M1481,15 C1481,5 1499,5 1499,5 C1499,5 1517,5 1517,15 L1517,41 C1517,51 1499,51 1499,51 C1499,51 1481,51 1481,41 L1481,15 " fill="#E3E3E3" style="stroke:#181818;stroke-width:1.5;"/><path d="M1481,15 C1481,25 1499,25 1499,25 C1499,25 1517,25 1517,15 " fill="none" style="stroke:#181818;stroke-width:1.5;"/><text fill="#000000" font-family="sans-serif" font-size="14" font-style="italic" lengthAdjust="spacing" textLength="78" x="1457" y="878.4707">«Gateways»</text><text fill="#000000" font-family="sans-serif" font-size="14" lengthAdjust="spacing" textLength="91" x="1450.5" y="896.0801">buildingRepo :</text><text fill="#000000" font-family="sans-serif" font-size="14" lengthAdjust="spacing" textLength="83" x="1456.5" y="913.6895">buildingRepo</text><path d="M1481,926.7656 C1481,916.7656 1499,916.7656 1499,916.7656 C1499,916.7656 1517,916.7656 1517,926.7656 L1517,952.7656 C1517,962.7656 1499,962.7656 1499,962.7656 C1499,962.7656 1481,962.7656 1481,952.7656 L1481,926.7656 " fill="#E3E3E3" style="stroke:#181818;stroke-width:1.5;"/><path d="M1481,926.7656 C1481,936.7656 1499,936.7656 1499,936.7656 C1499,936.7656 1517,936.7656 1517,926.7656 " fill="none" style="stroke:#181818;stroke-width:1.5;"/><text fill="#000000" font-family="sans-serif" font-size="14" font-style="italic" lengthAdjust="spacing" textLength="78" x="1582" y="65.5332">«Gateways»</text><text fill="#000000" font-family="sans-serif" font-size="14" lengthAdjust="spacing" textLength="127" x="1557.5" y="83.1426">passagewaysRepo :</text><text fill="#000000" font-family="sans-serif" font-size="14" lengthAdjust="spacing" textLength="119" x="1563.5" y="100.752">passagewaysRepo</text><path d="M1606,15 C1606,5 1624,5 1624,5 C1624,5 1642,5 1642,15 L1642,41 C1642,51 1624,51 1624,51 C1624,51 1606,51 1606,41 L1606,15 " fill="#E3E3E3" style="stroke:#181818;stroke-width:1.5;"/><path d="M1606,15 C1606,25 1624,25 1624,25 C1624,25 1642,25 1642,15 " fill="none" style="stroke:#181818;stroke-width:1.5;"/><text fill="#000000" font-family="sans-serif" font-size="14" font-style="italic" lengthAdjust="spacing" textLength="78" x="1582" y="878.4707">«Gateways»</text><text fill="#000000" font-family="sans-serif" font-size="14" lengthAdjust="spacing" textLength="127" x="1557.5" y="896.0801">passagewaysRepo :</text><text fill="#000000" font-family="sans-serif" font-size="14" lengthAdjust="spacing" textLength="119" x="1563.5" y="913.6895">passagewaysRepo</text><path d="M1606,926.7656 C1606,916.7656 1624,916.7656 1624,916.7656 C1624,916.7656 1642,916.7656 1642,926.7656 L1642,952.7656 C1642,962.7656 1624,962.7656 1624,962.7656 C1624,962.7656 1606,962.7656 1606,952.7656 L1606,926.7656 " fill="#E3E3E3" style="stroke:#181818;stroke-width:1.5;"/><path d="M1606,926.7656 C1606,936.7656 1624,936.7656 1624,936.7656 C1624,936.7656 1642,936.7656 1642,926.7656 " fill="none" style="stroke:#181818;stroke-width:1.5;"/><rect fill="#E3E3E3" height="49.2188" rx="2.5" ry="2.5" style="stroke:#181818;stroke-width:0.5;" width="79" x="1744.5" y="53.6094"/><text fill="#000000" font-family="sans-serif" font-size="14" font-style="italic" lengthAdjust="spacing" textLength="65" x="1751.5" y="75.1426">«Mapper»</text><text fill="#000000" font-family="sans-serif" font-size="14" lengthAdjust="spacing" textLength="60" x="1754" y="92.752">FloorMap</text><rect fill="#E3E3E3" height="49.2188" rx="2.5" ry="2.5" style="stroke:#181818;stroke-width:0.5;" width="79" x="1744.5" y="863.9375"/><text fill="#000000" font-family="sans-serif" font-size="14" font-style="italic" lengthAdjust="spacing" textLength="65" x="1751.5" y="885.4707">«Mapper»</text><text fill="#000000" font-family="sans-serif" font-size="14" lengthAdjust="spacing" textLength="60" x="1754" y="903.0801">FloorMap</text><rect fill="#E3E3E3" height="49.2188" rx="2.5" ry="2.5" style="stroke:#181818;stroke-width:0.5;" width="120" x="1849" y="53.6094"/><text fill="#000000" font-family="sans-serif" font-size="14" font-style="italic" lengthAdjust="spacing" textLength="65" x="1876.5" y="75.1426">«Mapper»</text><text fill="#000000" font-family="sans-serif" font-size="14" lengthAdjust="spacing" textLength="106" x="1856" y="92.752">PassagewayMap</text><rect fill="#E3E3E3" height="49.2188" rx="2.5" ry="2.5" style="stroke:#181818;stroke-width:0.5;" width="120" x="1849" y="863.9375"/><text fill="#000000" font-family="sans-serif" font-size="14" font-style="italic" lengthAdjust="spacing" textLength="65" x="1876.5" y="885.4707">«Mapper»</text><text fill="#000000" font-family="sans-serif" font-size="14" lengthAdjust="spacing" textLength="106" x="1856" y="903.0801">PassagewayMap</text><rect fill="#E3E3E3" height="49.2188" rx="2.5" ry="2.5" style="stroke:#181818;stroke-width:0.5;" width="115" x="1979" y="53.6094"/><text fill="#000000" font-family="sans-serif" font-size="14" font-style="italic" lengthAdjust="spacing" textLength="67" x="2003" y="75.1426">«Schema»</text><text fill="#000000" font-family="sans-serif" font-size="14" lengthAdjust="spacing" textLength="101" x="1986" y="92.752">BuildingSchema</text><rect fill="#E3E3E3" height="49.2188" rx="2.5" ry="2.5" style="stroke:#181818;stroke-width:0.5;" width="115" x="1979" y="863.9375"/><text fill="#000000" font-family="sans-serif" font-size="14" font-style="italic" lengthAdjust="spacing" textLength="67" x="2003" y="885.4707">«Schema»</text><text fill="#000000" font-family="sans-serif" font-size="14" lengthAdjust="spacing" textLength="101" x="1986" y="903.0801">BuildingSchema</text><rect fill="#E3E3E3" height="49.2188" rx="2.5" ry="2.5" style="stroke:#181818;stroke-width:0.5;" width="144" x="2104" y="53.6094"/><text fill="#000000" font-family="sans-serif" font-size="14" font-style="italic" lengthAdjust="spacing" textLength="67" x="2142.5" y="75.1426">«Schema»</text><text fill="#000000" font-family="sans-serif" font-size="14" lengthAdjust="spacing" textLength="130" x="2111" y="92.752">PassagewaySchema</text><rect fill="#E3E3E3" height="49.2188" rx="2.5" ry="2.5" style="stroke:#181818;stroke-width:0.5;" width="144" x="2104" y="863.9375"/><text fill="#000000" font-family="sans-serif" font-size="14" font-style="italic" lengthAdjust="spacing" textLength="67" x="2142.5" y="885.4707">«Schema»</text><text fill="#000000" font-family="sans-serif" font-size="14" lengthAdjust="spacing" textLength="130" x="2111" y="903.0801">PassagewaySchema</text><rect fill="#E3E3E3" height="66.8281" rx="2.5" ry="2.5" style="stroke:#181818;stroke-width:0.5;" width="140" x="2258" y="863.9375"/><text fill="#000000" font-family="sans-serif" font-size="14" font-style="italic" lengthAdjust="spacing" textLength="64" x="2296" y="885.4707">«Domain»</text><text fill="#000000" font-family="sans-serif" font-size="14" lengthAdjust="spacing" textLength="122" x="2265" y="903.0801">passagewayResult:</text><text fill="#000000" font-family="sans-serif" font-size="14" lengthAdjust="spacing" textLength="79" x="2290.5" y="920.6895">Passageway</text><rect fill="#E3E3E3" height="66.8281" rx="2.5" ry="2.5" style="stroke:#181818;stroke-width:0.5;" width="90" x="2408" y="863.9375"/><text fill="#000000" font-family="sans-serif" font-size="14" font-style="italic" lengthAdjust="spacing" textLength="64" x="2421" y="885.4707">«Domain»</text><text fill="#000000" font-family="sans-serif" font-size="14" lengthAdjust="spacing" textLength="72" x="2415" y="903.0801">floorResult:</text><text fill="#000000" font-family="sans-serif" font-size="14" lengthAdjust="spacing" textLength="33" x="2438.5" y="920.6895">Floor</text><rect fill="#FFFFFF" height="719.7578" style="stroke:#181818;stroke-width:1.0;" width="10" x="311" y="136.1797"/><rect fill="#FFFFFF" height="689.4063" style="stroke:#181818;stroke-width:1.0;" width="10" x="709" y="166.5313"/><rect fill="#FFFFFF" height="488.1719" style="stroke:#181818;stroke-width:1.0;" width="10" x="1223" y="196.8828"/><rect fill="#FFFFFF" height="153.5313" style="stroke:#181818;stroke-width:1.0;" width="10" x="1494" y="483.8203"/><rect fill="#FFFFFF" height="208.8828" style="stroke:#181818;stroke-width:1.0;" width="10" x="1619" y="227.2344"/><rect fill="#FFFFFF" height="92.8281" style="stroke:#181818;stroke-width:1.0;" width="10" x="1779" y="544.5234"/><rect fill="#FFFFFF" height="30.3516" style="stroke:#181818;stroke-width:1.0;" width="10" x="1779" y="685.0547"/><rect fill="#FFFFFF" height="30.3516" style="stroke:#181818;stroke-width:1.0;" width="10" x="1904" y="343.2891"/><rect fill="#FFFFFF" height="30" style="stroke:#181818;stroke-width:1.0;" width="10" x="2171" y="257.5859"/><ellipse cx="16.5" cy="135.4297" fill="none" rx="4" ry="4" style="stroke:#181818;stroke-width:1.5;"/><polygon fill="#181818" points="299,132.1797,309,136.1797,299,140.1797,303,136.1797" style="stroke:#181818;stroke-width:1.0;"/><line style="stroke:#181818;stroke-width:1.0;" x1="21" x2="305" y1="136.1797" y2="136.1797"/><text fill="#000000" font-family="sans-serif" font-size="13" lengthAdjust="spacing" textLength="272" x="24" y="131.3232">GET(../buildings/:code/floors?withPassageway)</text><polygon fill="#181818" points="697,162.5313,707,166.5313,697,170.5313,701,166.5313" style="stroke:#181818;stroke-width:1.0;"/><line style="stroke:#181818;stroke-width:1.0;" x1="321" x2="703" y1="166.5313" y2="166.5313"/><text fill="#000000" font-family="sans-serif" font-size="13" lengthAdjust="spacing" textLength="369" x="328" y="161.6748">getFloorsWithPassagewaysToBuildingByBuilding(req, res, next)</text><polygon fill="#181818" points="1211,192.8828,1221,196.8828,1211,200.8828,1215,196.8828" style="stroke:#181818;stroke-width:1.0;"/><line style="stroke:#181818;stroke-width:1.0;" x1="719" x2="1217" y1="196.8828" y2="196.8828"/><text fill="#000000" font-family="sans-serif" font-size="13" lengthAdjust="spacing" textLength="485" x="726" y="192.0264">getFloorsWithPassagewaysToBuildingByBuilding(buildingCode): IFloorDTOResult[][]</text><polygon fill="#181818" points="1607,223.2344,1617,227.2344,1607,231.2344,1611,227.2344" style="stroke:#181818;stroke-width:1.0;"/><line style="stroke:#181818;stroke-width:1.0;" x1="1233" x2="1613" y1="227.2344" y2="227.2344"/><text fill="#000000" font-family="sans-serif" font-size="13" lengthAdjust="spacing" textLength="327" x="1240" y="222.3779">findPassagewayWithBuilding(code): passagewaysResult</text><polygon fill="#181818" points="2159,253.5859,2169,257.5859,2159,261.5859,2163,257.5859" style="stroke:#181818;stroke-width:1.0;"/><line style="stroke:#181818;stroke-width:1.0;" x1="1629" x2="2165" y1="257.5859" y2="257.5859"/><text fill="#000000" font-family="sans-serif" font-size="13" lengthAdjust="spacing" textLength="232" x="1636" y="252.7295">findAll(query: code): passagewayRecord</text><path d="M1547.5,302.5859 L1620.5,302.5859 L1620.5,310.9375 L1610.5,320.9375 L1547.5,320.9375 L1547.5,302.5859 " fill="#EEEEEE" style="stroke:#000000;stroke-width:1.5;"/><rect fill="none" height="126.5313" style="stroke:#000000;stroke-width:1.5;" width="860.5" x="1547.5" y="302.5859"/><text fill="#000000" font-family="sans-serif" font-size="13" font-weight="bold" lengthAdjust="spacing" textLength="28" x="1562.5" y="317.0811">loop</text><text fill="#000000" font-family="sans-serif" font-size="11" font-weight="bold" lengthAdjust="spacing" textLength="160" x="1635.5" y="316.0049">[for each passageway found]</text><polygon fill="#181818" points="1892,339.2891,1902,343.2891,1892,347.2891,1896,343.2891" style="stroke:#181818;stroke-width:1.0;"/><line style="stroke:#181818;stroke-width:1.0;" x1="1629" x2="1898" y1="343.2891" y2="343.2891"/><text fill="#000000" font-family="sans-serif" font-size="13" lengthAdjust="spacing" textLength="256" x="1636" y="338.4326">toDomain(passagewayRecord): passageway</text><polygon fill="#181818" points="2246,369.6406,2256,373.6406,2246,377.6406,2250,373.6406" style="stroke:#181818;stroke-width:1.0;"/><line style="stroke:#181818;stroke-width:1.0;" x1="1909" x2="2252" y1="373.6406" y2="373.6406"/><text fill="#000000" font-family="sans-serif" font-size="13" lengthAdjust="spacing" textLength="36" x="1916" y="368.7842">create</text><rect fill="#E3E3E3" height="66.8281" rx="2.5" ry="2.5" style="stroke:#181818;stroke-width:0.5;" width="140" x="2258" y="351.2891"/><text fill="#000000" font-family="sans-serif" font-size="14" font-style="italic" lengthAdjust="spacing" textLength="64" x="2296" y="372.8223">«Domain»</text><text fill="#000000" font-family="sans-serif" font-size="14" lengthAdjust="spacing" textLength="122" x="2265" y="390.4316">passagewayResult:</text><text fill="#000000" font-family="sans-serif" font-size="14" lengthAdjust="spacing" textLength="79" x="2290.5" y="408.041">Passageway</text><path d="M1159,443.1172 L1232,443.1172 L1232,451.4688 L1222,461.4688 L1159,461.4688 L1159,443.1172 " fill="#EEEEEE" style="stroke:#000000;stroke-width:1.5;"/><rect fill="none" height="187.2344" style="stroke:#000000;stroke-width:1.5;" width="1349" x="1159" y="443.1172"/><text fill="#000000" font-family="sans-serif" font-size="13" font-weight="bold" lengthAdjust="spacing" textLength="28" x="1174" y="457.6123">loop</text><text fill="#000000" font-family="sans-serif" font-size="11" font-weight="bold" lengthAdjust="spacing" textLength="184" x="1247" y="456.5361">[for each end of the passageway]</text><polygon fill="#181818" points="1482,479.8203,1492,483.8203,1482,487.8203,1486,483.8203" style="stroke:#181818;stroke-width:1.0;"/><line style="stroke:#181818;stroke-width:1.0;" x1="1233" x2="1488" y1="483.8203" y2="483.8203"/><text fill="#000000" font-family="sans-serif" font-size="13" lengthAdjust="spacing" textLength="242" x="1240" y="478.9639">findFloor(passagewayResult): floorsResult</text><polygon fill="#181818" points="2024.5,510.1719,2034.5,514.1719,2024.5,518.1719,2028.5,514.1719" style="stroke:#181818;stroke-width:1.0;"/><line style="stroke:#181818;stroke-width:1.0;" x1="1504" x2="2030.5" y1="514.1719" y2="514.1719"/><text fill="#000000" font-family="sans-serif" font-size="13" lengthAdjust="spacing" textLength="120" x="1511" y="509.3154">findOne(query: code)</text><polygon fill="#181818" points="1767,540.5234,1777,544.5234,1767,548.5234,1771,544.5234" style="stroke:#181818;stroke-width:1.0;"/><line style="stroke:#181818;stroke-width:1.0;" x1="1504" x2="1773" y1="544.5234" y2="544.5234"/><text fill="#000000" font-family="sans-serif" font-size="13" lengthAdjust="spacing" textLength="256" x="1511" y="539.667">toDomain(passagewayRecord): passageway</text><polygon fill="#181818" points="2396,570.875,2406,574.875,2396,578.875,2400,574.875" style="stroke:#181818;stroke-width:1.0;"/><line style="stroke:#181818;stroke-width:1.0;" x1="1789" x2="2402" y1="574.875" y2="574.875"/><text fill="#000000" font-family="sans-serif" font-size="13" lengthAdjust="spacing" textLength="36" x="1796" y="570.0186">create</text><rect fill="#E3E3E3" height="66.8281" rx="2.5" ry="2.5" style="stroke:#181818;stroke-width:0.5;" width="90" x="2408" y="552.5234"/><text fill="#000000" font-family="sans-serif" font-size="14" font-style="italic" lengthAdjust="spacing" textLength="64" x="2421" y="574.0566">«Domain»</text><text fill="#000000" font-family="sans-serif" font-size="14" lengthAdjust="spacing" textLength="72" x="2415" y="591.666">floorResult:</text><text fill="#000000" font-family="sans-serif" font-size="14" lengthAdjust="spacing" textLength="33" x="2438.5" y="609.2754">Floor</text><path d="M776.5,644.3516 L849.5,644.3516 L849.5,652.7031 L839.5,662.7031 L776.5,662.7031 L776.5,644.3516 " fill="#EEEEEE" style="stroke:#000000;stroke-width:1.5;"/><rect fill="none" height="126.5313" style="stroke:#000000;stroke-width:1.5;" width="1057" x="776.5" y="644.3516"/><text fill="#000000" font-family="sans-serif" font-size="13" font-weight="bold" lengthAdjust="spacing" textLength="28" x="791.5" y="658.8467">loop</text><text fill="#000000" font-family="sans-serif" font-size="11" font-weight="bold" lengthAdjust="spacing" textLength="82" x="864.5" y="657.7705">[for each floor]</text><polygon fill="#181818" points="1767,681.0547,1777,685.0547,1767,689.0547,1771,685.0547" style="stroke:#181818;stroke-width:1.0;"/><line style="stroke:#181818;stroke-width:1.0;" x1="1228" x2="1773" y1="685.0547" y2="685.0547"/><text fill="#000000" font-family="sans-serif" font-size="13" lengthAdjust="spacing" textLength="126" x="1235" y="680.1982">toDTO(elevatorResult)</text><polygon fill="#181818" points="917.5,711.4063,907.5,715.4063,917.5,719.4063,913.5,715.4063" style="stroke:#181818;stroke-width:1.0;"/><line style="stroke:#181818;stroke-width:1.0;stroke-dasharray:2.0,2.0;" x1="911.5" x2="1783" y1="715.4063" y2="715.4063"/><text fill="#000000" font-family="sans-serif" font-size="13" lengthAdjust="spacing" textLength="36" x="923.5" y="710.5498">create</text><rect fill="#E3E3E3" height="66.8281" rx="2.5" ry="2.5" style="stroke:#181818;stroke-width:0.5;" width="120" x="786.5" y="693.0547"/><text fill="#000000" font-family="sans-serif" font-size="14" font-style="italic" lengthAdjust="spacing" textLength="46" x="823.5" y="714.5879">«DTO»</text><text fill="#000000" font-family="sans-serif" font-size="14" lengthAdjust="spacing" textLength="106" x="793.5" y="732.1973">floorDTOResult :</text><text fill="#000000" font-family="sans-serif" font-size="14" lengthAdjust="spacing" textLength="63" x="817" y="749.8066">FloorDTO</text><polygon fill="#181818" points="332,796.2344,322,800.2344,332,804.2344,328,800.2344" style="stroke:#181818;stroke-width:1.0;"/><line style="stroke:#181818;stroke-width:1.0;" x1="326" x2="708" y1="800.2344" y2="800.2344"/><text fill="#000000" font-family="sans-serif" font-size="13" lengthAdjust="spacing" textLength="53" x="338" y="795.3779">response</text><polygon fill="#181818" points="11,842.9375,1,846.9375,11,850.9375,7,846.9375" style="stroke:#181818;stroke-width:1.0;"/><line style="stroke:#181818;stroke-width:1.0;stroke-dasharray:2.0,2.0;" x1="5" x2="310" y1="846.9375" y2="846.9375"/><text fill="#000000" font-family="sans-serif" font-size="13" lengthAdjust="spacing" textLength="288" x="17" y="825.7295">status: 200 OK mostra informação sobre os pisos</text><text fill="#000000" font-family="sans-serif" font-size="13" lengthAdjust="spacing" textLength="259" x="21" y="842.0811">e a que outros edificios/pisos tem passagem</text><!--MD5=[c489093c20870521a0757f40ee76ab3d]
@startuml
skinparam monochrome true
skinparam packageStyle rectangle
skinparam shadowing false


participant buildingRoute as route <<Web>>
control "buildingController :\n buildingController" as controller <<Controllers>>
participant "floorDTOResult :\n FloorDTO" as dtoResult <<DTO>>
participant "buildingService :\n buildingService" as service <<Use Cases>>
database "buildingRepo :\n buildingRepo" as repo <<Gateways>>
database "passagewaysRepo :\n passagewaysRepo" as repoPassageway <<Gateways>>
participant FloorMap as map <<Mapper>>
participant PassagewayMap as mapPassageway <<Mapper>>
participant "BuildingSchema" as schema <<Schema>>
participant "PassagewaySchema" as schemaPassageway <<Schema>>
participant "passagewayResult: \n Passageway" as passagewayResult <<Domain>>
participant "floorResult: \n Floor" as floorResult <<Domain>>

?o-> route: GET(../buildings/:code/floors?withPassageway)
activate route

route -> controller: getFloorsWithPassagewaysToBuildingByBuilding(req, res, next)
activate controller

controller -> service: getFloorsWithPassagewaysToBuildingByBuilding(buildingCode): IFloorDTOResult[][]
activate service
service -> repoPassageway: findPassagewayWithBuilding(code): passagewaysResult


activate repoPassageway

repoPassageway -> schemaPassageway: findAll(query: code): passagewayRecord
activate schemaPassageway
deactivate schemaPassageway
loop for each passageway found
repoPassageway -> mapPassageway: toDomain(passagewayRecord): passageway
activate mapPassageway
mapPassageway -> passagewayResult**: create
deactivate mapPassageway
end

deactivate repoPassageway
loop for each end of the passageway
service -> repo: findFloor(passagewayResult): floorsResult
activate repo
repo -> schema: findOne(query: code)

repo -> map: toDomain(passagewayRecord): passageway
activate map
map -> floorResult**: create
end
deactivate map
deactivate repo

loop for each floor
service -> map: toDTO(elevatorResult)
deactivate service

activate map
map - -> dtoResult**: create
deactivate map
end

controller -> route: response

<- - route : status: 200 OK mostra informação sobre os pisos \n e a que outros edificios/pisos tem passagem


@enduml

PlantUML version 1.2022.7(Mon Aug 22 18:01:30 WEST 2022)
(GPL source distribution)
Java Runtime: OpenJDK Runtime Environment
JVM: OpenJDK 64-Bit Server VM
Default Encoding: UTF-8
Language: en
Country: GB
--></g></svg>