<?xml version="1.0" encoding="UTF-8" standalone="no"?><svg xmlns="http://www.w3.org/2000/svg" xmlns:xlink="http://www.w3.org/1999/xlink" contentStyleType="text/css" height="451px" preserveAspectRatio="none" style="width:1140px;height:451px;background:#FFFFFF;" version="1.1" viewBox="0 0 1140 451" width="1140px" zoomAndPan="magnify"><defs/><g><rect fill="none" height="27.6094" id="_title" style="stroke:none;stroke-width:1.0;" width="298" x="423" y="10"/><text fill="#000000" font-family="sans-serif" font-size="14" font-weight="bold" lengthAdjust="spacing" textLength="288" x="428" y="29.5332">System Sequence Diagram (SSD) - US 280</text><rect fill="#FFFFFF" height="253.4609" style="stroke:#181818;stroke-width:1.0;" width="10" x="431" y="126.1797"/><rect fill="#FFFFFF" height="232.1094" style="stroke:#181818;stroke-width:1.0;" width="10" x="837" y="156.5313"/><rect fill="none" height="105.0547" style="stroke:#000000;stroke-width:1.5;" width="305" x="779" y="214.8828"/><line style="stroke:#181818;stroke-width:0.5;stroke-dasharray:5.0,5.0;" x1="436" x2="436" y1="93.8281" y2="397.6406"/><line style="stroke:#181818;stroke-width:0.5;stroke-dasharray:5.0,5.0;" x1="842" x2="842" y1="93.8281" y2="397.6406"/><rect fill="#E3E3E3" height="49.2188" rx="2.5" ry="2.5" style="stroke:#181818;stroke-width:0.5;" width="106" x="383" y="43.6094"/><text fill="#000000" font-family="sans-serif" font-size="14" font-style="italic" lengthAdjust="spacing" textLength="92" x="390" y="65.1426">«system (C4)»</text><text fill="#000000" font-family="sans-serif" font-size="14" lengthAdjust="spacing" textLength="84" x="394" y="82.752">RobDroneGo</text><rect fill="#E3E3E3" height="49.2188" rx="2.5" ry="2.5" style="stroke:#181818;stroke-width:0.5;" width="106" x="383" y="396.6406"/><text fill="#000000" font-family="sans-serif" font-size="14" font-style="italic" lengthAdjust="spacing" textLength="92" x="390" y="418.1738">«system (C4)»</text><text fill="#000000" font-family="sans-serif" font-size="14" lengthAdjust="spacing" textLength="84" x="394" y="435.7832">RobDroneGo</text><rect fill="#E3E3E3" height="49.2188" rx="2.5" ry="2.5" style="stroke:#181818;stroke-width:0.5;" width="106" x="789" y="43.6094"/><text fill="#000000" font-family="sans-serif" font-size="14" font-style="italic" lengthAdjust="spacing" textLength="92" x="796" y="65.1426">«system (C4)»</text><text fill="#000000" font-family="sans-serif" font-size="14" lengthAdjust="spacing" textLength="21" x="831.5" y="82.752">MD</text><rect fill="#E3E3E3" height="49.2188" rx="2.5" ry="2.5" style="stroke:#181818;stroke-width:0.5;" width="106" x="789" y="396.6406"/><text fill="#000000" font-family="sans-serif" font-size="14" font-style="italic" lengthAdjust="spacing" textLength="92" x="796" y="418.1738">«system (C4)»</text><text fill="#000000" font-family="sans-serif" font-size="14" lengthAdjust="spacing" textLength="21" x="831.5" y="435.7832">MD</text><rect fill="#FFFFFF" height="253.4609" style="stroke:#181818;stroke-width:1.0;" width="10" x="431" y="126.1797"/><rect fill="#FFFFFF" height="232.1094" style="stroke:#181818;stroke-width:1.0;" width="10" x="837" y="156.5313"/><ellipse cx="121.5" cy="125.4297" fill="none" rx="4" ry="4" style="stroke:#181818;stroke-width:1.5;"/><polygon fill="#181818" points="419,122.1797,429,126.1797,419,130.1797,423,126.1797" style="stroke:#181818;stroke-width:1.0;"/><line style="stroke:#181818;stroke-width:1.0;" x1="126" x2="425" y1="126.1797" y2="126.1797"/><text fill="#000000" font-family="sans-serif" font-size="13" font-weight="bold" lengthAdjust="spacing" textLength="7" x="129" y="121.3232">1</text><text fill="#000000" font-family="sans-serif" font-size="13" lengthAdjust="spacing" textLength="276" x="140" y="121.3232">GET (../buildings/:code/floors?withPassageway)</text><polygon fill="#181818" points="825,152.5313,835,156.5313,825,160.5313,829,156.5313" style="stroke:#181818;stroke-width:1.0;"/><line style="stroke:#181818;stroke-width:1.0;" x1="441" x2="831" y1="156.5313" y2="156.5313"/><text fill="#000000" font-family="sans-serif" font-size="13" font-weight="bold" lengthAdjust="spacing" textLength="7" x="448" y="151.6748">2</text><text fill="#000000" font-family="sans-serif" font-size="13" lengthAdjust="spacing" textLength="366" x="459" y="151.6748">getFloorsWithPassagewaysToBuildingByBuilding(buildingCode)</text><line style="stroke:#181818;stroke-width:1.0;" x1="847" x2="889" y1="186.8828" y2="186.8828"/><line style="stroke:#181818;stroke-width:1.0;" x1="889" x2="889" y1="186.8828" y2="199.8828"/><line style="stroke:#181818;stroke-width:1.0;" x1="848" x2="889" y1="199.8828" y2="199.8828"/><polygon fill="#181818" points="858,195.8828,848,199.8828,858,203.8828,854,199.8828" style="stroke:#181818;stroke-width:1.0;"/><text fill="#000000" font-family="sans-serif" font-size="13" font-weight="bold" lengthAdjust="spacing" textLength="7" x="854" y="182.0264">3</text><text fill="#000000" font-family="sans-serif" font-size="13" lengthAdjust="spacing" textLength="268" x="865" y="182.0264">getPassageways(buildingCode): passageways</text><path d="M779,214.8828 L852,214.8828 L852,223.2344 L842,233.2344 L779,233.2344 L779,214.8828 " fill="#EEEEEE" style="stroke:#000000;stroke-width:1.5;"/><rect fill="none" height="105.0547" style="stroke:#000000;stroke-width:1.5;" width="305" x="779" y="214.8828"/><text fill="#000000" font-family="sans-serif" font-size="13" font-weight="bold" lengthAdjust="spacing" textLength="28" x="794" y="229.3779">loop</text><text fill="#000000" font-family="sans-serif" font-size="11" font-weight="bold" lengthAdjust="spacing" textLength="165" x="867" y="228.3018">[for every passageway found]</text><line style="stroke:#181818;stroke-width:1.0;" x1="847" x2="889" y1="255.5859" y2="255.5859"/><line style="stroke:#181818;stroke-width:1.0;" x1="889" x2="889" y1="255.5859" y2="268.5859"/><line style="stroke:#181818;stroke-width:1.0;" x1="848" x2="889" y1="268.5859" y2="268.5859"/><polygon fill="#181818" points="858,264.5859,848,268.5859,858,272.5859,854,268.5859" style="stroke:#181818;stroke-width:1.0;"/><text fill="#000000" font-family="sans-serif" font-size="13" font-weight="bold" lengthAdjust="spacing" textLength="7" x="854" y="250.7295">4</text><text fill="#000000" font-family="sans-serif" font-size="13" lengthAdjust="spacing" textLength="207" x="865" y="250.7295">findFloor(buildingCode1, floorCode1)</text><line style="stroke:#181818;stroke-width:1.0;" x1="847" x2="889" y1="298.9375" y2="298.9375"/><line style="stroke:#181818;stroke-width:1.0;" x1="889" x2="889" y1="298.9375" y2="311.9375"/><line style="stroke:#181818;stroke-width:1.0;" x1="848" x2="889" y1="311.9375" y2="311.9375"/><polygon fill="#181818" points="858,307.9375,848,311.9375,858,315.9375,854,311.9375" style="stroke:#181818;stroke-width:1.0;"/><text fill="#000000" font-family="sans-serif" font-size="13" font-weight="bold" lengthAdjust="spacing" textLength="7" x="854" y="294.0811">5</text><text fill="#000000" font-family="sans-serif" font-size="13" lengthAdjust="spacing" textLength="207" x="865" y="294.0811">findFloor(buildingCode2, floorCode2)</text><polygon fill="#181818" points="452,345.2891,442,349.2891,452,353.2891,448,349.2891" style="stroke:#181818;stroke-width:1.0;"/><line style="stroke:#181818;stroke-width:1.0;stroke-dasharray:2.0,2.0;" x1="446" x2="836" y1="349.2891" y2="349.2891"/><text fill="#000000" font-family="sans-serif" font-size="13" font-weight="bold" lengthAdjust="spacing" textLength="7" x="458" y="344.4326">6</text><text fill="#000000" font-family="sans-serif" font-size="13" lengthAdjust="spacing" textLength="65" x="469" y="344.4326">status: 200</text><polygon fill="#181818" points="11,375.6406,1,379.6406,11,383.6406,7,379.6406" style="stroke:#181818;stroke-width:1.0;"/><line style="stroke:#181818;stroke-width:1.0;stroke-dasharray:2.0,2.0;" x1="5" x2="435" y1="379.6406" y2="379.6406"/><text fill="#000000" font-family="sans-serif" font-size="13" font-weight="bold" lengthAdjust="spacing" textLength="7" x="17" y="374.7842">7</text><text fill="#000000" font-family="sans-serif" font-size="13" lengthAdjust="spacing" textLength="401" x="28" y="374.7842">informação sobre o piso e a que outros edificios/pisos tem passagem</text><!--MD5=[7dbb15aea78e6f7393d80dfe59f91f60]
@startuml
skinparam monochrome true
skinparam packageStyle rectangle
skinparam shadowing false

title System Sequence Diagram (SSD) - US 280
autonumber

participant "RobDroneGo" as Sistema <<system (C4)>>
participant "MD" as MD <<system (C4)>>

?o-> Sistema : GET (../buildings/:code/floors?withPassageway)
activate Sistema

Sistema -> MD : getFloorsWithPassagewaysToBuildingByBuilding(buildingCode)

activate MD
MD -> MD: getPassageways(buildingCode): passageways
loop for every passageway found
MD -> MD: findFloor(buildingCode1, floorCode1)
MD -> MD: findFloor(buildingCode2, floorCode2)
end

    MD - -> Sistema : status: 200
    <- - Sistema :  informação sobre o piso e a que outros edificios/pisos tem passagem
    deactivate Sistema


@enduml

PlantUML version 1.2022.7(Mon Aug 22 18:01:30 WEST 2022)
(GPL source distribution)
Java Runtime: OpenJDK Runtime Environment
JVM: OpenJDK 64-Bit Server VM
Default Encoding: UTF-8
Language: en
Country: GB
--></g></svg>