<?xml version="1.0" encoding="us-ascii" standalone="no"?><svg xmlns="http://www.w3.org/2000/svg" xmlns:xlink="http://www.w3.org/1999/xlink" contentStyleType="text/css" height="753px" preserveAspectRatio="none" style="width:792px;height:753px;background:#FFFFFF;" version="1.1" viewBox="0 0 792 753" width="792.6px" zoomAndPan="magnify"><defs/><g><text fill="#000000" font-family="sans-serif" font-size="8.4" font-weight="bold" lengthAdjust="spacing" textLength="244.8" x="273.45" y="18.0645">Sequence Diagram (Level 3 - Process View - MD) - US 1070</text><rect fill="#FFFFFF" height="270.6387" style="stroke:#181818;stroke-width:0.6;" width="6" x="139.2" y="89.2652"/><rect fill="#FFFFFF" height="319.1566" style="stroke:#181818;stroke-width:0.6;" width="6" x="139.2" y="378.6785"/><rect fill="#FFFFFF" height="233.0895" style="stroke:#181818;stroke-width:0.6;" width="6" x="246" y="108.0398"/><rect fill="#FFFFFF" height="186.5402" style="stroke:#181818;stroke-width:0.6;" width="6" x="249" y="131.6145"/><rect fill="#FFFFFF" height="281.6074" style="stroke:#181818;stroke-width:0.6;" width="6" x="246" y="397.4531"/><rect fill="#FFFFFF" height="235.0582" style="stroke:#181818;stroke-width:0.6;" width="6" x="249" y="421.0277"/><rect fill="#FFFFFF" height="142.391" style="stroke:#181818;stroke-width:0.6;" width="6" x="460.8" y="153.3891"/><rect fill="#FFFFFF" height="142.391" style="stroke:#181818;stroke-width:0.6;" width="6" x="460.8" y="491.3203"/><rect fill="#FFFFFF" height="56.3238" style="stroke:#181818;stroke-width:0.6;" width="6" x="683.4" y="172.1637"/><rect fill="#FFFFFF" height="56.3238" style="stroke:#181818;stroke-width:0.6;" width="6" x="683.4" y="558.6129"/><rect fill="#FFFFFF" height="18.7746" style="stroke:#181818;stroke-width:0.6;" width="6" x="758.7" y="190.9383"/><rect fill="#FFFFFF" height="18.7746" style="stroke:#181818;stroke-width:0.6;" width="6" x="758.7" y="577.3875"/><line style="stroke:#181818;stroke-width:0.3;stroke-dasharray:5.0,5.0;" x1="141.9" x2="141.9" y1="69.2906" y2="708.6352"/><line style="stroke:#181818;stroke-width:0.3;stroke-dasharray:5.0,5.0;" x1="248.7" x2="248.7" y1="69.2906" y2="708.6352"/><line style="stroke:#181818;stroke-width:0.3;stroke-dasharray:5.0,5.0;" x1="375.9" x2="375.9" y1="459.0867" y2="708.6352"/><line style="stroke:#181818;stroke-width:0.3;stroke-dasharray:5.0,5.0;" x1="463.5" x2="463.5" y1="69.2906" y2="708.6352"/><line style="stroke:#181818;stroke-width:0.3;stroke-dasharray:5.0,5.0;" x1="553.5" x2="553.5" y1="263.5465" y2="708.6352"/><line style="stroke:#181818;stroke-width:0.3;stroke-dasharray:5.0,5.0;" x1="615.3" x2="615.3" y1="526.3793" y2="708.6352"/><line style="stroke:#181818;stroke-width:0.3;stroke-dasharray:5.0,5.0;" x1="686.1" x2="686.1" y1="69.2906" y2="708.6352"/><line style="stroke:#181818;stroke-width:0.3;stroke-dasharray:5.0,5.0;" x1="761.7" x2="761.7" y1="69.2906" y2="708.6352"/><rect fill="#E3E3E3" height="30.7453" rx="1.5" ry="1.5" style="stroke:#181818;stroke-width:0.3;" width="60.6" x="111.9" y="37.9453"/><text fill="#000000" font-family="sans-serif" font-size="8.4" font-style="italic" lengthAdjust="spacing" textLength="32.4" x="126" y="51.2098">&#171;Route&#187;</text><text fill="#000000" font-family="sans-serif" font-size="8.4" lengthAdjust="spacing" textLength="52.2" x="116.1" y="62.3824">buildingRoute</text><rect fill="#E3E3E3" height="30.7453" rx="1.5" ry="1.5" style="stroke:#181818;stroke-width:0.3;" width="60.6" x="111.9" y="708.0352"/><text fill="#000000" font-family="sans-serif" font-size="8.4" font-style="italic" lengthAdjust="spacing" textLength="32.4" x="126" y="721.2996">&#171;Route&#187;</text><text fill="#000000" font-family="sans-serif" font-size="8.4" lengthAdjust="spacing" textLength="52.2" x="116.1" y="732.4723">buildingRoute</text><rect fill="#E3E3E3" height="41.918" rx="1.5" ry="1.5" style="stroke:#181818;stroke-width:0.3;" width="79.8" x="209.1" y="26.7727"/><text fill="#000000" font-family="sans-serif" font-size="8.4" font-style="italic" lengthAdjust="spacing" textLength="46.8" x="225.6" y="40.0371">&#171;Controller&#187;</text><text fill="#000000" font-family="sans-serif" font-size="8.4" lengthAdjust="spacing" textLength="46.2" x="225.9" y="51.2098">ctrlBuilding :</text><text fill="#000000" font-family="sans-serif" font-size="8.4" lengthAdjust="spacing" textLength="69" x="215.7" y="62.3824">IBuildingController</text><rect fill="#E3E3E3" height="41.918" rx="1.5" ry="1.5" style="stroke:#181818;stroke-width:0.3;" width="79.8" x="209.1" y="708.0352"/><text fill="#000000" font-family="sans-serif" font-size="8.4" font-style="italic" lengthAdjust="spacing" textLength="46.8" x="225.6" y="721.2996">&#171;Controller&#187;</text><text fill="#000000" font-family="sans-serif" font-size="8.4" lengthAdjust="spacing" textLength="46.2" x="225.9" y="732.4723">ctrlBuilding :</text><text fill="#000000" font-family="sans-serif" font-size="8.4" lengthAdjust="spacing" textLength="69" x="215.7" y="743.6449">IBuildingController</text><rect fill="#E3E3E3" height="41.918" rx="1.5" ry="1.5" style="stroke:#181818;stroke-width:0.3;" width="60.6" x="345.9" y="708.0352"/><text fill="#000000" font-family="sans-serif" font-size="8.4" font-style="italic" lengthAdjust="spacing" textLength="27.6" x="362.4" y="721.2996">&#171;DTO&#187;</text><text fill="#000000" font-family="sans-serif" font-size="8.4" lengthAdjust="spacing" textLength="52.2" x="350.1" y="732.4723">buildingDTO :</text><text fill="#000000" font-family="sans-serif" font-size="8.4" lengthAdjust="spacing" textLength="49.8" x="352.5" y="743.6449">IBuildingDTO</text><rect fill="#E3E3E3" height="41.918" rx="1.5" ry="1.5" style="stroke:#181818;stroke-width:0.3;" width="102.6" x="412.5" y="26.7727"/><text fill="#000000" font-family="sans-serif" font-size="8.4" font-style="italic" lengthAdjust="spacing" textLength="37.2" x="445.2" y="40.0371">&#171;Service&#187;</text><text fill="#000000" font-family="sans-serif" font-size="8.4" lengthAdjust="spacing" textLength="94.2" x="416.7" y="51.2098">buildingServiceInstance :</text><text fill="#000000" font-family="sans-serif" font-size="8.4" lengthAdjust="spacing" textLength="60" x="435" y="62.3824">IBuildingService</text><rect fill="#E3E3E3" height="41.918" rx="1.5" ry="1.5" style="stroke:#181818;stroke-width:0.3;" width="102.6" x="412.5" y="708.0352"/><text fill="#000000" font-family="sans-serif" font-size="8.4" font-style="italic" lengthAdjust="spacing" textLength="37.2" x="445.2" y="721.2996">&#171;Service&#187;</text><text fill="#000000" font-family="sans-serif" font-size="8.4" lengthAdjust="spacing" textLength="94.2" x="416.7" y="732.4723">buildingServiceInstance :</text><text fill="#000000" font-family="sans-serif" font-size="8.4" lengthAdjust="spacing" textLength="60" x="435" y="743.6449">IBuildingService</text><rect fill="#E3E3E3" height="41.918" rx="1.5" ry="1.5" style="stroke:#181818;stroke-width:0.3;" width="64.8" x="521.1" y="708.0352"/><text fill="#000000" font-family="sans-serif" font-size="8.4" font-style="italic" lengthAdjust="spacing" textLength="27.6" x="539.7" y="721.2996">&#171;DTO&#187;</text><text fill="#000000" font-family="sans-serif" font-size="8.4" lengthAdjust="spacing" textLength="56.4" x="525.3" y="732.4723">buildingDTOs :</text><text fill="#000000" font-family="sans-serif" font-size="8.4" lengthAdjust="spacing" textLength="52.8" x="528.3" y="743.6449">IBuildngDTO[]</text><rect fill="#E3E3E3" height="41.918" rx="1.5" ry="1.5" style="stroke:#181818;stroke-width:0.3;" width="46.8" x="591.9" y="708.0352"/><text fill="#000000" font-family="sans-serif" font-size="8.4" font-style="italic" lengthAdjust="spacing" textLength="38.4" x="596.1" y="721.2996">&#171;Domain&#187;</text><text fill="#000000" font-family="sans-serif" font-size="8.4" lengthAdjust="spacing" textLength="34.2" x="598.2" y="732.4723">building :</text><text fill="#000000" font-family="sans-serif" font-size="8.4" lengthAdjust="spacing" textLength="29.4" x="601.8" y="743.6449">building</text><rect fill="#E3E3E3" height="41.918" rx="1.5" ry="1.5" style="stroke:#181818;stroke-width:0.3;" width="83.4" x="644.7" y="26.7727"/><text fill="#000000" font-family="sans-serif" font-size="8.4" font-style="italic" lengthAdjust="spacing" textLength="50.4" x="661.2" y="40.0371">&#171;Repository&#187;</text><text fill="#000000" font-family="sans-serif" font-size="8.4" lengthAdjust="spacing" textLength="54.6" x="659.1" y="51.2098">buildingRepo :</text><text fill="#000000" font-family="sans-serif" font-size="8.4" lengthAdjust="spacing" textLength="72.6" x="651.3" y="62.3824">IBuildingRepository</text><rect fill="#E3E3E3" height="41.918" rx="1.5" ry="1.5" style="stroke:#181818;stroke-width:0.3;" width="83.4" x="644.7" y="708.0352"/><text fill="#000000" font-family="sans-serif" font-size="8.4" font-style="italic" lengthAdjust="spacing" textLength="50.4" x="661.2" y="721.2996">&#171;Repository&#187;</text><text fill="#000000" font-family="sans-serif" font-size="8.4" lengthAdjust="spacing" textLength="54.6" x="659.1" y="732.4723">buildingRepo :</text><text fill="#000000" font-family="sans-serif" font-size="8.4" lengthAdjust="spacing" textLength="72.6" x="651.3" y="743.6449">IBuildingRepository</text><rect fill="#E3E3E3" height="30.7453" rx="1.5" ry="1.5" style="stroke:#181818;stroke-width:0.3;" width="55.2" x="734.1" y="37.9453"/><text fill="#000000" font-family="sans-serif" font-size="8.4" font-style="italic" lengthAdjust="spacing" textLength="46.8" x="738.3" y="51.2098">&#171;DataBase&#187;</text><text fill="#000000" font-family="sans-serif" font-size="8.4" lengthAdjust="spacing" textLength="11.4" x="756" y="62.3824">DB</text><rect fill="#E3E3E3" height="30.7453" rx="1.5" ry="1.5" style="stroke:#181818;stroke-width:0.3;" width="55.2" x="734.1" y="708.0352"/><text fill="#000000" font-family="sans-serif" font-size="8.4" font-style="italic" lengthAdjust="spacing" textLength="46.8" x="738.3" y="721.2996">&#171;DataBase&#187;</text><text fill="#000000" font-family="sans-serif" font-size="8.4" lengthAdjust="spacing" textLength="11.4" x="756" y="732.4723">DB</text><rect fill="#FFFFFF" height="270.6387" style="stroke:#181818;stroke-width:0.6;" width="6" x="139.2" y="89.2652"/><rect fill="#FFFFFF" height="319.1566" style="stroke:#181818;stroke-width:0.6;" width="6" x="139.2" y="378.6785"/><rect fill="#FFFFFF" height="233.0895" style="stroke:#181818;stroke-width:0.6;" width="6" x="246" y="108.0398"/><rect fill="#FFFFFF" height="186.5402" style="stroke:#181818;stroke-width:0.6;" width="6" x="249" y="131.6145"/><rect fill="#FFFFFF" height="281.6074" style="stroke:#181818;stroke-width:0.6;" width="6" x="246" y="397.4531"/><rect fill="#FFFFFF" height="235.0582" style="stroke:#181818;stroke-width:0.6;" width="6" x="249" y="421.0277"/><rect fill="#FFFFFF" height="142.391" style="stroke:#181818;stroke-width:0.6;" width="6" x="460.8" y="153.3891"/><rect fill="#FFFFFF" height="142.391" style="stroke:#181818;stroke-width:0.6;" width="6" x="460.8" y="491.3203"/><rect fill="#FFFFFF" height="56.3238" style="stroke:#181818;stroke-width:0.6;" width="6" x="683.4" y="172.1637"/><rect fill="#FFFFFF" height="56.3238" style="stroke:#181818;stroke-width:0.6;" width="6" x="683.4" y="558.6129"/><rect fill="#FFFFFF" height="18.7746" style="stroke:#181818;stroke-width:0.6;" width="6" x="758.7" y="190.9383"/><rect fill="#FFFFFF" height="18.7746" style="stroke:#181818;stroke-width:0.6;" width="6" x="758.7" y="577.3875"/><ellipse cx="56.1" cy="88.8152" fill="none" rx="2.4" ry="2.4" style="stroke:#181818;stroke-width:0.8999999999999999;"/><polygon fill="#181818" points="132,86.8652,138,89.2652,132,91.6652,134.4,89.2652" style="stroke:#181818;stroke-width:0.6;"/><line style="stroke:#181818;stroke-width:0.6;" x1="58.8" x2="135.6" y1="89.2652" y2="89.2652"/><text fill="#000000" font-family="sans-serif" font-size="7.8" font-weight="bold" lengthAdjust="spacing" textLength="4.2" x="60.6" y="86.1076">1</text><text fill="#000000" font-family="sans-serif" font-size="7.8" lengthAdjust="spacing" textLength="63" x="67.2" y="86.1076">GET (.../buildings)</text><polygon fill="#181818" points="238.8,105.6398,244.8,108.0398,238.8,110.4398,241.2,108.0398" style="stroke:#181818;stroke-width:0.6;"/><line style="stroke:#181818;stroke-width:0.6;" x1="145.2" x2="242.4" y1="108.0398" y2="108.0398"/><text fill="#000000" font-family="sans-serif" font-size="7.8" font-weight="bold" lengthAdjust="spacing" textLength="4.2" x="149.4" y="104.8822">2</text><text fill="#000000" font-family="sans-serif" font-size="7.8" lengthAdjust="spacing" textLength="78.6" x="156" y="104.8822">execute(req, res, next)</text><line style="stroke:#181818;stroke-width:0.6;" x1="252" x2="280.2" y1="123.8145" y2="123.8145"/><line style="stroke:#181818;stroke-width:0.6;" x1="280.2" x2="280.2" y1="123.8145" y2="131.6145"/><line style="stroke:#181818;stroke-width:0.6;" x1="255.6" x2="280.2" y1="131.6145" y2="131.6145"/><polygon fill="#181818" points="261.6,129.2145,255.6,131.6145,261.6,134.0145,259.2,131.6145" style="stroke:#181818;stroke-width:0.6;"/><text fill="#000000" font-family="sans-serif" font-size="7.8" font-weight="bold" lengthAdjust="spacing" textLength="4.2" x="259.2" y="120.6568">3</text><text fill="#000000" font-family="sans-serif" font-size="7.8" lengthAdjust="spacing" textLength="102.6" x="265.8" y="120.6568">getAllBuildings(req, res, next)</text><polygon fill="#181818" points="453.6,150.9891,459.6,153.3891,453.6,155.7891,456,153.3891" style="stroke:#181818;stroke-width:0.6;"/><line style="stroke:#181818;stroke-width:0.6;" x1="255" x2="457.2" y1="153.3891" y2="153.3891"/><text fill="#000000" font-family="sans-serif" font-size="7.8" font-weight="bold" lengthAdjust="spacing" textLength="4.2" x="259.2" y="150.2314">4</text><text fill="#000000" font-family="sans-serif" font-size="7.8" lengthAdjust="spacing" textLength="47.4" x="265.8" y="150.2314">getBuildings()</text><polygon fill="#181818" points="676.2,169.7637,682.2,172.1637,676.2,174.5637,678.6,172.1637" style="stroke:#181818;stroke-width:0.6;"/><line style="stroke:#181818;stroke-width:0.6;" x1="466.8" x2="679.8" y1="172.1637" y2="172.1637"/><text fill="#000000" font-family="sans-serif" font-size="7.8" font-weight="bold" lengthAdjust="spacing" textLength="4.2" x="471" y="169.0061">5</text><text fill="#000000" font-family="sans-serif" font-size="7.8" lengthAdjust="spacing" textLength="25.8" x="477.6" y="169.0061">findAll()</text><polygon fill="#181818" points="751.5,188.5383,757.5,190.9383,751.5,193.3383,753.9,190.9383" style="stroke:#181818;stroke-width:0.6;"/><line style="stroke:#181818;stroke-width:0.6;" x1="689.4" x2="755.1" y1="190.9383" y2="190.9383"/><text fill="#000000" font-family="sans-serif" font-size="7.8" font-weight="bold" lengthAdjust="spacing" textLength="4.2" x="693.6" y="187.7807">6</text><text fill="#000000" font-family="sans-serif" font-size="7.8" lengthAdjust="spacing" textLength="2.4" x="700.2" y="187.7807">&#160;</text><polygon fill="#181818" points="696,207.3129,690,209.7129,696,212.1129,693.6,209.7129" style="stroke:#181818;stroke-width:0.6;"/><line style="stroke:#181818;stroke-width:0.6;stroke-dasharray:2.0,2.0;" x1="692.4" x2="761.1" y1="209.7129" y2="209.7129"/><text fill="#000000" font-family="sans-serif" font-size="7.8" font-weight="bold" lengthAdjust="spacing" textLength="4.2" x="699.6" y="206.5553">7</text><text fill="#000000" font-family="sans-serif" font-size="7.8" lengthAdjust="spacing" textLength="2.4" x="706.2" y="206.5553">&#160;</text><polygon fill="#181818" points="473.4,226.0875,467.4,228.4875,473.4,230.8875,471,228.4875" style="stroke:#181818;stroke-width:0.6;"/><line style="stroke:#181818;stroke-width:0.6;stroke-dasharray:2.0,2.0;" x1="469.8" x2="685.8" y1="228.4875" y2="228.4875"/><text fill="#000000" font-family="sans-serif" font-size="7.8" font-weight="bold" lengthAdjust="spacing" textLength="4.2" x="477" y="225.3299">8</text><text fill="#000000" font-family="sans-serif" font-size="7.8" lengthAdjust="spacing" textLength="2.4" x="483.6" y="225.3299">&#160;</text><polygon fill="#181818" points="513.9,244.8621,519.9,247.2621,513.9,249.6621,516.3,247.2621" style="stroke:#181818;stroke-width:0.6;"/><line style="stroke:#181818;stroke-width:0.6;stroke-dasharray:2.0,2.0;" x1="466.8" x2="517.5" y1="247.2621" y2="247.2621"/><text fill="#000000" font-family="sans-serif" font-size="7.8" font-weight="bold" lengthAdjust="spacing" textLength="4.2" x="471" y="244.1045">9</text><text fill="#000000" font-family="sans-serif" font-size="7.8" lengthAdjust="spacing" textLength="21.6" x="477.6" y="244.1045">create</text><rect fill="#E3E3E3" height="41.918" rx="1.5" ry="1.5" style="stroke:#181818;stroke-width:0.3;" width="64.8" x="521.1" y="233.2875"/><text fill="#000000" font-family="sans-serif" font-size="8.4" font-style="italic" lengthAdjust="spacing" textLength="27.6" x="539.7" y="246.552">&#171;DTO&#187;</text><text fill="#000000" font-family="sans-serif" font-size="8.4" lengthAdjust="spacing" textLength="56.4" x="525.3" y="257.7246">buildingDTOs :</text><text fill="#000000" font-family="sans-serif" font-size="8.4" lengthAdjust="spacing" textLength="52.8" x="528.3" y="268.8973">IBuildngDTO[]</text><polygon fill="#181818" points="261.6,293.3801,255.6,295.7801,261.6,298.1801,259.2,295.7801" style="stroke:#181818;stroke-width:0.6;"/><line style="stroke:#181818;stroke-width:0.6;stroke-dasharray:2.0,2.0;" x1="258" x2="463.2" y1="295.7801" y2="295.7801"/><text fill="#000000" font-family="sans-serif" font-size="7.8" font-weight="bold" lengthAdjust="spacing" textLength="8.4" x="265.2" y="292.6225">10</text><text fill="#000000" font-family="sans-serif" font-size="7.8" lengthAdjust="spacing" textLength="46.2" x="276" y="292.6225">buildingDTOs</text><line style="stroke:#181818;stroke-width:0.6;stroke-dasharray:2.0,2.0;" x1="255" x2="280.2" y1="317.5547" y2="317.5547"/><line style="stroke:#181818;stroke-width:0.6;stroke-dasharray:2.0,2.0;" x1="280.2" x2="280.2" y1="317.5547" y2="325.3547"/><line style="stroke:#181818;stroke-width:0.6;stroke-dasharray:2.0,2.0;" x1="252" x2="280.2" y1="325.3547" y2="325.3547"/><polygon fill="#181818" points="258,322.9547,252,325.3547,258,327.7547,255.6,325.3547" style="stroke:#181818;stroke-width:0.6;"/><text fill="#000000" font-family="sans-serif" font-size="7.8" font-weight="bold" lengthAdjust="spacing" textLength="8.4" x="259.2" y="314.3971">11</text><text fill="#000000" font-family="sans-serif" font-size="7.8" lengthAdjust="spacing" textLength="54" x="270" y="314.3971">status: 200/404</text><polygon fill="#181818" points="151.8,338.7293,145.8,341.1293,151.8,343.5293,149.4,341.1293" style="stroke:#181818;stroke-width:0.6;"/><line style="stroke:#181818;stroke-width:0.6;stroke-dasharray:2.0,2.0;" x1="148.2" x2="248.4" y1="341.1293" y2="341.1293"/><text fill="#000000" font-family="sans-serif" font-size="7.8" font-weight="bold" lengthAdjust="spacing" textLength="8.4" x="155.4" y="337.9717">12</text><text fill="#000000" font-family="sans-serif" font-size="7.8" lengthAdjust="spacing" textLength="54" x="166.2" y="337.9717">status: 200/404</text><polygon fill="#181818" points="6.6,357.5039,0.6,359.9039,6.6,362.3039,4.2,359.9039" style="stroke:#181818;stroke-width:0.6;"/><line style="stroke:#181818;stroke-width:0.6;stroke-dasharray:2.0,2.0;" x1="3" x2="141.6" y1="359.9039" y2="359.9039"/><text fill="#000000" font-family="sans-serif" font-size="7.8" font-weight="bold" lengthAdjust="spacing" textLength="8.4" x="10.2" y="356.7463">13</text><text fill="#000000" font-family="sans-serif" font-size="7.8" lengthAdjust="spacing" textLength="54" x="21" y="356.7463">status: 200/404</text><ellipse cx="2.7" cy="378.2285" fill="none" rx="2.4" ry="2.4" style="stroke:#181818;stroke-width:0.8999999999999999;"/><polygon fill="#181818" points="132,376.2785,138,378.6785,132,381.0785,134.4,378.6785" style="stroke:#181818;stroke-width:0.6;"/><line style="stroke:#181818;stroke-width:0.6;" x1="5.4" x2="135.6" y1="378.6785" y2="378.6785"/><text fill="#000000" font-family="sans-serif" font-size="7.8" font-weight="bold" lengthAdjust="spacing" textLength="8.4" x="7.2" y="375.5209">14</text><text fill="#000000" font-family="sans-serif" font-size="7.8" lengthAdjust="spacing" textLength="112.2" x="18" y="375.5209">PUT/PATCH (.../buildings/:code)</text><polygon fill="#181818" points="238.8,395.0531,244.8,397.4531,238.8,399.8531,241.2,397.4531" style="stroke:#181818;stroke-width:0.6;"/><line style="stroke:#181818;stroke-width:0.6;" x1="145.2" x2="242.4" y1="397.4531" y2="397.4531"/><text fill="#000000" font-family="sans-serif" font-size="7.8" font-weight="bold" lengthAdjust="spacing" textLength="8.4" x="149.4" y="394.2955">15</text><text fill="#000000" font-family="sans-serif" font-size="7.8" lengthAdjust="spacing" textLength="78.6" x="160.2" y="394.2955">execute(req, res, next)</text><line style="stroke:#181818;stroke-width:0.6;" x1="252" x2="280.2" y1="413.2277" y2="413.2277"/><line style="stroke:#181818;stroke-width:0.6;" x1="280.2" x2="280.2" y1="413.2277" y2="421.0277"/><line style="stroke:#181818;stroke-width:0.6;" x1="255.6" x2="280.2" y1="421.0277" y2="421.0277"/><polygon fill="#181818" points="261.6,418.6277,255.6,421.0277,261.6,423.4277,259.2,421.0277" style="stroke:#181818;stroke-width:0.6;"/><text fill="#000000" font-family="sans-serif" font-size="7.8" font-weight="bold" lengthAdjust="spacing" textLength="8.4" x="259.2" y="410.0701">16</text><text fill="#000000" font-family="sans-serif" font-size="7.8" lengthAdjust="spacing" textLength="102" x="270" y="410.0701">updateBuilding(req, res, next)</text><polygon fill="#181818" points="338.7,440.4023,344.7,442.8023,338.7,445.2023,341.1,442.8023" style="stroke:#181818;stroke-width:0.6;"/><line style="stroke:#181818;stroke-width:0.6;stroke-dasharray:2.0,2.0;" x1="255" x2="342.3" y1="442.8023" y2="442.8023"/><text fill="#000000" font-family="sans-serif" font-size="7.8" font-weight="bold" lengthAdjust="spacing" textLength="8.4" x="259.2" y="439.6447">17</text><text fill="#000000" font-family="sans-serif" font-size="7.8" lengthAdjust="spacing" textLength="21.6" x="270" y="439.6447">create</text><rect fill="#E3E3E3" height="41.918" rx="1.5" ry="1.5" style="stroke:#181818;stroke-width:0.3;" width="60.6" x="345.9" y="428.8277"/><text fill="#000000" font-family="sans-serif" font-size="8.4" font-style="italic" lengthAdjust="spacing" textLength="27.6" x="362.4" y="442.0922">&#171;DTO&#187;</text><text fill="#000000" font-family="sans-serif" font-size="8.4" lengthAdjust="spacing" textLength="52.2" x="350.1" y="453.2648">buildingDTO :</text><text fill="#000000" font-family="sans-serif" font-size="8.4" lengthAdjust="spacing" textLength="49.8" x="352.5" y="464.4375">IBuildingDTO</text><polygon fill="#181818" points="453.6,488.9203,459.6,491.3203,453.6,493.7203,456,491.3203" style="stroke:#181818;stroke-width:0.6;"/><line style="stroke:#181818;stroke-width:0.6;" x1="255" x2="457.2" y1="491.3203" y2="491.3203"/><text fill="#000000" font-family="sans-serif" font-size="7.8" font-weight="bold" lengthAdjust="spacing" textLength="8.4" x="259.2" y="488.1627">18</text><text fill="#000000" font-family="sans-serif" font-size="7.8" lengthAdjust="spacing" textLength="97.8" x="270" y="488.1627">updateBuilding(buildingDTO)</text><polygon fill="#181818" points="584.7,507.6949,590.7,510.0949,584.7,512.4949,587.1,510.0949" style="stroke:#181818;stroke-width:0.6;"/><line style="stroke:#181818;stroke-width:0.6;stroke-dasharray:2.0,2.0;" x1="466.8" x2="588.3" y1="510.0949" y2="510.0949"/><text fill="#000000" font-family="sans-serif" font-size="7.8" font-weight="bold" lengthAdjust="spacing" textLength="8.4" x="471" y="506.9373">19</text><text fill="#000000" font-family="sans-serif" font-size="7.8" lengthAdjust="spacing" textLength="21.6" x="481.8" y="506.9373">create</text><rect fill="#E3E3E3" height="41.918" rx="1.5" ry="1.5" style="stroke:#181818;stroke-width:0.3;" width="46.8" x="591.9" y="496.1203"/><text fill="#000000" font-family="sans-serif" font-size="8.4" font-style="italic" lengthAdjust="spacing" textLength="38.4" x="596.1" y="509.3848">&#171;Domain&#187;</text><text fill="#000000" font-family="sans-serif" font-size="8.4" lengthAdjust="spacing" textLength="34.2" x="598.2" y="520.5574">building :</text><text fill="#000000" font-family="sans-serif" font-size="8.4" lengthAdjust="spacing" textLength="29.4" x="601.8" y="531.7301">building</text><polygon fill="#181818" points="676.2,556.2129,682.2,558.6129,676.2,561.0129,678.6,558.6129" style="stroke:#181818;stroke-width:0.6;"/><line style="stroke:#181818;stroke-width:0.6;" x1="466.8" x2="679.8" y1="558.6129" y2="558.6129"/><text fill="#000000" font-family="sans-serif" font-size="7.8" font-weight="bold" lengthAdjust="spacing" textLength="8.4" x="471" y="555.4553">20</text><text fill="#000000" font-family="sans-serif" font-size="7.8" lengthAdjust="spacing" textLength="54.6" x="481.8" y="555.4553">update(building)</text><polygon fill="#181818" points="751.5,574.9875,757.5,577.3875,751.5,579.7875,753.9,577.3875" style="stroke:#181818;stroke-width:0.6;"/><line style="stroke:#181818;stroke-width:0.6;" x1="689.4" x2="755.1" y1="577.3875" y2="577.3875"/><text fill="#000000" font-family="sans-serif" font-size="7.8" font-weight="bold" lengthAdjust="spacing" textLength="8.4" x="693.6" y="574.2299">21</text><text fill="#000000" font-family="sans-serif" font-size="7.8" lengthAdjust="spacing" textLength="46.8" x="704.4" y="574.2299">save(building)</text><polygon fill="#181818" points="696,593.7621,690,596.1621,696,598.5621,693.6,596.1621" style="stroke:#181818;stroke-width:0.6;"/><line style="stroke:#181818;stroke-width:0.6;stroke-dasharray:2.0,2.0;" x1="692.4" x2="761.1" y1="596.1621" y2="596.1621"/><text fill="#000000" font-family="sans-serif" font-size="7.8" font-weight="bold" lengthAdjust="spacing" textLength="8.4" x="699.6" y="593.0045">22</text><text fill="#000000" font-family="sans-serif" font-size="7.8" lengthAdjust="spacing" textLength="2.4" x="710.4" y="593.0045">&#160;</text><polygon fill="#181818" points="473.4,612.5367,467.4,614.9367,473.4,617.3367,471,614.9367" style="stroke:#181818;stroke-width:0.6;"/><line style="stroke:#181818;stroke-width:0.6;stroke-dasharray:2.0,2.0;" x1="469.8" x2="685.8" y1="614.9367" y2="614.9367"/><text fill="#000000" font-family="sans-serif" font-size="7.8" font-weight="bold" lengthAdjust="spacing" textLength="8.4" x="477" y="611.7791">23</text><text fill="#000000" font-family="sans-serif" font-size="7.8" lengthAdjust="spacing" textLength="2.4" x="487.8" y="611.7791">&#160;</text><polygon fill="#181818" points="261.6,631.3113,255.6,633.7113,261.6,636.1113,259.2,633.7113" style="stroke:#181818;stroke-width:0.6;"/><line style="stroke:#181818;stroke-width:0.6;stroke-dasharray:2.0,2.0;" x1="258" x2="463.2" y1="633.7113" y2="633.7113"/><text fill="#000000" font-family="sans-serif" font-size="7.8" font-weight="bold" lengthAdjust="spacing" textLength="8.4" x="265.2" y="630.5537">24</text><text fill="#000000" font-family="sans-serif" font-size="7.8" lengthAdjust="spacing" textLength="2.4" x="276" y="630.5537">&#160;</text><line style="stroke:#181818;stroke-width:0.6;stroke-dasharray:2.0,2.0;" x1="255" x2="280.2" y1="655.4859" y2="655.4859"/><line style="stroke:#181818;stroke-width:0.6;stroke-dasharray:2.0,2.0;" x1="280.2" x2="280.2" y1="655.4859" y2="663.2859"/><line style="stroke:#181818;stroke-width:0.6;stroke-dasharray:2.0,2.0;" x1="252" x2="280.2" y1="663.2859" y2="663.2859"/><polygon fill="#181818" points="258,660.8859,252,663.2859,258,665.6859,255.6,663.2859" style="stroke:#181818;stroke-width:0.6;"/><text fill="#000000" font-family="sans-serif" font-size="7.8" font-weight="bold" lengthAdjust="spacing" textLength="8.4" x="259.2" y="652.3283">25</text><text fill="#000000" font-family="sans-serif" font-size="7.8" lengthAdjust="spacing" textLength="54" x="270" y="652.3283">status: 200/404</text><polygon fill="#181818" points="151.8,676.6605,145.8,679.0605,151.8,681.4605,149.4,679.0605" style="stroke:#181818;stroke-width:0.6;"/><line style="stroke:#181818;stroke-width:0.6;stroke-dasharray:2.0,2.0;" x1="148.2" x2="248.4" y1="679.0605" y2="679.0605"/><text fill="#000000" font-family="sans-serif" font-size="7.8" font-weight="bold" lengthAdjust="spacing" textLength="8.4" x="155.4" y="675.9029">26</text><text fill="#000000" font-family="sans-serif" font-size="7.8" lengthAdjust="spacing" textLength="54" x="166.2" y="675.9029">status: 200/404</text><polygon fill="#181818" points="6.6,695.4352,0.6,697.8352,6.6,700.2352,4.2,697.8352" style="stroke:#181818;stroke-width:0.6;"/><line style="stroke:#181818;stroke-width:0.6;stroke-dasharray:2.0,2.0;" x1="3" x2="141.6" y1="697.8352" y2="697.8352"/><text fill="#000000" font-family="sans-serif" font-size="7.8" font-weight="bold" lengthAdjust="spacing" textLength="8.4" x="10.2" y="694.6775">27</text><text fill="#000000" font-family="sans-serif" font-size="7.8" lengthAdjust="spacing" textLength="54" x="21" y="694.6775">status: 200/404</text><!--SRC=[vPHRJzim5CVV_IcEU6eHlMn3cXHLdIYPDYIcLRJi1VPWd4EnIErYEmM-FITkaYPfKgPTD4tpG-hB__nyUYwszrAjkE5BM6gbnPtHImHd4cIsE5bnSSyNE7FFCO91uRXQn6M1lUEHVfHg0RSyjiYOauwaCtn8K0c4KF95gkkSunfZU0Szc1ejq5hu9l6Hbb_2BdqlP_1c-7x8UEAqIfOtQ1YZ6vmKSiMLWuERHCOHtNEX4uS7m2tu6On6_dSyhig5C_4aCu7WMi5PlZhLoXaTnsWyPRiar7PHv-NNX_ElLHnjU4vfJI3wjX5cQDPIu9co54oAK8MM7NfYDYTQDjlZaorX_CRLzxfNvzAw_PvvHhwecATsUicb-WEc5xZIrI2aErOwRPutUKu5bEPYjquA9ruNJjAxkECJRjDOiG-wDywg981F7-VGwVVxW_nUssLSEBdcTEn5Z06DZPuCIuKH03wXeFsEmOSZwWDx10gVNDTR59IjXTzFHmbIHoxGdSH5ZTf6z6lutIloel7yBRpBAZO5CvDN3jEHOz80-lp0hLGH-TlfxcYtKIJbpgcFQOeW56KeQ1GKY73IU4w6lSALHaM4hp4sJfH3nFP06lzB4HMYr3hhy91Y90oIxLwpIWcK6vYrE99dg3NdTIWzAown0RmT3WV7msFMmAnLKesMTqmJg1d2HhrUgravg9isg_Jbz78-c9xCJp_NkdCG21tXN-xHP1MHKPxgtzAYrT9fAvksfguvL2gWd-xmaaC_LCJ5Yx3nfV3XLny6i7ozZ_QFlXFbUlf_Ulm5]--></g></svg>