<?xml version="1.0" encoding="us-ascii" standalone="no"?><svg xmlns="http://www.w3.org/2000/svg" xmlns:xlink="http://www.w3.org/1999/xlink" contentStyleType="text/css" height="441.6px" preserveAspectRatio="none" style="width:600px;height:441px;background:#FFFFFF;" version="1.1" viewBox="0 0 600 441" width="600.6px" zoomAndPan="magnify"><defs/><g><text fill="#000000" font-family="sans-serif" font-size="8.4" font-weight="bold" lengthAdjust="spacing" textLength="239.4" x="178.5" y="18.0645">Sequence Diagram (Level 3 - Process View - UI) - US 1070</text><rect fill="#FFFFFF" height="131.4223" style="stroke:#181818;stroke-width:0.6;" width="6" x="164.4" y="78.0926"/><rect fill="#FFFFFF" height="168.7676" style="stroke:#181818;stroke-width:0.6;" width="6" x="164.4" y="228.2895"/><rect fill="#FFFFFF" height="93.873" style="stroke:#181818;stroke-width:0.6;" width="6" x="318" y="96.8672"/><rect fill="#FFFFFF" height="131.2184" style="stroke:#181818;stroke-width:0.6;" width="6" x="318" y="247.0641"/><rect fill="#FFFFFF" height="56.3238" style="stroke:#181818;stroke-width:0.6;" width="6" x="453.6" y="115.6418"/><rect fill="#FFFFFF" height="56.3238" style="stroke:#181818;stroke-width:0.6;" width="6" x="453.6" y="303.184"/><line style="stroke:#181818;stroke-width:0.3;stroke-dasharray:5.0,5.0;" x1="167.1" x2="167.1" y1="58.118" y2="407.857"/><line style="stroke:#181818;stroke-width:0.3;stroke-dasharray:5.0,5.0;" x1="320.7" x2="320.7" y1="58.118" y2="407.857"/><line style="stroke:#181818;stroke-width:0.3;stroke-dasharray:5.0,5.0;" x1="388.5" x2="388.5" y1="276.5367" y2="407.857"/><line style="stroke:#181818;stroke-width:0.3;stroke-dasharray:5.0,5.0;" x1="456.3" x2="456.3" y1="58.118" y2="407.857"/><rect fill="#E3E3E3" height="30.7453" rx="1.5" ry="1.5" style="stroke:#181818;stroke-width:0.3;" width="61.8" x="136.5" y="26.7727"/><text fill="#000000" font-family="sans-serif" font-size="8.4" font-style="italic" lengthAdjust="spacing" textLength="53.4" x="140.7" y="40.0371">&#171;Component&#187;</text><text fill="#000000" font-family="sans-serif" font-size="8.4" lengthAdjust="spacing" textLength="17.4" x="158.7" y="51.2098">View</text><rect fill="#E3E3E3" height="30.7453" rx="1.5" ry="1.5" style="stroke:#181818;stroke-width:0.3;" width="61.8" x="136.5" y="407.257"/><text fill="#000000" font-family="sans-serif" font-size="8.4" font-style="italic" lengthAdjust="spacing" textLength="53.4" x="140.7" y="420.5215">&#171;Component&#187;</text><text fill="#000000" font-family="sans-serif" font-size="8.4" lengthAdjust="spacing" textLength="17.4" x="158.7" y="431.6941">View</text><rect fill="#E3E3E3" height="30.7453" rx="1.5" ry="1.5" style="stroke:#181818;stroke-width:0.3;" width="61.8" x="290.1" y="26.7727"/><text fill="#000000" font-family="sans-serif" font-size="8.4" font-style="italic" lengthAdjust="spacing" textLength="53.4" x="294.3" y="40.0371">&#171;Component&#187;</text><text fill="#000000" font-family="sans-serif" font-size="8.4" lengthAdjust="spacing" textLength="43.8" x="299.1" y="51.2098">Component</text><rect fill="#E3E3E3" height="30.7453" rx="1.5" ry="1.5" style="stroke:#181818;stroke-width:0.3;" width="61.8" x="290.1" y="407.257"/><text fill="#000000" font-family="sans-serif" font-size="8.4" font-style="italic" lengthAdjust="spacing" textLength="53.4" x="294.3" y="420.5215">&#171;Component&#187;</text><text fill="#000000" font-family="sans-serif" font-size="8.4" lengthAdjust="spacing" textLength="43.8" x="299.1" y="431.6941">Component</text><rect fill="#E3E3E3" height="30.7453" rx="1.5" ry="1.5" style="stroke:#181818;stroke-width:0.3;" width="61.8" x="357.9" y="407.257"/><text fill="#000000" font-family="sans-serif" font-size="8.4" font-style="italic" lengthAdjust="spacing" textLength="53.4" x="362.1" y="420.5215">&#171;Component&#187;</text><text fill="#000000" font-family="sans-serif" font-size="8.4" lengthAdjust="spacing" textLength="22.8" x="377.4" y="431.6941">Model</text><rect fill="#E3E3E3" height="30.7453" rx="1.5" ry="1.5" style="stroke:#181818;stroke-width:0.3;" width="61.8" x="425.7" y="26.7727"/><text fill="#000000" font-family="sans-serif" font-size="8.4" font-style="italic" lengthAdjust="spacing" textLength="53.4" x="429.9" y="40.0371">&#171;Component&#187;</text><text fill="#000000" font-family="sans-serif" font-size="8.4" lengthAdjust="spacing" textLength="28.2" x="442.5" y="51.2098">Service</text><rect fill="#E3E3E3" height="30.7453" rx="1.5" ry="1.5" style="stroke:#181818;stroke-width:0.3;" width="61.8" x="425.7" y="407.257"/><text fill="#000000" font-family="sans-serif" font-size="8.4" font-style="italic" lengthAdjust="spacing" textLength="53.4" x="429.9" y="420.5215">&#171;Component&#187;</text><text fill="#000000" font-family="sans-serif" font-size="8.4" lengthAdjust="spacing" textLength="28.2" x="442.5" y="431.6941">Service</text><rect fill="#FFFFFF" height="131.4223" style="stroke:#181818;stroke-width:0.6;" width="6" x="164.4" y="78.0926"/><rect fill="#FFFFFF" height="168.7676" style="stroke:#181818;stroke-width:0.6;" width="6" x="164.4" y="228.2895"/><rect fill="#FFFFFF" height="93.873" style="stroke:#181818;stroke-width:0.6;" width="6" x="318" y="96.8672"/><rect fill="#FFFFFF" height="131.2184" style="stroke:#181818;stroke-width:0.6;" width="6" x="318" y="247.0641"/><rect fill="#FFFFFF" height="56.3238" style="stroke:#181818;stroke-width:0.6;" width="6" x="453.6" y="115.6418"/><rect fill="#FFFFFF" height="56.3238" style="stroke:#181818;stroke-width:0.6;" width="6" x="453.6" y="303.184"/><ellipse cx="79.5" cy="77.6426" fill="none" rx="2.4" ry="2.4" style="stroke:#181818;stroke-width:0.8999999999999999;"/><polygon fill="#181818" points="157.2,75.6926,163.2,78.0926,157.2,80.4926,159.6,78.0926" style="stroke:#181818;stroke-width:0.6;"/><line style="stroke:#181818;stroke-width:0.6;" x1="82.2" x2="160.8" y1="78.0926" y2="78.0926"/><text fill="#000000" font-family="sans-serif" font-size="7.8" font-weight="bold" lengthAdjust="spacing" textLength="4.2" x="84" y="74.935">1</text><text fill="#000000" font-family="sans-serif" font-size="7.8" lengthAdjust="spacing" textLength="64.8" x="90.6" y="74.935">Ask to edit bulding</text><polygon fill="#181818" points="310.8,94.4672,316.8,96.8672,310.8,99.2672,313.2,96.8672" style="stroke:#181818;stroke-width:0.6;"/><line style="stroke:#181818;stroke-width:0.6;" x1="170.4" x2="314.4" y1="96.8672" y2="96.8672"/><text fill="#000000" font-family="sans-serif" font-size="7.8" font-weight="bold" lengthAdjust="spacing" textLength="4.2" x="174.6" y="93.7096">2</text><text fill="#000000" font-family="sans-serif" font-size="7.8" lengthAdjust="spacing" textLength="56.4" x="181.2" y="93.7096">getAllBuildings()</text><polygon fill="#181818" points="446.4,113.2418,452.4,115.6418,446.4,118.0418,448.8,115.6418" style="stroke:#181818;stroke-width:0.6;"/><line style="stroke:#181818;stroke-width:0.6;" x1="324" x2="450" y1="115.6418" y2="115.6418"/><text fill="#000000" font-family="sans-serif" font-size="7.8" font-weight="bold" lengthAdjust="spacing" textLength="4.2" x="328.2" y="112.4842">3</text><text fill="#000000" font-family="sans-serif" font-size="7.8" lengthAdjust="spacing" textLength="68.4" x="334.8" y="112.4842">getAllBuildingsInfo()</text><polygon fill="#181818" points="589.8,132.0164,595.8,134.4164,589.8,136.8164,592.2,134.4164" style="stroke:#181818;stroke-width:0.6;"/><line style="stroke:#181818;stroke-width:0.6;" x1="459.6" x2="593.4" y1="134.4164" y2="134.4164"/><text fill="#000000" font-family="sans-serif" font-size="7.8" font-weight="bold" lengthAdjust="spacing" textLength="4.2" x="463.8" y="131.2588">4</text><text fill="#000000" font-family="sans-serif" font-size="7.8" lengthAdjust="spacing" textLength="63" x="470.4" y="131.2588">GET (.../buildings)</text><polygon fill="#181818" points="466.2,150.791,460.2,153.191,466.2,155.591,463.8,153.191" style="stroke:#181818;stroke-width:0.6;"/><line style="stroke:#181818;stroke-width:0.6;stroke-dasharray:2.0,2.0;" x1="462.6" x2="596.4" y1="153.191" y2="153.191"/><text fill="#000000" font-family="sans-serif" font-size="7.8" font-weight="bold" lengthAdjust="spacing" textLength="4.2" x="469.8" y="150.0334">5</text><text fill="#000000" font-family="sans-serif" font-size="7.8" lengthAdjust="spacing" textLength="54" x="476.4" y="150.0334">status: 200/404</text><polygon fill="#181818" points="330.6,169.5656,324.6,171.9656,330.6,174.3656,328.2,171.9656" style="stroke:#181818;stroke-width:0.6;"/><line style="stroke:#181818;stroke-width:0.6;stroke-dasharray:2.0,2.0;" x1="327" x2="456" y1="171.9656" y2="171.9656"/><text fill="#000000" font-family="sans-serif" font-size="7.8" font-weight="bold" lengthAdjust="spacing" textLength="4.2" x="334.2" y="168.808">6</text><text fill="#000000" font-family="sans-serif" font-size="7.8" lengthAdjust="spacing" textLength="54.6" x="340.8" y="168.808">Success / Error</text><polygon fill="#181818" points="177,188.3402,171,190.7402,177,193.1402,174.6,190.7402" style="stroke:#181818;stroke-width:0.6;"/><line style="stroke:#181818;stroke-width:0.6;stroke-dasharray:2.0,2.0;" x1="173.4" x2="320.4" y1="190.7402" y2="190.7402"/><text fill="#000000" font-family="sans-serif" font-size="7.8" font-weight="bold" lengthAdjust="spacing" textLength="4.2" x="180.6" y="187.5826">7</text><text fill="#000000" font-family="sans-serif" font-size="7.8" lengthAdjust="spacing" textLength="122.4" x="187.2" y="187.5826">Information about the success/error</text><polygon fill="#181818" points="6.6,207.1148,0.6,209.5148,6.6,211.9148,4.2,209.5148" style="stroke:#181818;stroke-width:0.6;"/><line style="stroke:#181818;stroke-width:0.6;stroke-dasharray:2.0,2.0;" x1="3" x2="166.8" y1="209.5148" y2="209.5148"/><text fill="#000000" font-family="sans-serif" font-size="7.8" font-weight="bold" lengthAdjust="spacing" textLength="4.2" x="10.2" y="206.3572">8</text><text fill="#000000" font-family="sans-serif" font-size="7.8" lengthAdjust="spacing" textLength="146.4" x="16.8" y="206.3572">Ask to choose an building and to edit data</text><ellipse cx="45.9" cy="227.8395" fill="none" rx="2.4" ry="2.4" style="stroke:#181818;stroke-width:0.8999999999999999;"/><polygon fill="#181818" points="157.2,225.8895,163.2,228.2895,157.2,230.6895,159.6,228.2895" style="stroke:#181818;stroke-width:0.6;"/><line style="stroke:#181818;stroke-width:0.6;" x1="48.6" x2="160.8" y1="228.2895" y2="228.2895"/><text fill="#000000" font-family="sans-serif" font-size="7.8" font-weight="bold" lengthAdjust="spacing" textLength="4.2" x="50.4" y="225.1318">9</text><text fill="#000000" font-family="sans-serif" font-size="7.8" lengthAdjust="spacing" textLength="98.4" x="57" y="225.1318">Choose the building and edit</text><polygon fill="#181818" points="310.8,244.6641,316.8,247.0641,310.8,249.4641,313.2,247.0641" style="stroke:#181818;stroke-width:0.6;"/><line style="stroke:#181818;stroke-width:0.6;" x1="170.4" x2="314.4" y1="247.0641" y2="247.0641"/><text fill="#000000" font-family="sans-serif" font-size="7.8" font-weight="bold" lengthAdjust="spacing" textLength="8.4" x="174.6" y="243.9064">10</text><text fill="#000000" font-family="sans-serif" font-size="7.8" lengthAdjust="spacing" textLength="45" x="185.4" y="243.9064">editBuilding()</text><polygon fill="#181818" points="350.7,263.4387,356.7,265.8387,350.7,268.2387,353.1,265.8387" style="stroke:#181818;stroke-width:0.6;"/><line style="stroke:#181818;stroke-width:0.6;stroke-dasharray:2.0,2.0;" x1="324" x2="354.3" y1="265.8387" y2="265.8387"/><text fill="#000000" font-family="sans-serif" font-size="7.8" font-weight="bold" lengthAdjust="spacing" textLength="8.4" x="328.2" y="262.6811">11</text><text fill="#000000" font-family="sans-serif" font-size="7.8" lengthAdjust="spacing" textLength="2.4" x="339" y="262.6811">&#160;</text><rect fill="#E3E3E3" height="30.7453" rx="1.5" ry="1.5" style="stroke:#181818;stroke-width:0.3;" width="61.8" x="357.9" y="251.8641"/><text fill="#000000" font-family="sans-serif" font-size="8.4" font-style="italic" lengthAdjust="spacing" textLength="53.4" x="362.1" y="265.1285">&#171;Component&#187;</text><text fill="#000000" font-family="sans-serif" font-size="8.4" lengthAdjust="spacing" textLength="22.8" x="377.4" y="276.3012">Model</text><polygon fill="#181818" points="446.4,300.784,452.4,303.184,446.4,305.584,448.8,303.184" style="stroke:#181818;stroke-width:0.6;"/><line style="stroke:#181818;stroke-width:0.6;" x1="324" x2="450" y1="303.184" y2="303.184"/><text fill="#000000" font-family="sans-serif" font-size="7.8" font-weight="bold" lengthAdjust="spacing" textLength="8.4" x="328.2" y="300.0264">12</text><text fill="#000000" font-family="sans-serif" font-size="7.8" lengthAdjust="spacing" textLength="82.2" x="339" y="300.0264">updateBuilding(building)</text><polygon fill="#181818" points="589.8,319.5586,595.8,321.9586,589.8,324.3586,592.2,321.9586" style="stroke:#181818;stroke-width:0.6;"/><line style="stroke:#181818;stroke-width:0.6;" x1="459.6" x2="593.4" y1="321.9586" y2="321.9586"/><text fill="#000000" font-family="sans-serif" font-size="7.8" font-weight="bold" lengthAdjust="spacing" textLength="8.4" x="463.8" y="318.801">13</text><text fill="#000000" font-family="sans-serif" font-size="7.8" lengthAdjust="spacing" textLength="112.2" x="474.6" y="318.801">PUT/PATCH (.../buildings/:code)</text><polygon fill="#181818" points="466.2,338.3332,460.2,340.7332,466.2,343.1332,463.8,340.7332" style="stroke:#181818;stroke-width:0.6;"/><line style="stroke:#181818;stroke-width:0.6;stroke-dasharray:2.0,2.0;" x1="462.6" x2="596.4" y1="340.7332" y2="340.7332"/><text fill="#000000" font-family="sans-serif" font-size="7.8" font-weight="bold" lengthAdjust="spacing" textLength="8.4" x="469.8" y="337.5756">14</text><text fill="#000000" font-family="sans-serif" font-size="7.8" lengthAdjust="spacing" textLength="54" x="480.6" y="337.5756">status: 200/404</text><polygon fill="#181818" points="330.6,357.1078,324.6,359.5078,330.6,361.9078,328.2,359.5078" style="stroke:#181818;stroke-width:0.6;"/><line style="stroke:#181818;stroke-width:0.6;stroke-dasharray:2.0,2.0;" x1="327" x2="456" y1="359.5078" y2="359.5078"/><text fill="#000000" font-family="sans-serif" font-size="7.8" font-weight="bold" lengthAdjust="spacing" textLength="8.4" x="334.2" y="356.3502">15</text><text fill="#000000" font-family="sans-serif" font-size="7.8" lengthAdjust="spacing" textLength="54.6" x="345" y="356.3502">Success / Error</text><polygon fill="#181818" points="177,375.8824,171,378.2824,177,380.6824,174.6,378.2824" style="stroke:#181818;stroke-width:0.6;"/><line style="stroke:#181818;stroke-width:0.6;stroke-dasharray:2.0,2.0;" x1="173.4" x2="320.4" y1="378.2824" y2="378.2824"/><text fill="#000000" font-family="sans-serif" font-size="7.8" font-weight="bold" lengthAdjust="spacing" textLength="8.4" x="180.6" y="375.1248">16</text><text fill="#000000" font-family="sans-serif" font-size="7.8" lengthAdjust="spacing" textLength="122.4" x="191.4" y="375.1248">Information about the success/error</text><polygon fill="#181818" points="6.6,394.657,0.6,397.057,6.6,399.457,4.2,397.057" style="stroke:#181818;stroke-width:0.6;"/><line style="stroke:#181818;stroke-width:0.6;stroke-dasharray:2.0,2.0;" x1="3" x2="166.8" y1="397.057" y2="397.057"/><text fill="#000000" font-family="sans-serif" font-size="7.8" font-weight="bold" lengthAdjust="spacing" textLength="8.4" x="10.2" y="393.8994">17</text><text fill="#000000" font-family="sans-serif" font-size="7.8" lengthAdjust="spacing" textLength="86.4" x="21" y="393.8994">Building edited/data error</text><!--SRC=[tL9TYzim47pNhrZkAJb8xBO71HDIqlHe3re8EDTtHTvpH6p9bLOv-kyhAR6I-CBrux5wC98rCvhT7RkJgkE6jz1gfSNMw1Q1Z4Dcqqt7nOxNMDBF1i6W8AxgvXnWjxpIprBLyCGRYuoH90yjyOT39H0-ILu7tEWhxh61Tp21bT42hONl4f_zyV5X7BublCdVvumxqigr6pIC-HT82jbnHN0Jq3V0ZxJPRAdRJYjKD9zV0jD5HAVJQvHlki8cmkFkDMY9PYy5Hl1nFu2p3teoFxWiO65tG1gmaWGRrrI-KOmBadjE634C_3fqOdvcje0QQT4q7vsC93iQHsJY9cZy7TQ9x9LwQozq7jIJFcfTw1q9wIAiNiJh5V3vVWsZwNIQRNgfyLNmR38fm18dPmjuc-VPNNvtNNLGSEb4Z4K6zyPeapWLlZ1vhUPJpqE9fkKajGA-qOw0jWZs89zX4ZyJFdNJsn_CJcorjWXSGL-vtrTfgXKdpiwaub0lCh0y20GJ5mg1_eTX2D1-X7-L1AyJ8trx2yNlak8wNmkcPtgl_nAMrUCwMotMoo-3o6I5y6x-z-3qBOnZmoeB4O43VHYKNm00]--></g></svg>