<?xml version="1.0" encoding="us-ascii" standalone="no"?><svg xmlns="http://www.w3.org/2000/svg" xmlns:xlink="http://www.w3.org/1999/xlink" contentStyleType="text/css" height="253.8px" preserveAspectRatio="none" style="width:343px;height:253px;background:#FFFFFF;" version="1.1" viewBox="0 0 343 253" width="343.8px" zoomAndPan="magnify"><defs/><g><text fill="#000000" font-family="sans-serif" font-size="8.4" font-weight="bold" lengthAdjust="spacing" textLength="255.6" x="43.5" y="18.0645">System Sequence Diagram (Level 2 - Process View) - US 1070</text><rect fill="#FFFFFF" height="56.3238" style="stroke:#181818;stroke-width:0.6;" width="6" x="169.2" y="78.0926"/><rect fill="#FFFFFF" height="56.3238" style="stroke:#181818;stroke-width:0.6;" width="6" x="169.2" y="153.191"/><rect fill="#FFFFFF" height="18.7746" style="stroke:#181818;stroke-width:0.6;" width="6" x="305.4" y="96.8672"/><rect fill="#FFFFFF" height="18.7746" style="stroke:#181818;stroke-width:0.6;" width="6" x="305.4" y="171.9656"/><line style="stroke:#181818;stroke-width:0.3;stroke-dasharray:5.0,5.0;" x1="172.2" x2="172.2" y1="58.118" y2="220.3148"/><line style="stroke:#181818;stroke-width:0.3;stroke-dasharray:5.0,5.0;" x1="308.4" x2="308.4" y1="58.118" y2="220.3148"/><rect fill="#E3E3E3" height="30.7453" rx="1.5" ry="1.5" style="stroke:#181818;stroke-width:0.3;" width="63.6" x="140.4" y="26.7727"/><text fill="#000000" font-family="sans-serif" font-size="8.4" font-style="italic" lengthAdjust="spacing" textLength="55.2" x="144.6" y="40.0371">&#171;system (C4)&#187;</text><text fill="#000000" font-family="sans-serif" font-size="8.4" lengthAdjust="spacing" textLength="7.2" x="168.6" y="51.2098">UI</text><rect fill="#E3E3E3" height="30.7453" rx="1.5" ry="1.5" style="stroke:#181818;stroke-width:0.3;" width="63.6" x="140.4" y="219.7148"/><text fill="#000000" font-family="sans-serif" font-size="8.4" font-style="italic" lengthAdjust="spacing" textLength="55.2" x="144.6" y="232.9793">&#171;system (C4)&#187;</text><text fill="#000000" font-family="sans-serif" font-size="8.4" lengthAdjust="spacing" textLength="7.2" x="168.6" y="244.152">UI</text><rect fill="#E3E3E3" height="30.7453" rx="1.5" ry="1.5" style="stroke:#181818;stroke-width:0.3;" width="63.6" x="276.6" y="26.7727"/><text fill="#000000" font-family="sans-serif" font-size="8.4" font-style="italic" lengthAdjust="spacing" textLength="55.2" x="280.8" y="40.0371">&#171;system (C4)&#187;</text><text fill="#000000" font-family="sans-serif" font-size="8.4" lengthAdjust="spacing" textLength="12.6" x="302.1" y="51.2098">MD</text><rect fill="#E3E3E3" height="30.7453" rx="1.5" ry="1.5" style="stroke:#181818;stroke-width:0.3;" width="63.6" x="276.6" y="219.7148"/><text fill="#000000" font-family="sans-serif" font-size="8.4" font-style="italic" lengthAdjust="spacing" textLength="55.2" x="280.8" y="232.9793">&#171;system (C4)&#187;</text><text fill="#000000" font-family="sans-serif" font-size="8.4" lengthAdjust="spacing" textLength="12.6" x="302.1" y="244.152">MD</text><rect fill="#FFFFFF" height="56.3238" style="stroke:#181818;stroke-width:0.6;" width="6" x="169.2" y="78.0926"/><rect fill="#FFFFFF" height="56.3238" style="stroke:#181818;stroke-width:0.6;" width="6" x="169.2" y="153.191"/><rect fill="#FFFFFF" height="18.7746" style="stroke:#181818;stroke-width:0.6;" width="6" x="305.4" y="96.8672"/><rect fill="#FFFFFF" height="18.7746" style="stroke:#181818;stroke-width:0.6;" width="6" x="305.4" y="171.9656"/><ellipse cx="84.3" cy="77.6426" fill="none" rx="2.4" ry="2.4" style="stroke:#181818;stroke-width:0.8999999999999999;"/><polygon fill="#181818" points="162,75.6926,168,78.0926,162,80.4926,164.4,78.0926" style="stroke:#181818;stroke-width:0.6;"/><line style="stroke:#181818;stroke-width:0.6;" x1="87" x2="165.6" y1="78.0926" y2="78.0926"/><text fill="#000000" font-family="sans-serif" font-size="7.8" font-weight="bold" lengthAdjust="spacing" textLength="4.2" x="88.8" y="74.935">1</text><text fill="#000000" font-family="sans-serif" font-size="7.8" lengthAdjust="spacing" textLength="64.8" x="95.4" y="74.935">Ask to edit bulding</text><polygon fill="#181818" points="298.2,94.4672,304.2,96.8672,298.2,99.2672,300.6,96.8672" style="stroke:#181818;stroke-width:0.6;"/><line style="stroke:#181818;stroke-width:0.6;" x1="175.2" x2="301.8" y1="96.8672" y2="96.8672"/><text fill="#000000" font-family="sans-serif" font-size="7.8" font-weight="bold" lengthAdjust="spacing" textLength="4.2" x="179.4" y="93.7096">2</text><text fill="#000000" font-family="sans-serif" font-size="7.8" lengthAdjust="spacing" textLength="63" x="186" y="93.7096">GET (.../buildings)</text><polygon fill="#181818" points="181.8,113.2418,175.8,115.6418,181.8,118.0418,179.4,115.6418" style="stroke:#181818;stroke-width:0.6;"/><line style="stroke:#181818;stroke-width:0.6;stroke-dasharray:2.0,2.0;" x1="178.2" x2="307.8" y1="115.6418" y2="115.6418"/><text fill="#000000" font-family="sans-serif" font-size="7.8" font-weight="bold" lengthAdjust="spacing" textLength="4.2" x="185.4" y="112.4842">3</text><text fill="#000000" font-family="sans-serif" font-size="7.8" lengthAdjust="spacing" textLength="54" x="192" y="112.4842">status: 200/404</text><polygon fill="#181818" points="6.6,132.0164,0.6,134.4164,6.6,136.8164,4.2,134.4164" style="stroke:#181818;stroke-width:0.6;"/><line style="stroke:#181818;stroke-width:0.6;stroke-dasharray:2.0,2.0;" x1="3" x2="171.6" y1="134.4164" y2="134.4164"/><text fill="#000000" font-family="sans-serif" font-size="7.8" font-weight="bold" lengthAdjust="spacing" textLength="4.2" x="10.2" y="131.2588">4</text><text fill="#000000" font-family="sans-serif" font-size="7.8" lengthAdjust="spacing" textLength="151.2" x="16.8" y="131.2588">: Ask to choose an building and to edit data</text><ellipse cx="50.7" cy="152.741" fill="none" rx="2.4" ry="2.4" style="stroke:#181818;stroke-width:0.8999999999999999;"/><polygon fill="#181818" points="162,150.791,168,153.191,162,155.591,164.4,153.191" style="stroke:#181818;stroke-width:0.6;"/><line style="stroke:#181818;stroke-width:0.6;" x1="53.4" x2="165.6" y1="153.191" y2="153.191"/><text fill="#000000" font-family="sans-serif" font-size="7.8" font-weight="bold" lengthAdjust="spacing" textLength="4.2" x="55.2" y="150.0334">5</text><text fill="#000000" font-family="sans-serif" font-size="7.8" lengthAdjust="spacing" textLength="98.4" x="61.8" y="150.0334">Choose the building and edit</text><polygon fill="#181818" points="298.2,169.5656,304.2,171.9656,298.2,174.3656,300.6,171.9656" style="stroke:#181818;stroke-width:0.6;"/><line style="stroke:#181818;stroke-width:0.6;" x1="175.2" x2="301.8" y1="171.9656" y2="171.9656"/><text fill="#000000" font-family="sans-serif" font-size="7.8" font-weight="bold" lengthAdjust="spacing" textLength="4.2" x="179.4" y="168.808">6</text><text fill="#000000" font-family="sans-serif" font-size="7.8" lengthAdjust="spacing" textLength="112.2" x="186" y="168.808">PUT/PATCH (.../buildings/:code)</text><polygon fill="#181818" points="181.8,188.3402,175.8,190.7402,181.8,193.1402,179.4,190.7402" style="stroke:#181818;stroke-width:0.6;"/><line style="stroke:#181818;stroke-width:0.6;stroke-dasharray:2.0,2.0;" x1="178.2" x2="307.8" y1="190.7402" y2="190.7402"/><text fill="#000000" font-family="sans-serif" font-size="7.8" font-weight="bold" lengthAdjust="spacing" textLength="4.2" x="185.4" y="187.5826">7</text><text fill="#000000" font-family="sans-serif" font-size="7.8" lengthAdjust="spacing" textLength="54" x="192" y="187.5826">status: 200/404</text><polygon fill="#181818" points="6.6,207.1148,0.6,209.5148,6.6,211.9148,4.2,209.5148" style="stroke:#181818;stroke-width:0.6;"/><line style="stroke:#181818;stroke-width:0.6;stroke-dasharray:2.0,2.0;" x1="3" x2="171.6" y1="209.5148" y2="209.5148"/><text fill="#000000" font-family="sans-serif" font-size="7.8" font-weight="bold" lengthAdjust="spacing" textLength="4.2" x="10.2" y="206.3572">8</text><text fill="#000000" font-family="sans-serif" font-size="7.8" lengthAdjust="spacing" textLength="86.4" x="16.8" y="206.3572">Building edited/data error</text><!--SRC=[hO_1Qi9048Rl-nI39pt4f28KH2pMb5Qe8CJqFkvEayKaQtSdYc_VJMnJjT1JzxJBVj_C_xkThlPeiOJIL4RcrfG4R6iIhllPeznXHWcV2W9Bah7AYal0vQZCKLSPl6FXI0ZMxD7av9XAIEYZfaeIn1gp1k-_qe4A6440QsiaEGTlceu3_quJk8lk8u4rcwekjsI5y3jOIxt7Yg6NBdk03j8bJAVkFB-_60zcisji5RVOAlw5YGSJp1f_0dEt0pP0IZDiwqBv0W8bwmCoUK88yCUJdlU39l3yj87-S3WCjxLkQJTeaSvPnUtxIvi6mTbpZ5ox2OoYA1n7uvPHT6c9XcqpTQbaRemZm0g-j_cxwl8gP1GNGvguFyqMPvbpkhORzS-AwtGJhkURnSjDqN0YZQB_h_ludQv9HYfiQW5PQ-nDkKy0]--></g></svg>