<?xml version="1.0" encoding="us-ascii" standalone="no"?><svg xmlns="http://www.w3.org/2000/svg" xmlns:xlink="http://www.w3.org/1999/xlink" contentStyleType="text/css" height="321px" preserveAspectRatio="none" style="width:642px;height:321px;background:#FFFFFF;" version="1.1" viewBox="0 0 642 321" width="642px" zoomAndPan="magnify"><defs/><g><text fill="#000000" font-family="sans-serif" font-size="25" font-weight="bold" lengthAdjust="spacing" text-decoration="underline" textLength="294" x="167" y="36.9775">US 160 - Domain classes</text><!--cluster <<aggregate>> Building--><g id="cluster_&lt;&lt;aggregate&gt;&gt; Building"><path d="M8.5,60.2656 L159.5,60.2656 A3.75,3.75 0 0 1 162,62.7656 L169,84.8867 L632.5,84.8867 A2.5,2.5 0 0 1 635,87.3867 L635,311.7656 A2.5,2.5 0 0 1 632.5,314.2656 L8.5,314.2656 A2.5,2.5 0 0 1 6,311.7656 L6,62.7656 A2.5,2.5 0 0 1 8.5,60.2656 " fill="none" style="stroke:#000000;stroke-width:1.5;"/><line style="stroke:#000000;stroke-width:1.5;" x1="6" x2="169" y1="84.8867" y2="84.8867"/><text fill="#000000" font-family="sans-serif" font-size="14" font-weight="bold" lengthAdjust="spacing" textLength="150" x="10" y="77.373">&#171;aggregate&#187; Building</text></g><!--class Building--><g id="elem_Building"><rect codeLine="10" fill="#F1F1F1" height="68.543" id="Building" rx="2.5" ry="2.5" style="stroke:#181818;stroke-width:0.5;" width="82" x="340" y="97.2656"/><ellipse cx="355" cy="127.5371" fill="#ADD1B2" rx="11" ry="11" style="stroke:#181818;stroke-width:1.0;"/><path d="M353.8594,128.334 L353.8594,130.834 L358.1875,130.834 L358.1875,129.9121 Q358.1875,129.3027 358.4219,129.0371 Q358.6719,128.7715 359.0469,128.7715 Q359.4219,128.7715 359.6563,129.0371 Q359.8906,129.3027 359.8906,129.9121 L359.8906,132.5371 L351.8906,132.5371 Q351.2656,132.5371 351,132.3027 Q350.75,132.0684 350.75,131.6777 Q350.75,131.3027 351.0156,131.0684 Q351.2813,130.834 351.8906,130.834 L352.1563,130.834 L352.1563,124.1777 L351.8906,124.1777 Q351.2656,124.1777 351,123.9434 Q350.75,123.709 350.75,123.3184 Q350.75,122.9434 351,122.709 Q351.2656,122.4746 351.8906,122.4746 L359.5156,122.4746 L359.5156,125.0684 Q359.5156,125.6777 359.2813,125.9434 Q359.0625,126.1934 358.6719,126.1934 Q358.2969,126.1934 358.0625,125.9434 Q357.8281,125.6777 357.8281,125.0684 L357.8281,124.1777 L353.8594,124.1777 L353.8594,126.6309 L355.3438,126.6309 Q355.3438,125.9746 355.4688,125.7871 Q355.7344,125.3809 356.2031,125.3809 Q356.5781,125.3809 356.8125,125.6465 Q357.0469,125.8965 357.0469,126.5059 L357.0469,128.4746 Q357.0469,129.0215 356.9219,129.209 Q356.6563,129.5996 356.2031,129.5996 Q355.7344,129.5996 355.4688,129.1934 Q355.3438,129.0059 355.3438,128.334 L353.8594,128.334 Z " fill="#000000"/><text fill="#000000" font-family="sans-serif" font-size="12" font-style="italic" lengthAdjust="spacing" textLength="43" x="372.5" y="115.2148">&#171;entity&#187;</text><text fill="#000000" font-family="sans-serif" font-size="12" font-style="italic" lengthAdjust="spacing" textLength="35" x="376.5" y="131.1758">&#171;root&#187;</text><text fill="#000000" font-family="sans-serif" font-size="14" lengthAdjust="spacing" textLength="50" x="369" y="149.2949">Building</text><line style="stroke:#181818;stroke-width:0.5;" x1="341" x2="421" y1="157.8086" y2="157.8086"/></g><!--class BuildingCode--><g id="elem_BuildingCode"><rect codeLine="11" fill="#F1F1F1" height="52.582" id="BuildingCode" rx="2.5" ry="2.5" style="stroke:#181818;stroke-width:0.5;" width="116" x="22" y="245.2656"/><ellipse cx="37" cy="267.5566" fill="#FF8B40" rx="11" ry="11" style="stroke:#181818;stroke-width:1.0;"/><path d="M37.5938,270.8223 L40.0625,264.9473 L39.6719,264.9473 Q39.0625,264.9473 38.7969,264.7129 Q38.5313,264.4785 38.5313,264.0879 Q38.5313,263.7129 38.7969,263.4785 Q39.0625,263.2441 39.6719,263.2441 L41.9531,263.2441 Q42.5625,263.2441 42.8281,263.4785 Q43.0938,263.7129 43.0938,264.0879 Q43.0938,264.5566 42.6875,264.8223 Q42.5,264.9473 41.9063,264.9473 L38.4219,273.3066 L36.7813,273.3066 L33.2969,264.9473 Q32.7031,264.9473 32.5156,264.8223 Q32.1094,264.5566 32.1094,264.0879 Q32.1094,263.7129 32.375,263.4785 Q32.6406,263.2441 33.25,263.2441 L35.5469,263.2441 Q36.1563,263.2441 36.4063,263.4785 Q36.6719,263.7129 36.6719,264.0879 Q36.6719,264.4785 36.4063,264.7129 Q36.1563,264.9473 35.5469,264.9473 L35.1406,264.9473 L37.5938,270.8223 Z " fill="#000000"/><text fill="#000000" font-family="sans-serif" font-size="12" font-style="italic" lengthAdjust="spacing" textLength="81" x="52.5" y="263.2148">&#171;value object&#187;</text><text fill="#000000" font-family="sans-serif" font-size="14" lengthAdjust="spacing" textLength="84" x="51" y="281.334">BuildingCode</text><line style="stroke:#181818;stroke-width:0.5;" x1="23" x2="137" y1="289.8477" y2="289.8477"/></g><!--class BuildingName--><g id="elem_BuildingName"><rect codeLine="12" fill="#F1F1F1" height="52.582" id="BuildingName" rx="2.5" ry="2.5" style="stroke:#181818;stroke-width:0.5;" width="118" x="173" y="245.2656"/><ellipse cx="188" cy="267.5566" fill="#FF8B40" rx="11" ry="11" style="stroke:#181818;stroke-width:1.0;"/><path d="M188.5938,270.8223 L191.0625,264.9473 L190.6719,264.9473 Q190.0625,264.9473 189.7969,264.7129 Q189.5313,264.4785 189.5313,264.0879 Q189.5313,263.7129 189.7969,263.4785 Q190.0625,263.2441 190.6719,263.2441 L192.9531,263.2441 Q193.5625,263.2441 193.8281,263.4785 Q194.0938,263.7129 194.0938,264.0879 Q194.0938,264.5566 193.6875,264.8223 Q193.5,264.9473 192.9063,264.9473 L189.4219,273.3066 L187.7813,273.3066 L184.2969,264.9473 Q183.7031,264.9473 183.5156,264.8223 Q183.1094,264.5566 183.1094,264.0879 Q183.1094,263.7129 183.375,263.4785 Q183.6406,263.2441 184.25,263.2441 L186.5469,263.2441 Q187.1563,263.2441 187.4063,263.4785 Q187.6719,263.7129 187.6719,264.0879 Q187.6719,264.4785 187.4063,264.7129 Q187.1563,264.9473 186.5469,264.9473 L186.1406,264.9473 L188.5938,270.8223 Z " fill="#000000"/><text fill="#000000" font-family="sans-serif" font-size="12" font-style="italic" lengthAdjust="spacing" textLength="81" x="204.5" y="263.2148">&#171;value object&#187;</text><text fill="#000000" font-family="sans-serif" font-size="14" lengthAdjust="spacing" textLength="86" x="202" y="281.334">BuildingName</text><line style="stroke:#181818;stroke-width:0.5;" x1="174" x2="290" y1="289.8477" y2="289.8477"/></g><!--class Description--><g id="elem_Description"><rect codeLine="13" fill="#F1F1F1" height="52.582" id="Description" rx="2.5" ry="2.5" style="stroke:#181818;stroke-width:0.5;" width="109" x="326.5" y="245.2656"/><ellipse cx="341.5" cy="267.5566" fill="#FF8B40" rx="11" ry="11" style="stroke:#181818;stroke-width:1.0;"/><path d="M342.0938,270.8223 L344.5625,264.9473 L344.1719,264.9473 Q343.5625,264.9473 343.2969,264.7129 Q343.0313,264.4785 343.0313,264.0879 Q343.0313,263.7129 343.2969,263.4785 Q343.5625,263.2441 344.1719,263.2441 L346.4531,263.2441 Q347.0625,263.2441 347.3281,263.4785 Q347.5938,263.7129 347.5938,264.0879 Q347.5938,264.5566 347.1875,264.8223 Q347,264.9473 346.4063,264.9473 L342.9219,273.3066 L341.2813,273.3066 L337.7969,264.9473 Q337.2031,264.9473 337.0156,264.8223 Q336.6094,264.5566 336.6094,264.0879 Q336.6094,263.7129 336.875,263.4785 Q337.1406,263.2441 337.75,263.2441 L340.0469,263.2441 Q340.6563,263.2441 340.9063,263.4785 Q341.1719,263.7129 341.1719,264.0879 Q341.1719,264.4785 340.9063,264.7129 Q340.6563,264.9473 340.0469,264.9473 L339.6406,264.9473 L342.0938,270.8223 Z " fill="#000000"/><text fill="#000000" font-family="sans-serif" font-size="12" font-style="italic" lengthAdjust="spacing" textLength="81" x="353.5" y="263.2148">&#171;value object&#187;</text><text fill="#000000" font-family="sans-serif" font-size="14" lengthAdjust="spacing" textLength="71" x="358.5" y="281.334">Description</text><line style="stroke:#181818;stroke-width:0.5;" x1="327.5" x2="434.5" y1="289.8477" y2="289.8477"/></g><!--class BuildingDimension--><g id="elem_BuildingDimension"><rect codeLine="14" fill="#F1F1F1" height="52.582" id="BuildingDimension" rx="2.5" ry="2.5" style="stroke:#181818;stroke-width:0.5;" width="148" x="471" y="245.2656"/><ellipse cx="486" cy="267.5566" fill="#FF8B40" rx="11" ry="11" style="stroke:#181818;stroke-width:1.0;"/><path d="M486.5938,270.8223 L489.0625,264.9473 L488.6719,264.9473 Q488.0625,264.9473 487.7969,264.7129 Q487.5313,264.4785 487.5313,264.0879 Q487.5313,263.7129 487.7969,263.4785 Q488.0625,263.2441 488.6719,263.2441 L490.9531,263.2441 Q491.5625,263.2441 491.8281,263.4785 Q492.0938,263.7129 492.0938,264.0879 Q492.0938,264.5566 491.6875,264.8223 Q491.5,264.9473 490.9063,264.9473 L487.4219,273.3066 L485.7813,273.3066 L482.2969,264.9473 Q481.7031,264.9473 481.5156,264.8223 Q481.1094,264.5566 481.1094,264.0879 Q481.1094,263.7129 481.375,263.4785 Q481.6406,263.2441 482.25,263.2441 L484.5469,263.2441 Q485.1563,263.2441 485.4063,263.4785 Q485.6719,263.7129 485.6719,264.0879 Q485.6719,264.4785 485.4063,264.7129 Q485.1563,264.9473 484.5469,264.9473 L484.1406,264.9473 L486.5938,270.8223 Z " fill="#000000"/><text fill="#000000" font-family="sans-serif" font-size="12" font-style="italic" lengthAdjust="spacing" textLength="81" x="517.5" y="263.2148">&#171;value object&#187;</text><text fill="#000000" font-family="sans-serif" font-size="14" lengthAdjust="spacing" textLength="116" x="500" y="281.334">BuildingDimension</text><line style="stroke:#181818;stroke-width:0.5;" x1="472" x2="618" y1="289.8477" y2="289.8477"/></g><!--link Building to BuildingCode--><g id="link_Building_BuildingCode"><path codeLine="17" d="M339.78,151.6656 C288.23,175.2956 199.57,215.9456 140.37,243.0856 " fill="none" id="Building-to-BuildingCode" style="stroke:#181818;stroke-width:1.0;"/><polygon fill="#181818" points="135.81,245.1756,145.6581,245.0556,140.354,243.0894,142.3202,237.7852,135.81,245.1756" style="stroke:#181818;stroke-width:1.0;"/></g><!--link Building to BuildingName--><g id="link_Building_BuildingName"><path codeLine="18" d="M344.55,166.5256 C319.69,189.5456 287.1,219.7356 263.39,241.6956 " fill="none" id="Building-to-BuildingName" style="stroke:#181818;stroke-width:1.0;"/><polygon fill="#181818" points="259.67,245.1456,268.985,241.9472,263.3319,241.7412,263.5379,236.0881,259.67,245.1456" style="stroke:#181818;stroke-width:1.0;"/></g><!--link Building to Description--><g id="link_Building_Description"><path codeLine="19" d="M381,166.5256 C381,188.9856 381,218.2456 381,240.0456 " fill="none" id="Building-to-Description" style="stroke:#181818;stroke-width:1.0;"/><polygon fill="#181818" points="381,245.1456,385,236.1456,381,240.1456,377,236.1456,381,245.1456" style="stroke:#181818;stroke-width:1.0;"/></g><!--link Building to BuildingDimension--><g id="link_Building_BuildingDimension"><path codeLine="20" d="M397.11,166.3256 C406.2,182.6356 418.8,201.6156 434,215.2656 C445.99,226.0256 460.44,235.2356 474.89,242.8856 " fill="none" id="Building-to-BuildingDimension" style="stroke:#181818;stroke-width:1.0;"/><polygon fill="#181818" points="479.38,245.2056,473.2264,237.5158,474.9397,242.907,469.5486,244.6202,479.38,245.2056" style="stroke:#181818;stroke-width:1.0;"/><text fill="#000000" font-family="sans-serif" font-size="13" lengthAdjust="spacing" textLength="61" x="435" y="211.2939">numXCells</text></g><!--link Building to BuildingDimension--><g id="link_Building_BuildingDimension"><path codeLine="21" d="M422.06,147.7856 C447.05,158.4556 478.41,174.7056 501,196.2656 C514.1,208.7656 524.62,226.0056 532.08,240.7556 " fill="none" id="Building-to-BuildingDimension-1" style="stroke:#181818;stroke-width:1.0;"/><polygon fill="#181818" points="534.3,245.2456,533.9031,235.4048,532.0868,240.7621,526.7295,238.9459,534.3,245.2456" style="stroke:#181818;stroke-width:1.0;"/><text fill="#000000" font-family="sans-serif" font-size="13" lengthAdjust="spacing" textLength="63" x="517" y="211.2939">numYCells</text></g><!--SRC=[bOzFImCn4CNl-HH3FQZGnLLKYeI0xRBWnKjHx37D3kdO_5asYQBYTtTDSLMqMEVuvlTctWjhSgtif8L8qM3jNPpJCyB96Si2y2Hkvd1yNa81bRUI72WZGy30Zv9WR4KDWiMuyarWORYMcSiOErgcY5VAktosP6n_ciWqv3H8hJlKCY9hfLfBZJ3YV125W0zo12yC-a7NPteQPE1ye_GevvttKOZCvUS3DlDzGiuFRiUmLzUJwMbv20_I90I_l4Vrk-bQsjrD5GRLKHl9kty_giYY2tyxNnaRUXUDVtI5-DPm-_Qzoi_jbypRhP_XBi0bUpT3OyBE-6A3lm40]--></g></svg>