<?xml version="1.0" encoding="UTF-8" standalone="no"?><svg xmlns="http://www.w3.org/2000/svg" xmlns:xlink="http://www.w3.org/1999/xlink" contentStyleType="text/css" height="471px" preserveAspectRatio="none" style="width:727px;height:471px;background:#FFFFFF;" version="1.1" viewBox="0 0 727 471" width="727px" zoomAndPan="magnify"><defs/><g><rect fill="none" height="27.6094" id="_title" style="stroke:none;stroke-width:1.0;" width="298" x="216.5" y="10"/><text fill="#000000" font-family="sans-serif" font-size="14" font-weight="bold" lengthAdjust="spacing" textLength="288" x="221.5" y="29.5332">System Sequence Diagram (SSD) - US 280</text><rect fill="#FFFFFF" height="203.1094" style="stroke:#181818;stroke-width:1.0;" width="10" x="279" y="126.1797"/><rect fill="#FFFFFF" height="30.3516" style="stroke:#181818;stroke-width:1.0;" width="10" x="279" y="361.6406"/><rect fill="#FFFFFF" height="205.1094" style="stroke:#181818;stroke-width:1.0;" width="10" x="486" y="156.5313"/><rect fill="none" height="141.7578" style="stroke:#000000;stroke-width:1.5;" width="551" x="3" y="258.2344"/><line style="stroke:#181818;stroke-width:0.5;stroke-dasharray:5.0,5.0;" x1="284" x2="284" y1="93.8281" y2="416.9922"/><line style="stroke:#181818;stroke-width:0.5;stroke-dasharray:5.0,5.0;" x1="491" x2="491" y1="93.8281" y2="416.9922"/><rect fill="#E3E3E3" height="49.2188" rx="2.5" ry="2.5" style="stroke:#181818;stroke-width:0.5;" width="106" x="231" y="43.6094"/><text fill="#000000" font-family="sans-serif" font-size="14" font-style="italic" lengthAdjust="spacing" textLength="92" x="238" y="65.1426">«system (C4)»</text><text fill="#000000" font-family="sans-serif" font-size="14" lengthAdjust="spacing" textLength="84" x="242" y="82.752">RobDroneGo</text><rect fill="#E3E3E3" height="49.2188" rx="2.5" ry="2.5" style="stroke:#181818;stroke-width:0.5;" width="106" x="231" y="415.9922"/><text fill="#000000" font-family="sans-serif" font-size="14" font-style="italic" lengthAdjust="spacing" textLength="92" x="238" y="437.5254">«system (C4)»</text><text fill="#000000" font-family="sans-serif" font-size="14" lengthAdjust="spacing" textLength="84" x="242" y="455.1348">RobDroneGo</text><rect fill="#E3E3E3" height="49.2188" rx="2.5" ry="2.5" style="stroke:#181818;stroke-width:0.5;" width="106" x="438" y="43.6094"/><text fill="#000000" font-family="sans-serif" font-size="14" font-style="italic" lengthAdjust="spacing" textLength="92" x="445" y="65.1426">«system (C4)»</text><text fill="#000000" font-family="sans-serif" font-size="14" lengthAdjust="spacing" textLength="21" x="480.5" y="82.752">MD</text><rect fill="#E3E3E3" height="49.2188" rx="2.5" ry="2.5" style="stroke:#181818;stroke-width:0.5;" width="106" x="438" y="415.9922"/><text fill="#000000" font-family="sans-serif" font-size="14" font-style="italic" lengthAdjust="spacing" textLength="92" x="445" y="437.5254">«system (C4)»</text><text fill="#000000" font-family="sans-serif" font-size="14" lengthAdjust="spacing" textLength="21" x="480.5" y="455.1348">MD</text><rect fill="#FFFFFF" height="203.1094" style="stroke:#181818;stroke-width:1.0;" width="10" x="279" y="126.1797"/><rect fill="#FFFFFF" height="30.3516" style="stroke:#181818;stroke-width:1.0;" width="10" x="279" y="361.6406"/><rect fill="#FFFFFF" height="205.1094" style="stroke:#181818;stroke-width:1.0;" width="10" x="486" y="156.5313"/><ellipse cx="11.5" cy="125.4297" fill="none" rx="4" ry="4" style="stroke:#181818;stroke-width:1.5;"/><polygon fill="#181818" points="267,122.1797,277,126.1797,267,130.1797,271,126.1797" style="stroke:#181818;stroke-width:1.0;"/><line style="stroke:#181818;stroke-width:1.0;" x1="16" x2="273" y1="126.1797" y2="126.1797"/><text fill="#000000" font-family="sans-serif" font-size="13" font-weight="bold" lengthAdjust="spacing" textLength="7" x="19" y="121.3232">1</text><text fill="#000000" font-family="sans-serif" font-size="13" lengthAdjust="spacing" textLength="234" x="30" y="121.3232">PUT/PATCH(../buildings/:code/elevators)</text><polygon fill="#181818" points="474,152.5313,484,156.5313,474,160.5313,478,156.5313" style="stroke:#181818;stroke-width:1.0;"/><line style="stroke:#181818;stroke-width:1.0;" x1="289" x2="480" y1="156.5313" y2="156.5313"/><text fill="#000000" font-family="sans-serif" font-size="13" font-weight="bold" lengthAdjust="spacing" textLength="7" x="296" y="151.6748">2</text><text fill="#000000" font-family="sans-serif" font-size="13" lengthAdjust="spacing" textLength="167" x="307" y="151.6748">updateElevator(buildingCode)</text><line style="stroke:#181818;stroke-width:1.0;" x1="496" x2="538" y1="186.8828" y2="186.8828"/><line style="stroke:#181818;stroke-width:1.0;" x1="538" x2="538" y1="186.8828" y2="199.8828"/><line style="stroke:#181818;stroke-width:1.0;" x1="497" x2="538" y1="199.8828" y2="199.8828"/><polygon fill="#181818" points="507,195.8828,497,199.8828,507,203.8828,503,199.8828" style="stroke:#181818;stroke-width:1.0;"/><text fill="#000000" font-family="sans-serif" font-size="13" font-weight="bold" lengthAdjust="spacing" textLength="7" x="503" y="182.0264">3</text><text fill="#000000" font-family="sans-serif" font-size="13" lengthAdjust="spacing" textLength="206" x="514" y="182.0264">elevator = getElevator(buildingCode)</text><line style="stroke:#181818;stroke-width:1.0;" x1="496" x2="538" y1="230.2344" y2="230.2344"/><line style="stroke:#181818;stroke-width:1.0;" x1="538" x2="538" y1="230.2344" y2="243.2344"/><line style="stroke:#181818;stroke-width:1.0;" x1="497" x2="538" y1="243.2344" y2="243.2344"/><polygon fill="#181818" points="507,239.2344,497,243.2344,507,247.2344,503,243.2344" style="stroke:#181818;stroke-width:1.0;"/><text fill="#000000" font-family="sans-serif" font-size="13" font-weight="bold" lengthAdjust="spacing" textLength="7" x="503" y="225.3779">4</text><text fill="#000000" font-family="sans-serif" font-size="13" lengthAdjust="spacing" textLength="137" x="514" y="225.3779">updateElevator(elevator)</text><path d="M3,258.2344 L64,258.2344 L64,266.5859 L54,276.5859 L3,276.5859 L3,258.2344 " fill="#EEEEEE" style="stroke:#000000;stroke-width:1.5;"/><rect fill="none" height="141.7578" style="stroke:#000000;stroke-width:1.5;" width="551" x="3" y="258.2344"/><text fill="#000000" font-family="sans-serif" font-size="13" font-weight="bold" lengthAdjust="spacing" textLength="16" x="18" y="272.7295">alt</text><polygon fill="#181818" points="300,294.9375,290,298.9375,300,302.9375,296,298.9375" style="stroke:#181818;stroke-width:1.0;"/><line style="stroke:#181818;stroke-width:1.0;stroke-dasharray:2.0,2.0;" x1="294" x2="485" y1="298.9375" y2="298.9375"/><text fill="#000000" font-family="sans-serif" font-size="13" font-weight="bold" lengthAdjust="spacing" textLength="7" x="306" y="294.0811">5</text><text fill="#000000" font-family="sans-serif" font-size="13" lengthAdjust="spacing" textLength="65" x="317" y="294.0811">status: 201</text><polygon fill="#181818" points="11,325.2891,1,329.2891,11,333.2891,7,329.2891" style="stroke:#181818;stroke-width:1.0;"/><line style="stroke:#181818;stroke-width:1.0;stroke-dasharray:2.0,2.0;" x1="5" x2="283" y1="329.2891" y2="329.2891"/><text fill="#000000" font-family="sans-serif" font-size="13" font-weight="bold" lengthAdjust="spacing" textLength="7" x="17" y="324.4326">6</text><text fill="#000000" font-family="sans-serif" font-size="13" lengthAdjust="spacing" textLength="94" x="28" y="324.4326">Dados alterados</text><line style="stroke:#000000;stroke-width:1.0;stroke-dasharray:2.0,2.0;" x1="3" x2="554" y1="338.2891" y2="338.2891"/><polygon fill="#181818" points="300,357.6406,290,361.6406,300,365.6406,296,361.6406" style="stroke:#181818;stroke-width:1.0;"/><line style="stroke:#181818;stroke-width:1.0;stroke-dasharray:2.0,2.0;" x1="294" x2="490" y1="361.6406" y2="361.6406"/><text fill="#000000" font-family="sans-serif" font-size="13" font-weight="bold" lengthAdjust="spacing" textLength="7" x="306" y="356.7842">7</text><text fill="#000000" font-family="sans-serif" font-size="13" lengthAdjust="spacing" textLength="65" x="317" y="356.7842">status: 400</text><polygon fill="#181818" points="11,387.9922,1,391.9922,11,395.9922,7,391.9922" style="stroke:#181818;stroke-width:1.0;"/><line style="stroke:#181818;stroke-width:1.0;stroke-dasharray:2.0,2.0;" x1="5" x2="283" y1="391.9922" y2="391.9922"/><text fill="#000000" font-family="sans-serif" font-size="13" font-weight="bold" lengthAdjust="spacing" textLength="7" x="17" y="387.1357">8</text><text fill="#000000" font-family="sans-serif" font-size="13" lengthAdjust="spacing" textLength="88" x="28" y="387.1357">Erro nos dados</text><!--MD5=[d6740f5d0d058941c2c17f24811fa682]
@startuml
skinparam monochrome true
skinparam packageStyle rectangle
skinparam shadowing false

title System Sequence Diagram (SSD) - US 280
autonumber

participant "RobDroneGo" as Sistema <<system (C4)>>
participant "MD" as MD <<system (C4)>>

?o-> Sistema : PUT/PATCH(../buildings/:code/elevators)
activate Sistema

Sistema -> MD : updateElevator(buildingCode)

activate MD
MD -> MD: elevator = getElevator(buildingCode)
MD -> MD: updateElevator(elevator)

alt
    MD - -> Sistema : status: 201
    <- - Sistema : Dados alterados
    deactivate Sistema
else
    MD - -> Sistema : status: 400
    deactivate MD
    activate Sistema
    <- - Sistema : Erro nos dados
    deactivate Sistema
end

@enduml

PlantUML version 1.2022.7(Mon Aug 22 18:01:30 WEST 2022)
(GPL source distribution)
Java Runtime: OpenJDK Runtime Environment
JVM: OpenJDK 64-Bit Server VM
Default Encoding: UTF-8
Language: en
Country: GB
--></g></svg>