<?xml version="1.0" encoding="us-ascii" standalone="no"?><svg xmlns="http://www.w3.org/2000/svg" xmlns:xlink="http://www.w3.org/1999/xlink" contentStyleType="text/css" height="512px" preserveAspectRatio="none" style="width:322px;height:512px;background:#FFFFFF;" version="1.1" viewBox="0 0 322 512" width="322px" zoomAndPan="magnify"><defs/><g><text fill="#000000" font-family="sans-serif" font-size="25" font-weight="bold" lengthAdjust="spacing" text-decoration="underline" textLength="294" x="10" y="36.9775">US 250 - Domain classes</text><!--cluster <<aggregate>> Passageway--><g id="cluster_&lt;&lt;aggregate&gt;&gt; Passageway"><path d="M108.5,60.2656 L286.5,60.2656 A3.75,3.75 0 0 1 289,62.7656 L296,84.8867 L296.5,84.8867 A2.5,2.5 0 0 1 299,87.3867 L299,179.7656 A2.5,2.5 0 0 1 296.5,182.2656 L108.5,182.2656 A2.5,2.5 0 0 1 106,179.7656 L106,62.7656 A2.5,2.5 0 0 1 108.5,60.2656 " fill="none" style="stroke:#000000;stroke-width:1.5;"/><line style="stroke:#000000;stroke-width:1.5;" x1="106" x2="296" y1="84.8867" y2="84.8867"/><text fill="#000000" font-family="sans-serif" font-size="14" font-weight="bold" lengthAdjust="spacing" textLength="177" x="110" y="77.373">&#171;aggregate&#187; Passageway</text></g><!--cluster <<aggregate>> Building--><g id="cluster_&lt;&lt;aggregate&gt;&gt; Building"><path d="M30.5,233.2656 L181.5,233.2656 A3.75,3.75 0 0 1 184,235.7656 L191,257.8867 L273.5,257.8867 A2.5,2.5 0 0 1 276,260.3867 L276,502.7656 A2.5,2.5 0 0 1 273.5,505.2656 L30.5,505.2656 A2.5,2.5 0 0 1 28,502.7656 L28,235.7656 A2.5,2.5 0 0 1 30.5,233.2656 " fill="none" style="stroke:#000000;stroke-width:1.5;"/><line style="stroke:#000000;stroke-width:1.5;" x1="28" x2="191" y1="257.8867" y2="257.8867"/><text fill="#000000" font-family="sans-serif" font-size="14" font-weight="bold" lengthAdjust="spacing" textLength="150" x="32" y="250.373">&#171;aggregate&#187; Building</text></g><!--class Passageway--><g id="elem_Passageway"><rect codeLine="10" fill="#F1F1F1" height="68.543" id="Passageway" rx="2.5" ry="2.5" style="stroke:#181818;stroke-width:0.5;" width="111" x="146.5" y="97.2656"/><ellipse cx="161.5" cy="127.5371" fill="#ADD1B2" rx="11" ry="11" style="stroke:#181818;stroke-width:1.0;"/><path d="M160.3594,128.334 L160.3594,130.834 L164.6875,130.834 L164.6875,129.9121 Q164.6875,129.3027 164.9219,129.0371 Q165.1719,128.7715 165.5469,128.7715 Q165.9219,128.7715 166.1563,129.0371 Q166.3906,129.3027 166.3906,129.9121 L166.3906,132.5371 L158.3906,132.5371 Q157.7656,132.5371 157.5,132.3027 Q157.25,132.0684 157.25,131.6777 Q157.25,131.3027 157.5156,131.0684 Q157.7813,130.834 158.3906,130.834 L158.6563,130.834 L158.6563,124.1777 L158.3906,124.1777 Q157.7656,124.1777 157.5,123.9434 Q157.25,123.709 157.25,123.3184 Q157.25,122.9434 157.5,122.709 Q157.7656,122.4746 158.3906,122.4746 L166.0156,122.4746 L166.0156,125.0684 Q166.0156,125.6777 165.7813,125.9434 Q165.5625,126.1934 165.1719,126.1934 Q164.7969,126.1934 164.5625,125.9434 Q164.3281,125.6777 164.3281,125.0684 L164.3281,124.1777 L160.3594,124.1777 L160.3594,126.6309 L161.8438,126.6309 Q161.8438,125.9746 161.9688,125.7871 Q162.2344,125.3809 162.7031,125.3809 Q163.0781,125.3809 163.3125,125.6465 Q163.5469,125.8965 163.5469,126.5059 L163.5469,128.4746 Q163.5469,129.0215 163.4219,129.209 Q163.1563,129.5996 162.7031,129.5996 Q162.2344,129.5996 161.9688,129.1934 Q161.8438,129.0059 161.8438,128.334 L160.3594,128.334 Z " fill="#000000"/><text fill="#000000" font-family="sans-serif" font-size="12" font-style="italic" lengthAdjust="spacing" textLength="43" x="193.5" y="115.2148">&#171;entity&#187;</text><text fill="#000000" font-family="sans-serif" font-size="12" font-style="italic" lengthAdjust="spacing" textLength="35" x="197.5" y="131.1758">&#171;root&#187;</text><text fill="#000000" font-family="sans-serif" font-size="14" lengthAdjust="spacing" textLength="79" x="175.5" y="149.2949">Passageway</text><line style="stroke:#181818;stroke-width:0.5;" x1="147.5" x2="256.5" y1="157.8086" y2="157.8086"/></g><!--class Building--><g id="elem_Building"><rect codeLine="15" fill="#F1F1F1" height="68.543" id="Building" rx="2.5" ry="2.5" style="stroke:#181818;stroke-width:0.5;" width="82" x="72" y="270.2656"/><ellipse cx="87" cy="300.5371" fill="#ADD1B2" rx="11" ry="11" style="stroke:#181818;stroke-width:1.0;"/><path d="M85.8594,301.334 L85.8594,303.834 L90.1875,303.834 L90.1875,302.9121 Q90.1875,302.3027 90.4219,302.0371 Q90.6719,301.7715 91.0469,301.7715 Q91.4219,301.7715 91.6563,302.0371 Q91.8906,302.3027 91.8906,302.9121 L91.8906,305.5371 L83.8906,305.5371 Q83.2656,305.5371 83,305.3027 Q82.75,305.0684 82.75,304.6777 Q82.75,304.3027 83.0156,304.0684 Q83.2813,303.834 83.8906,303.834 L84.1563,303.834 L84.1563,297.1777 L83.8906,297.1777 Q83.2656,297.1777 83,296.9434 Q82.75,296.709 82.75,296.3184 Q82.75,295.9434 83,295.709 Q83.2656,295.4746 83.8906,295.4746 L91.5156,295.4746 L91.5156,298.0684 Q91.5156,298.6777 91.2813,298.9434 Q91.0625,299.1934 90.6719,299.1934 Q90.2969,299.1934 90.0625,298.9434 Q89.8281,298.6777 89.8281,298.0684 L89.8281,297.1777 L85.8594,297.1777 L85.8594,299.6309 L87.3438,299.6309 Q87.3438,298.9746 87.4688,298.7871 Q87.7344,298.3809 88.2031,298.3809 Q88.5781,298.3809 88.8125,298.6465 Q89.0469,298.8965 89.0469,299.5059 L89.0469,301.4746 Q89.0469,302.0215 88.9219,302.209 Q88.6563,302.5996 88.2031,302.5996 Q87.7344,302.5996 87.4688,302.1934 Q87.3438,302.0059 87.3438,301.334 L85.8594,301.334 Z " fill="#000000"/><text fill="#000000" font-family="sans-serif" font-size="12" font-style="italic" lengthAdjust="spacing" textLength="43" x="104.5" y="288.2148">&#171;entity&#187;</text><text fill="#000000" font-family="sans-serif" font-size="12" font-style="italic" lengthAdjust="spacing" textLength="35" x="108.5" y="304.1758">&#171;root&#187;</text><text fill="#000000" font-family="sans-serif" font-size="14" lengthAdjust="spacing" textLength="50" x="101" y="322.2949">Building</text><line style="stroke:#181818;stroke-width:0.5;" x1="73" x2="153" y1="330.8086" y2="330.8086"/></g><!--class Code--><g id="elem_Code"><rect codeLine="16" fill="#F1F1F1" height="52.582" id="Code" rx="2.5" ry="2.5" style="stroke:#181818;stroke-width:0.5;" width="109" x="44.5" y="427.2656"/><ellipse cx="59.5" cy="449.5566" fill="#FF8B40" rx="11" ry="11" style="stroke:#181818;stroke-width:1.0;"/><path d="M60.0938,452.8223 L62.5625,446.9473 L62.1719,446.9473 Q61.5625,446.9473 61.2969,446.7129 Q61.0313,446.4785 61.0313,446.0879 Q61.0313,445.7129 61.2969,445.4785 Q61.5625,445.2441 62.1719,445.2441 L64.4531,445.2441 Q65.0625,445.2441 65.3281,445.4785 Q65.5938,445.7129 65.5938,446.0879 Q65.5938,446.5566 65.1875,446.8223 Q65,446.9473 64.4063,446.9473 L60.9219,455.3066 L59.2813,455.3066 L55.7969,446.9473 Q55.2031,446.9473 55.0156,446.8223 Q54.6094,446.5566 54.6094,446.0879 Q54.6094,445.7129 54.875,445.4785 Q55.1406,445.2441 55.75,445.2441 L58.0469,445.2441 Q58.6563,445.2441 58.9063,445.4785 Q59.1719,445.7129 59.1719,446.0879 Q59.1719,446.4785 58.9063,446.7129 Q58.6563,446.9473 58.0469,446.9473 L57.6406,446.9473 L60.0938,452.8223 Z " fill="#000000"/><text fill="#000000" font-family="sans-serif" font-size="12" font-style="italic" lengthAdjust="spacing" textLength="81" x="71.5" y="445.2148">&#171;value object&#187;</text><text fill="#000000" font-family="sans-serif" font-size="14" lengthAdjust="spacing" textLength="34" x="95" y="463.334">Code</text><line style="stroke:#181818;stroke-width:0.5;" x1="45.5" x2="152.5" y1="471.8477" y2="471.8477"/></g><!--class Floor--><g id="elem_Floor"><rect codeLine="18" fill="#F1F1F1" height="71.2031" id="Floor" rx="2.5" ry="2.5" style="stroke:#181818;stroke-width:0.5;" width="71" x="188.5" y="418.2656"/><ellipse cx="203.5" cy="440.5566" fill="#ADD1B2" rx="11" ry="11" style="stroke:#181818;stroke-width:1.0;"/><path d="M202.3594,441.3535 L202.3594,443.8535 L206.6875,443.8535 L206.6875,442.9316 Q206.6875,442.3223 206.9219,442.0566 Q207.1719,441.791 207.5469,441.791 Q207.9219,441.791 208.1563,442.0566 Q208.3906,442.3223 208.3906,442.9316 L208.3906,445.5566 L200.3906,445.5566 Q199.7656,445.5566 199.5,445.3223 Q199.25,445.0879 199.25,444.6973 Q199.25,444.3223 199.5156,444.0879 Q199.7813,443.8535 200.3906,443.8535 L200.6563,443.8535 L200.6563,437.1973 L200.3906,437.1973 Q199.7656,437.1973 199.5,436.9629 Q199.25,436.7285 199.25,436.3379 Q199.25,435.9629 199.5,435.7285 Q199.7656,435.4941 200.3906,435.4941 L208.0156,435.4941 L208.0156,438.0879 Q208.0156,438.6973 207.7813,438.9629 Q207.5625,439.2129 207.1719,439.2129 Q206.7969,439.2129 206.5625,438.9629 Q206.3281,438.6973 206.3281,438.0879 L206.3281,437.1973 L202.3594,437.1973 L202.3594,439.6504 L203.8438,439.6504 Q203.8438,438.9941 203.9688,438.8066 Q204.2344,438.4004 204.7031,438.4004 Q205.0781,438.4004 205.3125,438.666 Q205.5469,438.916 205.5469,439.5254 L205.5469,441.4941 Q205.5469,442.041 205.4219,442.2285 Q205.1563,442.6191 204.7031,442.6191 Q204.2344,442.6191 203.9688,442.2129 Q203.8438,442.0254 203.8438,441.3535 L202.3594,441.3535 Z " fill="#000000"/><text fill="#000000" font-family="sans-serif" font-size="12" font-style="italic" lengthAdjust="spacing" textLength="43" x="215.5" y="436.2148">&#171;entity&#187;</text><text fill="#000000" font-family="sans-serif" font-size="14" lengthAdjust="spacing" textLength="33" x="220.5" y="454.334">Floor</text><line style="stroke:#181818;stroke-width:0.5;" x1="189.5" x2="258.5" y1="462.8477" y2="462.8477"/><text fill="#000000" font-family="sans-serif" font-size="14" lengthAdjust="spacing" textLength="48" x="194.5" y="481.9551">number</text></g><!--link Building to Code--><g id="link_Building_Code"><path codeLine="23" d="M109.79,339.4856 C107.25,366.1056 104.3378,396.7126 102.0278,421.0126 " fill="none" id="Building-to-Code" style="stroke:#181818;stroke-width:1.0;"/><polygon fill="#181818" points="101.46,426.9856,106.2938,418.4046,101.9332,422.0081,98.3297,417.6475,101.46,426.9856" style="stroke:#181818;stroke-width:1.0;"/></g><!--link Building to Floor--><g id="link_Building_Floor"><path codeLine="25" d="M130.66,339.4056 C139.33,354.8256 150.39,373.0256 162,388.2656 C169.9,398.6456 179.3,409.1556 188.35,418.5956 " fill="none" id="Building-Floor" style="stroke:#181818;stroke-width:1.0;"/><polygon fill="#000000" points="169.9441,382.9525,166.9936,373.9111,162.2427,377.3721,169.9441,382.9525" style="stroke:#000000;stroke-width:1.0;"/><text fill="#000000" font-family="sans-serif" font-size="13" lengthAdjust="spacing" textLength="21" x="176" y="384.2939">has</text><text fill="#000000" font-family="sans-serif" font-size="13" lengthAdjust="spacing" textLength="7" x="126.0938" y="360.9129">1</text><text fill="#000000" font-family="sans-serif" font-size="13" lengthAdjust="spacing" textLength="5" x="175.8392" y="407.0351">*</text></g><!--link Passageway to Floor--><g id="link_Passageway_Floor"><path codeLine="27" d="M204.31,166.4056 C208.52,227.5456 217.37,356.2656 221.62,418.1256 " fill="none" id="Passageway-Floor" style="stroke:#181818;stroke-width:1.0;"/><polygon fill="#000000" points="220.343,309.8994,222.6545,300.674,216.7905,301.0772,220.343,309.8994" style="stroke:#000000;stroke-width:1.0;"/><text fill="#000000" font-family="sans-serif" font-size="13" lengthAdjust="spacing" textLength="43" x="229" y="310.2939">through</text><text fill="#000000" font-family="sans-serif" font-size="13" lengthAdjust="spacing" textLength="7" x="197.1055" y="187.9129">1</text><text fill="#000000" font-family="sans-serif" font-size="13" lengthAdjust="spacing" textLength="5" x="215.7203" y="407.0237">*</text></g><!--link Passageway to Building--><g id="link_Passageway_Building"><path codeLine="28" d="M180.49,166.3356 C174.28,176.4556 167.66,187.6956 162,198.2656 C149.42,221.7656 136.78,249.0856 127.5,270.0256 " fill="none" id="Passageway-Building" style="stroke:#181818;stroke-width:1.0;"/><polygon fill="#000000" points="164.7247,212.3634,171.4578,205.6465,166.2238,202.9718,164.7247,212.3634" style="stroke:#000000;stroke-width:1.0;"/><text fill="#000000" font-family="sans-serif" font-size="13" lengthAdjust="spacing" textLength="21" x="176" y="213.2939">has</text><text fill="#000000" font-family="sans-serif" font-size="13" lengthAdjust="spacing" textLength="5" x="171.3633" y="187.8309">*</text><text fill="#000000" font-family="sans-serif" font-size="13" lengthAdjust="spacing" textLength="5" x="124.7875" y="258.8826">*</text></g><!--SRC=[XP1FImCn4CNl-HH3FAZ5nLKKH4B0AWlUXABtT7V8nkuc9NyiLVhTpQOs1YaujtdpuxsPSIkbryAA4Rpo0pP6-uNwHBY-9Ka05lZh8hOrLF1aHg4qj8Dm3Xsx39oGNdK88_hUT8wux9QO1- -jMWQFpwtHoROcvFGbJeJ4ZTY2aDAY51x9MhIhA09bB8kSmozBuOj0BDHnhsqn0CRsMiGPiyPupiakvio36ZgbvVyf1_9FHZOubZ1nwKXuDF43Z9szNS19qzpDR-fp-113G33BTsmdk7Hj1cDiQRdFd4g7SOasjRlfXBn0rPcDhdYAAcHwHQ6gWCxeZ-izzC91p2lUSmJolJL1zX4ikLdcSi31xni0]--></g></svg>