<?xml version="1.0" encoding="us-ascii" standalone="no"?><svg xmlns="http://www.w3.org/2000/svg" xmlns:xlink="http://www.w3.org/1999/xlink" contentStyleType="text/css" height="773px" preserveAspectRatio="none" style="width:1043px;height:773px;background:#FFFFFF;" version="1.1" viewBox="0 0 1043 773" width="1043px" zoomAndPan="magnify"><defs/><g><text fill="#000000" font-family="sans-serif" font-size="14" font-weight="bold" lengthAdjust="spacing" textLength="392" x="324.5" y="30.1074">Sequence Diagram (Level 3 - Process View - MD) - US 10</text><rect fill="#FFFFFF" height="531.9277" style="stroke:#181818;stroke-width:1.0;" width="10" x="180" y="148.7754"/><rect fill="#FFFFFF" height="469.3457" style="stroke:#181818;stroke-width:1.0;" width="10" x="351" y="180.0664"/><rect fill="#FFFFFF" height="391.7637" style="stroke:#181818;stroke-width:1.0;" width="10" x="356" y="219.3574"/><rect fill="#FFFFFF" height="237.3184" style="stroke:#181818;stroke-width:1.0;" width="10" x="639" y="336.5117"/><rect fill="#FFFFFF" height="93.873" style="stroke:#181818;stroke-width:1.0;" width="10" x="871" y="448.666"/><rect fill="#FFFFFF" height="31.291" style="stroke:#181818;stroke-width:1.0;" width="10" x="986" y="479.957"/><line style="stroke:#181818;stroke-width:0.5;stroke-dasharray:5.0,5.0;" x1="185" x2="185" y1="115.4844" y2="698.7031"/><line style="stroke:#181818;stroke-width:0.5;stroke-dasharray:5.0,5.0;" x1="356" x2="356" y1="115.4844" y2="698.7031"/><line style="stroke:#181818;stroke-width:0.5;stroke-dasharray:5.0,5.0;" x1="519" x2="519" y1="282.7891" y2="698.7031"/><line style="stroke:#181818;stroke-width:0.5;stroke-dasharray:5.0,5.0;" x1="644" x2="644" y1="115.4844" y2="698.7031"/><line style="stroke:#181818;stroke-width:0.5;stroke-dasharray:5.0,5.0;" x1="768" x2="768" y1="394.9434" y2="698.7031"/><line style="stroke:#181818;stroke-width:0.5;stroke-dasharray:5.0,5.0;" x1="876" x2="876" y1="115.4844" y2="698.7031"/><line style="stroke:#181818;stroke-width:0.5;stroke-dasharray:5.0,5.0;" x1="991" x2="991" y1="115.4844" y2="698.7031"/><rect fill="#E3E3E3" height="51.2422" rx="2.5" ry="2.5" style="stroke:#181818;stroke-width:0.5;" width="80" x="145" y="63.2422"/><text fill="#000000" font-family="sans-serif" font-size="14" font-style="italic" lengthAdjust="spacing" textLength="54" x="158" y="85.3496">&#171;Route&#187;</text><text fill="#000000" font-family="sans-serif" font-size="14" lengthAdjust="spacing" textLength="66" x="152" y="103.9707">userRoute</text><rect fill="#E3E3E3" height="51.2422" rx="2.5" ry="2.5" style="stroke:#181818;stroke-width:0.5;" width="80" x="145" y="697.7031"/><text fill="#000000" font-family="sans-serif" font-size="14" font-style="italic" lengthAdjust="spacing" textLength="54" x="158" y="719.8105">&#171;Route&#187;</text><text fill="#000000" font-family="sans-serif" font-size="14" lengthAdjust="spacing" textLength="66" x="152" y="738.4316">userRoute</text><rect fill="#E3E3E3" height="69.8633" rx="2.5" ry="2.5" style="stroke:#181818;stroke-width:0.5;" width="112" x="300" y="44.6211"/><text fill="#000000" font-family="sans-serif" font-size="14" font-style="italic" lengthAdjust="spacing" textLength="78" x="317" y="66.7285">&#171;Controller&#187;</text><text fill="#000000" font-family="sans-serif" font-size="14" lengthAdjust="spacing" textLength="27" x="342.5" y="85.3496">ctrl :</text><text fill="#000000" font-family="sans-serif" font-size="14" lengthAdjust="spacing" textLength="94" x="311" y="103.9707">IUserController</text><rect fill="#E3E3E3" height="69.8633" rx="2.5" ry="2.5" style="stroke:#181818;stroke-width:0.5;" width="112" x="300" y="697.7031"/><text fill="#000000" font-family="sans-serif" font-size="14" font-style="italic" lengthAdjust="spacing" textLength="78" x="317" y="719.8105">&#171;Controller&#187;</text><text fill="#000000" font-family="sans-serif" font-size="14" lengthAdjust="spacing" textLength="27" x="342.5" y="738.4316">ctrl :</text><text fill="#000000" font-family="sans-serif" font-size="14" lengthAdjust="spacing" textLength="94" x="311" y="757.0527">IUserController</text><rect fill="#E3E3E3" height="69.8633" rx="2.5" ry="2.5" style="stroke:#181818;stroke-width:0.5;" width="80" x="479" y="697.7031"/><text fill="#000000" font-family="sans-serif" font-size="14" font-style="italic" lengthAdjust="spacing" textLength="46" x="496" y="719.8105">&#171;DTO&#187;</text><text fill="#000000" font-family="sans-serif" font-size="14" lengthAdjust="spacing" textLength="66" x="486" y="738.4316">userDTO :</text><text fill="#000000" font-family="sans-serif" font-size="14" lengthAdjust="spacing" textLength="62" x="490" y="757.0527">IUserDTO</text><rect fill="#E3E3E3" height="69.8633" rx="2.5" ry="2.5" style="stroke:#181818;stroke-width:0.5;" width="150" x="569" y="44.6211"/><text fill="#000000" font-family="sans-serif" font-size="14" font-style="italic" lengthAdjust="spacing" textLength="62" x="613" y="66.7285">&#171;Service&#187;</text><text fill="#000000" font-family="sans-serif" font-size="14" lengthAdjust="spacing" textLength="136" x="576" y="85.3496">userServiceInstance :</text><text fill="#000000" font-family="sans-serif" font-size="14" lengthAdjust="spacing" textLength="79" x="606.5" y="103.9707">IUserService</text><rect fill="#E3E3E3" height="69.8633" rx="2.5" ry="2.5" style="stroke:#181818;stroke-width:0.5;" width="150" x="569" y="697.7031"/><text fill="#000000" font-family="sans-serif" font-size="14" font-style="italic" lengthAdjust="spacing" textLength="62" x="613" y="719.8105">&#171;Service&#187;</text><text fill="#000000" font-family="sans-serif" font-size="14" lengthAdjust="spacing" textLength="136" x="576" y="738.4316">userServiceInstance :</text><text fill="#000000" font-family="sans-serif" font-size="14" lengthAdjust="spacing" textLength="79" x="606.5" y="757.0527">IUserService</text><rect fill="#E3E3E3" height="69.8633" rx="2.5" ry="2.5" style="stroke:#181818;stroke-width:0.5;" width="78" x="729" y="697.7031"/><text fill="#000000" font-family="sans-serif" font-size="14" font-style="italic" lengthAdjust="spacing" textLength="64" x="736" y="719.8105">&#171;Domain&#187;</text><text fill="#000000" font-family="sans-serif" font-size="14" lengthAdjust="spacing" textLength="36" x="750" y="738.4316">user :</text><text fill="#000000" font-family="sans-serif" font-size="14" lengthAdjust="spacing" textLength="28" x="756" y="757.0527">user</text><rect fill="#E3E3E3" height="69.8633" rx="2.5" ry="2.5" style="stroke:#181818;stroke-width:0.5;" width="118" x="817" y="44.6211"/><text fill="#000000" font-family="sans-serif" font-size="14" font-style="italic" lengthAdjust="spacing" textLength="84" x="834" y="66.7285">&#171;Repository&#187;</text><text fill="#000000" font-family="sans-serif" font-size="14" lengthAdjust="spacing" textLength="70" x="841" y="85.3496">userRepo :</text><text fill="#000000" font-family="sans-serif" font-size="14" lengthAdjust="spacing" textLength="100" x="828" y="103.9707">IUserRepository</text><rect fill="#E3E3E3" height="69.8633" rx="2.5" ry="2.5" style="stroke:#181818;stroke-width:0.5;" width="118" x="817" y="697.7031"/><text fill="#000000" font-family="sans-serif" font-size="14" font-style="italic" lengthAdjust="spacing" textLength="84" x="834" y="719.8105">&#171;Repository&#187;</text><text fill="#000000" font-family="sans-serif" font-size="14" lengthAdjust="spacing" textLength="70" x="841" y="738.4316">userRepo :</text><text fill="#000000" font-family="sans-serif" font-size="14" lengthAdjust="spacing" textLength="100" x="828" y="757.0527">IUserRepository</text><rect fill="#E3E3E3" height="51.2422" rx="2.5" ry="2.5" style="stroke:#181818;stroke-width:0.5;" width="92" x="945" y="63.2422"/><text fill="#000000" font-family="sans-serif" font-size="14" font-style="italic" lengthAdjust="spacing" textLength="78" x="952" y="85.3496">&#171;DataBase&#187;</text><text fill="#000000" font-family="sans-serif" font-size="14" lengthAdjust="spacing" textLength="19" x="981.5" y="103.9707">DB</text><rect fill="#E3E3E3" height="51.2422" rx="2.5" ry="2.5" style="stroke:#181818;stroke-width:0.5;" width="92" x="945" y="697.7031"/><text fill="#000000" font-family="sans-serif" font-size="14" font-style="italic" lengthAdjust="spacing" textLength="78" x="952" y="719.8105">&#171;DataBase&#187;</text><text fill="#000000" font-family="sans-serif" font-size="14" lengthAdjust="spacing" textLength="19" x="981.5" y="738.4316">DB</text><rect fill="#FFFFFF" height="531.9277" style="stroke:#181818;stroke-width:1.0;" width="10" x="180" y="148.7754"/><rect fill="#FFFFFF" height="469.3457" style="stroke:#181818;stroke-width:1.0;" width="10" x="351" y="180.0664"/><rect fill="#FFFFFF" height="391.7637" style="stroke:#181818;stroke-width:1.0;" width="10" x="356" y="219.3574"/><rect fill="#FFFFFF" height="237.3184" style="stroke:#181818;stroke-width:1.0;" width="10" x="639" y="336.5117"/><rect fill="#FFFFFF" height="93.873" style="stroke:#181818;stroke-width:1.0;" width="10" x="871" y="448.666"/><rect fill="#FFFFFF" height="31.291" style="stroke:#181818;stroke-width:1.0;" width="10" x="986" y="479.957"/><ellipse cx="4.5" cy="148.0254" fill="none" rx="4" ry="4" style="stroke:#181818;stroke-width:1.5;"/><polygon fill="#181818" points="168,144.7754,178,148.7754,168,152.7754,172,148.7754" style="stroke:#181818;stroke-width:1.0;"/><line style="stroke:#181818;stroke-width:1.0;" x1="9" x2="174" y1="148.7754" y2="148.7754"/><text fill="#000000" font-family="sans-serif" font-size="13" font-weight="bold" lengthAdjust="spacing" textLength="7" x="12" y="143.5127">1</text><text fill="#000000" font-family="sans-serif" font-size="13" lengthAdjust="spacing" textLength="142" x="23" y="143.5127">POST (.../users/register)</text><polygon fill="#181818" points="339,176.0664,349,180.0664,339,184.0664,343,180.0664" style="stroke:#181818;stroke-width:1.0;"/><line style="stroke:#181818;stroke-width:1.0;" x1="190" x2="345" y1="180.0664" y2="180.0664"/><text fill="#000000" font-family="sans-serif" font-size="13" font-weight="bold" lengthAdjust="spacing" textLength="7" x="197" y="174.8037">2</text><text fill="#000000" font-family="sans-serif" font-size="13" lengthAdjust="spacing" textLength="131" x="208" y="174.8037">execute(req, res, next)</text><line style="stroke:#181818;stroke-width:1.0;" x1="361" x2="408" y1="206.3574" y2="206.3574"/><line style="stroke:#181818;stroke-width:1.0;" x1="408" x2="408" y1="206.3574" y2="219.3574"/><line style="stroke:#181818;stroke-width:1.0;" x1="367" x2="408" y1="219.3574" y2="219.3574"/><polygon fill="#181818" points="377,215.3574,367,219.3574,377,223.3574,373,219.3574" style="stroke:#181818;stroke-width:1.0;"/><text fill="#000000" font-family="sans-serif" font-size="13" font-weight="bold" lengthAdjust="spacing" textLength="7" x="373" y="201.0947">3</text><text fill="#000000" font-family="sans-serif" font-size="13" lengthAdjust="spacing" textLength="128" x="384" y="201.0947">register(req, res, next)</text><polygon fill="#181818" points="467,251.6484,477,255.6484,467,259.6484,471,255.6484" style="stroke:#181818;stroke-width:1.0;"/><line style="stroke:#181818;stroke-width:1.0;stroke-dasharray:2.0,2.0;" x1="366" x2="473" y1="255.6484" y2="255.6484"/><text fill="#000000" font-family="sans-serif" font-size="13" font-weight="bold" lengthAdjust="spacing" textLength="7" x="373" y="250.3857">4</text><text fill="#000000" font-family="sans-serif" font-size="13" lengthAdjust="spacing" textLength="36" x="384" y="250.3857">create</text><rect fill="#E3E3E3" height="69.8633" rx="2.5" ry="2.5" style="stroke:#181818;stroke-width:0.5;" width="80" x="479" y="232.3574"/><text fill="#000000" font-family="sans-serif" font-size="14" font-style="italic" lengthAdjust="spacing" textLength="46" x="496" y="254.4648">&#171;DTO&#187;</text><text fill="#000000" font-family="sans-serif" font-size="14" lengthAdjust="spacing" textLength="66" x="486" y="273.0859">userDTO :</text><text fill="#000000" font-family="sans-serif" font-size="14" lengthAdjust="spacing" textLength="62" x="490" y="291.707">IUserDTO</text><polygon fill="#181818" points="627,332.5117,637,336.5117,627,340.5117,631,336.5117" style="stroke:#181818;stroke-width:1.0;"/><line style="stroke:#181818;stroke-width:1.0;" x1="366" x2="633" y1="336.5117" y2="336.5117"/><text fill="#000000" font-family="sans-serif" font-size="13" font-weight="bold" lengthAdjust="spacing" textLength="7" x="373" y="331.249">5</text><text fill="#000000" font-family="sans-serif" font-size="13" lengthAdjust="spacing" textLength="102" x="384" y="331.249">register(userDTO)</text><polygon fill="#181818" points="717,363.8027,727,367.8027,717,371.8027,721,367.8027" style="stroke:#181818;stroke-width:1.0;"/><line style="stroke:#181818;stroke-width:1.0;stroke-dasharray:2.0,2.0;" x1="649" x2="723" y1="367.8027" y2="367.8027"/><text fill="#000000" font-family="sans-serif" font-size="13" font-weight="bold" lengthAdjust="spacing" textLength="7" x="656" y="362.54">6</text><text fill="#000000" font-family="sans-serif" font-size="13" lengthAdjust="spacing" textLength="36" x="667" y="362.54">create</text><rect fill="#E3E3E3" height="69.8633" rx="2.5" ry="2.5" style="stroke:#181818;stroke-width:0.5;" width="78" x="729" y="344.5117"/><text fill="#000000" font-family="sans-serif" font-size="14" font-style="italic" lengthAdjust="spacing" textLength="64" x="736" y="366.6191">&#171;Domain&#187;</text><text fill="#000000" font-family="sans-serif" font-size="14" lengthAdjust="spacing" textLength="36" x="750" y="385.2402">user :</text><text fill="#000000" font-family="sans-serif" font-size="14" lengthAdjust="spacing" textLength="28" x="756" y="403.8613">user</text><polygon fill="#181818" points="859,444.666,869,448.666,859,452.666,863,448.666" style="stroke:#181818;stroke-width:1.0;"/><line style="stroke:#181818;stroke-width:1.0;" x1="649" x2="865" y1="448.666" y2="448.666"/><text fill="#000000" font-family="sans-serif" font-size="13" font-weight="bold" lengthAdjust="spacing" textLength="7" x="656" y="443.4033">7</text><text fill="#000000" font-family="sans-serif" font-size="13" lengthAdjust="spacing" textLength="59" x="667" y="443.4033">save(user)</text><polygon fill="#181818" points="974,475.957,984,479.957,974,483.957,978,479.957" style="stroke:#181818;stroke-width:1.0;"/><line style="stroke:#181818;stroke-width:1.0;" x1="881" x2="980" y1="479.957" y2="479.957"/><text fill="#000000" font-family="sans-serif" font-size="13" font-weight="bold" lengthAdjust="spacing" textLength="7" x="888" y="474.6943">8</text><text fill="#000000" font-family="sans-serif" font-size="13" lengthAdjust="spacing" textLength="59" x="899" y="474.6943">save(user)</text><polygon fill="#181818" points="892,507.248,882,511.248,892,515.248,888,511.248" style="stroke:#181818;stroke-width:1.0;"/><line style="stroke:#181818;stroke-width:1.0;stroke-dasharray:2.0,2.0;" x1="886" x2="990" y1="511.248" y2="511.248"/><text fill="#000000" font-family="sans-serif" font-size="13" font-weight="bold" lengthAdjust="spacing" textLength="7" x="898" y="505.9854">9</text><text fill="#000000" font-family="sans-serif" font-size="13" lengthAdjust="spacing" textLength="4" x="909" y="505.9854">&#160;</text><polygon fill="#181818" points="660,538.5391,650,542.5391,660,546.5391,656,542.5391" style="stroke:#181818;stroke-width:1.0;"/><line style="stroke:#181818;stroke-width:1.0;stroke-dasharray:2.0,2.0;" x1="654" x2="875" y1="542.5391" y2="542.5391"/><text fill="#000000" font-family="sans-serif" font-size="13" font-weight="bold" lengthAdjust="spacing" textLength="14" x="666" y="537.2764">10</text><text fill="#000000" font-family="sans-serif" font-size="13" lengthAdjust="spacing" textLength="4" x="684" y="537.2764">&#160;</text><polygon fill="#181818" points="377,569.8301,367,573.8301,377,577.8301,373,573.8301" style="stroke:#181818;stroke-width:1.0;"/><line style="stroke:#181818;stroke-width:1.0;stroke-dasharray:2.0,2.0;" x1="371" x2="643" y1="573.8301" y2="573.8301"/><text fill="#000000" font-family="sans-serif" font-size="13" font-weight="bold" lengthAdjust="spacing" textLength="14" x="383" y="568.5674">11</text><text fill="#000000" font-family="sans-serif" font-size="13" lengthAdjust="spacing" textLength="4" x="401" y="568.5674">&#160;</text><line style="stroke:#181818;stroke-width:1.0;stroke-dasharray:2.0,2.0;" x1="366" x2="408" y1="610.1211" y2="610.1211"/><line style="stroke:#181818;stroke-width:1.0;stroke-dasharray:2.0,2.0;" x1="408" x2="408" y1="610.1211" y2="623.1211"/><line style="stroke:#181818;stroke-width:1.0;stroke-dasharray:2.0,2.0;" x1="361" x2="408" y1="623.1211" y2="623.1211"/><polygon fill="#181818" points="371,619.1211,361,623.1211,371,627.1211,367,623.1211" style="stroke:#181818;stroke-width:1.0;"/><text fill="#000000" font-family="sans-serif" font-size="13" font-weight="bold" lengthAdjust="spacing" textLength="14" x="373" y="604.8584">12</text><text fill="#000000" font-family="sans-serif" font-size="13" lengthAdjust="spacing" textLength="90" x="391" y="604.8584">status: 201/400</text><polygon fill="#181818" points="201,645.4121,191,649.4121,201,653.4121,197,649.4121" style="stroke:#181818;stroke-width:1.0;"/><line style="stroke:#181818;stroke-width:1.0;stroke-dasharray:2.0,2.0;" x1="195" x2="355" y1="649.4121" y2="649.4121"/><text fill="#000000" font-family="sans-serif" font-size="13" font-weight="bold" lengthAdjust="spacing" textLength="14" x="207" y="644.1494">13</text><text fill="#000000" font-family="sans-serif" font-size="13" lengthAdjust="spacing" textLength="90" x="225" y="644.1494">status: 201/400</text><polygon fill="#181818" points="11,676.7031,1,680.7031,11,684.7031,7,680.7031" style="stroke:#181818;stroke-width:1.0;"/><line style="stroke:#181818;stroke-width:1.0;stroke-dasharray:2.0,2.0;" x1="5" x2="184" y1="680.7031" y2="680.7031"/><text fill="#000000" font-family="sans-serif" font-size="13" font-weight="bold" lengthAdjust="spacing" textLength="14" x="17" y="675.4404">14</text><text fill="#000000" font-family="sans-serif" font-size="13" lengthAdjust="spacing" textLength="90" x="35" y="675.4404">status: 201/400</text><!--SRC=[XPDDJ-Cm48Rl_XKZJWqYRTdTKrG5gUI2j2iGWJtjnMjcWqLY5zifyEztxEQRjEIG-EDzdvdCsFP5gXqtl89AAosUZQuGdAcHsMvdnyKBBp1t7oM2GU6uAigXm3xp9_qcLG7_U6cHCISTINDyhL49X4pomkiMFt6F9No76EwC5cWj_9RuHjDVMKJlnnmkrupNJgkw-ek6CU8xAUIEAmTdjKLphsk7Py0jX15iDk6RfcEfSAQ4v8-2cqSoNMlbZ2vBDC7PJydUJwOC7ovxkEqnD0d-PancUi-vSZHxAV16MIeL_Nz7Q3O2fHaJfHdDaOBL3xh0Fggkk5HpydlSwJwQdrdfjFau5CnlKhswrIaXsmPTjlKnkEDRRdrIx4h7QLFk1EvkymTOB9VBbGzeLmOBQHsQY77Xv9wJA4WP0teEBh8FQfu0lgEWzON1rmiwKFO25BwxA3WwIky8w_uPGAR8DerPvbVSAPlWJO_Fpuaj39Bng3hjMZb8epay4HlPkYGQnsZJFosfJU5O_94sFRGs0Slt6297dyHzSqZwQJUqoZE8HUq_IHhHiktiFZ7YBgrPnHD-nJZaCwmkEm6P_QrXDOUdXHs1j5qvTJ16fuxkjwjj0j_MbwiVwpMROKwEsuJMtgevq3o4RUBug6rOa709_mC0]--></g></svg>