<?xml version="1.0" encoding="UTF-8" standalone="no"?><svg xmlns="http://www.w3.org/2000/svg" xmlns:xlink="http://www.w3.org/1999/xlink" contentStyleType="text/css" height="1272px" preserveAspectRatio="none" style="width:2540px;height:1272px;background:#FFFFFF;" version="1.1" viewBox="0 0 2540 1272" width="2540px" zoomAndPan="magnify"><defs/><g><rect fill="none" height="27.6094" id="_title" style="stroke:none;stroke-width:1.0;" width="290" x="1124.25" y="10"/><text fill="#000000" font-family="sans-serif" font-size="14" font-weight="bold" lengthAdjust="spacing" textLength="280" x="1129.25" y="29.5332">Sequence Diagram (SD) Level 3 - US 360</text><rect fill="#FFFFFF" height="987.2422" style="stroke:#181818;stroke-width:1.0;" width="10" x="53.5" y="152.4375"/><rect fill="#FFFFFF" height="964.8906" style="stroke:#181818;stroke-width:1.0;" width="10" x="257.5" y="174.7891"/><rect fill="#FFFFFF" height="904.1875" style="stroke:#181818;stroke-width:1.0;" width="10" x="456.5" y="205.1406"/><rect fill="#FFFFFF" height="687.8281" style="stroke:#181818;stroke-width:1.0;" width="10" x="747.5" y="343.6719"/><rect fill="#FFFFFF" height="242.5859" style="stroke:#181818;stroke-width:1.0;" width="10" x="1088" y="680.7344"/><rect fill="#FFFFFF" height="120.7031" style="stroke:#181818;stroke-width:1.0;" width="10" x="1203" y="374.0234"/><rect fill="#FFFFFF" height="30.3516" style="stroke:#181818;stroke-width:1.0;" width="10" x="1326" y="235.4922"/><rect fill="#FFFFFF" height="30.3516" style="stroke:#181818;stroke-width:1.0;" width="10" x="1326" y="711.0859"/><rect fill="#FFFFFF" height="30.3516" style="stroke:#181818;stroke-width:1.0;" width="10" x="1326" y="892.9688"/><rect fill="#FFFFFF" height="30.3516" style="stroke:#181818;stroke-width:1.0;" width="10" x="1326" y="1001.1484"/><rect fill="#FFFFFF" height="60.3516" style="stroke:#181818;stroke-width:1.0;" width="10" x="1457" y="464.7266"/><rect fill="#FFFFFF" height="36.3516" style="stroke:#181818;stroke-width:1.0;" width="10" x="1832.5" y="819.2656"/><rect fill="#FFFFFF" height="30" style="stroke:#181818;stroke-width:1.0;" width="10" x="2055.5" y="404.375"/><line style="stroke:#181818;stroke-width:0.5;stroke-dasharray:5.0,5.0;" x1="58" x2="58" y1="142.4375" y2="1157.6797"/><line style="stroke:#181818;stroke-width:0.5;stroke-dasharray:5.0,5.0;" x1="262" x2="262" y1="142.4375" y2="1157.6797"/><line style="stroke:#181818;stroke-width:0.5;stroke-dasharray:5.0,5.0;" x1="461" x2="461" y1="142.4375" y2="1157.6797"/><line style="stroke:#181818;stroke-width:0.5;stroke-dasharray:5.0,5.0;" x1="576" x2="576" y1="292.4063" y2="1157.6797"/><line style="stroke:#181818;stroke-width:0.5;stroke-dasharray:5.0,5.0;" x1="752.5" x2="752.5" y1="142.4375" y2="1157.6797"/><line style="stroke:#181818;stroke-width:0.5;stroke-dasharray:5.0,5.0;" x1="883.5" x2="883.5" y1="1058.0625" y2="1157.6797"/><line style="stroke:#181818;stroke-width:0.5;stroke-dasharray:5.0,5.0;" x1="999.5" x2="999.5" y1="629.4688" y2="1157.6797"/><line style="stroke:#181818;stroke-width:0.5;stroke-dasharray:5.0,5.0;" x1="1092.5" x2="1092.5" y1="142.4375" y2="1157.6797"/><line style="stroke:#181818;stroke-width:0.5;stroke-dasharray:5.0,5.0;" x1="1207.5" x2="1207.5" y1="142.4375" y2="1157.6797"/><line style="stroke:#181818;stroke-width:0.5;stroke-dasharray:5.0,5.0;" x1="1330.5" x2="1330.5" y1="142.4375" y2="1157.6797"/><line style="stroke:#181818;stroke-width:0.5;stroke-dasharray:5.0,5.0;" x1="1461.5" x2="1461.5" y1="142.4375" y2="1157.6797"/><line style="stroke:#181818;stroke-width:0.5;stroke-dasharray:5.0,5.0;" x1="1606.5" x2="1606.5" y1="142.4375" y2="1157.6797"/><line style="stroke:#181818;stroke-width:0.5;stroke-dasharray:5.0,5.0;" x1="1726.5" x2="1726.5" y1="768" y2="1157.6797"/><line style="stroke:#181818;stroke-width:0.5;stroke-dasharray:5.0,5.0;" x1="1837.5" x2="1837.5" y1="142.4375" y2="1157.6797"/><line style="stroke:#181818;stroke-width:0.5;stroke-dasharray:5.0,5.0;" x1="2060.5" x2="2060.5" y1="142.4375" y2="1157.6797"/><line style="stroke:#181818;stroke-width:0.5;stroke-dasharray:5.0,5.0;" x1="2210.5" x2="2210.5" y1="551.6406" y2="1157.6797"/><line style="stroke:#181818;stroke-width:0.5;stroke-dasharray:5.0,5.0;" x1="2339.5" x2="2339.5" y1="949.8828" y2="1157.6797"/><line style="stroke:#181818;stroke-width:0.5;stroke-dasharray:5.0,5.0;" x1="2467.5" x2="2467.5" y1="142.4375" y2="1157.6797"/><text fill="#000000" font-family="sans-serif" font-size="14" lengthAdjust="spacing" textLength="101" x="5" y="139.3613">Gestor de Frota</text><ellipse cx="58.5" cy="73.3281" fill="#E3E3E3" rx="8" ry="8" style="stroke:#181818;stroke-width:0.5;"/><path d="M58.5,81.3281 L58.5,108.3281 M45.5,89.3281 L71.5,89.3281 M58.5,108.3281 L45.5,123.3281 M58.5,108.3281 L71.5,123.3281 " fill="none" style="stroke:#181818;stroke-width:0.5;"/><text fill="#000000" font-family="sans-serif" font-size="14" lengthAdjust="spacing" textLength="101" x="5" y="1171.2129">Gestor de Frota</text><ellipse cx="58.5" cy="1182.7891" fill="#E3E3E3" rx="8" ry="8" style="stroke:#181818;stroke-width:0.5;"/><path d="M58.5,1190.7891 L58.5,1217.7891 M45.5,1198.7891 L71.5,1198.7891 M58.5,1217.7891 L45.5,1232.7891 M58.5,1217.7891 L71.5,1232.7891 " fill="none" style="stroke:#181818;stroke-width:0.5;"/><rect fill="#E3E3E3" height="49.2188" rx="2.5" ry="2.5" style="stroke:#181818;stroke-width:0.5;" width="93" x="216" y="92.2188"/><text fill="#000000" font-family="sans-serif" font-size="14" font-style="italic" lengthAdjust="spacing" textLength="46" x="239.5" y="113.752">«Web»</text><text fill="#000000" font-family="sans-serif" font-size="14" lengthAdjust="spacing" textLength="79" x="223" y="131.3613">deviceRoute</text><rect fill="#E3E3E3" height="49.2188" rx="2.5" ry="2.5" style="stroke:#181818;stroke-width:0.5;" width="93" x="216" y="1156.6797"/><text fill="#000000" font-family="sans-serif" font-size="14" font-style="italic" lengthAdjust="spacing" textLength="46" x="239.5" y="1178.2129">«Web»</text><text fill="#000000" font-family="sans-serif" font-size="14" lengthAdjust="spacing" textLength="79" x="223" y="1195.8223">deviceRoute</text><text fill="#000000" font-family="sans-serif" font-size="14" font-style="italic" lengthAdjust="spacing" textLength="85" x="416" y="104.1426">«Controllers»</text><text fill="#000000" font-family="sans-serif" font-size="14" lengthAdjust="spacing" textLength="111" x="403" y="121.752">deviceController :</text><text fill="#000000" font-family="sans-serif" font-size="14" lengthAdjust="spacing" textLength="103" x="409" y="139.3613">deviceController</text><ellipse cx="461.5" cy="73.6094" fill="#E3E3E3" rx="12" ry="12" style="stroke:#181818;stroke-width:0.5;"/><polygon fill="#181818" points="457.5,61.6094,463.5,56.6094,461.5,61.6094,463.5,66.6094,457.5,61.6094" style="stroke:#181818;stroke-width:1.0;"/><text fill="#000000" font-family="sans-serif" font-size="14" font-style="italic" lengthAdjust="spacing" textLength="85" x="416" y="1171.2129">«Controllers»</text><text fill="#000000" font-family="sans-serif" font-size="14" lengthAdjust="spacing" textLength="111" x="403" y="1188.8223">deviceController :</text><text fill="#000000" font-family="sans-serif" font-size="14" lengthAdjust="spacing" textLength="103" x="409" y="1206.4316">deviceController</text><ellipse cx="461.5" cy="1225.5078" fill="#E3E3E3" rx="12" ry="12" style="stroke:#181818;stroke-width:0.5;"/><polygon fill="#181818" points="457.5,1213.5078,463.5,1208.5078,461.5,1213.5078,463.5,1218.5078,457.5,1213.5078" style="stroke:#181818;stroke-width:1.0;"/><rect fill="#E3E3E3" height="66.8281" rx="2.5" ry="2.5" style="stroke:#181818;stroke-width:0.5;" width="93" x="530" y="1156.6797"/><text fill="#000000" font-family="sans-serif" font-size="14" font-style="italic" lengthAdjust="spacing" textLength="46" x="553.5" y="1178.2129">«DTO»</text><text fill="#000000" font-family="sans-serif" font-size="14" lengthAdjust="spacing" textLength="79" x="537" y="1195.8223">deviceDTO :</text><text fill="#000000" font-family="sans-serif" font-size="14" lengthAdjust="spacing" textLength="73" x="542" y="1213.4316">DeviceDTO</text><rect fill="#E3E3E3" height="66.8281" rx="2.5" ry="2.5" style="stroke:#181818;stroke-width:0.5;" width="110" x="697.5" y="74.6094"/><text fill="#000000" font-family="sans-serif" font-size="14" font-style="italic" lengthAdjust="spacing" textLength="85" x="710" y="96.1426">«Use Cases»</text><text fill="#000000" font-family="sans-serif" font-size="14" lengthAdjust="spacing" textLength="96" x="704.5" y="113.752">deviceService :</text><text fill="#000000" font-family="sans-serif" font-size="14" lengthAdjust="spacing" textLength="88" x="710.5" y="131.3613">deviceService</text><rect fill="#E3E3E3" height="66.8281" rx="2.5" ry="2.5" style="stroke:#181818;stroke-width:0.5;" width="110" x="697.5" y="1156.6797"/><text fill="#000000" font-family="sans-serif" font-size="14" font-style="italic" lengthAdjust="spacing" textLength="85" x="710" y="1178.2129">«Use Cases»</text><text fill="#000000" font-family="sans-serif" font-size="14" lengthAdjust="spacing" textLength="96" x="704.5" y="1195.8223">deviceService :</text><text fill="#000000" font-family="sans-serif" font-size="14" lengthAdjust="spacing" textLength="88" x="710.5" y="1213.4316">deviceService</text><rect fill="#E3E3E3" height="66.8281" rx="2.5" ry="2.5" style="stroke:#181818;stroke-width:0.5;" width="133" x="817.5" y="1156.6797"/><text fill="#000000" font-family="sans-serif" font-size="14" font-style="italic" lengthAdjust="spacing" textLength="46" x="861" y="1178.2129">«DTO»</text><text fill="#000000" font-family="sans-serif" font-size="14" lengthAdjust="spacing" textLength="119" x="824.5" y="1195.8223">deviceDTOResult :</text><text fill="#000000" font-family="sans-serif" font-size="14" lengthAdjust="spacing" textLength="73" x="849.5" y="1213.4316">DeviceDTO</text><rect fill="#E3E3E3" height="66.8281" rx="2.5" ry="2.5" style="stroke:#181818;stroke-width:0.5;" width="78" x="960.5" y="1156.6797"/><text fill="#000000" font-family="sans-serif" font-size="14" font-style="italic" lengthAdjust="spacing" textLength="64" x="967.5" y="1178.2129">«Domain»</text><text fill="#000000" font-family="sans-serif" font-size="14" lengthAdjust="spacing" textLength="49" x="975" y="1195.8223">device :</text><text fill="#000000" font-family="sans-serif" font-size="14" lengthAdjust="spacing" textLength="43" x="980" y="1213.4316">Device</text><text fill="#000000" font-family="sans-serif" font-size="14" font-style="italic" lengthAdjust="spacing" textLength="78" x="1051" y="104.1426">«Gateways»</text><text fill="#000000" font-family="sans-serif" font-size="14" lengthAdjust="spacing" textLength="83" x="1048.5" y="121.752">deviceRepo :</text><text fill="#000000" font-family="sans-serif" font-size="14" lengthAdjust="spacing" textLength="75" x="1054.5" y="139.3613">deviceRepo</text><path d="M1075,53.6094 C1075,43.6094 1093,43.6094 1093,43.6094 C1093,43.6094 1111,43.6094 1111,53.6094 L1111,79.6094 C1111,89.6094 1093,89.6094 1093,89.6094 C1093,89.6094 1075,89.6094 1075,79.6094 L1075,53.6094 " fill="#E3E3E3" style="stroke:#181818;stroke-width:1.5;"/><path d="M1075,53.6094 C1075,63.6094 1093,63.6094 1093,63.6094 C1093,63.6094 1111,63.6094 1111,53.6094 " fill="none" style="stroke:#181818;stroke-width:1.5;"/><text fill="#000000" font-family="sans-serif" font-size="14" font-style="italic" lengthAdjust="spacing" textLength="78" x="1051" y="1171.2129">«Gateways»</text><text fill="#000000" font-family="sans-serif" font-size="14" lengthAdjust="spacing" textLength="83" x="1048.5" y="1188.8223">deviceRepo :</text><text fill="#000000" font-family="sans-serif" font-size="14" lengthAdjust="spacing" textLength="75" x="1054.5" y="1206.4316">deviceRepo</text><path d="M1075,1219.5078 C1075,1209.5078 1093,1209.5078 1093,1209.5078 C1093,1209.5078 1111,1209.5078 1111,1219.5078 L1111,1245.5078 C1111,1255.5078 1093,1255.5078 1093,1255.5078 C1093,1255.5078 1075,1255.5078 1075,1245.5078 L1075,1219.5078 " fill="#E3E3E3" style="stroke:#181818;stroke-width:1.5;"/><path d="M1075,1219.5078 C1075,1229.5078 1093,1229.5078 1093,1229.5078 C1093,1229.5078 1111,1229.5078 1111,1219.5078 " fill="none" style="stroke:#181818;stroke-width:1.5;"/><text fill="#000000" font-family="sans-serif" font-size="14" font-style="italic" lengthAdjust="spacing" textLength="78" x="1166" y="104.1426">«Gateways»</text><text fill="#000000" font-family="sans-serif" font-size="14" lengthAdjust="spacing" textLength="115" x="1147.5" y="121.752">deviceTypeRepo :</text><text fill="#000000" font-family="sans-serif" font-size="14" lengthAdjust="spacing" textLength="107" x="1153.5" y="139.3613">deviceTypeRepo</text><path d="M1190,53.6094 C1190,43.6094 1208,43.6094 1208,43.6094 C1208,43.6094 1226,43.6094 1226,53.6094 L1226,79.6094 C1226,89.6094 1208,89.6094 1208,89.6094 C1208,89.6094 1190,89.6094 1190,79.6094 L1190,53.6094 " fill="#E3E3E3" style="stroke:#181818;stroke-width:1.5;"/><path d="M1190,53.6094 C1190,63.6094 1208,63.6094 1208,63.6094 C1208,63.6094 1226,63.6094 1226,53.6094 " fill="none" style="stroke:#181818;stroke-width:1.5;"/><text fill="#000000" font-family="sans-serif" font-size="14" font-style="italic" lengthAdjust="spacing" textLength="78" x="1166" y="1171.2129">«Gateways»</text><text fill="#000000" font-family="sans-serif" font-size="14" lengthAdjust="spacing" textLength="115" x="1147.5" y="1188.8223">deviceTypeRepo :</text><text fill="#000000" font-family="sans-serif" font-size="14" lengthAdjust="spacing" textLength="107" x="1153.5" y="1206.4316">deviceTypeRepo</text><path d="M1190,1219.5078 C1190,1209.5078 1208,1209.5078 1208,1209.5078 C1208,1209.5078 1226,1209.5078 1226,1219.5078 L1226,1245.5078 C1226,1255.5078 1208,1255.5078 1208,1255.5078 C1208,1255.5078 1190,1255.5078 1190,1245.5078 L1190,1219.5078 " fill="#E3E3E3" style="stroke:#181818;stroke-width:1.5;"/><path d="M1190,1219.5078 C1190,1229.5078 1208,1229.5078 1208,1229.5078 C1208,1229.5078 1226,1229.5078 1226,1219.5078 " fill="none" style="stroke:#181818;stroke-width:1.5;"/><rect fill="#E3E3E3" height="49.2188" rx="2.5" ry="2.5" style="stroke:#181818;stroke-width:0.5;" width="105" x="1278.5" y="92.2188"/><text fill="#000000" font-family="sans-serif" font-size="14" font-style="italic" lengthAdjust="spacing" textLength="65" x="1298.5" y="113.752">«Mapper»</text><text fill="#000000" font-family="sans-serif" font-size="14" lengthAdjust="spacing" textLength="91" x="1285.5" y="131.3613">DeviceMapper</text><rect fill="#E3E3E3" height="49.2188" rx="2.5" ry="2.5" style="stroke:#181818;stroke-width:0.5;" width="105" x="1278.5" y="1156.6797"/><text fill="#000000" font-family="sans-serif" font-size="14" font-style="italic" lengthAdjust="spacing" textLength="65" x="1298.5" y="1178.2129">«Mapper»</text><text fill="#000000" font-family="sans-serif" font-size="14" lengthAdjust="spacing" textLength="91" x="1285.5" y="1195.8223">DeviceMapper</text><rect fill="#E3E3E3" height="49.2188" rx="2.5" ry="2.5" style="stroke:#181818;stroke-width:0.5;" width="137" x="1393.5" y="92.2188"/><text fill="#000000" font-family="sans-serif" font-size="14" font-style="italic" lengthAdjust="spacing" textLength="65" x="1429.5" y="113.752">«Mapper»</text><text fill="#000000" font-family="sans-serif" font-size="14" lengthAdjust="spacing" textLength="123" x="1400.5" y="131.3613">DeviceTypeMapper</text><rect fill="#E3E3E3" height="49.2188" rx="2.5" ry="2.5" style="stroke:#181818;stroke-width:0.5;" width="137" x="1393.5" y="1156.6797"/><text fill="#000000" font-family="sans-serif" font-size="14" font-style="italic" lengthAdjust="spacing" textLength="65" x="1429.5" y="1178.2129">«Mapper»</text><text fill="#000000" font-family="sans-serif" font-size="14" lengthAdjust="spacing" textLength="123" x="1400.5" y="1195.8223">DeviceTypeMapper</text><rect fill="#E3E3E3" height="66.8281" rx="2.5" ry="2.5" style="stroke:#181818;stroke-width:0.5;" width="133" x="1540.5" y="74.6094"/><text fill="#000000" font-family="sans-serif" font-size="14" font-style="italic" lengthAdjust="spacing" textLength="46" x="1584" y="96.1426">«DTO»</text><text fill="#000000" font-family="sans-serif" font-size="14" lengthAdjust="spacing" textLength="119" x="1547.5" y="113.752">savedDeviceDTO :</text><text fill="#000000" font-family="sans-serif" font-size="14" lengthAdjust="spacing" textLength="73" x="1572.5" y="131.3613">DeviceDTO</text><rect fill="#E3E3E3" height="66.8281" rx="2.5" ry="2.5" style="stroke:#181818;stroke-width:0.5;" width="133" x="1540.5" y="1156.6797"/><text fill="#000000" font-family="sans-serif" font-size="14" font-style="italic" lengthAdjust="spacing" textLength="46" x="1584" y="1178.2129">«DTO»</text><text fill="#000000" font-family="sans-serif" font-size="14" lengthAdjust="spacing" textLength="119" x="1547.5" y="1195.8223">savedDeviceDTO :</text><text fill="#000000" font-family="sans-serif" font-size="14" lengthAdjust="spacing" textLength="73" x="1572.5" y="1213.4316">DeviceDTO</text><rect fill="#E3E3E3" height="66.8281" rx="2.5" ry="2.5" style="stroke:#181818;stroke-width:0.5;" width="87" x="1683.5" y="1156.6797"/><text fill="#000000" font-family="sans-serif" font-size="14" font-style="italic" lengthAdjust="spacing" textLength="64" x="1695" y="1178.2129">«Domain»</text><text fill="#000000" font-family="sans-serif" font-size="14" lengthAdjust="spacing" textLength="73" x="1690.5" y="1195.8223">rawDevice :</text><text fill="#000000" font-family="sans-serif" font-size="14" lengthAdjust="spacing" textLength="43" x="1707.5" y="1213.4316">Device</text><rect fill="#E3E3E3" height="66.8281" rx="2.5" ry="2.5" style="stroke:#181818;stroke-width:0.5;" width="114" x="1780.5" y="74.6094"/><text fill="#000000" font-family="sans-serif" font-size="14" font-style="italic" lengthAdjust="spacing" textLength="35" x="1820" y="96.1426">«DB»</text><text fill="#000000" font-family="sans-serif" font-size="14" lengthAdjust="spacing" textLength="100" x="1787.5" y="113.752">deviceSchema :</text><text fill="#000000" font-family="sans-serif" font-size="14" lengthAdjust="spacing" textLength="92" x="1793.5" y="131.3613">deviceSchema</text><rect fill="#E3E3E3" height="66.8281" rx="2.5" ry="2.5" style="stroke:#181818;stroke-width:0.5;" width="114" x="1780.5" y="1156.6797"/><text fill="#000000" font-family="sans-serif" font-size="14" font-style="italic" lengthAdjust="spacing" textLength="35" x="1820" y="1178.2129">«DB»</text><text fill="#000000" font-family="sans-serif" font-size="14" lengthAdjust="spacing" textLength="100" x="1787.5" y="1195.8223">deviceSchema :</text><text fill="#000000" font-family="sans-serif" font-size="14" lengthAdjust="spacing" textLength="92" x="1793.5" y="1213.4316">deviceSchema</text><rect fill="#E3E3E3" height="66.8281" rx="2.5" ry="2.5" style="stroke:#181818;stroke-width:0.5;" width="146" x="1987.5" y="74.6094"/><text fill="#000000" font-family="sans-serif" font-size="14" font-style="italic" lengthAdjust="spacing" textLength="35" x="2043" y="96.1426">«DB»</text><text fill="#000000" font-family="sans-serif" font-size="14" lengthAdjust="spacing" textLength="132" x="1994.5" y="113.752">deviceTypeSchema :</text><text fill="#000000" font-family="sans-serif" font-size="14" lengthAdjust="spacing" textLength="124" x="2000.5" y="131.3613">deviceTypeSchema</text><rect fill="#E3E3E3" height="66.8281" rx="2.5" ry="2.5" style="stroke:#181818;stroke-width:0.5;" width="146" x="1987.5" y="1156.6797"/><text fill="#000000" font-family="sans-serif" font-size="14" font-style="italic" lengthAdjust="spacing" textLength="35" x="2043" y="1178.2129">«DB»</text><text fill="#000000" font-family="sans-serif" font-size="14" lengthAdjust="spacing" textLength="132" x="1994.5" y="1195.8223">deviceTypeSchema :</text><text fill="#000000" font-family="sans-serif" font-size="14" lengthAdjust="spacing" textLength="124" x="2000.5" y="1213.4316">deviceTypeSchema</text><rect fill="#E3E3E3" height="66.8281" rx="2.5" ry="2.5" style="stroke:#181818;stroke-width:0.5;" width="135" x="2143.5" y="1156.6797"/><text fill="#000000" font-family="sans-serif" font-size="14" font-style="italic" lengthAdjust="spacing" textLength="64" x="2179" y="1178.2129">«Domain»</text><text fill="#000000" font-family="sans-serif" font-size="14" lengthAdjust="spacing" textLength="121" x="2150.5" y="1195.8223">deviceTypeResult :</text><text fill="#000000" font-family="sans-serif" font-size="14" lengthAdjust="spacing" textLength="75" x="2175.5" y="1213.4316">DeviceType</text><rect fill="#E3E3E3" height="66.8281" rx="2.5" ry="2.5" style="stroke:#181818;stroke-width:0.5;" width="103" x="2288.5" y="1156.6797"/><text fill="#000000" font-family="sans-serif" font-size="14" font-style="italic" lengthAdjust="spacing" textLength="64" x="2308" y="1178.2129">«Domain»</text><text fill="#000000" font-family="sans-serif" font-size="14" lengthAdjust="spacing" textLength="89" x="2295.5" y="1195.8223">deviceResult :</text><text fill="#000000" font-family="sans-serif" font-size="14" lengthAdjust="spacing" textLength="43" x="2320.5" y="1213.4316">Device</text><rect fill="#E3E3E3" height="66.8281" rx="2.5" ry="2.5" style="stroke:#181818;stroke-width:0.5;" width="133" x="2401.5" y="74.6094"/><text fill="#000000" font-family="sans-serif" font-size="14" font-style="italic" lengthAdjust="spacing" textLength="64" x="2436" y="96.1426">«Domain»</text><text fill="#000000" font-family="sans-serif" font-size="14" lengthAdjust="spacing" textLength="119" x="2408.5" y="113.752">savedDeviceData :</text><text fill="#000000" font-family="sans-serif" font-size="14" lengthAdjust="spacing" textLength="43" x="2448.5" y="131.3613">Device</text><rect fill="#E3E3E3" height="66.8281" rx="2.5" ry="2.5" style="stroke:#181818;stroke-width:0.5;" width="133" x="2401.5" y="1156.6797"/><text fill="#000000" font-family="sans-serif" font-size="14" font-style="italic" lengthAdjust="spacing" textLength="64" x="2436" y="1178.2129">«Domain»</text><text fill="#000000" font-family="sans-serif" font-size="14" lengthAdjust="spacing" textLength="119" x="2408.5" y="1195.8223">savedDeviceData :</text><text fill="#000000" font-family="sans-serif" font-size="14" lengthAdjust="spacing" textLength="43" x="2448.5" y="1213.4316">Device</text><rect fill="#FFFFFF" height="987.2422" style="stroke:#181818;stroke-width:1.0;" width="10" x="53.5" y="152.4375"/><rect fill="#FFFFFF" height="964.8906" style="stroke:#181818;stroke-width:1.0;" width="10" x="257.5" y="174.7891"/><rect fill="#FFFFFF" height="904.1875" style="stroke:#181818;stroke-width:1.0;" width="10" x="456.5" y="205.1406"/><rect fill="#FFFFFF" height="687.8281" style="stroke:#181818;stroke-width:1.0;" width="10" x="747.5" y="343.6719"/><rect fill="#FFFFFF" height="242.5859" style="stroke:#181818;stroke-width:1.0;" width="10" x="1088" y="680.7344"/><rect fill="#FFFFFF" height="120.7031" style="stroke:#181818;stroke-width:1.0;" width="10" x="1203" y="374.0234"/><rect fill="#FFFFFF" height="30.3516" style="stroke:#181818;stroke-width:1.0;" width="10" x="1326" y="235.4922"/><rect fill="#FFFFFF" height="30.3516" style="stroke:#181818;stroke-width:1.0;" width="10" x="1326" y="711.0859"/><rect fill="#FFFFFF" height="30.3516" style="stroke:#181818;stroke-width:1.0;" width="10" x="1326" y="892.9688"/><rect fill="#FFFFFF" height="30.3516" style="stroke:#181818;stroke-width:1.0;" width="10" x="1326" y="1001.1484"/><rect fill="#FFFFFF" height="60.3516" style="stroke:#181818;stroke-width:1.0;" width="10" x="1457" y="464.7266"/><rect fill="#FFFFFF" height="36.3516" style="stroke:#181818;stroke-width:1.0;" width="10" x="1832.5" y="819.2656"/><rect fill="#FFFFFF" height="30" style="stroke:#181818;stroke-width:1.0;" width="10" x="2055.5" y="404.375"/><polygon fill="#181818" points="245.5,170.7891,255.5,174.7891,245.5,178.7891,249.5,174.7891" style="stroke:#181818;stroke-width:1.0;"/><line style="stroke:#181818;stroke-width:1.0;" x1="63.5" x2="251.5" y1="174.7891" y2="174.7891"/><text fill="#000000" font-family="sans-serif" font-size="13" font-weight="bold" lengthAdjust="spacing" textLength="7" x="70.5" y="169.9326">1</text><text fill="#000000" font-family="sans-serif" font-size="13" lengthAdjust="spacing" textLength="85" x="81.5" y="169.9326">Post(../Device)</text><polygon fill="#181818" points="444.5,201.1406,454.5,205.1406,444.5,209.1406,448.5,205.1406" style="stroke:#181818;stroke-width:1.0;"/><line style="stroke:#181818;stroke-width:1.0;" x1="267.5" x2="450.5" y1="205.1406" y2="205.1406"/><text fill="#000000" font-family="sans-serif" font-size="13" font-weight="bold" lengthAdjust="spacing" textLength="7" x="274.5" y="200.2842">2</text><text fill="#000000" font-family="sans-serif" font-size="13" lengthAdjust="spacing" textLength="159" x="285.5" y="200.2842">createDevice(req, res, next)</text><polygon fill="#181818" points="1314,231.4922,1324,235.4922,1314,239.4922,1318,235.4922" style="stroke:#181818;stroke-width:1.0;"/><line style="stroke:#181818;stroke-width:1.0;" x1="466.5" x2="1320" y1="235.4922" y2="235.4922"/><text fill="#000000" font-family="sans-serif" font-size="13" font-weight="bold" lengthAdjust="spacing" textLength="7" x="473.5" y="230.6357">3</text><text fill="#000000" font-family="sans-serif" font-size="13" lengthAdjust="spacing" textLength="95" x="484.5" y="230.6357">toDTO(req.body)</text><polygon fill="#181818" points="634,261.8438,624,265.8438,634,269.8438,630,265.8438" style="stroke:#181818;stroke-width:1.0;"/><line style="stroke:#181818;stroke-width:1.0;stroke-dasharray:2.0,2.0;" x1="628" x2="1330" y1="265.8438" y2="265.8438"/><text fill="#000000" font-family="sans-serif" font-size="13" font-weight="bold" lengthAdjust="spacing" textLength="7" x="640" y="260.9873">4</text><text fill="#000000" font-family="sans-serif" font-size="13" lengthAdjust="spacing" textLength="44" x="651" y="260.9873">create()</text><rect fill="#E3E3E3" height="66.8281" rx="2.5" ry="2.5" style="stroke:#181818;stroke-width:0.5;" width="93" x="530" y="243.4922"/><text fill="#000000" font-family="sans-serif" font-size="14" font-style="italic" lengthAdjust="spacing" textLength="46" x="553.5" y="265.0254">«DTO»</text><text fill="#000000" font-family="sans-serif" font-size="14" lengthAdjust="spacing" textLength="79" x="537" y="282.6348">deviceDTO :</text><text fill="#000000" font-family="sans-serif" font-size="14" lengthAdjust="spacing" textLength="73" x="542" y="300.2441">DeviceDTO</text><polygon fill="#181818" points="735.5,339.6719,745.5,343.6719,735.5,347.6719,739.5,343.6719" style="stroke:#181818;stroke-width:1.0;"/><line style="stroke:#181818;stroke-width:1.0;stroke-dasharray:2.0,2.0;" x1="466.5" x2="741.5" y1="343.6719" y2="343.6719"/><text fill="#000000" font-family="sans-serif" font-size="13" font-weight="bold" lengthAdjust="spacing" textLength="7" x="473.5" y="338.8154">5</text><text fill="#000000" font-family="sans-serif" font-size="13" lengthAdjust="spacing" textLength="251" x="484.5" y="338.8154">createDevice(deviceDTO): deviceDTOResult</text><polygon fill="#181818" points="1191,370.0234,1201,374.0234,1191,378.0234,1195,374.0234" style="stroke:#181818;stroke-width:1.0;"/><line style="stroke:#181818;stroke-width:1.0;" x1="757.5" x2="1197" y1="374.0234" y2="374.0234"/><text fill="#000000" font-family="sans-serif" font-size="13" font-weight="bold" lengthAdjust="spacing" textLength="7" x="764.5" y="369.167">6</text><text fill="#000000" font-family="sans-serif" font-size="13" lengthAdjust="spacing" textLength="173" x="775.5" y="369.167">getType(id): deviceTypeResult</text><polygon fill="#181818" points="2043.5,400.375,2053.5,404.375,2043.5,408.375,2047.5,404.375" style="stroke:#181818;stroke-width:1.0;"/><line style="stroke:#181818;stroke-width:1.0;" x1="1213" x2="2049.5" y1="404.375" y2="404.375"/><text fill="#000000" font-family="sans-serif" font-size="13" font-weight="bold" lengthAdjust="spacing" textLength="7" x="1220" y="399.5186">7</text><text fill="#000000" font-family="sans-serif" font-size="13" lengthAdjust="spacing" textLength="119" x="1231" y="399.5186">findById(): document</text><polygon fill="#181818" points="1445,460.7266,1455,464.7266,1445,468.7266,1449,464.7266" style="stroke:#181818;stroke-width:1.0;"/><line style="stroke:#181818;stroke-width:1.0;" x1="1213" x2="1451" y1="464.7266" y2="464.7266"/><text fill="#000000" font-family="sans-serif" font-size="13" font-weight="bold" lengthAdjust="spacing" textLength="7" x="1220" y="459.8701">8</text><text fill="#000000" font-family="sans-serif" font-size="13" lengthAdjust="spacing" textLength="120" x="1231" y="459.8701">toDomain(document)</text><polygon fill="#181818" points="2131.5,521.0781,2141.5,525.0781,2131.5,529.0781,2135.5,525.0781" style="stroke:#181818;stroke-width:1.0;"/><line style="stroke:#181818;stroke-width:1.0;" x1="1462" x2="2137.5" y1="525.0781" y2="525.0781"/><text fill="#000000" font-family="sans-serif" font-size="13" font-weight="bold" lengthAdjust="spacing" textLength="7" x="1469" y="520.2217">9</text><text fill="#000000" font-family="sans-serif" font-size="13" lengthAdjust="spacing" textLength="44" x="1480" y="520.2217">create()</text><rect fill="#E3E3E3" height="66.8281" rx="2.5" ry="2.5" style="stroke:#181818;stroke-width:0.5;" width="135" x="2143.5" y="502.7266"/><text fill="#000000" font-family="sans-serif" font-size="14" font-style="italic" lengthAdjust="spacing" textLength="64" x="2179" y="524.2598">«Domain»</text><text fill="#000000" font-family="sans-serif" font-size="14" lengthAdjust="spacing" textLength="121" x="2150.5" y="541.8691">deviceTypeResult :</text><text fill="#000000" font-family="sans-serif" font-size="14" lengthAdjust="spacing" textLength="75" x="2175.5" y="559.4785">DeviceType</text><polygon fill="#181818" points="948.5,598.9063,958.5,602.9063,948.5,606.9063,952.5,602.9063" style="stroke:#181818;stroke-width:1.0;"/><line style="stroke:#181818;stroke-width:1.0;stroke-dasharray:2.0,2.0;" x1="757.5" x2="954.5" y1="602.9063" y2="602.9063"/><text fill="#000000" font-family="sans-serif" font-size="13" font-weight="bold" lengthAdjust="spacing" textLength="14" x="764.5" y="598.0498">10</text><text fill="#000000" font-family="sans-serif" font-size="13" lengthAdjust="spacing" textLength="106" x="782.5" y="598.0498">create(deviceDTO)</text><rect fill="#E3E3E3" height="66.8281" rx="2.5" ry="2.5" style="stroke:#181818;stroke-width:0.5;" width="78" x="960.5" y="580.5547"/><text fill="#000000" font-family="sans-serif" font-size="14" font-style="italic" lengthAdjust="spacing" textLength="64" x="967.5" y="602.0879">«Domain»</text><text fill="#000000" font-family="sans-serif" font-size="14" lengthAdjust="spacing" textLength="49" x="975" y="619.6973">device :</text><text fill="#000000" font-family="sans-serif" font-size="14" lengthAdjust="spacing" textLength="43" x="980" y="637.3066">Device</text><polygon fill="#181818" points="1076,676.7344,1086,680.7344,1076,684.7344,1080,680.7344" style="stroke:#181818;stroke-width:1.0;"/><line style="stroke:#181818;stroke-width:1.0;" x1="757.5" x2="1082" y1="680.7344" y2="680.7344"/><text fill="#000000" font-family="sans-serif" font-size="13" font-weight="bold" lengthAdjust="spacing" textLength="14" x="764.5" y="675.8779">11</text><text fill="#000000" font-family="sans-serif" font-size="13" lengthAdjust="spacing" textLength="151" x="782.5" y="675.8779">save(device): deviceResult</text><polygon fill="#181818" points="1314,707.0859,1324,711.0859,1314,715.0859,1318,711.0859" style="stroke:#181818;stroke-width:1.0;"/><line style="stroke:#181818;stroke-width:1.0;" x1="1098" x2="1320" y1="711.0859" y2="711.0859"/><text fill="#000000" font-family="sans-serif" font-size="13" font-weight="bold" lengthAdjust="spacing" textLength="14" x="1105" y="706.2295">12</text><text fill="#000000" font-family="sans-serif" font-size="13" lengthAdjust="spacing" textLength="124" x="1123" y="706.2295">toPersistence(device)</text><polygon fill="#181818" points="1671.5,737.4375,1681.5,741.4375,1671.5,745.4375,1675.5,741.4375" style="stroke:#181818;stroke-width:1.0;"/><line style="stroke:#181818;stroke-width:1.0;stroke-dasharray:2.0,2.0;" x1="1331" x2="1677.5" y1="741.4375" y2="741.4375"/><text fill="#000000" font-family="sans-serif" font-size="13" font-weight="bold" lengthAdjust="spacing" textLength="14" x="1338" y="736.5811">13</text><text fill="#000000" font-family="sans-serif" font-size="13" lengthAdjust="spacing" textLength="44" x="1356" y="736.5811">create()</text><rect fill="#E3E3E3" height="66.8281" rx="2.5" ry="2.5" style="stroke:#181818;stroke-width:0.5;" width="87" x="1683.5" y="719.0859"/><text fill="#000000" font-family="sans-serif" font-size="14" font-style="italic" lengthAdjust="spacing" textLength="64" x="1695" y="740.6191">«Domain»</text><text fill="#000000" font-family="sans-serif" font-size="14" lengthAdjust="spacing" textLength="73" x="1690.5" y="758.2285">rawDevice :</text><text fill="#000000" font-family="sans-serif" font-size="14" lengthAdjust="spacing" textLength="43" x="1707.5" y="775.8379">Device</text><polygon fill="#181818" points="1820.5,815.2656,1830.5,819.2656,1820.5,823.2656,1824.5,819.2656" style="stroke:#181818;stroke-width:1.0;"/><line style="stroke:#181818;stroke-width:1.0;" x1="1098" x2="1826.5" y1="819.2656" y2="819.2656"/><text fill="#000000" font-family="sans-serif" font-size="13" font-weight="bold" lengthAdjust="spacing" textLength="14" x="1105" y="814.4092">14</text><text fill="#000000" font-family="sans-serif" font-size="13" lengthAdjust="spacing" textLength="102" x="1123" y="814.4092">create(rawDevice)</text><line style="stroke:#181818;stroke-width:1.0;" x1="1842.5" x2="1884.5" y1="854.6172" y2="854.6172"/><line style="stroke:#181818;stroke-width:1.0;" x1="1884.5" x2="1884.5" y1="854.6172" y2="867.6172"/><line style="stroke:#181818;stroke-width:1.0;" x1="1837.5" x2="1884.5" y1="867.6172" y2="867.6172"/><polygon fill="#181818" points="1847.5,863.6172,1837.5,867.6172,1847.5,871.6172,1843.5,867.6172" style="stroke:#181818;stroke-width:1.0;"/><text fill="#000000" font-family="sans-serif" font-size="13" font-weight="bold" lengthAdjust="spacing" textLength="14" x="1849.5" y="849.7607">15</text><text fill="#000000" font-family="sans-serif" font-size="13" lengthAdjust="spacing" textLength="181" x="1867.5" y="849.7607">save(rawDevice): deviceCreated</text><polygon fill="#181818" points="1314,888.9688,1324,892.9688,1314,896.9688,1318,892.9688" style="stroke:#181818;stroke-width:1.0;"/><line style="stroke:#181818;stroke-width:1.0;" x1="1098" x2="1320" y1="892.9688" y2="892.9688"/><text fill="#000000" font-family="sans-serif" font-size="13" font-weight="bold" lengthAdjust="spacing" textLength="14" x="1105" y="888.1123">16</text><text fill="#000000" font-family="sans-serif" font-size="13" lengthAdjust="spacing" textLength="144" x="1123" y="888.1123">toDomain(deviceCreated)</text><polygon fill="#181818" points="2276.5,919.3203,2286.5,923.3203,2276.5,927.3203,2280.5,923.3203" style="stroke:#181818;stroke-width:1.0;"/><line style="stroke:#181818;stroke-width:1.0;stroke-dasharray:2.0,2.0;" x1="1331" x2="2282.5" y1="923.3203" y2="923.3203"/><text fill="#000000" font-family="sans-serif" font-size="13" font-weight="bold" lengthAdjust="spacing" textLength="14" x="1338" y="918.4639">17</text><text fill="#000000" font-family="sans-serif" font-size="13" lengthAdjust="spacing" textLength="44" x="1356" y="918.4639">create()</text><rect fill="#E3E3E3" height="66.8281" rx="2.5" ry="2.5" style="stroke:#181818;stroke-width:0.5;" width="103" x="2288.5" y="900.9688"/><text fill="#000000" font-family="sans-serif" font-size="14" font-style="italic" lengthAdjust="spacing" textLength="64" x="2308" y="922.502">«Domain»</text><text fill="#000000" font-family="sans-serif" font-size="14" lengthAdjust="spacing" textLength="89" x="2295.5" y="940.1113">deviceResult :</text><text fill="#000000" font-family="sans-serif" font-size="14" lengthAdjust="spacing" textLength="43" x="2320.5" y="957.7207">Device</text><polygon fill="#181818" points="1314,997.1484,1324,1001.1484,1314,1005.1484,1318,1001.1484" style="stroke:#181818;stroke-width:1.0;"/><line style="stroke:#181818;stroke-width:1.0;" x1="757.5" x2="1320" y1="1001.1484" y2="1001.1484"/><text fill="#000000" font-family="sans-serif" font-size="13" font-weight="bold" lengthAdjust="spacing" textLength="14" x="764.5" y="996.292">18</text><text fill="#000000" font-family="sans-serif" font-size="13" lengthAdjust="spacing" textLength="122" x="782.5" y="996.292">toDTO(deviceResult):</text><polygon fill="#181818" points="961.5,1027.5,951.5,1031.5,961.5,1035.5,957.5,1031.5" style="stroke:#181818;stroke-width:1.0;"/><line style="stroke:#181818;stroke-width:1.0;stroke-dasharray:2.0,2.0;" x1="955.5" x2="1330" y1="1031.5" y2="1031.5"/><text fill="#000000" font-family="sans-serif" font-size="13" font-weight="bold" lengthAdjust="spacing" textLength="14" x="967.5" y="1026.6436">19</text><text fill="#000000" font-family="sans-serif" font-size="13" lengthAdjust="spacing" textLength="44" x="985.5" y="1026.6436">create()</text><rect fill="#E3E3E3" height="66.8281" rx="2.5" ry="2.5" style="stroke:#181818;stroke-width:0.5;" width="133" x="817.5" y="1009.1484"/><text fill="#000000" font-family="sans-serif" font-size="14" font-style="italic" lengthAdjust="spacing" textLength="46" x="861" y="1030.6816">«DTO»</text><text fill="#000000" font-family="sans-serif" font-size="14" lengthAdjust="spacing" textLength="119" x="824.5" y="1048.291">deviceDTOResult :</text><text fill="#000000" font-family="sans-serif" font-size="14" lengthAdjust="spacing" textLength="73" x="849.5" y="1065.9004">DeviceDTO</text><polygon fill="#181818" points="278.5,1105.3281,268.5,1109.3281,278.5,1113.3281,274.5,1109.3281" style="stroke:#181818;stroke-width:1.0;"/><line style="stroke:#181818;stroke-width:1.0;" x1="272.5" x2="460.5" y1="1109.3281" y2="1109.3281"/><text fill="#000000" font-family="sans-serif" font-size="13" font-weight="bold" lengthAdjust="spacing" textLength="14" x="284.5" y="1104.4717">20</text><text fill="#000000" font-family="sans-serif" font-size="13" lengthAdjust="spacing" textLength="53" x="302.5" y="1104.4717">response</text><polygon fill="#181818" points="69.5,1135.6797,59.5,1139.6797,69.5,1143.6797,65.5,1139.6797" style="stroke:#181818;stroke-width:1.0;"/><line style="stroke:#181818;stroke-width:1.0;stroke-dasharray:2.0,2.0;" x1="63.5" x2="261.5" y1="1139.6797" y2="1139.6797"/><text fill="#000000" font-family="sans-serif" font-size="13" font-weight="bold" lengthAdjust="spacing" textLength="14" x="75.5" y="1134.8232">21</text><text fill="#000000" font-family="sans-serif" font-size="13" lengthAdjust="spacing" textLength="152" x="93.5" y="1134.8232">status: 201 device created</text><!--MD5=[3bb48e01c8cdb20a0dcd137acd7fd024]
@startuml
skinparam monochrome true
skinparam packageStyle rectangle
skinparam shadowing false

title Sequence Diagram (SD) Level 3 - US 360
autonumber

actor "Gestor de Frota" as actor
participant deviceRoute as route <<Web>>
control "deviceController :\n deviceController" as controller <<Controllers>>
participant "deviceDTO :\n DeviceDTO" as deviceDTO <<DTO>>
participant "deviceService :\n deviceService" as deviceService <<Use Cases>>
participant "deviceDTOResult :\n DeviceDTO" as deviceDTOResult <<DTO>>
participant "device :\n Device" as device <<Domain>>
database "deviceRepo :\n deviceRepo" as deviceRepo <<Gateways>>
database "deviceTypeRepo :\n deviceTypeRepo" as deviceTypeRepo <<Gateways>>
participant DeviceMapper as deviceMapper <<Mapper>>
participant DeviceTypeMapper as deviceTypeMapper <<Mapper>>
participant "savedDeviceDTO :\n DeviceDTO" as savedDeviceDTO <<DTO>>
participant "rawDevice :\n Device" as deviceData <<Domain>>
participant "deviceSchema :\n deviceSchema" as deviceSchema <<DB>>
participant "deviceTypeSchema :\n deviceTypeSchema" as deviceTypeSchema <<DB>>
participant "deviceTypeResult :\n DeviceType" as deviceTypeResult <<Domain>>
participant "deviceResult :\n Device" as savedDevice <<Domain>>
participant "savedDeviceData :\n Device" as savedDeviceData <<Domain>>

activate actor

    actor -> route : Post(../Device)
    activate route

        route -> controller : createDevice(req, res, next)
            activate controller

            controller -> deviceMapper : toDTO(req.body)
            activate deviceMapper
                deviceMapper - -> deviceDTO** : create()
            deactivate deviceMapper

           
            controller - -> deviceService : createDevice(deviceDTO): deviceDTOResult
            activate deviceService
            deviceService -> deviceTypeRepo: getType(id): deviceTypeResult
            activate deviceTypeRepo
            deviceTypeRepo -> deviceTypeSchema: findById(): document
            activate deviceTypeSchema
            deactivate deviceTypeSchema
            deviceTypeRepo -> deviceTypeMapper: toDomain(document)
            activate deviceTypeMapper
            
            deactivate deviceTypeRepo
            deviceTypeMapper -> deviceTypeResult**: create()
            deactivate deviceTypeMapper
                deviceService - -> device** : create(deviceDTO)

                deviceService -> deviceRepo : save(device): deviceResult
                activate deviceRepo
                    deviceRepo -> deviceMapper : toPersistence(device)
                    activate deviceMapper
                        
                        deviceMapper - -> deviceData** : create()
                    deactivate deviceMapper

                    deviceRepo -> deviceSchema : create(rawDevice)
                    activate deviceSchema
                    deviceSchema -> deviceSchema: save(rawDevice): deviceCreated
                    deactivate deviceSchema
                    
                    deviceRepo -> deviceMapper : toDomain(deviceCreated)
                    activate deviceMapper
                        deviceMapper - -> savedDevice**: create()
                    deactivate deviceMapper
                deactivate deviceRepo

                deviceService -> deviceMapper :toDTO(deviceResult): 
                activate deviceMapper
                deviceMapper - -> deviceDTOResult**: create()
                deactivate deviceMapper

            deactivate deviceService

            controller -> route : response
        deactivate controller
        route - -> actor : status: 201 device created
    deactivate route
deactivate actor

@enduml

PlantUML version 1.2022.7(Mon Aug 22 18:01:30 WEST 2022)
(GPL source distribution)
Java Runtime: OpenJDK Runtime Environment
JVM: OpenJDK 64-Bit Server VM
Default Encoding: UTF-8
Language: en
Country: GB
--></g></svg>