<?xml version="1.0" encoding="UTF-8" standalone="no"?><svg xmlns="http://www.w3.org/2000/svg" xmlns:xlink="http://www.w3.org/1999/xlink" contentStyleType="text/css" height="284px" preserveAspectRatio="none" style="width:320px;height:284px;background:#FFFFFF;" version="1.1" viewBox="0 0 320 284" width="320px" zoomAndPan="magnify"><defs/><g><rect fill="none" height="27.6094" id="_title" style="stroke:none;stroke-width:1.0;" width="302" x="5" y="10"/><text fill="#000000" font-family="sans-serif" font-size="14" font-weight="bold" lengthAdjust="spacing" textLength="292" x="10" y="29.5332">System Sequence Diagram (SSD)  - US 360</text><rect fill="#FFFFFF" height="52.7031" style="stroke:#181818;stroke-width:1.0;" width="10" x="69.75" y="131.2188"/><rect fill="#FFFFFF" height="30.3516" style="stroke:#181818;stroke-width:1.0;" width="10" x="233.75" y="153.5703"/><line style="stroke:#181818;stroke-width:0.5;stroke-dasharray:5.0,5.0;" x1="74.25" x2="74.25" y1="121.2188" y2="201.9219"/><line style="stroke:#181818;stroke-width:0.5;stroke-dasharray:5.0,5.0;" x1="238.75" x2="238.75" y1="121.2188" y2="201.9219"/><text fill="#000000" font-family="sans-serif" font-size="14" lengthAdjust="spacing" textLength="101" x="21.25" y="118.1426">Gestor de Frota</text><ellipse cx="74.75" cy="52.1094" fill="#E3E3E3" rx="8" ry="8" style="stroke:#181818;stroke-width:0.5;"/><path d="M74.75,60.1094 L74.75,87.1094 M61.75,68.1094 L87.75,68.1094 M74.75,87.1094 L61.75,102.1094 M74.75,87.1094 L87.75,102.1094 " fill="none" style="stroke:#181818;stroke-width:0.5;"/><text fill="#000000" font-family="sans-serif" font-size="14" lengthAdjust="spacing" textLength="101" x="21.25" y="215.4551">Gestor de Frota</text><ellipse cx="74.75" cy="227.0313" fill="#E3E3E3" rx="8" ry="8" style="stroke:#181818;stroke-width:0.5;"/><path d="M74.75,235.0313 L74.75,262.0313 M61.75,243.0313 L87.75,243.0313 M74.75,262.0313 L61.75,277.0313 M74.75,262.0313 L87.75,277.0313 " fill="none" style="stroke:#181818;stroke-width:0.5;"/><rect fill="#E3E3E3" height="49.2188" rx="2.5" ry="2.5" style="stroke:#181818;stroke-width:0.5;" width="106" x="185.75" y="71"/><text fill="#000000" font-family="sans-serif" font-size="14" font-style="italic" lengthAdjust="spacing" textLength="92" x="192.75" y="92.5332">«system (C4)»</text><text fill="#000000" font-family="sans-serif" font-size="14" lengthAdjust="spacing" textLength="84" x="196.75" y="110.1426">RobDroneGo</text><rect fill="#E3E3E3" height="49.2188" rx="2.5" ry="2.5" style="stroke:#181818;stroke-width:0.5;" width="106" x="185.75" y="200.9219"/><text fill="#000000" font-family="sans-serif" font-size="14" font-style="italic" lengthAdjust="spacing" textLength="92" x="192.75" y="222.4551">«system (C4)»</text><text fill="#000000" font-family="sans-serif" font-size="14" lengthAdjust="spacing" textLength="84" x="196.75" y="240.0645">RobDroneGo</text><rect fill="#FFFFFF" height="52.7031" style="stroke:#181818;stroke-width:1.0;" width="10" x="69.75" y="131.2188"/><rect fill="#FFFFFF" height="30.3516" style="stroke:#181818;stroke-width:1.0;" width="10" x="233.75" y="153.5703"/><polygon fill="#181818" points="221.75,149.5703,231.75,153.5703,221.75,157.5703,225.75,153.5703" style="stroke:#181818;stroke-width:1.0;"/><line style="stroke:#181818;stroke-width:1.0;" x1="79.75" x2="227.75" y1="153.5703" y2="153.5703"/><text fill="#000000" font-family="sans-serif" font-size="13" font-weight="bold" lengthAdjust="spacing" textLength="7" x="86.75" y="148.7139">1</text><text fill="#000000" font-family="sans-serif" font-size="13" lengthAdjust="spacing" textLength="102" x="97.75" y="148.7139">POST (../devices)</text><polygon fill="#181818" points="85.75,179.9219,75.75,183.9219,85.75,187.9219,81.75,183.9219" style="stroke:#181818;stroke-width:1.0;"/><line style="stroke:#181818;stroke-width:1.0;" x1="79.75" x2="237.75" y1="183.9219" y2="183.9219"/><text fill="#000000" font-family="sans-serif" font-size="13" font-weight="bold" lengthAdjust="spacing" textLength="7" x="91.75" y="179.0654">2</text><text fill="#000000" font-family="sans-serif" font-size="13" lengthAdjust="spacing" textLength="119" x="102.75" y="179.0654">mostra device criado</text><!--MD5=[0c3320709fd4604eb380ba2bf6b2e4bf]
@startuml
skinparam monochrome true
skinparam packageStyle rectangle
skinparam shadowing false
autonumber

title System Sequence Diagram (SSD)  - US 360


actor "Gestor de Frota" as actor
participant "RobDroneGo" as sys <<system (C4)>>

activate actor
actor -> sys: POST (../devices)

activate sys
sys -> actor: mostra device criado
deactivate sys
deactivate actor



@enduml

PlantUML version 1.2022.7(Mon Aug 22 18:01:30 WEST 2022)
(GPL source distribution)
Java Runtime: OpenJDK Runtime Environment
JVM: OpenJDK 64-Bit Server VM
Default Encoding: UTF-8
Language: en
Country: GB
--></g></svg>