<?xml version="1.0" encoding="UTF-8" standalone="no"?><svg xmlns="http://www.w3.org/2000/svg" xmlns:xlink="http://www.w3.org/1999/xlink" contentStyleType="text/css" height="427px" preserveAspectRatio="none" style="width:436px;height:427px;background:#FFFFFF;" version="1.1" viewBox="0 0 436 427" width="436px" zoomAndPan="magnify"><defs/><g><rect fill="none" height="27.6094" id="_title" style="stroke:none;stroke-width:1.0;" width="353" x="42.5" y="10"/><text fill="#000000" font-family="sans-serif" font-size="14" font-weight="bold" lengthAdjust="spacing" textLength="343" x="47.5" y="29.5332">System Sequence Diagram (SSD) Level 2 - US 360</text><rect fill="#FFFFFF" height="159.7578" style="stroke:#181818;stroke-width:1.0;" width="10" x="147" y="126.1797"/><rect fill="#FFFFFF" height="30.3516" style="stroke:#181818;stroke-width:1.0;" width="10" x="147" y="318.2891"/><rect fill="#FFFFFF" height="161.7578" style="stroke:#181818;stroke-width:1.0;" width="10" x="319" y="156.5313"/><rect fill="none" height="185.1094" style="stroke:#000000;stroke-width:1.5;" width="426" x="3" y="171.5313"/><line style="stroke:#181818;stroke-width:0.5;stroke-dasharray:5.0,5.0;" x1="152" x2="152" y1="93.8281" y2="373.6406"/><line style="stroke:#181818;stroke-width:0.5;stroke-dasharray:5.0,5.0;" x1="324" x2="324" y1="93.8281" y2="373.6406"/><rect fill="#E3E3E3" height="49.2188" rx="2.5" ry="2.5" style="stroke:#181818;stroke-width:0.5;" width="106" x="99" y="43.6094"/><text fill="#000000" font-family="sans-serif" font-size="14" font-style="italic" lengthAdjust="spacing" textLength="92" x="106" y="65.1426">«system (C4)»</text><text fill="#000000" font-family="sans-serif" font-size="14" lengthAdjust="spacing" textLength="84" x="110" y="82.752">RobDroneGo</text><rect fill="#E3E3E3" height="49.2188" rx="2.5" ry="2.5" style="stroke:#181818;stroke-width:0.5;" width="106" x="99" y="372.6406"/><text fill="#000000" font-family="sans-serif" font-size="14" font-style="italic" lengthAdjust="spacing" textLength="92" x="106" y="394.1738">«system (C4)»</text><text fill="#000000" font-family="sans-serif" font-size="14" lengthAdjust="spacing" textLength="84" x="110" y="411.7832">RobDroneGo</text><rect fill="#E3E3E3" height="49.2188" rx="2.5" ry="2.5" style="stroke:#181818;stroke-width:0.5;" width="106" x="271" y="43.6094"/><text fill="#000000" font-family="sans-serif" font-size="14" font-style="italic" lengthAdjust="spacing" textLength="92" x="278" y="65.1426">«system (C4)»</text><text fill="#000000" font-family="sans-serif" font-size="14" lengthAdjust="spacing" textLength="21" x="313.5" y="82.752">MD</text><rect fill="#E3E3E3" height="49.2188" rx="2.5" ry="2.5" style="stroke:#181818;stroke-width:0.5;" width="106" x="271" y="372.6406"/><text fill="#000000" font-family="sans-serif" font-size="14" font-style="italic" lengthAdjust="spacing" textLength="92" x="278" y="394.1738">«system (C4)»</text><text fill="#000000" font-family="sans-serif" font-size="14" lengthAdjust="spacing" textLength="21" x="313.5" y="411.7832">MD</text><rect fill="#FFFFFF" height="159.7578" style="stroke:#181818;stroke-width:1.0;" width="10" x="147" y="126.1797"/><rect fill="#FFFFFF" height="30.3516" style="stroke:#181818;stroke-width:1.0;" width="10" x="147" y="318.2891"/><rect fill="#FFFFFF" height="161.7578" style="stroke:#181818;stroke-width:1.0;" width="10" x="319" y="156.5313"/><ellipse cx="11.5" cy="125.4297" fill="none" rx="4" ry="4" style="stroke:#181818;stroke-width:1.5;"/><polygon fill="#181818" points="135,122.1797,145,126.1797,135,130.1797,139,126.1797" style="stroke:#181818;stroke-width:1.0;"/><line style="stroke:#181818;stroke-width:1.0;" x1="16" x2="141" y1="126.1797" y2="126.1797"/><text fill="#000000" font-family="sans-serif" font-size="13" font-weight="bold" lengthAdjust="spacing" textLength="7" x="19" y="121.3232">1</text><text fill="#000000" font-family="sans-serif" font-size="13" lengthAdjust="spacing" textLength="102" x="30" y="121.3232">POST (../devices)</text><polygon fill="#181818" points="307,152.5313,317,156.5313,307,160.5313,311,156.5313" style="stroke:#181818;stroke-width:1.0;"/><line style="stroke:#181818;stroke-width:1.0;" x1="157" x2="313" y1="156.5313" y2="156.5313"/><text fill="#000000" font-family="sans-serif" font-size="13" font-weight="bold" lengthAdjust="spacing" textLength="7" x="164" y="151.6748">2</text><text fill="#000000" font-family="sans-serif" font-size="13" lengthAdjust="spacing" textLength="132" x="175" y="151.6748">createDevice(req.body)</text><path d="M3,171.5313 L64,171.5313 L64,179.8828 L54,189.8828 L3,189.8828 L3,171.5313 " fill="#EEEEEE" style="stroke:#000000;stroke-width:1.5;"/><rect fill="none" height="185.1094" style="stroke:#000000;stroke-width:1.5;" width="426" x="3" y="171.5313"/><text fill="#000000" font-family="sans-serif" font-size="13" font-weight="bold" lengthAdjust="spacing" textLength="16" x="18" y="186.0264">alt</text><line style="stroke:#181818;stroke-width:1.0;" x1="329" x2="371" y1="212.2344" y2="212.2344"/><line style="stroke:#181818;stroke-width:1.0;" x1="371" x2="371" y1="212.2344" y2="225.2344"/><line style="stroke:#181818;stroke-width:1.0;" x1="330" x2="371" y1="225.2344" y2="225.2344"/><polygon fill="#181818" points="340,221.2344,330,225.2344,340,229.2344,336,225.2344" style="stroke:#181818;stroke-width:1.0;"/><text fill="#000000" font-family="sans-serif" font-size="13" font-weight="bold" lengthAdjust="spacing" textLength="7" x="336" y="207.3779">3</text><text fill="#000000" font-family="sans-serif" font-size="13" lengthAdjust="spacing" textLength="70" x="347" y="207.3779">save(device)</text><polygon fill="#181818" points="168,251.5859,158,255.5859,168,259.5859,164,255.5859" style="stroke:#181818;stroke-width:1.0;"/><line style="stroke:#181818;stroke-width:1.0;stroke-dasharray:2.0,2.0;" x1="162" x2="318" y1="255.5859" y2="255.5859"/><text fill="#000000" font-family="sans-serif" font-size="13" font-weight="bold" lengthAdjust="spacing" textLength="7" x="174" y="250.7295">4</text><text fill="#000000" font-family="sans-serif" font-size="13" lengthAdjust="spacing" textLength="65" x="185" y="250.7295">status: 201</text><polygon fill="#181818" points="11,281.9375,1,285.9375,11,289.9375,7,285.9375" style="stroke:#181818;stroke-width:1.0;"/><line style="stroke:#181818;stroke-width:1.0;stroke-dasharray:2.0,2.0;" x1="5" x2="151" y1="285.9375" y2="285.9375"/><text fill="#000000" font-family="sans-serif" font-size="13" font-weight="bold" lengthAdjust="spacing" textLength="7" x="17" y="281.0811">5</text><text fill="#000000" font-family="sans-serif" font-size="13" lengthAdjust="spacing" textLength="77" x="28" y="281.0811">Device criado</text><line style="stroke:#000000;stroke-width:1.0;stroke-dasharray:2.0,2.0;" x1="3" x2="429" y1="294.9375" y2="294.9375"/><polygon fill="#181818" points="168,314.2891,158,318.2891,168,322.2891,164,318.2891" style="stroke:#181818;stroke-width:1.0;"/><line style="stroke:#181818;stroke-width:1.0;stroke-dasharray:2.0,2.0;" x1="162" x2="323" y1="318.2891" y2="318.2891"/><text fill="#000000" font-family="sans-serif" font-size="13" font-weight="bold" lengthAdjust="spacing" textLength="7" x="174" y="313.4326">6</text><text fill="#000000" font-family="sans-serif" font-size="13" lengthAdjust="spacing" textLength="65" x="185" y="313.4326">status: 400</text><polygon fill="#181818" points="11,344.6406,1,348.6406,11,352.6406,7,348.6406" style="stroke:#181818;stroke-width:1.0;"/><line style="stroke:#181818;stroke-width:1.0;stroke-dasharray:2.0,2.0;" x1="5" x2="151" y1="348.6406" y2="348.6406"/><text fill="#000000" font-family="sans-serif" font-size="13" font-weight="bold" lengthAdjust="spacing" textLength="7" x="17" y="343.7842">7</text><text fill="#000000" font-family="sans-serif" font-size="13" lengthAdjust="spacing" textLength="88" x="28" y="343.7842">Erro nos dados</text><!--MD5=[abf5d430fbac282864dbbd0250c38760]
@startuml
skinparam monochrome true
skinparam packageStyle rectangle
skinparam shadowing false
autonumber

title System Sequence Diagram (SSD) Level 2 - US 360


participant "RobDroneGo" as Sistema <<system (C4)>>
participant "MD" as MD <<system (C4)>>

?o-> Sistema : POST (../devices)
activate Sistema

Sistema -> MD : createDevice(req.body)

alt
    activate MD
    MD -> MD: save(device)
    MD - -> Sistema : status: 201
    <- - Sistema : Device criado
    deactivate Sistema
else
    MD - -> Sistema : status: 400
    deactivate MD
    activate Sistema
    <- - Sistema : Erro nos dados
    deactivate Sistema
end



@enduml

PlantUML version 1.2022.7(Mon Aug 22 18:01:30 WEST 2022)
(GPL source distribution)
Java Runtime: OpenJDK Runtime Environment
JVM: OpenJDK 64-Bit Server VM
Default Encoding: UTF-8
Language: en
Country: GB
--></g></svg>