<?xml version="1.0" encoding="us-ascii" standalone="no"?><svg xmlns="http://www.w3.org/2000/svg" xmlns:xlink="http://www.w3.org/1999/xlink" contentStyleType="text/css" height="2349px" preserveAspectRatio="none" style="width:1092px;height:2349px;background:#FFFFFF;" version="1.1" viewBox="0 0 1092 2349" width="1092px" zoomAndPan="magnify"><defs/><g><!--cluster RobDroneGo--><g id="cluster_RobDroneGo"><path d="M171.5,6.0137 L263.5,6.0137 A3.75,3.75 0 0 1 266,8.5137 L273,30.6348 L1082.5,30.6348 A2.5,2.5 0 0 1 1085,33.1348 L1085,2339.5137 A2.5,2.5 0 0 1 1082.5,2342.0137 L171.5,2342.0137 A2.5,2.5 0 0 1 169,2339.5137 L169,8.5137 A2.5,2.5 0 0 1 171.5,6.0137 " fill="none" style="stroke:#000000;stroke-width:1.5;"/><line style="stroke:#000000;stroke-width:1.5;" x1="169" x2="273" y1="30.6348" y2="30.6348"/><text fill="#000000" font-family="sans-serif" font-size="14" font-weight="bold" lengthAdjust="spacing" textLength="91" x="173" y="23.1211">RobDroneGo</text></g><g id="elem_UC150"><ellipse cx="626.8534" cy="63.0844" fill="#F1F1F1" rx="88.3534" ry="20.0707" style="stroke:#181818;stroke-width:0.5;"/><text fill="#000000" font-family="sans-serif" font-size="14" lengthAdjust="spacing" textLength="130" x="558.8534" y="67.8881">UC150: Criar edif&#237;cio</text></g><g id="elem_UC160"><ellipse cx="626.7622" cy="139.0661" fill="#F1F1F1" rx="90.7622" ry="20.5524" style="stroke:#181818;stroke-width:0.5;"/><text fill="#000000" font-family="sans-serif" font-size="14" lengthAdjust="spacing" textLength="136" x="555.7622" y="143.8698">UC160: Editar edif&#237;cio</text></g><g id="elem_UC170"><ellipse cx="626.8144" cy="221.0765" fill="#F1F1F1" rx="118.3144" ry="26.0629" style="stroke:#181818;stroke-width:0.5;"/><text fill="#000000" font-family="sans-serif" font-size="14" lengthAdjust="spacing" textLength="199" x="527.3144" y="224.8734">UC170: Listar todos os edif&#237;cios</text></g><g id="elem_UC180"><ellipse cx="626.9039" cy="317.0944" fill="#F1F1F1" rx="163.4039" ry="35.0808" style="stroke:#181818;stroke-width:0.5;"/><text fill="#000000" font-family="sans-serif" font-size="14" lengthAdjust="spacing" textLength="295" x="479.4039" y="320.8913">UC180: Listar edif&#237;cios com min e max de pisos</text></g><g id="elem_UC190"><ellipse cx="627.1919" cy="411.852" fill="#F1F1F1" rx="109.6919" ry="24.3384" style="stroke:#181818;stroke-width:0.5;"/><text fill="#000000" font-family="sans-serif" font-size="14" lengthAdjust="spacing" textLength="180" x="537.1919" y="415.6489">UC190: Criar piso de edif&#237;cio</text></g><g id="elem_UC200"><ellipse cx="627.2422" cy="505.1621" fill="#F1F1F1" rx="156.2422" ry="33.6484" style="stroke:#181818;stroke-width:0.5;"/><text fill="#000000" font-family="sans-serif" font-size="14" lengthAdjust="spacing" textLength="280" x="487.2422" y="508.959">UC200: Editar informa&#231;&#227;o de piso de edif&#237;cio</text></g><g id="elem_UC210"><ellipse cx="626.9361" cy="606.9009" fill="#F1F1F1" rx="152.4361" ry="32.8872" style="stroke:#181818;stroke-width:0.5;"/><text fill="#000000" font-family="sans-serif" font-size="14" lengthAdjust="spacing" textLength="272" x="490.9361" y="610.6978">UC210: Listar todos os pisos de um edif&#237;cio</text></g><g id="elem_UC220"><ellipse cx="626.9373" cy="722.9011" fill="#F1F1F1" rx="224.9373" ry="47.3875" style="stroke:#181818;stroke-width:0.5;"/><text fill="#000000" font-family="sans-serif" font-size="14" lengthAdjust="spacing" textLength="422" x="415.9373" y="726.698">UC220: Listar pisos de edif&#237;cio com passagem para outros edif&#237;cios</text></g><g id="elem_UC230"><ellipse cx="626.9002" cy="831.8937" fill="#F1F1F1" rx="117.4002" ry="25.88" style="stroke:#181818;stroke-width:0.5;"/><text fill="#000000" font-family="sans-serif" font-size="14" lengthAdjust="spacing" textLength="197" x="528.4002" y="835.6906">UC230: Carregar mapa de piso</text></g><g id="elem_UC240"><ellipse cx="627.2329" cy="923.1602" fill="#F1F1F1" rx="138.7329" ry="30.1466" style="stroke:#181818;stroke-width:0.5;"/><text fill="#000000" font-family="sans-serif" font-size="14" lengthAdjust="spacing" textLength="243" x="505.7329" y="926.9571">UC240: Criar passagem entre edif&#237;cios</text></g><g id="elem_UC250"><ellipse cx="627.0547" cy="1019.2246" fill="#F1F1F1" rx="141.5547" ry="30.7109" style="stroke:#181818;stroke-width:0.5;"/><text fill="#000000" font-family="sans-serif" font-size="14" lengthAdjust="spacing" textLength="249" x="502.5547" y="1023.0215">UC250: Editar passagem entre edif&#237;cios</text></g><g id="elem_UC260"><ellipse cx="627.1668" cy="1117.047" fill="#F1F1F1" rx="148.1668" ry="32.0334" style="stroke:#181818;stroke-width:0.5;"/><text fill="#000000" font-family="sans-serif" font-size="14" lengthAdjust="spacing" textLength="263" x="495.6668" y="1120.8439">UC260: Listar passagens entre 2 edif&#237;cios</text></g><g id="elem_UC270"><ellipse cx="626.7896" cy="1211.7716" fill="#F1F1F1" rx="124.2896" ry="27.2579" style="stroke:#181818;stroke-width:0.5;"/><text fill="#000000" font-family="sans-serif" font-size="14" lengthAdjust="spacing" textLength="212" x="520.7896" y="1215.5685">UC270: Criar elevador em edif&#237;cio</text></g><g id="elem_UC280"><ellipse cx="627.0651" cy="1302.8267" fill="#F1F1F1" rx="127.0651" ry="27.813" style="stroke:#181818;stroke-width:0.5;"/><text fill="#000000" font-family="sans-serif" font-size="14" lengthAdjust="spacing" textLength="218" x="518.0651" y="1306.6236">UC280: Editar elevador em edif&#237;cio</text></g><g id="elem_UC290"><ellipse cx="627.1131" cy="1395.0363" fill="#F1F1F1" rx="133.1131" ry="29.0226" style="stroke:#181818;stroke-width:0.5;"/><text fill="#000000" font-family="sans-serif" font-size="14" lengthAdjust="spacing" textLength="231" x="511.6131" y="1398.8332">UC290: Listar elevadores em edif&#237;cio</text></g><g id="elem_UC300"><ellipse cx="627.1885" cy="1498.1514" fill="#F1F1F1" rx="181.1885" ry="38.6377" style="stroke:#181818;stroke-width:0.5;"/><text fill="#000000" font-family="sans-serif" font-size="14" lengthAdjust="spacing" textLength="332" x="461.1885" y="1501.9483">UC300: Listar pisos de edif&#237;cio servidos por elevador</text></g><g id="elem_UC310"><ellipse cx="627.1463" cy="1600.9429" fill="#F1F1F1" rx="132.6463" ry="28.9293" style="stroke:#181818;stroke-width:0.5;"/><text fill="#000000" font-family="sans-serif" font-size="14" lengthAdjust="spacing" textLength="230" x="512.1463" y="1604.7398">UC310: Criar sala de piso de edif&#237;cio</text></g><g id="elem_UC350"><ellipse cx="626.9754" cy="1755.8088" fill="#F1F1F1" rx="441.9754" ry="90.7951" style="stroke:#181818;stroke-width:0.5;"/><text fill="#000000" font-family="sans-serif" font-size="14" lengthAdjust="spacing" textLength="861" x="196.4754" y="1759.6056">UC350: Adicionar um novo tipo de robot indicando a sua designa&#231;&#227;o e que tipos de tarefas pode executar da lista pr&#233;definida de tarefas</text></g><g id="elem_UC360"><ellipse cx="626.7555" cy="1936.8648" fill="#F1F1F1" rx="259.7555" ry="54.3511" style="stroke:#181818;stroke-width:0.5;"/><text fill="#000000" font-family="sans-serif" font-size="14" lengthAdjust="spacing" textLength="493" x="380.2555" y="1940.6617">UC360: Adicionar um novo robot &#224; frota indicando o seu tipo, designa&#231;&#227;o, etc.</text></g><g id="elem_UC370"><ellipse cx="626.7968" cy="2047.973" fill="#F1F1F1" rx="92.7968" ry="20.9594" style="stroke:#181818;stroke-width:0.5;"/><text fill="#000000" font-family="sans-serif" font-size="14" lengthAdjust="spacing" textLength="141" x="553.2968" y="2052.7767">UC370: Inibir um robot</text></g><g id="elem_UC380"><ellipse cx="627.0626" cy="2136.9262" fill="#F1F1F1" rx="150.0626" ry="32.4125" style="stroke:#181818;stroke-width:0.5;"/><text fill="#000000" font-family="sans-serif" font-size="14" lengthAdjust="spacing" textLength="267" x="493.5626" y="2140.7231">UC380: Consultar todos os robots da frota</text></g><g id="elem_UC390"><ellipse cx="626.8033" cy="2264.8743" fill="#F1F1F1" rx="289.8033" ry="60.3607" style="stroke:#181818;stroke-width:0.5;"/><text fill="#000000" font-family="sans-serif" font-size="14" lengthAdjust="spacing" textLength="554" x="349.8033" y="2268.6712">UC390: Pesquisar todos os robots da frota por designa&#231;&#227;o ou tarefa que pode executar</text></g><!--entity campus--><g id="elem_campus"><ellipse cx="65.5" cy="801.0137" fill="#F1F1F1" rx="8" ry="8" style="stroke:#181818;stroke-width:0.5;"/><path d="M65.5,809.0137 L65.5,836.0137 M52.5,817.0137 L78.5,817.0137 M65.5,836.0137 L52.5,851.0137 M65.5,836.0137 L78.5,851.0137 " fill="none" style="stroke:#181818;stroke-width:0.5;"/><text fill="#000000" font-family="sans-serif" font-size="14" lengthAdjust="spacing" textLength="119" x="6" y="867.6211">Gestor de Campus</text></g><!--entity frota--><g id="elem_frota"><ellipse cx="65.5" cy="2017.0137" fill="#F1F1F1" rx="8" ry="8" style="stroke:#181818;stroke-width:0.5;"/><path d="M65.5,2025.0137 L65.5,2052.0137 M52.5,2033.0137 L78.5,2033.0137 M65.5,2052.0137 L52.5,2067.0137 M65.5,2052.0137 L78.5,2067.0137 " fill="none" style="stroke:#181818;stroke-width:0.5;"/><text fill="#000000" font-family="sans-serif" font-size="14" lengthAdjust="spacing" textLength="101" x="15" y="2083.6211">Gestor de Frota</text></g><!--link campus to UC150--><g id="link_campus_UC150"><path d="M68.76,792.1637 C77.42,646.5337 110.48,149.2137 161,101.0137 C213.74,50.6937 422.21,52.3537 541.33,57.7637 " fill="none" id="campus-UC150" style="stroke:#181818;stroke-width:1.0;"/></g><!--link campus to UC160--><g id="link_campus_UC160"><path d="M66.07,792.1637 C65.56,663.2937 71.33,261.3137 161,177.0137 C271.65,72.9937 469.66,100.9637 567.71,123.3737 " fill="none" id="campus-UC160" style="stroke:#181818;stroke-width:1.0;"/></g><!--link campus to UC170--><g id="link_campus_UC170"><path d="M67.07,792.1937 C69.65,675.1237 83.77,335.8337 161,264.0137 C264.46,167.8137 442.51,182.6537 545.68,201.9337 " fill="none" id="campus-UC170" style="stroke:#181818;stroke-width:1.0;"/></g><!--link campus to UC180--><g id="link_campus_UC180"><path d="M68.81,792.1737 C75.57,690.7637 98.88,426.8837 161,370.0137 C251.5,287.1737 397.02,283.6137 501.16,294.6337 " fill="none" id="campus-UC180" style="stroke:#181818;stroke-width:1.0;"/></g><!--link campus to UC190--><g id="link_campus_UC190"><path d="M70.67,792.3037 C80.77,704.4837 109.55,498.0537 161,454.0137 C269.38,361.2437 448.52,376.1837 549.9,394.5737 " fill="none" id="campus-UC190" style="stroke:#181818;stroke-width:1.0;"/></g><!--link campus to UC200--><g id="link_campus_UC200"><path d="M67.47,792.3737 C71.31,731.0337 88.35,614.1737 161,556.0137 C256.18,479.8137 399.64,475.4537 502.02,484.8737 " fill="none" id="campus-UC200" style="stroke:#181818;stroke-width:1.0;"/></g><!--link campus to UC210--><g id="link_campus_UC210"><path d="M76.43,792.1737 C88.89,751.2437 114.48,689.2437 161,658.0137 C258.85,592.3137 395.2,584.7137 494.95,590.4537 " fill="none" id="campus-UC210" style="stroke:#181818;stroke-width:1.0;"/></g><!--link campus to UC220--><g id="link_campus_UC220"><path d="M125.19,801.4337 C136.82,796.3137 149.11,791.5237 161,788.0137 C242.4,763.9637 334.51,748.7237 415.15,739.1037 " fill="none" id="campus-UC220" style="stroke:#181818;stroke-width:1.0;"/></g><!--link campus to UC230--><g id="link_campus_UC230"><path d="M125.06,832.0137 C215.78,832.0137 392.06,832.0137 509.43,832.0137 " fill="none" id="campus-UC230" style="stroke:#181818;stroke-width:1.0;"/></g><!--link campus to UC240--><g id="link_campus_UC240"><path d="M125.15,862.2237 C136.78,867.2037 149.08,871.7837 161,875.0137 C268.8,904.2637 395.08,915.9337 488.82,920.4737 " fill="none" id="campus-UC240" style="stroke:#181818;stroke-width:1.0;"/></g><!--link campus to UC250--><g id="link_campus_UC250"><path d="M82.3,871.6037 C97.4,903.8737 123.46,947.6337 161,970.0137 C263.75,1031.2837 402.31,1038.2437 501.39,1033.1237 " fill="none" id="campus-UC250" style="stroke:#181818;stroke-width:1.0;"/></g><!--link campus to UC260--><g id="link_campus_UC260"><path d="M70.21,871.9237 C77.52,925.6837 98.93,1020.0437 161,1067.0137 C259.5,1141.5437 405.13,1145.1537 507.1,1135.8137 " fill="none" id="campus-UC260" style="stroke:#181818;stroke-width:1.0;"/></g><!--link campus to UC270--><g id="link_campus_UC270"><path d="M72.08,871.5937 C84.22,951.5637 115.59,1128.0137 161,1166.0137 C265.2,1253.2237 432.12,1246.0037 535.07,1230.5937 " fill="none" id="campus-UC270" style="stroke:#181818;stroke-width:1.0;"/></g><!--link campus to UC280--><g id="link_campus_UC280"><path d="M69.5,871.5137 C77.62,966.9437 103.38,1205.9337 161,1257.0137 C262.98,1347.4237 431.37,1338.9837 535.09,1322.4937 " fill="none" id="campus-UC280" style="stroke:#181818;stroke-width:1.0;"/></g><!--link campus to UC290--><g id="link_campus_UC290"><path d="M67.83,871.6737 C72.38,981.1137 91.14,1283.5537 161,1348.0137 C260.29,1439.6237 427.13,1431.9537 531.64,1415.3937 " fill="none" id="campus-UC290" style="stroke:#181818;stroke-width:1.0;"/></g><!--link campus to UC300--><g id="link_campus_UC300"><path d="M66.68,871.9437 C68.14,994.5137 79.34,1361.9237 161,1441.0137 C244.84,1522.2137 380.79,1530.2937 484.1,1521.7037 " fill="none" id="campus-UC300" style="stroke:#181818;stroke-width:1.0;"/></g><!--link campus to UC310--><g id="link_campus_UC310"><path d="M68.86,871.8437 C77.8,1016.2037 111.57,1506.0137 161,1554.0137 C258.94,1649.1137 429,1639.5137 534.07,1621.7537 " fill="none" id="campus-UC310" style="stroke:#181818;stroke-width:1.0;"/></g><!--link frota to UC350--><g id="link_frota_UC350"><path d="M76.31,2008.4537 C88.82,1966.4237 114.61,1901.1837 161,1865.0137 C191.49,1841.2437 226.3,1822.5137 262.84,1807.7837 " fill="none" id="frota-UC350" style="stroke:#181818;stroke-width:1.0;"/></g><!--link frota to UC360--><g id="link_frota_UC360"><path d="M116.23,2024.8937 C130.45,2019.0037 146.13,2013.1737 161,2009.0137 C236.04,1988.0437 319.71,1972.7037 395.16,1961.7137 " fill="none" id="frota-UC360" style="stroke:#181818;stroke-width:1.0;"/></g><!--link frota to UC370--><g id="link_frota_UC370"><path d="M116.15,2048.0137 C209.89,2048.0137 414.22,2048.0137 533.8,2048.0137 " fill="none" id="frota-UC370" style="stroke:#181818;stroke-width:1.0;"/></g><!--link frota to UC380--><g id="link_frota_UC380"><path d="M116.17,2070.9337 C130.38,2076.6837 146.08,2082.2737 161,2086.0137 C265.67,2112.2737 386.96,2125.0137 479.41,2131.1937 " fill="none" id="frota-UC380" style="stroke:#181818;stroke-width:1.0;"/></g><!--link frota to UC390--><g id="link_frota_UC390"><path d="M82.73,2087.6237 C98.04,2119.7337 124.15,2163.3937 161,2187.0137 C214.58,2221.3537 278.51,2242.0337 341.56,2254.1737 " fill="none" id="frota-UC390" style="stroke:#181818;stroke-width:1.0;"/></g><!--SRC=[XLNBZjCm5DtdAwvcFODQkvC-TgZ028a5Gk83tFYcOz7O6TkfHaBy2n8Bn8Alw8zXEqcJs56fkiXHxZdtt9iJvuIb1Qj0Y-Ep1Iuq5bOecMMx9pHMQU08UrRLZTa1Cr24o_7D3rfP5kwL_YhBQbPyOqU4B-hmJYk9Jmg-P-1-ZS626OIxh_lbus87UosO1kIYlFmjXBhp6k5MKfsxwlTSsBdoF2rVk_9FmlXogxWouFvNdkc9wvIu6OX3FHIgWaf8GAZOgn-v5cQGsQGos-jmlj8p4jVRX4KMmv12bafNxFBxyalr3UTa72UHMSuC7mnxWQPADPQf1XaqhjGhB-oZPiQuX-mlD0FLM3stOoUKQ5E_7AOr7frwnMhM3zXpQCfP3Glj-wAq6cSwhbBsux3O_zBJy95yj8oMBat79pCAQHx9UWZx2S-CknS7Pnv46aYo6GN_5ZKD8TcEijnHqSoIqopInSq06DHduQDLgq6yKwDf9EdoEhzX9tOhq3GD8_MFxoqNhaWw1PTWgSuAhAY3WbO7PTqBumgOv0eOcCQtCE8eknS8uQN1G0XpkA6mPDwyD_2AHUF7v0nEVc2ezUKFnr98mTcel3UO1eJcimPROvUVxR4uSkZtrmGxznEVzu2sUDFtIMD4VOm-Id4GeKdGxwlJw50VdRsIfZbDZe90CtxSuAiNI0D4VO0-etbfXBaX438mMRTgkfs5jK-st7TpYVkHPUst11uUkbD_WlC8hoEyYV1sYlt9EC7B29C8qmYl8Xpv8v4_4laZaJyI-QEHFn_yh5reYrs_CSodS3s5cobqlVu1]--></g></svg>