<?xml version="1.0" encoding="us-ascii" standalone="no"?><svg xmlns="http://www.w3.org/2000/svg" xmlns:xlink="http://www.w3.org/1999/xlink" contentStyleType="text/css" height="696px" preserveAspectRatio="none" style="width:984px;height:696px;background:#FFFFFF;" version="1.1" viewBox="0 0 984 696" width="984px" zoomAndPan="magnify"><defs/><g><text fill="#000000" font-family="sans-serif" font-size="14" font-weight="bold" lengthAdjust="spacing" textLength="426" x="278" y="30.1074">System Sequence Diagram (Level 3 - Process View) - US 1200</text><rect fill="#FFFFFF" height="461.6953" style="stroke:#181818;stroke-width:1.0;" width="10" x="62.5" y="133.2422"/><rect fill="#FFFFFF" height="156.4551" style="stroke:#181818;stroke-width:1.0;" width="10" x="277.5" y="173.8242"/><rect fill="#FFFFFF" height="233.3672" style="stroke:#181818;stroke-width:1.0;" width="10" x="277.5" y="361.5703"/><rect fill="#FFFFFF" height="93.873" style="stroke:#181818;stroke-width:1.0;" width="10" x="609.5" y="205.1152"/><rect fill="#FFFFFF" height="170.7852" style="stroke:#181818;stroke-width:1.0;" width="10" x="609.5" y="392.8613"/><rect fill="#FFFFFF" height="31.291" style="stroke:#181818;stroke-width:1.0;" width="10" x="912.5" y="236.4063"/><rect fill="#FFFFFF" height="31.291" style="stroke:#181818;stroke-width:1.0;" width="10" x="912.5" y="424.1523"/><rect fill="none" height="62.9121" style="stroke:#000000;stroke-width:1.5;" width="328.5" x="334" y="470.4434"/><line style="stroke:#181818;stroke-width:0.5;stroke-dasharray:5.0,5.0;" x1="67" x2="67" y1="123.2422" y2="612.9375"/><line style="stroke:#181818;stroke-width:0.5;stroke-dasharray:5.0,5.0;" x1="282" x2="282" y1="123.2422" y2="612.9375"/><line style="stroke:#181818;stroke-width:0.5;stroke-dasharray:5.0,5.0;" x1="372" x2="372" y1="521.5449" y2="612.9375"/><line style="stroke:#181818;stroke-width:0.5;stroke-dasharray:5.0,5.0;" x1="614.5" x2="614.5" y1="123.2422" y2="612.9375"/><line style="stroke:#181818;stroke-width:0.5;stroke-dasharray:5.0,5.0;" x1="917" x2="917" y1="123.2422" y2="612.9375"/><text fill="#000000" font-family="sans-serif" font-size="14" lengthAdjust="spacing" textLength="119" x="5" y="119.7285">Gestor de Campus</text><ellipse cx="67.5" cy="53.1211" fill="#E3E3E3" rx="8" ry="8" style="stroke:#181818;stroke-width:0.5;"/><path d="M67.5,61.1211 L67.5,88.1211 M54.5,69.1211 L80.5,69.1211 M67.5,88.1211 L54.5,103.1211 M67.5,88.1211 L80.5,103.1211 " fill="none" style="stroke:#181818;stroke-width:0.5;"/><text fill="#000000" font-family="sans-serif" font-size="14" lengthAdjust="spacing" textLength="119" x="5" y="627.0449">Gestor de Campus</text><ellipse cx="67.5" cy="639.0586" fill="#E3E3E3" rx="8" ry="8" style="stroke:#181818;stroke-width:0.5;"/><path d="M67.5,647.0586 L67.5,674.0586 M54.5,655.0586 L80.5,655.0586 M67.5,674.0586 L54.5,689.0586 M67.5,674.0586 L80.5,689.0586 " fill="none" style="stroke:#181818;stroke-width:0.5;"/><rect fill="#E3E3E3" height="51.2422" rx="2.5" ry="2.5" style="stroke:#181818;stroke-width:0.5;" width="103" x="231" y="71"/><text fill="#000000" font-family="sans-serif" font-size="14" font-style="italic" lengthAdjust="spacing" textLength="89" x="238" y="93.1074">&#171;Component&#187;</text><text fill="#000000" font-family="sans-serif" font-size="14" lengthAdjust="spacing" textLength="77" x="244" y="111.7285">:Component</text><rect fill="#E3E3E3" height="51.2422" rx="2.5" ry="2.5" style="stroke:#181818;stroke-width:0.5;" width="103" x="231" y="611.9375"/><text fill="#000000" font-family="sans-serif" font-size="14" font-style="italic" lengthAdjust="spacing" textLength="89" x="238" y="634.0449">&#171;Component&#187;</text><text fill="#000000" font-family="sans-serif" font-size="14" lengthAdjust="spacing" textLength="77" x="244" y="652.666">:Component</text><rect fill="#E3E3E3" height="32.6211" rx="2.5" ry="2.5" style="stroke:#181818;stroke-width:0.5;" width="56" x="344" y="611.9375"/><text fill="#000000" font-family="sans-serif" font-size="14" lengthAdjust="spacing" textLength="42" x="351" y="634.0449">:model</text><rect fill="#E3E3E3" height="51.2422" rx="2.5" ry="2.5" style="stroke:#181818;stroke-width:0.5;" width="76" x="576.5" y="71"/><text fill="#000000" font-family="sans-serif" font-size="14" font-style="italic" lengthAdjust="spacing" textLength="62" x="583.5" y="93.1074">&#171;Service&#187;</text><text fill="#000000" font-family="sans-serif" font-size="14" lengthAdjust="spacing" textLength="49" x="590" y="111.7285">:service</text><rect fill="#E3E3E3" height="51.2422" rx="2.5" ry="2.5" style="stroke:#181818;stroke-width:0.5;" width="76" x="576.5" y="611.9375"/><text fill="#000000" font-family="sans-serif" font-size="14" font-style="italic" lengthAdjust="spacing" textLength="62" x="583.5" y="634.0449">&#171;Service&#187;</text><text fill="#000000" font-family="sans-serif" font-size="14" lengthAdjust="spacing" textLength="49" x="590" y="652.666">:service</text><rect fill="#E3E3E3" height="51.2422" rx="2.5" ry="2.5" style="stroke:#181818;stroke-width:0.5;" width="121" x="857" y="71"/><text fill="#000000" font-family="sans-serif" font-size="14" font-style="italic" lengthAdjust="spacing" textLength="107" x="864" y="93.1074">&#171;container (C4)&#187;</text><text fill="#000000" font-family="sans-serif" font-size="14" lengthAdjust="spacing" textLength="21" x="907" y="111.7285">MD</text><rect fill="#E3E3E3" height="51.2422" rx="2.5" ry="2.5" style="stroke:#181818;stroke-width:0.5;" width="121" x="857" y="611.9375"/><text fill="#000000" font-family="sans-serif" font-size="14" font-style="italic" lengthAdjust="spacing" textLength="107" x="864" y="634.0449">&#171;container (C4)&#187;</text><text fill="#000000" font-family="sans-serif" font-size="14" lengthAdjust="spacing" textLength="21" x="907" y="652.666">MD</text><rect fill="#FFFFFF" height="461.6953" style="stroke:#181818;stroke-width:1.0;" width="10" x="62.5" y="133.2422"/><rect fill="#FFFFFF" height="156.4551" style="stroke:#181818;stroke-width:1.0;" width="10" x="277.5" y="173.8242"/><rect fill="#FFFFFF" height="233.3672" style="stroke:#181818;stroke-width:1.0;" width="10" x="277.5" y="361.5703"/><rect fill="#FFFFFF" height="93.873" style="stroke:#181818;stroke-width:1.0;" width="10" x="609.5" y="205.1152"/><rect fill="#FFFFFF" height="170.7852" style="stroke:#181818;stroke-width:1.0;" width="10" x="609.5" y="392.8613"/><rect fill="#FFFFFF" height="31.291" style="stroke:#181818;stroke-width:1.0;" width="10" x="912.5" y="236.4063"/><rect fill="#FFFFFF" height="31.291" style="stroke:#181818;stroke-width:1.0;" width="10" x="912.5" y="424.1523"/><polygon fill="#181818" points="265.5,169.8242,275.5,173.8242,265.5,177.8242,269.5,173.8242" style="stroke:#181818;stroke-width:1.0;"/><line style="stroke:#181818;stroke-width:1.0;" x1="72.5" x2="271.5" y1="173.8242" y2="173.8242"/><text fill="#000000" font-family="sans-serif" font-size="13" font-weight="bold" lengthAdjust="spacing" textLength="7" x="79.5" y="159.916">1</text><text fill="#000000" font-family="sans-serif" font-size="13" lengthAdjust="spacing" textLength="128" x="90.5" y="151.2705">Asks to list floors with</text><text fill="#000000" font-family="sans-serif" font-size="13" lengthAdjust="spacing" textLength="175" x="90.5" y="168.5615">passageway to other buildings</text><polygon fill="#181818" points="597.5,201.1152,607.5,205.1152,597.5,209.1152,601.5,205.1152" style="stroke:#181818;stroke-width:1.0;"/><line style="stroke:#181818;stroke-width:1.0;" x1="287.5" x2="603.5" y1="205.1152" y2="205.1152"/><text fill="#000000" font-family="sans-serif" font-size="13" font-weight="bold" lengthAdjust="spacing" textLength="7" x="294.5" y="199.8525">2</text><text fill="#000000" font-family="sans-serif" font-size="13" lengthAdjust="spacing" textLength="94" x="305.5" y="199.8525">getAllBuildings()</text><polygon fill="#181818" points="900.5,232.4063,910.5,236.4063,900.5,240.4063,904.5,236.4063" style="stroke:#181818;stroke-width:1.0;"/><line style="stroke:#181818;stroke-width:1.0;" x1="619.5" x2="906.5" y1="236.4063" y2="236.4063"/><text fill="#000000" font-family="sans-serif" font-size="13" font-weight="bold" lengthAdjust="spacing" textLength="7" x="626.5" y="231.1436">3</text><text fill="#000000" font-family="sans-serif" font-size="13" lengthAdjust="spacing" textLength="97" x="637.5" y="231.1436">GET(../buildings)</text><polygon fill="#181818" points="630.5,263.6973,620.5,267.6973,630.5,271.6973,626.5,267.6973" style="stroke:#181818;stroke-width:1.0;"/><line style="stroke:#181818;stroke-width:1.0;stroke-dasharray:2.0,2.0;" x1="624.5" x2="916.5" y1="267.6973" y2="267.6973"/><text fill="#000000" font-family="sans-serif" font-size="13" font-weight="bold" lengthAdjust="spacing" textLength="7" x="636.5" y="262.4346">4</text><text fill="#000000" font-family="sans-serif" font-size="13" lengthAdjust="spacing" textLength="90" x="647.5" y="262.4346">status: 200/400</text><polygon fill="#181818" points="298.5,294.9883,288.5,298.9883,298.5,302.9883,294.5,298.9883" style="stroke:#181818;stroke-width:1.0;"/><line style="stroke:#181818;stroke-width:1.0;stroke-dasharray:2.0,2.0;" x1="292.5" x2="613.5" y1="298.9883" y2="298.9883"/><text fill="#000000" font-family="sans-serif" font-size="13" font-weight="bold" lengthAdjust="spacing" textLength="7" x="304.5" y="293.7256">5</text><text fill="#000000" font-family="sans-serif" font-size="13" lengthAdjust="spacing" textLength="4" x="315.5" y="293.7256">&#160;</text><polygon fill="#181818" points="83.5,326.2793,73.5,330.2793,83.5,334.2793,79.5,330.2793" style="stroke:#181818;stroke-width:1.0;"/><line style="stroke:#181818;stroke-width:1.0;stroke-dasharray:2.0,2.0;" x1="77.5" x2="281.5" y1="330.2793" y2="330.2793"/><text fill="#000000" font-family="sans-serif" font-size="13" font-weight="bold" lengthAdjust="spacing" textLength="7" x="89.5" y="325.0166">6</text><text fill="#000000" font-family="sans-serif" font-size="13" lengthAdjust="spacing" textLength="148" x="100.5" y="325.0166">asks to choose a building</text><polygon fill="#181818" points="265.5,357.5703,275.5,361.5703,265.5,365.5703,269.5,361.5703" style="stroke:#181818;stroke-width:1.0;"/><line style="stroke:#181818;stroke-width:1.0;" x1="72.5" x2="271.5" y1="361.5703" y2="361.5703"/><text fill="#000000" font-family="sans-serif" font-size="13" font-weight="bold" lengthAdjust="spacing" textLength="7" x="79.5" y="356.3076">7</text><text fill="#000000" font-family="sans-serif" font-size="13" lengthAdjust="spacing" textLength="90" x="90.5" y="356.3076">selects building</text><polygon fill="#181818" points="597.5,388.8613,607.5,392.8613,597.5,396.8613,601.5,392.8613" style="stroke:#181818;stroke-width:1.0;"/><line style="stroke:#181818;stroke-width:1.0;" x1="287.5" x2="603.5" y1="392.8613" y2="392.8613"/><text fill="#000000" font-family="sans-serif" font-size="13" font-weight="bold" lengthAdjust="spacing" textLength="7" x="294.5" y="387.5986">8</text><text fill="#000000" font-family="sans-serif" font-size="13" lengthAdjust="spacing" textLength="292" x="305.5" y="387.5986">getFloorsWithPassagewaysToBuildingByBuilding()</text><polygon fill="#181818" points="900.5,420.1523,910.5,424.1523,900.5,428.1523,904.5,424.1523" style="stroke:#181818;stroke-width:1.0;"/><line style="stroke:#181818;stroke-width:1.0;" x1="619.5" x2="906.5" y1="424.1523" y2="424.1523"/><text fill="#000000" font-family="sans-serif" font-size="13" font-weight="bold" lengthAdjust="spacing" textLength="7" x="626.5" y="418.8896">9</text><text fill="#000000" font-family="sans-serif" font-size="13" lengthAdjust="spacing" textLength="263" x="637.5" y="418.8896">GET(../buildings/building/floors/passageways)</text><polygon fill="#181818" points="630.5,451.4434,620.5,455.4434,630.5,459.4434,626.5,455.4434" style="stroke:#181818;stroke-width:1.0;"/><line style="stroke:#181818;stroke-width:1.0;stroke-dasharray:2.0,2.0;" x1="624.5" x2="916.5" y1="455.4434" y2="455.4434"/><text fill="#000000" font-family="sans-serif" font-size="13" font-weight="bold" lengthAdjust="spacing" textLength="14" x="636.5" y="450.1807">10</text><text fill="#000000" font-family="sans-serif" font-size="13" lengthAdjust="spacing" textLength="90" x="654.5" y="450.1807">status: 200/400</text><path d="M334,470.4434 L407,470.4434 L407,479.7344 L397,489.7344 L334,489.7344 L334,470.4434 " fill="#EEEEEE" style="stroke:#000000;stroke-width:1.5;"/><rect fill="none" height="62.9121" style="stroke:#000000;stroke-width:1.5;" width="328.5" x="334" y="470.4434"/><text fill="#000000" font-family="sans-serif" font-size="13" font-weight="bold" lengthAdjust="spacing" textLength="28" x="349" y="485.4717">loop</text><text fill="#000000" font-family="sans-serif" font-size="11" font-weight="bold" lengthAdjust="spacing" textLength="93" x="422" y="484.3135">[for all buildings]</text><polygon fill="#181818" points="411,509.0254,401,513.0254,411,517.0254,407,513.0254" style="stroke:#181818;stroke-width:1.0;"/><line style="stroke:#181818;stroke-width:1.0;stroke-dasharray:2.0,2.0;" x1="405" x2="608.5" y1="513.0254" y2="513.0254"/><text fill="#000000" font-family="sans-serif" font-size="13" font-weight="bold" lengthAdjust="spacing" textLength="14" x="417" y="507.7627">11</text><text fill="#000000" font-family="sans-serif" font-size="13" lengthAdjust="spacing" textLength="4" x="435" y="507.7627">&#160;</text><rect fill="#E3E3E3" height="32.6211" rx="2.5" ry="2.5" style="stroke:#181818;stroke-width:0.5;" width="56" x="344" y="489.7344"/><text fill="#000000" font-family="sans-serif" font-size="14" lengthAdjust="spacing" textLength="42" x="351" y="511.8418">:model</text><polygon fill="#181818" points="298.5,559.6465,288.5,563.6465,298.5,567.6465,294.5,563.6465" style="stroke:#181818;stroke-width:1.0;"/><line style="stroke:#181818;stroke-width:1.0;stroke-dasharray:2.0,2.0;" x1="292.5" x2="613.5" y1="563.6465" y2="563.6465"/><text fill="#000000" font-family="sans-serif" font-size="13" font-weight="bold" lengthAdjust="spacing" textLength="14" x="304.5" y="558.3838">12</text><text fill="#000000" font-family="sans-serif" font-size="13" lengthAdjust="spacing" textLength="4" x="322.5" y="558.3838">&#160;</text><polygon fill="#181818" points="78.5,590.9375,68.5,594.9375,78.5,598.9375,74.5,594.9375" style="stroke:#181818;stroke-width:1.0;"/><line style="stroke:#181818;stroke-width:1.0;stroke-dasharray:2.0,2.0;" x1="72.5" x2="281.5" y1="594.9375" y2="594.9375"/><text fill="#000000" font-family="sans-serif" font-size="13" font-weight="bold" lengthAdjust="spacing" textLength="14" x="84.5" y="589.6748">13</text><text fill="#000000" font-family="sans-serif" font-size="13" lengthAdjust="spacing" textLength="52" x="102.5" y="589.6748">list floors</text><!--SRC=[fLFBRjim4BppAnO-sG4KfsrEWc4WiTfSQY20qlRI2qEj9S8KgMfNDlptfTw4uKlQarRQcU7k34L7RIjPon9APvqgQbSYSDsWeAbJINMKEQPyCGWrAfOsDo602fcvixOv7AGX5B9XPvlo7MiXMBDdfHTYB275FmrQXP1ecRVCvNSyeO4l4C5hxHGImK-DvvL__v72fyyF3q88gTZLi7X1QfyPmawMLKCBa0HTJmW_1skbAsaP5l7EbPMpQBc3J6-msKprTdl5ALs6fiFls-ggIrYVjCAkd_QrLnkgQwrzqkia7gASPQajrh3SFQuyijr6doJZC7g_NBITnupXYOu4xC1eOZWOvsg2i-RYj_URo4TnbfUsxxZmmk-DDfatdsRfIKlCo_iZXdbZo96VZ7aUYSlLJ1qmOjpIq_P932zVtvRtz-lfh82nJoRm9eewDB7aXcBm-QqVVOOPta97uTOXPfoXzwOL3SoHWpcgS8wyYzF-eS8iUyjVGkDlCStCZnZthSlZbu_ZTGg3tjnevlDbhFx1rQbQzwclvxm_wFYLvLwjWeCtGXeJN9WmYUxQtzq9jDb_9XHSszkP11-7_rVy1G00]--></g></svg>