<?xml version="1.0" encoding="UTF-8" standalone="no"?><svg xmlns="http://www.w3.org/2000/svg" xmlns:xlink="http://www.w3.org/1999/xlink" contentStyleType="text/css" height="457px" preserveAspectRatio="none" style="width:636px;height:457px;background:#FFFFFF;" version="1.1" viewBox="0 0 636 457" width="636px" zoomAndPan="magnify"><defs/><g><rect fill="none" height="41.4453" id="_title" style="stroke:none;stroke-width:1.0;" width="304" x="159" y="5"/><text fill="#000000" font-family="sans-serif" font-size="25" font-weight="bold" lengthAdjust="spacing" text-decoration="underline" textLength="294" x="164" y="35.9521">US 180 - Domain classes</text><!--MD5=[a8c72dcb0993599bf4f10d1dea215f72]
cluster <<aggregate>> Building--><g id="cluster_&lt;&lt;aggregate&gt;&gt; Building"><path d="M8.5,60.4385 L294.5,60.4385 A3.75,3.75 0 0 1 297,62.9385 L304,97.8838 L626.5,97.8838 A2.5,2.5 0 0 1 629,100.3838 L629,447.9385 A2.5,2.5 0 0 1 626.5,450.4385 L8.5,450.4385 A2.5,2.5 0 0 1 6,447.9385 L6,62.9385 A2.5,2.5 0 0 1 8.5,60.4385 " fill="none" style="stroke:#000000;stroke-width:1.5;"/><line style="stroke:#000000;stroke-width:1.5;" x1="6" x2="304" y1="97.8838" y2="97.8838"/><text fill="#000000" font-family="sans-serif" font-size="25" font-weight="bold" lengthAdjust="spacing" textLength="285" x="10" y="88.3906">&lt;&lt;aggregate&gt;&gt; Building</text></g><!--MD5=[8560f289a30852a9f75d64e53f926853]
class Building--><g id="elem_Building"><rect codeLine="10" fill="#F1F1F1" height="65.7969" id="Building" rx="2.5" ry="2.5" style="stroke:#181818;stroke-width:0.5;" width="82" x="334" y="239.4385"/><ellipse cx="349" cy="268.3369" fill="#ADD1B2" rx="11" ry="11" style="stroke:#181818;stroke-width:1.0;"/><path d="M347.8594,269.1338 L347.8594,271.6338 L352.1875,271.6338 L352.1875,270.7119 Q352.1875,270.1025 352.4219,269.8369 Q352.6719,269.5713 353.0469,269.5713 Q353.4219,269.5713 353.6563,269.8369 Q353.8906,270.1025 353.8906,270.7119 L353.8906,273.3369 L345.8906,273.3369 Q345.2656,273.3369 345,273.1025 Q344.75,272.8682 344.75,272.4775 Q344.75,272.1025 345.0156,271.8682 Q345.2813,271.6338 345.8906,271.6338 L346.1563,271.6338 L346.1563,264.9775 L345.8906,264.9775 Q345.2656,264.9775 345,264.7432 Q344.75,264.5088 344.75,264.1182 Q344.75,263.7432 345,263.5088 Q345.2656,263.2744 345.8906,263.2744 L353.5156,263.2744 L353.5156,265.8682 Q353.5156,266.4775 353.2813,266.7432 Q353.0625,266.9932 352.6719,266.9932 Q352.2969,266.9932 352.0625,266.7432 Q351.8281,266.4775 351.8281,265.8682 L351.8281,264.9775 L347.8594,264.9775 L347.8594,267.4307 L349.3438,267.4307 Q349.3438,266.7744 349.4688,266.5869 Q349.7344,266.1807 350.2031,266.1807 Q350.5781,266.1807 350.8125,266.4463 Q351.0469,266.6963 351.0469,267.3057 L351.0469,269.2744 Q351.0469,269.8213 350.9219,270.0088 Q350.6563,270.3994 350.2031,270.3994 Q349.7344,270.3994 349.4688,269.9932 Q349.3438,269.8057 349.3438,269.1338 L347.8594,269.1338 Z " fill="#000000"/><text fill="#000000" font-family="sans-serif" font-size="12" font-style="italic" lengthAdjust="spacing" textLength="43" x="366.5" y="256.8955">«entity»</text><text fill="#000000" font-family="sans-serif" font-size="12" font-style="italic" lengthAdjust="spacing" textLength="35" x="370.5" y="271.9893">«root»</text><text fill="#000000" font-family="sans-serif" font-size="14" lengthAdjust="spacing" textLength="50" x="363" y="289.1592">Building</text><line style="stroke:#181818;stroke-width:0.5;" x1="335" x2="415" y1="297.2354" y2="297.2354"/></g><!--MD5=[ba580110b1777f63e0f1dfe3fcefdac0]
class Code--><g id="elem_Code"><rect codeLine="11" fill="#F1F1F1" height="50.7031" id="Code" rx="2.5" ry="2.5" style="stroke:#181818;stroke-width:0.5;" width="109" x="22.5" y="110.4385"/><ellipse cx="37.5" cy="131.79" fill="#FF8B40" rx="11" ry="11" style="stroke:#181818;stroke-width:1.0;"/><path d="M38.0938,135.0557 L40.5625,129.1807 L40.1719,129.1807 Q39.5625,129.1807 39.2969,128.9463 Q39.0313,128.7119 39.0313,128.3213 Q39.0313,127.9463 39.2969,127.7119 Q39.5625,127.4775 40.1719,127.4775 L42.4531,127.4775 Q43.0625,127.4775 43.3281,127.7119 Q43.5938,127.9463 43.5938,128.3213 Q43.5938,128.79 43.1875,129.0557 Q43,129.1807 42.4063,129.1807 L38.9219,137.54 L37.2813,137.54 L33.7969,129.1807 Q33.2031,129.1807 33.0156,129.0557 Q32.6094,128.79 32.6094,128.3213 Q32.6094,127.9463 32.875,127.7119 Q33.1406,127.4775 33.75,127.4775 L36.0469,127.4775 Q36.6563,127.4775 36.9063,127.7119 Q37.1719,127.9463 37.1719,128.3213 Q37.1719,128.7119 36.9063,128.9463 Q36.6563,129.1807 36.0469,129.1807 L35.6406,129.1807 L38.0938,135.0557 Z " fill="#000000"/><text fill="#000000" font-family="sans-serif" font-size="12" font-style="italic" lengthAdjust="spacing" textLength="81" x="49.5" y="127.8955">«value object»</text><text fill="#000000" font-family="sans-serif" font-size="14" lengthAdjust="spacing" textLength="34" x="73" y="145.0654">Code</text><line style="stroke:#181818;stroke-width:0.5;" x1="23.5" x2="130.5" y1="153.1416" y2="153.1416"/></g><!--MD5=[454d980de7ec19c426bfaad009ef01a6]
class BuildingName--><g id="elem_BuildingName"><rect codeLine="12" fill="#F1F1F1" height="50.7031" id="BuildingName" rx="2.5" ry="2.5" style="stroke:#181818;stroke-width:0.5;" width="118" x="167" y="110.4385"/><ellipse cx="182" cy="131.79" fill="#FF8B40" rx="11" ry="11" style="stroke:#181818;stroke-width:1.0;"/><path d="M182.5938,135.0557 L185.0625,129.1807 L184.6719,129.1807 Q184.0625,129.1807 183.7969,128.9463 Q183.5313,128.7119 183.5313,128.3213 Q183.5313,127.9463 183.7969,127.7119 Q184.0625,127.4775 184.6719,127.4775 L186.9531,127.4775 Q187.5625,127.4775 187.8281,127.7119 Q188.0938,127.9463 188.0938,128.3213 Q188.0938,128.79 187.6875,129.0557 Q187.5,129.1807 186.9063,129.1807 L183.4219,137.54 L181.7813,137.54 L178.2969,129.1807 Q177.7031,129.1807 177.5156,129.0557 Q177.1094,128.79 177.1094,128.3213 Q177.1094,127.9463 177.375,127.7119 Q177.6406,127.4775 178.25,127.4775 L180.5469,127.4775 Q181.1563,127.4775 181.4063,127.7119 Q181.6719,127.9463 181.6719,128.3213 Q181.6719,128.7119 181.4063,128.9463 Q181.1563,129.1807 180.5469,129.1807 L180.1406,129.1807 L182.5938,135.0557 Z " fill="#000000"/><text fill="#000000" font-family="sans-serif" font-size="12" font-style="italic" lengthAdjust="spacing" textLength="81" x="198.5" y="127.8955">«value object»</text><text fill="#000000" font-family="sans-serif" font-size="14" lengthAdjust="spacing" textLength="86" x="196" y="145.0654">BuildingName</text><line style="stroke:#181818;stroke-width:0.5;" x1="168" x2="284" y1="153.1416" y2="153.1416"/></g><!--MD5=[009695af4e54f3bba8a9c60dca3e1c94]
class Description--><g id="elem_Description"><rect codeLine="13" fill="#F1F1F1" height="50.7031" id="Description" rx="2.5" ry="2.5" style="stroke:#181818;stroke-width:0.5;" width="109" x="320.5" y="110.4385"/><ellipse cx="335.5" cy="131.79" fill="#FF8B40" rx="11" ry="11" style="stroke:#181818;stroke-width:1.0;"/><path d="M336.0938,135.0557 L338.5625,129.1807 L338.1719,129.1807 Q337.5625,129.1807 337.2969,128.9463 Q337.0313,128.7119 337.0313,128.3213 Q337.0313,127.9463 337.2969,127.7119 Q337.5625,127.4775 338.1719,127.4775 L340.4531,127.4775 Q341.0625,127.4775 341.3281,127.7119 Q341.5938,127.9463 341.5938,128.3213 Q341.5938,128.79 341.1875,129.0557 Q341,129.1807 340.4063,129.1807 L336.9219,137.54 L335.2813,137.54 L331.7969,129.1807 Q331.2031,129.1807 331.0156,129.0557 Q330.6094,128.79 330.6094,128.3213 Q330.6094,127.9463 330.875,127.7119 Q331.1406,127.4775 331.75,127.4775 L334.0469,127.4775 Q334.6563,127.4775 334.9063,127.7119 Q335.1719,127.9463 335.1719,128.3213 Q335.1719,128.7119 334.9063,128.9463 Q334.6563,129.1807 334.0469,129.1807 L333.6406,129.1807 L336.0938,135.0557 Z " fill="#000000"/><text fill="#000000" font-family="sans-serif" font-size="12" font-style="italic" lengthAdjust="spacing" textLength="81" x="347.5" y="127.8955">«value object»</text><text fill="#000000" font-family="sans-serif" font-size="14" lengthAdjust="spacing" textLength="71" x="352.5" y="145.0654">Description</text><line style="stroke:#181818;stroke-width:0.5;" x1="321.5" x2="428.5" y1="153.1416" y2="153.1416"/></g><!--MD5=[63df115c21ab49316439de8a13099cdb]
class BuildingDimension--><g id="elem_BuildingDimension"><rect codeLine="14" fill="#F1F1F1" height="50.7031" id="BuildingDimension" rx="2.5" ry="2.5" style="stroke:#181818;stroke-width:0.5;" width="148" x="465" y="110.4385"/><ellipse cx="480" cy="131.79" fill="#FF8B40" rx="11" ry="11" style="stroke:#181818;stroke-width:1.0;"/><path d="M480.5938,135.0557 L483.0625,129.1807 L482.6719,129.1807 Q482.0625,129.1807 481.7969,128.9463 Q481.5313,128.7119 481.5313,128.3213 Q481.5313,127.9463 481.7969,127.7119 Q482.0625,127.4775 482.6719,127.4775 L484.9531,127.4775 Q485.5625,127.4775 485.8281,127.7119 Q486.0938,127.9463 486.0938,128.3213 Q486.0938,128.79 485.6875,129.0557 Q485.5,129.1807 484.9063,129.1807 L481.4219,137.54 L479.7813,137.54 L476.2969,129.1807 Q475.7031,129.1807 475.5156,129.0557 Q475.1094,128.79 475.1094,128.3213 Q475.1094,127.9463 475.375,127.7119 Q475.6406,127.4775 476.25,127.4775 L478.5469,127.4775 Q479.1563,127.4775 479.4063,127.7119 Q479.6719,127.9463 479.6719,128.3213 Q479.6719,128.7119 479.4063,128.9463 Q479.1563,129.1807 478.5469,129.1807 L478.1406,129.1807 L480.5938,135.0557 Z " fill="#000000"/><text fill="#000000" font-family="sans-serif" font-size="12" font-style="italic" lengthAdjust="spacing" textLength="81" x="511.5" y="127.8955">«value object»</text><text fill="#000000" font-family="sans-serif" font-size="14" lengthAdjust="spacing" textLength="116" x="494" y="145.0654">BuildingDimension</text><line style="stroke:#181818;stroke-width:0.5;" x1="466" x2="612" y1="153.1416" y2="153.1416"/></g><!--MD5=[b098efa4dd65edfeebe973e4edec7c36]
class Floor--><g id="elem_Floor"><rect codeLine="16" fill="#F1F1F1" height="50.7031" id="Floor" rx="2.5" ry="2.5" style="stroke:#181818;stroke-width:0.5;" width="71" x="300.5" y="383.4385"/><ellipse cx="315.5" cy="404.79" fill="#ADD1B2" rx="11" ry="11" style="stroke:#181818;stroke-width:1.0;"/><path d="M314.3594,405.5869 L314.3594,408.0869 L318.6875,408.0869 L318.6875,407.165 Q318.6875,406.5557 318.9219,406.29 Q319.1719,406.0244 319.5469,406.0244 Q319.9219,406.0244 320.1563,406.29 Q320.3906,406.5557 320.3906,407.165 L320.3906,409.79 L312.3906,409.79 Q311.7656,409.79 311.5,409.5557 Q311.25,409.3213 311.25,408.9307 Q311.25,408.5557 311.5156,408.3213 Q311.7813,408.0869 312.3906,408.0869 L312.6563,408.0869 L312.6563,401.4307 L312.3906,401.4307 Q311.7656,401.4307 311.5,401.1963 Q311.25,400.9619 311.25,400.5713 Q311.25,400.1963 311.5,399.9619 Q311.7656,399.7275 312.3906,399.7275 L320.0156,399.7275 L320.0156,402.3213 Q320.0156,402.9307 319.7813,403.1963 Q319.5625,403.4463 319.1719,403.4463 Q318.7969,403.4463 318.5625,403.1963 Q318.3281,402.9307 318.3281,402.3213 L318.3281,401.4307 L314.3594,401.4307 L314.3594,403.8838 L315.8438,403.8838 Q315.8438,403.2275 315.9688,403.04 Q316.2344,402.6338 316.7031,402.6338 Q317.0781,402.6338 317.3125,402.8994 Q317.5469,403.1494 317.5469,403.7588 L317.5469,405.7275 Q317.5469,406.2744 317.4219,406.4619 Q317.1563,406.8525 316.7031,406.8525 Q316.2344,406.8525 315.9688,406.4463 Q315.8438,406.2588 315.8438,405.5869 L314.3594,405.5869 Z " fill="#000000"/><text fill="#000000" font-family="sans-serif" font-size="12" font-style="italic" lengthAdjust="spacing" textLength="43" x="327.5" y="400.8955">«entity»</text><text fill="#000000" font-family="sans-serif" font-size="14" lengthAdjust="spacing" textLength="33" x="332.5" y="418.0654">Floor</text><line style="stroke:#181818;stroke-width:0.5;" x1="301.5" x2="370.5" y1="426.1416" y2="426.1416"/></g><!--MD5=[93e485d66e62470c0e68a81214641dfb]
class Elevator--><g id="elem_Elevator"><rect codeLine="18" fill="#F1F1F1" height="50.7031" id="Elevator" rx="2.5" ry="2.5" style="stroke:#181818;stroke-width:0.5;" width="84" x="407" y="383.4385"/><ellipse cx="422" cy="404.79" fill="#ADD1B2" rx="11" ry="11" style="stroke:#181818;stroke-width:1.0;"/><path d="M420.8594,405.5869 L420.8594,408.0869 L425.1875,408.0869 L425.1875,407.165 Q425.1875,406.5557 425.4219,406.29 Q425.6719,406.0244 426.0469,406.0244 Q426.4219,406.0244 426.6563,406.29 Q426.8906,406.5557 426.8906,407.165 L426.8906,409.79 L418.8906,409.79 Q418.2656,409.79 418,409.5557 Q417.75,409.3213 417.75,408.9307 Q417.75,408.5557 418.0156,408.3213 Q418.2813,408.0869 418.8906,408.0869 L419.1563,408.0869 L419.1563,401.4307 L418.8906,401.4307 Q418.2656,401.4307 418,401.1963 Q417.75,400.9619 417.75,400.5713 Q417.75,400.1963 418,399.9619 Q418.2656,399.7275 418.8906,399.7275 L426.5156,399.7275 L426.5156,402.3213 Q426.5156,402.9307 426.2813,403.1963 Q426.0625,403.4463 425.6719,403.4463 Q425.2969,403.4463 425.0625,403.1963 Q424.8281,402.9307 424.8281,402.3213 L424.8281,401.4307 L420.8594,401.4307 L420.8594,403.8838 L422.3438,403.8838 Q422.3438,403.2275 422.4688,403.04 Q422.7344,402.6338 423.2031,402.6338 Q423.5781,402.6338 423.8125,402.8994 Q424.0469,403.1494 424.0469,403.7588 L424.0469,405.7275 Q424.0469,406.2744 423.9219,406.4619 Q423.6563,406.8525 423.2031,406.8525 Q422.7344,406.8525 422.4688,406.4463 Q422.3438,406.2588 422.3438,405.5869 L420.8594,405.5869 Z " fill="#000000"/><text fill="#000000" font-family="sans-serif" font-size="12" font-style="italic" lengthAdjust="spacing" textLength="43" x="440.5" y="400.8955">«entity»</text><text fill="#000000" font-family="sans-serif" font-size="14" lengthAdjust="spacing" textLength="52" x="436" y="418.0654">Elevator</text><line style="stroke:#181818;stroke-width:0.5;" x1="408" x2="490" y1="426.1416" y2="426.1416"/></g><!--MD5=[1d22bfd28eda6531be392b53146b0c74]
reverse link Code to Building--><g id="link_Code_Building"><path codeLine="23" d="M136.18,163.6485 C194.71,190.0685 282.76,229.8085 333.99,252.9285 " fill="none" id="Code-backto-Building" style="stroke:#181818;stroke-width:1.0;"/><polygon fill="#181818" points="131.31,161.4485,137.8758,168.7894,135.8696,163.5003,141.1588,161.4941,131.31,161.4485" style="stroke:#181818;stroke-width:1.0;"/></g><!--MD5=[d680a95c338e747515d962ddbcbc5ba7]
reverse link BuildingName to Building--><g id="link_BuildingName_Building"><path codeLine="24" d="M257.1,165.0085 C281.1,186.6785 314.34,216.6785 339.41,239.3085 " fill="none" id="BuildingName-backto-Building" style="stroke:#181818;stroke-width:1.0;"/><polygon fill="#181818" points="253.33,161.6085,257.3438,170.6023,257.0465,164.9533,262.6955,164.656,253.33,161.6085" style="stroke:#181818;stroke-width:1.0;"/></g><!--MD5=[eb5720d5e8fd42c0e7eaf7f9b4fdfff4]
reverse link Description to Building--><g id="link_Description_Building"><path codeLine="25" d="M375,166.6285 C375,188.1585 375,217.2385 375,239.3085 " fill="none" id="Description-backto-Building" style="stroke:#181818;stroke-width:1.0;"/><polygon fill="#181818" points="375,161.6085,371,170.6085,375,166.6085,379,170.6085,375,161.6085" style="stroke:#181818;stroke-width:1.0;"/></g><!--MD5=[fca862d7ae5bc0e0c51dff41eea5dd5b]
reverse link BuildingDimension to Building--><g id="link_BuildingDimension_Building"><path codeLine="26" d="M469.79,163.8685 C455.07,171.4585 440.28,180.6485 428,191.4385 C412.86,204.7485 400.19,223.3485 391.04,239.2585 " fill="none" id="BuildingDimension-backto-Building" style="stroke:#181818;stroke-width:1.0;"/><polygon fill="#181818" points="474.35,161.5585,464.5137,162.056,469.8894,163.8174,468.128,169.193,474.35,161.5585" style="stroke:#181818;stroke-width:1.0;"/><text fill="#000000" font-family="sans-serif" font-size="13" lengthAdjust="spacing" textLength="61" x="429" y="205.9336">numXCells</text></g><!--MD5=[fca862d7ae5bc0e0c51dff41eea5dd5b]
reverse link BuildingDimension to Building--><g id="link_BuildingDimension_Building"><path codeLine="27" d="M525.95,166.2385 C518.46,180.5885 507.96,197.3385 495,209.4385 C472.37,230.5585 441.18,246.3885 416.26,256.7585 " fill="none" id="BuildingDimension-backto-Building-1" style="stroke:#181818;stroke-width:1.0;"/><polygon fill="#181818" points="528.37,161.4685,520.7196,167.671,526.0997,165.9233,527.8474,171.3035,528.37,161.4685" style="stroke:#181818;stroke-width:1.0;"/><text fill="#000000" font-family="sans-serif" font-size="13" lengthAdjust="spacing" textLength="63" x="511" y="205.9336">numYCells</text></g><!--MD5=[c5fead04db50ad272312b70da3db85d3]
link Building to Floor--><g id="link_Building_Floor"><path codeLine="30" d="M362.09,305.6585 C358.54,315.1585 354.88,325.6385 352,335.4385 C347.38,351.1385 343.4,369.1085 340.57,383.2285 " fill="none" id="Building-Floor" style="stroke:#181818;stroke-width:1.0;"/><polygon fill="#000000" points="355.6634,349.4323,360.9133,341.5021,355.2494,339.9307,355.6634,349.4323" style="stroke:#000000;stroke-width:1.0;"/><text fill="#000000" font-family="sans-serif" font-size="13" lengthAdjust="spacing" textLength="21" x="366" y="349.9336">has</text><text fill="#000000" font-family="sans-serif" font-size="13" lengthAdjust="spacing" textLength="7" x="352.0644" y="326.8047">1</text><text fill="#000000" font-family="sans-serif" font-size="13" lengthAdjust="spacing" textLength="5" x="336.0746" y="372.5858">*</text></g><!--MD5=[ff932f6882b9b21e4e2a2cd8313daebb]
link Building to Elevator--><g id="link_Building_Elevator"><path codeLine="31" d="M392.72,305.6585 C405.81,329.4385 423.35,361.3285 435.36,383.1385 " fill="none" id="Building-Elevator" style="stroke:#181818;stroke-width:1.0;"/><polygon fill="#000000" points="425.4107,348.9947,423.6245,339.6534,418.4749,342.4874,425.4107,348.9947" style="stroke:#000000;stroke-width:1.0;"/><text fill="#000000" font-family="sans-serif" font-size="13" lengthAdjust="spacing" textLength="21" x="432" y="349.9336">has</text><text fill="#000000" font-family="sans-serif" font-size="13" lengthAdjust="spacing" textLength="7" x="388.3418" y="326.8047">1</text><text fill="#000000" font-family="sans-serif" font-size="13" lengthAdjust="spacing" textLength="7" x="424.1821" y="372.4739">1</text></g><!--MD5=[7d89e72098c39f644fe3c8561f1e06f1]
@startuml

skinparam titleFontSize 25
title <u>US 180 - Domain classes</u>

hide methods
skinparam classAttributeIconSize 0

'Building aggregate
package "<<aggregate>> Building" {
    entity Building <<entity>> <<root>>
    class Code <<(V, #FF8B40) value object>>
    class BuildingName <<(V, #FF8B40) value object>>
    class Description <<(V, #FF8B40) value object>>
    class BuildingDimension <<(V, #FF8B40) value object>>

    entity Floor <<entity>>

    entity Elevator <<entity>>

}

'Value objects
Building -up-> Code
Building -up-> BuildingName
Building -up-> Description
Building -up-> BuildingDimension : numXCells
Building -up-> BuildingDimension : numYCells

'Navigation
Building "1" - - "*" Floor : has >
Building "1" - - "1" Elevator : has >

@enduml

@startuml

skinparam titleFontSize 25
title <u>US 180 - Domain classes</u>

hide methods
skinparam classAttributeIconSize 0

package "<<aggregate>> Building" {
    entity Building <<entity>> <<root>>
    class Code <<(V, #FF8B40) value object>>
    class BuildingName <<(V, #FF8B40) value object>>
    class Description <<(V, #FF8B40) value object>>
    class BuildingDimension <<(V, #FF8B40) value object>>

    entity Floor <<entity>>

    entity Elevator <<entity>>

}

Building -up-> Code
Building -up-> BuildingName
Building -up-> Description
Building -up-> BuildingDimension : numXCells
Building -up-> BuildingDimension : numYCells

Building "1" - - "*" Floor : has >
Building "1" - - "1" Elevator : has >

@enduml

PlantUML version 1.2022.7(Mon Aug 22 18:01:30 WEST 2022)
(GPL source distribution)
Java Runtime: Java(TM) SE Runtime Environment
JVM: Java HotSpot(TM) 64-Bit Server VM
Default Encoding: Cp1252
Language: pt
Country: PT
--></g></svg>