<?xml version="1.0" encoding="UTF-8" standalone="no"?><svg xmlns="http://www.w3.org/2000/svg" xmlns:xlink="http://www.w3.org/1999/xlink" contentStyleType="text/css" height="660px" preserveAspectRatio="none" style="width:1700px;height:660px;background:#FFFFFF;" version="1.1" viewBox="0 0 1700 660" width="1700px" zoomAndPan="magnify"><defs/><g><rect fill="none" height="27.6094" id="_title" style="stroke:none;stroke-width:1.0;" width="235" x="734" y="10"/><text fill="#000000" font-family="sans-serif" font-size="14" font-weight="bold" lengthAdjust="spacing" textLength="225" x="739" y="29.5332">Sequence Diagram (SD) - US 180</text><rect fill="#FFFFFF" height="352.6406" style="stroke:#181818;stroke-width:1.0;" width="10" x="275" y="174.7891"/><rect fill="#FFFFFF" height="291.9375" style="stroke:#181818;stroke-width:1.0;" width="10" x="549" y="205.1406"/><rect fill="#FFFFFF" height="231.2344" style="stroke:#181818;stroke-width:1.0;" width="10" x="823" y="235.4922"/><rect fill="#FFFFFF" height="30" style="stroke:#181818;stroke-width:1.0;" width="10" x="1367" y="265.8438"/><rect fill="#FFFFFF" height="30.3516" style="stroke:#181818;stroke-width:1.0;" width="10" x="1471" y="351.5469"/><rect fill="none" height="126.5313" style="stroke:#000000;stroke-width:1.5;" width="935" x="759" y="310.8438"/><line style="stroke:#181818;stroke-width:0.5;stroke-dasharray:5.0,5.0;" x1="279.5" x2="279.5" y1="142.4375" y2="545.4297"/><line style="stroke:#181818;stroke-width:0.5;stroke-dasharray:5.0,5.0;" x1="553.5" x2="553.5" y1="142.4375" y2="545.4297"/><line style="stroke:#181818;stroke-width:0.5;stroke-dasharray:5.0,5.0;" x1="828" x2="828" y1="142.4375" y2="545.4297"/><line style="stroke:#181818;stroke-width:0.5;stroke-dasharray:5.0,5.0;" x1="936" x2="936" y1="142.4375" y2="545.4297"/><line style="stroke:#181818;stroke-width:0.5;stroke-dasharray:5.0,5.0;" x1="1024" x2="1024" y1="142.4375" y2="545.4297"/><line style="stroke:#181818;stroke-width:0.5;stroke-dasharray:5.0,5.0;" x1="1112" x2="1112" y1="142.4375" y2="545.4297"/><line style="stroke:#181818;stroke-width:0.5;stroke-dasharray:5.0,5.0;" x1="1371.5" x2="1371.5" y1="142.4375" y2="545.4297"/><line style="stroke:#181818;stroke-width:0.5;stroke-dasharray:5.0,5.0;" x1="1475.5" x2="1475.5" y1="142.4375" y2="545.4297"/><line style="stroke:#181818;stroke-width:0.5;stroke-dasharray:5.0,5.0;" x1="1622" x2="1622" y1="408.4609" y2="545.4297"/><rect fill="#E3E3E3" height="49.2188" rx="2.5" ry="2.5" style="stroke:#181818;stroke-width:0.5;" width="101" x="229.5" y="92.2188"/><text fill="#000000" font-family="sans-serif" font-size="14" font-style="italic" lengthAdjust="spacing" textLength="46" x="257" y="113.752">«Web»</text><text fill="#000000" font-family="sans-serif" font-size="14" lengthAdjust="spacing" textLength="87" x="236.5" y="131.3613">buildingRoute</text><rect fill="#E3E3E3" height="49.2188" rx="2.5" ry="2.5" style="stroke:#181818;stroke-width:0.5;" width="101" x="229.5" y="544.4297"/><text fill="#000000" font-family="sans-serif" font-size="14" font-style="italic" lengthAdjust="spacing" textLength="46" x="257" y="565.9629">«Web»</text><text fill="#000000" font-family="sans-serif" font-size="14" lengthAdjust="spacing" textLength="87" x="236.5" y="583.5723">buildingRoute</text><text fill="#000000" font-family="sans-serif" font-size="14" font-style="italic" lengthAdjust="spacing" textLength="85" x="508.5" y="104.1426">«Controllers»</text><text fill="#000000" font-family="sans-serif" font-size="14" lengthAdjust="spacing" textLength="119" x="491.5" y="121.752">buildingController :</text><text fill="#000000" font-family="sans-serif" font-size="14" lengthAdjust="spacing" textLength="111" x="497.5" y="139.3613">buildingController</text><ellipse cx="554" cy="73.6094" fill="#E3E3E3" rx="12" ry="12" style="stroke:#181818;stroke-width:0.5;"/><polygon fill="#181818" points="550,61.6094,556,56.6094,554,61.6094,556,66.6094,550,61.6094" style="stroke:#181818;stroke-width:1.0;"/><text fill="#000000" font-family="sans-serif" font-size="14" font-style="italic" lengthAdjust="spacing" textLength="85" x="508.5" y="558.9629">«Controllers»</text><text fill="#000000" font-family="sans-serif" font-size="14" lengthAdjust="spacing" textLength="119" x="491.5" y="576.5723">buildingController :</text><text fill="#000000" font-family="sans-serif" font-size="14" lengthAdjust="spacing" textLength="111" x="497.5" y="594.1816">buildingController</text><ellipse cx="554" cy="613.2578" fill="#E3E3E3" rx="12" ry="12" style="stroke:#181818;stroke-width:0.5;"/><polygon fill="#181818" points="550,601.2578,556,596.2578,554,601.2578,556,606.2578,550,601.2578" style="stroke:#181818;stroke-width:1.0;"/><rect fill="#E3E3E3" height="66.8281" rx="2.5" ry="2.5" style="stroke:#181818;stroke-width:0.5;" width="118" x="769" y="74.6094"/><text fill="#000000" font-family="sans-serif" font-size="14" font-style="italic" lengthAdjust="spacing" textLength="85" x="785.5" y="96.1426">«Use Cases»</text><text fill="#000000" font-family="sans-serif" font-size="14" lengthAdjust="spacing" textLength="104" x="776" y="113.752">buildingService :</text><text fill="#000000" font-family="sans-serif" font-size="14" lengthAdjust="spacing" textLength="96" x="782" y="131.3613">buildingService</text><rect fill="#E3E3E3" height="66.8281" rx="2.5" ry="2.5" style="stroke:#181818;stroke-width:0.5;" width="118" x="769" y="544.4297"/><text fill="#000000" font-family="sans-serif" font-size="14" font-style="italic" lengthAdjust="spacing" textLength="85" x="785.5" y="565.9629">«Use Cases»</text><text fill="#000000" font-family="sans-serif" font-size="14" lengthAdjust="spacing" textLength="104" x="776" y="583.5723">buildingService :</text><text fill="#000000" font-family="sans-serif" font-size="14" lengthAdjust="spacing" textLength="96" x="782" y="601.1816">buildingService</text><rect fill="#E3E3E3" height="66.8281" rx="2.5" ry="2.5" style="stroke:#181818;stroke-width:0.5;" width="78" x="897" y="74.6094"/><text fill="#000000" font-family="sans-serif" font-size="14" font-style="italic" lengthAdjust="spacing" textLength="64" x="904" y="96.1426">«Domain»</text><text fill="#000000" font-family="sans-serif" font-size="14" lengthAdjust="spacing" textLength="57" x="907.5" y="113.752">building :</text><text fill="#000000" font-family="sans-serif" font-size="14" lengthAdjust="spacing" textLength="49" x="913.5" y="131.3613">building</text><rect fill="#E3E3E3" height="66.8281" rx="2.5" ry="2.5" style="stroke:#181818;stroke-width:0.5;" width="78" x="897" y="544.4297"/><text fill="#000000" font-family="sans-serif" font-size="14" font-style="italic" lengthAdjust="spacing" textLength="64" x="904" y="565.9629">«Domain»</text><text fill="#000000" font-family="sans-serif" font-size="14" lengthAdjust="spacing" textLength="57" x="907.5" y="583.5723">building :</text><text fill="#000000" font-family="sans-serif" font-size="14" lengthAdjust="spacing" textLength="49" x="913.5" y="601.1816">building</text><rect fill="#E3E3E3" height="66.8281" rx="2.5" ry="2.5" style="stroke:#181818;stroke-width:0.5;" width="78" x="985" y="74.6094"/><text fill="#000000" font-family="sans-serif" font-size="14" font-style="italic" lengthAdjust="spacing" textLength="64" x="992" y="96.1426">«Domain»</text><text fill="#000000" font-family="sans-serif" font-size="14" lengthAdjust="spacing" textLength="36" x="1006" y="113.752">floor :</text><text fill="#000000" font-family="sans-serif" font-size="14" lengthAdjust="spacing" textLength="28" x="1012" y="131.3613">floor</text><rect fill="#E3E3E3" height="66.8281" rx="2.5" ry="2.5" style="stroke:#181818;stroke-width:0.5;" width="78" x="985" y="544.4297"/><text fill="#000000" font-family="sans-serif" font-size="14" font-style="italic" lengthAdjust="spacing" textLength="64" x="992" y="565.9629">«Domain»</text><text fill="#000000" font-family="sans-serif" font-size="14" lengthAdjust="spacing" textLength="36" x="1006" y="583.5723">floor :</text><text fill="#000000" font-family="sans-serif" font-size="14" lengthAdjust="spacing" textLength="28" x="1012" y="601.1816">floor</text><rect fill="#E3E3E3" height="66.8281" rx="2.5" ry="2.5" style="stroke:#181818;stroke-width:0.5;" width="78" x="1073" y="74.6094"/><text fill="#000000" font-family="sans-serif" font-size="14" font-style="italic" lengthAdjust="spacing" textLength="64" x="1080" y="96.1426">«Domain»</text><text fill="#000000" font-family="sans-serif" font-size="14" lengthAdjust="spacing" textLength="59" x="1082.5" y="113.752">elevator :</text><text fill="#000000" font-family="sans-serif" font-size="14" lengthAdjust="spacing" textLength="51" x="1088.5" y="131.3613">elevator</text><rect fill="#E3E3E3" height="66.8281" rx="2.5" ry="2.5" style="stroke:#181818;stroke-width:0.5;" width="78" x="1073" y="544.4297"/><text fill="#000000" font-family="sans-serif" font-size="14" font-style="italic" lengthAdjust="spacing" textLength="64" x="1080" y="565.9629">«Domain»</text><text fill="#000000" font-family="sans-serif" font-size="14" lengthAdjust="spacing" textLength="59" x="1082.5" y="583.5723">elevator :</text><text fill="#000000" font-family="sans-serif" font-size="14" lengthAdjust="spacing" textLength="51" x="1088.5" y="601.1816">elevator</text><text fill="#000000" font-family="sans-serif" font-size="14" font-style="italic" lengthAdjust="spacing" textLength="78" x="1330" y="104.1426">«Gateways»</text><text fill="#000000" font-family="sans-serif" font-size="14" lengthAdjust="spacing" textLength="91" x="1323.5" y="121.752">buildingRepo :</text><text fill="#000000" font-family="sans-serif" font-size="14" lengthAdjust="spacing" textLength="83" x="1329.5" y="139.3613">buildingRepo</text><path d="M1354,53.6094 C1354,43.6094 1372,43.6094 1372,43.6094 C1372,43.6094 1390,43.6094 1390,53.6094 L1390,79.6094 C1390,89.6094 1372,89.6094 1372,89.6094 C1372,89.6094 1354,89.6094 1354,79.6094 L1354,53.6094 " fill="#E3E3E3" style="stroke:#181818;stroke-width:1.5;"/><path d="M1354,53.6094 C1354,63.6094 1372,63.6094 1372,63.6094 C1372,63.6094 1390,63.6094 1390,53.6094 " fill="none" style="stroke:#181818;stroke-width:1.5;"/><text fill="#000000" font-family="sans-serif" font-size="14" font-style="italic" lengthAdjust="spacing" textLength="78" x="1330" y="558.9629">«Gateways»</text><text fill="#000000" font-family="sans-serif" font-size="14" lengthAdjust="spacing" textLength="91" x="1323.5" y="576.5723">buildingRepo :</text><text fill="#000000" font-family="sans-serif" font-size="14" lengthAdjust="spacing" textLength="83" x="1329.5" y="594.1816">buildingRepo</text><path d="M1354,607.2578 C1354,597.2578 1372,597.2578 1372,597.2578 C1372,597.2578 1390,597.2578 1390,607.2578 L1390,633.2578 C1390,643.2578 1372,643.2578 1372,643.2578 C1372,643.2578 1354,643.2578 1354,633.2578 L1354,607.2578 " fill="#E3E3E3" style="stroke:#181818;stroke-width:1.5;"/><path d="M1354,607.2578 C1354,617.2578 1372,617.2578 1372,617.2578 C1372,617.2578 1390,617.2578 1390,607.2578 " fill="none" style="stroke:#181818;stroke-width:1.5;"/><rect fill="#E3E3E3" height="49.2188" rx="2.5" ry="2.5" style="stroke:#181818;stroke-width:0.5;" width="91" x="1430.5" y="92.2188"/><text fill="#000000" font-family="sans-serif" font-size="14" font-style="italic" lengthAdjust="spacing" textLength="65" x="1443.5" y="113.752">«Mapper»</text><text fill="#000000" font-family="sans-serif" font-size="14" lengthAdjust="spacing" textLength="77" x="1437.5" y="131.3613">BuildingMap</text><rect fill="#E3E3E3" height="49.2188" rx="2.5" ry="2.5" style="stroke:#181818;stroke-width:0.5;" width="91" x="1430.5" y="544.4297"/><text fill="#000000" font-family="sans-serif" font-size="14" font-style="italic" lengthAdjust="spacing" textLength="65" x="1443.5" y="565.9629">«Mapper»</text><text fill="#000000" font-family="sans-serif" font-size="14" lengthAdjust="spacing" textLength="77" x="1437.5" y="583.5723">BuildingMap</text><rect fill="#E3E3E3" height="66.8281" rx="2.5" ry="2.5" style="stroke:#181818;stroke-width:0.5;" width="124" x="1560" y="544.4297"/><text fill="#000000" font-family="sans-serif" font-size="14" font-style="italic" lengthAdjust="spacing" textLength="46" x="1599" y="565.9629">«DTO»</text><text fill="#000000" font-family="sans-serif" font-size="14" lengthAdjust="spacing" textLength="110" x="1567" y="583.5723">buildingInfoDTO :</text><text fill="#000000" font-family="sans-serif" font-size="14" lengthAdjust="spacing" textLength="103" x="1572.5" y="601.1816">BuildingInfoDTO</text><rect fill="#FFFFFF" height="352.6406" style="stroke:#181818;stroke-width:1.0;" width="10" x="275" y="174.7891"/><rect fill="#FFFFFF" height="291.9375" style="stroke:#181818;stroke-width:1.0;" width="10" x="549" y="205.1406"/><rect fill="#FFFFFF" height="231.2344" style="stroke:#181818;stroke-width:1.0;" width="10" x="823" y="235.4922"/><rect fill="#FFFFFF" height="30" style="stroke:#181818;stroke-width:1.0;" width="10" x="1367" y="265.8438"/><rect fill="#FFFFFF" height="30.3516" style="stroke:#181818;stroke-width:1.0;" width="10" x="1471" y="351.5469"/><ellipse cx="4.5" cy="174.0391" fill="none" rx="4" ry="4" style="stroke:#181818;stroke-width:1.5;"/><polygon fill="#181818" points="263,170.7891,273,174.7891,263,178.7891,267,174.7891" style="stroke:#181818;stroke-width:1.0;"/><line style="stroke:#181818;stroke-width:1.0;" x1="9" x2="269" y1="174.7891" y2="174.7891"/><text fill="#000000" font-family="sans-serif" font-size="13" font-weight="bold" lengthAdjust="spacing" textLength="7" x="12" y="169.9326">1</text><text fill="#000000" font-family="sans-serif" font-size="13" lengthAdjust="spacing" textLength="237" x="23" y="169.9326">GET (.../buildings?min=:min&amp;max=:max)</text><polygon fill="#181818" points="537,201.1406,547,205.1406,537,209.1406,541,205.1406" style="stroke:#181818;stroke-width:1.0;"/><line style="stroke:#181818;stroke-width:1.0;" x1="285" x2="543" y1="205.1406" y2="205.1406"/><text fill="#000000" font-family="sans-serif" font-size="13" font-weight="bold" lengthAdjust="spacing" textLength="7" x="292" y="200.2842">2</text><text fill="#000000" font-family="sans-serif" font-size="13" lengthAdjust="spacing" textLength="234" x="303" y="200.2842">getBuildingsBetweenMinAndMaxFloors()</text><polygon fill="#181818" points="811,231.4922,821,235.4922,811,239.4922,815,235.4922" style="stroke:#181818;stroke-width:1.0;"/><line style="stroke:#181818;stroke-width:1.0;" x1="559" x2="817" y1="235.4922" y2="235.4922"/><text fill="#000000" font-family="sans-serif" font-size="13" font-weight="bold" lengthAdjust="spacing" textLength="7" x="566" y="230.6357">3</text><text fill="#000000" font-family="sans-serif" font-size="13" lengthAdjust="spacing" textLength="234" x="577" y="230.6357">getBuildingsBetweenMinAndMaxFloors()</text><polygon fill="#181818" points="1355,261.8438,1365,265.8438,1355,269.8438,1359,265.8438" style="stroke:#181818;stroke-width:1.0;"/><line style="stroke:#181818;stroke-width:1.0;" x1="833" x2="1361" y1="265.8438" y2="265.8438"/><text fill="#000000" font-family="sans-serif" font-size="13" font-weight="bold" lengthAdjust="spacing" textLength="7" x="840" y="260.9873">4</text><text fill="#000000" font-family="sans-serif" font-size="13" lengthAdjust="spacing" textLength="504" x="851" y="260.9873">buildingsInfos = getBuildingsBetweenMinAndMaxFloors(numMinFloors, numMaxFloors)</text><path d="M759,310.8438 L832,310.8438 L832,319.1953 L822,329.1953 L759,329.1953 L759,310.8438 " fill="#EEEEEE" style="stroke:#000000;stroke-width:1.5;"/><rect fill="none" height="126.5313" style="stroke:#000000;stroke-width:1.5;" width="935" x="759" y="310.8438"/><text fill="#000000" font-family="sans-serif" font-size="13" font-weight="bold" lengthAdjust="spacing" textLength="28" x="774" y="325.3389">loop</text><text fill="#000000" font-family="sans-serif" font-size="11" font-weight="bold" lengthAdjust="spacing" textLength="102" x="847" y="324.2627">[each buildingInfo]</text><polygon fill="#181818" points="1459,347.5469,1469,351.5469,1459,355.5469,1463,351.5469" style="stroke:#181818;stroke-width:1.0;"/><line style="stroke:#181818;stroke-width:1.0;" x1="833" x2="1465" y1="351.5469" y2="351.5469"/><text fill="#000000" font-family="sans-serif" font-size="13" font-weight="bold" lengthAdjust="spacing" textLength="7" x="840" y="346.6904">5</text><text fill="#000000" font-family="sans-serif" font-size="13" lengthAdjust="spacing" textLength="235" x="851" y="346.6904">buildingInfoDTO = toInfoDTO(buildingInfo)</text><polygon fill="#181818" points="1548,377.8984,1558,381.8984,1548,385.8984,1552,381.8984" style="stroke:#181818;stroke-width:1.0;"/><line style="stroke:#181818;stroke-width:1.0;stroke-dasharray:2.0,2.0;" x1="1476" x2="1554" y1="381.8984" y2="381.8984"/><text fill="#000000" font-family="sans-serif" font-size="13" font-weight="bold" lengthAdjust="spacing" textLength="7" x="1483" y="377.042">6</text><text fill="#000000" font-family="sans-serif" font-size="13" lengthAdjust="spacing" textLength="44" x="1494" y="377.042">create()</text><rect fill="#E3E3E3" height="66.8281" rx="2.5" ry="2.5" style="stroke:#181818;stroke-width:0.5;" width="124" x="1560" y="359.5469"/><text fill="#000000" font-family="sans-serif" font-size="14" font-style="italic" lengthAdjust="spacing" textLength="46" x="1599" y="381.0801">«DTO»</text><text fill="#000000" font-family="sans-serif" font-size="14" lengthAdjust="spacing" textLength="110" x="1567" y="398.6895">buildingInfoDTO :</text><text fill="#000000" font-family="sans-serif" font-size="14" lengthAdjust="spacing" textLength="103" x="1572.5" y="416.2988">BuildingInfoDTO</text><polygon fill="#181818" points="570,462.7266,560,466.7266,570,470.7266,566,466.7266" style="stroke:#181818;stroke-width:1.0;"/><line style="stroke:#181818;stroke-width:1.0;stroke-dasharray:2.0,2.0;" x1="564" x2="827" y1="466.7266" y2="466.7266"/><text fill="#000000" font-family="sans-serif" font-size="13" font-weight="bold" lengthAdjust="spacing" textLength="7" x="576" y="461.8701">7</text><text fill="#000000" font-family="sans-serif" font-size="13" lengthAdjust="spacing" textLength="90" x="587" y="461.8701">buildingInfoDTO</text><polygon fill="#181818" points="296,493.0781,286,497.0781,296,501.0781,292,497.0781" style="stroke:#181818;stroke-width:1.0;"/><line style="stroke:#181818;stroke-width:1.0;stroke-dasharray:2.0,2.0;" x1="290" x2="553" y1="497.0781" y2="497.0781"/><text fill="#000000" font-family="sans-serif" font-size="13" font-weight="bold" lengthAdjust="spacing" textLength="7" x="302" y="492.2217">8</text><text fill="#000000" font-family="sans-serif" font-size="13" lengthAdjust="spacing" textLength="90" x="313" y="492.2217">buildingInfoDTO</text><polygon fill="#181818" points="11,523.4297,1,527.4297,11,531.4297,7,527.4297" style="stroke:#181818;stroke-width:1.0;"/><line style="stroke:#181818;stroke-width:1.0;stroke-dasharray:2.0,2.0;" x1="5" x2="279" y1="527.4297" y2="527.4297"/><text fill="#000000" font-family="sans-serif" font-size="13" font-weight="bold" lengthAdjust="spacing" textLength="7" x="17" y="522.5732">9</text><text fill="#000000" font-family="sans-serif" font-size="13" lengthAdjust="spacing" textLength="90" x="28" y="522.5732">buildingInfoDTO</text><!--MD5=[e7bd90ada2de628dd8d4314effc330c9]
@startuml
skinparam monochrome true
skinparam packageStyle rectangle
skinparam shadowing false

title Sequence Diagram (SD) - US 180
autonumber

participant buildingRoute as route <<Web>>
control "buildingController :\n buildingController" as controller <<Controllers>>
participant "buildingService :\n buildingService" as service <<Use Cases>>
participant "building :\n building" as building <<Domain>>
participant "floor :\n floor" as floor <<Domain>>
participant "elevator :\n elevator" as elevator <<Domain>>
database "buildingRepo :\n buildingRepo" as repo <<Gateways>>
participant BuildingMap as map <<Mapper>>
participant "buildingInfoDTO :\n BuildingInfoDTO" as dto <<DTO>>

?o->route : GET (.../buildings?min=:min&max=:max)
activate route
    route -> controller : getBuildingsBetweenMinAndMaxFloors()

    activate controller
        controller -> service : getBuildingsBetweenMinAndMaxFloors()

        activate service
            service -> repo : buildingsInfos = getBuildingsBetweenMinAndMaxFloors(numMinFloors, numMaxFloors)
            activate repo
            deactivate repo

            loop each buildingInfo
                service -> map : buildingInfoDTO = toInfoDTO(buildingInfo)
                activate map
                    map - -> dto** : create()
                deactivate map
            end

            service - -> controller : buildingInfoDTO
        deactivate service

        controller - -> route : buildingInfoDTO
    deactivate controller
    <- - route : buildingInfoDTO
deactivate route

@enduml

PlantUML version 1.2022.7(Mon Aug 22 18:01:30 WEST 2022)
(GPL source distribution)
Java Runtime: Java(TM) SE Runtime Environment
JVM: Java HotSpot(TM) 64-Bit Server VM
Default Encoding: Cp1252
Language: pt
Country: PT
--></g></svg>