<?xml version="1.0" encoding="us-ascii" standalone="no"?><svg xmlns="http://www.w3.org/2000/svg" xmlns:xlink="http://www.w3.org/1999/xlink" contentStyleType="text/css" height="1336px" preserveAspectRatio="none" style="width:1369px;height:1336px;background:#FFFFFF;" version="1.1" viewBox="0 0 1369 1336" width="1369px" zoomAndPan="magnify"><defs/><g><text fill="#000000" font-family="sans-serif" font-size="14" font-weight="bold" lengthAdjust="spacing" textLength="372" x="497.75" y="30.1074">Sequence Diagram (Level 3 - Process View) - US 1090</text><rect fill="#FFFFFF" height="451.0645" style="stroke:#181818;stroke-width:1.0;" width="10" x="194" y="148.7754"/><rect fill="#FFFFFF" height="612.791" style="stroke:#181818;stroke-width:1.0;" width="10" x="194" y="631.1309"/><rect fill="#FFFFFF" height="388.4824" style="stroke:#181818;stroke-width:1.0;" width="10" x="372" y="180.0664"/><rect fill="#FFFFFF" height="310.9004" style="stroke:#181818;stroke-width:1.0;" width="10" x="377" y="219.3574"/><rect fill="#FFFFFF" height="550.209" style="stroke:#181818;stroke-width:1.0;" width="10" x="372" y="662.4219"/><rect fill="#FFFFFF" height="472.627" style="stroke:#181818;stroke-width:1.0;" width="10" x="377" y="701.7129"/><rect fill="#FFFFFF" height="237.3184" style="stroke:#181818;stroke-width:1.0;" width="10" x="715.5" y="255.6484"/><rect fill="#FFFFFF" height="318.1816" style="stroke:#181818;stroke-width:1.0;" width="10" x="715.5" y="818.8672"/><rect fill="#FFFFFF" height="93.873" style="stroke:#181818;stroke-width:1.0;" width="10" x="1174.5" y="286.9395"/><rect fill="#FFFFFF" height="93.873" style="stroke:#181818;stroke-width:1.0;" width="10" x="1174.5" y="1011.8848"/><rect fill="#FFFFFF" height="31.291" style="stroke:#181818;stroke-width:1.0;" width="10" x="1312.5" y="318.2305"/><rect fill="#FFFFFF" height="31.291" style="stroke:#181818;stroke-width:1.0;" width="10" x="1312.5" y="1043.1758"/><line style="stroke:#181818;stroke-width:0.5;stroke-dasharray:5.0,5.0;" x1="198.5" x2="198.5" y1="115.4844" y2="1261.9219"/><line style="stroke:#181818;stroke-width:0.5;stroke-dasharray:5.0,5.0;" x1="376.5" x2="376.5" y1="115.4844" y2="1261.9219"/><line style="stroke:#181818;stroke-width:0.5;stroke-dasharray:5.0,5.0;" x1="583" x2="583" y1="765.1445" y2="1261.9219"/><line style="stroke:#181818;stroke-width:0.5;stroke-dasharray:5.0,5.0;" x1="720" x2="720" y1="115.4844" y2="1261.9219"/><line style="stroke:#181818;stroke-width:0.5;stroke-dasharray:5.0,5.0;" x1="870" x2="870" y1="439.2441" y2="1261.9219"/><line style="stroke:#181818;stroke-width:0.5;stroke-dasharray:5.0,5.0;" x1="973" x2="973" y1="877.2988" y2="1261.9219"/><line style="stroke:#181818;stroke-width:0.5;stroke-dasharray:5.0,5.0;" x1="1061" x2="1061" y1="958.1621" y2="1261.9219"/><line style="stroke:#181818;stroke-width:0.5;stroke-dasharray:5.0,5.0;" x1="1179" x2="1179" y1="115.4844" y2="1261.9219"/><line style="stroke:#181818;stroke-width:0.5;stroke-dasharray:5.0,5.0;" x1="1317.5" x2="1317.5" y1="115.4844" y2="1261.9219"/><rect fill="#E3E3E3" height="51.2422" rx="2.5" ry="2.5" style="stroke:#181818;stroke-width:0.5;" width="101" x="148.5" y="63.2422"/><text fill="#000000" font-family="sans-serif" font-size="14" font-style="italic" lengthAdjust="spacing" textLength="54" x="172" y="85.3496">&#171;Route&#187;</text><text fill="#000000" font-family="sans-serif" font-size="14" lengthAdjust="spacing" textLength="87" x="155.5" y="103.9707">buildingRoute</text><rect fill="#E3E3E3" height="51.2422" rx="2.5" ry="2.5" style="stroke:#181818;stroke-width:0.5;" width="101" x="148.5" y="1260.9219"/><text fill="#000000" font-family="sans-serif" font-size="14" font-style="italic" lengthAdjust="spacing" textLength="54" x="172" y="1283.0293">&#171;Route&#187;</text><text fill="#000000" font-family="sans-serif" font-size="14" lengthAdjust="spacing" textLength="87" x="155.5" y="1301.6504">buildingRoute</text><rect fill="#E3E3E3" height="69.8633" rx="2.5" ry="2.5" style="stroke:#181818;stroke-width:0.5;" width="133" x="310.5" y="44.6211"/><text fill="#000000" font-family="sans-serif" font-size="14" font-style="italic" lengthAdjust="spacing" textLength="78" x="338" y="66.7285">&#171;Controller&#187;</text><text fill="#000000" font-family="sans-serif" font-size="14" lengthAdjust="spacing" textLength="77" x="338.5" y="85.3496">ctrlBuilding :</text><text fill="#000000" font-family="sans-serif" font-size="14" lengthAdjust="spacing" textLength="115" x="321.5" y="103.9707">IBuildingController</text><rect fill="#E3E3E3" height="69.8633" rx="2.5" ry="2.5" style="stroke:#181818;stroke-width:0.5;" width="133" x="310.5" y="1260.9219"/><text fill="#000000" font-family="sans-serif" font-size="14" font-style="italic" lengthAdjust="spacing" textLength="78" x="338" y="1283.0293">&#171;Controller&#187;</text><text fill="#000000" font-family="sans-serif" font-size="14" lengthAdjust="spacing" textLength="77" x="338.5" y="1301.6504">ctrlBuilding :</text><text fill="#000000" font-family="sans-serif" font-size="14" lengthAdjust="spacing" textLength="115" x="321.5" y="1320.2715">IBuildingController</text><rect fill="#E3E3E3" height="69.8633" rx="2.5" ry="2.5" style="stroke:#181818;stroke-width:0.5;" width="84" x="541" y="1260.9219"/><text fill="#000000" font-family="sans-serif" font-size="14" font-style="italic" lengthAdjust="spacing" textLength="46" x="560" y="1283.0293">&#171;DTO&#187;</text><text fill="#000000" font-family="sans-serif" font-size="14" lengthAdjust="spacing" textLength="66" x="550" y="1301.6504">floorDTO :</text><text fill="#000000" font-family="sans-serif" font-size="14" lengthAdjust="spacing" textLength="66" x="552" y="1320.2715">IFloorDTO</text><rect fill="#E3E3E3" height="69.8633" rx="2.5" ry="2.5" style="stroke:#181818;stroke-width:0.5;" width="171" x="635" y="44.6211"/><text fill="#000000" font-family="sans-serif" font-size="14" font-style="italic" lengthAdjust="spacing" textLength="62" x="689.5" y="66.7285">&#171;Service&#187;</text><text fill="#000000" font-family="sans-serif" font-size="14" lengthAdjust="spacing" textLength="157" x="642" y="85.3496">buildingServiceInstance :</text><text fill="#000000" font-family="sans-serif" font-size="14" lengthAdjust="spacing" textLength="100" x="672.5" y="103.9707">IBuildingService</text><rect fill="#E3E3E3" height="69.8633" rx="2.5" ry="2.5" style="stroke:#181818;stroke-width:0.5;" width="171" x="635" y="1260.9219"/><text fill="#000000" font-family="sans-serif" font-size="14" font-style="italic" lengthAdjust="spacing" textLength="62" x="689.5" y="1283.0293">&#171;Service&#187;</text><text fill="#000000" font-family="sans-serif" font-size="14" lengthAdjust="spacing" textLength="157" x="642" y="1301.6504">buildingServiceInstance :</text><text fill="#000000" font-family="sans-serif" font-size="14" lengthAdjust="spacing" textLength="100" x="672.5" y="1320.2715">IBuildingService</text><rect fill="#E3E3E3" height="69.8633" rx="2.5" ry="2.5" style="stroke:#181818;stroke-width:0.5;" width="108" x="816" y="1260.9219"/><text fill="#000000" font-family="sans-serif" font-size="14" font-style="italic" lengthAdjust="spacing" textLength="46" x="847" y="1283.0293">&#171;DTO&#187;</text><text fill="#000000" font-family="sans-serif" font-size="14" lengthAdjust="spacing" textLength="94" x="823" y="1301.6504">buildingDTOs :</text><text fill="#000000" font-family="sans-serif" font-size="14" lengthAdjust="spacing" textLength="88" x="828" y="1320.2715">IBuildngDTO[]</text><rect fill="#E3E3E3" height="69.8633" rx="2.5" ry="2.5" style="stroke:#181818;stroke-width:0.5;" width="78" x="934" y="1260.9219"/><text fill="#000000" font-family="sans-serif" font-size="14" font-style="italic" lengthAdjust="spacing" textLength="64" x="941" y="1283.0293">&#171;Domain&#187;</text><text fill="#000000" font-family="sans-serif" font-size="14" lengthAdjust="spacing" textLength="36" x="955" y="1301.6504">floor :</text><text fill="#000000" font-family="sans-serif" font-size="14" lengthAdjust="spacing" textLength="28" x="961" y="1320.2715">floor</text><rect fill="#E3E3E3" height="69.8633" rx="2.5" ry="2.5" style="stroke:#181818;stroke-width:0.5;" width="78" x="1022" y="1260.9219"/><text fill="#000000" font-family="sans-serif" font-size="14" font-style="italic" lengthAdjust="spacing" textLength="64" x="1029" y="1283.0293">&#171;Domain&#187;</text><text fill="#000000" font-family="sans-serif" font-size="14" lengthAdjust="spacing" textLength="57" x="1032.5" y="1301.6504">building :</text><text fill="#000000" font-family="sans-serif" font-size="14" lengthAdjust="spacing" textLength="49" x="1038.5" y="1320.2715">building</text><rect fill="#E3E3E3" height="69.8633" rx="2.5" ry="2.5" style="stroke:#181818;stroke-width:0.5;" width="139" x="1110" y="44.6211"/><text fill="#000000" font-family="sans-serif" font-size="14" font-style="italic" lengthAdjust="spacing" textLength="84" x="1137.5" y="66.7285">&#171;Repository&#187;</text><text fill="#000000" font-family="sans-serif" font-size="14" lengthAdjust="spacing" textLength="91" x="1134" y="85.3496">buildingRepo :</text><text fill="#000000" font-family="sans-serif" font-size="14" lengthAdjust="spacing" textLength="121" x="1121" y="103.9707">IBuildingRepository</text><rect fill="#E3E3E3" height="69.8633" rx="2.5" ry="2.5" style="stroke:#181818;stroke-width:0.5;" width="139" x="1110" y="1260.9219"/><text fill="#000000" font-family="sans-serif" font-size="14" font-style="italic" lengthAdjust="spacing" textLength="84" x="1137.5" y="1283.0293">&#171;Repository&#187;</text><text fill="#000000" font-family="sans-serif" font-size="14" lengthAdjust="spacing" textLength="91" x="1134" y="1301.6504">buildingRepo :</text><text fill="#000000" font-family="sans-serif" font-size="14" lengthAdjust="spacing" textLength="121" x="1121" y="1320.2715">IBuildingRepository</text><rect fill="#E3E3E3" height="51.2422" rx="2.5" ry="2.5" style="stroke:#181818;stroke-width:0.5;" width="92" x="1271.5" y="63.2422"/><text fill="#000000" font-family="sans-serif" font-size="14" font-style="italic" lengthAdjust="spacing" textLength="78" x="1278.5" y="85.3496">&#171;DataBase&#187;</text><text fill="#000000" font-family="sans-serif" font-size="14" lengthAdjust="spacing" textLength="19" x="1308" y="103.9707">DB</text><rect fill="#E3E3E3" height="51.2422" rx="2.5" ry="2.5" style="stroke:#181818;stroke-width:0.5;" width="92" x="1271.5" y="1260.9219"/><text fill="#000000" font-family="sans-serif" font-size="14" font-style="italic" lengthAdjust="spacing" textLength="78" x="1278.5" y="1283.0293">&#171;DataBase&#187;</text><text fill="#000000" font-family="sans-serif" font-size="14" lengthAdjust="spacing" textLength="19" x="1308" y="1301.6504">DB</text><rect fill="#FFFFFF" height="451.0645" style="stroke:#181818;stroke-width:1.0;" width="10" x="194" y="148.7754"/><rect fill="#FFFFFF" height="612.791" style="stroke:#181818;stroke-width:1.0;" width="10" x="194" y="631.1309"/><rect fill="#FFFFFF" height="388.4824" style="stroke:#181818;stroke-width:1.0;" width="10" x="372" y="180.0664"/><rect fill="#FFFFFF" height="310.9004" style="stroke:#181818;stroke-width:1.0;" width="10" x="377" y="219.3574"/><rect fill="#FFFFFF" height="550.209" style="stroke:#181818;stroke-width:1.0;" width="10" x="372" y="662.4219"/><rect fill="#FFFFFF" height="472.627" style="stroke:#181818;stroke-width:1.0;" width="10" x="377" y="701.7129"/><rect fill="#FFFFFF" height="237.3184" style="stroke:#181818;stroke-width:1.0;" width="10" x="715.5" y="255.6484"/><rect fill="#FFFFFF" height="318.1816" style="stroke:#181818;stroke-width:1.0;" width="10" x="715.5" y="818.8672"/><rect fill="#FFFFFF" height="93.873" style="stroke:#181818;stroke-width:1.0;" width="10" x="1174.5" y="286.9395"/><rect fill="#FFFFFF" height="93.873" style="stroke:#181818;stroke-width:1.0;" width="10" x="1174.5" y="1011.8848"/><rect fill="#FFFFFF" height="31.291" style="stroke:#181818;stroke-width:1.0;" width="10" x="1312.5" y="318.2305"/><rect fill="#FFFFFF" height="31.291" style="stroke:#181818;stroke-width:1.0;" width="10" x="1312.5" y="1043.1758"/><ellipse cx="55.5" cy="148.0254" fill="none" rx="4" ry="4" style="stroke:#181818;stroke-width:1.5;"/><polygon fill="#181818" points="182,144.7754,192,148.7754,182,152.7754,186,148.7754" style="stroke:#181818;stroke-width:1.0;"/><line style="stroke:#181818;stroke-width:1.0;" x1="60" x2="188" y1="148.7754" y2="148.7754"/><text fill="#000000" font-family="sans-serif" font-size="13" font-weight="bold" lengthAdjust="spacing" textLength="7" x="63" y="143.5127">1</text><text fill="#000000" font-family="sans-serif" font-size="13" lengthAdjust="spacing" textLength="105" x="74" y="143.5127">GET (.../buildings)</text><polygon fill="#181818" points="360,176.0664,370,180.0664,360,184.0664,364,180.0664" style="stroke:#181818;stroke-width:1.0;"/><line style="stroke:#181818;stroke-width:1.0;" x1="204" x2="366" y1="180.0664" y2="180.0664"/><text fill="#000000" font-family="sans-serif" font-size="13" font-weight="bold" lengthAdjust="spacing" textLength="7" x="211" y="174.8037">2</text><text fill="#000000" font-family="sans-serif" font-size="13" lengthAdjust="spacing" textLength="131" x="222" y="174.8037">execute(req, res, next)</text><line style="stroke:#181818;stroke-width:1.0;" x1="382" x2="429" y1="206.3574" y2="206.3574"/><line style="stroke:#181818;stroke-width:1.0;" x1="429" x2="429" y1="206.3574" y2="219.3574"/><line style="stroke:#181818;stroke-width:1.0;" x1="388" x2="429" y1="219.3574" y2="219.3574"/><polygon fill="#181818" points="398,215.3574,388,219.3574,398,223.3574,394,219.3574" style="stroke:#181818;stroke-width:1.0;"/><text fill="#000000" font-family="sans-serif" font-size="13" font-weight="bold" lengthAdjust="spacing" textLength="7" x="394" y="201.0947">3</text><text fill="#000000" font-family="sans-serif" font-size="13" lengthAdjust="spacing" textLength="171" x="405" y="201.0947">getAllBuildings(req, res, next)</text><polygon fill="#181818" points="703.5,251.6484,713.5,255.6484,703.5,259.6484,707.5,255.6484" style="stroke:#181818;stroke-width:1.0;"/><line style="stroke:#181818;stroke-width:1.0;" x1="387" x2="709.5" y1="255.6484" y2="255.6484"/><text fill="#000000" font-family="sans-serif" font-size="13" font-weight="bold" lengthAdjust="spacing" textLength="7" x="394" y="250.3857">4</text><text fill="#000000" font-family="sans-serif" font-size="13" lengthAdjust="spacing" textLength="79" x="405" y="250.3857">getBuildings()</text><polygon fill="#181818" points="1162.5,282.9395,1172.5,286.9395,1162.5,290.9395,1166.5,286.9395" style="stroke:#181818;stroke-width:1.0;"/><line style="stroke:#181818;stroke-width:1.0;" x1="725.5" x2="1168.5" y1="286.9395" y2="286.9395"/><text fill="#000000" font-family="sans-serif" font-size="13" font-weight="bold" lengthAdjust="spacing" textLength="7" x="732.5" y="281.6768">5</text><text fill="#000000" font-family="sans-serif" font-size="13" lengthAdjust="spacing" textLength="43" x="743.5" y="281.6768">findAll()</text><polygon fill="#181818" points="1300.5,314.2305,1310.5,318.2305,1300.5,322.2305,1304.5,318.2305" style="stroke:#181818;stroke-width:1.0;"/><line style="stroke:#181818;stroke-width:1.0;" x1="1184.5" x2="1306.5" y1="318.2305" y2="318.2305"/><text fill="#000000" font-family="sans-serif" font-size="13" font-weight="bold" lengthAdjust="spacing" textLength="7" x="1191.5" y="312.9678">6</text><text fill="#000000" font-family="sans-serif" font-size="13" lengthAdjust="spacing" textLength="28" x="1202.5" y="312.9678">find()</text><polygon fill="#181818" points="1195.5,345.5215,1185.5,349.5215,1195.5,353.5215,1191.5,349.5215" style="stroke:#181818;stroke-width:1.0;"/><line style="stroke:#181818;stroke-width:1.0;stroke-dasharray:2.0,2.0;" x1="1189.5" x2="1316.5" y1="349.5215" y2="349.5215"/><text fill="#000000" font-family="sans-serif" font-size="13" font-weight="bold" lengthAdjust="spacing" textLength="7" x="1201.5" y="344.2588">7</text><text fill="#000000" font-family="sans-serif" font-size="13" lengthAdjust="spacing" textLength="4" x="1212.5" y="344.2588">&#160;</text><polygon fill="#181818" points="736.5,376.8125,726.5,380.8125,736.5,384.8125,732.5,380.8125" style="stroke:#181818;stroke-width:1.0;"/><line style="stroke:#181818;stroke-width:1.0;stroke-dasharray:2.0,2.0;" x1="730.5" x2="1178.5" y1="380.8125" y2="380.8125"/><text fill="#000000" font-family="sans-serif" font-size="13" font-weight="bold" lengthAdjust="spacing" textLength="7" x="742.5" y="375.5498">8</text><text fill="#000000" font-family="sans-serif" font-size="13" lengthAdjust="spacing" textLength="4" x="753.5" y="375.5498">&#160;</text><polygon fill="#181818" points="804,408.1035,814,412.1035,804,416.1035,808,412.1035" style="stroke:#181818;stroke-width:1.0;"/><line style="stroke:#181818;stroke-width:1.0;stroke-dasharray:2.0,2.0;" x1="725.5" x2="810" y1="412.1035" y2="412.1035"/><text fill="#000000" font-family="sans-serif" font-size="13" font-weight="bold" lengthAdjust="spacing" textLength="7" x="732.5" y="406.8408">9</text><text fill="#000000" font-family="sans-serif" font-size="13" lengthAdjust="spacing" textLength="36" x="743.5" y="406.8408">create</text><rect fill="#E3E3E3" height="69.8633" rx="2.5" ry="2.5" style="stroke:#181818;stroke-width:0.5;" width="108" x="816" y="388.8125"/><text fill="#000000" font-family="sans-serif" font-size="14" font-style="italic" lengthAdjust="spacing" textLength="46" x="847" y="410.9199">&#171;DTO&#187;</text><text fill="#000000" font-family="sans-serif" font-size="14" lengthAdjust="spacing" textLength="94" x="823" y="429.541">buildingDTOs :</text><text fill="#000000" font-family="sans-serif" font-size="14" lengthAdjust="spacing" textLength="88" x="828" y="448.1621">IBuildngDTO[]</text><polygon fill="#181818" points="398,488.9668,388,492.9668,398,496.9668,394,492.9668" style="stroke:#181818;stroke-width:1.0;"/><line style="stroke:#181818;stroke-width:1.0;stroke-dasharray:2.0,2.0;" x1="392" x2="719.5" y1="492.9668" y2="492.9668"/><text fill="#000000" font-family="sans-serif" font-size="13" font-weight="bold" lengthAdjust="spacing" textLength="14" x="404" y="487.7041">10</text><text fill="#000000" font-family="sans-serif" font-size="13" lengthAdjust="spacing" textLength="77" x="422" y="487.7041">buildingDTOs</text><line style="stroke:#181818;stroke-width:1.0;stroke-dasharray:2.0,2.0;" x1="387" x2="429" y1="529.2578" y2="529.2578"/><line style="stroke:#181818;stroke-width:1.0;stroke-dasharray:2.0,2.0;" x1="429" x2="429" y1="529.2578" y2="542.2578"/><line style="stroke:#181818;stroke-width:1.0;stroke-dasharray:2.0,2.0;" x1="382" x2="429" y1="542.2578" y2="542.2578"/><polygon fill="#181818" points="392,538.2578,382,542.2578,392,546.2578,388,542.2578" style="stroke:#181818;stroke-width:1.0;"/><text fill="#000000" font-family="sans-serif" font-size="13" font-weight="bold" lengthAdjust="spacing" textLength="14" x="394" y="523.9951">11</text><text fill="#000000" font-family="sans-serif" font-size="13" lengthAdjust="spacing" textLength="90" x="412" y="523.9951">status: 200/404</text><polygon fill="#181818" points="215,564.5488,205,568.5488,215,572.5488,211,568.5488" style="stroke:#181818;stroke-width:1.0;"/><line style="stroke:#181818;stroke-width:1.0;stroke-dasharray:2.0,2.0;" x1="209" x2="376" y1="568.5488" y2="568.5488"/><text fill="#000000" font-family="sans-serif" font-size="13" font-weight="bold" lengthAdjust="spacing" textLength="14" x="221" y="563.2861">12</text><text fill="#000000" font-family="sans-serif" font-size="13" lengthAdjust="spacing" textLength="90" x="239" y="563.2861">status: 200/404</text><polygon fill="#181818" points="11,595.8398,1,599.8398,11,603.8398,7,599.8398" style="stroke:#181818;stroke-width:1.0;"/><line style="stroke:#181818;stroke-width:1.0;stroke-dasharray:2.0,2.0;" x1="5" x2="198" y1="599.8398" y2="599.8398"/><text fill="#000000" font-family="sans-serif" font-size="13" font-weight="bold" lengthAdjust="spacing" textLength="14" x="17" y="594.5771">13</text><text fill="#000000" font-family="sans-serif" font-size="13" lengthAdjust="spacing" textLength="90" x="35" y="594.5771">status: 200/404</text><ellipse cx="4.5" cy="630.3809" fill="none" rx="4" ry="4" style="stroke:#181818;stroke-width:1.5;"/><polygon fill="#181818" points="182,627.1309,192,631.1309,182,635.1309,186,631.1309" style="stroke:#181818;stroke-width:1.0;"/><line style="stroke:#181818;stroke-width:1.0;" x1="9" x2="188" y1="631.1309" y2="631.1309"/><text fill="#000000" font-family="sans-serif" font-size="13" font-weight="bold" lengthAdjust="spacing" textLength="14" x="12" y="625.8682">14</text><text fill="#000000" font-family="sans-serif" font-size="13" lengthAdjust="spacing" textLength="149" x="30" y="625.8682">POST (.../buildings/floors)</text><polygon fill="#181818" points="360,658.4219,370,662.4219,360,666.4219,364,662.4219" style="stroke:#181818;stroke-width:1.0;"/><line style="stroke:#181818;stroke-width:1.0;" x1="204" x2="366" y1="662.4219" y2="662.4219"/><text fill="#000000" font-family="sans-serif" font-size="13" font-weight="bold" lengthAdjust="spacing" textLength="14" x="211" y="657.1592">15</text><text fill="#000000" font-family="sans-serif" font-size="13" lengthAdjust="spacing" textLength="131" x="229" y="657.1592">execute(req, res, next)</text><line style="stroke:#181818;stroke-width:1.0;" x1="382" x2="429" y1="688.7129" y2="688.7129"/><line style="stroke:#181818;stroke-width:1.0;" x1="429" x2="429" y1="688.7129" y2="701.7129"/><line style="stroke:#181818;stroke-width:1.0;" x1="388" x2="429" y1="701.7129" y2="701.7129"/><polygon fill="#181818" points="398,697.7129,388,701.7129,398,705.7129,394,701.7129" style="stroke:#181818;stroke-width:1.0;"/><text fill="#000000" font-family="sans-serif" font-size="13" font-weight="bold" lengthAdjust="spacing" textLength="14" x="394" y="683.4502">16</text><text fill="#000000" font-family="sans-serif" font-size="13" lengthAdjust="spacing" textLength="150" x="412" y="683.4502">createFloor(req, res, next)</text><polygon fill="#181818" points="529,734.0039,539,738.0039,529,742.0039,533,738.0039" style="stroke:#181818;stroke-width:1.0;"/><line style="stroke:#181818;stroke-width:1.0;stroke-dasharray:2.0,2.0;" x1="387" x2="535" y1="738.0039" y2="738.0039"/><text fill="#000000" font-family="sans-serif" font-size="13" font-weight="bold" lengthAdjust="spacing" textLength="14" x="394" y="732.7412">17</text><text fill="#000000" font-family="sans-serif" font-size="13" lengthAdjust="spacing" textLength="36" x="412" y="732.7412">create</text><rect fill="#E3E3E3" height="69.8633" rx="2.5" ry="2.5" style="stroke:#181818;stroke-width:0.5;" width="84" x="541" y="714.7129"/><text fill="#000000" font-family="sans-serif" font-size="14" font-style="italic" lengthAdjust="spacing" textLength="46" x="560" y="736.8203">&#171;DTO&#187;</text><text fill="#000000" font-family="sans-serif" font-size="14" lengthAdjust="spacing" textLength="66" x="550" y="755.4414">floorDTO :</text><text fill="#000000" font-family="sans-serif" font-size="14" lengthAdjust="spacing" textLength="66" x="552" y="774.0625">IFloorDTO</text><polygon fill="#181818" points="703.5,814.8672,713.5,818.8672,703.5,822.8672,707.5,818.8672" style="stroke:#181818;stroke-width:1.0;"/><line style="stroke:#181818;stroke-width:1.0;" x1="387" x2="709.5" y1="818.8672" y2="818.8672"/><text fill="#000000" font-family="sans-serif" font-size="13" font-weight="bold" lengthAdjust="spacing" textLength="14" x="394" y="813.6045">18</text><text fill="#000000" font-family="sans-serif" font-size="13" lengthAdjust="spacing" textLength="123" x="412" y="813.6045">createFloor(floorDTO)</text><polygon fill="#181818" points="922,846.1582,932,850.1582,922,854.1582,926,850.1582" style="stroke:#181818;stroke-width:1.0;"/><line style="stroke:#181818;stroke-width:1.0;stroke-dasharray:2.0,2.0;" x1="725.5" x2="928" y1="850.1582" y2="850.1582"/><text fill="#000000" font-family="sans-serif" font-size="13" font-weight="bold" lengthAdjust="spacing" textLength="14" x="732.5" y="844.8955">19</text><text fill="#000000" font-family="sans-serif" font-size="13" lengthAdjust="spacing" textLength="36" x="750.5" y="844.8955">create</text><rect fill="#E3E3E3" height="69.8633" rx="2.5" ry="2.5" style="stroke:#181818;stroke-width:0.5;" width="78" x="934" y="826.8672"/><text fill="#000000" font-family="sans-serif" font-size="14" font-style="italic" lengthAdjust="spacing" textLength="64" x="941" y="848.9746">&#171;Domain&#187;</text><text fill="#000000" font-family="sans-serif" font-size="14" lengthAdjust="spacing" textLength="36" x="955" y="867.5957">floor :</text><text fill="#000000" font-family="sans-serif" font-size="14" lengthAdjust="spacing" textLength="28" x="961" y="886.2168">floor</text><polygon fill="#181818" points="1010,927.0215,1020,931.0215,1010,935.0215,1014,931.0215" style="stroke:#181818;stroke-width:1.0;"/><line style="stroke:#181818;stroke-width:1.0;stroke-dasharray:2.0,2.0;" x1="725.5" x2="1016" y1="931.0215" y2="931.0215"/><text fill="#000000" font-family="sans-serif" font-size="13" font-weight="bold" lengthAdjust="spacing" textLength="14" x="732.5" y="925.7588">20</text><text fill="#000000" font-family="sans-serif" font-size="13" lengthAdjust="spacing" textLength="82" x="750.5" y="925.7588">addFloor(floor)</text><rect fill="#E3E3E3" height="69.8633" rx="2.5" ry="2.5" style="stroke:#181818;stroke-width:0.5;" width="78" x="1022" y="907.7305"/><text fill="#000000" font-family="sans-serif" font-size="14" font-style="italic" lengthAdjust="spacing" textLength="64" x="1029" y="929.8379">&#171;Domain&#187;</text><text fill="#000000" font-family="sans-serif" font-size="14" lengthAdjust="spacing" textLength="57" x="1032.5" y="948.459">building :</text><text fill="#000000" font-family="sans-serif" font-size="14" lengthAdjust="spacing" textLength="49" x="1038.5" y="967.0801">building</text><polygon fill="#181818" points="1162.5,1007.8848,1172.5,1011.8848,1162.5,1015.8848,1166.5,1011.8848" style="stroke:#181818;stroke-width:1.0;"/><line style="stroke:#181818;stroke-width:1.0;" x1="725.5" x2="1168.5" y1="1011.8848" y2="1011.8848"/><text fill="#000000" font-family="sans-serif" font-size="13" font-weight="bold" lengthAdjust="spacing" textLength="14" x="732.5" y="1006.6221">21</text><text fill="#000000" font-family="sans-serif" font-size="13" lengthAdjust="spacing" textLength="91" x="750.5" y="1006.6221">update(building)</text><polygon fill="#181818" points="1300.5,1039.1758,1310.5,1043.1758,1300.5,1047.1758,1304.5,1043.1758" style="stroke:#181818;stroke-width:1.0;"/><line style="stroke:#181818;stroke-width:1.0;" x1="1184.5" x2="1306.5" y1="1043.1758" y2="1043.1758"/><text fill="#000000" font-family="sans-serif" font-size="13" font-weight="bold" lengthAdjust="spacing" textLength="14" x="1191.5" y="1037.9131">22</text><text fill="#000000" font-family="sans-serif" font-size="13" lengthAdjust="spacing" textLength="91" x="1209.5" y="1037.9131">update(building)</text><polygon fill="#181818" points="1195.5,1070.4668,1185.5,1074.4668,1195.5,1078.4668,1191.5,1074.4668" style="stroke:#181818;stroke-width:1.0;"/><line style="stroke:#181818;stroke-width:1.0;stroke-dasharray:2.0,2.0;" x1="1189.5" x2="1316.5" y1="1074.4668" y2="1074.4668"/><text fill="#000000" font-family="sans-serif" font-size="13" font-weight="bold" lengthAdjust="spacing" textLength="14" x="1201.5" y="1069.2041">23</text><text fill="#000000" font-family="sans-serif" font-size="13" lengthAdjust="spacing" textLength="4" x="1219.5" y="1069.2041">&#160;</text><polygon fill="#181818" points="736.5,1101.7578,726.5,1105.7578,736.5,1109.7578,732.5,1105.7578" style="stroke:#181818;stroke-width:1.0;"/><line style="stroke:#181818;stroke-width:1.0;stroke-dasharray:2.0,2.0;" x1="730.5" x2="1178.5" y1="1105.7578" y2="1105.7578"/><text fill="#000000" font-family="sans-serif" font-size="13" font-weight="bold" lengthAdjust="spacing" textLength="14" x="742.5" y="1100.4951">24</text><text fill="#000000" font-family="sans-serif" font-size="13" lengthAdjust="spacing" textLength="4" x="760.5" y="1100.4951">&#160;</text><polygon fill="#181818" points="398,1133.0488,388,1137.0488,398,1141.0488,394,1137.0488" style="stroke:#181818;stroke-width:1.0;"/><line style="stroke:#181818;stroke-width:1.0;stroke-dasharray:2.0,2.0;" x1="392" x2="719.5" y1="1137.0488" y2="1137.0488"/><text fill="#000000" font-family="sans-serif" font-size="13" font-weight="bold" lengthAdjust="spacing" textLength="14" x="404" y="1131.7861">25</text><text fill="#000000" font-family="sans-serif" font-size="13" lengthAdjust="spacing" textLength="4" x="422" y="1131.7861">&#160;</text><line style="stroke:#181818;stroke-width:1.0;stroke-dasharray:2.0,2.0;" x1="387" x2="429" y1="1173.3398" y2="1173.3398"/><line style="stroke:#181818;stroke-width:1.0;stroke-dasharray:2.0,2.0;" x1="429" x2="429" y1="1173.3398" y2="1186.3398"/><line style="stroke:#181818;stroke-width:1.0;stroke-dasharray:2.0,2.0;" x1="382" x2="429" y1="1186.3398" y2="1186.3398"/><polygon fill="#181818" points="392,1182.3398,382,1186.3398,392,1190.3398,388,1186.3398" style="stroke:#181818;stroke-width:1.0;"/><text fill="#000000" font-family="sans-serif" font-size="13" font-weight="bold" lengthAdjust="spacing" textLength="14" x="394" y="1168.0771">26</text><text fill="#000000" font-family="sans-serif" font-size="13" lengthAdjust="spacing" textLength="90" x="412" y="1168.0771">status: 201/400</text><polygon fill="#181818" points="215,1208.6309,205,1212.6309,215,1216.6309,211,1212.6309" style="stroke:#181818;stroke-width:1.0;"/><line style="stroke:#181818;stroke-width:1.0;stroke-dasharray:2.0,2.0;" x1="209" x2="376" y1="1212.6309" y2="1212.6309"/><text fill="#000000" font-family="sans-serif" font-size="13" font-weight="bold" lengthAdjust="spacing" textLength="14" x="221" y="1207.3682">27</text><text fill="#000000" font-family="sans-serif" font-size="13" lengthAdjust="spacing" textLength="90" x="239" y="1207.3682">status: 201/400</text><polygon fill="#181818" points="11,1239.9219,1,1243.9219,11,1247.9219,7,1243.9219" style="stroke:#181818;stroke-width:1.0;"/><line style="stroke:#181818;stroke-width:1.0;stroke-dasharray:2.0,2.0;" x1="5" x2="198" y1="1243.9219" y2="1243.9219"/><text fill="#000000" font-family="sans-serif" font-size="13" font-weight="bold" lengthAdjust="spacing" textLength="14" x="17" y="1238.6592">28</text><text fill="#000000" font-family="sans-serif" font-size="13" lengthAdjust="spacing" textLength="90" x="35" y="1238.6592">status: 201/400</text><!--SRC=[rPNTJzim4C3V_LTOF3M8jc7ZPLNLQLct2Ga9HDbUjZqOvreiKhlOJe7_deiJvwi9PHlJj3oqiNttk_DznTmAkM6QhUbQISLlj5e3jJe5OigJ3UEtR0KB-vW0rS0jawkaBc1kMApkXLpH9KiC46A5HT45tAKWET2vOAjCRd06MqZeMpga5rfnC8P-4t0VuFhhWXw7xqB2Kgjakhu6JGZ2hU1YmwIb1zUfI68qSQbI2mUK6UhUw7Jg_cUpfZYtEeaA5Jhv8UcfNtrKqcgL9A0TfLeYgbgqUSj4AJs_EizPdukL8_W5wkDlMz7xlG2z5HnEfS7mOKmQFXM73bUy8wruwoEYCLF3k8tlFnqZgaJEXB7TdhahEO1xg-wIYQir4xBFibFoYuR1lQgNi57DksSxHbYb7_EiPWAOr7AtJPf7JcuUPRQOPH4pMOZ8UpMS5JKneLy-NT71Q3GQUxic88nRiMLux8G8eVZaygXOAuC9XGVWk3_GS7U41M-Eg8G76pYDab9fkFtigK7Qo1NO3qbPaQOJlG-_QyBNYkDNy80qT4fc8Tuup1wFoGBeyaENGiRexo3OaQsYY98xfowc6G9HcA4Sr45faEPHvpdg3qkFEYLYsCV8VQb7YZm3wRnI6HoajFhgy11lo3MWxhDgZKgejo_fSSGdgZVrRIWE5PkQ2NqJXkEJy8HqC5i5rQBvnka2TKF8T3ZiLQi7DU-sHdjUd2_Q_JbsG-XVjscUJ3S5NwL5aUy_3tt5qjVHTLVyr-Ut6zlxyTAAzONkv5aSrzm8NZ0-qasC5WO-kNyyHVRo_jDvKg-zlp0BZh4NmzUO1HNebsP1hhOp2vu0]--></g></svg>