<?xml version="1.0" encoding="us-ascii" standalone="no"?><svg xmlns="http://www.w3.org/2000/svg" xmlns:xlink="http://www.w3.org/1999/xlink" contentStyleType="text/css" height="4758px" preserveAspectRatio="none" style="width:1413px;height:4758px;background:#FFFFFF;" version="1.1" viewBox="0 0 1413 4758" width="1413px" zoomAndPan="magnify"><defs/><g><!--cluster RobDroneGo--><g id="cluster_RobDroneGo"><path d="M171.5,6.0137 L263.5,6.0137 A3.75,3.75 0 0 1 266,8.5137 L273,30.6348 L1403.5,30.6348 A2.5,2.5 0 0 1 1406,33.1348 L1406,4748.5137 A2.5,2.5 0 0 1 1403.5,4751.0137 L171.5,4751.0137 A2.5,2.5 0 0 1 169,4748.5137 L169,8.5137 A2.5,2.5 0 0 1 171.5,6.0137 " fill="none" style="stroke:#000000;stroke-width:1.5;"/><line style="stroke:#000000;stroke-width:1.5;" x1="169" x2="273" y1="30.6348" y2="30.6348"/><text fill="#000000" font-family="sans-serif" font-size="14" font-weight="bold" lengthAdjust="spacing" textLength="91" x="173" y="23.1211">RobDroneGo</text></g><g id="elem_UC1000"><ellipse cx="787.4955" cy="3032.8128" fill="#F1F1F1" rx="546.9955" ry="111.7991" style="stroke:#181818;stroke-width:0.5;"/><text fill="#000000" font-family="sans-serif" font-size="14" lengthAdjust="spacing" textLength="1072" x="251.4955" y="3036.6097">UC1000: Como gestor de Frota pretendo adicionar um novo tipo de robot indicando a sua designa&#231;&#227;o e que tipos de tarefas pode executar da lista pr&#233;definida de tarefas</text></g><g id="elem_UC1010"><ellipse cx="787.5309" cy="3254.8198" fill="#F1F1F1" rx="362.0309" ry="74.8062" style="stroke:#181818;stroke-width:0.5;"/><text fill="#000000" font-family="sans-serif" font-size="14" lengthAdjust="spacing" textLength="700" x="437.5309" y="3258.6167">UC1010: Como gestor de Frota pretendo adicionar um novo robot &#224; frota indicando o seu tipo, designa&#231;&#227;o, etc</text></g><g id="elem_UC1020"><ellipse cx="787.3439" cy="3406.1824" fill="#F1F1F1" rx="191.3439" ry="40.6688" style="stroke:#181818;stroke-width:0.5;"/><text fill="#000000" font-family="sans-serif" font-size="14" lengthAdjust="spacing" textLength="353" x="610.8439" y="3409.9793">UC1020: Como gestor de Frota pretendo inibir um robot</text></g><g id="elem_UC1030"><ellipse cx="787.4012" cy="2635.1939" fill="#F1F1F1" rx="251.4012" ry="52.6802" style="stroke:#181818;stroke-width:0.5;"/><text fill="#000000" font-family="sans-serif" font-size="14" lengthAdjust="spacing" textLength="476" x="549.4012" y="2638.9908">UC1030: Como gestor de Frota pretendo consultar todos os robots da frota</text></g><g id="elem_UC1040"><ellipse cx="787.2792" cy="2803.7695" fill="#F1F1F1" rx="394.2792" ry="81.2558" style="stroke:#181818;stroke-width:0.5;"/><text fill="#000000" font-family="sans-serif" font-size="14" lengthAdjust="spacing" textLength="765" x="404.7792" y="2807.5664">UC1040: Como gestor de Frota pretendo pesquisar todos os robots da frota por designa&#231;&#227;o ou tarefa que pode executar</text></g><g id="elem_UC1050"><ellipse cx="787.455" cy="1930.1047" fill="#F1F1F1" rx="248.455" ry="52.091" style="stroke:#181818;stroke-width:0.5;"/><text fill="#000000" font-family="sans-serif" font-size="14" lengthAdjust="spacing" textLength="470" x="552.455" y="1933.9015">UC1050: Como gestor de Campus pretendo criar um Edif&#237;cio indicando [...]</text></g><g id="elem_UC1060"><ellipse cx="787.6343" cy="2059.0405" fill="#F1F1F1" rx="198.1343" ry="42.0269" style="stroke:#181818;stroke-width:0.5;"/><text fill="#000000" font-family="sans-serif" font-size="14" lengthAdjust="spacing" textLength="367" x="604.1343" y="2062.8374">UC1060: Como gestor de Campus pretendo listar Edif&#237;cios</text></g><g id="elem_UC1070"><ellipse cx="787.6445" cy="2198.8426" fill="#F1F1F1" rx="302.1445" ry="62.8289" style="stroke:#181818;stroke-width:0.5;"/><text fill="#000000" font-family="sans-serif" font-size="14" lengthAdjust="spacing" textLength="579" x="498.1445" y="2202.6394">UC1070: Como gestor de Campus pretendo editar a informa&#231;&#227;o (total ou parcial) de Edif&#237;cio</text></g><g id="elem_UC1080"><ellipse cx="787.5354" cy="2354.1208" fill="#F1F1F1" rx="273.5354" ry="57.1071" style="stroke:#181818;stroke-width:0.5;"/><text fill="#000000" font-family="sans-serif" font-size="14" lengthAdjust="spacing" textLength="521" x="527.0354" y="2357.9176">UC1080: Como gestor de Campus pretendo listar Edif&#237;cios com min e max de pisos</text></g><g id="elem_UC1090"><ellipse cx="787.6245" cy="2496.8386" fill="#F1F1F1" rx="239.6245" ry="50.3249" style="stroke:#181818;stroke-width:0.5;"/><text fill="#000000" font-family="sans-serif" font-size="14" lengthAdjust="spacing" textLength="452" x="561.6245" y="2500.6354">UC1090: Como gestor de Campus pretendo criar um Piso indicando [...]</text></g><g id="elem_UC1100"><ellipse cx="787.7064" cy="97.9549" fill="#F1F1F1" rx="262.7064" ry="54.9413" style="stroke:#181818;stroke-width:0.5;"/><text fill="#000000" font-family="sans-serif" font-size="14" lengthAdjust="spacing" textLength="499" x="538.2064" y="101.7518">UC1100: Como gestor de Campus pretendo listar todos os Pisos de um Edif&#237;cio</text></g><g id="elem_UC1110"><ellipse cx="787.2575" cy="249.0652" fill="#F1F1F1" rx="293.2575" ry="61.0515" style="stroke:#181818;stroke-width:0.5;"/><text fill="#000000" font-family="sans-serif" font-size="14" lengthAdjust="spacing" textLength="561" x="506.7575" y="252.862">UC1110: Como gestor de Campus pretendo editar a informa&#231;&#227;o (total ou parcial) de Piso</text></g><g id="elem_UC1120"><ellipse cx="787.7473" cy="399.9631" fill="#F1F1F1" rx="260.2473" ry="54.4495" style="stroke:#181818;stroke-width:0.5;"/><text fill="#000000" font-family="sans-serif" font-size="14" lengthAdjust="spacing" textLength="494" x="540.7473" y="403.76">UC1120: Como gestor de Campus pretendo carregar mapa de Piso de Edif&#237;cio</text></g><g id="elem_UC1130"><ellipse cx="787.7049" cy="560.9546" fill="#F1F1F1" rx="342.7049" ry="70.941" style="stroke:#181818;stroke-width:0.5;"/><text fill="#000000" font-family="sans-serif" font-size="14" lengthAdjust="spacing" textLength="661" x="457.2049" y="564.7515">UC1130: Como gestor de Campus pretendo criar um Elevador num Edif&#237;cio indicando os Pisos que serve</text></g><g id="elem_UC1140"><ellipse cx="787.5288" cy="718.8194" fill="#F1F1F1" rx="244.5288" ry="51.3058" style="stroke:#181818;stroke-width:0.5;"/><text fill="#000000" font-family="sans-serif" font-size="14" lengthAdjust="spacing" textLength="462" x="556.5288" y="722.6163">UC1140: Como gestor de Campus  pretendo listar Elevadores em Edif&#237;cio</text></g><g id="elem_UC1150"><ellipse cx="787.654" cy="856.0445" fill="#F1F1F1" rx="238.154" ry="50.0308" style="stroke:#181818;stroke-width:0.5;"/><text fill="#000000" font-family="sans-serif" font-size="14" lengthAdjust="spacing" textLength="449" x="563.154" y="859.8413">UC1150: Como gestor de Campus pretendo editar Elevador em Edif&#237;cio</text></g><g id="elem_UC1160"><ellipse cx="787.264" cy="1001.9665" fill="#F1F1F1" rx="292.764" ry="60.9528" style="stroke:#181818;stroke-width:0.5;"/><text fill="#000000" font-family="sans-serif" font-size="14" lengthAdjust="spacing" textLength="560" x="507.264" y="1005.7633">UC1160: Como gestor de Campus pretendo listar Pisos de Edif&#237;cio servidos por Elevador</text></g><g id="elem_UC1170"><ellipse cx="787.5807" cy="1155.0298" fill="#F1F1F1" rx="270.5807" ry="56.5161" style="stroke:#181818;stroke-width:0.5;"/><text fill="#000000" font-family="sans-serif" font-size="14" lengthAdjust="spacing" textLength="515" x="530.0807" y="1158.8267">UC1170: Como gestor de Campus pretendo criar uma Passagem entre 2 Edif&#237;cios</text></g><g id="elem_UC1180"><ellipse cx="787.5205" cy="1303.8178" fill="#F1F1F1" rx="274.5205" ry="57.3041" style="stroke:#181818;stroke-width:0.5;"/><text fill="#000000" font-family="sans-serif" font-size="14" lengthAdjust="spacing" textLength="523" x="526.0205" y="1307.6147">UC1180: Como gestor de Campus pretendo editar uma Passagem entre 2 Edif&#237;cios</text></g><g id="elem_UC1190"><ellipse cx="787.2805" cy="1451.0698" fill="#F1F1F1" rx="258.2805" ry="54.0561" style="stroke:#181818;stroke-width:0.5;"/><text fill="#000000" font-family="sans-serif" font-size="14" lengthAdjust="spacing" textLength="490" x="542.2805" y="1454.8667">UC1190: Como gestor de Campus pretendo listar Passagens entre 2 Edif&#237;cios</text></g><g id="elem_UC1200"><ellipse cx="787.2528" cy="1609.9642" fill="#F1F1F1" rx="337.7528" ry="69.9506" style="stroke:#181818;stroke-width:0.5;"/><text fill="#000000" font-family="sans-serif" font-size="14" lengthAdjust="spacing" textLength="651" x="461.7528" y="1613.7611">UC1200: Como gestor de Campus pretendo listar Pisos de Edif&#237;cio com Passagem para outros Edif&#237;cios</text></g><g id="elem_UC1210"><ellipse cx="787.5669" cy="1779.1271" fill="#F1F1F1" rx="308.5669" ry="64.1134" style="stroke:#181818;stroke-width:0.5;"/><text fill="#000000" font-family="sans-serif" font-size="14" lengthAdjust="spacing" textLength="592" x="491.5669" y="1782.9239">UC1210: Como gestor de Campus pretendo criar uma Sala num Piso de Edif&#237;cio indicando [...]</text></g><g id="elem_UC10"><ellipse cx="787.4539" cy="3708.1044" fill="#F1F1F1" rx="318.4539" ry="66.0908" style="stroke:#181818;stroke-width:0.5;"/><text fill="#000000" font-family="sans-serif" font-size="14" lengthAdjust="spacing" textLength="612" x="481.4539" y="3711.9013">UC10: Como administrador pretendo criar um utilizador de sistema indicando as suas permiss&#245;es</text></g><g id="elem_UC80"><ellipse cx="787.6752" cy="3543.8487" fill="#F1F1F1" rx="299.6752" ry="62.335" style="stroke:#181818;stroke-width:0.5;"/><text fill="#000000" font-family="sans-serif" font-size="14" lengthAdjust="spacing" textLength="574" x="500.6752" y="3547.6456">UC80: Como administrador do sistema pretendo aprovar ou recusar o registo de um utente</text></g><g id="elem_UC460"><ellipse cx="787.3108" cy="3931.8758" fill="#F1F1F1" rx="602.3108" ry="122.8622" style="stroke:#181818;stroke-width:0.5;"/><text fill="#000000" font-family="sans-serif" font-size="14" lengthAdjust="spacing" textLength="1183" x="195.8108" y="3935.6727">UC460: Como utente do sistema pretendo requisitar uma tarefa indicando os par&#226;metros necess&#225;rios &#224; sua execu&#231;&#227;o, nomeadamente o ponto inicial e o t&#233;rmino e qual a tarefa pretendida</text></g><g id="elem_UC470"><ellipse cx="787.3143" cy="4311.1765" fill="#F1F1F1" rx="256.3143" ry="53.6629" style="stroke:#181818;stroke-width:0.5;"/><text fill="#000000" font-family="sans-serif" font-size="14" lengthAdjust="spacing" textLength="486" x="544.3143" y="4314.9734">UC470: Como gestor de tarefas pretendo aprovar ou recusar uma requisi&#231;&#227;o</text></g><g id="elem_UC480"><ellipse cx="787.3894" cy="4466.7916" fill="#F1F1F1" rx="324.3894" ry="67.2779" style="stroke:#181818;stroke-width:0.5;"/><text fill="#000000" font-family="sans-serif" font-size="14" lengthAdjust="spacing" textLength="624" x="475.3894" y="4470.5884">UC480: Como gestor de tarefas pretendo consultar as requisi&#231;&#245;es de tarefas ainda n&#227;o aprovadas</text></g><g id="elem_UC490"><ellipse cx="787.7407" cy="4651.8618" fill="#F1F1F1" rx="399.7407" ry="82.3481" style="stroke:#181818;stroke-width:0.5;"/><text fill="#000000" font-family="sans-serif" font-size="14" lengthAdjust="spacing" textLength="776" x="399.7407" y="4655.6587">UC490: Como gestor de tarefas pretendo pesquisar as requisi&#231;&#245;es de tarefas por estado, por tipo de dispositivo, ou utente</text></g><g id="elem_UC500"><ellipse cx="787.4704" cy="4155.8078" fill="#F1F1F1" rx="316.9704" ry="65.7941" style="stroke:#181818;stroke-width:0.5;"/><text fill="#000000" font-family="sans-serif" font-size="14" lengthAdjust="spacing" textLength="609" x="482.9704" y="4159.6046">UC500: Como gestor de tarefas pretendo obter a sequ&#234;ncia de execu&#231;&#227;o das tarefas aprovadas</text></g><!--entity campus--><g id="elem_campus"><ellipse cx="65.5" cy="1273.0137" fill="#F1F1F1" rx="8" ry="8" style="stroke:#181818;stroke-width:0.5;"/><path d="M65.5,1281.0137 L65.5,1308.0137 M52.5,1289.0137 L78.5,1289.0137 M65.5,1308.0137 L52.5,1323.0137 M65.5,1308.0137 L78.5,1323.0137 " fill="none" style="stroke:#181818;stroke-width:0.5;"/><text fill="#000000" font-family="sans-serif" font-size="14" lengthAdjust="spacing" textLength="119" x="6" y="1339.6211">Gestor de Campus</text></g><!--entity frota--><g id="elem_frota"><ellipse cx="65.5" cy="3002.0137" fill="#F1F1F1" rx="8" ry="8" style="stroke:#181818;stroke-width:0.5;"/><path d="M65.5,3010.0137 L65.5,3037.0137 M52.5,3018.0137 L78.5,3018.0137 M65.5,3037.0137 L52.5,3052.0137 M65.5,3037.0137 L78.5,3052.0137 " fill="none" style="stroke:#181818;stroke-width:0.5;"/><text fill="#000000" font-family="sans-serif" font-size="14" lengthAdjust="spacing" textLength="101" x="15" y="3068.6211">Gestor de Frota</text></g><!--entity administrador--><g id="elem_administrador"><ellipse cx="65.5" cy="3595.0137" fill="#F1F1F1" rx="8" ry="8" style="stroke:#181818;stroke-width:0.5;"/><path d="M65.5,3603.0137 L65.5,3630.0137 M52.5,3611.0137 L78.5,3611.0137 M65.5,3630.0137 L52.5,3645.0137 M65.5,3630.0137 L78.5,3645.0137 " fill="none" style="stroke:#181818;stroke-width:0.5;"/><text fill="#000000" font-family="sans-serif" font-size="14" lengthAdjust="spacing" textLength="86" x="22.5" y="3661.6211">administrador</text></g><!--entity utente--><g id="elem_utente"><ellipse cx="65.5" cy="3901.0137" fill="#F1F1F1" rx="8" ry="8" style="stroke:#181818;stroke-width:0.5;"/><path d="M65.5,3909.0137 L65.5,3936.0137 M52.5,3917.0137 L78.5,3917.0137 M65.5,3936.0137 L52.5,3951.0137 M65.5,3936.0137 L78.5,3951.0137 " fill="none" style="stroke:#181818;stroke-width:0.5;"/><text fill="#000000" font-family="sans-serif" font-size="14" lengthAdjust="spacing" textLength="40" x="45.5" y="3967.6211">utente</text></g><!--entity tarefas--><g id="elem_tarefas"><ellipse cx="65.5" cy="4358.0137" fill="#F1F1F1" rx="8" ry="8" style="stroke:#181818;stroke-width:0.5;"/><path d="M65.5,4366.0137 L65.5,4393.0137 M52.5,4374.0137 L78.5,4374.0137 M65.5,4393.0137 L52.5,4408.0137 M65.5,4393.0137 L78.5,4408.0137 " fill="none" style="stroke:#181818;stroke-width:0.5;"/><text fill="#000000" font-family="sans-serif" font-size="14" lengthAdjust="spacing" textLength="44" x="43.5" y="4424.6211">tarefas</text></g><!--link administrador to UC10--><g id="link_administrador_UC10"><path d="M108.59,3630.8037 C186.04,3639.6237 357.05,3659.1037 507.93,3676.2837 " fill="none" id="administrador-UC10" style="stroke:#181818;stroke-width:1.0;"/></g><!--link administrador to UC80--><g id="link_administrador_UC80"><path d="M108.59,3621.2237 C188.82,3612.0837 369.46,3591.5137 524.11,3573.8937 " fill="none" id="administrador-UC80" style="stroke:#181818;stroke-width:1.0;"/></g><!--link utente to UC460--><g id="link_utente_UC460"><path d="M85.76,3932.0137 C106,3932.0137 140.97,3932.0137 184.85,3932.0137 " fill="none" id="utente-UC460" style="stroke:#181818;stroke-width:1.0;"/></g><!--link tarefas to UC470--><g id="link_tarefas_UC470"><path d="M87.66,4386.7237 C156.99,4379.2137 383.02,4354.7237 559.46,4335.6137 " fill="none" id="tarefas-UC470" style="stroke:#181818;stroke-width:1.0;"/></g><!--link tarefas to UC480--><g id="link_tarefas_UC480"><path d="M87.66,4391.3037 C149.33,4397.9837 334.96,4418.0937 499.4,4435.9137 " fill="none" id="tarefas-UC480" style="stroke:#181818;stroke-width:1.0;"/></g><!--link tarefas to UC490--><g id="link_tarefas_UC490"><path d="M78.46,4428.8037 C92.06,4466.8137 118.13,4522.5637 161,4552.0137 C228.42,4598.3337 309.45,4626.1737 390.51,4642.3737 " fill="none" id="tarefas-UC490" style="stroke:#181818;stroke-width:1.0;"/></g><!--link tarefas to UC500--><g id="link_tarefas_UC500"><path d="M80.49,4349.3537 C94.98,4314.5237 121.14,4265.5337 161,4240.0137 C252.81,4181.2237 367.75,4155.4437 473.96,4145.8937 " fill="none" id="tarefas-UC500" style="stroke:#181818;stroke-width:1.0;"/></g><!--link campus to UC1050--><g id="link_campus_UC1050"><path d="M67.3,1343.7537 C70.48,1458.9337 86.09,1789.2437 161,1860.0137 C275.29,1967.9737 458.68,1976.6937 597.41,1963.6237 " fill="none" id="campus-UC1050" style="stroke:#181818;stroke-width:1.0;"/></g><!--link campus to UC1060--><g id="link_campus_UC1060"><path d="M69.06,1343.8137 C78.51,1484.6137 113.32,1953.1837 161,1999.0137 C289.69,2122.7137 509.4,2112.7937 651.21,2089.5337 " fill="none" id="campus-UC1060" style="stroke:#181818;stroke-width:1.0;"/></g><!--link campus to UC1070--><g id="link_campus_UC1070"><path d="M68.28,1343.6737 C75.65,1499.2737 105.94,2062.2237 161,2118.0137 C256.38,2214.6537 406.11,2236.6837 535.17,2233.7037 " fill="none" id="campus-UC1070" style="stroke:#181818;stroke-width:1.0;"/></g><!--link campus to UC1080--><g id="link_campus_UC1080"><path d="M67.46,1343.5837 C72.08,1517.8337 94.54,2211.0237 161,2279.0137 C265.84,2386.2637 437.83,2400.1337 574.95,2389.8937 " fill="none" id="campus-UC1080" style="stroke:#181818;stroke-width:1.0;"/></g><!--link campus to UC1090--><g id="link_campus_UC1090"><path d="M66.91,1343.7537 C69.27,1534.3437 83.83,2348.8137 161,2428.0137 C275.46,2545.4837 470.78,2548.9137 612.76,2531.6537 " fill="none" id="campus-UC1090" style="stroke:#181818;stroke-width:1.0;"/></g><!--link campus to UC1100--><g id="link_campus_UC1100"><path d="M66.89,1264.2437 C69.15,1072.5937 83.32,250.1737 161,170.0137 C269.11,58.4437 449.97,48.5637 589.49,61.8537 " fill="none" id="campus-UC1100" style="stroke:#181818;stroke-width:1.0;"/></g><!--link campus to UC1110--><g id="link_campus_UC1110"><path d="M67.47,1264.4137 C72.12,1090.0337 94.69,396.2837 161,328.0137 C259.28,226.8237 417.13,207.4937 549.67,213.2537 " fill="none" id="campus-UC1110" style="stroke:#181818;stroke-width:1.0;"/></g><!--link campus to UC1120--><g id="link_campus_UC1120"><path d="M68.16,1264.2637 C75.12,1106.2937 104.31,528.7837 161,472.0137 C270.48,362.3637 450.5,352.0737 589.37,364.7137 " fill="none" id="campus-UC1120" style="stroke:#181818;stroke-width:1.0;"/></g><!--link campus to UC1130--><g id="link_campus_UC1130"><path d="M66.28,1264.4337 C66.43,1136.4037 74.01,736.8237 161,650.0137 C242.04,569.1437 360.98,539.4237 473.44,532.5937 " fill="none" id="campus-UC1130" style="stroke:#181818;stroke-width:1.0;"/></g><!--link campus to UC1140--><g id="link_campus_UC1140"><path d="M67.86,1264.3837 C72.48,1155.0237 91.43,852.7937 161,788.0137 C276.84,680.1537 461.89,672.2737 600.72,685.7537 " fill="none" id="campus-UC1140" style="stroke:#181818;stroke-width:1.0;"/></g><!--link campus to UC1150--><g id="link_campus_UC1150"><path d="M70.64,1264.3837 C80.71,1176.1937 109.51,967.9137 161,923.0137 C280.56,818.7437 465.81,811.2337 603.72,824.2437 " fill="none" id="campus-UC1150" style="stroke:#181818;stroke-width:1.0;"/></g><!--link campus to UC1160--><g id="link_campus_UC1160"><path d="M71.27,1264.5037 C79.71,1213.3237 102.32,1125.4137 161,1081.0137 C261.27,1005.1437 397.5,981.4537 517.23,978.3937 " fill="none" id="campus-UC1160" style="stroke:#181818;stroke-width:1.0;"/></g><!--link campus to UC1170--><g id="link_campus_UC1170"><path d="M106.53,1264.1537 C122.27,1250.7937 141.28,1237.2237 161,1229.0137 C272.18,1182.7537 403.46,1162.5937 516.97,1154.6537 " fill="none" id="campus-UC1170" style="stroke:#181818;stroke-width:1.0;"/></g><!--link campus to UC1180--><g id="link_campus_UC1180"><path d="M125.12,1304.0137 C209.45,1304.0137 370.51,1304.0137 512.58,1304.0137 " fill="none" id="campus-UC1180" style="stroke:#181818;stroke-width:1.0;"/></g><!--link campus to UC1190--><g id="link_campus_UC1190"><path d="M106.52,1343.9037 C122.25,1357.2737 141.26,1370.8337 161,1379.0137 C276.13,1426.7037 412.76,1446.2037 528.91,1453.1537 " fill="none" id="campus-UC1190" style="stroke:#181818;stroke-width:1.0;"/></g><!--link campus to UC1200--><g id="link_campus_UC1200"><path d="M71.88,1343.8337 C80.89,1393.9337 104.06,1478.6537 161,1522.0137 C244.65,1585.7037 353.38,1614.0337 456.66,1624.5537 " fill="none" id="campus-UC1200" style="stroke:#181818;stroke-width:1.0;"/></g><!--link campus to UC1210--><g id="link_campus_UC1210"><path d="M70.41,1343.7737 C80.14,1433.9337 108.5,1649.7837 161,1697.0137 C255.15,1781.7037 391.85,1806.6237 513.46,1808.4837 " fill="none" id="campus-UC1210" style="stroke:#181818;stroke-width:1.0;"/></g><!--link frota to UC1000--><g id="link_frota_UC1000"><path d="M116.27,3033.0137 C147.15,3033.0137 190.38,3033.0137 240.18,3033.0137 " fill="none" id="frota-UC1000" style="stroke:#181818;stroke-width:1.0;"/></g><!--link frota to UC1010--><g id="link_frota_UC1010"><path d="M84.79,3072.7037 C100.62,3102.3237 126.42,3141.1437 161,3162.0137 C240.07,3209.7437 334.72,3236.1437 426.17,3250.0837 " fill="none" id="frota-UC1010" style="stroke:#181818;stroke-width:1.0;"/></g><!--link frota to UC1020--><g id="link_frota_UC1020"><path d="M72.83,3072.5937 C85.87,3148.9037 118.17,3311.9337 161,3347.0137 C296.65,3458.1137 508.57,3452.9537 647.5,3433.7337 " fill="none" id="frota-UC1020" style="stroke:#181818;stroke-width:1.0;"/></g><!--link frota to UC1030--><g id="link_frota_UC1030"><path d="M72.37,2993.2737 C84.88,2914.3937 116.67,2742.4137 161,2705.0137 C276.46,2607.5937 449.64,2594.9837 584.52,2603.9837 " fill="none" id="frota-UC1030" style="stroke:#181818;stroke-width:1.0;"/></g><!--link frota to UC1040--><g id="link_frota_UC1040"><path d="M84.61,2993.4237 C100.41,2963.5837 126.26,2924.2937 161,2903.0137 C231.9,2859.5837 315.5,2833.1737 398.1,2817.5137 " fill="none" id="frota-UC1040" style="stroke:#181818;stroke-width:1.0;"/></g><!--SRC=[hLVDZjGu4BxdAInEh3ICskdCJFTSPu4hOiK9SV0arOr5nmwsqqABzbrsuO10uiWJvCKeEucJE9xf3Ene3krAfRwlVbqvmCuG8udY-xU655n1RhWKINBz7BIHYXH0RbXPrVgQC4roztFyy9cIXhbdE_ihIIgMlsDx82_bxPzA2dWkoSU4u5-j8MSQoADNDtIrMbsJ6rbAifzQ8fK20wAGX1KyHoPCaReaGXubCRoILb79Msa85wZ0d2RHDSC7cky5QxuqdoK1yhu6zuAsRnYcO8SKAua7-01vZH9IC7BWsc4sNmlOSS4BDb9_PBrgoSuTeB_WG4ky-RSDrSW3IJJKZkxPn8yp0YRtD6Y4HdgI1dfronq71- -jfH5hwvFMSYbqVR3HCxB0uEA_CwjjD9rR7c0T0SXE0bIWtzTStmE0MLJJRCkwIvdB-YJ9daqMONCnPzFM-iXVnTi4FYtuhlcE2HsbxVNv-VaRZt0HGRWyZU1AK0tsXxAxZ1YyEcqG2cuDslhQILLsCNfiC7G76wgAgPopmn_sNO_gGQyYe9jVy08hfIGb5zYA9VjWNwcu7ZctYU1i7v2F5sZjpbHivyRfQh4Jll0iXfiVu_pt83Go5IZzVzDZ2NYyIFlJT474c5AmHyIILQmt6iqzZOm4kdv8ZnpWo0fK4dSqZ8-fxLCDwWWUEp8jQ7OdzhpmEcZG16B9YhG_lLYSBEzOr7QayUdonlT5DWJCHeRR6hIJhiVsS96nGA-MPucH5qnhlA5B0i8e86bazj386A2RnV5QYX8P0dIxF78jWj3tGKH6GRhwdUJOkUPzmsPbsBH6eTOSF8sCY9G-95L_iGDptJHhshjcNnhR4Zf4Lk10HiUKg-Lv_zQ67_ZVxY52QTI4Shoc809kMaWKLCcrRdx0CCz3q4qS5AtqTeT5gLBoY0nm-E7wMTkx7tSbsAEUxAPlZPgc7nRpgibykxMAKHW5Th7mzTbj39FXXEbiFfNWqYaW1_JnFsKlCzpPx8xfjefkCnEo15Qmqk7XtYA5SSkM7Tx4Iapp5SCascKKPHwoOuJBPkTGDc_fBDBHVekz9t3MiyvHnxD7cFTpjbc0CAnxA1tiOkB7wWo3Y6Lgxx6MKk6NvooIhEq2u64Dl0_OpaUqWPLrvdxtNmW5rxZvSyEF-02ZCocVR3uIBbOBACbR0_RUriYc-IOmpwHVDDix7BqUGXB40H6IVv9asWnFdhIj4v5Ys9AkbjtPbaZI6sybcDAfO1CAje70aaZQJxWU6- -kgU0o55o5Waqes0O2knbD1JGKfA5W7GgoK10ofI5J6ZAb8LCQCar3fdPw9krNHkSSQapED3YdmNaTdD6Fdm00]--></g></svg>