<?xml version="1.0" encoding="us-ascii" standalone="no"?><svg xmlns="http://www.w3.org/2000/svg" xmlns:xlink="http://www.w3.org/1999/xlink" contentStyleType="text/css" height="360px" preserveAspectRatio="none" style="width:491px;height:360px;background:#FFFFFF;" version="1.1" viewBox="0 0 491 360" width="491px" zoomAndPan="magnify"><defs/><g><text fill="#000000" font-family="sans-serif" font-size="14" font-weight="bold" lengthAdjust="spacing" textLength="364" x="62.5" y="30.1074">Sequence Diagram (Level 3 - Process View) - US 270</text><rect fill="#FFFFFF" height="156.4551" style="stroke:#181818;stroke-width:1.0;" width="10" x="207" y="130.1543"/><rect fill="#FFFFFF" height="31.291" style="stroke:#181818;stroke-width:1.0;" width="10" x="427" y="161.4453"/><rect fill="#FFFFFF" height="31.291" style="stroke:#181818;stroke-width:1.0;" width="10" x="427" y="224.0273"/><line style="stroke:#181818;stroke-width:0.5;stroke-dasharray:5.0,5.0;" x1="212" x2="212" y1="96.8633" y2="304.6094"/><line style="stroke:#181818;stroke-width:0.5;stroke-dasharray:5.0,5.0;" x1="432" x2="432" y1="96.8633" y2="304.6094"/><rect fill="#E3E3E3" height="51.2422" rx="2.5" ry="2.5" style="stroke:#181818;stroke-width:0.5;" width="106" x="159" y="44.6211"/><text fill="#000000" font-family="sans-serif" font-size="14" font-style="italic" lengthAdjust="spacing" textLength="92" x="166" y="66.7285">&#171;system (C4)&#187;</text><text fill="#000000" font-family="sans-serif" font-size="14" lengthAdjust="spacing" textLength="18" x="203" y="85.3496">BE</text><rect fill="#E3E3E3" height="51.2422" rx="2.5" ry="2.5" style="stroke:#181818;stroke-width:0.5;" width="106" x="159" y="303.6094"/><text fill="#000000" font-family="sans-serif" font-size="14" font-style="italic" lengthAdjust="spacing" textLength="92" x="166" y="325.7168">&#171;system (C4)&#187;</text><text fill="#000000" font-family="sans-serif" font-size="14" lengthAdjust="spacing" textLength="18" x="203" y="344.3379">BE</text><rect fill="#E3E3E3" height="51.2422" rx="2.5" ry="2.5" style="stroke:#181818;stroke-width:0.5;" width="106" x="379" y="44.6211"/><text fill="#000000" font-family="sans-serif" font-size="14" font-style="italic" lengthAdjust="spacing" textLength="92" x="386" y="66.7285">&#171;system (C4)&#187;</text><text fill="#000000" font-family="sans-serif" font-size="14" lengthAdjust="spacing" textLength="19" x="422.5" y="85.3496">BD</text><rect fill="#E3E3E3" height="51.2422" rx="2.5" ry="2.5" style="stroke:#181818;stroke-width:0.5;" width="106" x="379" y="303.6094"/><text fill="#000000" font-family="sans-serif" font-size="14" font-style="italic" lengthAdjust="spacing" textLength="92" x="386" y="325.7168">&#171;system (C4)&#187;</text><text fill="#000000" font-family="sans-serif" font-size="14" lengthAdjust="spacing" textLength="19" x="422.5" y="344.3379">BD</text><rect fill="#FFFFFF" height="156.4551" style="stroke:#181818;stroke-width:1.0;" width="10" x="207" y="130.1543"/><rect fill="#FFFFFF" height="31.291" style="stroke:#181818;stroke-width:1.0;" width="10" x="427" y="161.4453"/><rect fill="#FFFFFF" height="31.291" style="stroke:#181818;stroke-width:1.0;" width="10" x="427" y="224.0273"/><ellipse cx="4.5" cy="129.4043" fill="none" rx="4" ry="4" style="stroke:#181818;stroke-width:1.5;"/><polygon fill="#181818" points="195,126.1543,205,130.1543,195,134.1543,199,130.1543" style="stroke:#181818;stroke-width:1.0;"/><line style="stroke:#181818;stroke-width:1.0;" x1="9" x2="201" y1="130.1543" y2="130.1543"/><text fill="#000000" font-family="sans-serif" font-size="13" font-weight="bold" lengthAdjust="spacing" textLength="7" x="12" y="124.8916">1</text><text fill="#000000" font-family="sans-serif" font-size="13" lengthAdjust="spacing" textLength="169" x="23" y="124.8916">POST (.../buildings/elevators)</text><polygon fill="#181818" points="415,157.4453,425,161.4453,415,165.4453,419,161.4453" style="stroke:#181818;stroke-width:1.0;"/><line style="stroke:#181818;stroke-width:1.0;stroke-dasharray:2.0,2.0;" x1="217" x2="421" y1="161.4453" y2="161.4453"/><text fill="#000000" font-family="sans-serif" font-size="13" font-weight="bold" lengthAdjust="spacing" textLength="7" x="224" y="156.1826">2</text><text fill="#000000" font-family="sans-serif" font-size="13" lengthAdjust="spacing" textLength="180" x="235" y="156.1826">Verify building and floors exists</text><polygon fill="#181818" points="228,188.7363,218,192.7363,228,196.7363,224,192.7363" style="stroke:#181818;stroke-width:1.0;"/><line style="stroke:#181818;stroke-width:1.0;stroke-dasharray:2.0,2.0;" x1="222" x2="431" y1="192.7363" y2="192.7363"/><text fill="#000000" font-family="sans-serif" font-size="13" font-weight="bold" lengthAdjust="spacing" textLength="7" x="234" y="187.4736">3</text><text fill="#000000" font-family="sans-serif" font-size="13" lengthAdjust="spacing" textLength="4" x="245" y="187.4736">&#160;</text><polygon fill="#181818" points="415,220.0273,425,224.0273,415,228.0273,419,224.0273" style="stroke:#181818;stroke-width:1.0;"/><line style="stroke:#181818;stroke-width:1.0;stroke-dasharray:2.0,2.0;" x1="217" x2="421" y1="224.0273" y2="224.0273"/><text fill="#000000" font-family="sans-serif" font-size="13" font-weight="bold" lengthAdjust="spacing" textLength="7" x="224" y="218.7646">4</text><text fill="#000000" font-family="sans-serif" font-size="13" lengthAdjust="spacing" textLength="80" x="235" y="218.7646">Insert elevator</text><polygon fill="#181818" points="228,251.3184,218,255.3184,228,259.3184,224,255.3184" style="stroke:#181818;stroke-width:1.0;"/><line style="stroke:#181818;stroke-width:1.0;stroke-dasharray:2.0,2.0;" x1="222" x2="431" y1="255.3184" y2="255.3184"/><text fill="#000000" font-family="sans-serif" font-size="13" font-weight="bold" lengthAdjust="spacing" textLength="7" x="234" y="250.0557">5</text><text fill="#000000" font-family="sans-serif" font-size="13" lengthAdjust="spacing" textLength="4" x="245" y="250.0557">&#160;</text><polygon fill="#181818" points="11,282.6094,1,286.6094,11,290.6094,7,286.6094" style="stroke:#181818;stroke-width:1.0;"/><line style="stroke:#181818;stroke-width:1.0;stroke-dasharray:2.0,2.0;" x1="5" x2="211" y1="286.6094" y2="286.6094"/><text fill="#000000" font-family="sans-serif" font-size="13" font-weight="bold" lengthAdjust="spacing" textLength="7" x="17" y="281.3467">6</text><text fill="#000000" font-family="sans-serif" font-size="13" lengthAdjust="spacing" textLength="90" x="28" y="281.3467">status: 201/400</text><!--SRC=[dO_1Ri8m38RlUGgB4nmA7KEQX12JM7kOD6b8tRYRr9I8DEbY5yRRBr2n8RZD9rlvljyExunhC60DjNTURuEl2IIqfFZtfK6zmueAELg2G5hGLVOQu2sM_c1S1HkqJ4g9aOWMzDMIqmIPmUh4zTzeJnOU8O5by9gOOMNeC8ZpPm7ZfrHXAzwrzPg2KZ5RZ3ODEe7U8ky1CYnocCtuo48nxMKocCzliAp3iZjCFVjaVlAdi7mlFg0_70v7wzROCjxD8xAqH_611mgrcDXJX9M2M55AJcuMtHK5ipd2HGHq9MoiZoBGjs7Xi_4NaNK9MPSGjv_dagw9koMlZYa8N6xwJ-GiIRhFig2qF8Ln-Z2QfAcwvdBr0m00]--></g></svg>