<?xml version="1.0" encoding="UTF-8" standalone="no"?><svg xmlns="http://www.w3.org/2000/svg" xmlns:xlink="http://www.w3.org/1999/xlink" contentStyleType="text/css" height="1388px" preserveAspectRatio="none" style="width:1203px;height:1388px;background:#FFFFFF;" version="1.1" viewBox="0 0 1203 1388" width="1203px" zoomAndPan="magnify"><defs/><g><rect fill="none" height="27.6094" id="_title" style="stroke:none;stroke-width:1.0;" width="382" x="409.5" y="10"/><text fill="#000000" font-family="sans-serif" font-size="14" font-weight="bold" lengthAdjust="spacing" textLength="372" x="414.5" y="29.5332">Sequence Diagram (Level 3 - Process View) - US 1110</text><rect fill="#FFFFFF" height="359.8672" style="stroke:#181818;stroke-width:1.0;" width="10" x="318" y="108.5703"/><rect fill="#FFFFFF" height="359.8672" style="stroke:#181818;stroke-width:1.0;" width="10" x="318" y="498.7891"/><rect fill="#FFFFFF" height="445.0859" style="stroke:#181818;stroke-width:1.0;" width="10" x="318" y="889.0078"/><rect fill="#FFFFFF" height="299.1641" style="stroke:#181818;stroke-width:1.0;" width="10" x="496" y="138.9219"/><rect fill="#FFFFFF" height="223.4609" style="stroke:#181818;stroke-width:1.0;" width="10" x="501" y="177.2734"/><rect fill="#FFFFFF" height="299.1641" style="stroke:#181818;stroke-width:1.0;" width="10" x="496" y="529.1406"/><rect fill="#FFFFFF" height="223.4609" style="stroke:#181818;stroke-width:1.0;" width="10" x="501" y="567.4922"/><rect fill="#FFFFFF" height="384.3828" style="stroke:#181818;stroke-width:1.0;" width="10" x="496" y="919.3594"/><rect fill="#FFFFFF" height="308.6797" style="stroke:#181818;stroke-width:1.0;" width="10" x="501" y="957.7109"/><rect fill="#FFFFFF" height="151.7578" style="stroke:#181818;stroke-width:1.0;" width="10" x="838.5" y="212.625"/><rect fill="#FFFFFF" height="151.7578" style="stroke:#181818;stroke-width:1.0;" width="10" x="838.5" y="602.8438"/><rect fill="#FFFFFF" height="194.3672" style="stroke:#181818;stroke-width:1.0;" width="10" x="838.5" y="1035.6719"/><rect fill="#FFFFFF" height="91.0547" style="stroke:#181818;stroke-width:1.0;" width="10" x="1085.5" y="242.9766"/><rect fill="#FFFFFF" height="91.0547" style="stroke:#181818;stroke-width:1.0;" width="10" x="1085.5" y="633.1953"/><rect fill="#FFFFFF" height="91.0547" style="stroke:#181818;stroke-width:1.0;" width="10" x="1085.5" y="1108.6328"/><rect fill="#FFFFFF" height="30.3516" style="stroke:#181818;stroke-width:1.0;" width="10" x="1173.5" y="273.3281"/><rect fill="#FFFFFF" height="30.3516" style="stroke:#181818;stroke-width:1.0;" width="10" x="1173.5" y="663.5469"/><rect fill="#FFFFFF" height="30.3516" style="stroke:#181818;stroke-width:1.0;" width="10" x="1173.5" y="1138.9844"/><line style="stroke:#181818;stroke-width:0.5;stroke-dasharray:5.0,5.0;" x1="323" x2="323" y1="76.2188" y2="1352.0938"/><line style="stroke:#181818;stroke-width:0.5;stroke-dasharray:5.0,5.0;" x1="501" x2="501" y1="76.2188" y2="1352.0938"/><line style="stroke:#181818;stroke-width:0.5;stroke-dasharray:5.0,5.0;" x1="743.5" x2="743.5" y1="1002.0156" y2="1352.0938"/><line style="stroke:#181818;stroke-width:0.5;stroke-dasharray:5.0,5.0;" x1="843.5" x2="843.5" y1="76.2188" y2="1352.0938"/><line style="stroke:#181818;stroke-width:0.5;stroke-dasharray:5.0,5.0;" x1="951.5" x2="951.5" y1="1074.9766" y2="1352.0938"/><line style="stroke:#181818;stroke-width:0.5;stroke-dasharray:5.0,5.0;" x1="1090" x2="1090" y1="76.2188" y2="1352.0938"/><line style="stroke:#181818;stroke-width:0.5;stroke-dasharray:5.0,5.0;" x1="1178" x2="1178" y1="76.2188" y2="1352.0938"/><rect fill="#E3E3E3" height="31.6094" rx="2.5" ry="2.5" style="stroke:#181818;stroke-width:0.5;" width="56" x="295" y="43.6094"/><text fill="#000000" font-family="sans-serif" font-size="14" lengthAdjust="spacing" textLength="42" x="302" y="65.1426">Route:</text><rect fill="#E3E3E3" height="31.6094" rx="2.5" ry="2.5" style="stroke:#181818;stroke-width:0.5;" width="56" x="295" y="1351.0938"/><text fill="#000000" font-family="sans-serif" font-size="14" lengthAdjust="spacing" textLength="42" x="302" y="1372.627">Route:</text><rect fill="#E3E3E3" height="31.6094" rx="2.5" ry="2.5" style="stroke:#181818;stroke-width:0.5;" width="80" x="461" y="43.6094"/><text fill="#000000" font-family="sans-serif" font-size="14" lengthAdjust="spacing" textLength="66" x="468" y="65.1426">Controller:</text><rect fill="#E3E3E3" height="31.6094" rx="2.5" ry="2.5" style="stroke:#181818;stroke-width:0.5;" width="80" x="461" y="1351.0938"/><text fill="#000000" font-family="sans-serif" font-size="14" lengthAdjust="spacing" textLength="66" x="468" y="1372.627">Controller:</text><rect fill="#E3E3E3" height="31.6094" rx="2.5" ry="2.5" style="stroke:#181818;stroke-width:0.5;" width="81" x="703.5" y="1351.0938"/><text fill="#000000" font-family="sans-serif" font-size="14" lengthAdjust="spacing" textLength="67" x="710.5" y="1372.627">FloorDTO:</text><rect fill="#E3E3E3" height="31.6094" rx="2.5" ry="2.5" style="stroke:#181818;stroke-width:0.5;" width="98" x="794.5" y="43.6094"/><text fill="#000000" font-family="sans-serif" font-size="14" lengthAdjust="spacing" textLength="84" x="801.5" y="65.1426">FloorService:</text><rect fill="#E3E3E3" height="31.6094" rx="2.5" ry="2.5" style="stroke:#181818;stroke-width:0.5;" width="98" x="794.5" y="1351.0938"/><text fill="#000000" font-family="sans-serif" font-size="14" lengthAdjust="spacing" textLength="84" x="801.5" y="1372.627">FloorService:</text><rect fill="#E3E3E3" height="31.6094" rx="2.5" ry="2.5" style="stroke:#181818;stroke-width:0.5;" width="51" x="926.5" y="1351.0938"/><text fill="#000000" font-family="sans-serif" font-size="14" lengthAdjust="spacing" textLength="37" x="933.5" y="1372.627">Floor:</text><rect fill="#E3E3E3" height="31.6094" rx="2.5" ry="2.5" style="stroke:#181818;stroke-width:0.5;" width="119" x="1031" y="43.6094"/><text fill="#000000" font-family="sans-serif" font-size="14" lengthAdjust="spacing" textLength="105" x="1038" y="65.1426">FloorRepository:</text><rect fill="#E3E3E3" height="31.6094" rx="2.5" ry="2.5" style="stroke:#181818;stroke-width:0.5;" width="119" x="1031" y="1351.0938"/><text fill="#000000" font-family="sans-serif" font-size="14" lengthAdjust="spacing" textLength="105" x="1038" y="1372.627">FloorRepository:</text><rect fill="#E3E3E3" height="31.6094" rx="2.5" ry="2.5" style="stroke:#181818;stroke-width:0.5;" width="37" x="1160" y="43.6094"/><text fill="#000000" font-family="sans-serif" font-size="14" lengthAdjust="spacing" textLength="23" x="1167" y="65.1426">DB:</text><rect fill="#E3E3E3" height="31.6094" rx="2.5" ry="2.5" style="stroke:#181818;stroke-width:0.5;" width="37" x="1160" y="1351.0938"/><text fill="#000000" font-family="sans-serif" font-size="14" lengthAdjust="spacing" textLength="23" x="1167" y="1372.627">DB:</text><rect fill="#FFFFFF" height="359.8672" style="stroke:#181818;stroke-width:1.0;" width="10" x="318" y="108.5703"/><rect fill="#FFFFFF" height="359.8672" style="stroke:#181818;stroke-width:1.0;" width="10" x="318" y="498.7891"/><rect fill="#FFFFFF" height="445.0859" style="stroke:#181818;stroke-width:1.0;" width="10" x="318" y="889.0078"/><rect fill="#FFFFFF" height="299.1641" style="stroke:#181818;stroke-width:1.0;" width="10" x="496" y="138.9219"/><rect fill="#FFFFFF" height="223.4609" style="stroke:#181818;stroke-width:1.0;" width="10" x="501" y="177.2734"/><rect fill="#FFFFFF" height="299.1641" style="stroke:#181818;stroke-width:1.0;" width="10" x="496" y="529.1406"/><rect fill="#FFFFFF" height="223.4609" style="stroke:#181818;stroke-width:1.0;" width="10" x="501" y="567.4922"/><rect fill="#FFFFFF" height="384.3828" style="stroke:#181818;stroke-width:1.0;" width="10" x="496" y="919.3594"/><rect fill="#FFFFFF" height="308.6797" style="stroke:#181818;stroke-width:1.0;" width="10" x="501" y="957.7109"/><rect fill="#FFFFFF" height="151.7578" style="stroke:#181818;stroke-width:1.0;" width="10" x="838.5" y="212.625"/><rect fill="#FFFFFF" height="151.7578" style="stroke:#181818;stroke-width:1.0;" width="10" x="838.5" y="602.8438"/><rect fill="#FFFFFF" height="194.3672" style="stroke:#181818;stroke-width:1.0;" width="10" x="838.5" y="1035.6719"/><rect fill="#FFFFFF" height="91.0547" style="stroke:#181818;stroke-width:1.0;" width="10" x="1085.5" y="242.9766"/><rect fill="#FFFFFF" height="91.0547" style="stroke:#181818;stroke-width:1.0;" width="10" x="1085.5" y="633.1953"/><rect fill="#FFFFFF" height="91.0547" style="stroke:#181818;stroke-width:1.0;" width="10" x="1085.5" y="1108.6328"/><rect fill="#FFFFFF" height="30.3516" style="stroke:#181818;stroke-width:1.0;" width="10" x="1173.5" y="273.3281"/><rect fill="#FFFFFF" height="30.3516" style="stroke:#181818;stroke-width:1.0;" width="10" x="1173.5" y="663.5469"/><rect fill="#FFFFFF" height="30.3516" style="stroke:#181818;stroke-width:1.0;" width="10" x="1173.5" y="1138.9844"/><ellipse cx="179.5" cy="107.8203" fill="none" rx="4" ry="4" style="stroke:#181818;stroke-width:1.5;"/><polygon fill="#181818" points="306,104.5703,316,108.5703,306,112.5703,310,108.5703" style="stroke:#181818;stroke-width:1.0;"/><line style="stroke:#181818;stroke-width:1.0;" x1="184" x2="312" y1="108.5703" y2="108.5703"/><text fill="#000000" font-family="sans-serif" font-size="13" font-weight="bold" lengthAdjust="spacing" textLength="7" x="187" y="103.7139">1</text><text fill="#000000" font-family="sans-serif" font-size="13" lengthAdjust="spacing" textLength="105" x="198" y="103.7139">GET (.../buildings)</text><polygon fill="#181818" points="484,134.9219,494,138.9219,484,142.9219,488,138.9219" style="stroke:#181818;stroke-width:1.0;"/><line style="stroke:#181818;stroke-width:1.0;" x1="328" x2="490" y1="138.9219" y2="138.9219"/><text fill="#000000" font-family="sans-serif" font-size="13" font-weight="bold" lengthAdjust="spacing" textLength="7" x="335" y="134.0654">2</text><text fill="#000000" font-family="sans-serif" font-size="13" lengthAdjust="spacing" textLength="131" x="346" y="134.0654">execute(req, res, next)</text><line style="stroke:#181818;stroke-width:1.0;" x1="506" x2="553" y1="164.2734" y2="164.2734"/><line style="stroke:#181818;stroke-width:1.0;" x1="553" x2="553" y1="164.2734" y2="177.2734"/><line style="stroke:#181818;stroke-width:1.0;" x1="512" x2="553" y1="177.2734" y2="177.2734"/><polygon fill="#181818" points="522,173.2734,512,177.2734,522,181.2734,518,177.2734" style="stroke:#181818;stroke-width:1.0;"/><text fill="#000000" font-family="sans-serif" font-size="13" font-weight="bold" lengthAdjust="spacing" textLength="7" x="518" y="159.417">3</text><text fill="#000000" font-family="sans-serif" font-size="13" lengthAdjust="spacing" textLength="156" x="529" y="159.417">getBuildings(req, res, next)</text><polygon fill="#181818" points="826.5,208.625,836.5,212.625,826.5,216.625,830.5,212.625" style="stroke:#181818;stroke-width:1.0;"/><line style="stroke:#181818;stroke-width:1.0;" x1="511" x2="832.5" y1="212.625" y2="212.625"/><text fill="#000000" font-family="sans-serif" font-size="13" font-weight="bold" lengthAdjust="spacing" textLength="7" x="518" y="207.7686">4</text><text fill="#000000" font-family="sans-serif" font-size="13" lengthAdjust="spacing" textLength="153" x="529" y="207.7686">getBuildings(buildingCode)</text><polygon fill="#181818" points="1073.5,238.9766,1083.5,242.9766,1073.5,246.9766,1077.5,242.9766" style="stroke:#181818;stroke-width:1.0;"/><line style="stroke:#181818;stroke-width:1.0;" x1="848.5" x2="1079.5" y1="242.9766" y2="242.9766"/><text fill="#000000" font-family="sans-serif" font-size="13" font-weight="bold" lengthAdjust="spacing" textLength="7" x="855.5" y="238.1201">5</text><text fill="#000000" font-family="sans-serif" font-size="13" lengthAdjust="spacing" textLength="155" x="866.5" y="238.1201">findBuildings(buildingCode)</text><polygon fill="#181818" points="1161.5,269.3281,1171.5,273.3281,1161.5,277.3281,1165.5,273.3281" style="stroke:#181818;stroke-width:1.0;"/><line style="stroke:#181818;stroke-width:1.0;" x1="1095.5" x2="1167.5" y1="273.3281" y2="273.3281"/><text fill="#000000" font-family="sans-serif" font-size="13" font-weight="bold" lengthAdjust="spacing" textLength="7" x="1102.5" y="268.4717">6</text><text fill="#000000" font-family="sans-serif" font-size="13" lengthAdjust="spacing" textLength="4" x="1113.5" y="268.4717"> </text><polygon fill="#181818" points="1106.5,299.6797,1096.5,303.6797,1106.5,307.6797,1102.5,303.6797" style="stroke:#181818;stroke-width:1.0;"/><line style="stroke:#181818;stroke-width:1.0;stroke-dasharray:2.0,2.0;" x1="1100.5" x2="1177.5" y1="303.6797" y2="303.6797"/><text fill="#000000" font-family="sans-serif" font-size="13" font-weight="bold" lengthAdjust="spacing" textLength="7" x="1112.5" y="298.8232">7</text><text fill="#000000" font-family="sans-serif" font-size="13" lengthAdjust="spacing" textLength="4" x="1123.5" y="298.8232"> </text><polygon fill="#181818" points="859.5,330.0313,849.5,334.0313,859.5,338.0313,855.5,334.0313" style="stroke:#181818;stroke-width:1.0;"/><line style="stroke:#181818;stroke-width:1.0;stroke-dasharray:2.0,2.0;" x1="853.5" x2="1089.5" y1="334.0313" y2="334.0313"/><text fill="#000000" font-family="sans-serif" font-size="13" font-weight="bold" lengthAdjust="spacing" textLength="7" x="865.5" y="329.1748">8</text><text fill="#000000" font-family="sans-serif" font-size="13" lengthAdjust="spacing" textLength="4" x="876.5" y="329.1748"> </text><polygon fill="#181818" points="522,360.3828,512,364.3828,522,368.3828,518,364.3828" style="stroke:#181818;stroke-width:1.0;"/><line style="stroke:#181818;stroke-width:1.0;stroke-dasharray:2.0,2.0;" x1="516" x2="842.5" y1="364.3828" y2="364.3828"/><text fill="#000000" font-family="sans-serif" font-size="13" font-weight="bold" lengthAdjust="spacing" textLength="7" x="528" y="359.5264">9</text><text fill="#000000" font-family="sans-serif" font-size="13" lengthAdjust="spacing" textLength="47" x="539" y="359.5264">DTOList</text><line style="stroke:#181818;stroke-width:1.0;stroke-dasharray:2.0,2.0;" x1="511" x2="553" y1="399.7344" y2="399.7344"/><line style="stroke:#181818;stroke-width:1.0;stroke-dasharray:2.0,2.0;" x1="553" x2="553" y1="399.7344" y2="412.7344"/><line style="stroke:#181818;stroke-width:1.0;stroke-dasharray:2.0,2.0;" x1="506" x2="553" y1="412.7344" y2="412.7344"/><polygon fill="#181818" points="516,408.7344,506,412.7344,516,416.7344,512,412.7344" style="stroke:#181818;stroke-width:1.0;"/><text fill="#000000" font-family="sans-serif" font-size="13" font-weight="bold" lengthAdjust="spacing" textLength="14" x="518" y="394.8779">10</text><text fill="#000000" font-family="sans-serif" font-size="13" lengthAdjust="spacing" textLength="90" x="536" y="394.8779">status: 200/404</text><polygon fill="#181818" points="339,434.0859,329,438.0859,339,442.0859,335,438.0859" style="stroke:#181818;stroke-width:1.0;"/><line style="stroke:#181818;stroke-width:1.0;stroke-dasharray:2.0,2.0;" x1="333" x2="500" y1="438.0859" y2="438.0859"/><text fill="#000000" font-family="sans-serif" font-size="13" font-weight="bold" lengthAdjust="spacing" textLength="14" x="345" y="433.2295">11</text><text fill="#000000" font-family="sans-serif" font-size="13" lengthAdjust="spacing" textLength="90" x="363" y="433.2295">status: 200/404</text><polygon fill="#181818" points="11,464.4375,1,468.4375,11,472.4375,7,468.4375" style="stroke:#181818;stroke-width:1.0;"/><line style="stroke:#181818;stroke-width:1.0;stroke-dasharray:2.0,2.0;" x1="5" x2="322" y1="468.4375" y2="468.4375"/><text fill="#000000" font-family="sans-serif" font-size="13" font-weight="bold" lengthAdjust="spacing" textLength="14" x="17" y="463.5811">12</text><text fill="#000000" font-family="sans-serif" font-size="13" lengthAdjust="spacing" textLength="90" x="35" y="463.5811">status: 200/404</text><ellipse cx="101.5" cy="498.0391" fill="none" rx="4" ry="4" style="stroke:#181818;stroke-width:1.5;"/><polygon fill="#181818" points="306,494.7891,316,498.7891,306,502.7891,310,498.7891" style="stroke:#181818;stroke-width:1.0;"/><line style="stroke:#181818;stroke-width:1.0;" x1="106" x2="312" y1="498.7891" y2="498.7891"/><text fill="#000000" font-family="sans-serif" font-size="13" font-weight="bold" lengthAdjust="spacing" textLength="14" x="109" y="493.9326">13</text><text fill="#000000" font-family="sans-serif" font-size="13" lengthAdjust="spacing" textLength="176" x="127" y="493.9326">GET (.../buildings/:code/floors)</text><polygon fill="#181818" points="484,525.1406,494,529.1406,484,533.1406,488,529.1406" style="stroke:#181818;stroke-width:1.0;"/><line style="stroke:#181818;stroke-width:1.0;" x1="328" x2="490" y1="529.1406" y2="529.1406"/><text fill="#000000" font-family="sans-serif" font-size="13" font-weight="bold" lengthAdjust="spacing" textLength="14" x="335" y="524.2842">14</text><text fill="#000000" font-family="sans-serif" font-size="13" lengthAdjust="spacing" textLength="131" x="353" y="524.2842">execute(req, res, next)</text><line style="stroke:#181818;stroke-width:1.0;" x1="506" x2="553" y1="554.4922" y2="554.4922"/><line style="stroke:#181818;stroke-width:1.0;" x1="553" x2="553" y1="554.4922" y2="567.4922"/><line style="stroke:#181818;stroke-width:1.0;" x1="512" x2="553" y1="567.4922" y2="567.4922"/><polygon fill="#181818" points="522,563.4922,512,567.4922,522,571.4922,518,567.4922" style="stroke:#181818;stroke-width:1.0;"/><text fill="#000000" font-family="sans-serif" font-size="13" font-weight="bold" lengthAdjust="spacing" textLength="14" x="518" y="549.6357">15</text><text fill="#000000" font-family="sans-serif" font-size="13" lengthAdjust="spacing" textLength="201" x="536" y="549.6357">getFloorsByBuilding(req, res, next)</text><polygon fill="#181818" points="826.5,598.8438,836.5,602.8438,826.5,606.8438,830.5,602.8438" style="stroke:#181818;stroke-width:1.0;"/><line style="stroke:#181818;stroke-width:1.0;" x1="511" x2="832.5" y1="602.8438" y2="602.8438"/><text fill="#000000" font-family="sans-serif" font-size="13" font-weight="bold" lengthAdjust="spacing" textLength="14" x="518" y="597.9873">16</text><text fill="#000000" font-family="sans-serif" font-size="13" lengthAdjust="spacing" textLength="198" x="536" y="597.9873">getFloorsByBuilding(buildingCode)</text><polygon fill="#181818" points="1073.5,629.1953,1083.5,633.1953,1073.5,637.1953,1077.5,633.1953" style="stroke:#181818;stroke-width:1.0;"/><line style="stroke:#181818;stroke-width:1.0;" x1="848.5" x2="1079.5" y1="633.1953" y2="633.1953"/><text fill="#000000" font-family="sans-serif" font-size="13" font-weight="bold" lengthAdjust="spacing" textLength="14" x="855.5" y="628.3389">17</text><text fill="#000000" font-family="sans-serif" font-size="13" lengthAdjust="spacing" textLength="200" x="873.5" y="628.3389">findFloorsByBuilding(buildingCode)</text><polygon fill="#181818" points="1161.5,659.5469,1171.5,663.5469,1161.5,667.5469,1165.5,663.5469" style="stroke:#181818;stroke-width:1.0;"/><line style="stroke:#181818;stroke-width:1.0;" x1="1095.5" x2="1167.5" y1="663.5469" y2="663.5469"/><text fill="#000000" font-family="sans-serif" font-size="13" font-weight="bold" lengthAdjust="spacing" textLength="14" x="1102.5" y="658.6904">18</text><text fill="#000000" font-family="sans-serif" font-size="13" lengthAdjust="spacing" textLength="4" x="1120.5" y="658.6904"> </text><polygon fill="#181818" points="1106.5,689.8984,1096.5,693.8984,1106.5,697.8984,1102.5,693.8984" style="stroke:#181818;stroke-width:1.0;"/><line style="stroke:#181818;stroke-width:1.0;stroke-dasharray:2.0,2.0;" x1="1100.5" x2="1177.5" y1="693.8984" y2="693.8984"/><text fill="#000000" font-family="sans-serif" font-size="13" font-weight="bold" lengthAdjust="spacing" textLength="14" x="1112.5" y="689.042">19</text><text fill="#000000" font-family="sans-serif" font-size="13" lengthAdjust="spacing" textLength="4" x="1130.5" y="689.042"> </text><polygon fill="#181818" points="859.5,720.25,849.5,724.25,859.5,728.25,855.5,724.25" style="stroke:#181818;stroke-width:1.0;"/><line style="stroke:#181818;stroke-width:1.0;stroke-dasharray:2.0,2.0;" x1="853.5" x2="1089.5" y1="724.25" y2="724.25"/><text fill="#000000" font-family="sans-serif" font-size="13" font-weight="bold" lengthAdjust="spacing" textLength="14" x="865.5" y="719.3936">20</text><text fill="#000000" font-family="sans-serif" font-size="13" lengthAdjust="spacing" textLength="4" x="883.5" y="719.3936"> </text><polygon fill="#181818" points="522,750.6016,512,754.6016,522,758.6016,518,754.6016" style="stroke:#181818;stroke-width:1.0;"/><line style="stroke:#181818;stroke-width:1.0;stroke-dasharray:2.0,2.0;" x1="516" x2="842.5" y1="754.6016" y2="754.6016"/><text fill="#000000" font-family="sans-serif" font-size="13" font-weight="bold" lengthAdjust="spacing" textLength="14" x="528" y="749.7451">21</text><text fill="#000000" font-family="sans-serif" font-size="13" lengthAdjust="spacing" textLength="47" x="546" y="749.7451">DTOList</text><line style="stroke:#181818;stroke-width:1.0;stroke-dasharray:2.0,2.0;" x1="511" x2="553" y1="789.9531" y2="789.9531"/><line style="stroke:#181818;stroke-width:1.0;stroke-dasharray:2.0,2.0;" x1="553" x2="553" y1="789.9531" y2="802.9531"/><line style="stroke:#181818;stroke-width:1.0;stroke-dasharray:2.0,2.0;" x1="506" x2="553" y1="802.9531" y2="802.9531"/><polygon fill="#181818" points="516,798.9531,506,802.9531,516,806.9531,512,802.9531" style="stroke:#181818;stroke-width:1.0;"/><text fill="#000000" font-family="sans-serif" font-size="13" font-weight="bold" lengthAdjust="spacing" textLength="14" x="518" y="785.0967">22</text><text fill="#000000" font-family="sans-serif" font-size="13" lengthAdjust="spacing" textLength="90" x="536" y="785.0967">status: 200/404</text><polygon fill="#181818" points="339,824.3047,329,828.3047,339,832.3047,335,828.3047" style="stroke:#181818;stroke-width:1.0;"/><line style="stroke:#181818;stroke-width:1.0;stroke-dasharray:2.0,2.0;" x1="333" x2="500" y1="828.3047" y2="828.3047"/><text fill="#000000" font-family="sans-serif" font-size="13" font-weight="bold" lengthAdjust="spacing" textLength="14" x="345" y="823.4482">23</text><text fill="#000000" font-family="sans-serif" font-size="13" lengthAdjust="spacing" textLength="90" x="363" y="823.4482">status: 200/404</text><polygon fill="#181818" points="11,854.6563,1,858.6563,11,862.6563,7,858.6563" style="stroke:#181818;stroke-width:1.0;"/><line style="stroke:#181818;stroke-width:1.0;stroke-dasharray:2.0,2.0;" x1="5" x2="322" y1="858.6563" y2="858.6563"/><text fill="#000000" font-family="sans-serif" font-size="13" font-weight="bold" lengthAdjust="spacing" textLength="14" x="17" y="853.7998">24</text><text fill="#000000" font-family="sans-serif" font-size="13" lengthAdjust="spacing" textLength="90" x="35" y="853.7998">status: 200/404</text><ellipse cx="4.5" cy="888.2578" fill="none" rx="4" ry="4" style="stroke:#181818;stroke-width:1.5;"/><polygon fill="#181818" points="306,885.0078,316,889.0078,306,893.0078,310,889.0078" style="stroke:#181818;stroke-width:1.0;"/><line style="stroke:#181818;stroke-width:1.0;" x1="9" x2="312" y1="889.0078" y2="889.0078"/><text fill="#000000" font-family="sans-serif" font-size="13" font-weight="bold" lengthAdjust="spacing" textLength="14" x="12" y="884.1514">25</text><text fill="#000000" font-family="sans-serif" font-size="13" lengthAdjust="spacing" textLength="273" x="30" y="884.1514">PUT/PATCH (.../buildings/:code/floors/:number)</text><polygon fill="#181818" points="484,915.3594,494,919.3594,484,923.3594,488,919.3594" style="stroke:#181818;stroke-width:1.0;"/><line style="stroke:#181818;stroke-width:1.0;" x1="328" x2="490" y1="919.3594" y2="919.3594"/><text fill="#000000" font-family="sans-serif" font-size="13" font-weight="bold" lengthAdjust="spacing" textLength="14" x="335" y="914.5029">26</text><text fill="#000000" font-family="sans-serif" font-size="13" lengthAdjust="spacing" textLength="131" x="353" y="914.5029">execute(req, res, next)</text><line style="stroke:#181818;stroke-width:1.0;" x1="506" x2="553" y1="944.7109" y2="944.7109"/><line style="stroke:#181818;stroke-width:1.0;" x1="553" x2="553" y1="944.7109" y2="957.7109"/><line style="stroke:#181818;stroke-width:1.0;" x1="512" x2="553" y1="957.7109" y2="957.7109"/><polygon fill="#181818" points="522,953.7109,512,957.7109,522,961.7109,518,957.7109" style="stroke:#181818;stroke-width:1.0;"/><text fill="#000000" font-family="sans-serif" font-size="13" font-weight="bold" lengthAdjust="spacing" textLength="14" x="518" y="939.8545">27</text><text fill="#000000" font-family="sans-serif" font-size="13" lengthAdjust="spacing" textLength="153" x="536" y="939.8545">updateFloor(req, res, next)</text><polygon fill="#181818" points="691.5,989.0625,701.5,993.0625,691.5,997.0625,695.5,993.0625" style="stroke:#181818;stroke-width:1.0;"/><line style="stroke:#181818;stroke-width:1.0;stroke-dasharray:2.0,2.0;" x1="511" x2="697.5" y1="993.0625" y2="993.0625"/><text fill="#000000" font-family="sans-serif" font-size="13" font-weight="bold" lengthAdjust="spacing" textLength="14" x="518" y="988.2061">28</text><text fill="#000000" font-family="sans-serif" font-size="13" lengthAdjust="spacing" textLength="36" x="536" y="988.2061">create</text><rect fill="#E3E3E3" height="31.6094" rx="2.5" ry="2.5" style="stroke:#181818;stroke-width:0.5;" width="81" x="703.5" y="970.7109"/><text fill="#000000" font-family="sans-serif" font-size="14" lengthAdjust="spacing" textLength="67" x="710.5" y="992.2441">FloorDTO:</text><polygon fill="#181818" points="826.5,1031.6719,836.5,1035.6719,826.5,1039.6719,830.5,1035.6719" style="stroke:#181818;stroke-width:1.0;"/><line style="stroke:#181818;stroke-width:1.0;" x1="511" x2="832.5" y1="1035.6719" y2="1035.6719"/><text fill="#000000" font-family="sans-serif" font-size="13" font-weight="bold" lengthAdjust="spacing" textLength="14" x="518" y="1030.8154">29</text><text fill="#000000" font-family="sans-serif" font-size="13" lengthAdjust="spacing" textLength="126" x="536" y="1030.8154">updateFloor(floorDTO)</text><polygon fill="#181818" points="914.5,1062.0234,924.5,1066.0234,914.5,1070.0234,918.5,1066.0234" style="stroke:#181818;stroke-width:1.0;"/><line style="stroke:#181818;stroke-width:1.0;stroke-dasharray:2.0,2.0;" x1="848.5" x2="920.5" y1="1066.0234" y2="1066.0234"/><text fill="#000000" font-family="sans-serif" font-size="13" font-weight="bold" lengthAdjust="spacing" textLength="14" x="855.5" y="1061.167">30</text><text fill="#000000" font-family="sans-serif" font-size="13" lengthAdjust="spacing" textLength="36" x="873.5" y="1061.167">create</text><rect fill="#E3E3E3" height="31.6094" rx="2.5" ry="2.5" style="stroke:#181818;stroke-width:0.5;" width="51" x="926.5" y="1043.6719"/><text fill="#000000" font-family="sans-serif" font-size="14" lengthAdjust="spacing" textLength="37" x="933.5" y="1065.2051">Floor:</text><polygon fill="#181818" points="1073.5,1104.6328,1083.5,1108.6328,1073.5,1112.6328,1077.5,1108.6328" style="stroke:#181818;stroke-width:1.0;"/><line style="stroke:#181818;stroke-width:1.0;" x1="848.5" x2="1079.5" y1="1108.6328" y2="1108.6328"/><text fill="#000000" font-family="sans-serif" font-size="13" font-weight="bold" lengthAdjust="spacing" textLength="14" x="855.5" y="1103.7764">31</text><text fill="#000000" font-family="sans-serif" font-size="13" lengthAdjust="spacing" textLength="71" x="873.5" y="1103.7764">update(floor)</text><polygon fill="#181818" points="1161.5,1134.9844,1171.5,1138.9844,1161.5,1142.9844,1165.5,1138.9844" style="stroke:#181818;stroke-width:1.0;"/><line style="stroke:#181818;stroke-width:1.0;" x1="1095.5" x2="1167.5" y1="1138.9844" y2="1138.9844"/><text fill="#000000" font-family="sans-serif" font-size="13" font-weight="bold" lengthAdjust="spacing" textLength="14" x="1102.5" y="1134.1279">32</text><text fill="#000000" font-family="sans-serif" font-size="13" lengthAdjust="spacing" textLength="4" x="1120.5" y="1134.1279"> </text><polygon fill="#181818" points="1106.5,1165.3359,1096.5,1169.3359,1106.5,1173.3359,1102.5,1169.3359" style="stroke:#181818;stroke-width:1.0;"/><line style="stroke:#181818;stroke-width:1.0;stroke-dasharray:2.0,2.0;" x1="1100.5" x2="1177.5" y1="1169.3359" y2="1169.3359"/><text fill="#000000" font-family="sans-serif" font-size="13" font-weight="bold" lengthAdjust="spacing" textLength="14" x="1112.5" y="1164.4795">33</text><text fill="#000000" font-family="sans-serif" font-size="13" lengthAdjust="spacing" textLength="4" x="1130.5" y="1164.4795"> </text><polygon fill="#181818" points="859.5,1195.6875,849.5,1199.6875,859.5,1203.6875,855.5,1199.6875" style="stroke:#181818;stroke-width:1.0;"/><line style="stroke:#181818;stroke-width:1.0;stroke-dasharray:2.0,2.0;" x1="853.5" x2="1089.5" y1="1199.6875" y2="1199.6875"/><text fill="#000000" font-family="sans-serif" font-size="13" font-weight="bold" lengthAdjust="spacing" textLength="14" x="865.5" y="1194.8311">34</text><text fill="#000000" font-family="sans-serif" font-size="13" lengthAdjust="spacing" textLength="4" x="883.5" y="1194.8311"> </text><polygon fill="#181818" points="522,1226.0391,512,1230.0391,522,1234.0391,518,1230.0391" style="stroke:#181818;stroke-width:1.0;"/><line style="stroke:#181818;stroke-width:1.0;stroke-dasharray:2.0,2.0;" x1="516" x2="842.5" y1="1230.0391" y2="1230.0391"/><text fill="#000000" font-family="sans-serif" font-size="13" font-weight="bold" lengthAdjust="spacing" textLength="14" x="528" y="1225.1826">35</text><text fill="#000000" font-family="sans-serif" font-size="13" lengthAdjust="spacing" textLength="4" x="546" y="1225.1826"> </text><line style="stroke:#181818;stroke-width:1.0;stroke-dasharray:2.0,2.0;" x1="511" x2="553" y1="1265.3906" y2="1265.3906"/><line style="stroke:#181818;stroke-width:1.0;stroke-dasharray:2.0,2.0;" x1="553" x2="553" y1="1265.3906" y2="1278.3906"/><line style="stroke:#181818;stroke-width:1.0;stroke-dasharray:2.0,2.0;" x1="506" x2="553" y1="1278.3906" y2="1278.3906"/><polygon fill="#181818" points="516,1274.3906,506,1278.3906,516,1282.3906,512,1278.3906" style="stroke:#181818;stroke-width:1.0;"/><text fill="#000000" font-family="sans-serif" font-size="13" font-weight="bold" lengthAdjust="spacing" textLength="14" x="518" y="1260.5342">36</text><text fill="#000000" font-family="sans-serif" font-size="13" lengthAdjust="spacing" textLength="90" x="536" y="1260.5342">status: 200/404</text><polygon fill="#181818" points="339,1299.7422,329,1303.7422,339,1307.7422,335,1303.7422" style="stroke:#181818;stroke-width:1.0;"/><line style="stroke:#181818;stroke-width:1.0;stroke-dasharray:2.0,2.0;" x1="333" x2="500" y1="1303.7422" y2="1303.7422"/><text fill="#000000" font-family="sans-serif" font-size="13" font-weight="bold" lengthAdjust="spacing" textLength="14" x="345" y="1298.8857">37</text><text fill="#000000" font-family="sans-serif" font-size="13" lengthAdjust="spacing" textLength="90" x="363" y="1298.8857">status: 200/404</text><polygon fill="#181818" points="11,1330.0938,1,1334.0938,11,1338.0938,7,1334.0938" style="stroke:#181818;stroke-width:1.0;"/><line style="stroke:#181818;stroke-width:1.0;stroke-dasharray:2.0,2.0;" x1="5" x2="322" y1="1334.0938" y2="1334.0938"/><text fill="#000000" font-family="sans-serif" font-size="13" font-weight="bold" lengthAdjust="spacing" textLength="14" x="17" y="1329.2373">38</text><text fill="#000000" font-family="sans-serif" font-size="13" lengthAdjust="spacing" textLength="90" x="35" y="1329.2373">status: 200/404</text><!--MD5=[3786c9aae11c846c118073a143337ba0]
@startuml
skinparam monochrome true
skinparam packageStyle rectangle
skinparam shadowing false

title Sequence Diagram (Level 3 - Process View) - US 1110
autonumber

participant "Route:" as Route 
participant "Controller:" as Controller
participant "FloorDTO:" as FloorDTO
participant "FloorService:" as Service
participant "Floor:" as Floor
participant "FloorRepository:" as Repo
participant "DB:" as DB

?o-> Route : GET (.../buildings)
activate Route

Route -> Controller : execute(req, res, next)
activate Controller

Controller -> Controller : getBuildings(req, res, next)
activate Controller

Controller -> Service : getBuildings(buildingCode)
activate Service

Service -> Repo : findBuildings(buildingCode)
activate Repo

Repo -> DB
activate DB

DB - -> Repo
deactivate DB

Repo - -> Service
deactivate Repo

Service - -> Controller : DTOList
deactivate Service

Controller - -> Controller : status: 200/404
deactivate Controller

Controller - -> Route : status: 200/404
deactivate Controller

<- - Route : status: 200/404
deactivate Route

?o-> Route : GET (.../buildings/:code/floors)
activate Route

Route -> Controller : execute(req, res, next)
activate Controller

Controller -> Controller : getFloorsByBuilding(req, res, next)
activate Controller

Controller -> Service : getFloorsByBuilding(buildingCode)
activate Service

Service -> Repo : findFloorsByBuilding(buildingCode)
activate Repo

Repo -> DB
activate DB

DB - -> Repo
deactivate DB

Repo - -> Service
deactivate Repo

Service - -> Controller : DTOList
deactivate Service

Controller - -> Controller : status: 200/404
deactivate Controller

Controller - -> Route : status: 200/404
deactivate Controller

<- - Route : status: 200/404
deactivate Route

?o-> Route : PUT/PATCH (.../buildings/:code/floors/:number)
activate Route

    Route -> Controller : execute(req, res, next)
    activate Controller
        Controller -> Controller : updateFloor(req, res, next)
        activate Controller
            Controller - -> FloorDTO** : create
            Controller -> Service : updateFloor(floorDTO)

            activate Service
                Service - -> Floor** : create
                Service -> Repo : update(floor)
                activate Repo
                    Repo -> DB :
                    activate DB
                    DB - -> Repo :
                    deactivate DB
                    Repo - -> Service :
                deactivate Repo
                Service - -> Controller :
            deactivate Service

            Controller - -> Controller : status: 200/404
        deactivate Controller
    Controller - -> Route : status: 200/404
    deactivate Controller

<- - Route : status: 200/404
deactivate Route

@enduml

PlantUML version 1.2022.7(Mon Aug 22 18:01:30 WEST 2022)
(GPL source distribution)
Java Runtime: Java(TM) SE Runtime Environment
JVM: Java HotSpot(TM) 64-Bit Server VM
Default Encoding: Cp1252
Language: pt
Country: PT
--></g></svg>