<?xml version="1.0" encoding="UTF-8" standalone="no"?><svg xmlns="http://www.w3.org/2000/svg" xmlns:xlink="http://www.w3.org/1999/xlink" contentStyleType="text/css" height="345px" preserveAspectRatio="none" style="width:416px;height:345px;background:#FFFFFF;" version="1.1" viewBox="0 0 416 345" width="416px" zoomAndPan="magnify"><defs/><g><rect fill="none" height="41.4453" id="_title" style="stroke:none;stroke-width:1.0;" width="304" x="49" y="5"/><text fill="#000000" font-family="sans-serif" font-size="25" font-weight="bold" lengthAdjust="spacing" text-decoration="underline" textLength="294" x="54" y="35.9521">US 210 - Domain classes</text><!--MD5=[a8c72dcb0993599bf4f10d1dea215f72]
cluster <<aggregate>> Building--><g id="cluster_&lt;&lt;aggregate&gt;&gt; Building"><path d="M8.5,60.4385 L294.5,60.4385 A3.75,3.75 0 0 1 297,62.9385 L304,97.8838 L406.5,97.8838 A2.5,2.5 0 0 1 409,100.3838 L409,335.9385 A2.5,2.5 0 0 1 406.5,338.4385 L8.5,338.4385 A2.5,2.5 0 0 1 6,335.9385 L6,62.9385 A2.5,2.5 0 0 1 8.5,60.4385 " fill="none" style="stroke:#000000;stroke-width:1.5;"/><line style="stroke:#000000;stroke-width:1.5;" x1="6" x2="304" y1="97.8838" y2="97.8838"/><text fill="#000000" font-family="sans-serif" font-size="25" font-weight="bold" lengthAdjust="spacing" textLength="285" x="10" y="88.3906">&lt;&lt;aggregate&gt;&gt; Building</text></g><!--MD5=[8560f289a30852a9f75d64e53f926853]
class Building--><g id="elem_Building"><rect codeLine="10" fill="#F1F1F1" height="65.7969" id="Building" rx="2.5" ry="2.5" style="stroke:#181818;stroke-width:0.5;" width="82" x="22" y="110.4385"/><ellipse cx="37" cy="139.3369" fill="#ADD1B2" rx="11" ry="11" style="stroke:#181818;stroke-width:1.0;"/><path d="M35.8594,140.1338 L35.8594,142.6338 L40.1875,142.6338 L40.1875,141.7119 Q40.1875,141.1025 40.4219,140.8369 Q40.6719,140.5713 41.0469,140.5713 Q41.4219,140.5713 41.6563,140.8369 Q41.8906,141.1025 41.8906,141.7119 L41.8906,144.3369 L33.8906,144.3369 Q33.2656,144.3369 33,144.1025 Q32.75,143.8682 32.75,143.4775 Q32.75,143.1025 33.0156,142.8682 Q33.2813,142.6338 33.8906,142.6338 L34.1563,142.6338 L34.1563,135.9775 L33.8906,135.9775 Q33.2656,135.9775 33,135.7432 Q32.75,135.5088 32.75,135.1182 Q32.75,134.7432 33,134.5088 Q33.2656,134.2744 33.8906,134.2744 L41.5156,134.2744 L41.5156,136.8682 Q41.5156,137.4775 41.2813,137.7432 Q41.0625,137.9932 40.6719,137.9932 Q40.2969,137.9932 40.0625,137.7432 Q39.8281,137.4775 39.8281,136.8682 L39.8281,135.9775 L35.8594,135.9775 L35.8594,138.4307 L37.3438,138.4307 Q37.3438,137.7744 37.4688,137.5869 Q37.7344,137.1807 38.2031,137.1807 Q38.5781,137.1807 38.8125,137.4463 Q39.0469,137.6963 39.0469,138.3057 L39.0469,140.2744 Q39.0469,140.8213 38.9219,141.0088 Q38.6563,141.3994 38.2031,141.3994 Q37.7344,141.3994 37.4688,140.9932 Q37.3438,140.8057 37.3438,140.1338 L35.8594,140.1338 Z " fill="#000000"/><text fill="#000000" font-family="sans-serif" font-size="12" font-style="italic" lengthAdjust="spacing" textLength="43" x="54.5" y="127.8955">«entity»</text><text fill="#000000" font-family="sans-serif" font-size="12" font-style="italic" lengthAdjust="spacing" textLength="35" x="58.5" y="142.9893">«root»</text><text fill="#000000" font-family="sans-serif" font-size="14" lengthAdjust="spacing" textLength="50" x="51" y="160.1592">Building</text><line style="stroke:#181818;stroke-width:0.5;" x1="23" x2="103" y1="168.2354" y2="168.2354"/></g><!--MD5=[ba580110b1777f63e0f1dfe3fcefdac0]
class Code--><g id="elem_Code"><rect codeLine="11" fill="#F1F1F1" height="50.7031" id="Code" rx="2.5" ry="2.5" style="stroke:#181818;stroke-width:0.5;" width="109" x="22.5" y="262.9385"/><ellipse cx="37.5" cy="284.29" fill="#FF8B40" rx="11" ry="11" style="stroke:#181818;stroke-width:1.0;"/><path d="M38.0938,287.5557 L40.5625,281.6807 L40.1719,281.6807 Q39.5625,281.6807 39.2969,281.4463 Q39.0313,281.2119 39.0313,280.8213 Q39.0313,280.4463 39.2969,280.2119 Q39.5625,279.9775 40.1719,279.9775 L42.4531,279.9775 Q43.0625,279.9775 43.3281,280.2119 Q43.5938,280.4463 43.5938,280.8213 Q43.5938,281.29 43.1875,281.5557 Q43,281.6807 42.4063,281.6807 L38.9219,290.04 L37.2813,290.04 L33.7969,281.6807 Q33.2031,281.6807 33.0156,281.5557 Q32.6094,281.29 32.6094,280.8213 Q32.6094,280.4463 32.875,280.2119 Q33.1406,279.9775 33.75,279.9775 L36.0469,279.9775 Q36.6563,279.9775 36.9063,280.2119 Q37.1719,280.4463 37.1719,280.8213 Q37.1719,281.2119 36.9063,281.4463 Q36.6563,281.6807 36.0469,281.6807 L35.6406,281.6807 L38.0938,287.5557 Z " fill="#000000"/><text fill="#000000" font-family="sans-serif" font-size="12" font-style="italic" lengthAdjust="spacing" textLength="81" x="49.5" y="280.3955">«value object»</text><text fill="#000000" font-family="sans-serif" font-size="14" lengthAdjust="spacing" textLength="34" x="73" y="297.5654">Code</text><line style="stroke:#181818;stroke-width:0.5;" x1="23.5" x2="130.5" y1="305.6416" y2="305.6416"/></g><!--MD5=[b098efa4dd65edfeebe973e4edec7c36]
class Floor--><g id="elem_Floor"><rect codeLine="13" fill="#F1F1F1" height="68.3125" id="Floor" rx="2.5" ry="2.5" style="stroke:#181818;stroke-width:0.5;" width="71" x="166.5" y="254.4385"/><ellipse cx="181.5" cy="275.79" fill="#ADD1B2" rx="11" ry="11" style="stroke:#181818;stroke-width:1.0;"/><path d="M180.3594,276.5869 L180.3594,279.0869 L184.6875,279.0869 L184.6875,278.165 Q184.6875,277.5557 184.9219,277.29 Q185.1719,277.0244 185.5469,277.0244 Q185.9219,277.0244 186.1563,277.29 Q186.3906,277.5557 186.3906,278.165 L186.3906,280.79 L178.3906,280.79 Q177.7656,280.79 177.5,280.5557 Q177.25,280.3213 177.25,279.9307 Q177.25,279.5557 177.5156,279.3213 Q177.7813,279.0869 178.3906,279.0869 L178.6563,279.0869 L178.6563,272.4307 L178.3906,272.4307 Q177.7656,272.4307 177.5,272.1963 Q177.25,271.9619 177.25,271.5713 Q177.25,271.1963 177.5,270.9619 Q177.7656,270.7275 178.3906,270.7275 L186.0156,270.7275 L186.0156,273.3213 Q186.0156,273.9307 185.7813,274.1963 Q185.5625,274.4463 185.1719,274.4463 Q184.7969,274.4463 184.5625,274.1963 Q184.3281,273.9307 184.3281,273.3213 L184.3281,272.4307 L180.3594,272.4307 L180.3594,274.8838 L181.8438,274.8838 Q181.8438,274.2275 181.9688,274.04 Q182.2344,273.6338 182.7031,273.6338 Q183.0781,273.6338 183.3125,273.8994 Q183.5469,274.1494 183.5469,274.7588 L183.5469,276.7275 Q183.5469,277.2744 183.4219,277.4619 Q183.1563,277.8525 182.7031,277.8525 Q182.2344,277.8525 181.9688,277.4463 Q181.8438,277.2588 181.8438,276.5869 L180.3594,276.5869 Z " fill="#000000"/><text fill="#000000" font-family="sans-serif" font-size="12" font-style="italic" lengthAdjust="spacing" textLength="43" x="193.5" y="271.8955">«entity»</text><text fill="#000000" font-family="sans-serif" font-size="14" lengthAdjust="spacing" textLength="33" x="198.5" y="289.0654">Floor</text><line style="stroke:#181818;stroke-width:0.5;" x1="167.5" x2="236.5" y1="297.1416" y2="297.1416"/><text fill="#000000" font-family="sans-serif" font-size="14" lengthAdjust="spacing" textLength="48" x="172.5" y="315.6748">number</text></g><!--MD5=[009695af4e54f3bba8a9c60dca3e1c94]
class Description--><g id="elem_Description"><rect codeLine="17" fill="#F1F1F1" height="50.7031" id="Description" rx="2.5" ry="2.5" style="stroke:#181818;stroke-width:0.5;" width="109" x="283.5" y="117.9385"/><ellipse cx="298.5" cy="139.29" fill="#FF8B40" rx="11" ry="11" style="stroke:#181818;stroke-width:1.0;"/><path d="M299.0938,142.5557 L301.5625,136.6807 L301.1719,136.6807 Q300.5625,136.6807 300.2969,136.4463 Q300.0313,136.2119 300.0313,135.8213 Q300.0313,135.4463 300.2969,135.2119 Q300.5625,134.9775 301.1719,134.9775 L303.4531,134.9775 Q304.0625,134.9775 304.3281,135.2119 Q304.5938,135.4463 304.5938,135.8213 Q304.5938,136.29 304.1875,136.5557 Q304,136.6807 303.4063,136.6807 L299.9219,145.04 L298.2813,145.04 L294.7969,136.6807 Q294.2031,136.6807 294.0156,136.5557 Q293.6094,136.29 293.6094,135.8213 Q293.6094,135.4463 293.875,135.2119 Q294.1406,134.9775 294.75,134.9775 L297.0469,134.9775 Q297.6563,134.9775 297.9063,135.2119 Q298.1719,135.4463 298.1719,135.8213 Q298.1719,136.2119 297.9063,136.4463 Q297.6563,136.6807 297.0469,136.6807 L296.6406,136.6807 L299.0938,142.5557 Z " fill="#000000"/><text fill="#000000" font-family="sans-serif" font-size="12" font-style="italic" lengthAdjust="spacing" textLength="81" x="310.5" y="135.3955">«value object»</text><text fill="#000000" font-family="sans-serif" font-size="14" lengthAdjust="spacing" textLength="71" x="315.5" y="152.5654">Description</text><line style="stroke:#181818;stroke-width:0.5;" x1="284.5" x2="391.5" y1="160.6416" y2="160.6416"/></g><!--MD5=[d218c48b946d362ff1ecd879cabebcad]
class Room--><g id="elem_Room"><rect codeLine="18" fill="#F1F1F1" height="50.7031" id="Room" rx="2.5" ry="2.5" style="stroke:#181818;stroke-width:0.5;" width="109" x="139.5" y="117.9385"/><ellipse cx="154.5" cy="139.29" fill="#FF8B40" rx="11" ry="11" style="stroke:#181818;stroke-width:1.0;"/><path d="M155.0938,142.5557 L157.5625,136.6807 L157.1719,136.6807 Q156.5625,136.6807 156.2969,136.4463 Q156.0313,136.2119 156.0313,135.8213 Q156.0313,135.4463 156.2969,135.2119 Q156.5625,134.9775 157.1719,134.9775 L159.4531,134.9775 Q160.0625,134.9775 160.3281,135.2119 Q160.5938,135.4463 160.5938,135.8213 Q160.5938,136.29 160.1875,136.5557 Q160,136.6807 159.4063,136.6807 L155.9219,145.04 L154.2813,145.04 L150.7969,136.6807 Q150.2031,136.6807 150.0156,136.5557 Q149.6094,136.29 149.6094,135.8213 Q149.6094,135.4463 149.875,135.2119 Q150.1406,134.9775 150.75,134.9775 L153.0469,134.9775 Q153.6563,134.9775 153.9063,135.2119 Q154.1719,135.4463 154.1719,135.8213 Q154.1719,136.2119 153.9063,136.4463 Q153.6563,136.6807 153.0469,136.6807 L152.6406,136.6807 L155.0938,142.5557 Z " fill="#000000"/><text fill="#000000" font-family="sans-serif" font-size="12" font-style="italic" lengthAdjust="spacing" textLength="81" x="166.5" y="135.3955">«value object»</text><text fill="#000000" font-family="sans-serif" font-size="14" lengthAdjust="spacing" textLength="37" x="188.5" y="152.5654">Room</text><line style="stroke:#181818;stroke-width:0.5;" x1="140.5" x2="247.5" y1="160.6416" y2="160.6416"/></g><!--MD5=[727797ff5554768dd76684d70c1ef924]
link Building to Code--><g id="link_Building_Code"><path codeLine="22" d="M66.14,176.5285 C68.51,200.7185 71.74,233.6685 74.05,257.3585 " fill="none" id="Building-to-Code" style="stroke:#181818;stroke-width:1.0;"/><polygon fill="#181818" points="74.56,262.5585,77.6659,253.2122,74.0738,257.5822,69.7038,253.9901,74.56,262.5585" style="stroke:#181818;stroke-width:1.0;"/></g><!--MD5=[8f943ee920d933f0a95cb7c2a8ebfe41]
reverse link Room to Floor--><g id="link_Room_Floor"><path codeLine="24" d="M195.66,174.1585 C196.97,197.5585 198.79,230.1285 200.15,254.3485 " fill="none" id="Room-backto-Floor" style="stroke:#181818;stroke-width:1.0;"/><polygon fill="#181818" points="195.38,169.0185,191.8752,178.2226,195.6518,174.0111,199.8633,177.7877,195.38,169.0185" style="stroke:#181818;stroke-width:1.0;"/></g><!--MD5=[07fc24ca3dd23956284ae8b961ef8c37]
reverse link Description to Floor--><g id="link_Description_Floor"><path codeLine="25" d="M311.12,172.6985 C288.79,196.1785 256.98,229.6285 233.47,254.3485 " fill="none" id="Description-backto-Floor" style="stroke:#181818;stroke-width:1.0;"/><polygon fill="#181818" points="314.62,169.0185,305.5162,172.7762,311.1714,172.6388,311.3087,178.294,314.62,169.0185" style="stroke:#181818;stroke-width:1.0;"/></g><!--MD5=[c5fead04db50ad272312b70da3db85d3]
link Building to Floor--><g id="link_Building_Floor"><path codeLine="27" d="M94.19,176.5285 C116.61,199.5885 146.75,230.5985 169.46,253.9585 " fill="none" id="Building-Floor" style="stroke:#181818;stroke-width:1.0;"/><polygon fill="#000000" points="144.4852,219.1994,140.2878,210.6652,136.0731,214.7623,144.4852,219.1994" style="stroke:#000000;stroke-width:1.0;"/><text fill="#000000" font-family="sans-serif" font-size="13" lengthAdjust="spacing" textLength="21" x="150" y="220.9336">has</text><text fill="#000000" font-family="sans-serif" font-size="13" lengthAdjust="spacing" textLength="7" x="92.2953" y="197.6507">1</text><text fill="#000000" font-family="sans-serif" font-size="13" lengthAdjust="spacing" textLength="5" x="157.9995" y="243.6249">*</text></g><!--MD5=[64a198c5ce54db8d3a9e3eb5d20475d5]
@startuml

skinparam titleFontSize 25
title <u>US 210 - Domain classes</u>

hide methods
skinparam classAttributeIconSize 0

'Building aggregate
package "<<aggregate>> Building" {
    entity Building <<entity>> <<root>>
    class Code <<(V, #FF8B40) value object>>

    entity Floor <<entity>> {
        number
    }

    class Description <<(V, #FF8B40) value object>>
    class Room <<(V, #FF8B40) value object>>

}

Building -down-> Code

Floor -up-> Room
Floor -up-> Description

Building "1" - - "*" Floor : has >

@enduml

@startuml

skinparam titleFontSize 25
title <u>US 210 - Domain classes</u>

hide methods
skinparam classAttributeIconSize 0

package "<<aggregate>> Building" {
    entity Building <<entity>> <<root>>
    class Code <<(V, #FF8B40) value object>>

    entity Floor <<entity>> {
        number
    }

    class Description <<(V, #FF8B40) value object>>
    class Room <<(V, #FF8B40) value object>>

}

Building -down-> Code

Floor -up-> Room
Floor -up-> Description

Building "1" - - "*" Floor : has >

@enduml

PlantUML version 1.2022.7(Mon Aug 22 18:01:30 WEST 2022)
(GPL source distribution)
Java Runtime: Java(TM) SE Runtime Environment
JVM: Java HotSpot(TM) 64-Bit Server VM
Default Encoding: Cp1252
Language: pt
Country: PT
--></g></svg>