<?xml version="1.0" encoding="UTF-8" standalone="no"?><svg xmlns="http://www.w3.org/2000/svg" xmlns:xlink="http://www.w3.org/1999/xlink" contentStyleType="text/css" height="587px" preserveAspectRatio="none" style="width:1004px;height:587px;background:#FFFFFF;" version="1.1" viewBox="0 0 1004 587" width="1004px" zoomAndPan="magnify"><defs/><g><rect fill="none" height="27.6094" id="_title" style="stroke:none;stroke-width:1.0;" width="436" x="280.5" y="10"/><text fill="#000000" font-family="sans-serif" font-size="14" font-weight="bold" lengthAdjust="spacing" textLength="426" x="285.5" y="29.5332">System Sequence Diagram (Level 3 - Process View) - US 1050</text><rect fill="#FFFFFF" height="355.7344" style="stroke:#181818;stroke-width:1.0;" width="10" x="59" y="131.2188"/><rect fill="#FFFFFF" height="30.3516" style="stroke:#181818;stroke-width:1.0;" width="10" x="351" y="153.5703"/><rect fill="#FFFFFF" height="272.6797" style="stroke:#181818;stroke-width:1.0;" width="10" x="351" y="214.2734"/><rect fill="#FFFFFF" height="211.9766" style="stroke:#181818;stroke-width:1.0;" width="10" x="607" y="244.625"/><rect fill="#FFFFFF" height="91.0547" style="stroke:#181818;stroke-width:1.0;" width="10" x="839" y="335.1953"/><line style="stroke:#181818;stroke-width:0.5;stroke-dasharray:5.0,5.0;" x1="64" x2="64" y1="121.2188" y2="504.9531"/><line style="stroke:#181818;stroke-width:0.5;stroke-dasharray:5.0,5.0;" x1="355.5" x2="355.5" y1="121.2188" y2="504.9531"/><line style="stroke:#181818;stroke-width:0.5;stroke-dasharray:5.0,5.0;" x1="611.5" x2="611.5" y1="121.2188" y2="504.9531"/><line style="stroke:#181818;stroke-width:0.5;stroke-dasharray:5.0,5.0;" x1="727.5" x2="727.5" y1="292.7344" y2="504.9531"/><line style="stroke:#181818;stroke-width:0.5;stroke-dasharray:5.0,5.0;" x1="843.5" x2="843.5" y1="121.2188" y2="504.9531"/><text fill="#000000" font-family="sans-serif" font-size="14" lengthAdjust="spacing" textLength="112" x="5" y="118.1426">Campus Manager</text><ellipse cx="64" cy="52.1094" fill="#E3E3E3" rx="8" ry="8" style="stroke:#181818;stroke-width:0.5;"/><path d="M64,60.1094 L64,87.1094 M51,68.1094 L77,68.1094 M64,87.1094 L51,102.1094 M64,87.1094 L77,102.1094 " fill="none" style="stroke:#181818;stroke-width:0.5;"/><text fill="#000000" font-family="sans-serif" font-size="14" lengthAdjust="spacing" textLength="112" x="5" y="518.4863">Campus Manager</text><ellipse cx="64" cy="530.0625" fill="#E3E3E3" rx="8" ry="8" style="stroke:#181818;stroke-width:0.5;"/><path d="M64,538.0625 L64,565.0625 M51,546.0625 L77,546.0625 M64,565.0625 L51,580.0625 M64,565.0625 L77,580.0625 " fill="none" style="stroke:#181818;stroke-width:0.5;"/><rect fill="#E3E3E3" height="49.2188" rx="2.5" ry="2.5" style="stroke:#181818;stroke-width:0.5;" width="103" x="304.5" y="71"/><text fill="#000000" font-family="sans-serif" font-size="14" font-style="italic" lengthAdjust="spacing" textLength="89" x="311.5" y="92.5332">«Component»</text><text fill="#000000" font-family="sans-serif" font-size="14" lengthAdjust="spacing" textLength="29" x="341.5" y="110.1426">View</text><rect fill="#E3E3E3" height="49.2188" rx="2.5" ry="2.5" style="stroke:#181818;stroke-width:0.5;" width="103" x="304.5" y="503.9531"/><text fill="#000000" font-family="sans-serif" font-size="14" font-style="italic" lengthAdjust="spacing" textLength="89" x="311.5" y="525.4863">«Component»</text><text fill="#000000" font-family="sans-serif" font-size="14" lengthAdjust="spacing" textLength="29" x="341.5" y="543.0957">View</text><rect fill="#E3E3E3" height="49.2188" rx="2.5" ry="2.5" style="stroke:#181818;stroke-width:0.5;" width="103" x="560.5" y="71"/><text fill="#000000" font-family="sans-serif" font-size="14" font-style="italic" lengthAdjust="spacing" textLength="89" x="567.5" y="92.5332">«Component»</text><text fill="#000000" font-family="sans-serif" font-size="14" lengthAdjust="spacing" textLength="73" x="575.5" y="110.1426">Component</text><rect fill="#E3E3E3" height="49.2188" rx="2.5" ry="2.5" style="stroke:#181818;stroke-width:0.5;" width="103" x="560.5" y="503.9531"/><text fill="#000000" font-family="sans-serif" font-size="14" font-style="italic" lengthAdjust="spacing" textLength="89" x="567.5" y="525.4863">«Component»</text><text fill="#000000" font-family="sans-serif" font-size="14" lengthAdjust="spacing" textLength="73" x="575.5" y="543.0957">Component</text><rect fill="#E3E3E3" height="49.2188" rx="2.5" ry="2.5" style="stroke:#181818;stroke-width:0.5;" width="109" x="673.5" y="503.9531"/><text fill="#000000" font-family="sans-serif" font-size="14" lengthAdjust="spacing" textLength="95" x="680.5" y="525.4863">buildingModel :</text><text fill="#000000" font-family="sans-serif" font-size="14" lengthAdjust="spacing" textLength="91" x="684.5" y="543.0957">building.model</text><rect fill="#E3E3E3" height="49.2188" rx="2.5" ry="2.5" style="stroke:#181818;stroke-width:0.5;" width="103" x="792.5" y="71"/><text fill="#000000" font-family="sans-serif" font-size="14" font-style="italic" lengthAdjust="spacing" textLength="89" x="799.5" y="92.5332">«Component»</text><text fill="#000000" font-family="sans-serif" font-size="14" lengthAdjust="spacing" textLength="47" x="820.5" y="110.1426">Service</text><rect fill="#E3E3E3" height="49.2188" rx="2.5" ry="2.5" style="stroke:#181818;stroke-width:0.5;" width="103" x="792.5" y="503.9531"/><text fill="#000000" font-family="sans-serif" font-size="14" font-style="italic" lengthAdjust="spacing" textLength="89" x="799.5" y="525.4863">«Component»</text><text fill="#000000" font-family="sans-serif" font-size="14" lengthAdjust="spacing" textLength="47" x="820.5" y="543.0957">Service</text><rect fill="#FFFFFF" height="355.7344" style="stroke:#181818;stroke-width:1.0;" width="10" x="59" y="131.2188"/><rect fill="#FFFFFF" height="30.3516" style="stroke:#181818;stroke-width:1.0;" width="10" x="351" y="153.5703"/><rect fill="#FFFFFF" height="272.6797" style="stroke:#181818;stroke-width:1.0;" width="10" x="351" y="214.2734"/><rect fill="#FFFFFF" height="211.9766" style="stroke:#181818;stroke-width:1.0;" width="10" x="607" y="244.625"/><rect fill="#FFFFFF" height="91.0547" style="stroke:#181818;stroke-width:1.0;" width="10" x="839" y="335.1953"/><polygon fill="#181818" points="339,149.5703,349,153.5703,339,157.5703,343,153.5703" style="stroke:#181818;stroke-width:1.0;"/><line style="stroke:#181818;stroke-width:1.0;" x1="69" x2="345" y1="153.5703" y2="153.5703"/><text fill="#000000" font-family="sans-serif" font-size="13" font-weight="bold" lengthAdjust="spacing" textLength="7" x="76" y="148.7139">1</text><text fill="#000000" font-family="sans-serif" font-size="13" lengthAdjust="spacing" textLength="126" x="87" y="148.7139">Ask to create building</text><polygon fill="#181818" points="80,179.9219,70,183.9219,80,187.9219,76,183.9219" style="stroke:#181818;stroke-width:1.0;"/><line style="stroke:#181818;stroke-width:1.0;stroke-dasharray:2.0,2.0;" x1="74" x2="355" y1="183.9219" y2="183.9219"/><text fill="#000000" font-family="sans-serif" font-size="13" font-weight="bold" lengthAdjust="spacing" textLength="7" x="86" y="179.0654">2</text><text fill="#000000" font-family="sans-serif" font-size="13" lengthAdjust="spacing" textLength="103" x="97" y="179.0654">Ask to insert data</text><polygon fill="#181818" points="339,210.2734,349,214.2734,339,218.2734,343,214.2734" style="stroke:#181818;stroke-width:1.0;"/><line style="stroke:#181818;stroke-width:1.0;" x1="69" x2="345" y1="214.2734" y2="214.2734"/><text fill="#000000" font-family="sans-serif" font-size="13" font-weight="bold" lengthAdjust="spacing" textLength="7" x="76" y="209.417">3</text><text fill="#000000" font-family="sans-serif" font-size="13" lengthAdjust="spacing" textLength="61" x="87" y="209.417">Insert data</text><polygon fill="#181818" points="595,240.625,605,244.625,595,248.625,599,244.625" style="stroke:#181818;stroke-width:1.0;"/><line style="stroke:#181818;stroke-width:1.0;" x1="361" x2="601" y1="244.625" y2="244.625"/><text fill="#000000" font-family="sans-serif" font-size="13" font-weight="bold" lengthAdjust="spacing" textLength="7" x="368" y="239.7686">4</text><text fill="#000000" font-family="sans-serif" font-size="13" lengthAdjust="spacing" textLength="90" x="379" y="239.7686">createBuilding()</text><polygon fill="#181818" points="661.5,270.9766,671.5,274.9766,661.5,278.9766,665.5,274.9766" style="stroke:#181818;stroke-width:1.0;"/><line style="stroke:#181818;stroke-width:1.0;stroke-dasharray:2.0,2.0;" x1="617" x2="667.5" y1="274.9766" y2="274.9766"/><text fill="#000000" font-family="sans-serif" font-size="13" font-weight="bold" lengthAdjust="spacing" textLength="7" x="624" y="270.1201">5</text><text fill="#000000" font-family="sans-serif" font-size="13" lengthAdjust="spacing" textLength="4" x="635" y="270.1201"> </text><rect fill="#E3E3E3" height="49.2188" rx="2.5" ry="2.5" style="stroke:#181818;stroke-width:0.5;" width="109" x="673.5" y="252.625"/><text fill="#000000" font-family="sans-serif" font-size="14" lengthAdjust="spacing" textLength="95" x="680.5" y="274.1582">buildingModel :</text><text fill="#000000" font-family="sans-serif" font-size="14" lengthAdjust="spacing" textLength="91" x="684.5" y="291.7676">building.model</text><polygon fill="#181818" points="827,331.1953,837,335.1953,827,339.1953,831,335.1953" style="stroke:#181818;stroke-width:1.0;"/><line style="stroke:#181818;stroke-width:1.0;" x1="617" x2="833" y1="335.1953" y2="335.1953"/><text fill="#000000" font-family="sans-serif" font-size="13" font-weight="bold" lengthAdjust="spacing" textLength="7" x="624" y="330.3389">6</text><text fill="#000000" font-family="sans-serif" font-size="13" lengthAdjust="spacing" textLength="169" x="635" y="330.3389">createBuilding(buildingModel)</text><polygon fill="#181818" points="986,361.5469,996,365.5469,986,369.5469,990,365.5469" style="stroke:#181818;stroke-width:1.0;"/><line style="stroke:#181818;stroke-width:1.0;" x1="849" x2="992" y1="365.5469" y2="365.5469"/><text fill="#000000" font-family="sans-serif" font-size="13" font-weight="bold" lengthAdjust="spacing" textLength="7" x="856" y="360.6904">7</text><text fill="#000000" font-family="sans-serif" font-size="13" lengthAdjust="spacing" textLength="114" x="867" y="360.6904">POST (.../buildings)</text><polygon fill="#181818" points="860,391.8984,850,395.8984,860,399.8984,856,395.8984" style="stroke:#181818;stroke-width:1.0;"/><line style="stroke:#181818;stroke-width:1.0;stroke-dasharray:2.0,2.0;" x1="854" x2="997" y1="395.8984" y2="395.8984"/><text fill="#000000" font-family="sans-serif" font-size="13" font-weight="bold" lengthAdjust="spacing" textLength="7" x="866" y="391.042">8</text><text fill="#000000" font-family="sans-serif" font-size="13" lengthAdjust="spacing" textLength="90" x="877" y="391.042">status: 201/400</text><polygon fill="#181818" points="628,422.25,618,426.25,628,430.25,624,426.25" style="stroke:#181818;stroke-width:1.0;"/><line style="stroke:#181818;stroke-width:1.0;stroke-dasharray:2.0,2.0;" x1="622" x2="843" y1="426.25" y2="426.25"/><text fill="#000000" font-family="sans-serif" font-size="13" font-weight="bold" lengthAdjust="spacing" textLength="7" x="634" y="421.3936">9</text><text fill="#000000" font-family="sans-serif" font-size="13" lengthAdjust="spacing" textLength="91" x="645" y="421.3936">Success / Error</text><polygon fill="#181818" points="372,452.6016,362,456.6016,372,460.6016,368,456.6016" style="stroke:#181818;stroke-width:1.0;"/><line style="stroke:#181818;stroke-width:1.0;stroke-dasharray:2.0,2.0;" x1="366" x2="611" y1="456.6016" y2="456.6016"/><text fill="#000000" font-family="sans-serif" font-size="13" font-weight="bold" lengthAdjust="spacing" textLength="14" x="378" y="451.7451">10</text><text fill="#000000" font-family="sans-serif" font-size="13" lengthAdjust="spacing" textLength="204" x="396" y="451.7451">Information about the success/error</text><polygon fill="#181818" points="75,482.9531,65,486.9531,75,490.9531,71,486.9531" style="stroke:#181818;stroke-width:1.0;"/><line style="stroke:#181818;stroke-width:1.0;stroke-dasharray:2.0,2.0;" x1="69" x2="355" y1="486.9531" y2="486.9531"/><text fill="#000000" font-family="sans-serif" font-size="13" font-weight="bold" lengthAdjust="spacing" textLength="14" x="81" y="482.0967">11</text><text fill="#000000" font-family="sans-serif" font-size="13" lengthAdjust="spacing" textLength="240" x="99" y="482.0967">Informs about the operation success/error</text><!--MD5=[8dcff04b82f5ae46c3643423f68ead92]
@startuml
skinparam monochrome true
skinparam packageStyle rectangle
skinparam shadowing false

title System Sequence Diagram (Level 3 - Process View) - US 1050
autonumber

Actor "Campus Manager" as campusManager
participant "View" as View <<Component>>
participant "Component" as Component <<Component>>
participant "buildingModel :\n building.model" as buildingModel
participant "Service" as Service <<Component>>

activate campusManager
    campusManager -> View : Ask to create building
    activate View
        View - -> campusManager : Ask to insert data
    deactivate View

    campusManager -> View : Insert data
    activate View
        View -> Component : createBuilding()
        activate Component
            Component - -> buildingModel** :
            Component -> Service : createBuilding(buildingModel)
            activate Service
                Service -> : POST (.../buildings)
                Service <- -: status: 201/400
                
                Service - -> Component : Success / Error
            deactivate Service

            Component - -> View : Information about the success/error
        deactivate Component
        View - -> campusManager : Informs about the operation success/error
    deactivate View
deactivate campusManager

@enduml

PlantUML version 1.2022.7(Mon Aug 22 18:01:30 WEST 2022)
(GPL source distribution)
Java Runtime: Java(TM) SE Runtime Environment
JVM: Java HotSpot(TM) 64-Bit Server VM
Default Encoding: Cp1252
Language: pt
Country: PT
--></g></svg>