<?xml version="1.0" encoding="UTF-8" standalone="no"?><svg xmlns="http://www.w3.org/2000/svg" xmlns:xlink="http://www.w3.org/1999/xlink" contentStyleType="text/css" height="405px" preserveAspectRatio="none" style="width:454px;height:405px;background:#FFFFFF;" version="1.1" viewBox="0 0 454 405" width="454px" zoomAndPan="magnify"><defs/><g><rect fill="none" height="27.6094" id="_title" style="stroke:none;stroke-width:1.0;" width="436" x="5" y="10"/><text fill="#000000" font-family="sans-serif" font-size="14" font-weight="bold" lengthAdjust="spacing" textLength="426" x="10" y="29.5332">System Sequence Diagram (Level 2 - Process View) - US 1050</text><rect fill="#FFFFFF" height="174.1094" style="stroke:#181818;stroke-width:1.0;" width="10" x="61.5" y="131.2188"/><rect fill="#FFFFFF" height="30.3516" style="stroke:#181818;stroke-width:1.0;" width="10" x="227.5" y="153.5703"/><rect fill="#FFFFFF" height="91.0547" style="stroke:#181818;stroke-width:1.0;" width="10" x="227.5" y="214.2734"/><rect fill="#FFFFFF" height="30.3516" style="stroke:#181818;stroke-width:1.0;" width="10" x="381.5" y="244.625"/><line style="stroke:#181818;stroke-width:0.5;stroke-dasharray:5.0,5.0;" x1="66.5" x2="66.5" y1="121.2188" y2="323.3281"/><line style="stroke:#181818;stroke-width:0.5;stroke-dasharray:5.0,5.0;" x1="232.5" x2="232.5" y1="121.2188" y2="323.3281"/><line style="stroke:#181818;stroke-width:0.5;stroke-dasharray:5.0,5.0;" x1="386.5" x2="386.5" y1="121.2188" y2="323.3281"/><text fill="#000000" font-family="sans-serif" font-size="14" lengthAdjust="spacing" textLength="112" x="7.5" y="118.1426">Campus Manager</text><ellipse cx="66.5" cy="52.1094" fill="#E3E3E3" rx="8" ry="8" style="stroke:#181818;stroke-width:0.5;"/><path d="M66.5,60.1094 L66.5,87.1094 M53.5,68.1094 L79.5,68.1094 M66.5,87.1094 L53.5,102.1094 M66.5,87.1094 L79.5,102.1094 " fill="none" style="stroke:#181818;stroke-width:0.5;"/><text fill="#000000" font-family="sans-serif" font-size="14" lengthAdjust="spacing" textLength="112" x="7.5" y="336.8613">Campus Manager</text><ellipse cx="66.5" cy="348.4375" fill="#E3E3E3" rx="8" ry="8" style="stroke:#181818;stroke-width:0.5;"/><path d="M66.5,356.4375 L66.5,383.4375 M53.5,364.4375 L79.5,364.4375 M66.5,383.4375 L53.5,398.4375 M66.5,383.4375 L79.5,398.4375 " fill="none" style="stroke:#181818;stroke-width:0.5;"/><rect fill="#E3E3E3" height="49.2188" rx="2.5" ry="2.5" style="stroke:#181818;stroke-width:0.5;" width="106" x="179.5" y="71"/><text fill="#000000" font-family="sans-serif" font-size="14" font-style="italic" lengthAdjust="spacing" textLength="92" x="186.5" y="92.5332">«system (C4)»</text><text fill="#000000" font-family="sans-serif" font-size="14" lengthAdjust="spacing" textLength="12" x="226.5" y="110.1426">UI</text><rect fill="#E3E3E3" height="49.2188" rx="2.5" ry="2.5" style="stroke:#181818;stroke-width:0.5;" width="106" x="179.5" y="322.3281"/><text fill="#000000" font-family="sans-serif" font-size="14" font-style="italic" lengthAdjust="spacing" textLength="92" x="186.5" y="343.8613">«system (C4)»</text><text fill="#000000" font-family="sans-serif" font-size="14" lengthAdjust="spacing" textLength="12" x="226.5" y="361.4707">UI</text><rect fill="#E3E3E3" height="49.2188" rx="2.5" ry="2.5" style="stroke:#181818;stroke-width:0.5;" width="106" x="333.5" y="71"/><text fill="#000000" font-family="sans-serif" font-size="14" font-style="italic" lengthAdjust="spacing" textLength="92" x="340.5" y="92.5332">«system (C4)»</text><text fill="#000000" font-family="sans-serif" font-size="14" lengthAdjust="spacing" textLength="21" x="376" y="110.1426">MD</text><rect fill="#E3E3E3" height="49.2188" rx="2.5" ry="2.5" style="stroke:#181818;stroke-width:0.5;" width="106" x="333.5" y="322.3281"/><text fill="#000000" font-family="sans-serif" font-size="14" font-style="italic" lengthAdjust="spacing" textLength="92" x="340.5" y="343.8613">«system (C4)»</text><text fill="#000000" font-family="sans-serif" font-size="14" lengthAdjust="spacing" textLength="21" x="376" y="361.4707">MD</text><rect fill="#FFFFFF" height="174.1094" style="stroke:#181818;stroke-width:1.0;" width="10" x="61.5" y="131.2188"/><rect fill="#FFFFFF" height="30.3516" style="stroke:#181818;stroke-width:1.0;" width="10" x="227.5" y="153.5703"/><rect fill="#FFFFFF" height="91.0547" style="stroke:#181818;stroke-width:1.0;" width="10" x="227.5" y="214.2734"/><rect fill="#FFFFFF" height="30.3516" style="stroke:#181818;stroke-width:1.0;" width="10" x="381.5" y="244.625"/><polygon fill="#181818" points="215.5,149.5703,225.5,153.5703,215.5,157.5703,219.5,153.5703" style="stroke:#181818;stroke-width:1.0;"/><line style="stroke:#181818;stroke-width:1.0;" x1="71.5" x2="221.5" y1="153.5703" y2="153.5703"/><text fill="#000000" font-family="sans-serif" font-size="13" font-weight="bold" lengthAdjust="spacing" textLength="7" x="78.5" y="148.7139">1</text><text fill="#000000" font-family="sans-serif" font-size="13" lengthAdjust="spacing" textLength="126" x="89.5" y="148.7139">Ask to create building</text><polygon fill="#181818" points="82.5,179.9219,72.5,183.9219,82.5,187.9219,78.5,183.9219" style="stroke:#181818;stroke-width:1.0;"/><line style="stroke:#181818;stroke-width:1.0;stroke-dasharray:2.0,2.0;" x1="76.5" x2="231.5" y1="183.9219" y2="183.9219"/><text fill="#000000" font-family="sans-serif" font-size="13" font-weight="bold" lengthAdjust="spacing" textLength="7" x="88.5" y="179.0654">2</text><text fill="#000000" font-family="sans-serif" font-size="13" lengthAdjust="spacing" textLength="103" x="99.5" y="179.0654">Ask to insert data</text><polygon fill="#181818" points="215.5,210.2734,225.5,214.2734,215.5,218.2734,219.5,214.2734" style="stroke:#181818;stroke-width:1.0;"/><line style="stroke:#181818;stroke-width:1.0;" x1="71.5" x2="221.5" y1="214.2734" y2="214.2734"/><text fill="#000000" font-family="sans-serif" font-size="13" font-weight="bold" lengthAdjust="spacing" textLength="7" x="78.5" y="209.417">3</text><text fill="#000000" font-family="sans-serif" font-size="13" lengthAdjust="spacing" textLength="61" x="89.5" y="209.417">Insert data</text><polygon fill="#181818" points="369.5,240.625,379.5,244.625,369.5,248.625,373.5,244.625" style="stroke:#181818;stroke-width:1.0;"/><line style="stroke:#181818;stroke-width:1.0;" x1="237.5" x2="375.5" y1="244.625" y2="244.625"/><text fill="#000000" font-family="sans-serif" font-size="13" font-weight="bold" lengthAdjust="spacing" textLength="7" x="244.5" y="239.7686">4</text><text fill="#000000" font-family="sans-serif" font-size="13" lengthAdjust="spacing" textLength="114" x="255.5" y="239.7686">POST (.../buildings)</text><polygon fill="#181818" points="248.5,270.9766,238.5,274.9766,248.5,278.9766,244.5,274.9766" style="stroke:#181818;stroke-width:1.0;"/><line style="stroke:#181818;stroke-width:1.0;stroke-dasharray:2.0,2.0;" x1="242.5" x2="385.5" y1="274.9766" y2="274.9766"/><text fill="#000000" font-family="sans-serif" font-size="13" font-weight="bold" lengthAdjust="spacing" textLength="7" x="254.5" y="270.1201">5</text><text fill="#000000" font-family="sans-serif" font-size="13" lengthAdjust="spacing" textLength="90" x="265.5" y="270.1201">status: 201/400</text><polygon fill="#181818" points="77.5,301.3281,67.5,305.3281,77.5,309.3281,73.5,305.3281" style="stroke:#181818;stroke-width:1.0;"/><line style="stroke:#181818;stroke-width:1.0;stroke-dasharray:2.0,2.0;" x1="71.5" x2="231.5" y1="305.3281" y2="305.3281"/><text fill="#000000" font-family="sans-serif" font-size="13" font-weight="bold" lengthAdjust="spacing" textLength="7" x="83.5" y="300.4717">6</text><text fill="#000000" font-family="sans-serif" font-size="13" lengthAdjust="spacing" textLength="91" x="94.5" y="300.4717">Success / Error</text><!--MD5=[77c5f23478f0cebd3fb9f81c6380f0e8]
@startuml
skinparam monochrome true
skinparam packageStyle rectangle
skinparam shadowing false

title System Sequence Diagram (Level 2 - Process View) - US 1050
autonumber

Actor "Campus Manager" as campusManager
participant "UI" as UI <<system (C4)>>
participant "MD" as MD <<system (C4)>>

activate campusManager
    campusManager -> UI : Ask to create building
    activate UI
        UI - -> campusManager : Ask to insert data
    deactivate UI

    campusManager -> UI : Insert data
    activate UI
        UI -> MD : POST (.../buildings)
        activate MD
            UI <- - MD : status: 201/400
        deactivate MD

        UI - -> campusManager : Success / Error
    deactivate UI
deactivate campusManager

@enduml

PlantUML version 1.2022.7(Mon Aug 22 18:01:30 WEST 2022)
(GPL source distribution)
Java Runtime: Java(TM) SE Runtime Environment
JVM: Java HotSpot(TM) 64-Bit Server VM
Default Encoding: Cp1252
Language: pt
Country: PT
--></g></svg>