<?xml version="1.0" encoding="us-ascii" standalone="no"?><svg xmlns="http://www.w3.org/2000/svg" xmlns:xlink="http://www.w3.org/1999/xlink" contentStyleType="text/css" height="165px" preserveAspectRatio="none" style="width:497px;height:165px;background:#FFFFFF;" version="1.1" viewBox="0 0 497 165" width="497px" zoomAndPan="magnify"><defs/><g><ellipse cx="274" cy="16" fill="#222222" rx="10" ry="10" style="stroke:#222222;stroke-width:1.0;"/><g id="Active"><rect fill="#F1F1F1" height="50" rx="12.5" ry="12.5" style="stroke:#181818;stroke-width:0.5;" width="58" x="245" y="105"/><line style="stroke:#181818;stroke-width:0.5;" x1="245" x2="303" y1="133.6211" y2="133.6211"/><text fill="#000000" font-family="sans-serif" font-size="14" lengthAdjust="spacing" textLength="38" x="255" y="125.1074">Active</text></g><g id="Inactive"><rect fill="#F1F1F1" height="50" rx="12.5" ry="12.5" style="stroke:#181818;stroke-width:0.5;" width="68" x="7" y="105"/><line style="stroke:#181818;stroke-width:0.5;" x1="7" x2="75" y1="133.6211" y2="133.6211"/><text fill="#000000" font-family="sans-serif" font-size="14" lengthAdjust="spacing" textLength="48" x="17" y="125.1074">Inactive</text></g><!--link *start* to Active--><g id="link_*start*_Active"><path d="M274,26.17 C274,43.2 274,74.23 274,98.89 " fill="none" id="*start*-to-Active" style="stroke:#181818;stroke-width:1.0;"/><polygon fill="#181818" points="274,104.89,278,95.89,274,99.89,270,95.89,274,104.89" style="stroke:#181818;stroke-width:1.0;"/><text fill="#000000" font-family="sans-serif" font-size="13" lengthAdjust="spacing" textLength="214" x="275" y="71.0283">US 360 - Add a new robot to the fleet</text></g><!--reverse link Inactive to Active--><g id="link_Inactive_Active"><path d="M80.6219,148.9029 C86.3319,151.0629 86.69,150.81 92.5,152 C121.89,158.02 198.23,158.58 227.5,152 C233.34,150.69 239.31,148.56 244.93,146.13 " fill="none" id="Inactive-backto-Active" style="stroke:#181818;stroke-width:1.0;"/><polygon fill="#181818" points="75.01,146.78,82.0126,153.7056,79.6866,148.5491,84.8431,146.2231,75.01,146.78" style="stroke:#181818;stroke-width:1.0;"/><text fill="#000000" font-family="sans-serif" font-size="13" lengthAdjust="spacing" textLength="133" x="93.5" y="148.0283">US 370 - Inhibit a robot</text></g><!--link Inactive to Active--><g id="link_Inactive_Active"><path d="M75.38,130 C121.2,130 195.52,130 238.65,130 " fill="none" id="Inactive-to-Active" style="stroke:#181818;stroke-width:1.0;"/><polygon fill="#181818" points="244.65,130,235.65,126,239.65,130,235.65,134,244.65,130" style="stroke:#181818;stroke-width:1.0;"/><text fill="#000000" font-family="sans-serif" font-size="13" lengthAdjust="spacing" textLength="133" x="93.5" y="123.0283">US 370 - Inhibit a robot</text></g><!--SRC=[YzQALT3LjLDmJ2x9B4jLKB1I20rMC3OpKD1LS4n9KKXKo4ijLoZAJyelKIZ9LoZ9I5L8oqbDBU7YWchGpKbDAm7gzynBX0X033076U2Pbv6Pb5a2D0Hi01TSZMvHPdf62S9MF7e0]--></g></svg>