<?xml version="1.0" encoding="us-ascii" standalone="no"?><svg xmlns="http://www.w3.org/2000/svg" xmlns:xlink="http://www.w3.org/1999/xlink" contentStyleType="text/css" height="558px" preserveAspectRatio="none" style="width:702px;height:558px;background:#FFFFFF;" version="1.1" viewBox="0 0 702 558" width="702px" zoomAndPan="magnify"><defs/><g><text fill="#000000" font-family="sans-serif" font-size="25" font-weight="bold" lengthAdjust="spacing" text-decoration="underline" textLength="294" x="197" y="36.9775">US 370 - Domain classes</text><!--cluster <<aggregate>> Device--><g id="cluster_&lt;&lt;aggregate&gt;&gt; Device"><path d="M8.5,60.2656 L150.5,60.2656 A3.75,3.75 0 0 1 153,62.7656 L160,84.8867 L692.5,84.8867 A2.5,2.5 0 0 1 695,87.3867 L695,548.7656 A2.5,2.5 0 0 1 692.5,551.2656 L8.5,551.2656 A2.5,2.5 0 0 1 6,548.7656 L6,62.7656 A2.5,2.5 0 0 1 8.5,60.2656 " fill="none" style="stroke:#000000;stroke-width:1.5;"/><line style="stroke:#000000;stroke-width:1.5;" x1="6" x2="160" y1="84.8867" y2="84.8867"/><text fill="#000000" font-family="sans-serif" font-size="14" font-weight="bold" lengthAdjust="spacing" textLength="141" x="10" y="77.373">&#171;aggregate&#187; Device</text></g><!--class Device--><g id="elem_Device"><rect codeLine="10" fill="#F1F1F1" height="68.543" id="Device" rx="2.5" ry="2.5" style="stroke:#181818;stroke-width:0.5;" width="75" x="289.5" y="211.2656"/><ellipse cx="304.5" cy="241.5371" fill="#ADD1B2" rx="11" ry="11" style="stroke:#181818;stroke-width:1.0;"/><path d="M303.3594,242.334 L303.3594,244.834 L307.6875,244.834 L307.6875,243.9121 Q307.6875,243.3027 307.9219,243.0371 Q308.1719,242.7715 308.5469,242.7715 Q308.9219,242.7715 309.1563,243.0371 Q309.3906,243.3027 309.3906,243.9121 L309.3906,246.5371 L301.3906,246.5371 Q300.7656,246.5371 300.5,246.3027 Q300.25,246.0684 300.25,245.6777 Q300.25,245.3027 300.5156,245.0684 Q300.7813,244.834 301.3906,244.834 L301.6563,244.834 L301.6563,238.1777 L301.3906,238.1777 Q300.7656,238.1777 300.5,237.9434 Q300.25,237.709 300.25,237.3184 Q300.25,236.9434 300.5,236.709 Q300.7656,236.4746 301.3906,236.4746 L309.0156,236.4746 L309.0156,239.0684 Q309.0156,239.6777 308.7813,239.9434 Q308.5625,240.1934 308.1719,240.1934 Q307.7969,240.1934 307.5625,239.9434 Q307.3281,239.6777 307.3281,239.0684 L307.3281,238.1777 L303.3594,238.1777 L303.3594,240.6309 L304.8438,240.6309 Q304.8438,239.9746 304.9688,239.7871 Q305.2344,239.3809 305.7031,239.3809 Q306.0781,239.3809 306.3125,239.6465 Q306.5469,239.8965 306.5469,240.5059 L306.5469,242.4746 Q306.5469,243.0215 306.4219,243.209 Q306.1563,243.5996 305.7031,243.5996 Q305.2344,243.5996 304.9688,243.1934 Q304.8438,243.0059 304.8438,242.334 L303.3594,242.334 Z " fill="#000000"/><text fill="#000000" font-family="sans-serif" font-size="12" font-style="italic" lengthAdjust="spacing" textLength="43" x="318.5" y="229.2148">&#171;entity&#187;</text><text fill="#000000" font-family="sans-serif" font-size="12" font-style="italic" lengthAdjust="spacing" textLength="35" x="322.5" y="245.1758">&#171;root&#187;</text><text fill="#000000" font-family="sans-serif" font-size="14" lengthAdjust="spacing" textLength="43" x="318.5" y="263.2949">Device</text><line style="stroke:#181818;stroke-width:0.5;" x1="290.5" x2="363.5" y1="271.8086" y2="271.8086"/></g><!--class DeviceCode--><g id="elem_DeviceCode"><rect codeLine="12" fill="#F1F1F1" height="52.582" id="DeviceCode" rx="2.5" ry="2.5" style="stroke:#181818;stroke-width:0.5;" width="109" x="22.5" y="97.2656"/><ellipse cx="37.5" cy="119.5566" fill="#FF8B40" rx="11" ry="11" style="stroke:#181818;stroke-width:1.0;"/><path d="M38.0938,122.8223 L40.5625,116.9473 L40.1719,116.9473 Q39.5625,116.9473 39.2969,116.7129 Q39.0313,116.4785 39.0313,116.0879 Q39.0313,115.7129 39.2969,115.4785 Q39.5625,115.2441 40.1719,115.2441 L42.4531,115.2441 Q43.0625,115.2441 43.3281,115.4785 Q43.5938,115.7129 43.5938,116.0879 Q43.5938,116.5566 43.1875,116.8223 Q43,116.9473 42.4063,116.9473 L38.9219,125.3066 L37.2813,125.3066 L33.7969,116.9473 Q33.2031,116.9473 33.0156,116.8223 Q32.6094,116.5566 32.6094,116.0879 Q32.6094,115.7129 32.875,115.4785 Q33.1406,115.2441 33.75,115.2441 L36.0469,115.2441 Q36.6563,115.2441 36.9063,115.4785 Q37.1719,115.7129 37.1719,116.0879 Q37.1719,116.4785 36.9063,116.7129 Q36.6563,116.9473 36.0469,116.9473 L35.6406,116.9473 L38.0938,122.8223 Z " fill="#000000"/><text fill="#000000" font-family="sans-serif" font-size="12" font-style="italic" lengthAdjust="spacing" textLength="81" x="49.5" y="115.2148">&#171;value object&#187;</text><text fill="#000000" font-family="sans-serif" font-size="14" lengthAdjust="spacing" textLength="77" x="51.5" y="133.334">DeviceCode</text><line style="stroke:#181818;stroke-width:0.5;" x1="23.5" x2="130.5" y1="141.8477" y2="141.8477"/></g><!--class DeviceDescription--><g id="elem_DeviceDescription"><rect codeLine="13" fill="#F1F1F1" height="52.582" id="DeviceDescription" rx="2.5" ry="2.5" style="stroke:#181818;stroke-width:0.5;" width="146" x="167" y="97.2656"/><ellipse cx="182" cy="119.5566" fill="#FF8B40" rx="11" ry="11" style="stroke:#181818;stroke-width:1.0;"/><path d="M182.5938,122.8223 L185.0625,116.9473 L184.6719,116.9473 Q184.0625,116.9473 183.7969,116.7129 Q183.5313,116.4785 183.5313,116.0879 Q183.5313,115.7129 183.7969,115.4785 Q184.0625,115.2441 184.6719,115.2441 L186.9531,115.2441 Q187.5625,115.2441 187.8281,115.4785 Q188.0938,115.7129 188.0938,116.0879 Q188.0938,116.5566 187.6875,116.8223 Q187.5,116.9473 186.9063,116.9473 L183.4219,125.3066 L181.7813,125.3066 L178.2969,116.9473 Q177.7031,116.9473 177.5156,116.8223 Q177.1094,116.5566 177.1094,116.0879 Q177.1094,115.7129 177.375,115.4785 Q177.6406,115.2441 178.25,115.2441 L180.5469,115.2441 Q181.1563,115.2441 181.4063,115.4785 Q181.6719,115.7129 181.6719,116.0879 Q181.6719,116.4785 181.4063,116.7129 Q181.1563,116.9473 180.5469,116.9473 L180.1406,116.9473 L182.5938,122.8223 Z " fill="#000000"/><text fill="#000000" font-family="sans-serif" font-size="12" font-style="italic" lengthAdjust="spacing" textLength="81" x="212.5" y="115.2148">&#171;value object&#187;</text><text fill="#000000" font-family="sans-serif" font-size="14" lengthAdjust="spacing" textLength="114" x="196" y="133.334">DeviceDescription</text><line style="stroke:#181818;stroke-width:0.5;" x1="168" x2="312" y1="141.8477" y2="141.8477"/></g><!--class DeviceNickname--><g id="elem_DeviceNickname"><rect codeLine="14" fill="#F1F1F1" height="52.582" id="DeviceNickname" rx="2.5" ry="2.5" style="stroke:#181818;stroke-width:0.5;" width="136" x="348" y="97.2656"/><ellipse cx="363" cy="119.5566" fill="#FF8B40" rx="11" ry="11" style="stroke:#181818;stroke-width:1.0;"/><path d="M363.5938,122.8223 L366.0625,116.9473 L365.6719,116.9473 Q365.0625,116.9473 364.7969,116.7129 Q364.5313,116.4785 364.5313,116.0879 Q364.5313,115.7129 364.7969,115.4785 Q365.0625,115.2441 365.6719,115.2441 L367.9531,115.2441 Q368.5625,115.2441 368.8281,115.4785 Q369.0938,115.7129 369.0938,116.0879 Q369.0938,116.5566 368.6875,116.8223 Q368.5,116.9473 367.9063,116.9473 L364.4219,125.3066 L362.7813,125.3066 L359.2969,116.9473 Q358.7031,116.9473 358.5156,116.8223 Q358.1094,116.5566 358.1094,116.0879 Q358.1094,115.7129 358.375,115.4785 Q358.6406,115.2441 359.25,115.2441 L361.5469,115.2441 Q362.1563,115.2441 362.4063,115.4785 Q362.6719,115.7129 362.6719,116.0879 Q362.6719,116.4785 362.4063,116.7129 Q362.1563,116.9473 361.5469,116.9473 L361.1406,116.9473 L363.5938,122.8223 Z " fill="#000000"/><text fill="#000000" font-family="sans-serif" font-size="12" font-style="italic" lengthAdjust="spacing" textLength="81" x="388.5" y="115.2148">&#171;value object&#187;</text><text fill="#000000" font-family="sans-serif" font-size="14" lengthAdjust="spacing" textLength="104" x="377" y="133.334">DeviceNickname</text><line style="stroke:#181818;stroke-width:0.5;" x1="349" x2="483" y1="141.8477" y2="141.8477"/></g><!--class DeviceSerialNumber--><g id="elem_DeviceSerialNumber"><rect codeLine="15" fill="#F1F1F1" height="52.582" id="DeviceSerialNumber" rx="2.5" ry="2.5" style="stroke:#181818;stroke-width:0.5;" width="160" x="519" y="97.2656"/><ellipse cx="534" cy="119.5566" fill="#FF8B40" rx="11" ry="11" style="stroke:#181818;stroke-width:1.0;"/><path d="M534.5938,122.8223 L537.0625,116.9473 L536.6719,116.9473 Q536.0625,116.9473 535.7969,116.7129 Q535.5313,116.4785 535.5313,116.0879 Q535.5313,115.7129 535.7969,115.4785 Q536.0625,115.2441 536.6719,115.2441 L538.9531,115.2441 Q539.5625,115.2441 539.8281,115.4785 Q540.0938,115.7129 540.0938,116.0879 Q540.0938,116.5566 539.6875,116.8223 Q539.5,116.9473 538.9063,116.9473 L535.4219,125.3066 L533.7813,125.3066 L530.2969,116.9473 Q529.7031,116.9473 529.5156,116.8223 Q529.1094,116.5566 529.1094,116.0879 Q529.1094,115.7129 529.375,115.4785 Q529.6406,115.2441 530.25,115.2441 L532.5469,115.2441 Q533.1563,115.2441 533.4063,115.4785 Q533.6719,115.7129 533.6719,116.0879 Q533.6719,116.4785 533.4063,116.7129 Q533.1563,116.9473 532.5469,116.9473 L532.1406,116.9473 L534.5938,122.8223 Z " fill="#000000"/><text fill="#000000" font-family="sans-serif" font-size="12" font-style="italic" lengthAdjust="spacing" textLength="81" x="571.5" y="115.2148">&#171;value object&#187;</text><text fill="#000000" font-family="sans-serif" font-size="14" lengthAdjust="spacing" textLength="128" x="548" y="133.334">DeviceSerialNumber</text><line style="stroke:#181818;stroke-width:0.5;" x1="520" x2="678" y1="141.8477" y2="141.8477"/></g><!--class DeviceStatus--><g id="elem_DeviceStatus"><rect codeLine="16" fill="#F1F1F1" height="52.582" id="DeviceStatus" rx="2.5" ry="2.5" style="stroke:#181818;stroke-width:0.5;" width="115" x="269.5" y="359.2656"/><ellipse cx="284.5" cy="381.5566" fill="#FF8B40" rx="11" ry="11" style="stroke:#181818;stroke-width:1.0;"/><path d="M285.0938,384.8223 L287.5625,378.9473 L287.1719,378.9473 Q286.5625,378.9473 286.2969,378.7129 Q286.0313,378.4785 286.0313,378.0879 Q286.0313,377.7129 286.2969,377.4785 Q286.5625,377.2441 287.1719,377.2441 L289.4531,377.2441 Q290.0625,377.2441 290.3281,377.4785 Q290.5938,377.7129 290.5938,378.0879 Q290.5938,378.5566 290.1875,378.8223 Q290,378.9473 289.4063,378.9473 L285.9219,387.3066 L284.2813,387.3066 L280.7969,378.9473 Q280.2031,378.9473 280.0156,378.8223 Q279.6094,378.5566 279.6094,378.0879 Q279.6094,377.7129 279.875,377.4785 Q280.1406,377.2441 280.75,377.2441 L283.0469,377.2441 Q283.6563,377.2441 283.9063,377.4785 Q284.1719,377.7129 284.1719,378.0879 Q284.1719,378.4785 283.9063,378.7129 Q283.6563,378.9473 283.0469,378.9473 L282.6406,378.9473 L285.0938,384.8223 Z " fill="#000000"/><text fill="#000000" font-family="sans-serif" font-size="12" font-style="italic" lengthAdjust="spacing" textLength="46" x="317" y="377.2148">&#171;enum&#187;</text><text fill="#000000" font-family="sans-serif" font-size="14" lengthAdjust="spacing" textLength="83" x="298.5" y="395.334">DeviceStatus</text><line style="stroke:#181818;stroke-width:0.5;" x1="270.5" x2="383.5" y1="403.8477" y2="403.8477"/></g><g id="elem_GMN9"><path d="M249.5,473.2656 L249.5,535.1387 A0,0 0 0 0 249.5,535.1387 L404.5,535.1387 A0,0 0 0 0 404.5,535.1387 L404.5,483.2656 L394.5,473.2656 L331,473.2656 L327,412.3356 L323,473.2656 L249.5,473.2656 A0,0 0 0 0 249.5,473.2656 " fill="#FEFFDD" style="stroke:#181818;stroke-width:0.5;"/><path d="M394.5,473.2656 L394.5,483.2656 L404.5,483.2656 L394.5,473.2656 " fill="#FEFFDD" style="stroke:#181818;stroke-width:0.5;"/><text fill="#000000" font-family="sans-serif" font-size="13" lengthAdjust="spacing" textLength="81" x="255.5" y="492.2939">State diagram</text><text fill="#000000" font-family="sans-serif" font-size="13" lengthAdjust="spacing" textLength="134" x="255.5" y="509.585">available with the name</text><text fill="#000000" font-family="sans-serif" font-size="13" lengthAdjust="spacing" textLength="86" x="255.5" y="526.876">"device-status"</text></g><!--reverse link DeviceCode to Device--><g id="link_DeviceCode_Device"><path codeLine="24" d="M135.7294,152.9616 C183.4894,175.8816 246.91,206.3256 289.2,226.6256 " fill="none" id="DeviceCode-backto-Device" style="stroke:#181818;stroke-width:1.0;"/><polygon fill="#181818" points="130.32,150.3656,136.7034,157.8658,134.8278,152.5289,140.1647,150.6533,130.32,150.3656" style="stroke:#181818;stroke-width:1.0;"/></g><!--reverse link DeviceDescription to Device--><g id="link_DeviceDescription_Device"><path codeLine="25" d="M262.1833,155.3622 C274.9733,172.9922 288.53,191.7056 302.42,210.8556 " fill="none" id="DeviceDescription-backto-Device" style="stroke:#181818;stroke-width:1.0;"/><polygon fill="#181818" points="258.66,150.5056,260.7072,160.1394,261.5961,154.5528,267.1827,155.4416,258.66,150.5056" style="stroke:#181818;stroke-width:1.0;"/></g><!--reverse link DeviceNickname to Device--><g id="link_DeviceNickname_Device"><path codeLine="26" d="M393.335,155.3243 C380.255,172.9543 366.35,191.7056 352.15,210.8556 " fill="none" id="DeviceNickname-backto-Device" style="stroke:#181818;stroke-width:1.0;"/><polygon fill="#181818" points="396.91,150.5056,388.335,155.3502,393.9308,154.5212,394.7599,160.1169,396.91,150.5056" style="stroke:#181818;stroke-width:1.0;"/></g><!--reverse link DeviceSerialNumber to Device--><g id="link_DeviceSerialNumber_Device"><path codeLine="27" d="M535.4905,152.7874 C482.2905,176.2574 410.53,207.9156 364.86,228.0656 " fill="none" id="DeviceSerialNumber-backto-Device" style="stroke:#181818;stroke-width:1.0;"/><polygon fill="#181818" points="540.98,150.3656,531.1312,150.3386,536.4054,152.3838,534.3602,157.658,540.98,150.3656" style="stroke:#181818;stroke-width:1.0;"/></g><!--link Device to DeviceStatus--><g id="link_Device_DeviceStatus"><path codeLine="29" d="M327,280.5256 C327,304.7856 327,336.9856 327,359.1456 " fill="none" id="Device-DeviceStatus" style="stroke:#181818;stroke-width:1.0;"/><polygon fill="#000000" points="332,324.9111,334.9389,315.866,329.0611,315.866,332,324.9111" style="stroke:#000000;stroke-width:1.0;"/><text fill="#000000" font-family="sans-serif" font-size="13" lengthAdjust="spacing" textLength="21" x="341" y="325.2939">has</text><text fill="#000000" font-family="sans-serif" font-size="13" lengthAdjust="spacing" textLength="7" x="319.4203" y="301.7808">1</text><text fill="#000000" font-family="sans-serif" font-size="13" lengthAdjust="spacing" textLength="7" x="319.1906" y="348.1344">1</text></g><!--SRC=[bL9DJyCm3BtdLrZb04XKZ2-1K5G9c2PnsMM2kvjQRLYRL8ap16Z_dJOhrJPscG_vU7xFTkpufJOjEco0DTSqiuON-flW-av406J8tXPmSp-15AQsGMr0rUWzUNaPCY4gNH0qn9KjlF1ZjCXvOdOw3qolofeOTYB4wPHMMX5WMJegaKcqg9PO4YHIZc2MmOQNm8-0piXqzNmD84YvkNSqAPsrt1qsl7LSO_g1_6ABNd3sVW4dizd3y-ta75PO1mARVv3gfFyaK_BAwPQrDKSgvrej3JR79boGqrZFGvEJErRAoC7lYyY4PY3tPYmJv9RPDYFMMoycA3IMtT1sFBX2NMFU_O1FpHLmHT2_QuUJ5B62rCSIaj57feWPnLg8OM1fQDDiQo27yAsk7tB_jVQGRxj_OyxaAe4qZTjEgnwXGW-P-0K0]--></g></svg>