<?xml version="1.0" encoding="us-ascii" standalone="no"?><svg xmlns="http://www.w3.org/2000/svg" xmlns:xlink="http://www.w3.org/1999/xlink" contentStyleType="text/css" height="1336px" preserveAspectRatio="none" style="width:1389px;height:1336px;background:#FFFFFF;" version="1.1" viewBox="0 0 1389 1336" width="1389px" zoomAndPan="magnify"><defs/><g><text fill="#000000" font-family="sans-serif" font-size="14" font-weight="bold" lengthAdjust="spacing" textLength="408" x="489.75" y="30.1074">Sequence Diagram (Level 3 - Process View - MD) - US 1130</text><rect fill="#FFFFFF" height="451.0645" style="stroke:#181818;stroke-width:1.0;" width="10" x="214" y="148.7754"/><rect fill="#FFFFFF" height="612.791" style="stroke:#181818;stroke-width:1.0;" width="10" x="214" y="631.1309"/><rect fill="#FFFFFF" height="388.4824" style="stroke:#181818;stroke-width:1.0;" width="10" x="392" y="180.0664"/><rect fill="#FFFFFF" height="310.9004" style="stroke:#181818;stroke-width:1.0;" width="10" x="397" y="219.3574"/><rect fill="#FFFFFF" height="550.209" style="stroke:#181818;stroke-width:1.0;" width="10" x="392" y="662.4219"/><rect fill="#FFFFFF" height="472.627" style="stroke:#181818;stroke-width:1.0;" width="10" x="397" y="701.7129"/><rect fill="#FFFFFF" height="237.3184" style="stroke:#181818;stroke-width:1.0;" width="10" x="748" y="255.6484"/><rect fill="#FFFFFF" height="318.1816" style="stroke:#181818;stroke-width:1.0;" width="10" x="748" y="818.8672"/><rect fill="#FFFFFF" height="93.873" style="stroke:#181818;stroke-width:1.0;" width="10" x="1207" y="286.9395"/><rect fill="#FFFFFF" height="93.873" style="stroke:#181818;stroke-width:1.0;" width="10" x="1207" y="1011.8848"/><rect fill="#FFFFFF" height="31.291" style="stroke:#181818;stroke-width:1.0;" width="10" x="1332.5" y="318.2305"/><rect fill="#FFFFFF" height="31.291" style="stroke:#181818;stroke-width:1.0;" width="10" x="1332.5" y="1043.1758"/><line style="stroke:#181818;stroke-width:0.5;stroke-dasharray:5.0,5.0;" x1="218.5" x2="218.5" y1="115.4844" y2="1261.9219"/><line style="stroke:#181818;stroke-width:0.5;stroke-dasharray:5.0,5.0;" x1="396.5" x2="396.5" y1="115.4844" y2="1261.9219"/><line style="stroke:#181818;stroke-width:0.5;stroke-dasharray:5.0,5.0;" x1="605.5" x2="605.5" y1="765.1445" y2="1261.9219"/><line style="stroke:#181818;stroke-width:0.5;stroke-dasharray:5.0,5.0;" x1="752.5" x2="752.5" y1="115.4844" y2="1261.9219"/><line style="stroke:#181818;stroke-width:0.5;stroke-dasharray:5.0,5.0;" x1="902.5" x2="902.5" y1="439.2441" y2="1261.9219"/><line style="stroke:#181818;stroke-width:0.5;stroke-dasharray:5.0,5.0;" x1="1005.5" x2="1005.5" y1="877.2988" y2="1261.9219"/><line style="stroke:#181818;stroke-width:0.5;stroke-dasharray:5.0,5.0;" x1="1093.5" x2="1093.5" y1="958.1621" y2="1261.9219"/><line style="stroke:#181818;stroke-width:0.5;stroke-dasharray:5.0,5.0;" x1="1211.5" x2="1211.5" y1="115.4844" y2="1261.9219"/><line style="stroke:#181818;stroke-width:0.5;stroke-dasharray:5.0,5.0;" x1="1337.5" x2="1337.5" y1="115.4844" y2="1261.9219"/><rect fill="#E3E3E3" height="51.2422" rx="2.5" ry="2.5" style="stroke:#181818;stroke-width:0.5;" width="101" x="168.5" y="63.2422"/><text fill="#000000" font-family="sans-serif" font-size="14" font-style="italic" lengthAdjust="spacing" textLength="54" x="192" y="85.3496">&#171;Route&#187;</text><text fill="#000000" font-family="sans-serif" font-size="14" lengthAdjust="spacing" textLength="87" x="175.5" y="103.9707">buildingRoute</text><rect fill="#E3E3E3" height="51.2422" rx="2.5" ry="2.5" style="stroke:#181818;stroke-width:0.5;" width="101" x="168.5" y="1260.9219"/><text fill="#000000" font-family="sans-serif" font-size="14" font-style="italic" lengthAdjust="spacing" textLength="54" x="192" y="1283.0293">&#171;Route&#187;</text><text fill="#000000" font-family="sans-serif" font-size="14" lengthAdjust="spacing" textLength="87" x="175.5" y="1301.6504">buildingRoute</text><rect fill="#E3E3E3" height="69.8633" rx="2.5" ry="2.5" style="stroke:#181818;stroke-width:0.5;" width="133" x="330.5" y="44.6211"/><text fill="#000000" font-family="sans-serif" font-size="14" font-style="italic" lengthAdjust="spacing" textLength="78" x="358" y="66.7285">&#171;Controller&#187;</text><text fill="#000000" font-family="sans-serif" font-size="14" lengthAdjust="spacing" textLength="77" x="358.5" y="85.3496">ctrlBuilding :</text><text fill="#000000" font-family="sans-serif" font-size="14" lengthAdjust="spacing" textLength="115" x="341.5" y="103.9707">IBuildingController</text><rect fill="#E3E3E3" height="69.8633" rx="2.5" ry="2.5" style="stroke:#181818;stroke-width:0.5;" width="133" x="330.5" y="1260.9219"/><text fill="#000000" font-family="sans-serif" font-size="14" font-style="italic" lengthAdjust="spacing" textLength="78" x="358" y="1283.0293">&#171;Controller&#187;</text><text fill="#000000" font-family="sans-serif" font-size="14" lengthAdjust="spacing" textLength="77" x="358.5" y="1301.6504">ctrlBuilding :</text><text fill="#000000" font-family="sans-serif" font-size="14" lengthAdjust="spacing" textLength="115" x="341.5" y="1320.2715">IBuildingController</text><rect fill="#E3E3E3" height="69.8633" rx="2.5" ry="2.5" style="stroke:#181818;stroke-width:0.5;" width="103" x="554.5" y="1260.9219"/><text fill="#000000" font-family="sans-serif" font-size="14" font-style="italic" lengthAdjust="spacing" textLength="46" x="583" y="1283.0293">&#171;DTO&#187;</text><text fill="#000000" font-family="sans-serif" font-size="14" lengthAdjust="spacing" textLength="89" x="561.5" y="1301.6504">elevatorDTO :</text><text fill="#000000" font-family="sans-serif" font-size="14" lengthAdjust="spacing" textLength="85" x="565.5" y="1320.2715">IElevatorDTO</text><rect fill="#E3E3E3" height="69.8633" rx="2.5" ry="2.5" style="stroke:#181818;stroke-width:0.5;" width="171" x="667.5" y="44.6211"/><text fill="#000000" font-family="sans-serif" font-size="14" font-style="italic" lengthAdjust="spacing" textLength="62" x="722" y="66.7285">&#171;Service&#187;</text><text fill="#000000" font-family="sans-serif" font-size="14" lengthAdjust="spacing" textLength="157" x="674.5" y="85.3496">buildingServiceInstance :</text><text fill="#000000" font-family="sans-serif" font-size="14" lengthAdjust="spacing" textLength="100" x="705" y="103.9707">IBuildingService</text><rect fill="#E3E3E3" height="69.8633" rx="2.5" ry="2.5" style="stroke:#181818;stroke-width:0.5;" width="171" x="667.5" y="1260.9219"/><text fill="#000000" font-family="sans-serif" font-size="14" font-style="italic" lengthAdjust="spacing" textLength="62" x="722" y="1283.0293">&#171;Service&#187;</text><text fill="#000000" font-family="sans-serif" font-size="14" lengthAdjust="spacing" textLength="157" x="674.5" y="1301.6504">buildingServiceInstance :</text><text fill="#000000" font-family="sans-serif" font-size="14" lengthAdjust="spacing" textLength="100" x="705" y="1320.2715">IBuildingService</text><rect fill="#E3E3E3" height="69.8633" rx="2.5" ry="2.5" style="stroke:#181818;stroke-width:0.5;" width="108" x="848.5" y="1260.9219"/><text fill="#000000" font-family="sans-serif" font-size="14" font-style="italic" lengthAdjust="spacing" textLength="46" x="879.5" y="1283.0293">&#171;DTO&#187;</text><text fill="#000000" font-family="sans-serif" font-size="14" lengthAdjust="spacing" textLength="94" x="855.5" y="1301.6504">buildingDTOs :</text><text fill="#000000" font-family="sans-serif" font-size="14" lengthAdjust="spacing" textLength="88" x="860.5" y="1320.2715">IBuildngDTO[]</text><rect fill="#E3E3E3" height="69.8633" rx="2.5" ry="2.5" style="stroke:#181818;stroke-width:0.5;" width="78" x="966.5" y="1260.9219"/><text fill="#000000" font-family="sans-serif" font-size="14" font-style="italic" lengthAdjust="spacing" textLength="64" x="973.5" y="1283.0293">&#171;Domain&#187;</text><text fill="#000000" font-family="sans-serif" font-size="14" lengthAdjust="spacing" textLength="59" x="976" y="1301.6504">elevator :</text><text fill="#000000" font-family="sans-serif" font-size="14" lengthAdjust="spacing" textLength="51" x="982" y="1320.2715">elevator</text><rect fill="#E3E3E3" height="69.8633" rx="2.5" ry="2.5" style="stroke:#181818;stroke-width:0.5;" width="78" x="1054.5" y="1260.9219"/><text fill="#000000" font-family="sans-serif" font-size="14" font-style="italic" lengthAdjust="spacing" textLength="64" x="1061.5" y="1283.0293">&#171;Domain&#187;</text><text fill="#000000" font-family="sans-serif" font-size="14" lengthAdjust="spacing" textLength="57" x="1065" y="1301.6504">building :</text><text fill="#000000" font-family="sans-serif" font-size="14" lengthAdjust="spacing" textLength="49" x="1071" y="1320.2715">building</text><rect fill="#E3E3E3" height="69.8633" rx="2.5" ry="2.5" style="stroke:#181818;stroke-width:0.5;" width="139" x="1142.5" y="44.6211"/><text fill="#000000" font-family="sans-serif" font-size="14" font-style="italic" lengthAdjust="spacing" textLength="84" x="1170" y="66.7285">&#171;Repository&#187;</text><text fill="#000000" font-family="sans-serif" font-size="14" lengthAdjust="spacing" textLength="91" x="1166.5" y="85.3496">buildingRepo :</text><text fill="#000000" font-family="sans-serif" font-size="14" lengthAdjust="spacing" textLength="121" x="1153.5" y="103.9707">IBuildingRepository</text><rect fill="#E3E3E3" height="69.8633" rx="2.5" ry="2.5" style="stroke:#181818;stroke-width:0.5;" width="139" x="1142.5" y="1260.9219"/><text fill="#000000" font-family="sans-serif" font-size="14" font-style="italic" lengthAdjust="spacing" textLength="84" x="1170" y="1283.0293">&#171;Repository&#187;</text><text fill="#000000" font-family="sans-serif" font-size="14" lengthAdjust="spacing" textLength="91" x="1166.5" y="1301.6504">buildingRepo :</text><text fill="#000000" font-family="sans-serif" font-size="14" lengthAdjust="spacing" textLength="121" x="1153.5" y="1320.2715">IBuildingRepository</text><rect fill="#E3E3E3" height="51.2422" rx="2.5" ry="2.5" style="stroke:#181818;stroke-width:0.5;" width="92" x="1291.5" y="63.2422"/><text fill="#000000" font-family="sans-serif" font-size="14" font-style="italic" lengthAdjust="spacing" textLength="78" x="1298.5" y="85.3496">&#171;DataBase&#187;</text><text fill="#000000" font-family="sans-serif" font-size="14" lengthAdjust="spacing" textLength="19" x="1328" y="103.9707">DB</text><rect fill="#E3E3E3" height="51.2422" rx="2.5" ry="2.5" style="stroke:#181818;stroke-width:0.5;" width="92" x="1291.5" y="1260.9219"/><text fill="#000000" font-family="sans-serif" font-size="14" font-style="italic" lengthAdjust="spacing" textLength="78" x="1298.5" y="1283.0293">&#171;DataBase&#187;</text><text fill="#000000" font-family="sans-serif" font-size="14" lengthAdjust="spacing" textLength="19" x="1328" y="1301.6504">DB</text><rect fill="#FFFFFF" height="451.0645" style="stroke:#181818;stroke-width:1.0;" width="10" x="214" y="148.7754"/><rect fill="#FFFFFF" height="612.791" style="stroke:#181818;stroke-width:1.0;" width="10" x="214" y="631.1309"/><rect fill="#FFFFFF" height="388.4824" style="stroke:#181818;stroke-width:1.0;" width="10" x="392" y="180.0664"/><rect fill="#FFFFFF" height="310.9004" style="stroke:#181818;stroke-width:1.0;" width="10" x="397" y="219.3574"/><rect fill="#FFFFFF" height="550.209" style="stroke:#181818;stroke-width:1.0;" width="10" x="392" y="662.4219"/><rect fill="#FFFFFF" height="472.627" style="stroke:#181818;stroke-width:1.0;" width="10" x="397" y="701.7129"/><rect fill="#FFFFFF" height="237.3184" style="stroke:#181818;stroke-width:1.0;" width="10" x="748" y="255.6484"/><rect fill="#FFFFFF" height="318.1816" style="stroke:#181818;stroke-width:1.0;" width="10" x="748" y="818.8672"/><rect fill="#FFFFFF" height="93.873" style="stroke:#181818;stroke-width:1.0;" width="10" x="1207" y="286.9395"/><rect fill="#FFFFFF" height="93.873" style="stroke:#181818;stroke-width:1.0;" width="10" x="1207" y="1011.8848"/><rect fill="#FFFFFF" height="31.291" style="stroke:#181818;stroke-width:1.0;" width="10" x="1332.5" y="318.2305"/><rect fill="#FFFFFF" height="31.291" style="stroke:#181818;stroke-width:1.0;" width="10" x="1332.5" y="1043.1758"/><ellipse cx="75.5" cy="148.0254" fill="none" rx="4" ry="4" style="stroke:#181818;stroke-width:1.5;"/><polygon fill="#181818" points="202,144.7754,212,148.7754,202,152.7754,206,148.7754" style="stroke:#181818;stroke-width:1.0;"/><line style="stroke:#181818;stroke-width:1.0;" x1="80" x2="208" y1="148.7754" y2="148.7754"/><text fill="#000000" font-family="sans-serif" font-size="13" font-weight="bold" lengthAdjust="spacing" textLength="7" x="83" y="143.5127">1</text><text fill="#000000" font-family="sans-serif" font-size="13" lengthAdjust="spacing" textLength="105" x="94" y="143.5127">GET (.../buildings)</text><polygon fill="#181818" points="380,176.0664,390,180.0664,380,184.0664,384,180.0664" style="stroke:#181818;stroke-width:1.0;"/><line style="stroke:#181818;stroke-width:1.0;" x1="224" x2="386" y1="180.0664" y2="180.0664"/><text fill="#000000" font-family="sans-serif" font-size="13" font-weight="bold" lengthAdjust="spacing" textLength="7" x="231" y="174.8037">2</text><text fill="#000000" font-family="sans-serif" font-size="13" lengthAdjust="spacing" textLength="131" x="242" y="174.8037">execute(req, res, next)</text><line style="stroke:#181818;stroke-width:1.0;" x1="402" x2="449" y1="206.3574" y2="206.3574"/><line style="stroke:#181818;stroke-width:1.0;" x1="449" x2="449" y1="206.3574" y2="219.3574"/><line style="stroke:#181818;stroke-width:1.0;" x1="408" x2="449" y1="219.3574" y2="219.3574"/><polygon fill="#181818" points="418,215.3574,408,219.3574,418,223.3574,414,219.3574" style="stroke:#181818;stroke-width:1.0;"/><text fill="#000000" font-family="sans-serif" font-size="13" font-weight="bold" lengthAdjust="spacing" textLength="7" x="414" y="201.0947">3</text><text fill="#000000" font-family="sans-serif" font-size="13" lengthAdjust="spacing" textLength="171" x="425" y="201.0947">getAllBuildings(req, res, next)</text><polygon fill="#181818" points="736,251.6484,746,255.6484,736,259.6484,740,255.6484" style="stroke:#181818;stroke-width:1.0;"/><line style="stroke:#181818;stroke-width:1.0;" x1="407" x2="742" y1="255.6484" y2="255.6484"/><text fill="#000000" font-family="sans-serif" font-size="13" font-weight="bold" lengthAdjust="spacing" textLength="7" x="414" y="250.3857">4</text><text fill="#000000" font-family="sans-serif" font-size="13" lengthAdjust="spacing" textLength="79" x="425" y="250.3857">getBuildings()</text><polygon fill="#181818" points="1195,282.9395,1205,286.9395,1195,290.9395,1199,286.9395" style="stroke:#181818;stroke-width:1.0;"/><line style="stroke:#181818;stroke-width:1.0;" x1="758" x2="1201" y1="286.9395" y2="286.9395"/><text fill="#000000" font-family="sans-serif" font-size="13" font-weight="bold" lengthAdjust="spacing" textLength="7" x="765" y="281.6768">5</text><text fill="#000000" font-family="sans-serif" font-size="13" lengthAdjust="spacing" textLength="43" x="776" y="281.6768">findAll()</text><polygon fill="#181818" points="1320.5,314.2305,1330.5,318.2305,1320.5,322.2305,1324.5,318.2305" style="stroke:#181818;stroke-width:1.0;"/><line style="stroke:#181818;stroke-width:1.0;" x1="1217" x2="1326.5" y1="318.2305" y2="318.2305"/><text fill="#000000" font-family="sans-serif" font-size="13" font-weight="bold" lengthAdjust="spacing" textLength="7" x="1224" y="312.9678">6</text><text fill="#000000" font-family="sans-serif" font-size="13" lengthAdjust="spacing" textLength="4" x="1235" y="312.9678">&#160;</text><polygon fill="#181818" points="1228,345.5215,1218,349.5215,1228,353.5215,1224,349.5215" style="stroke:#181818;stroke-width:1.0;"/><line style="stroke:#181818;stroke-width:1.0;stroke-dasharray:2.0,2.0;" x1="1222" x2="1336.5" y1="349.5215" y2="349.5215"/><text fill="#000000" font-family="sans-serif" font-size="13" font-weight="bold" lengthAdjust="spacing" textLength="7" x="1234" y="344.2588">7</text><text fill="#000000" font-family="sans-serif" font-size="13" lengthAdjust="spacing" textLength="4" x="1245" y="344.2588">&#160;</text><polygon fill="#181818" points="769,376.8125,759,380.8125,769,384.8125,765,380.8125" style="stroke:#181818;stroke-width:1.0;"/><line style="stroke:#181818;stroke-width:1.0;stroke-dasharray:2.0,2.0;" x1="763" x2="1211" y1="380.8125" y2="380.8125"/><text fill="#000000" font-family="sans-serif" font-size="13" font-weight="bold" lengthAdjust="spacing" textLength="7" x="775" y="375.5498">8</text><text fill="#000000" font-family="sans-serif" font-size="13" lengthAdjust="spacing" textLength="4" x="786" y="375.5498">&#160;</text><polygon fill="#181818" points="836.5,408.1035,846.5,412.1035,836.5,416.1035,840.5,412.1035" style="stroke:#181818;stroke-width:1.0;"/><line style="stroke:#181818;stroke-width:1.0;stroke-dasharray:2.0,2.0;" x1="758" x2="842.5" y1="412.1035" y2="412.1035"/><text fill="#000000" font-family="sans-serif" font-size="13" font-weight="bold" lengthAdjust="spacing" textLength="7" x="765" y="406.8408">9</text><text fill="#000000" font-family="sans-serif" font-size="13" lengthAdjust="spacing" textLength="36" x="776" y="406.8408">create</text><rect fill="#E3E3E3" height="69.8633" rx="2.5" ry="2.5" style="stroke:#181818;stroke-width:0.5;" width="108" x="848.5" y="388.8125"/><text fill="#000000" font-family="sans-serif" font-size="14" font-style="italic" lengthAdjust="spacing" textLength="46" x="879.5" y="410.9199">&#171;DTO&#187;</text><text fill="#000000" font-family="sans-serif" font-size="14" lengthAdjust="spacing" textLength="94" x="855.5" y="429.541">buildingDTOs :</text><text fill="#000000" font-family="sans-serif" font-size="14" lengthAdjust="spacing" textLength="88" x="860.5" y="448.1621">IBuildngDTO[]</text><polygon fill="#181818" points="418,488.9668,408,492.9668,418,496.9668,414,492.9668" style="stroke:#181818;stroke-width:1.0;"/><line style="stroke:#181818;stroke-width:1.0;stroke-dasharray:2.0,2.0;" x1="412" x2="752" y1="492.9668" y2="492.9668"/><text fill="#000000" font-family="sans-serif" font-size="13" font-weight="bold" lengthAdjust="spacing" textLength="14" x="424" y="487.7041">10</text><text fill="#000000" font-family="sans-serif" font-size="13" lengthAdjust="spacing" textLength="77" x="442" y="487.7041">buildingDTOs</text><line style="stroke:#181818;stroke-width:1.0;stroke-dasharray:2.0,2.0;" x1="407" x2="449" y1="529.2578" y2="529.2578"/><line style="stroke:#181818;stroke-width:1.0;stroke-dasharray:2.0,2.0;" x1="449" x2="449" y1="529.2578" y2="542.2578"/><line style="stroke:#181818;stroke-width:1.0;stroke-dasharray:2.0,2.0;" x1="402" x2="449" y1="542.2578" y2="542.2578"/><polygon fill="#181818" points="412,538.2578,402,542.2578,412,546.2578,408,542.2578" style="stroke:#181818;stroke-width:1.0;"/><text fill="#000000" font-family="sans-serif" font-size="13" font-weight="bold" lengthAdjust="spacing" textLength="14" x="414" y="523.9951">11</text><text fill="#000000" font-family="sans-serif" font-size="13" lengthAdjust="spacing" textLength="90" x="432" y="523.9951">status: 200/404</text><polygon fill="#181818" points="235,564.5488,225,568.5488,235,572.5488,231,568.5488" style="stroke:#181818;stroke-width:1.0;"/><line style="stroke:#181818;stroke-width:1.0;stroke-dasharray:2.0,2.0;" x1="229" x2="396" y1="568.5488" y2="568.5488"/><text fill="#000000" font-family="sans-serif" font-size="13" font-weight="bold" lengthAdjust="spacing" textLength="14" x="241" y="563.2861">12</text><text fill="#000000" font-family="sans-serif" font-size="13" lengthAdjust="spacing" textLength="90" x="259" y="563.2861">status: 200/404</text><polygon fill="#181818" points="11,595.8398,1,599.8398,11,603.8398,7,599.8398" style="stroke:#181818;stroke-width:1.0;"/><line style="stroke:#181818;stroke-width:1.0;stroke-dasharray:2.0,2.0;" x1="5" x2="218" y1="599.8398" y2="599.8398"/><text fill="#000000" font-family="sans-serif" font-size="13" font-weight="bold" lengthAdjust="spacing" textLength="14" x="17" y="594.5771">13</text><text fill="#000000" font-family="sans-serif" font-size="13" lengthAdjust="spacing" textLength="90" x="35" y="594.5771">status: 200/404</text><ellipse cx="4.5" cy="630.3809" fill="none" rx="4" ry="4" style="stroke:#181818;stroke-width:1.5;"/><polygon fill="#181818" points="202,627.1309,212,631.1309,202,635.1309,206,631.1309" style="stroke:#181818;stroke-width:1.0;"/><line style="stroke:#181818;stroke-width:1.0;" x1="9" x2="208" y1="631.1309" y2="631.1309"/><text fill="#000000" font-family="sans-serif" font-size="13" font-weight="bold" lengthAdjust="spacing" textLength="14" x="12" y="625.8682">14</text><text fill="#000000" font-family="sans-serif" font-size="13" lengthAdjust="spacing" textLength="169" x="30" y="625.8682">POST (.../buildings/elevators)</text><polygon fill="#181818" points="380,658.4219,390,662.4219,380,666.4219,384,662.4219" style="stroke:#181818;stroke-width:1.0;"/><line style="stroke:#181818;stroke-width:1.0;" x1="224" x2="386" y1="662.4219" y2="662.4219"/><text fill="#000000" font-family="sans-serif" font-size="13" font-weight="bold" lengthAdjust="spacing" textLength="14" x="231" y="657.1592">15</text><text fill="#000000" font-family="sans-serif" font-size="13" lengthAdjust="spacing" textLength="131" x="249" y="657.1592">execute(req, res, next)</text><line style="stroke:#181818;stroke-width:1.0;" x1="402" x2="449" y1="688.7129" y2="688.7129"/><line style="stroke:#181818;stroke-width:1.0;" x1="449" x2="449" y1="688.7129" y2="701.7129"/><line style="stroke:#181818;stroke-width:1.0;" x1="408" x2="449" y1="701.7129" y2="701.7129"/><polygon fill="#181818" points="418,697.7129,408,701.7129,418,705.7129,414,701.7129" style="stroke:#181818;stroke-width:1.0;"/><text fill="#000000" font-family="sans-serif" font-size="13" font-weight="bold" lengthAdjust="spacing" textLength="14" x="414" y="683.4502">16</text><text fill="#000000" font-family="sans-serif" font-size="13" lengthAdjust="spacing" textLength="167" x="432" y="683.4502">createElevator(req, res, next)</text><polygon fill="#181818" points="542.5,734.0039,552.5,738.0039,542.5,742.0039,546.5,738.0039" style="stroke:#181818;stroke-width:1.0;"/><line style="stroke:#181818;stroke-width:1.0;stroke-dasharray:2.0,2.0;" x1="407" x2="548.5" y1="738.0039" y2="738.0039"/><text fill="#000000" font-family="sans-serif" font-size="13" font-weight="bold" lengthAdjust="spacing" textLength="14" x="414" y="732.7412">17</text><text fill="#000000" font-family="sans-serif" font-size="13" lengthAdjust="spacing" textLength="36" x="432" y="732.7412">create</text><rect fill="#E3E3E3" height="69.8633" rx="2.5" ry="2.5" style="stroke:#181818;stroke-width:0.5;" width="103" x="554.5" y="714.7129"/><text fill="#000000" font-family="sans-serif" font-size="14" font-style="italic" lengthAdjust="spacing" textLength="46" x="583" y="736.8203">&#171;DTO&#187;</text><text fill="#000000" font-family="sans-serif" font-size="14" lengthAdjust="spacing" textLength="89" x="561.5" y="755.4414">elevatorDTO :</text><text fill="#000000" font-family="sans-serif" font-size="14" lengthAdjust="spacing" textLength="85" x="565.5" y="774.0625">IElevatorDTO</text><polygon fill="#181818" points="736,814.8672,746,818.8672,736,822.8672,740,818.8672" style="stroke:#181818;stroke-width:1.0;"/><line style="stroke:#181818;stroke-width:1.0;" x1="407" x2="742" y1="818.8672" y2="818.8672"/><text fill="#000000" font-family="sans-serif" font-size="13" font-weight="bold" lengthAdjust="spacing" textLength="14" x="414" y="813.6045">18</text><text fill="#000000" font-family="sans-serif" font-size="13" lengthAdjust="spacing" textLength="160" x="432" y="813.6045">createElevator(elevatorDTO)</text><polygon fill="#181818" points="954.5,846.1582,964.5,850.1582,954.5,854.1582,958.5,850.1582" style="stroke:#181818;stroke-width:1.0;"/><line style="stroke:#181818;stroke-width:1.0;stroke-dasharray:2.0,2.0;" x1="758" x2="960.5" y1="850.1582" y2="850.1582"/><text fill="#000000" font-family="sans-serif" font-size="13" font-weight="bold" lengthAdjust="spacing" textLength="14" x="765" y="844.8955">19</text><text fill="#000000" font-family="sans-serif" font-size="13" lengthAdjust="spacing" textLength="36" x="783" y="844.8955">create</text><rect fill="#E3E3E3" height="69.8633" rx="2.5" ry="2.5" style="stroke:#181818;stroke-width:0.5;" width="78" x="966.5" y="826.8672"/><text fill="#000000" font-family="sans-serif" font-size="14" font-style="italic" lengthAdjust="spacing" textLength="64" x="973.5" y="848.9746">&#171;Domain&#187;</text><text fill="#000000" font-family="sans-serif" font-size="14" lengthAdjust="spacing" textLength="59" x="976" y="867.5957">elevator :</text><text fill="#000000" font-family="sans-serif" font-size="14" lengthAdjust="spacing" textLength="51" x="982" y="886.2168">elevator</text><polygon fill="#181818" points="1042.5,927.0215,1052.5,931.0215,1042.5,935.0215,1046.5,931.0215" style="stroke:#181818;stroke-width:1.0;"/><line style="stroke:#181818;stroke-width:1.0;stroke-dasharray:2.0,2.0;" x1="758" x2="1048.5" y1="931.0215" y2="931.0215"/><text fill="#000000" font-family="sans-serif" font-size="13" font-weight="bold" lengthAdjust="spacing" textLength="14" x="765" y="925.7588">20</text><text fill="#000000" font-family="sans-serif" font-size="13" lengthAdjust="spacing" textLength="119" x="783" y="925.7588">addElevator(elevator)</text><rect fill="#E3E3E3" height="69.8633" rx="2.5" ry="2.5" style="stroke:#181818;stroke-width:0.5;" width="78" x="1054.5" y="907.7305"/><text fill="#000000" font-family="sans-serif" font-size="14" font-style="italic" lengthAdjust="spacing" textLength="64" x="1061.5" y="929.8379">&#171;Domain&#187;</text><text fill="#000000" font-family="sans-serif" font-size="14" lengthAdjust="spacing" textLength="57" x="1065" y="948.459">building :</text><text fill="#000000" font-family="sans-serif" font-size="14" lengthAdjust="spacing" textLength="49" x="1071" y="967.0801">building</text><polygon fill="#181818" points="1195,1007.8848,1205,1011.8848,1195,1015.8848,1199,1011.8848" style="stroke:#181818;stroke-width:1.0;"/><line style="stroke:#181818;stroke-width:1.0;" x1="758" x2="1201" y1="1011.8848" y2="1011.8848"/><text fill="#000000" font-family="sans-serif" font-size="13" font-weight="bold" lengthAdjust="spacing" textLength="14" x="765" y="1006.6221">21</text><text fill="#000000" font-family="sans-serif" font-size="13" lengthAdjust="spacing" textLength="91" x="783" y="1006.6221">update(building)</text><polygon fill="#181818" points="1320.5,1039.1758,1330.5,1043.1758,1320.5,1047.1758,1324.5,1043.1758" style="stroke:#181818;stroke-width:1.0;"/><line style="stroke:#181818;stroke-width:1.0;" x1="1217" x2="1326.5" y1="1043.1758" y2="1043.1758"/><text fill="#000000" font-family="sans-serif" font-size="13" font-weight="bold" lengthAdjust="spacing" textLength="14" x="1224" y="1037.9131">22</text><text fill="#000000" font-family="sans-serif" font-size="13" lengthAdjust="spacing" textLength="78" x="1242" y="1037.9131">save(building)</text><polygon fill="#181818" points="1228,1070.4668,1218,1074.4668,1228,1078.4668,1224,1074.4668" style="stroke:#181818;stroke-width:1.0;"/><line style="stroke:#181818;stroke-width:1.0;stroke-dasharray:2.0,2.0;" x1="1222" x2="1336.5" y1="1074.4668" y2="1074.4668"/><text fill="#000000" font-family="sans-serif" font-size="13" font-weight="bold" lengthAdjust="spacing" textLength="14" x="1234" y="1069.2041">23</text><text fill="#000000" font-family="sans-serif" font-size="13" lengthAdjust="spacing" textLength="4" x="1252" y="1069.2041">&#160;</text><polygon fill="#181818" points="769,1101.7578,759,1105.7578,769,1109.7578,765,1105.7578" style="stroke:#181818;stroke-width:1.0;"/><line style="stroke:#181818;stroke-width:1.0;stroke-dasharray:2.0,2.0;" x1="763" x2="1211" y1="1105.7578" y2="1105.7578"/><text fill="#000000" font-family="sans-serif" font-size="13" font-weight="bold" lengthAdjust="spacing" textLength="14" x="775" y="1100.4951">24</text><text fill="#000000" font-family="sans-serif" font-size="13" lengthAdjust="spacing" textLength="4" x="793" y="1100.4951">&#160;</text><polygon fill="#181818" points="418,1133.0488,408,1137.0488,418,1141.0488,414,1137.0488" style="stroke:#181818;stroke-width:1.0;"/><line style="stroke:#181818;stroke-width:1.0;stroke-dasharray:2.0,2.0;" x1="412" x2="752" y1="1137.0488" y2="1137.0488"/><text fill="#000000" font-family="sans-serif" font-size="13" font-weight="bold" lengthAdjust="spacing" textLength="14" x="424" y="1131.7861">25</text><text fill="#000000" font-family="sans-serif" font-size="13" lengthAdjust="spacing" textLength="4" x="442" y="1131.7861">&#160;</text><line style="stroke:#181818;stroke-width:1.0;stroke-dasharray:2.0,2.0;" x1="407" x2="449" y1="1173.3398" y2="1173.3398"/><line style="stroke:#181818;stroke-width:1.0;stroke-dasharray:2.0,2.0;" x1="449" x2="449" y1="1173.3398" y2="1186.3398"/><line style="stroke:#181818;stroke-width:1.0;stroke-dasharray:2.0,2.0;" x1="402" x2="449" y1="1186.3398" y2="1186.3398"/><polygon fill="#181818" points="412,1182.3398,402,1186.3398,412,1190.3398,408,1186.3398" style="stroke:#181818;stroke-width:1.0;"/><text fill="#000000" font-family="sans-serif" font-size="13" font-weight="bold" lengthAdjust="spacing" textLength="14" x="414" y="1168.0771">26</text><text fill="#000000" font-family="sans-serif" font-size="13" lengthAdjust="spacing" textLength="90" x="432" y="1168.0771">status: 201/400</text><polygon fill="#181818" points="235,1208.6309,225,1212.6309,235,1216.6309,231,1212.6309" style="stroke:#181818;stroke-width:1.0;"/><line style="stroke:#181818;stroke-width:1.0;stroke-dasharray:2.0,2.0;" x1="229" x2="396" y1="1212.6309" y2="1212.6309"/><text fill="#000000" font-family="sans-serif" font-size="13" font-weight="bold" lengthAdjust="spacing" textLength="14" x="241" y="1207.3682">27</text><text fill="#000000" font-family="sans-serif" font-size="13" lengthAdjust="spacing" textLength="90" x="259" y="1207.3682">status: 201/400</text><polygon fill="#181818" points="11,1239.9219,1,1243.9219,11,1247.9219,7,1243.9219" style="stroke:#181818;stroke-width:1.0;"/><line style="stroke:#181818;stroke-width:1.0;stroke-dasharray:2.0,2.0;" x1="5" x2="218" y1="1243.9219" y2="1243.9219"/><text fill="#000000" font-family="sans-serif" font-size="13" font-weight="bold" lengthAdjust="spacing" textLength="14" x="17" y="1238.6592">28</text><text fill="#000000" font-family="sans-serif" font-size="13" lengthAdjust="spacing" textLength="90" x="35" y="1238.6592">status: 201/400</text><!--SRC=[rPNTJzim4C3V_LTOF3M8VZ1uggfEou8c92OGPNlPzc2IerYaTh6T0l_zBawSE6dIierfMXxQsBxxtVc-eX-uM3F5LdGbXOplbLm1DIe3egkJDOiVs18MvYK5gY0sJ2nJNq3ViqG-SR6aTopLG8ZX1aKNy9Y1Y856d2rpkS45R22b9tH8hvICGMlwbSCJBZz70Vv-MT3ZuvC9OPcH8blTWY84BHWUypKJXXxSPZnDqCwrp0mSKAQfVQEpcVsVpvlYiL5fMAhGwNT1pztgenH6oJG5PIdr4b7reis353RCI1NTN1Quith3ShmrWl2tJN0NM83Qy1ZEXSPWOeGQpfM7bbY-8wrywoEYCUrXxCQt7vOHrY8NN9jkpzpTBCCj6fVAzUIAST7dWbLrYuRblQhNi9RD8EGxcgFPboBFkG2ckTfjawBGoaLXReiP5ZATnugybyDvMILJ-kdiXWv6ez7OsTK1OR7XU3yeX0YX-1JogEWLnfJ2CyIuFr3mU8Hze8-eW6SJM8sAKclO_Vpn86ta4io7jAfHtOdUXzysuOh6ycjuG1ew5RCKRnpcZyFa0RJveNTS9EZl8DYIhQE8abkdDgOv0b6OeMcdG8M8mivpL1nMhdHA9B2FKJZXXuZiW7JUfOeAKbgTTNY8COeLeEvEjKO9-0rCUXnn6UhDUHkAOyLaUahVJIRZqyafwM2sAgb5SntJ1Ug6aDbmsAlc1xLeiqPVNbqkseqvTZFeNxTeaKyt1D-aGz64zwNegvg-dcuvv7sKVhl1FOTUMyEkzAqyIv8jVu9Np9DidQ2TWKlwduuLgjbc5-q_dJ9-EVw52N6C7JfvYmbHWtvfGXHgMnFY9m00]--></g></svg>