<?xml version="1.0" encoding="us-ascii" standalone="no"?><svg xmlns="http://www.w3.org/2000/svg" xmlns:xlink="http://www.w3.org/1999/xlink" contentStyleType="text/css" height="487px" preserveAspectRatio="none" style="width:462px;height:487px;background:#FFFFFF;" version="1.1" viewBox="0 0 462 487" width="462px" zoomAndPan="magnify"><defs/><g><text fill="#000000" font-family="sans-serif" font-size="25" font-weight="bold" lengthAdjust="spacing" text-decoration="underline" textLength="294" x="77.205" y="36.9775">US 240 - Domain classes</text><!--cluster <<aggregate>> Passageway--><g id="cluster_&lt;&lt;aggregate&gt;&gt; Passageway"><path d="M74.91,60.2656 L252.91,60.2656 A3.75,3.75 0 0 1 255.41,62.7656 L262.41,84.8867 L262.91,84.8867 A2.5,2.5 0 0 1 265.41,87.3867 L265.41,319.7656 A2.5,2.5 0 0 1 262.91,322.2656 L74.91,322.2656 A2.5,2.5 0 0 1 72.41,319.7656 L72.41,62.7656 A2.5,2.5 0 0 1 74.91,60.2656 " fill="none" style="stroke:#000000;stroke-width:1.5;"/><line style="stroke:#000000;stroke-width:1.5;" x1="72.41" x2="262.41" y1="84.8867" y2="84.8867"/><text fill="#000000" font-family="sans-serif" font-size="14" font-weight="bold" lengthAdjust="spacing" textLength="177" x="76.41" y="77.373">&#171;aggregate&#187; Passageway</text></g><!--cluster <<aggregate>> Building--><g id="cluster_&lt;&lt;aggregate&gt;&gt; Building"><path d="M291.91,68.2656 L442.91,68.2656 A3.75,3.75 0 0 1 445.41,70.7656 L452.41,92.8867 L452.91,92.8867 A2.5,2.5 0 0 1 455.41,95.3867 L455.41,477.7656 A2.5,2.5 0 0 1 452.91,480.2656 L291.91,480.2656 A2.5,2.5 0 0 1 289.41,477.7656 L289.41,70.7656 A2.5,2.5 0 0 1 291.91,68.2656 " fill="none" style="stroke:#000000;stroke-width:1.5;"/><line style="stroke:#000000;stroke-width:1.5;" x1="289.41" x2="452.41" y1="92.8867" y2="92.8867"/><text fill="#000000" font-family="sans-serif" font-size="14" font-weight="bold" lengthAdjust="spacing" textLength="150" x="293.41" y="85.373">&#171;aggregate&#187; Building</text></g><!--class Passageway--><g id="elem_Passageway"><rect codeLine="10" fill="#F1F1F1" height="68.543" id="Passageway" rx="2.5" ry="2.5" style="stroke:#181818;stroke-width:0.5;" width="111" x="120.91" y="97.2656"/><ellipse cx="135.91" cy="127.5371" fill="#ADD1B2" rx="11" ry="11" style="stroke:#181818;stroke-width:1.0;"/><path d="M134.7694,128.334 L134.7694,130.834 L139.0975,130.834 L139.0975,129.9121 Q139.0975,129.3027 139.3319,129.0371 Q139.5819,128.7715 139.9569,128.7715 Q140.3319,128.7715 140.5663,129.0371 Q140.8006,129.3027 140.8006,129.9121 L140.8006,132.5371 L132.8006,132.5371 Q132.1756,132.5371 131.91,132.3027 Q131.66,132.0684 131.66,131.6777 Q131.66,131.3027 131.9256,131.0684 Q132.1913,130.834 132.8006,130.834 L133.0663,130.834 L133.0663,124.1777 L132.8006,124.1777 Q132.1756,124.1777 131.91,123.9434 Q131.66,123.709 131.66,123.3184 Q131.66,122.9434 131.91,122.709 Q132.1756,122.4746 132.8006,122.4746 L140.4256,122.4746 L140.4256,125.0684 Q140.4256,125.6777 140.1913,125.9434 Q139.9725,126.1934 139.5819,126.1934 Q139.2069,126.1934 138.9725,125.9434 Q138.7381,125.6777 138.7381,125.0684 L138.7381,124.1777 L134.7694,124.1777 L134.7694,126.6309 L136.2538,126.6309 Q136.2538,125.9746 136.3788,125.7871 Q136.6444,125.3809 137.1131,125.3809 Q137.4881,125.3809 137.7225,125.6465 Q137.9569,125.8965 137.9569,126.5059 L137.9569,128.4746 Q137.9569,129.0215 137.8319,129.209 Q137.5663,129.5996 137.1131,129.5996 Q136.6444,129.5996 136.3788,129.1934 Q136.2538,129.0059 136.2538,128.334 L134.7694,128.334 Z " fill="#000000"/><text fill="#000000" font-family="sans-serif" font-size="12" font-style="italic" lengthAdjust="spacing" textLength="43" x="167.91" y="115.2148">&#171;entity&#187;</text><text fill="#000000" font-family="sans-serif" font-size="12" font-style="italic" lengthAdjust="spacing" textLength="35" x="171.91" y="131.1758">&#171;root&#187;</text><text fill="#000000" font-family="sans-serif" font-size="14" lengthAdjust="spacing" textLength="79" x="149.91" y="149.2949">Passageway</text><line style="stroke:#181818;stroke-width:0.5;" x1="121.91" x2="230.91" y1="157.8086" y2="157.8086"/></g><!--class PassagewayCode--><g id="elem_PassagewayCode"><rect codeLine="11" fill="#F1F1F1" height="52.582" id="PassagewayCode" rx="2.5" ry="2.5" style="stroke:#181818;stroke-width:0.5;" width="145" x="103.91" y="253.2656"/><ellipse cx="118.91" cy="275.5566" fill="#FF8B40" rx="11" ry="11" style="stroke:#181818;stroke-width:1.0;"/><path d="M119.5038,278.8223 L121.9725,272.9473 L121.5819,272.9473 Q120.9725,272.9473 120.7069,272.7129 Q120.4413,272.4785 120.4413,272.0879 Q120.4413,271.7129 120.7069,271.4785 Q120.9725,271.2441 121.5819,271.2441 L123.8631,271.2441 Q124.4725,271.2441 124.7381,271.4785 Q125.0038,271.7129 125.0038,272.0879 Q125.0038,272.5566 124.5975,272.8223 Q124.41,272.9473 123.8163,272.9473 L120.3319,281.3066 L118.6913,281.3066 L115.2069,272.9473 Q114.6131,272.9473 114.4256,272.8223 Q114.0194,272.5566 114.0194,272.0879 Q114.0194,271.7129 114.285,271.4785 Q114.5506,271.2441 115.16,271.2441 L117.4569,271.2441 Q118.0663,271.2441 118.3163,271.4785 Q118.5819,271.7129 118.5819,272.0879 Q118.5819,272.4785 118.3163,272.7129 Q118.0663,272.9473 117.4569,272.9473 L117.0506,272.9473 L119.5038,278.8223 Z " fill="#000000"/><text fill="#000000" font-family="sans-serif" font-size="12" font-style="italic" lengthAdjust="spacing" textLength="81" x="148.91" y="271.2148">&#171;value object&#187;</text><text fill="#000000" font-family="sans-serif" font-size="14" lengthAdjust="spacing" textLength="113" x="132.91" y="289.334">PassagewayCode</text><line style="stroke:#181818;stroke-width:0.5;" x1="104.91" x2="247.91" y1="297.8477" y2="297.8477"/></g><!--class Building--><g id="elem_Building"><rect codeLine="16" fill="#F1F1F1" height="68.543" id="Building" rx="2.5" ry="2.5" style="stroke:#181818;stroke-width:0.5;" width="82" x="305.41" y="245.2656"/><ellipse cx="320.41" cy="275.5371" fill="#ADD1B2" rx="11" ry="11" style="stroke:#181818;stroke-width:1.0;"/><path d="M319.2694,276.334 L319.2694,278.834 L323.5975,278.834 L323.5975,277.9121 Q323.5975,277.3027 323.8319,277.0371 Q324.0819,276.7715 324.4569,276.7715 Q324.8319,276.7715 325.0663,277.0371 Q325.3006,277.3027 325.3006,277.9121 L325.3006,280.5371 L317.3006,280.5371 Q316.6756,280.5371 316.41,280.3027 Q316.16,280.0684 316.16,279.6777 Q316.16,279.3027 316.4256,279.0684 Q316.6913,278.834 317.3006,278.834 L317.5663,278.834 L317.5663,272.1777 L317.3006,272.1777 Q316.6756,272.1777 316.41,271.9434 Q316.16,271.709 316.16,271.3184 Q316.16,270.9434 316.41,270.709 Q316.6756,270.4746 317.3006,270.4746 L324.9256,270.4746 L324.9256,273.0684 Q324.9256,273.6777 324.6913,273.9434 Q324.4725,274.1934 324.0819,274.1934 Q323.7069,274.1934 323.4725,273.9434 Q323.2381,273.6777 323.2381,273.0684 L323.2381,272.1777 L319.2694,272.1777 L319.2694,274.6309 L320.7538,274.6309 Q320.7538,273.9746 320.8788,273.7871 Q321.1444,273.3809 321.6131,273.3809 Q321.9881,273.3809 322.2225,273.6465 Q322.4569,273.8965 322.4569,274.5059 L322.4569,276.4746 Q322.4569,277.0215 322.3319,277.209 Q322.0663,277.5996 321.6131,277.5996 Q321.1444,277.5996 320.8788,277.1934 Q320.7538,277.0059 320.7538,276.334 L319.2694,276.334 Z " fill="#000000"/><text fill="#000000" font-family="sans-serif" font-size="12" font-style="italic" lengthAdjust="spacing" textLength="43" x="337.91" y="263.2148">&#171;entity&#187;</text><text fill="#000000" font-family="sans-serif" font-size="12" font-style="italic" lengthAdjust="spacing" textLength="35" x="341.91" y="279.1758">&#171;root&#187;</text><text fill="#000000" font-family="sans-serif" font-size="14" lengthAdjust="spacing" textLength="50" x="334.41" y="297.2949">Building</text><line style="stroke:#181818;stroke-width:0.5;" x1="306.41" x2="386.41" y1="305.8086" y2="305.8086"/></g><!--class Code--><g id="elem_Code"><rect codeLine="17" fill="#F1F1F1" height="52.582" id="Code" rx="2.5" ry="2.5" style="stroke:#181818;stroke-width:0.5;" width="109" x="305.91" y="105.2656"/><ellipse cx="320.91" cy="127.5566" fill="#FF8B40" rx="11" ry="11" style="stroke:#181818;stroke-width:1.0;"/><path d="M321.5038,130.8223 L323.9725,124.9473 L323.5819,124.9473 Q322.9725,124.9473 322.7069,124.7129 Q322.4413,124.4785 322.4413,124.0879 Q322.4413,123.7129 322.7069,123.4785 Q322.9725,123.2441 323.5819,123.2441 L325.8631,123.2441 Q326.4725,123.2441 326.7381,123.4785 Q327.0038,123.7129 327.0038,124.0879 Q327.0038,124.5566 326.5975,124.8223 Q326.41,124.9473 325.8163,124.9473 L322.3319,133.3066 L320.6913,133.3066 L317.2069,124.9473 Q316.6131,124.9473 316.4256,124.8223 Q316.0194,124.5566 316.0194,124.0879 Q316.0194,123.7129 316.285,123.4785 Q316.5506,123.2441 317.16,123.2441 L319.4569,123.2441 Q320.0663,123.2441 320.3163,123.4785 Q320.5819,123.7129 320.5819,124.0879 Q320.5819,124.4785 320.3163,124.7129 Q320.0663,124.9473 319.4569,124.9473 L319.0506,124.9473 L321.5038,130.8223 Z " fill="#000000"/><text fill="#000000" font-family="sans-serif" font-size="12" font-style="italic" lengthAdjust="spacing" textLength="81" x="332.91" y="123.2148">&#171;value object&#187;</text><text fill="#000000" font-family="sans-serif" font-size="14" lengthAdjust="spacing" textLength="34" x="356.41" y="141.334">Code</text><line style="stroke:#181818;stroke-width:0.5;" x1="306.91" x2="413.91" y1="149.8477" y2="149.8477"/></g><!--class Floor--><g id="elem_Floor"><rect codeLine="19" fill="#F1F1F1" height="71.2031" id="Floor" rx="2.5" ry="2.5" style="stroke:#181818;stroke-width:0.5;" width="71" x="307.91" y="393.2656"/><ellipse cx="322.91" cy="415.5566" fill="#ADD1B2" rx="11" ry="11" style="stroke:#181818;stroke-width:1.0;"/><path d="M321.7694,416.3535 L321.7694,418.8535 L326.0975,418.8535 L326.0975,417.9316 Q326.0975,417.3223 326.3319,417.0566 Q326.5819,416.791 326.9569,416.791 Q327.3319,416.791 327.5663,417.0566 Q327.8006,417.3223 327.8006,417.9316 L327.8006,420.5566 L319.8006,420.5566 Q319.1756,420.5566 318.91,420.3223 Q318.66,420.0879 318.66,419.6973 Q318.66,419.3223 318.9256,419.0879 Q319.1913,418.8535 319.8006,418.8535 L320.0663,418.8535 L320.0663,412.1973 L319.8006,412.1973 Q319.1756,412.1973 318.91,411.9629 Q318.66,411.7285 318.66,411.3379 Q318.66,410.9629 318.91,410.7285 Q319.1756,410.4941 319.8006,410.4941 L327.4256,410.4941 L327.4256,413.0879 Q327.4256,413.6973 327.1913,413.9629 Q326.9725,414.2129 326.5819,414.2129 Q326.2069,414.2129 325.9725,413.9629 Q325.7381,413.6973 325.7381,413.0879 L325.7381,412.1973 L321.7694,412.1973 L321.7694,414.6504 L323.2538,414.6504 Q323.2538,413.9941 323.3788,413.8066 Q323.6444,413.4004 324.1131,413.4004 Q324.4881,413.4004 324.7225,413.666 Q324.9569,413.916 324.9569,414.5254 L324.9569,416.4941 Q324.9569,417.041 324.8319,417.2285 Q324.5663,417.6191 324.1131,417.6191 Q323.6444,417.6191 323.3788,417.2129 Q323.2538,417.0254 323.2538,416.3535 L321.7694,416.3535 Z " fill="#000000"/><text fill="#000000" font-family="sans-serif" font-size="12" font-style="italic" lengthAdjust="spacing" textLength="43" x="334.91" y="411.2148">&#171;entity&#187;</text><text fill="#000000" font-family="sans-serif" font-size="14" lengthAdjust="spacing" textLength="33" x="339.91" y="429.334">Floor</text><line style="stroke:#181818;stroke-width:0.5;" x1="308.91" x2="377.91" y1="437.8477" y2="437.8477"/><text fill="#000000" font-family="sans-serif" font-size="14" lengthAdjust="spacing" textLength="48" x="313.91" y="456.9551">number</text></g><!--reverse link Code to Building--><g id="link_Code_Building"><path codeLine="24" d="M357.369,164.5084 C355.069,188.5684 352.18,218.6756 349.65,245.0256 " fill="none" id="Code-backto-Building" style="stroke:#181818;stroke-width:1.0;"/><polygon fill="#181818" points="357.94,158.5356,353.1017,167.1141,357.4642,163.5129,361.0654,167.8754,357.94,158.5356" style="stroke:#181818;stroke-width:1.0;"/></g><!--link Passageway to PassagewayCode--><g id="link_Passageway_PassagewayCode"><path codeLine="26" d="M176.41,166.6256 C176.41,192.9056 176.41,222.8056 176.41,246.8356 " fill="none" id="Passageway-to-PassagewayCode" style="stroke:#181818;stroke-width:1.0;"/><polygon fill="#181818" points="176.41,252.8356,180.41,243.8356,176.41,247.8356,172.41,243.8356,176.41,252.8356" style="stroke:#181818;stroke-width:1.0;"/></g><!--link Building to Floor--><g id="link_Building_Floor"><path codeLine="28" d="M345.73,314.4856 C345.24,338.0556 344.6,369.4256 344.12,393.1756 " fill="none" id="Building-Floor" style="stroke:#181818;stroke-width:1.0;"/><polygon fill="#000000" points="349.3077,358.9101,352.4311,349.927,346.5544,349.8068,349.3077,358.9101" style="stroke:#000000;stroke-width:1.0;"/><text fill="#000000" font-family="sans-serif" font-size="13" lengthAdjust="spacing" textLength="21" x="358.41" y="359.2939">has</text><text fill="#000000" font-family="sans-serif" font-size="13" lengthAdjust="spacing" textLength="7" x="338.0377" y="335.7342">1</text><text fill="#000000" font-family="sans-serif" font-size="13" lengthAdjust="spacing" textLength="5" x="338.79" y="382.083">*</text></g><!--link Passageway to Floor--><g id="link_Passageway_Floor"><path codeLine="30" d="M120.71,158.6656 C87.28,177.5156 47.63,206.5256 28.41,245.2656 C11.63,279.1056 6,299.8556 28.41,330.2656 C62.09,375.9356 232.52,409.3456 307.7,422.0956 " fill="none" id="Passageway-Floor" style="stroke:#181818;stroke-width:1.0;"/><polygon fill="#000000" points="36.3041,283.9884,33.4651,274.9114,28.672,278.3137,36.3041,283.9884" style="stroke:#000000;stroke-width:1.0;"/><text fill="#000000" font-family="sans-serif" font-size="13" lengthAdjust="spacing" textLength="43" x="42.41" y="285.2939">through</text><text fill="#000000" font-family="sans-serif" font-size="13" lengthAdjust="spacing" textLength="7" x="105.755" y="158.2167">1</text><text fill="#000000" font-family="sans-serif" font-size="13" lengthAdjust="spacing" textLength="5" x="294.8192" y="416.0042">*</text></g><!--link Passageway to Building--><g id="link_Passageway_Building"><path codeLine="31" d="M215.84,166.6256 C243.31,190.2156 279.78,221.5356 307.2,245.0856 " fill="none" id="Passageway-Building" style="stroke:#181818;stroke-width:1.0;"/><polygon fill="#000000" points="280.2032,209.1687,275.256,201.0461,271.4265,205.5053,280.2032,209.1687" style="stroke:#000000;stroke-width:1.0;"/><text fill="#000000" font-family="sans-serif" font-size="13" lengthAdjust="spacing" textLength="21" x="285.41" y="211.2939">has</text><text fill="#000000" font-family="sans-serif" font-size="13" lengthAdjust="spacing" textLength="5" x="216.9565" y="187.8974">*</text><text fill="#000000" font-family="sans-serif" font-size="13" lengthAdjust="spacing" textLength="5" x="294.249" y="233.9541">*</text></g><!--SRC=[ZP1DIyGm48Rl-HL3FAYBnRgi8182hbBm9YnwJzkXZTic9H_AAllVJRDkZOkekMNop3jFngwb6eGHFJZfEYoqSYlvXZ2_9B40pFF75SmNEMHmftiX5LITi1OjE_USa5RM23swLjUMs2ajCZVE6LbwX_ULLZ4s9-Ju8Ro81b_51aJJ66o4GpA8QXsAG1cRYfp35qlXdK0ug8BN9da0ndQrW3Dcj7QSHp8g9E2j3gQCdJoTmL5HN2qN-IcyYCuZwF8Pgx5j6_IMNdQrLCtVSdloG6qA-5ti7pffQj5fRTB8tSpnAD-NQE9rEtvX4iZyaF4uY91aOLd63zQIzD0B6W2WC_evyXfQOO5_I_W1SgtHlca3c7ApYPi6xFC-0000]--></g></svg>