<?xml version="1.0" encoding="us-ascii" standalone="no"?><svg xmlns="http://www.w3.org/2000/svg" xmlns:xlink="http://www.w3.org/1999/xlink" contentStyleType="text/css" height="471px" preserveAspectRatio="none" style="width:791px;height:471px;background:#FFFFFF;" version="1.1" viewBox="0 0 791 471" width="791px" zoomAndPan="magnify"><defs/><g><text fill="#000000" font-family="sans-serif" font-size="25" font-weight="bold" lengthAdjust="spacing" text-decoration="underline" textLength="294" x="241.5" y="36.9775">US 290 - Domain classes</text><!--cluster <<aggregate>> Building--><g id="cluster_&lt;&lt;aggregate&gt;&gt; Building"><path d="M8.5,60.2656 L159.5,60.2656 A3.75,3.75 0 0 1 162,62.7656 L169,84.8867 L781.5,84.8867 A2.5,2.5 0 0 1 784,87.3867 L784,461.7656 A2.5,2.5 0 0 1 781.5,464.2656 L8.5,464.2656 A2.5,2.5 0 0 1 6,461.7656 L6,62.7656 A2.5,2.5 0 0 1 8.5,60.2656 " fill="none" style="stroke:#000000;stroke-width:1.5;"/><line style="stroke:#000000;stroke-width:1.5;" x1="6" x2="169" y1="84.8867" y2="84.8867"/><text fill="#000000" font-family="sans-serif" font-size="14" font-weight="bold" lengthAdjust="spacing" textLength="150" x="10" y="77.373">&#171;aggregate&#187; Building</text></g><!--class Building--><g id="elem_Building"><rect codeLine="10" fill="#F1F1F1" height="68.543" id="Building" rx="2.5" ry="2.5" style="stroke:#181818;stroke-width:0.5;" width="82" x="22" y="97.2656"/><ellipse cx="37" cy="127.5371" fill="#ADD1B2" rx="11" ry="11" style="stroke:#181818;stroke-width:1.0;"/><path d="M35.8594,128.334 L35.8594,130.834 L40.1875,130.834 L40.1875,129.9121 Q40.1875,129.3027 40.4219,129.0371 Q40.6719,128.7715 41.0469,128.7715 Q41.4219,128.7715 41.6563,129.0371 Q41.8906,129.3027 41.8906,129.9121 L41.8906,132.5371 L33.8906,132.5371 Q33.2656,132.5371 33,132.3027 Q32.75,132.0684 32.75,131.6777 Q32.75,131.3027 33.0156,131.0684 Q33.2813,130.834 33.8906,130.834 L34.1563,130.834 L34.1563,124.1777 L33.8906,124.1777 Q33.2656,124.1777 33,123.9434 Q32.75,123.709 32.75,123.3184 Q32.75,122.9434 33,122.709 Q33.2656,122.4746 33.8906,122.4746 L41.5156,122.4746 L41.5156,125.0684 Q41.5156,125.6777 41.2813,125.9434 Q41.0625,126.1934 40.6719,126.1934 Q40.2969,126.1934 40.0625,125.9434 Q39.8281,125.6777 39.8281,125.0684 L39.8281,124.1777 L35.8594,124.1777 L35.8594,126.6309 L37.3438,126.6309 Q37.3438,125.9746 37.4688,125.7871 Q37.7344,125.3809 38.2031,125.3809 Q38.5781,125.3809 38.8125,125.6465 Q39.0469,125.8965 39.0469,126.5059 L39.0469,128.4746 Q39.0469,129.0215 38.9219,129.209 Q38.6563,129.5996 38.2031,129.5996 Q37.7344,129.5996 37.4688,129.1934 Q37.3438,129.0059 37.3438,128.334 L35.8594,128.334 Z " fill="#000000"/><text fill="#000000" font-family="sans-serif" font-size="12" font-style="italic" lengthAdjust="spacing" textLength="43" x="54.5" y="115.2148">&#171;entity&#187;</text><text fill="#000000" font-family="sans-serif" font-size="12" font-style="italic" lengthAdjust="spacing" textLength="35" x="58.5" y="131.1758">&#171;root&#187;</text><text fill="#000000" font-family="sans-serif" font-size="14" lengthAdjust="spacing" textLength="50" x="51" y="149.2949">Building</text><line style="stroke:#181818;stroke-width:0.5;" x1="23" x2="103" y1="157.8086" y2="157.8086"/></g><!--class Code--><g id="elem_Code"><rect codeLine="11" fill="#F1F1F1" height="52.582" id="Code" rx="2.5" ry="2.5" style="stroke:#181818;stroke-width:0.5;" width="109" x="22.5" y="245.2656"/><ellipse cx="37.5" cy="267.5566" fill="#FF8B40" rx="11" ry="11" style="stroke:#181818;stroke-width:1.0;"/><path d="M38.0938,270.8223 L40.5625,264.9473 L40.1719,264.9473 Q39.5625,264.9473 39.2969,264.7129 Q39.0313,264.4785 39.0313,264.0879 Q39.0313,263.7129 39.2969,263.4785 Q39.5625,263.2441 40.1719,263.2441 L42.4531,263.2441 Q43.0625,263.2441 43.3281,263.4785 Q43.5938,263.7129 43.5938,264.0879 Q43.5938,264.5566 43.1875,264.8223 Q43,264.9473 42.4063,264.9473 L38.9219,273.3066 L37.2813,273.3066 L33.7969,264.9473 Q33.2031,264.9473 33.0156,264.8223 Q32.6094,264.5566 32.6094,264.0879 Q32.6094,263.7129 32.875,263.4785 Q33.1406,263.2441 33.75,263.2441 L36.0469,263.2441 Q36.6563,263.2441 36.9063,263.4785 Q37.1719,263.7129 37.1719,264.0879 Q37.1719,264.4785 36.9063,264.7129 Q36.6563,264.9473 36.0469,264.9473 L35.6406,264.9473 L38.0938,270.8223 Z " fill="#000000"/><text fill="#000000" font-family="sans-serif" font-size="12" font-style="italic" lengthAdjust="spacing" textLength="81" x="49.5" y="263.2148">&#171;value object&#187;</text><text fill="#000000" font-family="sans-serif" font-size="14" lengthAdjust="spacing" textLength="34" x="73" y="281.334">Code</text><line style="stroke:#181818;stroke-width:0.5;" x1="23.5" x2="130.5" y1="289.8477" y2="289.8477"/></g><!--class Floor--><g id="elem_Floor"><rect codeLine="13" fill="#F1F1F1" height="71.2031" id="Floor" rx="2.5" ry="2.5" style="stroke:#181818;stroke-width:0.5;" width="71" x="201.5" y="377.2656"/><ellipse cx="216.5" cy="399.5566" fill="#ADD1B2" rx="11" ry="11" style="stroke:#181818;stroke-width:1.0;"/><path d="M215.3594,400.3535 L215.3594,402.8535 L219.6875,402.8535 L219.6875,401.9316 Q219.6875,401.3223 219.9219,401.0566 Q220.1719,400.791 220.5469,400.791 Q220.9219,400.791 221.1563,401.0566 Q221.3906,401.3223 221.3906,401.9316 L221.3906,404.5566 L213.3906,404.5566 Q212.7656,404.5566 212.5,404.3223 Q212.25,404.0879 212.25,403.6973 Q212.25,403.3223 212.5156,403.0879 Q212.7813,402.8535 213.3906,402.8535 L213.6563,402.8535 L213.6563,396.1973 L213.3906,396.1973 Q212.7656,396.1973 212.5,395.9629 Q212.25,395.7285 212.25,395.3379 Q212.25,394.9629 212.5,394.7285 Q212.7656,394.4941 213.3906,394.4941 L221.0156,394.4941 L221.0156,397.0879 Q221.0156,397.6973 220.7813,397.9629 Q220.5625,398.2129 220.1719,398.2129 Q219.7969,398.2129 219.5625,397.9629 Q219.3281,397.6973 219.3281,397.0879 L219.3281,396.1973 L215.3594,396.1973 L215.3594,398.6504 L216.8438,398.6504 Q216.8438,397.9941 216.9688,397.8066 Q217.2344,397.4004 217.7031,397.4004 Q218.0781,397.4004 218.3125,397.666 Q218.5469,397.916 218.5469,398.5254 L218.5469,400.4941 Q218.5469,401.041 218.4219,401.2285 Q218.1563,401.6191 217.7031,401.6191 Q217.2344,401.6191 216.9688,401.2129 Q216.8438,401.0254 216.8438,400.3535 L215.3594,400.3535 Z " fill="#000000"/><text fill="#000000" font-family="sans-serif" font-size="12" font-style="italic" lengthAdjust="spacing" textLength="43" x="228.5" y="395.2148">&#171;entity&#187;</text><text fill="#000000" font-family="sans-serif" font-size="14" lengthAdjust="spacing" textLength="33" x="233.5" y="413.334">Floor</text><line style="stroke:#181818;stroke-width:0.5;" x1="202.5" x2="271.5" y1="421.8477" y2="421.8477"/><text fill="#000000" font-family="sans-serif" font-size="14" lengthAdjust="spacing" textLength="48" x="207.5" y="440.9551">number</text></g><!--class Elevator--><g id="elem_Elevator"><rect codeLine="17" fill="#F1F1F1" height="52.582" id="Elevator" rx="2.5" ry="2.5" style="stroke:#181818;stroke-width:0.5;" width="84" x="295" y="245.2656"/><ellipse cx="310" cy="267.5566" fill="#ADD1B2" rx="11" ry="11" style="stroke:#181818;stroke-width:1.0;"/><path d="M308.8594,268.3535 L308.8594,270.8535 L313.1875,270.8535 L313.1875,269.9316 Q313.1875,269.3223 313.4219,269.0566 Q313.6719,268.791 314.0469,268.791 Q314.4219,268.791 314.6563,269.0566 Q314.8906,269.3223 314.8906,269.9316 L314.8906,272.5566 L306.8906,272.5566 Q306.2656,272.5566 306,272.3223 Q305.75,272.0879 305.75,271.6973 Q305.75,271.3223 306.0156,271.0879 Q306.2813,270.8535 306.8906,270.8535 L307.1563,270.8535 L307.1563,264.1973 L306.8906,264.1973 Q306.2656,264.1973 306,263.9629 Q305.75,263.7285 305.75,263.3379 Q305.75,262.9629 306,262.7285 Q306.2656,262.4941 306.8906,262.4941 L314.5156,262.4941 L314.5156,265.0879 Q314.5156,265.6973 314.2813,265.9629 Q314.0625,266.2129 313.6719,266.2129 Q313.2969,266.2129 313.0625,265.9629 Q312.8281,265.6973 312.8281,265.0879 L312.8281,264.1973 L308.8594,264.1973 L308.8594,266.6504 L310.3438,266.6504 Q310.3438,265.9941 310.4688,265.8066 Q310.7344,265.4004 311.2031,265.4004 Q311.5781,265.4004 311.8125,265.666 Q312.0469,265.916 312.0469,266.5254 L312.0469,268.4941 Q312.0469,269.041 311.9219,269.2285 Q311.6563,269.6191 311.2031,269.6191 Q310.7344,269.6191 310.4688,269.2129 Q310.3438,269.0254 310.3438,268.3535 L308.8594,268.3535 Z " fill="#000000"/><text fill="#000000" font-family="sans-serif" font-size="12" font-style="italic" lengthAdjust="spacing" textLength="43" x="328.5" y="263.2148">&#171;entity&#187;</text><text fill="#000000" font-family="sans-serif" font-size="14" lengthAdjust="spacing" textLength="52" x="324" y="281.334">Elevator</text><line style="stroke:#181818;stroke-width:0.5;" x1="296" x2="378" y1="289.8477" y2="289.8477"/></g><!--class Description--><g id="elem_Description"><rect codeLine="18" fill="#F1F1F1" height="52.582" id="Description" rx="2.5" ry="2.5" style="stroke:#181818;stroke-width:0.5;" width="109" x="139.5" y="105.2656"/><ellipse cx="154.5" cy="127.5566" fill="#FF8B40" rx="11" ry="11" style="stroke:#181818;stroke-width:1.0;"/><path d="M155.0938,130.8223 L157.5625,124.9473 L157.1719,124.9473 Q156.5625,124.9473 156.2969,124.7129 Q156.0313,124.4785 156.0313,124.0879 Q156.0313,123.7129 156.2969,123.4785 Q156.5625,123.2441 157.1719,123.2441 L159.4531,123.2441 Q160.0625,123.2441 160.3281,123.4785 Q160.5938,123.7129 160.5938,124.0879 Q160.5938,124.5566 160.1875,124.8223 Q160,124.9473 159.4063,124.9473 L155.9219,133.3066 L154.2813,133.3066 L150.7969,124.9473 Q150.2031,124.9473 150.0156,124.8223 Q149.6094,124.5566 149.6094,124.0879 Q149.6094,123.7129 149.875,123.4785 Q150.1406,123.2441 150.75,123.2441 L153.0469,123.2441 Q153.6563,123.2441 153.9063,123.4785 Q154.1719,123.7129 154.1719,124.0879 Q154.1719,124.4785 153.9063,124.7129 Q153.6563,124.9473 153.0469,124.9473 L152.6406,124.9473 L155.0938,130.8223 Z " fill="#000000"/><text fill="#000000" font-family="sans-serif" font-size="12" font-style="italic" lengthAdjust="spacing" textLength="81" x="166.5" y="123.2148">&#171;value object&#187;</text><text fill="#000000" font-family="sans-serif" font-size="14" lengthAdjust="spacing" textLength="71" x="171.5" y="141.334">Description</text><line style="stroke:#181818;stroke-width:0.5;" x1="140.5" x2="247.5" y1="149.8477" y2="149.8477"/></g><!--class ElevatorBrand--><g id="elem_ElevatorBrand"><rect codeLine="19" fill="#F1F1F1" height="52.582" id="ElevatorBrand" rx="2.5" ry="2.5" style="stroke:#181818;stroke-width:0.5;" width="122" x="284" y="105.2656"/><ellipse cx="299" cy="127.5566" fill="#FF8B40" rx="11" ry="11" style="stroke:#181818;stroke-width:1.0;"/><path d="M299.5938,130.8223 L302.0625,124.9473 L301.6719,124.9473 Q301.0625,124.9473 300.7969,124.7129 Q300.5313,124.4785 300.5313,124.0879 Q300.5313,123.7129 300.7969,123.4785 Q301.0625,123.2441 301.6719,123.2441 L303.9531,123.2441 Q304.5625,123.2441 304.8281,123.4785 Q305.0938,123.7129 305.0938,124.0879 Q305.0938,124.5566 304.6875,124.8223 Q304.5,124.9473 303.9063,124.9473 L300.4219,133.3066 L298.7813,133.3066 L295.2969,124.9473 Q294.7031,124.9473 294.5156,124.8223 Q294.1094,124.5566 294.1094,124.0879 Q294.1094,123.7129 294.375,123.4785 Q294.6406,123.2441 295.25,123.2441 L297.5469,123.2441 Q298.1563,123.2441 298.4063,123.4785 Q298.6719,123.7129 298.6719,124.0879 Q298.6719,124.4785 298.4063,124.7129 Q298.1563,124.9473 297.5469,124.9473 L297.1406,124.9473 L299.5938,130.8223 Z " fill="#000000"/><text fill="#000000" font-family="sans-serif" font-size="12" font-style="italic" lengthAdjust="spacing" textLength="81" x="317.5" y="123.2148">&#171;value object&#187;</text><text fill="#000000" font-family="sans-serif" font-size="14" lengthAdjust="spacing" textLength="90" x="313" y="141.334">ElevatorBrand</text><line style="stroke:#181818;stroke-width:0.5;" x1="285" x2="405" y1="149.8477" y2="149.8477"/></g><!--class ElevatorModel--><g id="elem_ElevatorModel"><rect codeLine="20" fill="#F1F1F1" height="52.582" id="ElevatorModel" rx="2.5" ry="2.5" style="stroke:#181818;stroke-width:0.5;" width="122" x="441" y="105.2656"/><ellipse cx="456" cy="127.5566" fill="#FF8B40" rx="11" ry="11" style="stroke:#181818;stroke-width:1.0;"/><path d="M456.5938,130.8223 L459.0625,124.9473 L458.6719,124.9473 Q458.0625,124.9473 457.7969,124.7129 Q457.5313,124.4785 457.5313,124.0879 Q457.5313,123.7129 457.7969,123.4785 Q458.0625,123.2441 458.6719,123.2441 L460.9531,123.2441 Q461.5625,123.2441 461.8281,123.4785 Q462.0938,123.7129 462.0938,124.0879 Q462.0938,124.5566 461.6875,124.8223 Q461.5,124.9473 460.9063,124.9473 L457.4219,133.3066 L455.7813,133.3066 L452.2969,124.9473 Q451.7031,124.9473 451.5156,124.8223 Q451.1094,124.5566 451.1094,124.0879 Q451.1094,123.7129 451.375,123.4785 Q451.6406,123.2441 452.25,123.2441 L454.5469,123.2441 Q455.1563,123.2441 455.4063,123.4785 Q455.6719,123.7129 455.6719,124.0879 Q455.6719,124.4785 455.4063,124.7129 Q455.1563,124.9473 454.5469,124.9473 L454.1406,124.9473 L456.5938,130.8223 Z " fill="#000000"/><text fill="#000000" font-family="sans-serif" font-size="12" font-style="italic" lengthAdjust="spacing" textLength="81" x="474.5" y="123.2148">&#171;value object&#187;</text><text fill="#000000" font-family="sans-serif" font-size="14" lengthAdjust="spacing" textLength="90" x="470" y="141.334">ElevatorModel</text><line style="stroke:#181818;stroke-width:0.5;" x1="442" x2="562" y1="149.8477" y2="149.8477"/></g><!--class ElevatorSerialNumber--><g id="elem_ElevatorSerialNumber"><rect codeLine="21" fill="#F1F1F1" height="52.582" id="ElevatorSerialNumber" rx="2.5" ry="2.5" style="stroke:#181818;stroke-width:0.5;" width="169" x="598.5" y="105.2656"/><ellipse cx="613.5" cy="127.5566" fill="#FF8B40" rx="11" ry="11" style="stroke:#181818;stroke-width:1.0;"/><path d="M614.0938,130.8223 L616.5625,124.9473 L616.1719,124.9473 Q615.5625,124.9473 615.2969,124.7129 Q615.0313,124.4785 615.0313,124.0879 Q615.0313,123.7129 615.2969,123.4785 Q615.5625,123.2441 616.1719,123.2441 L618.4531,123.2441 Q619.0625,123.2441 619.3281,123.4785 Q619.5938,123.7129 619.5938,124.0879 Q619.5938,124.5566 619.1875,124.8223 Q619,124.9473 618.4063,124.9473 L614.9219,133.3066 L613.2813,133.3066 L609.7969,124.9473 Q609.2031,124.9473 609.0156,124.8223 Q608.6094,124.5566 608.6094,124.0879 Q608.6094,123.7129 608.875,123.4785 Q609.1406,123.2441 609.75,123.2441 L612.0469,123.2441 Q612.6563,123.2441 612.9063,123.4785 Q613.1719,123.7129 613.1719,124.0879 Q613.1719,124.4785 612.9063,124.7129 Q612.6563,124.9473 612.0469,124.9473 L611.6406,124.9473 L614.0938,130.8223 Z " fill="#000000"/><text fill="#000000" font-family="sans-serif" font-size="12" font-style="italic" lengthAdjust="spacing" textLength="81" x="655.5" y="123.2148">&#171;value object&#187;</text><text fill="#000000" font-family="sans-serif" font-size="14" lengthAdjust="spacing" textLength="137" x="627.5" y="141.334">ElevatorSerialNumber</text><line style="stroke:#181818;stroke-width:0.5;" x1="599.5" x2="766.5" y1="149.8477" y2="149.8477"/></g><!--link Building to Code--><g id="link_Building_Code"><path codeLine="24" d="M66.42,166.5256 C68.7,188.9856 71.67,218.2456 73.88,240.0456 " fill="none" id="Building-to-Code" style="stroke:#181818;stroke-width:1.0;"/><polygon fill="#181818" points="74.4,245.1456,77.482,235.7914,73.9011,240.1706,69.5219,236.5897,74.4,245.1456" style="stroke:#181818;stroke-width:1.0;"/></g><!--reverse link Description to Elevator--><g id="link_Description_Elevator"><path codeLine="26" d="M253.44,160.2056 C283.31,174.4756 314.2,190.1956 319,196.2656 C329.89,210.0456 334.34,229.4256 336.09,244.9556 " fill="none" id="Description-backto-Elevator" style="stroke:#181818;stroke-width:1.0;"/><polygon fill="#181818" points="248.66,157.9256,255.0559,165.4151,253.1714,160.0814,258.5051,158.1969,248.66,157.9256" style="stroke:#181818;stroke-width:1.0;"/></g><!--reverse link ElevatorBrand to Elevator--><g id="link_ElevatorBrand_Elevator"><path codeLine="27" d="M343.22,163.4656 C341.8,187.8956 339.84,221.7056 338.51,244.8056 " fill="none" id="ElevatorBrand-backto-Elevator" style="stroke:#181818;stroke-width:1.0;"/><polygon fill="#181818" points="343.51,158.3956,338.9767,167.1391,343.2097,163.3866,346.9622,167.6196,343.51,158.3956" style="stroke:#181818;stroke-width:1.0;"/></g><!--reverse link ElevatorModel to Elevator--><g id="link_ElevatorModel_Elevator"><path codeLine="28" d="M467.46,161.6556 C438.01,186.2856 396.07,221.3556 367.76,245.0356 " fill="none" id="ElevatorModel-backto-Elevator" style="stroke:#181818;stroke-width:1.0;"/><polygon fill="#181818" points="471.35,158.3956,461.8852,161.119,467.5206,161.6106,467.0291,167.246,471.35,158.3956" style="stroke:#181818;stroke-width:1.0;"/></g><!--reverse link ElevatorSerialNumber to Elevator--><g id="link_ElevatorSerialNumber_Elevator"><path codeLine="29" d="M613.75,160.3856 C543.64,188.3456 437.5,230.6856 379.14,253.9556 " fill="none" id="ElevatorSerialNumber-backto-Elevator" style="stroke:#181818;stroke-width:1.0;"/><polygon fill="#181818" points="618.73,158.3956,608.8881,158.0242,614.0876,160.2526,611.8593,165.452,618.73,158.3956" style="stroke:#181818;stroke-width:1.0;"/></g><!--link Building to Floor--><g id="link_Building_Floor"><path codeLine="31" d="M91.27,166.6456 C108.85,188.4356 131.37,217.7256 149,245.2656 C177.03,289.0456 204.19,342.6756 220.74,377.0256 " fill="none" id="Building-Floor" style="stroke:#181818;stroke-width:1.0;"/><polygon fill="#000000" points="186.6206,276.1694,184.3828,266.9258,179.377,270.0065,186.6206,276.1694" style="stroke:#000000;stroke-width:1.0;"/><text fill="#000000" font-family="sans-serif" font-size="13" lengthAdjust="spacing" textLength="21" x="193" y="277.2939">has</text><text fill="#000000" font-family="sans-serif" font-size="13" lengthAdjust="spacing" textLength="7" x="88.3725" y="187.9207">1</text><text fill="#000000" font-family="sans-serif" font-size="13" lengthAdjust="spacing" textLength="5" x="212.2811" y="365.9053">*</text></g><!--link Building to Elevator--><g id="link_Building_Elevator"><path codeLine="32" d="M104.28,157.8156 C110.12,160.8756 116.14,163.7956 122,166.2656 C166.34,184.9356 182.39,175.9456 226,196.2656 C254.19,209.3956 283.28,229.1956 304.61,245.0856 " fill="none" id="Building-Elevator" style="stroke:#181818;stroke-width:1.0;"/><polygon fill="#000000" points="267.5839,207.908,260.4653,201.6012,258.1178,206.99,267.5839,207.908" style="stroke:#000000;stroke-width:1.0;"/><text fill="#000000" font-family="sans-serif" font-size="13" lengthAdjust="spacing" textLength="21" x="272" y="211.2939">has</text><text fill="#000000" font-family="sans-serif" font-size="13" lengthAdjust="spacing" textLength="7" x="111.9766" y="157.9246">1</text><text fill="#000000" font-family="sans-serif" font-size="13" lengthAdjust="spacing" textLength="7" x="289.3104" y="234.0605">1</text></g><!--link Elevator to Floor--><g id="link_Elevator_Floor"><path codeLine="34" d="M318.43,298.5856 C302.5,320.7256 279.41,352.8156 261.89,377.1656 " fill="none" id="Elevator-Floor" style="stroke:#181818;stroke-width:1.0;"/><polygon fill="#000000" points="297.0798,341.9697,304.7481,336.3441,299.9769,332.9112,297.0798,341.9697" style="stroke:#000000;stroke-width:1.0;"/><text fill="#000000" font-family="sans-serif" font-size="13" lengthAdjust="spacing" textLength="37" x="309" y="343.2939">serves</text><text fill="#000000" font-family="sans-serif" font-size="13" lengthAdjust="spacing" textLength="7" x="306.8781" y="319.9718">1</text><text fill="#000000" font-family="sans-serif" font-size="13" lengthAdjust="spacing" textLength="5" x="261.0182" y="366.0711">*</text></g><!--SRC=[bL7BJiCm4BpxArRXm4D4X0eaG9ObGed40IuLtDrabPewTkH74I3-7TUbQG9KLNsnl3ipExEsSw5QRdW3JZY9XLPk8ZuGHfSa5e1wzZo1qNK6AOnrmuM2Kd9hqT8ppmYPYGgXGJVJbIMsKukOM-UCc7g73wLMKJOZv33tGbP2rS3hsc3D7PAMbtDU8oIKTaN6O8rCu9D0EAY2f_Uk39IkAW5AgT7QCHPnSJZSwU2CqgENKpWeYgly8Zk61PSUGKzViLo2-wg5rDhq9LSpbqVvPeecFhy6d7k92-u6j9w1CThIYDO9hNRus73MYhdXgjgRzHWYoxrP4pI2owSOSWSvnE-sdrRwJQKixfcGRXMfRqEnb_rtQn1nMpCcsTRi6-uPIiuJI5D8JfAVpxo16RV0_YB2rKclGPjX_-XOD0jSehu1]--></g></svg>