<?xml version="1.0" encoding="UTF-8" standalone="no"?><svg xmlns="http://www.w3.org/2000/svg" xmlns:xlink="http://www.w3.org/1999/xlink" contentStyleType="text/css" height="996px" preserveAspectRatio="none" style="width:1740px;height:996px;background:#FFFFFF;" version="1.1" viewBox="0 0 1740 996" width="1740px" zoomAndPan="magnify"><defs/><g><rect fill="none" height="27.6094" id="_title" style="stroke:none;stroke-width:1.0;" width="203" x="761.5" y="5"/><text fill="#000000" font-family="sans-serif" font-size="14" font-weight="bold" lengthAdjust="spacing" textLength="193" x="766.5" y="24.5332">Class Diagram (CD) - US 310</text><!--MD5=[6bd86dffd8efbe6a9811dafe8ae610b8]
class buildingRoute--><g id="elem_buildingRoute"><rect codeLine="5" fill="#F1F1F1" height="58.7031" id="buildingRoute" rx="2.5" ry="2.5" style="stroke:#181818;stroke-width:0.5;" width="119" x="878" y="45.6094"/><ellipse cx="893" cy="66.9609" fill="#ADD1B2" rx="11" ry="11" style="stroke:#181818;stroke-width:1.0;"/><path d="M895.7656,62.8359 Q895.9219,62.6172 896.1094,62.5078 Q896.2969,62.3984 896.5156,62.3984 Q896.8906,62.3984 897.125,62.6641 Q897.3594,62.9141 897.3594,63.5234 L897.3594,64.9766 Q897.3594,65.5859 897.125,65.8516 Q896.8906,66.1172 896.5156,66.1172 Q896.1719,66.1172 895.9688,65.9141 Q895.7656,65.7266 895.6563,65.2109 Q895.6094,64.8516 895.4219,64.6641 Q895.0938,64.2891 894.4844,64.0703 Q893.875,63.8516 893.25,63.8516 Q892.4844,63.8516 891.8438,64.1797 Q891.2188,64.5078 890.7188,65.2578 Q890.2344,66.0078 890.2344,67.0391 L890.2344,68.1328 Q890.2344,69.3672 891.125,70.1953 Q892.0156,71.0078 893.6094,71.0078 Q894.5469,71.0078 895.2031,70.7578 Q895.5938,70.6016 896.0156,70.1641 Q896.2813,69.8984 896.4219,69.8203 Q896.5781,69.7422 896.7813,69.7422 Q897.1094,69.7422 897.3594,70.0078 Q897.625,70.2578 897.625,70.6016 Q897.625,70.9453 897.2813,71.3516 Q896.7813,71.9297 895.9844,72.2578 Q894.9063,72.7109 893.6094,72.7109 Q892.0938,72.7109 890.8906,72.0859 Q889.9063,71.5859 889.2188,70.5234 Q888.5313,69.4453 888.5313,68.1641 L888.5313,67.0078 Q888.5313,65.6797 889.1406,64.5391 Q889.7656,63.3828 890.8594,62.7734 Q891.9531,62.1484 893.1875,62.1484 Q893.9219,62.1484 894.5625,62.3203 Q895.2188,62.4766 895.7656,62.8359 Z " fill="#000000"/><text fill="#000000" font-family="sans-serif" font-size="12" font-style="italic" lengthAdjust="spacing" textLength="40" x="930.5" y="63.0664">«Web»</text><text fill="#000000" font-family="sans-serif" font-size="14" lengthAdjust="spacing" textLength="87" x="907" y="80.2363">buildingRoute</text><line style="stroke:#181818;stroke-width:0.5;" x1="879" x2="996" y1="88.3125" y2="88.3125"/><line style="stroke:#181818;stroke-width:0.5;" x1="879" x2="996" y1="96.3125" y2="96.3125"/></g><!--MD5=[8a5864c36bf6f3efaf7643ea6f31dab2]
class buildingController--><g id="elem_buildingController"><rect codeLine="8" fill="#F1F1F1" height="93.9219" id="buildingController" rx="2.5" ry="2.5" style="stroke:#181818;stroke-width:0.5;" width="188" x="843.5" y="182.6094"/><ellipse cx="878.75" cy="203.9609" fill="#ADD1B2" rx="11" ry="11" style="stroke:#181818;stroke-width:1.0;"/><path d="M881.5156,199.8359 Q881.6719,199.6172 881.8594,199.5078 Q882.0469,199.3984 882.2656,199.3984 Q882.6406,199.3984 882.875,199.6641 Q883.1094,199.9141 883.1094,200.5234 L883.1094,201.9766 Q883.1094,202.5859 882.875,202.8516 Q882.6406,203.1172 882.2656,203.1172 Q881.9219,203.1172 881.7188,202.9141 Q881.5156,202.7266 881.4063,202.2109 Q881.3594,201.8516 881.1719,201.6641 Q880.8438,201.2891 880.2344,201.0703 Q879.625,200.8516 879,200.8516 Q878.2344,200.8516 877.5938,201.1797 Q876.9688,201.5078 876.4688,202.2578 Q875.9844,203.0078 875.9844,204.0391 L875.9844,205.1328 Q875.9844,206.3672 876.875,207.1953 Q877.7656,208.0078 879.3594,208.0078 Q880.2969,208.0078 880.9531,207.7578 Q881.3438,207.6016 881.7656,207.1641 Q882.0313,206.8984 882.1719,206.8203 Q882.3281,206.7422 882.5313,206.7422 Q882.8594,206.7422 883.1094,207.0078 Q883.375,207.2578 883.375,207.6016 Q883.375,207.9453 883.0313,208.3516 Q882.5313,208.9297 881.7344,209.2578 Q880.6563,209.7109 879.3594,209.7109 Q877.8438,209.7109 876.6406,209.0859 Q875.6563,208.5859 874.9688,207.5234 Q874.2813,206.4453 874.2813,205.1641 L874.2813,204.0078 Q874.2813,202.6797 874.8906,201.5391 Q875.5156,200.3828 876.6094,199.7734 Q877.7031,199.1484 878.9375,199.1484 Q879.6719,199.1484 880.3125,199.3203 Q880.9688,199.4766 881.5156,199.8359 Z " fill="#000000"/><text fill="#000000" font-family="sans-serif" font-size="12" font-style="italic" lengthAdjust="spacing" textLength="74" x="915.75" y="200.0664">«Controllers»</text><text fill="#000000" font-family="sans-serif" font-size="14" lengthAdjust="spacing" textLength="111" x="897.25" y="217.2363">buildingController</text><line style="stroke:#181818;stroke-width:0.5;" x1="844.5" x2="1030.5" y1="225.3125" y2="225.3125"/><line style="stroke:#181818;stroke-width:0.5;" x1="844.5" x2="1030.5" y1="233.3125" y2="233.3125"/><ellipse cx="854.5" cy="247.6172" fill="#84BE84" rx="3" ry="3" style="stroke:#038048;stroke-width:1.0;"/><text fill="#000000" font-family="sans-serif" font-size="14" lengthAdjust="spacing" textLength="162" x="863.5" y="251.8457">createRoom(json : String)</text><rect fill="#F24D5C" height="6" style="stroke:#C82930;stroke-width:1.0;" width="6" x="851.5" y="262.2266"/><text fill="#000000" font-family="sans-serif" font-size="14" lengthAdjust="spacing" textLength="134" x="863.5" y="269.4551">validate(json : String)</text></g><!--MD5=[68dbd1f25cfbb5523dc5716471924218]
class buildingDTO--><g id="elem_buildingDTO"><rect codeLine="13" fill="#F1F1F1" height="58.7031" id="buildingDTO" rx="2.5" ry="2.5" style="stroke:#181818;stroke-width:0.5;" width="111" x="700" y="579.6094"/><ellipse cx="715" cy="600.9609" fill="#ADD1B2" rx="11" ry="11" style="stroke:#181818;stroke-width:1.0;"/><path d="M717.7656,596.8359 Q717.9219,596.6172 718.1094,596.5078 Q718.2969,596.3984 718.5156,596.3984 Q718.8906,596.3984 719.125,596.6641 Q719.3594,596.9141 719.3594,597.5234 L719.3594,598.9766 Q719.3594,599.5859 719.125,599.8516 Q718.8906,600.1172 718.5156,600.1172 Q718.1719,600.1172 717.9688,599.9141 Q717.7656,599.7266 717.6563,599.2109 Q717.6094,598.8516 717.4219,598.6641 Q717.0938,598.2891 716.4844,598.0703 Q715.875,597.8516 715.25,597.8516 Q714.4844,597.8516 713.8438,598.1797 Q713.2188,598.5078 712.7188,599.2578 Q712.2344,600.0078 712.2344,601.0391 L712.2344,602.1328 Q712.2344,603.3672 713.125,604.1953 Q714.0156,605.0078 715.6094,605.0078 Q716.5469,605.0078 717.2031,604.7578 Q717.5938,604.6016 718.0156,604.1641 Q718.2813,603.8984 718.4219,603.8203 Q718.5781,603.7422 718.7813,603.7422 Q719.1094,603.7422 719.3594,604.0078 Q719.625,604.2578 719.625,604.6016 Q719.625,604.9453 719.2813,605.3516 Q718.7813,605.9297 717.9844,606.2578 Q716.9063,606.7109 715.6094,606.7109 Q714.0938,606.7109 712.8906,606.0859 Q711.9063,605.5859 711.2188,604.5234 Q710.5313,603.4453 710.5313,602.1641 L710.5313,601.0078 Q710.5313,599.6797 711.1406,598.5391 Q711.7656,597.3828 712.8594,596.7734 Q713.9531,596.1484 715.1875,596.1484 Q715.9219,596.1484 716.5625,596.3203 Q717.2188,596.4766 717.7656,596.8359 Z " fill="#000000"/><text fill="#000000" font-family="sans-serif" font-size="12" font-style="italic" lengthAdjust="spacing" textLength="39" x="749" y="597.0664">«DTO»</text><text fill="#000000" font-family="sans-serif" font-size="14" lengthAdjust="spacing" textLength="79" x="729" y="614.2363">buildingDTO</text><line style="stroke:#181818;stroke-width:0.5;" x1="701" x2="810" y1="622.3125" y2="622.3125"/><line style="stroke:#181818;stroke-width:0.5;" x1="701" x2="810" y1="630.3125" y2="630.3125"/></g><!--MD5=[54879d3209366a333e6fd626105f3e24]
class roomDTO--><g id="elem_roomDTO"><rect codeLine="16" fill="#F1F1F1" height="58.7031" id="roomDTO" rx="2.5" ry="2.5" style="stroke:#181818;stroke-width:0.5;" width="94" x="37.5" y="579.6094"/><ellipse cx="52.5" cy="600.9609" fill="#ADD1B2" rx="11" ry="11" style="stroke:#181818;stroke-width:1.0;"/><path d="M55.2656,596.8359 Q55.4219,596.6172 55.6094,596.5078 Q55.7969,596.3984 56.0156,596.3984 Q56.3906,596.3984 56.625,596.6641 Q56.8594,596.9141 56.8594,597.5234 L56.8594,598.9766 Q56.8594,599.5859 56.625,599.8516 Q56.3906,600.1172 56.0156,600.1172 Q55.6719,600.1172 55.4688,599.9141 Q55.2656,599.7266 55.1563,599.2109 Q55.1094,598.8516 54.9219,598.6641 Q54.5938,598.2891 53.9844,598.0703 Q53.375,597.8516 52.75,597.8516 Q51.9844,597.8516 51.3438,598.1797 Q50.7188,598.5078 50.2188,599.2578 Q49.7344,600.0078 49.7344,601.0391 L49.7344,602.1328 Q49.7344,603.3672 50.625,604.1953 Q51.5156,605.0078 53.1094,605.0078 Q54.0469,605.0078 54.7031,604.7578 Q55.0938,604.6016 55.5156,604.1641 Q55.7813,603.8984 55.9219,603.8203 Q56.0781,603.7422 56.2813,603.7422 Q56.6094,603.7422 56.8594,604.0078 Q57.125,604.2578 57.125,604.6016 Q57.125,604.9453 56.7813,605.3516 Q56.2813,605.9297 55.4844,606.2578 Q54.4063,606.7109 53.1094,606.7109 Q51.5938,606.7109 50.3906,606.0859 Q49.4063,605.5859 48.7188,604.5234 Q48.0313,603.4453 48.0313,602.1641 L48.0313,601.0078 Q48.0313,599.6797 48.6406,598.5391 Q49.2656,597.3828 50.3594,596.7734 Q51.4531,596.1484 52.6875,596.1484 Q53.4219,596.1484 54.0625,596.3203 Q54.7188,596.4766 55.2656,596.8359 Z " fill="#000000"/><text fill="#000000" font-family="sans-serif" font-size="12" font-style="italic" lengthAdjust="spacing" textLength="39" x="78" y="597.0664">«DTO»</text><text fill="#000000" font-family="sans-serif" font-size="14" lengthAdjust="spacing" textLength="62" x="66.5" y="614.2363">roomDTO</text><line style="stroke:#181818;stroke-width:0.5;" x1="38.5" x2="130.5" y1="622.3125" y2="622.3125"/><line style="stroke:#181818;stroke-width:0.5;" x1="38.5" x2="130.5" y1="630.3125" y2="630.3125"/></g><!--MD5=[c70844e95244038ff9d9ed6df1f25710]
class buildingService--><g id="elem_buildingService"><rect codeLine="19" fill="#F1F1F1" height="76.3125" id="buildingService" rx="2.5" ry="2.5" style="stroke:#181818;stroke-width:0.5;" width="249" x="551" y="372.6094"/><ellipse cx="623.25" cy="393.9609" fill="#ADD1B2" rx="11" ry="11" style="stroke:#181818;stroke-width:1.0;"/><path d="M626.0156,389.8359 Q626.1719,389.6172 626.3594,389.5078 Q626.5469,389.3984 626.7656,389.3984 Q627.1406,389.3984 627.375,389.6641 Q627.6094,389.9141 627.6094,390.5234 L627.6094,391.9766 Q627.6094,392.5859 627.375,392.8516 Q627.1406,393.1172 626.7656,393.1172 Q626.4219,393.1172 626.2188,392.9141 Q626.0156,392.7266 625.9063,392.2109 Q625.8594,391.8516 625.6719,391.6641 Q625.3438,391.2891 624.7344,391.0703 Q624.125,390.8516 623.5,390.8516 Q622.7344,390.8516 622.0938,391.1797 Q621.4688,391.5078 620.9688,392.2578 Q620.4844,393.0078 620.4844,394.0391 L620.4844,395.1328 Q620.4844,396.3672 621.375,397.1953 Q622.2656,398.0078 623.8594,398.0078 Q624.7969,398.0078 625.4531,397.7578 Q625.8438,397.6016 626.2656,397.1641 Q626.5313,396.8984 626.6719,396.8203 Q626.8281,396.7422 627.0313,396.7422 Q627.3594,396.7422 627.6094,397.0078 Q627.875,397.2578 627.875,397.6016 Q627.875,397.9453 627.5313,398.3516 Q627.0313,398.9297 626.2344,399.2578 Q625.1563,399.7109 623.8594,399.7109 Q622.3438,399.7109 621.1406,399.0859 Q620.1563,398.5859 619.4688,397.5234 Q618.7813,396.4453 618.7813,395.1641 L618.7813,394.0078 Q618.7813,392.6797 619.3906,391.5391 Q620.0156,390.3828 621.1094,389.7734 Q622.2031,389.1484 623.4375,389.1484 Q624.1719,389.1484 624.8125,389.3203 Q625.4688,389.4766 626.0156,389.8359 Z " fill="#000000"/><text fill="#000000" font-family="sans-serif" font-size="12" font-style="italic" lengthAdjust="spacing" textLength="74" x="654.75" y="390.0664">«Use Cases»</text><text fill="#000000" font-family="sans-serif" font-size="14" lengthAdjust="spacing" textLength="96" x="643.75" y="407.2363">buildingService</text><line style="stroke:#181818;stroke-width:0.5;" x1="552" x2="799" y1="415.3125" y2="415.3125"/><line style="stroke:#181818;stroke-width:0.5;" x1="552" x2="799" y1="423.3125" y2="423.3125"/><ellipse cx="562" cy="437.6172" fill="#84BE84" rx="3" ry="3" style="stroke:#038048;stroke-width:1.0;"/><text fill="#000000" font-family="sans-serif" font-size="14" lengthAdjust="spacing" textLength="223" x="571" y="441.8457">createRoom(roomDTO : roomDTO)</text></g><!--MD5=[e7e1189e35f0169a5f7b61a7b29f52ae]
class buildingRepo--><g id="elem_buildingRepo"><rect codeLine="23" fill="#F1F1F1" height="76.3125" id="buildingRepo" rx="2.5" ry="2.5" style="stroke:#181818;stroke-width:0.5;" width="176" x="989.5" y="571.1094"/><ellipse cx="1031.95" cy="592.4609" fill="#ADD1B2" rx="11" ry="11" style="stroke:#181818;stroke-width:1.0;"/><path d="M1034.7156,588.3359 Q1034.8719,588.1172 1035.0594,588.0078 Q1035.2469,587.8984 1035.4656,587.8984 Q1035.8406,587.8984 1036.075,588.1641 Q1036.3094,588.4141 1036.3094,589.0234 L1036.3094,590.4766 Q1036.3094,591.0859 1036.075,591.3516 Q1035.8406,591.6172 1035.4656,591.6172 Q1035.1219,591.6172 1034.9188,591.4141 Q1034.7156,591.2266 1034.6063,590.7109 Q1034.5594,590.3516 1034.3719,590.1641 Q1034.0438,589.7891 1033.4344,589.5703 Q1032.825,589.3516 1032.2,589.3516 Q1031.4344,589.3516 1030.7938,589.6797 Q1030.1688,590.0078 1029.6688,590.7578 Q1029.1844,591.5078 1029.1844,592.5391 L1029.1844,593.6328 Q1029.1844,594.8672 1030.075,595.6953 Q1030.9656,596.5078 1032.5594,596.5078 Q1033.4969,596.5078 1034.1531,596.2578 Q1034.5438,596.1016 1034.9656,595.6641 Q1035.2313,595.3984 1035.3719,595.3203 Q1035.5281,595.2422 1035.7313,595.2422 Q1036.0594,595.2422 1036.3094,595.5078 Q1036.575,595.7578 1036.575,596.1016 Q1036.575,596.4453 1036.2313,596.8516 Q1035.7313,597.4297 1034.9344,597.7578 Q1033.8563,598.2109 1032.5594,598.2109 Q1031.0438,598.2109 1029.8406,597.5859 Q1028.8563,597.0859 1028.1688,596.0234 Q1027.4813,594.9453 1027.4813,593.6641 L1027.4813,592.5078 Q1027.4813,591.1797 1028.0906,590.0391 Q1028.7156,588.8828 1029.8094,588.2734 Q1030.9031,587.6484 1032.1375,587.6484 Q1032.8719,587.6484 1033.5125,587.8203 Q1034.1688,587.9766 1034.7156,588.3359 Z " fill="#000000"/><text fill="#000000" font-family="sans-serif" font-size="12" font-style="italic" lengthAdjust="spacing" textLength="67" x="1060.05" y="588.5664">«Gateways»</text><text fill="#000000" font-family="sans-serif" font-size="14" lengthAdjust="spacing" textLength="83" x="1052.05" y="605.7363">buildingRepo</text><line style="stroke:#181818;stroke-width:0.5;" x1="990.5" x2="1164.5" y1="613.8125" y2="613.8125"/><line style="stroke:#181818;stroke-width:0.5;" x1="990.5" x2="1164.5" y1="621.8125" y2="621.8125"/><ellipse cx="1000.5" cy="636.1172" fill="#84BE84" rx="3" ry="3" style="stroke:#038048;stroke-width:1.0;"/><text fill="#000000" font-family="sans-serif" font-size="14" lengthAdjust="spacing" textLength="150" x="1009.5" y="640.3457">save(building : building)</text></g><!--MD5=[3e0b9b21013ab783891d2067844f2e64]
class buildingMapper--><g id="elem_buildingMapper"><rect codeLine="27" fill="#F1F1F1" height="129.1406" id="buildingMapper" rx="2.5" ry="2.5" style="stroke:#181818;stroke-width:0.5;" width="247" x="167" y="544.6094"/><ellipse cx="237.75" cy="565.9609" fill="#ADD1B2" rx="11" ry="11" style="stroke:#181818;stroke-width:1.0;"/><path d="M240.5156,561.8359 Q240.6719,561.6172 240.8594,561.5078 Q241.0469,561.3984 241.2656,561.3984 Q241.6406,561.3984 241.875,561.6641 Q242.1094,561.9141 242.1094,562.5234 L242.1094,563.9766 Q242.1094,564.5859 241.875,564.8516 Q241.6406,565.1172 241.2656,565.1172 Q240.9219,565.1172 240.7188,564.9141 Q240.5156,564.7266 240.4063,564.2109 Q240.3594,563.8516 240.1719,563.6641 Q239.8438,563.2891 239.2344,563.0703 Q238.625,562.8516 238,562.8516 Q237.2344,562.8516 236.5938,563.1797 Q235.9688,563.5078 235.4688,564.2578 Q234.9844,565.0078 234.9844,566.0391 L234.9844,567.1328 Q234.9844,568.3672 235.875,569.1953 Q236.7656,570.0078 238.3594,570.0078 Q239.2969,570.0078 239.9531,569.7578 Q240.3438,569.6016 240.7656,569.1641 Q241.0313,568.8984 241.1719,568.8203 Q241.3281,568.7422 241.5313,568.7422 Q241.8594,568.7422 242.1094,569.0078 Q242.375,569.2578 242.375,569.6016 Q242.375,569.9453 242.0313,570.3516 Q241.5313,570.9297 240.7344,571.2578 Q239.6563,571.7109 238.3594,571.7109 Q236.8438,571.7109 235.6406,571.0859 Q234.6563,570.5859 233.9688,569.5234 Q233.2813,568.4453 233.2813,567.1641 L233.2813,566.0078 Q233.2813,564.6797 233.8906,563.5391 Q234.5156,562.3828 235.6094,561.7734 Q236.7031,561.1484 237.9375,561.1484 Q238.6719,561.1484 239.3125,561.3203 Q239.9688,561.4766 240.5156,561.8359 Z " fill="#000000"/><text fill="#000000" font-family="sans-serif" font-size="12" font-style="italic" lengthAdjust="spacing" textLength="55" x="279.25" y="562.0664">«Mapper»</text><text fill="#000000" font-family="sans-serif" font-size="14" lengthAdjust="spacing" textLength="97" x="258.25" y="579.2363">buildingMapper</text><line style="stroke:#181818;stroke-width:0.5;" x1="168" x2="413" y1="587.3125" y2="587.3125"/><line style="stroke:#181818;stroke-width:0.5;" x1="168" x2="413" y1="595.3125" y2="595.3125"/><ellipse cx="178" cy="609.6172" fill="#84BE84" rx="3" ry="3" style="stroke:#038048;stroke-width:1.0;"/><text fill="#000000" font-family="sans-serif" font-size="14" lengthAdjust="spacing" textLength="218" x="187" y="613.8457">toDTO(json : String) : buildingDTO</text><ellipse cx="178" cy="627.2266" fill="#84BE84" rx="3" ry="3" style="stroke:#038048;stroke-width:1.0;"/><text fill="#000000" font-family="sans-serif" font-size="14" lengthAdjust="spacing" textLength="206" x="187" y="631.4551">toPersistence(building : building)</text><ellipse cx="178" cy="644.8359" fill="#84BE84" rx="3" ry="3" style="stroke:#038048;stroke-width:1.0;"/><text fill="#000000" font-family="sans-serif" font-size="14" lengthAdjust="spacing" textLength="180" x="187" y="649.0645">toDomain(building : building)</text><ellipse cx="178" cy="662.4453" fill="#84BE84" rx="3" ry="3" style="stroke:#038048;stroke-width:1.0;"/><text fill="#000000" font-family="sans-serif" font-size="14" lengthAdjust="spacing" textLength="221" x="187" y="666.6738">toJson(buildingDTO : buildingDTO)</text></g><!--MD5=[a73566c9a82b23835de431e7ad197aea]
class roomMapper--><g id="elem_roomMapper"><rect codeLine="34" fill="#F1F1F1" height="111.5313" id="roomMapper" rx="2.5" ry="2.5" style="stroke:#181818;stroke-width:0.5;" width="227" x="1062" y="354.6094"/><ellipse cx="1131.25" cy="375.9609" fill="#ADD1B2" rx="11" ry="11" style="stroke:#181818;stroke-width:1.0;"/><path d="M1134.0156,371.8359 Q1134.1719,371.6172 1134.3594,371.5078 Q1134.5469,371.3984 1134.7656,371.3984 Q1135.1406,371.3984 1135.375,371.6641 Q1135.6094,371.9141 1135.6094,372.5234 L1135.6094,373.9766 Q1135.6094,374.5859 1135.375,374.8516 Q1135.1406,375.1172 1134.7656,375.1172 Q1134.4219,375.1172 1134.2188,374.9141 Q1134.0156,374.7266 1133.9063,374.2109 Q1133.8594,373.8516 1133.6719,373.6641 Q1133.3438,373.2891 1132.7344,373.0703 Q1132.125,372.8516 1131.5,372.8516 Q1130.7344,372.8516 1130.0938,373.1797 Q1129.4688,373.5078 1128.9688,374.2578 Q1128.4844,375.0078 1128.4844,376.0391 L1128.4844,377.1328 Q1128.4844,378.3672 1129.375,379.1953 Q1130.2656,380.0078 1131.8594,380.0078 Q1132.7969,380.0078 1133.4531,379.7578 Q1133.8438,379.6016 1134.2656,379.1641 Q1134.5313,378.8984 1134.6719,378.8203 Q1134.8281,378.7422 1135.0313,378.7422 Q1135.3594,378.7422 1135.6094,379.0078 Q1135.875,379.2578 1135.875,379.6016 Q1135.875,379.9453 1135.5313,380.3516 Q1135.0313,380.9297 1134.2344,381.2578 Q1133.1563,381.7109 1131.8594,381.7109 Q1130.3438,381.7109 1129.1406,381.0859 Q1128.1563,380.5859 1127.4688,379.5234 Q1126.7813,378.4453 1126.7813,377.1641 L1126.7813,376.0078 Q1126.7813,374.6797 1127.3906,373.5391 Q1128.0156,372.3828 1129.1094,371.7734 Q1130.2031,371.1484 1131.4375,371.1484 Q1132.1719,371.1484 1132.8125,371.3203 Q1133.4688,371.4766 1134.0156,371.8359 Z " fill="#000000"/><text fill="#000000" font-family="sans-serif" font-size="12" font-style="italic" lengthAdjust="spacing" textLength="55" x="1164.25" y="372.0664">«Mapper»</text><text fill="#000000" font-family="sans-serif" font-size="14" lengthAdjust="spacing" textLength="80" x="1151.75" y="389.2363">roomMapper</text><line style="stroke:#181818;stroke-width:0.5;" x1="1063" x2="1288" y1="397.3125" y2="397.3125"/><line style="stroke:#181818;stroke-width:0.5;" x1="1063" x2="1288" y1="405.3125" y2="405.3125"/><ellipse cx="1073" cy="419.6172" fill="#84BE84" rx="3" ry="3" style="stroke:#038048;stroke-width:1.0;"/><text fill="#000000" font-family="sans-serif" font-size="14" lengthAdjust="spacing" textLength="201" x="1082" y="423.8457">toDTO(json : String) : roomDTO</text><ellipse cx="1073" cy="437.2266" fill="#84BE84" rx="3" ry="3" style="stroke:#038048;stroke-width:1.0;"/><text fill="#000000" font-family="sans-serif" font-size="14" lengthAdjust="spacing" textLength="146" x="1082" y="441.4551">toDomain(room : room)</text><ellipse cx="1073" cy="454.8359" fill="#84BE84" rx="3" ry="3" style="stroke:#038048;stroke-width:1.0;"/><text fill="#000000" font-family="sans-serif" font-size="14" lengthAdjust="spacing" textLength="187" x="1082" y="459.0645">toJson(roomDTO : roomDTO)</text></g><!--MD5=[aec929816a707d505db147934dc4698a]
class building--><g id="elem_building"><rect codeLine="40" fill="#F1F1F1" height="93.9219" id="building" rx="2.5" ry="2.5" style="stroke:#181818;stroke-width:0.5;" width="144" x="449.5" y="562.1094"/><ellipse cx="490.6" cy="583.4609" fill="#ADD1B2" rx="11" ry="11" style="stroke:#181818;stroke-width:1.0;"/><path d="M493.3656,579.3359 Q493.5219,579.1172 493.7094,579.0078 Q493.8969,578.8984 494.1156,578.8984 Q494.4906,578.8984 494.725,579.1641 Q494.9594,579.4141 494.9594,580.0234 L494.9594,581.4766 Q494.9594,582.0859 494.725,582.3516 Q494.4906,582.6172 494.1156,582.6172 Q493.7719,582.6172 493.5688,582.4141 Q493.3656,582.2266 493.2563,581.7109 Q493.2094,581.3516 493.0219,581.1641 Q492.6938,580.7891 492.0844,580.5703 Q491.475,580.3516 490.85,580.3516 Q490.0844,580.3516 489.4438,580.6797 Q488.8188,581.0078 488.3188,581.7578 Q487.8344,582.5078 487.8344,583.5391 L487.8344,584.6328 Q487.8344,585.8672 488.725,586.6953 Q489.6156,587.5078 491.2094,587.5078 Q492.1469,587.5078 492.8031,587.2578 Q493.1938,587.1016 493.6156,586.6641 Q493.8813,586.3984 494.0219,586.3203 Q494.1781,586.2422 494.3813,586.2422 Q494.7094,586.2422 494.9594,586.5078 Q495.225,586.7578 495.225,587.1016 Q495.225,587.4453 494.8813,587.8516 Q494.3813,588.4297 493.5844,588.7578 Q492.5063,589.2109 491.2094,589.2109 Q489.6938,589.2109 488.4906,588.5859 Q487.5063,588.0859 486.8188,587.0234 Q486.1313,585.9453 486.1313,584.6641 L486.1313,583.5078 Q486.1313,582.1797 486.7406,581.0391 Q487.3656,579.8828 488.4594,579.2734 Q489.5531,578.6484 490.7875,578.6484 Q491.5219,578.6484 492.1625,578.8203 Q492.8188,578.9766 493.3656,579.3359 Z " fill="#000000"/><text fill="#000000" font-family="sans-serif" font-size="12" font-style="italic" lengthAdjust="spacing" textLength="58" x="508.4" y="579.5664">«Domain»</text><text fill="#000000" font-family="sans-serif" font-size="14" lengthAdjust="spacing" textLength="49" x="512.9" y="596.7363">building</text><line style="stroke:#181818;stroke-width:0.5;" x1="450.5" x2="592.5" y1="604.8125" y2="604.8125"/><rect fill="none" height="6" style="stroke:#C82930;stroke-width:1.0;" width="6" x="457.5" y="616.1172"/><text fill="#000000" font-family="sans-serif" font-size="14" lengthAdjust="spacing" textLength="83" x="469.5" y="623.3457">floors : floor[]</text><line style="stroke:#181818;stroke-width:0.5;" x1="450.5" x2="592.5" y1="630.4219" y2="630.4219"/><ellipse cx="460.5" cy="644.7266" fill="#84BE84" rx="3" ry="3" style="stroke:#038048;stroke-width:1.0;"/><text fill="#000000" font-family="sans-serif" font-size="14" lengthAdjust="spacing" textLength="118" x="469.5" y="648.9551">getFloors() : floor[]</text></g><!--MD5=[1db71a604acff34fa3d28126a4cbc4ef]
class floor--><g id="elem_floor"><rect codeLine="45" fill="#F1F1F1" height="129.1406" id="floor" rx="2.5" ry="2.5" style="stroke:#181818;stroke-width:0.5;" width="208" x="90.5" y="751.6094"/><ellipse cx="163.25" cy="772.9609" fill="#ADD1B2" rx="11" ry="11" style="stroke:#181818;stroke-width:1.0;"/><path d="M166.0156,768.8359 Q166.1719,768.6172 166.3594,768.5078 Q166.5469,768.3984 166.7656,768.3984 Q167.1406,768.3984 167.375,768.6641 Q167.6094,768.9141 167.6094,769.5234 L167.6094,770.9766 Q167.6094,771.5859 167.375,771.8516 Q167.1406,772.1172 166.7656,772.1172 Q166.4219,772.1172 166.2188,771.9141 Q166.0156,771.7266 165.9063,771.2109 Q165.8594,770.8516 165.6719,770.6641 Q165.3438,770.2891 164.7344,770.0703 Q164.125,769.8516 163.5,769.8516 Q162.7344,769.8516 162.0938,770.1797 Q161.4688,770.5078 160.9688,771.2578 Q160.4844,772.0078 160.4844,773.0391 L160.4844,774.1328 Q160.4844,775.3672 161.375,776.1953 Q162.2656,777.0078 163.8594,777.0078 Q164.7969,777.0078 165.4531,776.7578 Q165.8438,776.6016 166.2656,776.1641 Q166.5313,775.8984 166.6719,775.8203 Q166.8281,775.7422 167.0313,775.7422 Q167.3594,775.7422 167.6094,776.0078 Q167.875,776.2578 167.875,776.6016 Q167.875,776.9453 167.5313,777.3516 Q167.0313,777.9297 166.2344,778.2578 Q165.1563,778.7109 163.8594,778.7109 Q162.3438,778.7109 161.1406,778.0859 Q160.1563,777.5859 159.4688,776.5234 Q158.7813,775.4453 158.7813,774.1641 L158.7813,773.0078 Q158.7813,771.6797 159.3906,770.5391 Q160.0156,769.3828 161.1094,768.7734 Q162.2031,768.1484 163.4375,768.1484 Q164.1719,768.1484 164.8125,768.3203 Q165.4688,768.4766 166.0156,768.8359 Z " fill="#000000"/><text fill="#000000" font-family="sans-serif" font-size="12" font-style="italic" lengthAdjust="spacing" textLength="58" x="181.75" y="769.0664">«Domain»</text><text fill="#000000" font-family="sans-serif" font-size="14" lengthAdjust="spacing" textLength="28" x="196.75" y="786.2363">floor</text><line style="stroke:#181818;stroke-width:0.5;" x1="91.5" x2="297.5" y1="794.3125" y2="794.3125"/><rect fill="none" height="6" style="stroke:#C82930;stroke-width:1.0;" width="6" x="98.5" y="805.6172"/><text fill="#000000" font-family="sans-serif" font-size="14" lengthAdjust="spacing" textLength="108" x="110.5" y="812.8457">number : number</text><rect fill="none" height="6" style="stroke:#C82930;stroke-width:1.0;" width="6" x="98.5" y="823.2266"/><text fill="#000000" font-family="sans-serif" font-size="14" lengthAdjust="spacing" textLength="150" x="110.5" y="830.4551">description : description</text><line style="stroke:#181818;stroke-width:0.5;" x1="91.5" x2="297.5" y1="837.5313" y2="837.5313"/><ellipse cx="101.5" cy="851.8359" fill="#84BE84" rx="3" ry="3" style="stroke:#038048;stroke-width:1.0;"/><text fill="#000000" font-family="sans-serif" font-size="14" lengthAdjust="spacing" textLength="139" x="110.5" y="856.0645">getNumber() : number</text><ellipse cx="101.5" cy="869.4453" fill="#84BE84" rx="3" ry="3" style="stroke:#038048;stroke-width:1.0;"/><text fill="#000000" font-family="sans-serif" font-size="14" lengthAdjust="spacing" textLength="182" x="110.5" y="873.6738">getDescription() : description</text></g><!--MD5=[3e91a4b4113ea64e939288529d461126]
class room--><g id="elem_room"><rect codeLine="52" fill="#F1F1F1" height="76.3125" id="room" rx="2.5" ry="2.5" style="stroke:#181818;stroke-width:0.5;" width="108" x="846.5" y="571.1094"/><ellipse cx="871.4" cy="592.4609" fill="#ADD1B2" rx="11" ry="11" style="stroke:#181818;stroke-width:1.0;"/><path d="M874.1656,588.3359 Q874.3219,588.1172 874.5094,588.0078 Q874.6969,587.8984 874.9156,587.8984 Q875.2906,587.8984 875.525,588.1641 Q875.7594,588.4141 875.7594,589.0234 L875.7594,590.4766 Q875.7594,591.0859 875.525,591.3516 Q875.2906,591.6172 874.9156,591.6172 Q874.5719,591.6172 874.3688,591.4141 Q874.1656,591.2266 874.0563,590.7109 Q874.0094,590.3516 873.8219,590.1641 Q873.4938,589.7891 872.8844,589.5703 Q872.275,589.3516 871.65,589.3516 Q870.8844,589.3516 870.2438,589.6797 Q869.6188,590.0078 869.1188,590.7578 Q868.6344,591.5078 868.6344,592.5391 L868.6344,593.6328 Q868.6344,594.8672 869.525,595.6953 Q870.4156,596.5078 872.0094,596.5078 Q872.9469,596.5078 873.6031,596.2578 Q873.9938,596.1016 874.4156,595.6641 Q874.6813,595.3984 874.8219,595.3203 Q874.9781,595.2422 875.1813,595.2422 Q875.5094,595.2422 875.7594,595.5078 Q876.025,595.7578 876.025,596.1016 Q876.025,596.4453 875.6813,596.8516 Q875.1813,597.4297 874.3844,597.7578 Q873.3063,598.2109 872.0094,598.2109 Q870.4938,598.2109 869.2906,597.5859 Q868.3063,597.0859 867.6188,596.0234 Q866.9313,594.9453 866.9313,593.6641 L866.9313,592.5078 Q866.9313,591.1797 867.5406,590.0391 Q868.1656,588.8828 869.2594,588.2734 Q870.3531,587.6484 871.5875,587.6484 Q872.3219,587.6484 872.9625,587.8203 Q873.6188,587.9766 874.1656,588.3359 Z " fill="#000000"/><text fill="#000000" font-family="sans-serif" font-size="12" font-style="italic" lengthAdjust="spacing" textLength="58" x="885.6" y="588.5664">«Domain»</text><text fill="#000000" font-family="sans-serif" font-size="14" lengthAdjust="spacing" textLength="32" x="898.6" y="605.7363">room</text><line style="stroke:#181818;stroke-width:0.5;" x1="847.5" x2="953.5" y1="613.8125" y2="613.8125"/><rect fill="none" height="6" style="stroke:#C82930;stroke-width:1.0;" width="6" x="854.5" y="625.1172"/><text fill="#000000" font-family="sans-serif" font-size="14" lengthAdjust="spacing" textLength="82" x="866.5" y="632.3457">name : string</text><line style="stroke:#181818;stroke-width:0.5;" x1="847.5" x2="953.5" y1="639.4219" y2="639.4219"/></g><!--MD5=[b4bfad73b08c8f15addfbfdeea39636e]
class RoomName--><g id="elem_RoomName"><rect codeLine="56" fill="#F1F1F1" height="58.7031" id="RoomName" rx="2.5" ry="2.5" style="stroke:#181818;stroke-width:0.5;" width="109" x="1324" y="381.1094"/><ellipse cx="1339" cy="402.4609" fill="#FF8B40" rx="11" ry="11" style="stroke:#181818;stroke-width:1.0;"/><path d="M1339.5938,405.7266 L1342.0625,399.8516 L1341.6719,399.8516 Q1341.0625,399.8516 1340.7969,399.6172 Q1340.5313,399.3828 1340.5313,398.9922 Q1340.5313,398.6172 1340.7969,398.3828 Q1341.0625,398.1484 1341.6719,398.1484 L1343.9531,398.1484 Q1344.5625,398.1484 1344.8281,398.3828 Q1345.0938,398.6172 1345.0938,398.9922 Q1345.0938,399.4609 1344.6875,399.7266 Q1344.5,399.8516 1343.9063,399.8516 L1340.4219,408.2109 L1338.7813,408.2109 L1335.2969,399.8516 Q1334.7031,399.8516 1334.5156,399.7266 Q1334.1094,399.4609 1334.1094,398.9922 Q1334.1094,398.6172 1334.375,398.3828 Q1334.6406,398.1484 1335.25,398.1484 L1337.5469,398.1484 Q1338.1563,398.1484 1338.4063,398.3828 Q1338.6719,398.6172 1338.6719,398.9922 Q1338.6719,399.3828 1338.4063,399.6172 Q1338.1563,399.8516 1337.5469,399.8516 L1337.1406,399.8516 L1339.5938,405.7266 Z " fill="#000000"/><text fill="#000000" font-family="sans-serif" font-size="12" font-style="italic" lengthAdjust="spacing" textLength="81" x="1351" y="398.5664">«value object»</text><text fill="#000000" font-family="sans-serif" font-size="14" lengthAdjust="spacing" textLength="73" x="1355" y="415.7363">RoomName</text><line style="stroke:#181818;stroke-width:0.5;" x1="1325" x2="1432" y1="423.8125" y2="423.8125"/><line style="stroke:#181818;stroke-width:0.5;" x1="1325" x2="1432" y1="431.8125" y2="431.8125"/></g><!--MD5=[ea420d35c18f469482e294cb2458608e]
class RoomCategory--><g id="elem_RoomCategory"><rect codeLine="57" fill="#F1F1F1" height="58.7031" id="RoomCategory" rx="2.5" ry="2.5" style="stroke:#181818;stroke-width:0.5;" width="127" x="1468" y="381.1094"/><ellipse cx="1483" cy="402.4609" fill="#FF8B40" rx="11" ry="11" style="stroke:#181818;stroke-width:1.0;"/><path d="M1483.5938,405.7266 L1486.0625,399.8516 L1485.6719,399.8516 Q1485.0625,399.8516 1484.7969,399.6172 Q1484.5313,399.3828 1484.5313,398.9922 Q1484.5313,398.6172 1484.7969,398.3828 Q1485.0625,398.1484 1485.6719,398.1484 L1487.9531,398.1484 Q1488.5625,398.1484 1488.8281,398.3828 Q1489.0938,398.6172 1489.0938,398.9922 Q1489.0938,399.4609 1488.6875,399.7266 Q1488.5,399.8516 1487.9063,399.8516 L1484.4219,408.2109 L1482.7813,408.2109 L1479.2969,399.8516 Q1478.7031,399.8516 1478.5156,399.7266 Q1478.1094,399.4609 1478.1094,398.9922 Q1478.1094,398.6172 1478.375,398.3828 Q1478.6406,398.1484 1479.25,398.1484 L1481.5469,398.1484 Q1482.1563,398.1484 1482.4063,398.3828 Q1482.6719,398.6172 1482.6719,398.9922 Q1482.6719,399.3828 1482.4063,399.6172 Q1482.1563,399.8516 1481.5469,399.8516 L1481.1406,399.8516 L1483.5938,405.7266 Z " fill="#000000"/><text fill="#000000" font-family="sans-serif" font-size="12" font-style="italic" lengthAdjust="spacing" textLength="46" x="1521.5" y="398.5664">«enum»</text><text fill="#000000" font-family="sans-serif" font-size="14" lengthAdjust="spacing" textLength="95" x="1497" y="415.7363">RoomCategory</text><line style="stroke:#181818;stroke-width:0.5;" x1="1469" x2="1594" y1="423.8125" y2="423.8125"/><line style="stroke:#181818;stroke-width:0.5;" x1="1469" x2="1594" y1="431.8125" y2="431.8125"/></g><!--MD5=[e59f14cf94c7d20e46684061116698bd]
class buildingCode--><g id="elem_buildingCode"><rect fill="#F1F1F1" height="48" id="buildingCode" rx="2.5" ry="2.5" style="stroke:#181818;stroke-width:0.5;" width="115" x="334" y="792.1094"/><ellipse cx="349" cy="808.1094" fill="#ADD1B2" rx="11" ry="11" style="stroke:#181818;stroke-width:1.0;"/><path d="M351.7656,803.9844 Q351.9219,803.7656 352.1094,803.6563 Q352.2969,803.5469 352.5156,803.5469 Q352.8906,803.5469 353.125,803.8125 Q353.3594,804.0625 353.3594,804.6719 L353.3594,806.125 Q353.3594,806.7344 353.125,807 Q352.8906,807.2656 352.5156,807.2656 Q352.1719,807.2656 351.9688,807.0625 Q351.7656,806.875 351.6563,806.3594 Q351.6094,806 351.4219,805.8125 Q351.0938,805.4375 350.4844,805.2188 Q349.875,805 349.25,805 Q348.4844,805 347.8438,805.3281 Q347.2188,805.6563 346.7188,806.4063 Q346.2344,807.1563 346.2344,808.1875 L346.2344,809.2813 Q346.2344,810.5156 347.125,811.3438 Q348.0156,812.1563 349.6094,812.1563 Q350.5469,812.1563 351.2031,811.9063 Q351.5938,811.75 352.0156,811.3125 Q352.2813,811.0469 352.4219,810.9688 Q352.5781,810.8906 352.7813,810.8906 Q353.1094,810.8906 353.3594,811.1563 Q353.625,811.4063 353.625,811.75 Q353.625,812.0938 353.2813,812.5 Q352.7813,813.0781 351.9844,813.4063 Q350.9063,813.8594 349.6094,813.8594 Q348.0938,813.8594 346.8906,813.2344 Q345.9063,812.7344 345.2188,811.6719 Q344.5313,810.5938 344.5313,809.3125 L344.5313,808.1563 Q344.5313,806.8281 345.1406,805.6875 Q345.7656,804.5313 346.8594,803.9219 Q347.9531,803.2969 349.1875,803.2969 Q349.9219,803.2969 350.5625,803.4688 Q351.2188,803.625 351.7656,803.9844 Z " fill="#000000"/><text fill="#000000" font-family="sans-serif" font-size="14" lengthAdjust="spacing" textLength="83" x="363" y="813.8379">buildingCode</text><line style="stroke:#181818;stroke-width:0.5;" x1="335" x2="448" y1="824.1094" y2="824.1094"/><line style="stroke:#181818;stroke-width:0.5;" x1="335" x2="448" y1="832.1094" y2="832.1094"/></g><!--MD5=[cafc1b42845b115e1fd9a403a64b6b67]
class buildingName--><g id="elem_buildingName"><rect fill="#F1F1F1" height="48" id="buildingName" rx="2.5" ry="2.5" style="stroke:#181818;stroke-width:0.5;" width="117" x="484" y="792.1094"/><ellipse cx="499" cy="808.1094" fill="#ADD1B2" rx="11" ry="11" style="stroke:#181818;stroke-width:1.0;"/><path d="M501.7656,803.9844 Q501.9219,803.7656 502.1094,803.6563 Q502.2969,803.5469 502.5156,803.5469 Q502.8906,803.5469 503.125,803.8125 Q503.3594,804.0625 503.3594,804.6719 L503.3594,806.125 Q503.3594,806.7344 503.125,807 Q502.8906,807.2656 502.5156,807.2656 Q502.1719,807.2656 501.9688,807.0625 Q501.7656,806.875 501.6563,806.3594 Q501.6094,806 501.4219,805.8125 Q501.0938,805.4375 500.4844,805.2188 Q499.875,805 499.25,805 Q498.4844,805 497.8438,805.3281 Q497.2188,805.6563 496.7188,806.4063 Q496.2344,807.1563 496.2344,808.1875 L496.2344,809.2813 Q496.2344,810.5156 497.125,811.3438 Q498.0156,812.1563 499.6094,812.1563 Q500.5469,812.1563 501.2031,811.9063 Q501.5938,811.75 502.0156,811.3125 Q502.2813,811.0469 502.4219,810.9688 Q502.5781,810.8906 502.7813,810.8906 Q503.1094,810.8906 503.3594,811.1563 Q503.625,811.4063 503.625,811.75 Q503.625,812.0938 503.2813,812.5 Q502.7813,813.0781 501.9844,813.4063 Q500.9063,813.8594 499.6094,813.8594 Q498.0938,813.8594 496.8906,813.2344 Q495.9063,812.7344 495.2188,811.6719 Q494.5313,810.5938 494.5313,809.3125 L494.5313,808.1563 Q494.5313,806.8281 495.1406,805.6875 Q495.7656,804.5313 496.8594,803.9219 Q497.9531,803.2969 499.1875,803.2969 Q499.9219,803.2969 500.5625,803.4688 Q501.2188,803.625 501.7656,803.9844 Z " fill="#000000"/><text fill="#000000" font-family="sans-serif" font-size="14" lengthAdjust="spacing" textLength="85" x="513" y="813.8379">buildingName</text><line style="stroke:#181818;stroke-width:0.5;" x1="485" x2="600" y1="824.1094" y2="824.1094"/><line style="stroke:#181818;stroke-width:0.5;" x1="485" x2="600" y1="832.1094" y2="832.1094"/></g><!--MD5=[52bf045bf7baca4a9cba833ddb0fbbe2]
class description--><g id="elem_description"><rect fill="#F1F1F1" height="48" id="description" rx="2.5" ry="2.5" style="stroke:#181818;stroke-width:0.5;" width="101" x="7" y="941.6094"/><ellipse cx="22" cy="957.6094" fill="#ADD1B2" rx="11" ry="11" style="stroke:#181818;stroke-width:1.0;"/><path d="M24.7656,953.4844 Q24.9219,953.2656 25.1094,953.1563 Q25.2969,953.0469 25.5156,953.0469 Q25.8906,953.0469 26.125,953.3125 Q26.3594,953.5625 26.3594,954.1719 L26.3594,955.625 Q26.3594,956.2344 26.125,956.5 Q25.8906,956.7656 25.5156,956.7656 Q25.1719,956.7656 24.9688,956.5625 Q24.7656,956.375 24.6563,955.8594 Q24.6094,955.5 24.4219,955.3125 Q24.0938,954.9375 23.4844,954.7188 Q22.875,954.5 22.25,954.5 Q21.4844,954.5 20.8438,954.8281 Q20.2188,955.1563 19.7188,955.9063 Q19.2344,956.6563 19.2344,957.6875 L19.2344,958.7813 Q19.2344,960.0156 20.125,960.8438 Q21.0156,961.6563 22.6094,961.6563 Q23.5469,961.6563 24.2031,961.4063 Q24.5938,961.25 25.0156,960.8125 Q25.2813,960.5469 25.4219,960.4688 Q25.5781,960.3906 25.7813,960.3906 Q26.1094,960.3906 26.3594,960.6563 Q26.625,960.9063 26.625,961.25 Q26.625,961.5938 26.2813,962 Q25.7813,962.5781 24.9844,962.9063 Q23.9063,963.3594 22.6094,963.3594 Q21.0938,963.3594 19.8906,962.7344 Q18.9063,962.2344 18.2188,961.1719 Q17.5313,960.0938 17.5313,958.8125 L17.5313,957.6563 Q17.5313,956.3281 18.1406,955.1875 Q18.7656,954.0313 19.8594,953.4219 Q20.9531,952.7969 22.1875,952.7969 Q22.9219,952.7969 23.5625,952.9688 Q24.2188,953.125 24.7656,953.4844 Z " fill="#000000"/><text fill="#000000" font-family="sans-serif" font-size="14" lengthAdjust="spacing" textLength="69" x="36" y="963.3379">description</text><line style="stroke:#181818;stroke-width:0.5;" x1="8" x2="107" y1="973.6094" y2="973.6094"/><line style="stroke:#181818;stroke-width:0.5;" x1="8" x2="107" y1="981.6094" y2="981.6094"/></g><!--MD5=[8d6f170c3ec21a265c32a099f6117284]
class buildingDimension--><g id="elem_buildingDimension"><rect fill="#F1F1F1" height="48" id="buildingDimension" rx="2.5" ry="2.5" style="stroke:#181818;stroke-width:0.5;" width="147" x="636" y="792.1094"/><ellipse cx="651" cy="808.1094" fill="#ADD1B2" rx="11" ry="11" style="stroke:#181818;stroke-width:1.0;"/><path d="M653.7656,803.9844 Q653.9219,803.7656 654.1094,803.6563 Q654.2969,803.5469 654.5156,803.5469 Q654.8906,803.5469 655.125,803.8125 Q655.3594,804.0625 655.3594,804.6719 L655.3594,806.125 Q655.3594,806.7344 655.125,807 Q654.8906,807.2656 654.5156,807.2656 Q654.1719,807.2656 653.9688,807.0625 Q653.7656,806.875 653.6563,806.3594 Q653.6094,806 653.4219,805.8125 Q653.0938,805.4375 652.4844,805.2188 Q651.875,805 651.25,805 Q650.4844,805 649.8438,805.3281 Q649.2188,805.6563 648.7188,806.4063 Q648.2344,807.1563 648.2344,808.1875 L648.2344,809.2813 Q648.2344,810.5156 649.125,811.3438 Q650.0156,812.1563 651.6094,812.1563 Q652.5469,812.1563 653.2031,811.9063 Q653.5938,811.75 654.0156,811.3125 Q654.2813,811.0469 654.4219,810.9688 Q654.5781,810.8906 654.7813,810.8906 Q655.1094,810.8906 655.3594,811.1563 Q655.625,811.4063 655.625,811.75 Q655.625,812.0938 655.2813,812.5 Q654.7813,813.0781 653.9844,813.4063 Q652.9063,813.8594 651.6094,813.8594 Q650.0938,813.8594 648.8906,813.2344 Q647.9063,812.7344 647.2188,811.6719 Q646.5313,810.5938 646.5313,809.3125 L646.5313,808.1563 Q646.5313,806.8281 647.1406,805.6875 Q647.7656,804.5313 648.8594,803.9219 Q649.9531,803.2969 651.1875,803.2969 Q651.9219,803.2969 652.5625,803.4688 Q653.2188,803.625 653.7656,803.9844 Z " fill="#000000"/><text fill="#000000" font-family="sans-serif" font-size="14" lengthAdjust="spacing" textLength="115" x="665" y="813.8379">buildingDimension</text><line style="stroke:#181818;stroke-width:0.5;" x1="637" x2="782" y1="824.1094" y2="824.1094"/><line style="stroke:#181818;stroke-width:0.5;" x1="637" x2="782" y1="832.1094" y2="832.1094"/></g><!--MD5=[d218c48b946d362ff1ecd879cabebcad]
class Room--><g id="elem_Room"><rect fill="#F1F1F1" height="48" id="Room" rx="2.5" ry="2.5" style="stroke:#181818;stroke-width:0.5;" width="69" x="1497" y="205.6094"/><ellipse cx="1512" cy="221.6094" fill="#ADD1B2" rx="11" ry="11" style="stroke:#181818;stroke-width:1.0;"/><path d="M1514.7656,217.4844 Q1514.9219,217.2656 1515.1094,217.1563 Q1515.2969,217.0469 1515.5156,217.0469 Q1515.8906,217.0469 1516.125,217.3125 Q1516.3594,217.5625 1516.3594,218.1719 L1516.3594,219.625 Q1516.3594,220.2344 1516.125,220.5 Q1515.8906,220.7656 1515.5156,220.7656 Q1515.1719,220.7656 1514.9688,220.5625 Q1514.7656,220.375 1514.6563,219.8594 Q1514.6094,219.5 1514.4219,219.3125 Q1514.0938,218.9375 1513.4844,218.7188 Q1512.875,218.5 1512.25,218.5 Q1511.4844,218.5 1510.8438,218.8281 Q1510.2188,219.1563 1509.7188,219.9063 Q1509.2344,220.6563 1509.2344,221.6875 L1509.2344,222.7813 Q1509.2344,224.0156 1510.125,224.8438 Q1511.0156,225.6563 1512.6094,225.6563 Q1513.5469,225.6563 1514.2031,225.4063 Q1514.5938,225.25 1515.0156,224.8125 Q1515.2813,224.5469 1515.4219,224.4688 Q1515.5781,224.3906 1515.7813,224.3906 Q1516.1094,224.3906 1516.3594,224.6563 Q1516.625,224.9063 1516.625,225.25 Q1516.625,225.5938 1516.2813,226 Q1515.7813,226.5781 1514.9844,226.9063 Q1513.9063,227.3594 1512.6094,227.3594 Q1511.0938,227.3594 1509.8906,226.7344 Q1508.9063,226.2344 1508.2188,225.1719 Q1507.5313,224.0938 1507.5313,222.8125 L1507.5313,221.6563 Q1507.5313,220.3281 1508.1406,219.1875 Q1508.7656,218.0313 1509.8594,217.4219 Q1510.9531,216.7969 1512.1875,216.7969 Q1512.9219,216.7969 1513.5625,216.9688 Q1514.2188,217.125 1514.7656,217.4844 Z " fill="#000000"/><text fill="#000000" font-family="sans-serif" font-size="14" lengthAdjust="spacing" textLength="37" x="1526" y="227.3379">Room</text><line style="stroke:#181818;stroke-width:0.5;" x1="1498" x2="1565" y1="237.6094" y2="237.6094"/><line style="stroke:#181818;stroke-width:0.5;" x1="1498" x2="1565" y1="245.6094" y2="245.6094"/></g><!--MD5=[009695af4e54f3bba8a9c60dca3e1c94]
class Description--><g id="elem_Description"><rect fill="#F1F1F1" height="48" id="Description" rx="2.5" ry="2.5" style="stroke:#181818;stroke-width:0.5;" width="103" x="1630" y="386.6094"/><ellipse cx="1645" cy="402.6094" fill="#ADD1B2" rx="11" ry="11" style="stroke:#181818;stroke-width:1.0;"/><path d="M1647.7656,398.4844 Q1647.9219,398.2656 1648.1094,398.1563 Q1648.2969,398.0469 1648.5156,398.0469 Q1648.8906,398.0469 1649.125,398.3125 Q1649.3594,398.5625 1649.3594,399.1719 L1649.3594,400.625 Q1649.3594,401.2344 1649.125,401.5 Q1648.8906,401.7656 1648.5156,401.7656 Q1648.1719,401.7656 1647.9688,401.5625 Q1647.7656,401.375 1647.6563,400.8594 Q1647.6094,400.5 1647.4219,400.3125 Q1647.0938,399.9375 1646.4844,399.7188 Q1645.875,399.5 1645.25,399.5 Q1644.4844,399.5 1643.8438,399.8281 Q1643.2188,400.1563 1642.7188,400.9063 Q1642.2344,401.6563 1642.2344,402.6875 L1642.2344,403.7813 Q1642.2344,405.0156 1643.125,405.8438 Q1644.0156,406.6563 1645.6094,406.6563 Q1646.5469,406.6563 1647.2031,406.4063 Q1647.5938,406.25 1648.0156,405.8125 Q1648.2813,405.5469 1648.4219,405.4688 Q1648.5781,405.3906 1648.7813,405.3906 Q1649.1094,405.3906 1649.3594,405.6563 Q1649.625,405.9063 1649.625,406.25 Q1649.625,406.5938 1649.2813,407 Q1648.7813,407.5781 1647.9844,407.9063 Q1646.9063,408.3594 1645.6094,408.3594 Q1644.0938,408.3594 1642.8906,407.7344 Q1641.9063,407.2344 1641.2188,406.1719 Q1640.5313,405.0938 1640.5313,403.8125 L1640.5313,402.6563 Q1640.5313,401.3281 1641.1406,400.1875 Q1641.7656,399.0313 1642.8594,398.4219 Q1643.9531,397.7969 1645.1875,397.7969 Q1645.9219,397.7969 1646.5625,397.9688 Q1647.2188,398.125 1647.7656,398.4844 Z " fill="#000000"/><text fill="#000000" font-family="sans-serif" font-size="14" lengthAdjust="spacing" textLength="71" x="1659" y="408.3379">Description</text><line style="stroke:#181818;stroke-width:0.5;" x1="1631" x2="1732" y1="418.6094" y2="418.6094"/><line style="stroke:#181818;stroke-width:0.5;" x1="1631" x2="1732" y1="426.6094" y2="426.6094"/></g><!--MD5=[b72bc2e7d3a9f40bc0a8caea5866d41e]
class buildingSchema--><g id="elem_buildingSchema"><rect fill="#F1F1F1" height="48" id="buildingSchema" rx="2.5" ry="2.5" style="stroke:#181818;stroke-width:0.5;" width="132" x="925.5" y="792.1094"/><ellipse cx="940.5" cy="808.1094" fill="#ADD1B2" rx="11" ry="11" style="stroke:#181818;stroke-width:1.0;"/><path d="M943.2656,803.9844 Q943.4219,803.7656 943.6094,803.6563 Q943.7969,803.5469 944.0156,803.5469 Q944.3906,803.5469 944.625,803.8125 Q944.8594,804.0625 944.8594,804.6719 L944.8594,806.125 Q944.8594,806.7344 944.625,807 Q944.3906,807.2656 944.0156,807.2656 Q943.6719,807.2656 943.4688,807.0625 Q943.2656,806.875 943.1563,806.3594 Q943.1094,806 942.9219,805.8125 Q942.5938,805.4375 941.9844,805.2188 Q941.375,805 940.75,805 Q939.9844,805 939.3438,805.3281 Q938.7188,805.6563 938.2188,806.4063 Q937.7344,807.1563 937.7344,808.1875 L937.7344,809.2813 Q937.7344,810.5156 938.625,811.3438 Q939.5156,812.1563 941.1094,812.1563 Q942.0469,812.1563 942.7031,811.9063 Q943.0938,811.75 943.5156,811.3125 Q943.7813,811.0469 943.9219,810.9688 Q944.0781,810.8906 944.2813,810.8906 Q944.6094,810.8906 944.8594,811.1563 Q945.125,811.4063 945.125,811.75 Q945.125,812.0938 944.7813,812.5 Q944.2813,813.0781 943.4844,813.4063 Q942.4063,813.8594 941.1094,813.8594 Q939.5938,813.8594 938.3906,813.2344 Q937.4063,812.7344 936.7188,811.6719 Q936.0313,810.5938 936.0313,809.3125 L936.0313,808.1563 Q936.0313,806.8281 936.6406,805.6875 Q937.2656,804.5313 938.3594,803.9219 Q939.4531,803.2969 940.6875,803.2969 Q941.4219,803.2969 942.0625,803.4688 Q942.7188,803.625 943.2656,803.9844 Z " fill="#000000"/><text fill="#000000" font-family="sans-serif" font-size="14" lengthAdjust="spacing" textLength="100" x="954.5" y="813.8379">buildingSchema</text><line style="stroke:#181818;stroke-width:0.5;" x1="926.5" x2="1056.5" y1="824.1094" y2="824.1094"/><line style="stroke:#181818;stroke-width:0.5;" x1="926.5" x2="1056.5" y1="832.1094" y2="832.1094"/></g><!--MD5=[b098efa4dd65edfeebe973e4edec7c36]
class Floor--><g id="elem_Floor"><rect fill="#F1F1F1" height="48" id="Floor" rx="2.5" ry="2.5" style="stroke:#181818;stroke-width:0.5;" width="65" x="1499" y="51.1094"/><ellipse cx="1514" cy="67.1094" fill="#ADD1B2" rx="11" ry="11" style="stroke:#181818;stroke-width:1.0;"/><path d="M1516.7656,62.9844 Q1516.9219,62.7656 1517.1094,62.6563 Q1517.2969,62.5469 1517.5156,62.5469 Q1517.8906,62.5469 1518.125,62.8125 Q1518.3594,63.0625 1518.3594,63.6719 L1518.3594,65.125 Q1518.3594,65.7344 1518.125,66 Q1517.8906,66.2656 1517.5156,66.2656 Q1517.1719,66.2656 1516.9688,66.0625 Q1516.7656,65.875 1516.6563,65.3594 Q1516.6094,65 1516.4219,64.8125 Q1516.0938,64.4375 1515.4844,64.2188 Q1514.875,64 1514.25,64 Q1513.4844,64 1512.8438,64.3281 Q1512.2188,64.6563 1511.7188,65.4063 Q1511.2344,66.1563 1511.2344,67.1875 L1511.2344,68.2813 Q1511.2344,69.5156 1512.125,70.3438 Q1513.0156,71.1563 1514.6094,71.1563 Q1515.5469,71.1563 1516.2031,70.9063 Q1516.5938,70.75 1517.0156,70.3125 Q1517.2813,70.0469 1517.4219,69.9688 Q1517.5781,69.8906 1517.7813,69.8906 Q1518.1094,69.8906 1518.3594,70.1563 Q1518.625,70.4063 1518.625,70.75 Q1518.625,71.0938 1518.2813,71.5 Q1517.7813,72.0781 1516.9844,72.4063 Q1515.9063,72.8594 1514.6094,72.8594 Q1513.0938,72.8594 1511.8906,72.2344 Q1510.9063,71.7344 1510.2188,70.6719 Q1509.5313,69.5938 1509.5313,68.3125 L1509.5313,67.1563 Q1509.5313,65.8281 1510.1406,64.6875 Q1510.7656,63.5313 1511.8594,62.9219 Q1512.9531,62.2969 1514.1875,62.2969 Q1514.9219,62.2969 1515.5625,62.4688 Q1516.2188,62.625 1516.7656,62.9844 Z " fill="#000000"/><text fill="#000000" font-family="sans-serif" font-size="14" lengthAdjust="spacing" textLength="33" x="1528" y="72.8379">Floor</text><line style="stroke:#181818;stroke-width:0.5;" x1="1500" x2="1563" y1="83.1094" y2="83.1094"/><line style="stroke:#181818;stroke-width:0.5;" x1="1500" x2="1563" y1="91.1094" y2="91.1094"/></g><!--MD5=[9862e69d6b471bfdd78e76f987f0bc67]
link building to buildingCode--><g id="link_building_buildingCode"><path codeLine="61" d="M492.33,656.1194 C466.68,696.5594 430.21,754.0694 408.88,787.6994 " fill="none" id="building-to-buildingCode" style="stroke:#181818;stroke-width:1.0;"/><polygon fill="#181818" points="406.1,792.0794,414.3018,786.6267,408.7807,787.8587,407.5487,782.3376,406.1,792.0794" style="stroke:#181818;stroke-width:1.0;"/></g><!--MD5=[912f13094641859d8a3543eceafff096]
link building to buildingName--><g id="link_building_buildingName"><path codeLine="62" d="M526.21,656.1194 C530.32,696.2294 536.15,753.1394 539.61,786.8694 " fill="none" id="building-to-buildingName" style="stroke:#181818;stroke-width:1.0;"/><polygon fill="#181818" points="540.14,792.0794,543.1927,782.7156,539.6255,787.1059,535.2351,783.5387,540.14,792.0794" style="stroke:#181818;stroke-width:1.0;"/></g><!--MD5=[0def577dc25f80aba04a5ac3e255988c]
link building to description--><g id="link_building_description"><path codeLine="63" d="M462.98,656.3394 C452.88,662.8494 442.18,668.9194 431.5,673.6094 C282.03,739.3194 179.37,628.1694 72.5,751.6094 C27.64,803.4194 39.75,891.4894 49.94,936.4194 " fill="none" id="building-to-description" style="stroke:#181818;stroke-width:1.0;"/><polygon fill="#181818" points="51.11,941.4194,52.9486,931.7437,49.968,936.5515,45.1601,933.5709,51.11,941.4194" style="stroke:#181818;stroke-width:1.0;"/></g><!--MD5=[f26316f7e1d726105ca96f3c4801ad33]
link building to buildingDimension--><g id="link_building_buildingDimension"><path codeLine="64" d="M563.69,656.1194 C600.93,696.7294 653.96,754.5394 684.74,788.1094 " fill="none" id="building-to-buildingDimension" style="stroke:#181818;stroke-width:1.0;"/><polygon fill="#181818" points="688.38,792.0794,685.2373,782.7454,684.9975,788.3972,679.3457,788.1574,688.38,792.0794" style="stroke:#181818;stroke-width:1.0;"/></g><!--MD5=[39209f3a6686003a9099bd32c68b056b]
link floor to description--><g id="link_floor_description"><path codeLine="66" d="M135.21,880.9494 C116.81,900.7594 97.5,921.5394 82.74,937.4394 " fill="none" id="floor-to-description" style="stroke:#181818;stroke-width:1.0;"/><polygon fill="#181818" points="79.09,941.3694,88.1556,937.5204,82.5021,937.7146,82.3079,932.0611,79.09,941.3694" style="stroke:#181818;stroke-width:1.0;"/></g><!--MD5=[aab667148c96bf2615dd2533617eaefb]
link Room to RoomName--><g id="link_Room_RoomName"><path codeLine="68" d="M1511.81,253.6394 C1484.95,285.0794 1436.66,341.5594 1406.17,377.2394 " fill="none" id="Room-to-RoomName" style="stroke:#181818;stroke-width:1.0;"/><polygon fill="#181818" points="1402.91,381.0494,1411.8041,376.8192,1406.164,377.2531,1405.7301,371.6129,1402.91,381.0494" style="stroke:#181818;stroke-width:1.0;"/></g><!--MD5=[3ad1e65c7d6af55c9da8c6196df9a73d]
link Room to RoomCategory--><g id="link_Room_RoomCategory"><path codeLine="69" d="M1531.5,253.6394 C1531.5,284.6894 1531.5,340.1894 1531.5,375.9294 " fill="none" id="Room-to-RoomCategory" style="stroke:#181818;stroke-width:1.0;"/><polygon fill="#181818" points="1531.5,381.0494,1535.5,372.0494,1531.5,376.0494,1527.5,372.0494,1531.5,381.0494" style="stroke:#181818;stroke-width:1.0;"/></g><!--MD5=[b19ce8236ea3b2e01bcf891b4adcd3c4]
link Room to Description--><g id="link_Room_Description"><path codeLine="70" d="M1550.8,253.6394 C1578.4,286.5794 1629.06,347.0294 1658.55,382.2194 " fill="none" id="Room-to-Description" style="stroke:#181818;stroke-width:1.0;"/><polygon fill="#181818" points="1662.03,386.3794,1659.3066,376.9145,1658.815,382.55,1653.1796,382.0585,1662.03,386.3794" style="stroke:#181818;stroke-width:1.0;"/></g><!--MD5=[7cdbf76b9d523ebb614c632285b1e2b9]
link buildingRoute to buildingController--><g id="link_buildingRoute_buildingController"><path codeLine="72" d="M937.5,104.7894 C937.5,125.1694 937.5,153.0994 937.5,177.2694 " fill="none" id="buildingRoute-to-buildingController" style="stroke:#181818;stroke-width:1.0;"/><polygon fill="#181818" points="937.5,182.3694,941.5,173.3694,937.5,177.3694,933.5,173.3694,937.5,182.3694" style="stroke:#181818;stroke-width:1.0;"/><text fill="#000000" font-family="sans-serif" font-size="13" lengthAdjust="spacing" textLength="73" x="938.5" y="149.1045">theController</text></g><!--MD5=[a0256c618b432000a89ac78d7f5216dd]
link buildingController to buildingService--><g id="link_buildingController_buildingService"><path codeLine="73" d="M870.03,276.7094 C828.04,305.3894 774.57,341.9194 734.32,369.4194 " fill="none" id="buildingController-to-buildingService" style="stroke:#181818;stroke-width:1.0;"/><polygon fill="#181818" points="729.97,372.3894,739.6554,370.6024,734.0948,369.5634,735.1338,364.0028,729.97,372.3894" style="stroke:#181818;stroke-width:1.0;"/><text fill="#000000" font-family="sans-serif" font-size="13" lengthAdjust="spacing" textLength="40" x="823.5" y="321.1045">service</text></g><!--MD5=[b9512010d5f1fe992e95c69bd1bc2b86]
link buildingService to buildingMapper--><g id="link_buildingService_buildingMapper"><path codeLine="74" d="M602.63,448.7994 C550.9,475.2094 480.06,511.3594 418.95,542.5494 " fill="none" id="buildingService-to-buildingMapper" style="stroke:#181818;stroke-width:1.0;"/><polygon fill="#181818" points="414.19,544.9794,424.0243,544.444,418.6419,542.7033,420.3826,537.3209,414.19,544.9794" style="stroke:#181818;stroke-width:1.0;"/><text fill="#000000" font-family="sans-serif" font-size="13" lengthAdjust="spacing" textLength="43" x="507.5" y="511.1045">mapper</text></g><!--MD5=[23cd60776ecbb9c83e83eea209a9c4e9]
link buildingService to buildingRepo--><g id="link_buildingService_buildingRepo"><path codeLine="75" d="M765.2,448.6594 C824.57,473.9694 903.7,509.2294 971.5,544.6094 C985.43,551.8794 1000.06,560.1794 1013.85,568.3394 " fill="none" id="buildingService-to-buildingRepo" style="stroke:#181818;stroke-width:1.0;"/><polygon fill="#181818" points="1018.49,571.0994,1012.799,563.0612,1014.1925,568.5437,1008.71,569.9372,1018.49,571.0994" style="stroke:#181818;stroke-width:1.0;"/><text fill="#000000" font-family="sans-serif" font-size="13" lengthAdjust="spacing" textLength="25" x="909.5" y="511.1045">repo</text></g><!--MD5=[4b900342c6342943581179a576628283]
link buildingService to building--><g id="link_buildingService_building"><path codeLine="76" d="M623,448.6694 C606.06,462.3794 588.16,478.9194 574.5,496.6094 C560.49,514.7494 548.94,537.1894 540.24,557.1694 " fill="none" id="buildingService-to-building" style="stroke:#181818;stroke-width:1.0;"/><polygon fill="#181818" points="538.2,561.9294,545.4219,555.2327,540.1696,557.3336,538.0687,552.0814,538.2,561.9294" style="stroke:#181818;stroke-width:1.0;"/><text fill="#000000" font-family="sans-serif" font-size="13" lengthAdjust="spacing" textLength="44" x="575.5" y="511.1045">building</text></g><!--MD5=[757a3387a05b7b3cdba2fbf78f01d6d6]
link buildingService to buildingDTO--><g id="link_buildingService_buildingDTO"><path codeLine="77" d="M682.25,448.6194 C686.53,468.5894 692.9,493.4194 701.5,514.6094 C710.01,535.5894 722.51,557.5794 733.34,574.9594 " fill="none" id="buildingService-to-buildingDTO" style="stroke:#181818;stroke-width:1.0;"/><polygon fill="#181818" points="736.05,579.2794,734.6248,569.5342,733.3795,575.0523,727.8614,573.807,736.05,579.2794" style="stroke:#181818;stroke-width:1.0;"/><text fill="#000000" font-family="sans-serif" font-size="13" lengthAdjust="spacing" textLength="70" x="702.5" y="511.1045">buildingDTO</text></g><!--MD5=[00ea015c64527f2eb72589a9a6b4b244]
link buildingService to room--><g id="link_buildingService_room"><path codeLine="78" d="M720.78,448.6594 C738.6,463.4194 759.15,480.6594 777.5,496.6094 C804.14,519.7594 833.43,546.2794 856.75,567.6394 " fill="none" id="buildingService-to-room" style="stroke:#181818;stroke-width:1.0;"/><polygon fill="#181818" points="860.44,571.0194,856.518,561.9851,856.7578,567.6369,851.106,567.8766,860.44,571.0194" style="stroke:#181818;stroke-width:1.0;"/><text fill="#000000" font-family="sans-serif" font-size="13" lengthAdjust="spacing" textLength="29" x="799.5" y="511.1045">room</text></g><!--MD5=[ec9712d7599edae7991c5e11155e8663]
link buildingService to roomDTO--><g id="link_buildingService_roomDTO"><path codeLine="79" d="M550.99,424.4694 C439.89,440.1394 275.74,473.8794 149.5,544.6094 C135.28,552.5794 121.95,564.4594 111.11,575.7894 " fill="none" id="buildingService-to-roomDTO" style="stroke:#181818;stroke-width:1.0;"/><polygon fill="#181818" points="107.53,579.6094,116.5956,575.7604,110.9421,575.9546,110.7479,570.3011,107.53,579.6094" style="stroke:#181818;stroke-width:1.0;"/><text fill="#000000" font-family="sans-serif" font-size="13" lengthAdjust="spacing" textLength="55" x="244.5" y="511.1045">roomDTO</text></g><!--MD5=[5b991b070e21576981ead16053238e10]
link buildingRepo to buildingSchema--><g id="link_buildingRepo_buildingSchema"><path codeLine="80" d="M1061.93,647.2294 C1045.02,687.5394 1018.4,750.9894 1003.19,787.2394 " fill="none" id="buildingRepo-to-buildingSchema" style="stroke:#181818;stroke-width:1.0;"/><polygon fill="#181818" points="1001.21,791.9594,1008.3713,785.198,1003.1381,787.3461,1000.99,782.113,1001.21,791.9594" style="stroke:#181818;stroke-width:1.0;"/><text fill="#000000" font-family="sans-serif" font-size="13" lengthAdjust="spacing" textLength="46" x="1038.5" y="718.1045">schema</text></g><!--MD5=[f96ec7a5d46a9632754b269f5d6959aa]
link buildingController to roomMapper--><g id="link_buildingController_roomMapper"><path codeLine="83" d="M998.79,276.7094 C1028.98,299.4094 1065.7,327.0294 1097.83,351.1894 " fill="none" id="buildingController-to-roomMapper" style="stroke:#181818;stroke-width:1.0;stroke-dasharray:7.0,7.0;"/><polygon fill="#181818" points="1102.13,354.4294,1097.33,345.8294,1098.13,351.4294,1092.53,352.2294,1102.13,354.4294" style="stroke:#181818;stroke-width:1.0;"/></g><!--MD5=[941111c5943d3b3d67a0df17117426e5]
link buildingController to room--><g id="link_buildingController_room"><path codeLine="84" d="M935.08,276.9594 C931.86,333.2794 925.41,431.1294 915.5,514.6094 C913.51,531.3294 910.72,549.6394 908.07,565.5894 " fill="none" id="buildingController-to-room" style="stroke:#181818;stroke-width:1.0;stroke-dasharray:7.0,7.0;"/><polygon fill="#181818" points="907.19,570.8994,912.6229,562.6845,908.0166,565.9682,904.733,561.3619,907.19,570.8994" style="stroke:#181818;stroke-width:1.0;"/></g><!--MD5=[5766763ce15ca4262cef92468e103ed3]
link buildingController to roomDTO--><g id="link_buildingController_roomDTO"><path codeLine="85" d="M843.39,251.9194 C698.93,287.4094 417.23,367.7194 207.5,496.6094 C172.07,518.3794 137.51,551.0294 114.09,575.3794 " fill="none" id="buildingController-to-roomDTO" style="stroke:#181818;stroke-width:1.0;stroke-dasharray:7.0,7.0;"/><polygon fill="#181818" points="110.43,579.2094,119.5416,575.4705,113.8861,575.5962,113.7604,569.9407,110.43,579.2094" style="stroke:#181818;stroke-width:1.0;"/></g><!--MD5=[790c1f538cde786ebb6554e76adcf244]
link buildingController to buildingRepo--><g id="link_buildingController_buildingRepo"><path codeLine="86" d="M954.67,276.8994 C982.12,350.9194 1035.49,494.8294 1061.91,566.0694 " fill="none" id="buildingController-to-buildingRepo" style="stroke:#181818;stroke-width:1.0;stroke-dasharray:7.0,7.0;"/><polygon fill="#181818" points="1063.77,571.0794,1064.3815,561.2495,1062.0269,566.393,1056.8834,564.0385,1063.77,571.0794" style="stroke:#181818;stroke-width:1.0;"/></g><!--MD5=[4a75a19c242e5273e6c026d163e7324c]
link buildingService to buildingSchema--><g id="link_buildingService_buildingSchema"><path codeLine="87" d="M665.15,448.6494 C652.31,502.9494 637.21,605.0894 682.5,673.6094 C710.25,715.5994 838.24,764.4594 920.55,792.3894 " fill="none" id="buildingService-to-buildingSchema" style="stroke:#181818;stroke-width:1.0;stroke-dasharray:7.0,7.0;"/><polygon fill="#181818" points="925.41,794.0394,918.185,787.3462,920.6781,792.424,915.6003,794.9171,925.41,794.0394" style="stroke:#181818;stroke-width:1.0;"/></g><!--MD5=[1d1ddd844be1f795481cf61cb19dc06d]
link building to floor--><g id="link_building_floor"><path codeLine="89" d="M457.51,656.1494 C448.83,662.1294 440,668.0894 431.5,673.6094 C388.61,701.4894 340.28,730.7194 298.5,755.3294 " fill="none" id="building-floor" style="stroke:#181818;stroke-width:1.0;"/><polygon fill="#000000" points="381.2576,715.4313,390.4875,713.138,387.3768,708.1508,381.2576,715.4313" style="stroke:#000000;stroke-width:1.0;"/><text fill="#000000" font-family="sans-serif" font-size="13" lengthAdjust="spacing" textLength="21" x="394.5" y="718.1045">has</text><text fill="#000000" font-family="sans-serif" font-size="13" lengthAdjust="spacing" textLength="7" x="441.0192" y="677.4147">1</text><text fill="#000000" font-family="sans-serif" font-size="13" lengthAdjust="spacing" textLength="5" x="306.6539" y="747.5666">*</text></g><!--MD5=[795e9da6541f49f26a461713defed014]
link Floor to Room--><g id="link_Floor_Room"><path codeLine="91" d="M1531.5,99.2694 C1531.5,127.9294 1531.5,176.4694 1531.5,205.2294 " fill="none" id="Floor-Room" style="stroke:#181818;stroke-width:1.0;"/><polygon fill="#000000" points="1536.5,148.7852,1539.4389,139.7401,1533.5611,139.7401,1536.5,148.7852" style="stroke:#000000;stroke-width:1.0;"/><text fill="#000000" font-family="sans-serif" font-size="13" lengthAdjust="spacing" textLength="21" x="1545.5" y="149.1045">has</text><text fill="#000000" font-family="sans-serif" font-size="13" lengthAdjust="spacing" textLength="7" x="1523.6469" y="120.6463">1</text><text fill="#000000" font-family="sans-serif" font-size="13" lengthAdjust="spacing" textLength="5" x="1525.8906" y="194.8747">*</text></g><!--MD5=[43b6baa59e6b2b7f2090264f658e058b]
@startuml

title Class Diagram (CD) - US 310

'Classes
class buildingRoute <<Web>> {
}

class buildingController <<Controllers>> {
    +createRoom(json : String)
    -validate(json : String)
}

class buildingDTO <<DTO>> {
}

class roomDTO <<DTO>> {
}

class buildingService <<Use Cases>> {
    +createRoom(roomDTO : roomDTO)
}

class buildingRepo <<Gateways>> {
    +save(building : building)
}

class buildingMapper <<Mapper>> {
    +toDTO(json : String) : buildingDTO
    +toPersistence(building : building)
    +toDomain(building : building)
    +toJson(buildingDTO : buildingDTO)
}

class roomMapper <<Mapper>> {
    +toDTO(json : String) : roomDTO
    +toDomain(room : room)
    +toJson(roomDTO : roomDTO)
}

class building <<Domain>> {
    -floors : floor[]
    +getFloors() : floor[]
}

class floor <<Domain>> {
    -number : number
    -description : description
    +getNumber() : number
    +getDescription() : description
}

class room <<Domain>> {
    -name : string
}

class RoomName <<(V, #FF8B40) value object>>
class RoomCategory <<(V, #FF8B40) enum>>


'Navigation
building - -> buildingCode
building - -> buildingName
building - -> description
building - -> buildingDimension

floor - -> description

Room - -> RoomName
Room - -> RoomCategory
Room - -> Description

buildingRoute - -> buildingController : theController
buildingController - -> buildingService : service
buildingService - -> buildingMapper : mapper
buildingService - -> buildingRepo : repo
buildingService - -> building : building
buildingService - -> buildingDTO : buildingDTO
buildingService - -> room : room
buildingService - -> roomDTO : roomDTO
buildingRepo - -> buildingSchema : schema

'Dependencies
buildingController -[dashed]-> roomMapper
buildingController -[dashed]-> room
buildingController -[dashed]-> roomDTO
buildingController -[dashed]-> buildingRepo
buildingService -[dashed]-> buildingSchema

building "1" - - "*" floor : has >

Floor "1" - - "*" Room : has >

@enduml

@startuml

title Class Diagram (CD) - US 310

class buildingRoute <<Web>> {
}

class buildingController <<Controllers>> {
    +createRoom(json : String)
    -validate(json : String)
}

class buildingDTO <<DTO>> {
}

class roomDTO <<DTO>> {
}

class buildingService <<Use Cases>> {
    +createRoom(roomDTO : roomDTO)
}

class buildingRepo <<Gateways>> {
    +save(building : building)
}

class buildingMapper <<Mapper>> {
    +toDTO(json : String) : buildingDTO
    +toPersistence(building : building)
    +toDomain(building : building)
    +toJson(buildingDTO : buildingDTO)
}

class roomMapper <<Mapper>> {
    +toDTO(json : String) : roomDTO
    +toDomain(room : room)
    +toJson(roomDTO : roomDTO)
}

class building <<Domain>> {
    -floors : floor[]
    +getFloors() : floor[]
}

class floor <<Domain>> {
    -number : number
    -description : description
    +getNumber() : number
    +getDescription() : description
}

class room <<Domain>> {
    -name : string
}

class RoomName <<(V, #FF8B40) value object>>
class RoomCategory <<(V, #FF8B40) enum>>


building - -> buildingCode
building - -> buildingName
building - -> description
building - -> buildingDimension

floor - -> description

Room - -> RoomName
Room - -> RoomCategory
Room - -> Description

buildingRoute - -> buildingController : theController
buildingController - -> buildingService : service
buildingService - -> buildingMapper : mapper
buildingService - -> buildingRepo : repo
buildingService - -> building : building
buildingService - -> buildingDTO : buildingDTO
buildingService - -> room : room
buildingService - -> roomDTO : roomDTO
buildingRepo - -> buildingSchema : schema

buildingController -[dashed]-> roomMapper
buildingController -[dashed]-> room
buildingController -[dashed]-> roomDTO
buildingController -[dashed]-> buildingRepo
buildingService -[dashed]-> buildingSchema

building "1" - - "*" floor : has >

Floor "1" - - "*" Room : has >

@enduml

PlantUML version 1.2022.7(Mon Aug 22 18:01:30 WEST 2022)
(GPL source distribution)
Java Runtime: Java(TM) SE Runtime Environment
JVM: Java HotSpot(TM) 64-Bit Server VM
Default Encoding: Cp1252
Language: pt
Country: PT
--></g></svg>