<?xml version="1.0" encoding="UTF-8" standalone="no"?><svg xmlns="http://www.w3.org/2000/svg" xmlns:xlink="http://www.w3.org/1999/xlink" contentStyleType="text/css" height="442px" preserveAspectRatio="none" style="width:461px;height:442px;background:#FFFFFF;" version="1.1" viewBox="0 0 461 442" width="461px" zoomAndPan="magnify"><defs/><g><rect fill="none" height="41.4453" id="_title" style="stroke:none;stroke-width:1.0;" width="304" x="71.5" y="5"/><text fill="#000000" font-family="sans-serif" font-size="25" font-weight="bold" lengthAdjust="spacing" text-decoration="underline" textLength="294" x="76.5" y="35.9521">US 310 - Domain classes</text><!--MD5=[a8c72dcb0993599bf4f10d1dea215f72]
cluster <<aggregate>> Building--><g id="cluster_&lt;&lt;aggregate&gt;&gt; Building"><path d="M8.5,60.4385 L294.5,60.4385 A3.75,3.75 0 0 1 297,62.9385 L304,97.8838 L451.5,97.8838 A2.5,2.5 0 0 1 454,100.3838 L454,432.9385 A2.5,2.5 0 0 1 451.5,435.4385 L8.5,435.4385 A2.5,2.5 0 0 1 6,432.9385 L6,62.9385 A2.5,2.5 0 0 1 8.5,60.4385 " fill="none" style="stroke:#000000;stroke-width:1.5;"/><line style="stroke:#000000;stroke-width:1.5;" x1="6" x2="304" y1="97.8838" y2="97.8838"/><text fill="#000000" font-family="sans-serif" font-size="25" font-weight="bold" lengthAdjust="spacing" textLength="285" x="10" y="88.3906">&lt;&lt;aggregate&gt;&gt; Building</text></g><!--MD5=[b098efa4dd65edfeebe973e4edec7c36]
class Floor--><g id="elem_Floor"><rect codeLine="11" fill="#F1F1F1" height="68.3125" id="Floor" rx="2.5" ry="2.5" style="stroke:#181818;stroke-width:0.5;" width="71" x="87.5" y="110.4385"/><ellipse cx="102.5" cy="131.79" fill="#ADD1B2" rx="11" ry="11" style="stroke:#181818;stroke-width:1.0;"/><path d="M101.3594,132.5869 L101.3594,135.0869 L105.6875,135.0869 L105.6875,134.165 Q105.6875,133.5557 105.9219,133.29 Q106.1719,133.0244 106.5469,133.0244 Q106.9219,133.0244 107.1563,133.29 Q107.3906,133.5557 107.3906,134.165 L107.3906,136.79 L99.3906,136.79 Q98.7656,136.79 98.5,136.5557 Q98.25,136.3213 98.25,135.9307 Q98.25,135.5557 98.5156,135.3213 Q98.7813,135.0869 99.3906,135.0869 L99.6563,135.0869 L99.6563,128.4307 L99.3906,128.4307 Q98.7656,128.4307 98.5,128.1963 Q98.25,127.9619 98.25,127.5713 Q98.25,127.1963 98.5,126.9619 Q98.7656,126.7275 99.3906,126.7275 L107.0156,126.7275 L107.0156,129.3213 Q107.0156,129.9307 106.7813,130.1963 Q106.5625,130.4463 106.1719,130.4463 Q105.7969,130.4463 105.5625,130.1963 Q105.3281,129.9307 105.3281,129.3213 L105.3281,128.4307 L101.3594,128.4307 L101.3594,130.8838 L102.8438,130.8838 Q102.8438,130.2275 102.9688,130.04 Q103.2344,129.6338 103.7031,129.6338 Q104.0781,129.6338 104.3125,129.8994 Q104.5469,130.1494 104.5469,130.7588 L104.5469,132.7275 Q104.5469,133.2744 104.4219,133.4619 Q104.1563,133.8525 103.7031,133.8525 Q103.2344,133.8525 102.9688,133.4463 Q102.8438,133.2588 102.8438,132.5869 L101.3594,132.5869 Z " fill="#000000"/><text fill="#000000" font-family="sans-serif" font-size="12" font-style="italic" lengthAdjust="spacing" textLength="43" x="114.5" y="127.8955">«entity»</text><text fill="#000000" font-family="sans-serif" font-size="14" lengthAdjust="spacing" textLength="33" x="119.5" y="145.0654">Floor</text><line style="stroke:#181818;stroke-width:0.5;" x1="88.5" x2="157.5" y1="153.1416" y2="153.1416"/><text fill="#000000" font-family="sans-serif" font-size="14" lengthAdjust="spacing" textLength="48" x="93.5" y="171.6748">number</text></g><!--MD5=[009695af4e54f3bba8a9c60dca3e1c94]
class Description--><g id="elem_Description"><rect codeLine="15" fill="#F1F1F1" height="50.7031" id="Description" rx="2.5" ry="2.5" style="stroke:#181818;stroke-width:0.5;" width="109" x="22.5" y="368.4385"/><ellipse cx="37.5" cy="389.79" fill="#FF8B40" rx="11" ry="11" style="stroke:#181818;stroke-width:1.0;"/><path d="M38.0938,393.0557 L40.5625,387.1807 L40.1719,387.1807 Q39.5625,387.1807 39.2969,386.9463 Q39.0313,386.7119 39.0313,386.3213 Q39.0313,385.9463 39.2969,385.7119 Q39.5625,385.4775 40.1719,385.4775 L42.4531,385.4775 Q43.0625,385.4775 43.3281,385.7119 Q43.5938,385.9463 43.5938,386.3213 Q43.5938,386.79 43.1875,387.0557 Q43,387.1807 42.4063,387.1807 L38.9219,395.54 L37.2813,395.54 L33.7969,387.1807 Q33.2031,387.1807 33.0156,387.0557 Q32.6094,386.79 32.6094,386.3213 Q32.6094,385.9463 32.875,385.7119 Q33.1406,385.4775 33.75,385.4775 L36.0469,385.4775 Q36.6563,385.4775 36.9063,385.7119 Q37.1719,385.9463 37.1719,386.3213 Q37.1719,386.7119 36.9063,386.9463 Q36.6563,387.1807 36.0469,387.1807 L35.6406,387.1807 L38.0938,393.0557 Z " fill="#000000"/><text fill="#000000" font-family="sans-serif" font-size="12" font-style="italic" lengthAdjust="spacing" textLength="81" x="49.5" y="385.8955">«value object»</text><text fill="#000000" font-family="sans-serif" font-size="14" lengthAdjust="spacing" textLength="71" x="54.5" y="403.0654">Description</text><line style="stroke:#181818;stroke-width:0.5;" x1="23.5" x2="130.5" y1="411.1416" y2="411.1416"/></g><!--MD5=[d218c48b946d362ff1ecd879cabebcad]
class Room--><g id="elem_Room"><rect codeLine="17" fill="#F1F1F1" height="50.7031" id="Room" rx="2.5" ry="2.5" style="stroke:#181818;stroke-width:0.5;" width="71" x="167.5" y="256.4385"/><ellipse cx="182.5" cy="277.79" fill="#ADD1B2" rx="11" ry="11" style="stroke:#181818;stroke-width:1.0;"/><path d="M181.3594,278.5869 L181.3594,281.0869 L185.6875,281.0869 L185.6875,280.165 Q185.6875,279.5557 185.9219,279.29 Q186.1719,279.0244 186.5469,279.0244 Q186.9219,279.0244 187.1563,279.29 Q187.3906,279.5557 187.3906,280.165 L187.3906,282.79 L179.3906,282.79 Q178.7656,282.79 178.5,282.5557 Q178.25,282.3213 178.25,281.9307 Q178.25,281.5557 178.5156,281.3213 Q178.7813,281.0869 179.3906,281.0869 L179.6563,281.0869 L179.6563,274.4307 L179.3906,274.4307 Q178.7656,274.4307 178.5,274.1963 Q178.25,273.9619 178.25,273.5713 Q178.25,273.1963 178.5,272.9619 Q178.7656,272.7275 179.3906,272.7275 L187.0156,272.7275 L187.0156,275.3213 Q187.0156,275.9307 186.7813,276.1963 Q186.5625,276.4463 186.1719,276.4463 Q185.7969,276.4463 185.5625,276.1963 Q185.3281,275.9307 185.3281,275.3213 L185.3281,274.4307 L181.3594,274.4307 L181.3594,276.8838 L182.8438,276.8838 Q182.8438,276.2275 182.9688,276.04 Q183.2344,275.6338 183.7031,275.6338 Q184.0781,275.6338 184.3125,275.8994 Q184.5469,276.1494 184.5469,276.7588 L184.5469,278.7275 Q184.5469,279.2744 184.4219,279.4619 Q184.1563,279.8525 183.7031,279.8525 Q183.2344,279.8525 182.9688,279.4463 Q182.8438,279.2588 182.8438,278.5869 L181.3594,278.5869 Z " fill="#000000"/><text fill="#000000" font-family="sans-serif" font-size="12" font-style="italic" lengthAdjust="spacing" textLength="43" x="194.5" y="273.8955">«entity»</text><text fill="#000000" font-family="sans-serif" font-size="14" lengthAdjust="spacing" textLength="37" x="197.5" y="291.0654">Room</text><line style="stroke:#181818;stroke-width:0.5;" x1="168.5" x2="237.5" y1="299.1416" y2="299.1416"/></g><!--MD5=[b4bfad73b08c8f15addfbfdeea39636e]
class RoomName--><g id="elem_RoomName"><rect codeLine="18" fill="#F1F1F1" height="50.7031" id="RoomName" rx="2.5" ry="2.5" style="stroke:#181818;stroke-width:0.5;" width="109" x="166.5" y="368.4385"/><ellipse cx="181.5" cy="389.79" fill="#FF8B40" rx="11" ry="11" style="stroke:#181818;stroke-width:1.0;"/><path d="M182.0938,393.0557 L184.5625,387.1807 L184.1719,387.1807 Q183.5625,387.1807 183.2969,386.9463 Q183.0313,386.7119 183.0313,386.3213 Q183.0313,385.9463 183.2969,385.7119 Q183.5625,385.4775 184.1719,385.4775 L186.4531,385.4775 Q187.0625,385.4775 187.3281,385.7119 Q187.5938,385.9463 187.5938,386.3213 Q187.5938,386.79 187.1875,387.0557 Q187,387.1807 186.4063,387.1807 L182.9219,395.54 L181.2813,395.54 L177.7969,387.1807 Q177.2031,387.1807 177.0156,387.0557 Q176.6094,386.79 176.6094,386.3213 Q176.6094,385.9463 176.875,385.7119 Q177.1406,385.4775 177.75,385.4775 L180.0469,385.4775 Q180.6563,385.4775 180.9063,385.7119 Q181.1719,385.9463 181.1719,386.3213 Q181.1719,386.7119 180.9063,386.9463 Q180.6563,387.1807 180.0469,387.1807 L179.6406,387.1807 L182.0938,393.0557 Z " fill="#000000"/><text fill="#000000" font-family="sans-serif" font-size="12" font-style="italic" lengthAdjust="spacing" textLength="81" x="193.5" y="385.8955">«value object»</text><text fill="#000000" font-family="sans-serif" font-size="14" lengthAdjust="spacing" textLength="73" x="197.5" y="403.0654">RoomName</text><line style="stroke:#181818;stroke-width:0.5;" x1="167.5" x2="274.5" y1="411.1416" y2="411.1416"/></g><!--MD5=[ea420d35c18f469482e294cb2458608e]
class RoomCategory--><g id="elem_RoomCategory"><rect codeLine="20" fill="#F1F1F1" height="50.7031" id="RoomCategory" rx="2.5" ry="2.5" style="stroke:#181818;stroke-width:0.5;" width="127" x="310.5" y="368.4385"/><ellipse cx="325.5" cy="389.79" fill="#FF8B40" rx="11" ry="11" style="stroke:#181818;stroke-width:1.0;"/><path d="M326.0938,393.0557 L328.5625,387.1807 L328.1719,387.1807 Q327.5625,387.1807 327.2969,386.9463 Q327.0313,386.7119 327.0313,386.3213 Q327.0313,385.9463 327.2969,385.7119 Q327.5625,385.4775 328.1719,385.4775 L330.4531,385.4775 Q331.0625,385.4775 331.3281,385.7119 Q331.5938,385.9463 331.5938,386.3213 Q331.5938,386.79 331.1875,387.0557 Q331,387.1807 330.4063,387.1807 L326.9219,395.54 L325.2813,395.54 L321.7969,387.1807 Q321.2031,387.1807 321.0156,387.0557 Q320.6094,386.79 320.6094,386.3213 Q320.6094,385.9463 320.875,385.7119 Q321.1406,385.4775 321.75,385.4775 L324.0469,385.4775 Q324.6563,385.4775 324.9063,385.7119 Q325.1719,385.9463 325.1719,386.3213 Q325.1719,386.7119 324.9063,386.9463 Q324.6563,387.1807 324.0469,387.1807 L323.6406,387.1807 L326.0938,393.0557 Z " fill="#000000"/><text fill="#000000" font-family="sans-serif" font-size="12" font-style="italic" lengthAdjust="spacing" textLength="46" x="364" y="385.8955">«enum»</text><text fill="#000000" font-family="sans-serif" font-size="14" lengthAdjust="spacing" textLength="95" x="339.5" y="403.0654">RoomCategory</text><line style="stroke:#181818;stroke-width:0.5;" x1="311.5" x2="436.5" y1="411.1416" y2="411.1416"/></g><!--MD5=[1e45313e092a4be992fb2977d3ec926a]
link Floor to Description--><g id="link_Floor_Description"><path codeLine="23" d="M116.84,178.5585 C107.84,227.0085 91.21,316.4885 82.56,363.0385 " fill="none" id="Floor-to-Description" style="stroke:#181818;stroke-width:1.0;"/><polygon fill="#181818" points="81.59,368.2285,87.1687,360.1119,82.5045,363.3128,79.3037,358.6487,81.59,368.2285" style="stroke:#181818;stroke-width:1.0;"/></g><!--MD5=[aab667148c96bf2615dd2533617eaefb]
link Room to RoomName--><g id="link_Room_RoomName"><path codeLine="25" d="M207.04,307.6285 C209.73,324.0385 213.27,345.6985 216.12,363.0885 " fill="none" id="Room-to-RoomName" style="stroke:#181818;stroke-width:1.0;"/><polygon fill="#181818" points="216.97,368.3385,219.4763,358.8139,216.1689,363.4031,211.5797,360.0956,216.97,368.3385" style="stroke:#181818;stroke-width:1.0;"/></g><!--MD5=[3ad1e65c7d6af55c9da8c6196df9a73d]
link Room to RoomCategory--><g id="link_Room_RoomCategory"><path codeLine="26" d="M238.85,305.9985 C265.81,323.3385 302.84,347.1685 331.33,365.4885 " fill="none" id="Room-to-RoomCategory" style="stroke:#181818;stroke-width:1.0;"/><polygon fill="#181818" points="335.83,368.3785,330.4422,360.134,331.6306,365.6646,326.1,366.853,335.83,368.3785" style="stroke:#181818;stroke-width:1.0;"/></g><!--MD5=[b19ce8236ea3b2e01bcf891b4adcd3c4]
link Room to Description--><g id="link_Room_Description"><path codeLine="27" d="M174.72,307.6285 C155.27,324.6085 129.39,347.1985 109.15,364.8685 " fill="none" id="Room-to-Description" style="stroke:#181818;stroke-width:1.0;"/><polygon fill="#181818" points="105.18,368.3385,114.5935,365.4425,108.95,365.054,109.3384,359.4105,105.18,368.3385" style="stroke:#181818;stroke-width:1.0;"/></g><!--MD5=[795e9da6541f49f26a461713defed014]
link Floor to Room--><g id="link_Floor_Room"><path codeLine="29" d="M142.57,178.5885 C156.73,202.5585 175.55,234.4385 188.4,256.2085 " fill="none" id="Floor-Room" style="stroke:#181818;stroke-width:1.0;"/><polygon fill="#000000" points="177.5422,221.9198,175.4741,212.6368,170.4126,215.6253,177.5422,221.9198" style="stroke:#000000;stroke-width:1.0;"/><text fill="#000000" font-family="sans-serif" font-size="13" lengthAdjust="spacing" textLength="21" x="184" y="222.9336">has</text><text fill="#000000" font-family="sans-serif" font-size="13" lengthAdjust="spacing" textLength="7" x="138.6333" y="200.1222">1</text><text fill="#000000" font-family="sans-serif" font-size="13" lengthAdjust="spacing" textLength="5" x="179.2319" y="245.5609">*</text></g><!--MD5=[61b380d501019a4f54166a2a0135ed8f]
@startuml

skinparam titleFontSize 25
title <u>US 310 - Domain classes</u>

hide methods
skinparam classAttributeIconSize 0

'Building aggregate
package "<<aggregate>> Building" {

    entity Floor <<entity>> {
        number
    }

    class Description <<(V, #FF8B40) value object>>

    entity Room <<entity>>
    class RoomName <<(V, #FF8B40) value object>>

    class RoomCategory <<(V, #FF8B40) enum>>     
}

Floor - -> Description

Room - -> RoomName
Room - -> RoomCategory
Room - -> Description

Floor "1" - - "*" Room : has >

@enduml

@startuml

skinparam titleFontSize 25
title <u>US 310 - Domain classes</u>

hide methods
skinparam classAttributeIconSize 0

package "<<aggregate>> Building" {

    entity Floor <<entity>> {
        number
    }

    class Description <<(V, #FF8B40) value object>>

    entity Room <<entity>>
    class RoomName <<(V, #FF8B40) value object>>

    class RoomCategory <<(V, #FF8B40) enum>>     
}

Floor - -> Description

Room - -> RoomName
Room - -> RoomCategory
Room - -> Description

Floor "1" - - "*" Room : has >

@enduml

PlantUML version 1.2022.7(Mon Aug 22 18:01:30 WEST 2022)
(GPL source distribution)
Java Runtime: Java(TM) SE Runtime Environment
JVM: Java HotSpot(TM) 64-Bit Server VM
Default Encoding: Cp1252
Language: pt
Country: PT
--></g></svg>