<?xml version="1.0" encoding="UTF-8" standalone="no"?><svg xmlns="http://www.w3.org/2000/svg" xmlns:xlink="http://www.w3.org/1999/xlink" contentStyleType="text/css" height="1619px" preserveAspectRatio="none" style="width:2461px;height:1619px;background:#FFFFFF;" version="1.1" viewBox="0 0 2461 1619" width="2461px" zoomAndPan="magnify"><defs/><g><rect fill="none" height="27.6094" id="_title" style="stroke:none;stroke-width:1.0;" width="235" x="1112.25" y="10"/><text fill="#000000" font-family="sans-serif" font-size="14" font-weight="bold" lengthAdjust="spacing" textLength="225" x="1117.25" y="29.5332">Sequence Diagram (SD) - US 310</text><rect fill="#FFFFFF" height="1334.4609" style="stroke:#181818;stroke-width:1.0;" width="10" x="62.5" y="152.4375"/><rect fill="#FFFFFF" height="1312.1094" style="stroke:#181818;stroke-width:1.0;" width="10" x="276.5" y="174.7891"/><rect fill="#FFFFFF" height="1251.4063" style="stroke:#181818;stroke-width:1.0;" width="10" x="438.5" y="205.1406"/><rect fill="#FFFFFF" height="28" style="stroke:#181818;stroke-width:1.0;" width="10" x="443.5" y="243.4922"/><rect fill="#FFFFFF" height="887.9922" style="stroke:#181818;stroke-width:1.0;" width="10" x="732" y="417.0234"/><rect fill="#FFFFFF" height="459.1719" style="stroke:#181818;stroke-width:1.0;" width="10" x="1025.5" y="555.5547"/><rect fill="#FFFFFF" height="212.4609" style="stroke:#181818;stroke-width:1.0;" width="10" x="1241.5" y="585.9063"/><rect fill="#FFFFFF" height="30.3516" style="stroke:#181818;stroke-width:1.0;" width="10" x="1241.5" y="984.375"/><rect fill="#FFFFFF" height="212.4609" style="stroke:#181818;stroke-width:1.0;" width="10" x="1241.5" y="1092.5547"/><rect fill="#FFFFFF" height="30.3516" style="stroke:#181818;stroke-width:1.0;" width="10" x="1357" y="308.8438"/><rect fill="#FFFFFF" height="30.3516" style="stroke:#181818;stroke-width:1.0;" width="10" x="1958.5" y="876.1953"/><line style="stroke:#181818;stroke-width:0.5;stroke-dasharray:5.0,5.0;" x1="67" x2="67" y1="142.4375" y2="1504.8984"/><line style="stroke:#181818;stroke-width:0.5;stroke-dasharray:5.0,5.0;" x1="281" x2="281" y1="142.4375" y2="1504.8984"/><line style="stroke:#181818;stroke-width:0.5;stroke-dasharray:5.0,5.0;" x1="443" x2="443" y1="142.4375" y2="1504.8984"/><line style="stroke:#181818;stroke-width:0.5;stroke-dasharray:5.0,5.0;" x1="625" x2="625" y1="365.7578" y2="1504.8984"/><line style="stroke:#181818;stroke-width:0.5;stroke-dasharray:5.0,5.0;" x1="737" x2="737" y1="142.4375" y2="1504.8984"/><line style="stroke:#181818;stroke-width:0.5;stroke-dasharray:5.0,5.0;" x1="845" x2="845" y1="142.4375" y2="1504.8984"/><line style="stroke:#181818;stroke-width:0.5;stroke-dasharray:5.0,5.0;" x1="933" x2="933" y1="473.9375" y2="1504.8984"/><line style="stroke:#181818;stroke-width:0.5;stroke-dasharray:5.0,5.0;" x1="1030" x2="1030" y1="142.4375" y2="1504.8984"/><line style="stroke:#181818;stroke-width:0.5;stroke-dasharray:5.0,5.0;" x1="1246.5" x2="1246.5" y1="142.4375" y2="1504.8984"/><line style="stroke:#181818;stroke-width:0.5;stroke-dasharray:5.0,5.0;" x1="1361.5" x2="1361.5" y1="142.4375" y2="1504.8984"/><line style="stroke:#181818;stroke-width:0.5;stroke-dasharray:5.0,5.0;" x1="1711.5" x2="1711.5" y1="1331.5781" y2="1504.8984"/><line style="stroke:#181818;stroke-width:0.5;stroke-dasharray:5.0,5.0;" x1="1841.5" x2="1841.5" y1="824.9297" y2="1504.8984"/><line style="stroke:#181818;stroke-width:0.5;stroke-dasharray:5.0,5.0;" x1="1963.5" x2="1963.5" y1="142.4375" y2="1504.8984"/><line style="stroke:#181818;stroke-width:0.5;stroke-dasharray:5.0,5.0;" x1="2089.5" x2="2089.5" y1="1041.2891" y2="1504.8984"/><line style="stroke:#181818;stroke-width:0.5;stroke-dasharray:5.0,5.0;" x1="2312.5" x2="2312.5" y1="933.1094" y2="1504.8984"/><line style="stroke:#181818;stroke-width:0.5;stroke-dasharray:5.0,5.0;" x1="2423.5" x2="2423.5" y1="142.4375" y2="1504.8984"/><text fill="#000000" font-family="sans-serif" font-size="14" lengthAdjust="spacing" textLength="119" x="5" y="139.3613">Gestor de Campus</text><ellipse cx="67.5" cy="73.3281" fill="#E3E3E3" rx="8" ry="8" style="stroke:#181818;stroke-width:0.5;"/><path d="M67.5,81.3281 L67.5,108.3281 M54.5,89.3281 L80.5,89.3281 M67.5,108.3281 L54.5,123.3281 M67.5,108.3281 L80.5,123.3281 " fill="none" style="stroke:#181818;stroke-width:0.5;"/><text fill="#000000" font-family="sans-serif" font-size="14" lengthAdjust="spacing" textLength="119" x="5" y="1518.4316">Gestor de Campus</text><ellipse cx="67.5" cy="1530.0078" fill="#E3E3E3" rx="8" ry="8" style="stroke:#181818;stroke-width:0.5;"/><path d="M67.5,1538.0078 L67.5,1565.0078 M54.5,1546.0078 L80.5,1546.0078 M67.5,1565.0078 L54.5,1580.0078 M67.5,1565.0078 L80.5,1580.0078 " fill="none" style="stroke:#181818;stroke-width:0.5;"/><rect fill="#E3E3E3" height="49.2188" rx="2.5" ry="2.5" style="stroke:#181818;stroke-width:0.5;" width="101" x="231" y="92.2188"/><text fill="#000000" font-family="sans-serif" font-size="14" font-style="italic" lengthAdjust="spacing" textLength="46" x="258.5" y="113.752">«Web»</text><text fill="#000000" font-family="sans-serif" font-size="14" lengthAdjust="spacing" textLength="87" x="238" y="131.3613">buildingRoute</text><rect fill="#E3E3E3" height="49.2188" rx="2.5" ry="2.5" style="stroke:#181818;stroke-width:0.5;" width="101" x="231" y="1503.8984"/><text fill="#000000" font-family="sans-serif" font-size="14" font-style="italic" lengthAdjust="spacing" textLength="46" x="258.5" y="1525.4316">«Web»</text><text fill="#000000" font-family="sans-serif" font-size="14" lengthAdjust="spacing" textLength="87" x="238" y="1543.041">buildingRoute</text><text fill="#000000" font-family="sans-serif" font-size="14" font-style="italic" lengthAdjust="spacing" textLength="85" x="398" y="104.1426">«Controllers»</text><text fill="#000000" font-family="sans-serif" font-size="14" lengthAdjust="spacing" textLength="119" x="381" y="121.752">buildingController :</text><text fill="#000000" font-family="sans-serif" font-size="14" lengthAdjust="spacing" textLength="111" x="387" y="139.3613">buildingController</text><ellipse cx="443.5" cy="73.6094" fill="#E3E3E3" rx="12" ry="12" style="stroke:#181818;stroke-width:0.5;"/><polygon fill="#181818" points="439.5,61.6094,445.5,56.6094,443.5,61.6094,445.5,66.6094,439.5,61.6094" style="stroke:#181818;stroke-width:1.0;"/><text fill="#000000" font-family="sans-serif" font-size="14" font-style="italic" lengthAdjust="spacing" textLength="85" x="398" y="1518.4316">«Controllers»</text><text fill="#000000" font-family="sans-serif" font-size="14" lengthAdjust="spacing" textLength="119" x="381" y="1536.041">buildingController :</text><text fill="#000000" font-family="sans-serif" font-size="14" lengthAdjust="spacing" textLength="111" x="387" y="1553.6504">buildingController</text><ellipse cx="443.5" cy="1572.7266" fill="#E3E3E3" rx="12" ry="12" style="stroke:#181818;stroke-width:0.5;"/><polygon fill="#181818" points="439.5,1560.7266,445.5,1555.7266,443.5,1560.7266,445.5,1565.7266,439.5,1560.7266" style="stroke:#181818;stroke-width:1.0;"/><rect fill="#E3E3E3" height="66.8281" rx="2.5" ry="2.5" style="stroke:#181818;stroke-width:0.5;" width="85" x="583" y="1503.8984"/><text fill="#000000" font-family="sans-serif" font-size="14" font-style="italic" lengthAdjust="spacing" textLength="46" x="602.5" y="1525.4316">«DTO»</text><text fill="#000000" font-family="sans-serif" font-size="14" lengthAdjust="spacing" textLength="70" x="590.5" y="1543.041">roomDTO :</text><text fill="#000000" font-family="sans-serif" font-size="14" lengthAdjust="spacing" textLength="67" x="594" y="1560.6504">RoomDTO</text><rect fill="#E3E3E3" height="66.8281" rx="2.5" ry="2.5" style="stroke:#181818;stroke-width:0.5;" width="118" x="678" y="74.6094"/><text fill="#000000" font-family="sans-serif" font-size="14" font-style="italic" lengthAdjust="spacing" textLength="85" x="694.5" y="96.1426">«Use Cases»</text><text fill="#000000" font-family="sans-serif" font-size="14" lengthAdjust="spacing" textLength="104" x="685" y="113.752">buildingService :</text><text fill="#000000" font-family="sans-serif" font-size="14" lengthAdjust="spacing" textLength="96" x="691" y="131.3613">buildingService</text><rect fill="#E3E3E3" height="66.8281" rx="2.5" ry="2.5" style="stroke:#181818;stroke-width:0.5;" width="118" x="678" y="1503.8984"/><text fill="#000000" font-family="sans-serif" font-size="14" font-style="italic" lengthAdjust="spacing" textLength="85" x="694.5" y="1525.4316">«Use Cases»</text><text fill="#000000" font-family="sans-serif" font-size="14" lengthAdjust="spacing" textLength="104" x="685" y="1543.041">buildingService :</text><text fill="#000000" font-family="sans-serif" font-size="14" lengthAdjust="spacing" textLength="96" x="691" y="1560.6504">buildingService</text><rect fill="#E3E3E3" height="66.8281" rx="2.5" ry="2.5" style="stroke:#181818;stroke-width:0.5;" width="78" x="806" y="74.6094"/><text fill="#000000" font-family="sans-serif" font-size="14" font-style="italic" lengthAdjust="spacing" textLength="64" x="813" y="96.1426">«Domain»</text><text fill="#000000" font-family="sans-serif" font-size="14" lengthAdjust="spacing" textLength="36" x="827" y="113.752">floor :</text><text fill="#000000" font-family="sans-serif" font-size="14" lengthAdjust="spacing" textLength="28" x="833" y="131.3613">floor</text><rect fill="#E3E3E3" height="66.8281" rx="2.5" ry="2.5" style="stroke:#181818;stroke-width:0.5;" width="78" x="806" y="1503.8984"/><text fill="#000000" font-family="sans-serif" font-size="14" font-style="italic" lengthAdjust="spacing" textLength="64" x="813" y="1525.4316">«Domain»</text><text fill="#000000" font-family="sans-serif" font-size="14" lengthAdjust="spacing" textLength="36" x="827" y="1543.041">floor :</text><text fill="#000000" font-family="sans-serif" font-size="14" lengthAdjust="spacing" textLength="28" x="833" y="1560.6504">floor</text><rect fill="#E3E3E3" height="66.8281" rx="2.5" ry="2.5" style="stroke:#181818;stroke-width:0.5;" width="78" x="894" y="1503.8984"/><text fill="#000000" font-family="sans-serif" font-size="14" font-style="italic" lengthAdjust="spacing" textLength="64" x="901" y="1525.4316">«Domain»</text><text fill="#000000" font-family="sans-serif" font-size="14" lengthAdjust="spacing" textLength="40" x="913" y="1543.041">room :</text><text fill="#000000" font-family="sans-serif" font-size="14" lengthAdjust="spacing" textLength="32" x="919" y="1560.6504">room</text><text fill="#000000" font-family="sans-serif" font-size="14" font-style="italic" lengthAdjust="spacing" textLength="78" x="988.5" y="104.1426">«Gateways»</text><text fill="#000000" font-family="sans-serif" font-size="14" lengthAdjust="spacing" textLength="91" x="982" y="121.752">buildingRepo :</text><text fill="#000000" font-family="sans-serif" font-size="14" lengthAdjust="spacing" textLength="83" x="988" y="139.3613">buildingRepo</text><path d="M1012.5,53.6094 C1012.5,43.6094 1030.5,43.6094 1030.5,43.6094 C1030.5,43.6094 1048.5,43.6094 1048.5,53.6094 L1048.5,79.6094 C1048.5,89.6094 1030.5,89.6094 1030.5,89.6094 C1030.5,89.6094 1012.5,89.6094 1012.5,79.6094 L1012.5,53.6094 " fill="#E3E3E3" style="stroke:#181818;stroke-width:1.5;"/><path d="M1012.5,53.6094 C1012.5,63.6094 1030.5,63.6094 1030.5,63.6094 C1030.5,63.6094 1048.5,63.6094 1048.5,53.6094 " fill="none" style="stroke:#181818;stroke-width:1.5;"/><text fill="#000000" font-family="sans-serif" font-size="14" font-style="italic" lengthAdjust="spacing" textLength="78" x="988.5" y="1518.4316">«Gateways»</text><text fill="#000000" font-family="sans-serif" font-size="14" lengthAdjust="spacing" textLength="91" x="982" y="1536.041">buildingRepo :</text><text fill="#000000" font-family="sans-serif" font-size="14" lengthAdjust="spacing" textLength="83" x="988" y="1553.6504">buildingRepo</text><path d="M1012.5,1566.7266 C1012.5,1556.7266 1030.5,1556.7266 1030.5,1556.7266 C1030.5,1556.7266 1048.5,1556.7266 1048.5,1566.7266 L1048.5,1592.7266 C1048.5,1602.7266 1030.5,1602.7266 1030.5,1602.7266 C1030.5,1602.7266 1012.5,1602.7266 1012.5,1592.7266 L1012.5,1566.7266 " fill="#E3E3E3" style="stroke:#181818;stroke-width:1.5;"/><path d="M1012.5,1566.7266 C1012.5,1576.7266 1030.5,1576.7266 1030.5,1576.7266 C1030.5,1576.7266 1048.5,1576.7266 1048.5,1566.7266 " fill="none" style="stroke:#181818;stroke-width:1.5;"/><rect fill="#E3E3E3" height="49.2188" rx="2.5" ry="2.5" style="stroke:#181818;stroke-width:0.5;" width="112" x="1190.5" y="92.2188"/><text fill="#000000" font-family="sans-serif" font-size="14" font-style="italic" lengthAdjust="spacing" textLength="65" x="1214" y="113.752">«Mapper»</text><text fill="#000000" font-family="sans-serif" font-size="14" lengthAdjust="spacing" textLength="98" x="1197.5" y="131.3613">BuildingMapper</text><rect fill="#E3E3E3" height="49.2188" rx="2.5" ry="2.5" style="stroke:#181818;stroke-width:0.5;" width="112" x="1190.5" y="1503.8984"/><text fill="#000000" font-family="sans-serif" font-size="14" font-style="italic" lengthAdjust="spacing" textLength="65" x="1214" y="1525.4316">«Mapper»</text><text fill="#000000" font-family="sans-serif" font-size="14" lengthAdjust="spacing" textLength="98" x="1197.5" y="1543.041">BuildingMapper</text><rect fill="#E3E3E3" height="49.2188" rx="2.5" ry="2.5" style="stroke:#181818;stroke-width:0.5;" width="99" x="1312.5" y="92.2188"/><text fill="#000000" font-family="sans-serif" font-size="14" font-style="italic" lengthAdjust="spacing" textLength="65" x="1329.5" y="113.752">«Mapper»</text><text fill="#000000" font-family="sans-serif" font-size="14" lengthAdjust="spacing" textLength="85" x="1319.5" y="131.3613">RoomMapper</text><rect fill="#E3E3E3" height="49.2188" rx="2.5" ry="2.5" style="stroke:#181818;stroke-width:0.5;" width="99" x="1312.5" y="1503.8984"/><text fill="#000000" font-family="sans-serif" font-size="14" font-style="italic" lengthAdjust="spacing" textLength="65" x="1329.5" y="1525.4316">«Mapper»</text><text fill="#000000" font-family="sans-serif" font-size="14" lengthAdjust="spacing" textLength="85" x="1319.5" y="1543.041">RoomMapper</text><rect fill="#E3E3E3" height="66.8281" rx="2.5" ry="2.5" style="stroke:#181818;stroke-width:0.5;" width="140" x="1641.5" y="1503.8984"/><text fill="#000000" font-family="sans-serif" font-size="14" font-style="italic" lengthAdjust="spacing" textLength="46" x="1688.5" y="1525.4316">«DTO»</text><text fill="#000000" font-family="sans-serif" font-size="14" lengthAdjust="spacing" textLength="126" x="1648.5" y="1543.041">savedBuildingDTO :</text><text fill="#000000" font-family="sans-serif" font-size="14" lengthAdjust="spacing" textLength="80" x="1673.5" y="1560.6504">BuildingDTO</text><rect fill="#E3E3E3" height="66.8281" rx="2.5" ry="2.5" style="stroke:#181818;stroke-width:0.5;" width="101" x="1791.5" y="1503.8984"/><text fill="#000000" font-family="sans-serif" font-size="14" font-style="italic" lengthAdjust="spacing" textLength="64" x="1810" y="1525.4316">«Domain»</text><text fill="#000000" font-family="sans-serif" font-size="14" lengthAdjust="spacing" textLength="87" x="1798.5" y="1543.041">buildingData :</text><text fill="#000000" font-family="sans-serif" font-size="14" lengthAdjust="spacing" textLength="49" x="1819.5" y="1560.6504">building</text><rect fill="#E3E3E3" height="66.8281" rx="2.5" ry="2.5" style="stroke:#181818;stroke-width:0.5;" width="122" x="1902.5" y="74.6094"/><text fill="#000000" font-family="sans-serif" font-size="14" font-style="italic" lengthAdjust="spacing" textLength="35" x="1946" y="96.1426">«DB»</text><text fill="#000000" font-family="sans-serif" font-size="14" lengthAdjust="spacing" textLength="108" x="1909.5" y="113.752">buildingSchema :</text><text fill="#000000" font-family="sans-serif" font-size="14" lengthAdjust="spacing" textLength="100" x="1915.5" y="131.3613">buildingSchema</text><rect fill="#E3E3E3" height="66.8281" rx="2.5" ry="2.5" style="stroke:#181818;stroke-width:0.5;" width="122" x="1902.5" y="1503.8984"/><text fill="#000000" font-family="sans-serif" font-size="14" font-style="italic" lengthAdjust="spacing" textLength="35" x="1946" y="1525.4316">«DB»</text><text fill="#000000" font-family="sans-serif" font-size="14" lengthAdjust="spacing" textLength="108" x="1909.5" y="1543.041">buildingSchema :</text><text fill="#000000" font-family="sans-serif" font-size="14" lengthAdjust="spacing" textLength="100" x="1915.5" y="1560.6504">buildingSchema</text><rect fill="#E3E3E3" height="66.8281" rx="2.5" ry="2.5" style="stroke:#181818;stroke-width:0.5;" width="110" x="2034.5" y="1503.8984"/><text fill="#000000" font-family="sans-serif" font-size="14" font-style="italic" lengthAdjust="spacing" textLength="64" x="2057.5" y="1525.4316">«Domain»</text><text fill="#000000" font-family="sans-serif" font-size="14" lengthAdjust="spacing" textLength="96" x="2041.5" y="1543.041">savedBuilding :</text><text fill="#000000" font-family="sans-serif" font-size="14" lengthAdjust="spacing" textLength="49" x="2067" y="1560.6504">building</text><rect fill="#E3E3E3" height="66.8281" rx="2.5" ry="2.5" style="stroke:#181818;stroke-width:0.5;" width="140" x="2242.5" y="1503.8984"/><text fill="#000000" font-family="sans-serif" font-size="14" font-style="italic" lengthAdjust="spacing" textLength="64" x="2280.5" y="1525.4316">«Domain»</text><text fill="#000000" font-family="sans-serif" font-size="14" lengthAdjust="spacing" textLength="126" x="2249.5" y="1543.041">savedBuildingData :</text><text fill="#000000" font-family="sans-serif" font-size="14" lengthAdjust="spacing" textLength="49" x="2290" y="1560.6504">building</text><rect fill="#E3E3E3" height="31.6094" rx="2.5" ry="2.5" style="stroke:#181818;stroke-width:0.5;" width="63" x="2392.5" y="109.8281"/><text fill="#000000" font-family="sans-serif" font-size="14" lengthAdjust="spacing" textLength="49" x="2399.5" y="131.3613">building</text><rect fill="#E3E3E3" height="31.6094" rx="2.5" ry="2.5" style="stroke:#181818;stroke-width:0.5;" width="63" x="2392.5" y="1503.8984"/><text fill="#000000" font-family="sans-serif" font-size="14" lengthAdjust="spacing" textLength="49" x="2399.5" y="1525.4316">building</text><rect fill="#FFFFFF" height="1334.4609" style="stroke:#181818;stroke-width:1.0;" width="10" x="62.5" y="152.4375"/><rect fill="#FFFFFF" height="1312.1094" style="stroke:#181818;stroke-width:1.0;" width="10" x="276.5" y="174.7891"/><rect fill="#FFFFFF" height="1251.4063" style="stroke:#181818;stroke-width:1.0;" width="10" x="438.5" y="205.1406"/><rect fill="#FFFFFF" height="28" style="stroke:#181818;stroke-width:1.0;" width="10" x="443.5" y="243.4922"/><rect fill="#FFFFFF" height="887.9922" style="stroke:#181818;stroke-width:1.0;" width="10" x="732" y="417.0234"/><rect fill="#FFFFFF" height="459.1719" style="stroke:#181818;stroke-width:1.0;" width="10" x="1025.5" y="555.5547"/><rect fill="#FFFFFF" height="212.4609" style="stroke:#181818;stroke-width:1.0;" width="10" x="1241.5" y="585.9063"/><rect fill="#FFFFFF" height="30.3516" style="stroke:#181818;stroke-width:1.0;" width="10" x="1241.5" y="984.375"/><rect fill="#FFFFFF" height="212.4609" style="stroke:#181818;stroke-width:1.0;" width="10" x="1241.5" y="1092.5547"/><rect fill="#FFFFFF" height="30.3516" style="stroke:#181818;stroke-width:1.0;" width="10" x="1357" y="308.8438"/><rect fill="#FFFFFF" height="30.3516" style="stroke:#181818;stroke-width:1.0;" width="10" x="1958.5" y="876.1953"/><polygon fill="#181818" points="264.5,170.7891,274.5,174.7891,264.5,178.7891,268.5,174.7891" style="stroke:#181818;stroke-width:1.0;"/><line style="stroke:#181818;stroke-width:1.0;" x1="72.5" x2="270.5" y1="174.7891" y2="174.7891"/><text fill="#000000" font-family="sans-serif" font-size="13" font-weight="bold" lengthAdjust="spacing" textLength="7" x="79.5" y="169.9326">1</text><text fill="#000000" font-family="sans-serif" font-size="13" lengthAdjust="spacing" textLength="174" x="90.5" y="169.9326">Post / buildings/rooms / (json)</text><polygon fill="#181818" points="426.5,201.1406,436.5,205.1406,426.5,209.1406,430.5,205.1406" style="stroke:#181818;stroke-width:1.0;"/><line style="stroke:#181818;stroke-width:1.0;" x1="286.5" x2="432.5" y1="205.1406" y2="205.1406"/><text fill="#000000" font-family="sans-serif" font-size="13" font-weight="bold" lengthAdjust="spacing" textLength="7" x="293.5" y="200.2842">2</text><text fill="#000000" font-family="sans-serif" font-size="13" lengthAdjust="spacing" textLength="122" x="304.5" y="200.2842">createRoom(json, ...)</text><line style="stroke:#181818;stroke-width:1.0;" x1="453.5" x2="495.5" y1="235.4922" y2="235.4922"/><line style="stroke:#181818;stroke-width:1.0;" x1="495.5" x2="495.5" y1="235.4922" y2="248.4922"/><line style="stroke:#181818;stroke-width:1.0;" x1="454.5" x2="495.5" y1="248.4922" y2="248.4922"/><polygon fill="#181818" points="464.5,244.4922,454.5,248.4922,464.5,252.4922,460.5,248.4922" style="stroke:#181818;stroke-width:1.0;"/><text fill="#000000" font-family="sans-serif" font-size="13" font-weight="bold" lengthAdjust="spacing" textLength="7" x="460.5" y="230.6357">3</text><text fill="#000000" font-family="sans-serif" font-size="13" lengthAdjust="spacing" textLength="75" x="471.5" y="230.6357">validate(json)</text><polygon fill="#181818" points="1345,304.8438,1355,308.8438,1345,312.8438,1349,308.8438" style="stroke:#181818;stroke-width:1.0;"/><line style="stroke:#181818;stroke-width:1.0;" x1="448.5" x2="1351" y1="308.8438" y2="308.8438"/><text fill="#000000" font-family="sans-serif" font-size="13" font-weight="bold" lengthAdjust="spacing" textLength="7" x="455.5" y="303.9873">4</text><text fill="#000000" font-family="sans-serif" font-size="13" lengthAdjust="spacing" textLength="69" x="466.5" y="303.9873">toDTO(json)</text><polygon fill="#181818" points="679,335.1953,669,339.1953,679,343.1953,675,339.1953" style="stroke:#181818;stroke-width:1.0;"/><line style="stroke:#181818;stroke-width:1.0;stroke-dasharray:2.0,2.0;" x1="673" x2="1361" y1="339.1953" y2="339.1953"/><text fill="#000000" font-family="sans-serif" font-size="13" font-weight="bold" lengthAdjust="spacing" textLength="7" x="685" y="334.3389">5</text><text fill="#000000" font-family="sans-serif" font-size="13" lengthAdjust="spacing" textLength="68" x="696" y="334.3389">create(json)</text><rect fill="#E3E3E3" height="66.8281" rx="2.5" ry="2.5" style="stroke:#181818;stroke-width:0.5;" width="85" x="583" y="316.8438"/><text fill="#000000" font-family="sans-serif" font-size="14" font-style="italic" lengthAdjust="spacing" textLength="46" x="602.5" y="338.377">«DTO»</text><text fill="#000000" font-family="sans-serif" font-size="14" lengthAdjust="spacing" textLength="70" x="590.5" y="355.9863">roomDTO :</text><text fill="#000000" font-family="sans-serif" font-size="14" lengthAdjust="spacing" textLength="67" x="594" y="373.5957">RoomDTO</text><polygon fill="#181818" points="720,413.0234,730,417.0234,720,421.0234,724,417.0234" style="stroke:#181818;stroke-width:1.0;"/><line style="stroke:#181818;stroke-width:1.0;" x1="448.5" x2="726" y1="417.0234" y2="417.0234"/><text fill="#000000" font-family="sans-serif" font-size="13" font-weight="bold" lengthAdjust="spacing" textLength="7" x="455.5" y="412.167">6</text><text fill="#000000" font-family="sans-serif" font-size="13" lengthAdjust="spacing" textLength="242" x="466.5" y="412.167">savedRoomDTO = createRoom(roomDTO)</text><polygon fill="#181818" points="882,443.375,892,447.375,882,451.375,886,447.375" style="stroke:#181818;stroke-width:1.0;"/><line style="stroke:#181818;stroke-width:1.0;stroke-dasharray:2.0,2.0;" x1="742" x2="888" y1="447.375" y2="447.375"/><text fill="#000000" font-family="sans-serif" font-size="13" font-weight="bold" lengthAdjust="spacing" textLength="7" x="749" y="442.5186">7</text><text fill="#000000" font-family="sans-serif" font-size="13" lengthAdjust="spacing" textLength="99" x="760" y="442.5186">create(roomDTO)</text><rect fill="#E3E3E3" height="66.8281" rx="2.5" ry="2.5" style="stroke:#181818;stroke-width:0.5;" width="78" x="894" y="425.0234"/><text fill="#000000" font-family="sans-serif" font-size="14" font-style="italic" lengthAdjust="spacing" textLength="64" x="901" y="446.5566">«Domain»</text><text fill="#000000" font-family="sans-serif" font-size="14" lengthAdjust="spacing" textLength="40" x="913" y="464.166">room :</text><text fill="#000000" font-family="sans-serif" font-size="14" lengthAdjust="spacing" textLength="32" x="919" y="481.7754">room</text><polygon fill="#181818" points="833,521.2031,843,525.2031,833,529.2031,837,525.2031" style="stroke:#181818;stroke-width:1.0;"/><line style="stroke:#181818;stroke-width:1.0;" x1="742" x2="839" y1="525.2031" y2="525.2031"/><text fill="#000000" font-family="sans-serif" font-size="13" font-weight="bold" lengthAdjust="spacing" textLength="7" x="749" y="520.3467">8</text><text fill="#000000" font-family="sans-serif" font-size="13" lengthAdjust="spacing" textLength="66" x="760" y="520.3467">room(room)</text><polygon fill="#181818" points="1013.5,551.5547,1023.5,555.5547,1013.5,559.5547,1017.5,555.5547" style="stroke:#181818;stroke-width:1.0;"/><line style="stroke:#181818;stroke-width:1.0;" x1="742" x2="1019.5" y1="555.5547" y2="555.5547"/><text fill="#000000" font-family="sans-serif" font-size="13" font-weight="bold" lengthAdjust="spacing" textLength="7" x="749" y="550.6982">9</text><text fill="#000000" font-family="sans-serif" font-size="13" lengthAdjust="spacing" textLength="200" x="760" y="550.6982">savedBuildingData = save(building)</text><polygon fill="#181818" points="1229.5,581.9063,1239.5,585.9063,1229.5,589.9063,1233.5,585.9063" style="stroke:#181818;stroke-width:1.0;"/><line style="stroke:#181818;stroke-width:1.0;" x1="1035.5" x2="1235.5" y1="585.9063" y2="585.9063"/><text fill="#000000" font-family="sans-serif" font-size="13" font-weight="bold" lengthAdjust="spacing" textLength="14" x="1042.5" y="581.0498">10</text><text fill="#000000" font-family="sans-serif" font-size="13" lengthAdjust="spacing" textLength="132" x="1060.5" y="581.0498">toPersistence(building)</text><polygon fill="#181818" points="2412,612.2578,2422,616.2578,2412,620.2578,2416,616.2578" style="stroke:#181818;stroke-width:1.0;"/><line style="stroke:#181818;stroke-width:1.0;" x1="1251.5" x2="2418" y1="616.2578" y2="616.2578"/><text fill="#000000" font-family="sans-serif" font-size="13" font-weight="bold" lengthAdjust="spacing" textLength="14" x="1258.5" y="611.4014">11</text><text fill="#000000" font-family="sans-serif" font-size="13" lengthAdjust="spacing" textLength="80" x="1276.5" y="611.4014">code = code()</text><polygon fill="#181818" points="2412,642.6094,2422,646.6094,2412,650.6094,2416,646.6094" style="stroke:#181818;stroke-width:1.0;"/><line style="stroke:#181818;stroke-width:1.0;" x1="1251.5" x2="2418" y1="646.6094" y2="646.6094"/><text fill="#000000" font-family="sans-serif" font-size="13" font-weight="bold" lengthAdjust="spacing" textLength="14" x="1258.5" y="641.7529">12</text><text fill="#000000" font-family="sans-serif" font-size="13" lengthAdjust="spacing" textLength="88" x="1276.5" y="641.7529">name = name()</text><polygon fill="#181818" points="2412,672.9609,2422,676.9609,2412,680.9609,2416,676.9609" style="stroke:#181818;stroke-width:1.0;"/><line style="stroke:#181818;stroke-width:1.0;" x1="1251.5" x2="2418" y1="676.9609" y2="676.9609"/><text fill="#000000" font-family="sans-serif" font-size="13" font-weight="bold" lengthAdjust="spacing" textLength="14" x="1258.5" y="672.1045">13</text><text fill="#000000" font-family="sans-serif" font-size="13" lengthAdjust="spacing" textLength="150" x="1276.5" y="672.1045">description = description()</text><polygon fill="#181818" points="2412,703.3125,2422,707.3125,2412,711.3125,2416,707.3125" style="stroke:#181818;stroke-width:1.0;"/><line style="stroke:#181818;stroke-width:1.0;" x1="1251.5" x2="2418" y1="707.3125" y2="707.3125"/><text fill="#000000" font-family="sans-serif" font-size="13" font-weight="bold" lengthAdjust="spacing" textLength="14" x="1258.5" y="702.4561">14</text><text fill="#000000" font-family="sans-serif" font-size="13" lengthAdjust="spacing" textLength="142" x="1276.5" y="702.4561">dimension = dimension()</text><polygon fill="#181818" points="2412,733.6641,2422,737.6641,2412,741.6641,2416,737.6641" style="stroke:#181818;stroke-width:1.0;"/><line style="stroke:#181818;stroke-width:1.0;" x1="1251.5" x2="2418" y1="737.6641" y2="737.6641"/><text fill="#000000" font-family="sans-serif" font-size="13" font-weight="bold" lengthAdjust="spacing" textLength="14" x="1258.5" y="732.8076">15</text><text fill="#000000" font-family="sans-serif" font-size="13" lengthAdjust="spacing" textLength="86" x="1276.5" y="732.8076">floors = floors()</text><polygon fill="#181818" points="2412,764.0156,2422,768.0156,2412,772.0156,2416,768.0156" style="stroke:#181818;stroke-width:1.0;"/><line style="stroke:#181818;stroke-width:1.0;" x1="1251.5" x2="2418" y1="768.0156" y2="768.0156"/><text fill="#000000" font-family="sans-serif" font-size="13" font-weight="bold" lengthAdjust="spacing" textLength="14" x="1258.5" y="763.1592">16</text><text fill="#000000" font-family="sans-serif" font-size="13" lengthAdjust="spacing" textLength="112" x="1276.5" y="763.1592">elevator = elevator()</text><polygon fill="#181818" points="1779.5,794.3672,1789.5,798.3672,1779.5,802.3672,1783.5,798.3672" style="stroke:#181818;stroke-width:1.0;"/><line style="stroke:#181818;stroke-width:1.0;stroke-dasharray:2.0,2.0;" x1="1246.5" x2="1785.5" y1="798.3672" y2="798.3672"/><text fill="#000000" font-family="sans-serif" font-size="13" font-weight="bold" lengthAdjust="spacing" textLength="14" x="1253.5" y="793.5107">17</text><text fill="#000000" font-family="sans-serif" font-size="13" lengthAdjust="spacing" textLength="348" x="1271.5" y="793.5107">create(code, name, description, dimension, floors, elevators)</text><rect fill="#E3E3E3" height="66.8281" rx="2.5" ry="2.5" style="stroke:#181818;stroke-width:0.5;" width="101" x="1791.5" y="776.0156"/><text fill="#000000" font-family="sans-serif" font-size="14" font-style="italic" lengthAdjust="spacing" textLength="64" x="1810" y="797.5488">«Domain»</text><text fill="#000000" font-family="sans-serif" font-size="14" lengthAdjust="spacing" textLength="87" x="1798.5" y="815.1582">buildingData :</text><text fill="#000000" font-family="sans-serif" font-size="14" lengthAdjust="spacing" textLength="49" x="1819.5" y="832.7676">building</text><polygon fill="#181818" points="1946.5,872.1953,1956.5,876.1953,1946.5,880.1953,1950.5,876.1953" style="stroke:#181818;stroke-width:1.0;"/><line style="stroke:#181818;stroke-width:1.0;" x1="1035.5" x2="1952.5" y1="876.1953" y2="876.1953"/><text fill="#000000" font-family="sans-serif" font-size="13" font-weight="bold" lengthAdjust="spacing" textLength="14" x="1042.5" y="871.3389">18</text><text fill="#000000" font-family="sans-serif" font-size="13" lengthAdjust="spacing" textLength="115" x="1060.5" y="871.3389">create(buildingData)</text><polygon fill="#181818" points="2230.5,902.5469,2240.5,906.5469,2230.5,910.5469,2234.5,906.5469" style="stroke:#181818;stroke-width:1.0;"/><line style="stroke:#181818;stroke-width:1.0;stroke-dasharray:2.0,2.0;" x1="1963.5" x2="2236.5" y1="906.5469" y2="906.5469"/><text fill="#000000" font-family="sans-serif" font-size="13" font-weight="bold" lengthAdjust="spacing" textLength="14" x="1970.5" y="901.6904">19</text><text fill="#000000" font-family="sans-serif" font-size="13" lengthAdjust="spacing" textLength="232" x="1988.5" y="901.6904">savedBuildingData = create(rawBuilding)</text><rect fill="#E3E3E3" height="66.8281" rx="2.5" ry="2.5" style="stroke:#181818;stroke-width:0.5;" width="140" x="2242.5" y="884.1953"/><text fill="#000000" font-family="sans-serif" font-size="14" font-style="italic" lengthAdjust="spacing" textLength="64" x="2280.5" y="905.7285">«Domain»</text><text fill="#000000" font-family="sans-serif" font-size="14" lengthAdjust="spacing" textLength="126" x="2249.5" y="923.3379">savedBuildingData :</text><text fill="#000000" font-family="sans-serif" font-size="14" lengthAdjust="spacing" textLength="49" x="2290" y="940.9473">building</text><polygon fill="#181818" points="1229.5,980.375,1239.5,984.375,1229.5,988.375,1233.5,984.375" style="stroke:#181818;stroke-width:1.0;"/><line style="stroke:#181818;stroke-width:1.0;" x1="1035.5" x2="1235.5" y1="984.375" y2="984.375"/><text fill="#000000" font-family="sans-serif" font-size="13" font-weight="bold" lengthAdjust="spacing" textLength="14" x="1042.5" y="979.5186">20</text><text fill="#000000" font-family="sans-serif" font-size="13" lengthAdjust="spacing" textLength="169" x="1060.5" y="979.5186">toDomain(savedBuildingData)</text><polygon fill="#181818" points="2022.5,1010.7266,2032.5,1014.7266,2022.5,1018.7266,2026.5,1014.7266" style="stroke:#181818;stroke-width:1.0;"/><line style="stroke:#181818;stroke-width:1.0;stroke-dasharray:2.0,2.0;" x1="1246.5" x2="2028.5" y1="1014.7266" y2="1014.7266"/><text fill="#000000" font-family="sans-serif" font-size="13" font-weight="bold" lengthAdjust="spacing" textLength="14" x="1253.5" y="1009.8701">21</text><text fill="#000000" font-family="sans-serif" font-size="13" lengthAdjust="spacing" textLength="4" x="1271.5" y="1009.8701"> </text><rect fill="#E3E3E3" height="66.8281" rx="2.5" ry="2.5" style="stroke:#181818;stroke-width:0.5;" width="110" x="2034.5" y="992.375"/><text fill="#000000" font-family="sans-serif" font-size="14" font-style="italic" lengthAdjust="spacing" textLength="64" x="2057.5" y="1013.9082">«Domain»</text><text fill="#000000" font-family="sans-serif" font-size="14" lengthAdjust="spacing" textLength="96" x="2041.5" y="1031.5176">savedBuilding :</text><text fill="#000000" font-family="sans-serif" font-size="14" lengthAdjust="spacing" textLength="49" x="2067" y="1049.127">building</text><polygon fill="#181818" points="1229.5,1088.5547,1239.5,1092.5547,1229.5,1096.5547,1233.5,1092.5547" style="stroke:#181818;stroke-width:1.0;"/><line style="stroke:#181818;stroke-width:1.0;" x1="742" x2="1235.5" y1="1092.5547" y2="1092.5547"/><text fill="#000000" font-family="sans-serif" font-size="13" font-weight="bold" lengthAdjust="spacing" textLength="14" x="749" y="1087.6982">22</text><text fill="#000000" font-family="sans-serif" font-size="13" lengthAdjust="spacing" textLength="245" x="767" y="1087.6982">savedBuildingDTO = toDTO(savedBuilding)</text><polygon fill="#181818" points="2077.5,1118.9063,2087.5,1122.9063,2077.5,1126.9063,2081.5,1122.9063" style="stroke:#181818;stroke-width:1.0;"/><line style="stroke:#181818;stroke-width:1.0;" x1="1251.5" x2="2083.5" y1="1122.9063" y2="1122.9063"/><text fill="#000000" font-family="sans-serif" font-size="13" font-weight="bold" lengthAdjust="spacing" textLength="14" x="1258.5" y="1118.0498">23</text><text fill="#000000" font-family="sans-serif" font-size="13" lengthAdjust="spacing" textLength="80" x="1276.5" y="1118.0498">code = code()</text><polygon fill="#181818" points="2077.5,1149.2578,2087.5,1153.2578,2077.5,1157.2578,2081.5,1153.2578" style="stroke:#181818;stroke-width:1.0;"/><line style="stroke:#181818;stroke-width:1.0;" x1="1251.5" x2="2083.5" y1="1153.2578" y2="1153.2578"/><text fill="#000000" font-family="sans-serif" font-size="13" font-weight="bold" lengthAdjust="spacing" textLength="14" x="1258.5" y="1148.4014">24</text><text fill="#000000" font-family="sans-serif" font-size="13" lengthAdjust="spacing" textLength="88" x="1276.5" y="1148.4014">name = name()</text><polygon fill="#181818" points="2077.5,1179.6094,2087.5,1183.6094,2077.5,1187.6094,2081.5,1183.6094" style="stroke:#181818;stroke-width:1.0;"/><line style="stroke:#181818;stroke-width:1.0;" x1="1251.5" x2="2083.5" y1="1183.6094" y2="1183.6094"/><text fill="#000000" font-family="sans-serif" font-size="13" font-weight="bold" lengthAdjust="spacing" textLength="14" x="1258.5" y="1178.7529">25</text><text fill="#000000" font-family="sans-serif" font-size="13" lengthAdjust="spacing" textLength="150" x="1276.5" y="1178.7529">description = description()</text><polygon fill="#181818" points="2077.5,1209.9609,2087.5,1213.9609,2077.5,1217.9609,2081.5,1213.9609" style="stroke:#181818;stroke-width:1.0;"/><line style="stroke:#181818;stroke-width:1.0;" x1="1251.5" x2="2083.5" y1="1213.9609" y2="1213.9609"/><text fill="#000000" font-family="sans-serif" font-size="13" font-weight="bold" lengthAdjust="spacing" textLength="14" x="1258.5" y="1209.1045">26</text><text fill="#000000" font-family="sans-serif" font-size="13" lengthAdjust="spacing" textLength="142" x="1276.5" y="1209.1045">dimension = dimension()</text><polygon fill="#181818" points="2077.5,1240.3125,2087.5,1244.3125,2077.5,1248.3125,2081.5,1244.3125" style="stroke:#181818;stroke-width:1.0;"/><line style="stroke:#181818;stroke-width:1.0;" x1="1251.5" x2="2083.5" y1="1244.3125" y2="1244.3125"/><text fill="#000000" font-family="sans-serif" font-size="13" font-weight="bold" lengthAdjust="spacing" textLength="14" x="1258.5" y="1239.4561">27</text><text fill="#000000" font-family="sans-serif" font-size="13" lengthAdjust="spacing" textLength="86" x="1276.5" y="1239.4561">floors = floors()</text><polygon fill="#181818" points="2077.5,1270.6641,2087.5,1274.6641,2077.5,1278.6641,2081.5,1274.6641" style="stroke:#181818;stroke-width:1.0;"/><line style="stroke:#181818;stroke-width:1.0;" x1="1251.5" x2="2083.5" y1="1274.6641" y2="1274.6641"/><text fill="#000000" font-family="sans-serif" font-size="13" font-weight="bold" lengthAdjust="spacing" textLength="14" x="1258.5" y="1269.8076">28</text><text fill="#000000" font-family="sans-serif" font-size="13" lengthAdjust="spacing" textLength="112" x="1276.5" y="1269.8076">elevator = elevator()</text><polygon fill="#181818" points="1629.5,1301.0156,1639.5,1305.0156,1629.5,1309.0156,1633.5,1305.0156" style="stroke:#181818;stroke-width:1.0;"/><line style="stroke:#181818;stroke-width:1.0;" x1="1246.5" x2="1635.5" y1="1305.0156" y2="1305.0156"/><text fill="#000000" font-family="sans-serif" font-size="13" font-weight="bold" lengthAdjust="spacing" textLength="14" x="1253.5" y="1300.1592">29</text><text fill="#000000" font-family="sans-serif" font-size="13" lengthAdjust="spacing" textLength="348" x="1271.5" y="1300.1592">create(code, name, description, dimension, floors, elevators)</text><rect fill="#E3E3E3" height="66.8281" rx="2.5" ry="2.5" style="stroke:#181818;stroke-width:0.5;" width="140" x="1641.5" y="1282.6641"/><text fill="#000000" font-family="sans-serif" font-size="14" font-style="italic" lengthAdjust="spacing" textLength="46" x="1688.5" y="1304.1973">«DTO»</text><text fill="#000000" font-family="sans-serif" font-size="14" lengthAdjust="spacing" textLength="126" x="1648.5" y="1321.8066">savedBuildingDTO :</text><text fill="#000000" font-family="sans-serif" font-size="14" lengthAdjust="spacing" textLength="80" x="1673.5" y="1339.416">BuildingDTO</text><polygon fill="#181818" points="1350,1378.8438,1360,1382.8438,1350,1386.8438,1354,1382.8438" style="stroke:#181818;stroke-width:1.0;"/><line style="stroke:#181818;stroke-width:1.0;" x1="448.5" x2="1356" y1="1382.8438" y2="1382.8438"/><text fill="#000000" font-family="sans-serif" font-size="13" font-weight="bold" lengthAdjust="spacing" textLength="14" x="455.5" y="1377.9873">30</text><text fill="#000000" font-family="sans-serif" font-size="13" lengthAdjust="spacing" textLength="141" x="473.5" y="1377.9873">json = toJson(roomDTO)</text><line style="stroke:#181818;stroke-width:1.0;" x1="448.5" x2="490.5" y1="1413.1953" y2="1413.1953"/><line style="stroke:#181818;stroke-width:1.0;" x1="490.5" x2="490.5" y1="1413.1953" y2="1426.1953"/><line style="stroke:#181818;stroke-width:1.0;" x1="449.5" x2="490.5" y1="1426.1953" y2="1426.1953"/><polygon fill="#181818" points="459.5,1422.1953,449.5,1426.1953,459.5,1430.1953,455.5,1426.1953" style="stroke:#181818;stroke-width:1.0;"/><text fill="#000000" font-family="sans-serif" font-size="13" font-weight="bold" lengthAdjust="spacing" textLength="14" x="455.5" y="1408.3389">31</text><text fill="#000000" font-family="sans-serif" font-size="13" lengthAdjust="spacing" textLength="140" x="473.5" y="1408.3389">generateResponse(json)</text><polygon fill="#181818" points="297.5,1452.5469,287.5,1456.5469,297.5,1460.5469,293.5,1456.5469" style="stroke:#181818;stroke-width:1.0;"/><line style="stroke:#181818;stroke-width:1.0;stroke-dasharray:2.0,2.0;" x1="291.5" x2="442.5" y1="1456.5469" y2="1456.5469"/><text fill="#000000" font-family="sans-serif" font-size="13" font-weight="bold" lengthAdjust="spacing" textLength="14" x="303.5" y="1451.6904">32</text><text fill="#000000" font-family="sans-serif" font-size="13" lengthAdjust="spacing" textLength="53" x="321.5" y="1451.6904">response</text><polygon fill="#181818" points="78.5,1482.8984,68.5,1486.8984,78.5,1490.8984,74.5,1486.8984" style="stroke:#181818;stroke-width:1.0;"/><line style="stroke:#181818;stroke-width:1.0;stroke-dasharray:2.0,2.0;" x1="72.5" x2="280.5" y1="1486.8984" y2="1486.8984"/><text fill="#000000" font-family="sans-serif" font-size="13" font-weight="bold" lengthAdjust="spacing" textLength="14" x="84.5" y="1482.042">33</text><text fill="#000000" font-family="sans-serif" font-size="13" lengthAdjust="spacing" textLength="53" x="102.5" y="1482.042">response</text><!--MD5=[f6a27beb2cd4f639ccb1f08059b7dc20]
@startuml
skinparam monochrome true
skinparam packageStyle rectangle
skinparam shadowing false

title Sequence Diagram (SD) - US 310
autonumber

actor "Gestor de Campus" as actor
participant buildingRoute as route <<Web>>
control "buildingController :\n buildingController" as controller <<Controllers>>
participant "roomDTO :\n RoomDTO" as roomDTO <<DTO>>
participant "buildingService :\n buildingService" as buildingService <<Use Cases>>
participant "floor :\n floor" as floor <<Domain>>
participant "room :\n room" as room <<Domain>>
database "buildingRepo :\n buildingRepo" as buildingRepo <<Gateways>>
participant BuildingMapper as buildingMapper <<Mapper>>
participant RoomMapper as roomMapper <<Mapper>>
participant "savedBuildingDTO :\n BuildingDTO" as savedBuildingDTO <<DTO>>
participant "buildingData :\n building" as buildingData <<Domain>>
participant "buildingSchema :\n buildingSchema" as buildingSchema <<DB>>
participant "savedBuilding :\n building" as savedBuilding <<Domain>>
participant "savedBuildingData :\n building" as savedBuildingData <<Domain>>

activate actor

    actor -> route : Post / buildings/rooms / (json)
    activate route
        route -> controller : createRoom(json, ...)
        activate controller
            controller -> controller : validate(json)
            activate controller
            deactivate controller

            controller -> roomMapper : toDTO(json)
            activate roomMapper
                roomMapper - -> roomDTO** : create(json)
            deactivate roomMapper

            controller -> buildingService : savedRoomDTO = createRoom(roomDTO)
            activate buildingService
                buildingService - -> room** : create(roomDTO)

                buildingService -> floor : room(room)

                buildingService -> buildingRepo : savedBuildingData = save(building)


                activate buildingRepo
                    buildingRepo -> buildingMapper : toPersistence(building)
                    activate buildingMapper
                        buildingMapper -> building : code = code()
                        buildingMapper -> building : name = name()
                        buildingMapper -> building : description = description()
                        buildingMapper -> building : dimension = dimension()
                        buildingMapper -> building : floors = floors()
                        buildingMapper -> building : elevator = elevator()
                        
                        buildingMapper - -> buildingData** : create(code, name, description, dimension, floors, elevators)
                    deactivate buildingMapper

                    buildingRepo -> buildingSchema : create(buildingData)
                    activate buildingSchema
                        buildingSchema - -> savedBuildingData** : savedBuildingData = create(rawBuilding)
                    deactivate buildingSchema
                    
                    buildingRepo -> buildingMapper : toDomain(savedBuildingData)
                    activate buildingMapper
                        buildingMapper - -> savedBuilding**
                    deactivate buildingMapper
                deactivate buildingRepo

                buildingService -> buildingMapper : savedBuildingDTO = toDTO(savedBuilding)
                activate buildingMapper
                    buildingMapper -> savedBuilding : code = code()
                    buildingMapper -> savedBuilding : name = name()
                    buildingMapper -> savedBuilding : description = description()
                    buildingMapper -> savedBuilding : dimension = dimension()
                    buildingMapper -> savedBuilding : floors = floors()
                    buildingMapper -> savedBuilding : elevator = elevator()
                    buildingMapper -> savedBuildingDTO** : create(code, name, description, dimension, floors, elevators)
                deactivate buildingMapper

            deactivate buildingService

            controller -> roomMapper : json = toJson(roomDTO)
            controller -> controller : generateResponse(json)
            
            controller - -> route : response

        deactivate controller

        route - -> actor : response

    deactivate route

deactivate actor

@enduml

PlantUML version 1.2022.7(Mon Aug 22 18:01:30 WEST 2022)
(GPL source distribution)
Java Runtime: Java(TM) SE Runtime Environment
JVM: Java HotSpot(TM) 64-Bit Server VM
Default Encoding: Cp1252
Language: pt
Country: PT
--></g></svg>