<?xml version="1.0" encoding="us-ascii" standalone="no"?><svg xmlns="http://www.w3.org/2000/svg" xmlns:xlink="http://www.w3.org/1999/xlink" contentStyleType="text/css" height="3470px" preserveAspectRatio="none" style="width:1302px;height:3470px;background:#FFFFFF;" version="1.1" viewBox="0 0 1302 3470" width="1302px" zoomAndPan="magnify"><defs/><g><!--cluster RobDroneGo--><g id="cluster_RobDroneGo"><path d="M171.5,6.0137 L263.5,6.0137 A3.75,3.75 0 0 1 266,8.5137 L273,30.6348 L1292.5,30.6348 A2.5,2.5 0 0 1 1295,33.1348 L1295,3460.5137 A2.5,2.5 0 0 1 1292.5,3463.0137 L171.5,3463.0137 A2.5,2.5 0 0 1 169,3460.5137 L169,8.5137 A2.5,2.5 0 0 1 171.5,6.0137 " fill="none" style="stroke:#000000;stroke-width:1.5;"/><line style="stroke:#000000;stroke-width:1.5;" x1="169" x2="273" y1="30.6348" y2="30.6348"/><text fill="#000000" font-family="sans-serif" font-size="14" font-weight="bold" lengthAdjust="spacing" textLength="91" x="173" y="23.1211">RobDroneGo</text></g><g id="elem_UC1000"><ellipse cx="731.9955" cy="2694.8128" fill="#F1F1F1" rx="546.9955" ry="111.7991" style="stroke:#181818;stroke-width:0.5;"/><text fill="#000000" font-family="sans-serif" font-size="14" lengthAdjust="spacing" textLength="1072" x="195.9955" y="2698.6097">UC1000: Como gestor de Frota pretendo adicionar um novo tipo de robot indicando a sua designa&#231;&#227;o e que tipos de tarefas pode executar da lista pr&#233;definida de tarefas</text></g><g id="elem_UC1010"><ellipse cx="732.0309" cy="2916.8198" fill="#F1F1F1" rx="362.0309" ry="74.8062" style="stroke:#181818;stroke-width:0.5;"/><text fill="#000000" font-family="sans-serif" font-size="14" lengthAdjust="spacing" textLength="700" x="382.0309" y="2920.6167">UC1010: Como gestor de Frota pretendo adicionar um novo robot &#224; frota indicando o seu tipo, designa&#231;&#227;o, etc</text></g><g id="elem_UC1020"><ellipse cx="731.8439" cy="3068.1824" fill="#F1F1F1" rx="191.3439" ry="40.6688" style="stroke:#181818;stroke-width:0.5;"/><text fill="#000000" font-family="sans-serif" font-size="14" lengthAdjust="spacing" textLength="353" x="555.3439" y="3071.9793">UC1020: Como gestor de Frota pretendo inibir um robot</text></g><g id="elem_UC1030"><ellipse cx="731.9012" cy="3196.1939" fill="#F1F1F1" rx="251.4012" ry="52.6802" style="stroke:#181818;stroke-width:0.5;"/><text fill="#000000" font-family="sans-serif" font-size="14" lengthAdjust="spacing" textLength="476" x="493.9012" y="3199.9908">UC1030: Como gestor de Frota pretendo consultar todos os robots da frota</text></g><g id="elem_UC1040"><ellipse cx="731.7792" cy="3364.7695" fill="#F1F1F1" rx="394.2792" ry="81.2558" style="stroke:#181818;stroke-width:0.5;"/><text fill="#000000" font-family="sans-serif" font-size="14" lengthAdjust="spacing" textLength="765" x="349.2792" y="3368.5664">UC1040: Como gestor de Frota pretendo pesquisar todos os robots da frota por designa&#231;&#227;o ou tarefa que pode executar</text></g><g id="elem_UC1050"><ellipse cx="731.955" cy="875.1047" fill="#F1F1F1" rx="248.455" ry="52.091" style="stroke:#181818;stroke-width:0.5;"/><text fill="#000000" font-family="sans-serif" font-size="14" lengthAdjust="spacing" textLength="470" x="496.955" y="878.9015">UC1050: Como gestor de Campus pretendo criar um Edif&#237;cio indicando [...]</text></g><g id="elem_UC1060"><ellipse cx="732.1343" cy="1004.0405" fill="#F1F1F1" rx="198.1343" ry="42.0269" style="stroke:#181818;stroke-width:0.5;"/><text fill="#000000" font-family="sans-serif" font-size="14" lengthAdjust="spacing" textLength="367" x="548.6343" y="1007.8374">UC1060: Como gestor de Campus pretendo listar Edif&#237;cios</text></g><g id="elem_UC1070"><ellipse cx="732.1445" cy="1143.8426" fill="#F1F1F1" rx="302.1445" ry="62.8289" style="stroke:#181818;stroke-width:0.5;"/><text fill="#000000" font-family="sans-serif" font-size="14" lengthAdjust="spacing" textLength="579" x="442.6445" y="1147.6394">UC1070: Como gestor de Campus pretendo editar a informa&#231;&#227;o (total ou parcial) de Edif&#237;cio</text></g><g id="elem_UC1080"><ellipse cx="732.0354" cy="1299.1208" fill="#F1F1F1" rx="273.5354" ry="57.1071" style="stroke:#181818;stroke-width:0.5;"/><text fill="#000000" font-family="sans-serif" font-size="14" lengthAdjust="spacing" textLength="521" x="471.5354" y="1302.9176">UC1080: Como gestor de Campus pretendo listar Edif&#237;cios com min e max de pisos</text></g><g id="elem_UC1090"><ellipse cx="732.1245" cy="1441.8386" fill="#F1F1F1" rx="239.6245" ry="50.3249" style="stroke:#181818;stroke-width:0.5;"/><text fill="#000000" font-family="sans-serif" font-size="14" lengthAdjust="spacing" textLength="452" x="506.1245" y="1445.6354">UC1090: Como gestor de Campus pretendo criar um Piso indicando [...]</text></g><g id="elem_UC1100"><ellipse cx="732.2064" cy="1582.9549" fill="#F1F1F1" rx="262.7064" ry="54.9413" style="stroke:#181818;stroke-width:0.5;"/><text fill="#000000" font-family="sans-serif" font-size="14" lengthAdjust="spacing" textLength="499" x="482.7064" y="1586.7518">UC1100: Como gestor de Campus pretendo listar todos os Pisos de um Edif&#237;cio</text></g><g id="elem_UC1110"><ellipse cx="731.7575" cy="1734.0652" fill="#F1F1F1" rx="293.2575" ry="61.0515" style="stroke:#181818;stroke-width:0.5;"/><text fill="#000000" font-family="sans-serif" font-size="14" lengthAdjust="spacing" textLength="561" x="451.2575" y="1737.862">UC1110: Como gestor de Campus pretendo editar a informa&#231;&#227;o (total ou parcial) de Piso</text></g><g id="elem_UC1120"><ellipse cx="732.2473" cy="1884.9631" fill="#F1F1F1" rx="260.2473" ry="54.4495" style="stroke:#181818;stroke-width:0.5;"/><text fill="#000000" font-family="sans-serif" font-size="14" lengthAdjust="spacing" textLength="494" x="485.2473" y="1888.76">UC1120: Como gestor de Campus pretendo carregar mapa de Piso de Edif&#237;cio</text></g><g id="elem_UC1130"><ellipse cx="732.2049" cy="2045.9546" fill="#F1F1F1" rx="342.7049" ry="70.941" style="stroke:#181818;stroke-width:0.5;"/><text fill="#000000" font-family="sans-serif" font-size="14" lengthAdjust="spacing" textLength="661" x="401.7049" y="2049.7515">UC1130: Como gestor de Campus pretendo criar um Elevador num Edif&#237;cio indicando os Pisos que serve</text></g><g id="elem_UC1140"><ellipse cx="732.0288" cy="2203.8194" fill="#F1F1F1" rx="244.5288" ry="51.3058" style="stroke:#181818;stroke-width:0.5;"/><text fill="#000000" font-family="sans-serif" font-size="14" lengthAdjust="spacing" textLength="462" x="501.0288" y="2207.6163">UC1140: Como gestor de Campus  pretendo listar Elevadores em Edif&#237;cio</text></g><g id="elem_UC1150"><ellipse cx="732.154" cy="2341.0445" fill="#F1F1F1" rx="238.154" ry="50.0308" style="stroke:#181818;stroke-width:0.5;"/><text fill="#000000" font-family="sans-serif" font-size="14" lengthAdjust="spacing" textLength="449" x="507.654" y="2344.8413">UC1150: Como gestor de Campus pretendo editar Elevador em Edif&#237;cio</text></g><g id="elem_UC1160"><ellipse cx="731.764" cy="2486.9665" fill="#F1F1F1" rx="292.764" ry="60.9528" style="stroke:#181818;stroke-width:0.5;"/><text fill="#000000" font-family="sans-serif" font-size="14" lengthAdjust="spacing" textLength="560" x="451.764" y="2490.7633">UC1160: Como gestor de Campus pretendo listar Pisos de Edif&#237;cio servidos por Elevador</text></g><g id="elem_UC1170"><ellipse cx="732.0807" cy="100.0298" fill="#F1F1F1" rx="270.5807" ry="56.5161" style="stroke:#181818;stroke-width:0.5;"/><text fill="#000000" font-family="sans-serif" font-size="14" lengthAdjust="spacing" textLength="515" x="474.5807" y="103.8267">UC1170: Como gestor de Campus pretendo criar uma Passagem entre 2 Edif&#237;cios</text></g><g id="elem_UC1180"><ellipse cx="732.0205" cy="248.8178" fill="#F1F1F1" rx="274.5205" ry="57.3041" style="stroke:#181818;stroke-width:0.5;"/><text fill="#000000" font-family="sans-serif" font-size="14" lengthAdjust="spacing" textLength="523" x="470.5205" y="252.6147">UC1180: Como gestor de Campus pretendo editar uma Passagem entre 2 Edif&#237;cios</text></g><g id="elem_UC1190"><ellipse cx="731.7805" cy="396.0698" fill="#F1F1F1" rx="258.2805" ry="54.0561" style="stroke:#181818;stroke-width:0.5;"/><text fill="#000000" font-family="sans-serif" font-size="14" lengthAdjust="spacing" textLength="490" x="486.7805" y="399.8667">UC1190: Como gestor de Campus pretendo listar Passagens entre 2 Edif&#237;cios</text></g><g id="elem_UC1200"><ellipse cx="731.7528" cy="554.9642" fill="#F1F1F1" rx="337.7528" ry="69.9506" style="stroke:#181818;stroke-width:0.5;"/><text fill="#000000" font-family="sans-serif" font-size="14" lengthAdjust="spacing" textLength="651" x="406.2528" y="558.7611">UC1200: Como gestor de Campus pretendo listar Pisos de Edif&#237;cio com Passagem para outros Edif&#237;cios</text></g><g id="elem_UC1210"><ellipse cx="732.0669" cy="724.1271" fill="#F1F1F1" rx="308.5669" ry="64.1134" style="stroke:#181818;stroke-width:0.5;"/><text fill="#000000" font-family="sans-serif" font-size="14" lengthAdjust="spacing" textLength="592" x="436.0669" y="727.9239">UC1210: Como gestor de Campus pretendo criar uma Sala num Piso de Edif&#237;cio indicando [...]</text></g><!--entity campus--><g id="elem_campus"><ellipse cx="65.5" cy="1268.0137" fill="#F1F1F1" rx="8" ry="8" style="stroke:#181818;stroke-width:0.5;"/><path d="M65.5,1276.0137 L65.5,1303.0137 M52.5,1284.0137 L78.5,1284.0137 M65.5,1303.0137 L52.5,1318.0137 M65.5,1303.0137 L78.5,1318.0137 " fill="none" style="stroke:#181818;stroke-width:0.5;"/><text fill="#000000" font-family="sans-serif" font-size="14" lengthAdjust="spacing" textLength="119" x="6" y="1334.6211">Gestor de Campus</text></g><!--entity frota--><g id="elem_frota"><ellipse cx="65.5" cy="3037.0137" fill="#F1F1F1" rx="8" ry="8" style="stroke:#181818;stroke-width:0.5;"/><path d="M65.5,3045.0137 L65.5,3072.0137 M52.5,3053.0137 L78.5,3053.0137 M65.5,3072.0137 L52.5,3087.0137 M65.5,3072.0137 L78.5,3087.0137 " fill="none" style="stroke:#181818;stroke-width:0.5;"/><text fill="#000000" font-family="sans-serif" font-size="14" lengthAdjust="spacing" textLength="101" x="15" y="3103.6211">Gestor de Frota</text></g><!--link campus to UC1050--><g id="link_campus_UC1050"><path d="M71.47,1259.3037 C82.8,1175.6237 113.29,985.4837 161,944.0137 C258.52,859.2437 403.42,842.6337 522.72,846.8837 " fill="none" id="campus-UC1050" style="stroke:#181818;stroke-width:1.0;"/></g><!--link campus to UC1060--><g id="link_campus_UC1060"><path d="M70.07,1259.3637 C77.22,1205.4137 98.47,1110.2037 161,1063.0137 C277.73,974.9137 448.35,968.5337 572.48,979.0737 " fill="none" id="campus-UC1060" style="stroke:#181818;stroke-width:1.0;"/></g><!--link campus to UC1070--><g id="link_campus_UC1070"><path d="M106.63,1259.3837 C122.37,1246.0537 141.37,1232.4337 161,1224.0137 C246.07,1187.5337 344.19,1166.9737 434.8,1155.5937 " fill="none" id="campus-UC1070" style="stroke:#181818;stroke-width:1.0;"/></g><!--link campus to UC1080--><g id="link_campus_UC1080"><path d="M125.18,1299.0137 C200.11,1299.0137 334.88,1299.0137 458.31,1299.0137 " fill="none" id="campus-UC1080" style="stroke:#181818;stroke-width:1.0;"/></g><!--link campus to UC1090--><g id="link_campus_UC1090"><path d="M107.09,1338.6937 C122.74,1351.7537 141.55,1364.9637 161,1373.0137 C264.62,1415.8937 387.24,1434.4137 492.16,1441.7037 " fill="none" id="campus-UC1090" style="stroke:#181818;stroke-width:1.0;"/></g><!--link campus to UC1100--><g id="link_campus_UC1100"><path d="M72.36,1338.5437 C81.83,1387.2937 105.4,1468.7437 161,1510.0137 C253.43,1578.6237 378.32,1600.2137 487.64,1603.2337 " fill="none" id="campus-UC1100" style="stroke:#181818;stroke-width:1.0;"/></g><!--link campus to UC1110--><g id="link_campus_UC1110"><path d="M71.51,1338.7737 C82.91,1422.5637 113.54,1613.0037 161,1655.0137 C241.61,1726.3637 355.34,1751.6437 460.03,1756.9937 " fill="none" id="campus-UC1110" style="stroke:#181818;stroke-width:1.0;"/></g><!--link campus to UC1120--><g id="link_campus_UC1120"><path d="M67.97,1338.7437 C72.87,1447.6337 92.44,1747.1137 161,1812.0137 C253.1,1899.2037 394.29,1917.8037 513.1,1914.4337 " fill="none" id="campus-UC1120" style="stroke:#181818;stroke-width:1.0;"/></g><!--link campus to UC1130--><g id="link_campus_UC1130"><path d="M66.29,1338.7937 C66.47,1467.4437 74.12,1869.0637 161,1957.0137 C223.47,2020.2537 311.13,2050.3437 399.01,2062.6637 " fill="none" id="campus-UC1130" style="stroke:#181818;stroke-width:1.0;"/></g><!--link campus to UC1140--><g id="link_campus_UC1140"><path d="M68.15,1338.6237 C75.1,1496.7237 104.31,2076.7837 161,2134.0137 C257.21,2231.1437 413.9,2244.3037 538.66,2235.5837 " fill="none" id="campus-UC1140" style="stroke:#181818;stroke-width:1.0;"/></g><!--link campus to UC1150--><g id="link_campus_UC1150"><path d="M67.47,1338.5437 C72.09,1512.6137 94.58,2205.1137 161,2273.0137 C259.26,2373.4637 422.2,2383.8937 548.76,2372.9837 " fill="none" id="campus-UC1150" style="stroke:#181818;stroke-width:1.0;"/></g><!--link campus to UC1160--><g id="link_campus_UC1160"><path d="M67.01,1338.8037 C69.79,1527.8037 85.99,2328.9337 161,2408.0137 C240.84,2492.1837 365.54,2516.2437 477.96,2517.4137 " fill="none" id="campus-UC1160" style="stroke:#181818;stroke-width:1.0;"/></g><!--link campus to UC1170--><g id="link_campus_UC1170"><path d="M66.94,1259.2637 C69.43,1068.6537 84.53,254.0237 161,174.0137 C248.73,82.2137 390.08,63.3937 510.07,67.6837 " fill="none" id="campus-UC1170" style="stroke:#181818;stroke-width:1.0;"/></g><!--link campus to UC1180--><g id="link_campus_UC1180"><path d="M67.48,1259.4537 C72.18,1085.2937 94.93,392.3837 161,324.0137 C247.35,234.6537 384.53,214.4737 502.67,217.3137 " fill="none" id="campus-UC1180" style="stroke:#181818;stroke-width:1.0;"/></g><!--link campus to UC1190--><g id="link_campus_UC1190"><path d="M68.17,1259.2737 C75.19,1101.3737 104.58,524.0537 161,467.0137 C253.4,373.6137 401.66,357.5437 523.82,363.9437 " fill="none" id="campus-UC1190" style="stroke:#181818;stroke-width:1.0;"/></g><!--link campus to UC1200--><g id="link_campus_UC1200"><path d="M66.29,1259.2837 C66.46,1130.7837 74.09,729.6837 161,642.0137 C225.22,577.2337 315.95,547.5537 406.17,536.1837 " fill="none" id="campus-UC1200" style="stroke:#181818;stroke-width:1.0;"/></g><!--link campus to UC1210--><g id="link_campus_UC1210"><path d="M68.33,1259.2737 C74.07,1153.2537 95.43,867.5237 161,805.0137 C236.15,733.3737 344.16,706.5337 445.99,699.9337 " fill="none" id="campus-UC1210" style="stroke:#181818;stroke-width:1.0;"/></g><!--link frota to UC1000--><g id="link_frota_UC1000"><path d="M70.49,3028.1137 C78.13,2973.6237 99.95,2876.6937 161,2824.0137 C193.74,2795.7637 231.38,2773.3437 271.39,2755.5937 " fill="none" id="frota-UC1000" style="stroke:#181818;stroke-width:1.0;"/></g><!--link frota to UC1010--><g id="link_frota_UC1010"><path d="M116.14,3032.5837 C130.09,3024.0237 145.66,3015.7137 161,3010.0137 C237.12,2981.7037 322.14,2961.9937 402.8,2948.2837 " fill="none" id="frota-UC1010" style="stroke:#181818;stroke-width:1.0;"/></g><!--link frota to UC1020--><g id="link_frota_UC1020"><path d="M116.17,3068.0137 C204.91,3068.0137 394.98,3068.0137 540.45,3068.0137 " fill="none" id="frota-UC1020" style="stroke:#181818;stroke-width:1.0;"/></g><!--link frota to UC1030--><g id="link_frota_UC1030"><path d="M116.48,3104.1537 C130.31,3112.5937 145.74,3120.6737 161,3126.0137 C263,3161.6737 380.79,3179.6837 482.72,3188.6037 " fill="none" id="frota-UC1030" style="stroke:#181818;stroke-width:1.0;"/></g><!--link frota to UC1040--><g id="link_frota_UC1040"><path d="M74.05,3107.6037 C84.95,3153.2937 109.71,3227.1237 161,3266.0137 C214.42,3306.5237 278.74,3332.6337 344.64,3349.1037 " fill="none" id="frota-UC1040" style="stroke:#181818;stroke-width:1.0;"/></g><!--SRC=[hLR1Rjim3BtxAuYUDg0j8YTjabwphTTYmqx33epDPC9iovNaeC2mVncmmx33lY8_DabEL5jH6hTRa8D5INoFV2JjWbOQj039rryqv5nIfhceakJcbfGM4dA21PPresu05MJkiRlvJWgDRczbdvAankmhhWdUY-KRAIgw5V0j0VDh56Me2Cu-BjXeDBg1XIW5hFkUe9QagSe5OCupmmGbD2LKOYD0yrhOWr8iXGPUcGFeJe9gq6melgvm-slxKm31VKFkWh8tD4fQ6OgrC0jweAmn5iWH2guSvlPtJYjUyHmxnyziL2tPmm3O2m9eYMz_jAdgH210KUFedlVYE0VIcQV18ZJIapHCL4lkE3XuxosDU1kVz9Q9IZM5pPuMkKck-JktocRJXUK1nX60oKc0cjHzmzKJ04P5sLTRD3l9dEezaJsRIOJDrI6RjjOxyKhU2lWsvwlj7oDeHxPFbvUNdpt2LGJX-ZI2Aq7vwF-nxAuZ3gUd7LBEhKDRNoiXorsENccJkiAcgaQPSInUsxiUrODE8w2p5qHXAgM4abUc5Kjyi5TghZh1pI8uysVeSMUy7PLYVkYSZGO7uGlFOhZvqTL_3y8YKu6n_okF9U3n8ktFqW4PGobfRH1Bh77lDAezYum4DdvEZnIqmTmSgeuqZC-fxLD5SaCUEp8jsEGezc7XxQ190SN4YhG_kneibWyiwZlI-6nuu_iYUqoOpGotDMWdtHxRmqN60fiELmdX3fKoR-WIgDAI88tC7XOP0smsE5z3KI93WCs7Pwv5gDHJ495Ha8x-HHmxrtnifbdHDAsMvjGXU1eP4IbxZbGVi43NJGTDUsps6V_9zoHfFzJWucB_QkeRhaF3D3JCGiCyCDZvrpUmq926Xd5ec8I6a2aBcRAGAGkPif1f6ZArEKhQRubTSEP4Rys2THginy7QnF4N]--></g></svg>