<?xml version="1.0" encoding="UTF-8" standalone="no"?><svg xmlns="http://www.w3.org/2000/svg" xmlns:xlink="http://www.w3.org/1999/xlink" contentStyleType="text/css" height="998px" preserveAspectRatio="none" style="width:1306px;height:998px;background:#FFFFFF;" version="1.1" viewBox="0 0 1306 998" width="1306px" zoomAndPan="magnify"><defs/><g><rect fill="none" height="27.6094" id="_title" style="stroke:none;stroke-width:1.0;" width="382" x="461.25" y="10"/><text fill="#000000" font-family="sans-serif" font-size="14" font-weight="bold" lengthAdjust="spacing" textLength="372" x="466.25" y="29.5332">Sequence Diagram (Level 3 - Process View) - US 1180</text><rect fill="#FFFFFF" height="359.8672" style="stroke:#181818;stroke-width:1.0;" width="10" x="334" y="108.5703"/><rect fill="#FFFFFF" height="445.0859" style="stroke:#181818;stroke-width:1.0;" width="10" x="334" y="498.7891"/><rect fill="#FFFFFF" height="299.1641" style="stroke:#181818;stroke-width:1.0;" width="10" x="512" y="138.9219"/><rect fill="#FFFFFF" height="223.4609" style="stroke:#181818;stroke-width:1.0;" width="10" x="517" y="177.2734"/><rect fill="#FFFFFF" height="384.3828" style="stroke:#181818;stroke-width:1.0;" width="10" x="512" y="529.1406"/><rect fill="#FFFFFF" height="308.6797" style="stroke:#181818;stroke-width:1.0;" width="10" x="517" y="567.4922"/><rect fill="#FFFFFF" height="151.7578" style="stroke:#181818;stroke-width:1.0;" width="10" x="897.5" y="212.625"/><rect fill="#FFFFFF" height="194.3672" style="stroke:#181818;stroke-width:1.0;" width="10" x="897.5" y="645.4531"/><rect fill="#FFFFFF" height="91.0547" style="stroke:#181818;stroke-width:1.0;" width="10" x="1168" y="242.9766"/><rect fill="#FFFFFF" height="91.0547" style="stroke:#181818;stroke-width:1.0;" width="10" x="1168" y="718.4141"/><rect fill="#FFFFFF" height="30.3516" style="stroke:#181818;stroke-width:1.0;" width="10" x="1277" y="273.3281"/><rect fill="#FFFFFF" height="30.3516" style="stroke:#181818;stroke-width:1.0;" width="10" x="1277" y="748.7656"/><line style="stroke:#181818;stroke-width:0.5;stroke-dasharray:5.0,5.0;" x1="339" x2="339" y1="76.2188" y2="961.875"/><line style="stroke:#181818;stroke-width:0.5;stroke-dasharray:5.0,5.0;" x1="517" x2="517" y1="76.2188" y2="961.875"/><line style="stroke:#181818;stroke-width:0.5;stroke-dasharray:5.0,5.0;" x1="756.5" x2="756.5" y1="611.7969" y2="961.875"/><line style="stroke:#181818;stroke-width:0.5;stroke-dasharray:5.0,5.0;" x1="902.5" x2="902.5" y1="76.2188" y2="961.875"/><line style="stroke:#181818;stroke-width:0.5;stroke-dasharray:5.0,5.0;" x1="1033.5" x2="1033.5" y1="684.7578" y2="961.875"/><line style="stroke:#181818;stroke-width:0.5;stroke-dasharray:5.0,5.0;" x1="1172.5" x2="1172.5" y1="76.2188" y2="961.875"/><line style="stroke:#181818;stroke-width:0.5;stroke-dasharray:5.0,5.0;" x1="1281.5" x2="1281.5" y1="76.2188" y2="961.875"/><rect fill="#E3E3E3" height="31.6094" rx="2.5" ry="2.5" style="stroke:#181818;stroke-width:0.5;" width="56" x="311" y="43.6094"/><text fill="#000000" font-family="sans-serif" font-size="14" lengthAdjust="spacing" textLength="42" x="318" y="65.1426">Route:</text><rect fill="#E3E3E3" height="31.6094" rx="2.5" ry="2.5" style="stroke:#181818;stroke-width:0.5;" width="56" x="311" y="960.875"/><text fill="#000000" font-family="sans-serif" font-size="14" lengthAdjust="spacing" textLength="42" x="318" y="982.4082">Route:</text><rect fill="#E3E3E3" height="31.6094" rx="2.5" ry="2.5" style="stroke:#181818;stroke-width:0.5;" width="80" x="477" y="43.6094"/><text fill="#000000" font-family="sans-serif" font-size="14" lengthAdjust="spacing" textLength="66" x="484" y="65.1426">Controller:</text><rect fill="#E3E3E3" height="31.6094" rx="2.5" ry="2.5" style="stroke:#181818;stroke-width:0.5;" width="80" x="477" y="960.875"/><text fill="#000000" font-family="sans-serif" font-size="14" lengthAdjust="spacing" textLength="66" x="484" y="982.4082">Controller:</text><rect fill="#E3E3E3" height="31.6094" rx="2.5" ry="2.5" style="stroke:#181818;stroke-width:0.5;" width="127" x="693.5" y="960.875"/><text fill="#000000" font-family="sans-serif" font-size="14" lengthAdjust="spacing" textLength="113" x="700.5" y="982.4082">PassagewayDTO:</text><rect fill="#E3E3E3" height="31.6094" rx="2.5" ry="2.5" style="stroke:#181818;stroke-width:0.5;" width="144" x="830.5" y="43.6094"/><text fill="#000000" font-family="sans-serif" font-size="14" lengthAdjust="spacing" textLength="130" x="837.5" y="65.1426">PassagewayService:</text><rect fill="#E3E3E3" height="31.6094" rx="2.5" ry="2.5" style="stroke:#181818;stroke-width:0.5;" width="144" x="830.5" y="960.875"/><text fill="#000000" font-family="sans-serif" font-size="14" lengthAdjust="spacing" textLength="130" x="837.5" y="982.4082">PassagewayService:</text><rect fill="#E3E3E3" height="31.6094" rx="2.5" ry="2.5" style="stroke:#181818;stroke-width:0.5;" width="97" x="985.5" y="960.875"/><text fill="#000000" font-family="sans-serif" font-size="14" lengthAdjust="spacing" textLength="83" x="992.5" y="982.4082">Passageway:</text><rect fill="#E3E3E3" height="31.6094" rx="2.5" ry="2.5" style="stroke:#181818;stroke-width:0.5;" width="161" x="1092.5" y="43.6094"/><text fill="#000000" font-family="sans-serif" font-size="14" lengthAdjust="spacing" textLength="147" x="1099.5" y="65.1426">PassagewayRepository</text><rect fill="#E3E3E3" height="31.6094" rx="2.5" ry="2.5" style="stroke:#181818;stroke-width:0.5;" width="161" x="1092.5" y="960.875"/><text fill="#000000" font-family="sans-serif" font-size="14" lengthAdjust="spacing" textLength="147" x="1099.5" y="982.4082">PassagewayRepository</text><rect fill="#E3E3E3" height="31.6094" rx="2.5" ry="2.5" style="stroke:#181818;stroke-width:0.5;" width="37" x="1263.5" y="43.6094"/><text fill="#000000" font-family="sans-serif" font-size="14" lengthAdjust="spacing" textLength="23" x="1270.5" y="65.1426">DB:</text><rect fill="#E3E3E3" height="31.6094" rx="2.5" ry="2.5" style="stroke:#181818;stroke-width:0.5;" width="37" x="1263.5" y="960.875"/><text fill="#000000" font-family="sans-serif" font-size="14" lengthAdjust="spacing" textLength="23" x="1270.5" y="982.4082">DB:</text><rect fill="#FFFFFF" height="359.8672" style="stroke:#181818;stroke-width:1.0;" width="10" x="334" y="108.5703"/><rect fill="#FFFFFF" height="445.0859" style="stroke:#181818;stroke-width:1.0;" width="10" x="334" y="498.7891"/><rect fill="#FFFFFF" height="299.1641" style="stroke:#181818;stroke-width:1.0;" width="10" x="512" y="138.9219"/><rect fill="#FFFFFF" height="223.4609" style="stroke:#181818;stroke-width:1.0;" width="10" x="517" y="177.2734"/><rect fill="#FFFFFF" height="384.3828" style="stroke:#181818;stroke-width:1.0;" width="10" x="512" y="529.1406"/><rect fill="#FFFFFF" height="308.6797" style="stroke:#181818;stroke-width:1.0;" width="10" x="517" y="567.4922"/><rect fill="#FFFFFF" height="151.7578" style="stroke:#181818;stroke-width:1.0;" width="10" x="897.5" y="212.625"/><rect fill="#FFFFFF" height="194.3672" style="stroke:#181818;stroke-width:1.0;" width="10" x="897.5" y="645.4531"/><rect fill="#FFFFFF" height="91.0547" style="stroke:#181818;stroke-width:1.0;" width="10" x="1168" y="242.9766"/><rect fill="#FFFFFF" height="91.0547" style="stroke:#181818;stroke-width:1.0;" width="10" x="1168" y="718.4141"/><rect fill="#FFFFFF" height="30.3516" style="stroke:#181818;stroke-width:1.0;" width="10" x="1277" y="273.3281"/><rect fill="#FFFFFF" height="30.3516" style="stroke:#181818;stroke-width:1.0;" width="10" x="1277" y="748.7656"/><ellipse cx="112.5" cy="107.8203" fill="none" rx="4" ry="4" style="stroke:#181818;stroke-width:1.5;"/><polygon fill="#181818" points="322,104.5703,332,108.5703,322,112.5703,326,108.5703" style="stroke:#181818;stroke-width:1.0;"/><line style="stroke:#181818;stroke-width:1.0;" x1="117" x2="328" y1="108.5703" y2="108.5703"/><text fill="#000000" font-family="sans-serif" font-size="13" font-weight="bold" lengthAdjust="spacing" textLength="7" x="120" y="103.7139">1</text><text fill="#000000" font-family="sans-serif" font-size="13" lengthAdjust="spacing" textLength="188" x="131" y="103.7139">GET (.../buildings/passageways)</text><polygon fill="#181818" points="500,134.9219,510,138.9219,500,142.9219,504,138.9219" style="stroke:#181818;stroke-width:1.0;"/><line style="stroke:#181818;stroke-width:1.0;" x1="344" x2="506" y1="138.9219" y2="138.9219"/><text fill="#000000" font-family="sans-serif" font-size="13" font-weight="bold" lengthAdjust="spacing" textLength="7" x="351" y="134.0654">2</text><text fill="#000000" font-family="sans-serif" font-size="13" lengthAdjust="spacing" textLength="131" x="362" y="134.0654">execute(req, res, next)</text><line style="stroke:#181818;stroke-width:1.0;" x1="522" x2="569" y1="164.2734" y2="164.2734"/><line style="stroke:#181818;stroke-width:1.0;" x1="569" x2="569" y1="164.2734" y2="177.2734"/><line style="stroke:#181818;stroke-width:1.0;" x1="528" x2="569" y1="177.2734" y2="177.2734"/><polygon fill="#181818" points="538,173.2734,528,177.2734,538,181.2734,534,177.2734" style="stroke:#181818;stroke-width:1.0;"/><text fill="#000000" font-family="sans-serif" font-size="13" font-weight="bold" lengthAdjust="spacing" textLength="7" x="534" y="159.417">3</text><text fill="#000000" font-family="sans-serif" font-size="13" lengthAdjust="spacing" textLength="184" x="545" y="159.417">getPassageways(req, res, next)</text><polygon fill="#181818" points="885.5,208.625,895.5,212.625,885.5,216.625,889.5,212.625" style="stroke:#181818;stroke-width:1.0;"/><line style="stroke:#181818;stroke-width:1.0;" x1="527" x2="891.5" y1="212.625" y2="212.625"/><text fill="#000000" font-family="sans-serif" font-size="13" font-weight="bold" lengthAdjust="spacing" textLength="7" x="534" y="207.7686">4</text><text fill="#000000" font-family="sans-serif" font-size="13" lengthAdjust="spacing" textLength="209" x="545" y="207.7686">getPassageways(passagewayCode)</text><polygon fill="#181818" points="1156,238.9766,1166,242.9766,1156,246.9766,1160,242.9766" style="stroke:#181818;stroke-width:1.0;"/><line style="stroke:#181818;stroke-width:1.0;" x1="907.5" x2="1162" y1="242.9766" y2="242.9766"/><text fill="#000000" font-family="sans-serif" font-size="13" font-weight="bold" lengthAdjust="spacing" textLength="7" x="914.5" y="238.1201">5</text><text fill="#000000" font-family="sans-serif" font-size="13" lengthAdjust="spacing" textLength="211" x="925.5" y="238.1201">findPassageways(passagewayCode)</text><polygon fill="#181818" points="1265,269.3281,1275,273.3281,1265,277.3281,1269,273.3281" style="stroke:#181818;stroke-width:1.0;"/><line style="stroke:#181818;stroke-width:1.0;" x1="1178" x2="1271" y1="273.3281" y2="273.3281"/><text fill="#000000" font-family="sans-serif" font-size="13" font-weight="bold" lengthAdjust="spacing" textLength="7" x="1185" y="268.4717">6</text><text fill="#000000" font-family="sans-serif" font-size="13" lengthAdjust="spacing" textLength="4" x="1196" y="268.4717"> </text><polygon fill="#181818" points="1189,299.6797,1179,303.6797,1189,307.6797,1185,303.6797" style="stroke:#181818;stroke-width:1.0;"/><line style="stroke:#181818;stroke-width:1.0;stroke-dasharray:2.0,2.0;" x1="1183" x2="1281" y1="303.6797" y2="303.6797"/><text fill="#000000" font-family="sans-serif" font-size="13" font-weight="bold" lengthAdjust="spacing" textLength="7" x="1195" y="298.8232">7</text><text fill="#000000" font-family="sans-serif" font-size="13" lengthAdjust="spacing" textLength="4" x="1206" y="298.8232"> </text><polygon fill="#181818" points="918.5,330.0313,908.5,334.0313,918.5,338.0313,914.5,334.0313" style="stroke:#181818;stroke-width:1.0;"/><line style="stroke:#181818;stroke-width:1.0;stroke-dasharray:2.0,2.0;" x1="912.5" x2="1172" y1="334.0313" y2="334.0313"/><text fill="#000000" font-family="sans-serif" font-size="13" font-weight="bold" lengthAdjust="spacing" textLength="7" x="924.5" y="329.1748">8</text><text fill="#000000" font-family="sans-serif" font-size="13" lengthAdjust="spacing" textLength="4" x="935.5" y="329.1748"> </text><polygon fill="#181818" points="538,360.3828,528,364.3828,538,368.3828,534,364.3828" style="stroke:#181818;stroke-width:1.0;"/><line style="stroke:#181818;stroke-width:1.0;stroke-dasharray:2.0,2.0;" x1="532" x2="901.5" y1="364.3828" y2="364.3828"/><text fill="#000000" font-family="sans-serif" font-size="13" font-weight="bold" lengthAdjust="spacing" textLength="7" x="544" y="359.5264">9</text><text fill="#000000" font-family="sans-serif" font-size="13" lengthAdjust="spacing" textLength="47" x="555" y="359.5264">DTOList</text><line style="stroke:#181818;stroke-width:1.0;stroke-dasharray:2.0,2.0;" x1="527" x2="569" y1="399.7344" y2="399.7344"/><line style="stroke:#181818;stroke-width:1.0;stroke-dasharray:2.0,2.0;" x1="569" x2="569" y1="399.7344" y2="412.7344"/><line style="stroke:#181818;stroke-width:1.0;stroke-dasharray:2.0,2.0;" x1="522" x2="569" y1="412.7344" y2="412.7344"/><polygon fill="#181818" points="532,408.7344,522,412.7344,532,416.7344,528,412.7344" style="stroke:#181818;stroke-width:1.0;"/><text fill="#000000" font-family="sans-serif" font-size="13" font-weight="bold" lengthAdjust="spacing" textLength="14" x="534" y="394.8779">10</text><text fill="#000000" font-family="sans-serif" font-size="13" lengthAdjust="spacing" textLength="90" x="552" y="394.8779">status: 200/404</text><polygon fill="#181818" points="355,434.0859,345,438.0859,355,442.0859,351,438.0859" style="stroke:#181818;stroke-width:1.0;"/><line style="stroke:#181818;stroke-width:1.0;stroke-dasharray:2.0,2.0;" x1="349" x2="516" y1="438.0859" y2="438.0859"/><text fill="#000000" font-family="sans-serif" font-size="13" font-weight="bold" lengthAdjust="spacing" textLength="14" x="361" y="433.2295">11</text><text fill="#000000" font-family="sans-serif" font-size="13" lengthAdjust="spacing" textLength="90" x="379" y="433.2295">status: 200/404</text><polygon fill="#181818" points="11,464.4375,1,468.4375,11,472.4375,7,468.4375" style="stroke:#181818;stroke-width:1.0;"/><line style="stroke:#181818;stroke-width:1.0;stroke-dasharray:2.0,2.0;" x1="5" x2="338" y1="468.4375" y2="468.4375"/><text fill="#000000" font-family="sans-serif" font-size="13" font-weight="bold" lengthAdjust="spacing" textLength="14" x="17" y="463.5811">12</text><text fill="#000000" font-family="sans-serif" font-size="13" lengthAdjust="spacing" textLength="90" x="35" y="463.5811">status: 200/404</text><ellipse cx="4.5" cy="498.0391" fill="none" rx="4" ry="4" style="stroke:#181818;stroke-width:1.5;"/><polygon fill="#181818" points="322,494.7891,332,498.7891,322,502.7891,326,498.7891" style="stroke:#181818;stroke-width:1.0;"/><line style="stroke:#181818;stroke-width:1.0;" x1="9" x2="328" y1="498.7891" y2="498.7891"/><text fill="#000000" font-family="sans-serif" font-size="13" font-weight="bold" lengthAdjust="spacing" textLength="14" x="12" y="493.9326">13</text><text fill="#000000" font-family="sans-serif" font-size="13" lengthAdjust="spacing" textLength="289" x="30" y="493.9326">PUT/PATCH (.../passageways/:passagewayCode)</text><polygon fill="#181818" points="500,525.1406,510,529.1406,500,533.1406,504,529.1406" style="stroke:#181818;stroke-width:1.0;"/><line style="stroke:#181818;stroke-width:1.0;" x1="344" x2="506" y1="529.1406" y2="529.1406"/><text fill="#000000" font-family="sans-serif" font-size="13" font-weight="bold" lengthAdjust="spacing" textLength="14" x="351" y="524.2842">14</text><text fill="#000000" font-family="sans-serif" font-size="13" lengthAdjust="spacing" textLength="131" x="369" y="524.2842">execute(req, res, next)</text><line style="stroke:#181818;stroke-width:1.0;" x1="522" x2="569" y1="554.4922" y2="554.4922"/><line style="stroke:#181818;stroke-width:1.0;" x1="569" x2="569" y1="554.4922" y2="567.4922"/><line style="stroke:#181818;stroke-width:1.0;" x1="528" x2="569" y1="567.4922" y2="567.4922"/><polygon fill="#181818" points="538,563.4922,528,567.4922,538,571.4922,534,567.4922" style="stroke:#181818;stroke-width:1.0;"/><text fill="#000000" font-family="sans-serif" font-size="13" font-weight="bold" lengthAdjust="spacing" textLength="14" x="534" y="549.6357">15</text><text fill="#000000" font-family="sans-serif" font-size="13" lengthAdjust="spacing" textLength="198" x="552" y="549.6357">updatePassageway(req, res, next)</text><polygon fill="#181818" points="681.5,598.8438,691.5,602.8438,681.5,606.8438,685.5,602.8438" style="stroke:#181818;stroke-width:1.0;"/><line style="stroke:#181818;stroke-width:1.0;stroke-dasharray:2.0,2.0;" x1="527" x2="687.5" y1="602.8438" y2="602.8438"/><text fill="#000000" font-family="sans-serif" font-size="13" font-weight="bold" lengthAdjust="spacing" textLength="14" x="534" y="597.9873">16</text><text fill="#000000" font-family="sans-serif" font-size="13" lengthAdjust="spacing" textLength="36" x="552" y="597.9873">create</text><rect fill="#E3E3E3" height="31.6094" rx="2.5" ry="2.5" style="stroke:#181818;stroke-width:0.5;" width="127" x="693.5" y="580.4922"/><text fill="#000000" font-family="sans-serif" font-size="14" lengthAdjust="spacing" textLength="113" x="700.5" y="602.0254">PassagewayDTO:</text><polygon fill="#181818" points="885.5,641.4531,895.5,645.4531,885.5,649.4531,889.5,645.4531" style="stroke:#181818;stroke-width:1.0;"/><line style="stroke:#181818;stroke-width:1.0;" x1="527" x2="891.5" y1="645.4531" y2="645.4531"/><text fill="#000000" font-family="sans-serif" font-size="13" font-weight="bold" lengthAdjust="spacing" textLength="14" x="534" y="640.5967">17</text><text fill="#000000" font-family="sans-serif" font-size="13" lengthAdjust="spacing" textLength="219" x="552" y="640.5967">updatePassageway(passagewayDTO)</text><polygon fill="#181818" points="973.5,671.8047,983.5,675.8047,973.5,679.8047,977.5,675.8047" style="stroke:#181818;stroke-width:1.0;"/><line style="stroke:#181818;stroke-width:1.0;stroke-dasharray:2.0,2.0;" x1="907.5" x2="979.5" y1="675.8047" y2="675.8047"/><text fill="#000000" font-family="sans-serif" font-size="13" font-weight="bold" lengthAdjust="spacing" textLength="14" x="914.5" y="670.9482">18</text><text fill="#000000" font-family="sans-serif" font-size="13" lengthAdjust="spacing" textLength="36" x="932.5" y="670.9482">create</text><rect fill="#E3E3E3" height="31.6094" rx="2.5" ry="2.5" style="stroke:#181818;stroke-width:0.5;" width="97" x="985.5" y="653.4531"/><text fill="#000000" font-family="sans-serif" font-size="14" lengthAdjust="spacing" textLength="83" x="992.5" y="674.9863">Passageway:</text><polygon fill="#181818" points="1156,714.4141,1166,718.4141,1156,722.4141,1160,718.4141" style="stroke:#181818;stroke-width:1.0;"/><line style="stroke:#181818;stroke-width:1.0;" x1="907.5" x2="1162" y1="718.4141" y2="718.4141"/><text fill="#000000" font-family="sans-serif" font-size="13" font-weight="bold" lengthAdjust="spacing" textLength="14" x="914.5" y="713.5576">19</text><text fill="#000000" font-family="sans-serif" font-size="13" lengthAdjust="spacing" textLength="119" x="932.5" y="713.5576">update(passageway)</text><polygon fill="#181818" points="1265,744.7656,1275,748.7656,1265,752.7656,1269,748.7656" style="stroke:#181818;stroke-width:1.0;"/><line style="stroke:#181818;stroke-width:1.0;" x1="1178" x2="1271" y1="748.7656" y2="748.7656"/><text fill="#000000" font-family="sans-serif" font-size="13" font-weight="bold" lengthAdjust="spacing" textLength="14" x="1185" y="743.9092">20</text><text fill="#000000" font-family="sans-serif" font-size="13" lengthAdjust="spacing" textLength="4" x="1203" y="743.9092"> </text><polygon fill="#181818" points="1189,775.1172,1179,779.1172,1189,783.1172,1185,779.1172" style="stroke:#181818;stroke-width:1.0;"/><line style="stroke:#181818;stroke-width:1.0;stroke-dasharray:2.0,2.0;" x1="1183" x2="1281" y1="779.1172" y2="779.1172"/><text fill="#000000" font-family="sans-serif" font-size="13" font-weight="bold" lengthAdjust="spacing" textLength="14" x="1195" y="774.2607">21</text><text fill="#000000" font-family="sans-serif" font-size="13" lengthAdjust="spacing" textLength="4" x="1213" y="774.2607"> </text><polygon fill="#181818" points="918.5,805.4688,908.5,809.4688,918.5,813.4688,914.5,809.4688" style="stroke:#181818;stroke-width:1.0;"/><line style="stroke:#181818;stroke-width:1.0;stroke-dasharray:2.0,2.0;" x1="912.5" x2="1172" y1="809.4688" y2="809.4688"/><text fill="#000000" font-family="sans-serif" font-size="13" font-weight="bold" lengthAdjust="spacing" textLength="14" x="924.5" y="804.6123">22</text><text fill="#000000" font-family="sans-serif" font-size="13" lengthAdjust="spacing" textLength="4" x="942.5" y="804.6123"> </text><polygon fill="#181818" points="538,835.8203,528,839.8203,538,843.8203,534,839.8203" style="stroke:#181818;stroke-width:1.0;"/><line style="stroke:#181818;stroke-width:1.0;stroke-dasharray:2.0,2.0;" x1="532" x2="901.5" y1="839.8203" y2="839.8203"/><text fill="#000000" font-family="sans-serif" font-size="13" font-weight="bold" lengthAdjust="spacing" textLength="14" x="544" y="834.9639">23</text><text fill="#000000" font-family="sans-serif" font-size="13" lengthAdjust="spacing" textLength="4" x="562" y="834.9639"> </text><line style="stroke:#181818;stroke-width:1.0;stroke-dasharray:2.0,2.0;" x1="527" x2="569" y1="875.1719" y2="875.1719"/><line style="stroke:#181818;stroke-width:1.0;stroke-dasharray:2.0,2.0;" x1="569" x2="569" y1="875.1719" y2="888.1719"/><line style="stroke:#181818;stroke-width:1.0;stroke-dasharray:2.0,2.0;" x1="522" x2="569" y1="888.1719" y2="888.1719"/><polygon fill="#181818" points="532,884.1719,522,888.1719,532,892.1719,528,888.1719" style="stroke:#181818;stroke-width:1.0;"/><text fill="#000000" font-family="sans-serif" font-size="13" font-weight="bold" lengthAdjust="spacing" textLength="14" x="534" y="870.3154">24</text><text fill="#000000" font-family="sans-serif" font-size="13" lengthAdjust="spacing" textLength="90" x="552" y="870.3154">status: 200/404</text><polygon fill="#181818" points="355,909.5234,345,913.5234,355,917.5234,351,913.5234" style="stroke:#181818;stroke-width:1.0;"/><line style="stroke:#181818;stroke-width:1.0;stroke-dasharray:2.0,2.0;" x1="349" x2="516" y1="913.5234" y2="913.5234"/><text fill="#000000" font-family="sans-serif" font-size="13" font-weight="bold" lengthAdjust="spacing" textLength="14" x="361" y="908.667">25</text><text fill="#000000" font-family="sans-serif" font-size="13" lengthAdjust="spacing" textLength="90" x="379" y="908.667">status: 200/404</text><polygon fill="#181818" points="11,939.875,1,943.875,11,947.875,7,943.875" style="stroke:#181818;stroke-width:1.0;"/><line style="stroke:#181818;stroke-width:1.0;stroke-dasharray:2.0,2.0;" x1="5" x2="338" y1="943.875" y2="943.875"/><text fill="#000000" font-family="sans-serif" font-size="13" font-weight="bold" lengthAdjust="spacing" textLength="14" x="17" y="939.0186">26</text><text fill="#000000" font-family="sans-serif" font-size="13" lengthAdjust="spacing" textLength="90" x="35" y="939.0186">status: 200/404</text><!--MD5=[97c9878237d334eb4a7a7f40ff7be41a]
@startuml
skinparam monochrome true
skinparam packageStyle rectangle
skinparam shadowing false

title Sequence Diagram (Level 3 - Process View) - US 1180
autonumber

participant "Route:" as Route 
participant "Controller:" as Controller
participant "PassagewayDTO:" as DTO
participant "PassagewayService:" as Service
participant "Passageway:" as Passageway
participant "PassagewayRepository" as Repo
participant "DB:" as DB

?o-> Route : GET (.../buildings/passageways)
activate Route

Route -> Controller : execute(req, res, next)
activate Controller

Controller -> Controller : getPassageways(req, res, next)
activate Controller

Controller -> Service : getPassageways(passagewayCode)
activate Service

Service -> Repo : findPassageways(passagewayCode)
activate Repo

Repo -> DB
activate DB

DB - -> Repo
deactivate DB

Repo - -> Service
deactivate Repo

Service - -> Controller : DTOList
deactivate Service

Controller - -> Controller : status: 200/404
deactivate Controller

Controller - -> Route : status: 200/404
deactivate Controller

<- - Route : status: 200/404
deactivate Route

?o-> Route : PUT/PATCH (.../passageways/:passagewayCode)
activate Route

    Route -> Controller : execute(req, res, next)
    activate Controller
        Controller -> Controller : updatePassageway(req, res, next)
        activate Controller
            Controller - -> DTO** : create
            Controller -> Service : updatePassageway(passagewayDTO)

            activate Service
                Service - -> Passageway** : create
                Service -> Repo : update(passageway)
                activate Repo
                    Repo -> DB :
                    activate DB
                    DB - -> Repo :
                    deactivate DB
                    Repo - -> Service :
                deactivate Repo
                Service - -> Controller :
            deactivate Service

            Controller - -> Controller : status: 200/404
        deactivate Controller
    Controller - -> Route : status: 200/404
    deactivate Controller

<- - Route : status: 200/404
deactivate Route

@enduml

PlantUML version 1.2022.7(Mon Aug 22 18:01:30 WEST 2022)
(GPL source distribution)
Java Runtime: Java(TM) SE Runtime Environment
JVM: Java HotSpot(TM) 64-Bit Server VM
Default Encoding: Cp1252
Language: pt
Country: PT
--></g></svg>