<?xml version="1.0" encoding="UTF-8" standalone="no"?><svg xmlns="http://www.w3.org/2000/svg" xmlns:xlink="http://www.w3.org/1999/xlink" contentStyleType="text/css" height="666px" preserveAspectRatio="none" style="width:1247px;height:666px;background:#FFFFFF;" version="1.1" viewBox="0 0 1247 666" width="1247px" zoomAndPan="magnify"><defs/><g><rect fill="none" height="27.6094" id="_title" style="stroke:none;stroke-width:1.0;" width="401" x="422" y="10"/><text fill="#000000" font-family="sans-serif" font-size="14" font-weight="bold" lengthAdjust="spacing" textLength="391" x="427" y="29.5332">Sequence Diagram (Level 3 - Process View - UI) - US 490</text><rect fill="#FFFFFF" height="30.3516" style="stroke:#181818;stroke-width:1.0;" width="10" x="259" y="126.1797"/><rect fill="#FFFFFF" height="407.7031" style="stroke:#181818;stroke-width:1.0;" width="10" x="259" y="186.8828"/><rect fill="#FFFFFF" height="30" style="stroke:#181818;stroke-width:1.0;" width="10" x="533" y="217.2344"/><rect fill="#FFFFFF" height="286.6484" style="stroke:#181818;stroke-width:1.0;" width="10" x="533" y="277.5859"/><rect fill="#FFFFFF" height="65.7031" style="stroke:#181818;stroke-width:1.0;" width="10" x="538" y="341.2891"/><rect fill="#FFFFFF" height="65.7031" style="stroke:#181818;stroke-width:1.0;" width="10" x="538" y="461.1797"/><rect fill="#FFFFFF" height="30.3516" style="stroke:#181818;stroke-width:1.0;" width="10" x="1035" y="376.6406"/><rect fill="#FFFFFF" height="30.3516" style="stroke:#181818;stroke-width:1.0;" width="10" x="1035" y="496.5313"/><rect fill="none" height="242.2969" style="stroke:#000000;stroke-width:1.5;" width="759.5" x="476.5" y="292.5859"/><line style="stroke:#181818;stroke-width:0.5;stroke-dasharray:5.0,5.0;" x1="263.5" x2="263.5" y1="93.8281" y2="612.5859"/><line style="stroke:#181818;stroke-width:0.5;stroke-dasharray:5.0,5.0;" x1="537.5" x2="537.5" y1="93.8281" y2="612.5859"/><line style="stroke:#181818;stroke-width:0.5;stroke-dasharray:5.0,5.0;" x1="734.5" x2="734.5" y1="93.8281" y2="612.5859"/><line style="stroke:#181818;stroke-width:0.5;stroke-dasharray:5.0,5.0;" x1="1039.5" x2="1039.5" y1="93.8281" y2="612.5859"/><rect fill="#E3E3E3" height="49.2188" rx="2.5" ry="2.5" style="stroke:#181818;stroke-width:0.5;" width="103" x="212.5" y="43.6094"/><text fill="#000000" font-family="sans-serif" font-size="14" font-style="italic" lengthAdjust="spacing" textLength="89" x="219.5" y="65.1426">«Component»</text><text fill="#000000" font-family="sans-serif" font-size="14" lengthAdjust="spacing" textLength="29" x="249.5" y="82.752">View</text><rect fill="#E3E3E3" height="49.2188" rx="2.5" ry="2.5" style="stroke:#181818;stroke-width:0.5;" width="103" x="212.5" y="611.5859"/><text fill="#000000" font-family="sans-serif" font-size="14" font-style="italic" lengthAdjust="spacing" textLength="89" x="219.5" y="633.1191">«Component»</text><text fill="#000000" font-family="sans-serif" font-size="14" lengthAdjust="spacing" textLength="29" x="249.5" y="650.7285">View</text><rect fill="#E3E3E3" height="49.2188" rx="2.5" ry="2.5" style="stroke:#181818;stroke-width:0.5;" width="103" x="486.5" y="43.6094"/><text fill="#000000" font-family="sans-serif" font-size="14" font-style="italic" lengthAdjust="spacing" textLength="89" x="493.5" y="65.1426">«Component»</text><text fill="#000000" font-family="sans-serif" font-size="14" lengthAdjust="spacing" textLength="73" x="501.5" y="82.752">Component</text><rect fill="#E3E3E3" height="49.2188" rx="2.5" ry="2.5" style="stroke:#181818;stroke-width:0.5;" width="103" x="486.5" y="611.5859"/><text fill="#000000" font-family="sans-serif" font-size="14" font-style="italic" lengthAdjust="spacing" textLength="89" x="493.5" y="633.1191">«Component»</text><text fill="#000000" font-family="sans-serif" font-size="14" lengthAdjust="spacing" textLength="73" x="501.5" y="650.7285">Component</text><rect fill="#E3E3E3" height="49.2188" rx="2.5" ry="2.5" style="stroke:#181818;stroke-width:0.5;" width="103" x="683.5" y="43.6094"/><text fill="#000000" font-family="sans-serif" font-size="14" font-style="italic" lengthAdjust="spacing" textLength="89" x="690.5" y="65.1426">«Component»</text><text fill="#000000" font-family="sans-serif" font-size="14" lengthAdjust="spacing" textLength="38" x="716" y="82.752">Model</text><rect fill="#E3E3E3" height="49.2188" rx="2.5" ry="2.5" style="stroke:#181818;stroke-width:0.5;" width="103" x="683.5" y="611.5859"/><text fill="#000000" font-family="sans-serif" font-size="14" font-style="italic" lengthAdjust="spacing" textLength="89" x="690.5" y="633.1191">«Component»</text><text fill="#000000" font-family="sans-serif" font-size="14" lengthAdjust="spacing" textLength="38" x="716" y="650.7285">Model</text><rect fill="#E3E3E3" height="49.2188" rx="2.5" ry="2.5" style="stroke:#181818;stroke-width:0.5;" width="103" x="988.5" y="43.6094"/><text fill="#000000" font-family="sans-serif" font-size="14" font-style="italic" lengthAdjust="spacing" textLength="89" x="995.5" y="65.1426">«Component»</text><text fill="#000000" font-family="sans-serif" font-size="14" lengthAdjust="spacing" textLength="47" x="1016.5" y="82.752">Service</text><rect fill="#E3E3E3" height="49.2188" rx="2.5" ry="2.5" style="stroke:#181818;stroke-width:0.5;" width="103" x="988.5" y="611.5859"/><text fill="#000000" font-family="sans-serif" font-size="14" font-style="italic" lengthAdjust="spacing" textLength="89" x="995.5" y="633.1191">«Component»</text><text fill="#000000" font-family="sans-serif" font-size="14" lengthAdjust="spacing" textLength="47" x="1016.5" y="650.7285">Service</text><rect fill="#FFFFFF" height="30.3516" style="stroke:#181818;stroke-width:1.0;" width="10" x="259" y="126.1797"/><rect fill="#FFFFFF" height="407.7031" style="stroke:#181818;stroke-width:1.0;" width="10" x="259" y="186.8828"/><rect fill="#FFFFFF" height="30" style="stroke:#181818;stroke-width:1.0;" width="10" x="533" y="217.2344"/><rect fill="#FFFFFF" height="286.6484" style="stroke:#181818;stroke-width:1.0;" width="10" x="533" y="277.5859"/><rect fill="#FFFFFF" height="65.7031" style="stroke:#181818;stroke-width:1.0;" width="10" x="538" y="341.2891"/><rect fill="#FFFFFF" height="65.7031" style="stroke:#181818;stroke-width:1.0;" width="10" x="538" y="461.1797"/><rect fill="#FFFFFF" height="30.3516" style="stroke:#181818;stroke-width:1.0;" width="10" x="1035" y="376.6406"/><rect fill="#FFFFFF" height="30.3516" style="stroke:#181818;stroke-width:1.0;" width="10" x="1035" y="496.5313"/><ellipse cx="112.5" cy="125.4297" fill="none" rx="4" ry="4" style="stroke:#181818;stroke-width:1.5;"/><polygon fill="#181818" points="247,122.1797,257,126.1797,247,130.1797,251,126.1797" style="stroke:#181818;stroke-width:1.0;"/><line style="stroke:#181818;stroke-width:1.0;" x1="117" x2="253" y1="126.1797" y2="126.1797"/><text fill="#000000" font-family="sans-serif" font-size="13" font-weight="bold" lengthAdjust="spacing" textLength="7" x="120" y="121.3232">1</text><text fill="#000000" font-family="sans-serif" font-size="13" lengthAdjust="spacing" textLength="113" x="131" y="121.3232">Ask to list requests</text><polygon fill="#181818" points="11,152.5313,1,156.5313,11,160.5313,7,156.5313" style="stroke:#181818;stroke-width:1.0;"/><line style="stroke:#181818;stroke-width:1.0;stroke-dasharray:2.0,2.0;" x1="5" x2="263" y1="156.5313" y2="156.5313"/><text fill="#000000" font-family="sans-serif" font-size="13" font-weight="bold" lengthAdjust="spacing" textLength="7" x="17" y="151.6748">2</text><text fill="#000000" font-family="sans-serif" font-size="13" lengthAdjust="spacing" textLength="141" x="28" y="151.6748">Ask to choose the filters</text><ellipse cx="31.5" cy="186.1328" fill="none" rx="4" ry="4" style="stroke:#181818;stroke-width:1.5;"/><polygon fill="#181818" points="247,182.8828,257,186.8828,247,190.8828,251,186.8828" style="stroke:#181818;stroke-width:1.0;"/><line style="stroke:#181818;stroke-width:1.0;" x1="36" x2="253" y1="186.8828" y2="186.8828"/><text fill="#000000" font-family="sans-serif" font-size="13" font-weight="bold" lengthAdjust="spacing" textLength="7" x="39" y="182.0264">3</text><text fill="#000000" font-family="sans-serif" font-size="13" lengthAdjust="spacing" textLength="194" x="50" y="182.0264">Choose the filters and asks to list</text><polygon fill="#181818" points="521,213.2344,531,217.2344,521,221.2344,525,217.2344" style="stroke:#181818;stroke-width:1.0;"/><line style="stroke:#181818;stroke-width:1.0;" x1="269" x2="527" y1="217.2344" y2="217.2344"/><text fill="#000000" font-family="sans-serif" font-size="13" font-weight="bold" lengthAdjust="spacing" textLength="7" x="276" y="212.3779">4</text><text fill="#000000" font-family="sans-serif" font-size="13" lengthAdjust="spacing" textLength="122" x="287" y="212.3779">onTaskTypeChange()</text><polygon fill="#181818" points="521,273.5859,531,277.5859,521,281.5859,525,277.5859" style="stroke:#181818;stroke-width:1.0;"/><line style="stroke:#181818;stroke-width:1.0;" x1="269" x2="527" y1="277.5859" y2="277.5859"/><text fill="#000000" font-family="sans-serif" font-size="13" font-weight="bold" lengthAdjust="spacing" textLength="7" x="276" y="272.7295">5</text><text fill="#000000" font-family="sans-serif" font-size="13" lengthAdjust="spacing" textLength="118" x="287" y="272.7295">onFilterButtonClick()</text><path d="M476.5,292.5859 L537.5,292.5859 L537.5,300.9375 L527.5,310.9375 L476.5,310.9375 L476.5,292.5859 " fill="#EEEEEE" style="stroke:#000000;stroke-width:1.5;"/><rect fill="none" height="242.2969" style="stroke:#000000;stroke-width:1.5;" width="759.5" x="476.5" y="292.5859"/><text fill="#000000" font-family="sans-serif" font-size="13" font-weight="bold" lengthAdjust="spacing" textLength="16" x="491.5" y="307.0811">alt</text><text fill="#000000" font-family="sans-serif" font-size="11" font-weight="bold" lengthAdjust="spacing" textLength="201" x="552.5" y="306.0049">[selectedTaskType === surveillance]</text><line style="stroke:#181818;stroke-width:1.0;stroke-dasharray:2.0,2.0;" x1="543" x2="590" y1="328.2891" y2="328.2891"/><line style="stroke:#181818;stroke-width:1.0;stroke-dasharray:2.0,2.0;" x1="590" x2="590" y1="328.2891" y2="341.2891"/><line style="stroke:#181818;stroke-width:1.0;stroke-dasharray:2.0,2.0;" x1="549" x2="590" y1="341.2891" y2="341.2891"/><polygon fill="#181818" points="559,337.2891,549,341.2891,559,345.2891,555,341.2891" style="stroke:#181818;stroke-width:1.0;"/><text fill="#000000" font-family="sans-serif" font-size="13" font-weight="bold" lengthAdjust="spacing" textLength="7" x="555" y="323.4326">6</text><text fill="#000000" font-family="sans-serif" font-size="13" lengthAdjust="spacing" textLength="130" x="566" y="323.4326">getSurveillanceTasks()</text><polygon fill="#181818" points="1023,372.6406,1033,376.6406,1023,380.6406,1027,376.6406" style="stroke:#181818;stroke-width:1.0;"/><line style="stroke:#181818;stroke-width:1.0;stroke-dasharray:2.0,2.0;" x1="548" x2="1029" y1="376.6406" y2="376.6406"/><text fill="#000000" font-family="sans-serif" font-size="13" font-weight="bold" lengthAdjust="spacing" textLength="7" x="555" y="371.7842">7</text><text fill="#000000" font-family="sans-serif" font-size="13" lengthAdjust="spacing" textLength="418" x="566" y="371.7842">getSurveillanceTasks(selectedStatus, startDate, endDate, selectedUser)</text><polygon fill="#181818" points="1234,402.9922,1244,406.9922,1234,410.9922,1238,406.9922" style="stroke:#181818;stroke-width:1.0;"/><line style="stroke:#181818;stroke-width:1.0;stroke-dasharray:2.0,2.0;" x1="1040" x2="1240" y1="406.9922" y2="406.9922"/><text fill="#000000" font-family="sans-serif" font-size="13" font-weight="bold" lengthAdjust="spacing" textLength="7" x="1047" y="402.1357">8</text><text fill="#000000" font-family="sans-serif" font-size="13" lengthAdjust="spacing" textLength="164" x="1058" y="402.1357">GET( .../tasks/surveillances)</text><line style="stroke:#000000;stroke-width:1.0;stroke-dasharray:2.0,2.0;" x1="476.5" x2="1236" y1="415.9922" y2="415.9922"/><text fill="#000000" font-family="sans-serif" font-size="11" font-weight="bold" lengthAdjust="spacing" textLength="178" x="481.5" y="427.4111">[selectedTaskType === delivery]</text><line style="stroke:#181818;stroke-width:1.0;stroke-dasharray:2.0,2.0;" x1="543" x2="590" y1="448.1797" y2="448.1797"/><line style="stroke:#181818;stroke-width:1.0;stroke-dasharray:2.0,2.0;" x1="590" x2="590" y1="448.1797" y2="461.1797"/><line style="stroke:#181818;stroke-width:1.0;stroke-dasharray:2.0,2.0;" x1="549" x2="590" y1="461.1797" y2="461.1797"/><polygon fill="#181818" points="559,457.1797,549,461.1797,559,465.1797,555,461.1797" style="stroke:#181818;stroke-width:1.0;"/><text fill="#000000" font-family="sans-serif" font-size="13" font-weight="bold" lengthAdjust="spacing" textLength="7" x="555" y="443.3232">9</text><text fill="#000000" font-family="sans-serif" font-size="13" lengthAdjust="spacing" textLength="162" x="566" y="443.3232">getPickupAndDeliveryTask()</text><polygon fill="#181818" points="1023,492.5313,1033,496.5313,1023,500.5313,1027,496.5313" style="stroke:#181818;stroke-width:1.0;"/><line style="stroke:#181818;stroke-width:1.0;stroke-dasharray:2.0,2.0;" x1="548" x2="1029" y1="496.5313" y2="496.5313"/><text fill="#000000" font-family="sans-serif" font-size="13" font-weight="bold" lengthAdjust="spacing" textLength="14" x="555" y="491.6748">10</text><text fill="#000000" font-family="sans-serif" font-size="13" lengthAdjust="spacing" textLength="450" x="573" y="491.6748">getPickupAndDeliveryTask(selectedStatus, startDate, endDate, selectedUser)</text><polygon fill="#181818" points="1234,522.8828,1244,526.8828,1234,530.8828,1238,526.8828" style="stroke:#181818;stroke-width:1.0;"/><line style="stroke:#181818;stroke-width:1.0;stroke-dasharray:2.0,2.0;" x1="1040" x2="1240" y1="526.8828" y2="526.8828"/><text fill="#000000" font-family="sans-serif" font-size="13" font-weight="bold" lengthAdjust="spacing" textLength="14" x="1047" y="522.0264">11</text><text fill="#000000" font-family="sans-serif" font-size="13" lengthAdjust="spacing" textLength="143" x="1065" y="522.0264">GET( .../tasks/deliveries)</text><polygon fill="#181818" points="280,560.2344,270,564.2344,280,568.2344,276,564.2344" style="stroke:#181818;stroke-width:1.0;"/><line style="stroke:#181818;stroke-width:1.0;stroke-dasharray:2.0,2.0;" x1="274" x2="537" y1="564.2344" y2="564.2344"/><text fill="#000000" font-family="sans-serif" font-size="13" font-weight="bold" lengthAdjust="spacing" textLength="14" x="286" y="559.3779">12</text><text fill="#000000" font-family="sans-serif" font-size="13" lengthAdjust="spacing" textLength="222" x="304" y="559.3779">Lists the requests that fulllfill the filters</text><polygon fill="#181818" points="11,590.5859,1,594.5859,11,598.5859,7,594.5859" style="stroke:#181818;stroke-width:1.0;"/><line style="stroke:#181818;stroke-width:1.0;stroke-dasharray:2.0,2.0;" x1="5" x2="263" y1="594.5859" y2="594.5859"/><text fill="#000000" font-family="sans-serif" font-size="13" font-weight="bold" lengthAdjust="spacing" textLength="14" x="17" y="589.7295">13</text><text fill="#000000" font-family="sans-serif" font-size="13" lengthAdjust="spacing" textLength="222" x="35" y="589.7295">Lists the requests that fulllfill the filters</text><!--MD5=[2c17bfc1fdf0038db80fb80b2a0de05d]
@startuml
skinparam monochrome true
skinparam packageStyle rectangle
skinparam shadowing false

title Sequence Diagram (Level 3 - Process View - UI) - US 490
autonumber

participant "View" as View <<Component>>
participant "Component" as Component <<Component>>
participant "Model" as Model <<Component>>
participant "Service" as Service <<Component>>

?o-> View : Ask to list requests
activate View

<- - View : Ask to choose the filters
deactivate View

?o-> View : Choose the filters and asks to list
activate View

        View -> Component : onTaskTypeChange()
    activate Component
    deactivate Component

        View -> Component : onFilterButtonClick()
    activate Component
        alt selectedTaskType === surveillance
            Component - -> Component : getSurveillanceTasks()
        activate Component
            Component - -> Service : getSurveillanceTasks(selectedStatus, startDate, endDate, selectedUser)
        activate Service
            Service - -> : GET( .../tasks/surveillances)
        deactivate Service
        deactivate Component
        else selectedTaskType === delivery
            Component - -> Component : getPickupAndDeliveryTask()
        activate Component
            Component - -> Service : getPickupAndDeliveryTask(selectedStatus, startDate, endDate, selectedUser)
        activate Service
            Service - -> : GET( .../tasks/deliveries)
        deactivate Service
        deactivate Component
        end
        Component - -> View : Lists the requests that fulllfill the filters
    deactivate Component

<- - View : Lists the requests that fulllfill the filters
deactivate View

@enduml

PlantUML version 1.2022.7(Mon Aug 22 18:01:30 WEST 2022)
(GPL source distribution)
Java Runtime: Java(TM) SE Runtime Environment
JVM: Java HotSpot(TM) 64-Bit Server VM
Default Encoding: Cp1252
Language: pt
Country: PT
--></g></svg>