<?xml version="1.0" encoding="us-ascii" standalone="no"?><svg xmlns="http://www.w3.org/2000/svg" xmlns:xlink="http://www.w3.org/1999/xlink" contentStyleType="text/css" height="836px" preserveAspectRatio="none" style="width:1141px;height:836px;background:#FFFFFF;" version="1.1" viewBox="0 0 1141 836" width="1141px" zoomAndPan="magnify"><defs/><g><text fill="#000000" font-family="sans-serif" font-size="14" font-weight="bold" lengthAdjust="spacing" textLength="408" x="365.5" y="30.1074">Sequence Diagram (Level 3 - Process View - MD) - US 1020</text><rect fill="#FFFFFF" height="594.5098" style="stroke:#181818;stroke-width:1.0;" width="10" x="179" y="148.7754"/><rect fill="#FFFFFF" height="531.9277" style="stroke:#181818;stroke-width:1.0;" width="10" x="350" y="180.0664"/><rect fill="#FFFFFF" height="454.3457" style="stroke:#181818;stroke-width:1.0;" width="10" x="355" y="219.3574"/><rect fill="#FFFFFF" height="299.9004" style="stroke:#181818;stroke-width:1.0;" width="10" x="716.5" y="336.5117"/><rect fill="#FFFFFF" height="31.291" style="stroke:#181818;stroke-width:1.0;" width="10" x="847" y="448.666"/><rect fill="#FFFFFF" height="93.873" style="stroke:#181818;stroke-width:1.0;" width="10" x="962" y="511.248"/><rect fill="#FFFFFF" height="31.291" style="stroke:#181818;stroke-width:1.0;" width="10" x="1084" y="542.5391"/><line style="stroke:#181818;stroke-width:0.5;stroke-dasharray:5.0,5.0;" x1="183.5" x2="183.5" y1="115.4844" y2="761.2852"/><line style="stroke:#181818;stroke-width:0.5;stroke-dasharray:5.0,5.0;" x1="355" x2="355" y1="115.4844" y2="761.2852"/><line style="stroke:#181818;stroke-width:0.5;stroke-dasharray:5.0,5.0;" x1="583" x2="583" y1="282.7891" y2="761.2852"/><line style="stroke:#181818;stroke-width:0.5;stroke-dasharray:5.0,5.0;" x1="721" x2="721" y1="115.4844" y2="761.2852"/><line style="stroke:#181818;stroke-width:0.5;stroke-dasharray:5.0,5.0;" x1="852" x2="852" y1="394.9434" y2="761.2852"/><line style="stroke:#181818;stroke-width:0.5;stroke-dasharray:5.0,5.0;" x1="967" x2="967" y1="115.4844" y2="761.2852"/><line style="stroke:#181818;stroke-width:0.5;stroke-dasharray:5.0,5.0;" x1="1089" x2="1089" y1="115.4844" y2="761.2852"/><rect fill="#E3E3E3" height="51.2422" rx="2.5" ry="2.5" style="stroke:#181818;stroke-width:0.5;" width="93" x="137.5" y="63.2422"/><text fill="#000000" font-family="sans-serif" font-size="14" font-style="italic" lengthAdjust="spacing" textLength="54" x="157" y="85.3496">&#171;Route&#187;</text><text fill="#000000" font-family="sans-serif" font-size="14" lengthAdjust="spacing" textLength="79" x="144.5" y="103.9707">deviceRoute</text><rect fill="#E3E3E3" height="51.2422" rx="2.5" ry="2.5" style="stroke:#181818;stroke-width:0.5;" width="93" x="137.5" y="760.2852"/><text fill="#000000" font-family="sans-serif" font-size="14" font-style="italic" lengthAdjust="spacing" textLength="54" x="157" y="782.3926">&#171;Route&#187;</text><text fill="#000000" font-family="sans-serif" font-size="14" lengthAdjust="spacing" textLength="79" x="144.5" y="801.0137">deviceRoute</text><rect fill="#E3E3E3" height="69.8633" rx="2.5" ry="2.5" style="stroke:#181818;stroke-width:0.5;" width="126" x="292" y="44.6211"/><text fill="#000000" font-family="sans-serif" font-size="14" font-style="italic" lengthAdjust="spacing" textLength="78" x="316" y="66.7285">&#171;Controller&#187;</text><text fill="#000000" font-family="sans-serif" font-size="14" lengthAdjust="spacing" textLength="70" x="320" y="85.3496">ctrlDevice :</text><text fill="#000000" font-family="sans-serif" font-size="14" lengthAdjust="spacing" textLength="108" x="303" y="103.9707">IDeviceController</text><rect fill="#E3E3E3" height="69.8633" rx="2.5" ry="2.5" style="stroke:#181818;stroke-width:0.5;" width="126" x="292" y="760.2852"/><text fill="#000000" font-family="sans-serif" font-size="14" font-style="italic" lengthAdjust="spacing" textLength="78" x="316" y="782.3926">&#171;Controller&#187;</text><text fill="#000000" font-family="sans-serif" font-size="14" lengthAdjust="spacing" textLength="70" x="320" y="801.0137">ctrlDevice :</text><text fill="#000000" font-family="sans-serif" font-size="14" lengthAdjust="spacing" textLength="108" x="303" y="819.6348">IDeviceController</text><rect fill="#E3E3E3" height="69.8633" rx="2.5" ry="2.5" style="stroke:#181818;stroke-width:0.5;" width="94" x="536" y="760.2852"/><text fill="#000000" font-family="sans-serif" font-size="14" font-style="italic" lengthAdjust="spacing" textLength="46" x="560" y="782.3926">&#171;DTO&#187;</text><text fill="#000000" font-family="sans-serif" font-size="14" lengthAdjust="spacing" textLength="79" x="543.5" y="801.0137">deviceDTO :</text><text fill="#000000" font-family="sans-serif" font-size="14" lengthAdjust="spacing" textLength="76" x="547" y="819.6348">IDeviceDTO</text><rect fill="#E3E3E3" height="69.8633" rx="2.5" ry="2.5" style="stroke:#181818;stroke-width:0.5;" width="163" x="640" y="44.6211"/><text fill="#000000" font-family="sans-serif" font-size="14" font-style="italic" lengthAdjust="spacing" textLength="62" x="690.5" y="66.7285">&#171;Service&#187;</text><text fill="#000000" font-family="sans-serif" font-size="14" lengthAdjust="spacing" textLength="149" x="647" y="85.3496">deviceServiceInstance :</text><text fill="#000000" font-family="sans-serif" font-size="14" lengthAdjust="spacing" textLength="93" x="677" y="103.9707">IDeviceService</text><rect fill="#E3E3E3" height="69.8633" rx="2.5" ry="2.5" style="stroke:#181818;stroke-width:0.5;" width="163" x="640" y="760.2852"/><text fill="#000000" font-family="sans-serif" font-size="14" font-style="italic" lengthAdjust="spacing" textLength="62" x="690.5" y="782.3926">&#171;Service&#187;</text><text fill="#000000" font-family="sans-serif" font-size="14" lengthAdjust="spacing" textLength="149" x="647" y="801.0137">deviceServiceInstance :</text><text fill="#000000" font-family="sans-serif" font-size="14" lengthAdjust="spacing" textLength="93" x="677" y="819.6348">IDeviceService</text><rect fill="#E3E3E3" height="69.8633" rx="2.5" ry="2.5" style="stroke:#181818;stroke-width:0.5;" width="78" x="813" y="760.2852"/><text fill="#000000" font-family="sans-serif" font-size="14" font-style="italic" lengthAdjust="spacing" textLength="64" x="820" y="782.3926">&#171;Domain&#187;</text><text fill="#000000" font-family="sans-serif" font-size="14" lengthAdjust="spacing" textLength="49" x="827.5" y="801.0137">device :</text><text fill="#000000" font-family="sans-serif" font-size="14" lengthAdjust="spacing" textLength="41" x="833.5" y="819.6348">device</text><rect fill="#E3E3E3" height="69.8633" rx="2.5" ry="2.5" style="stroke:#181818;stroke-width:0.5;" width="132" x="901" y="44.6211"/><text fill="#000000" font-family="sans-serif" font-size="14" font-style="italic" lengthAdjust="spacing" textLength="84" x="925" y="66.7285">&#171;Repository&#187;</text><text fill="#000000" font-family="sans-serif" font-size="14" lengthAdjust="spacing" textLength="83" x="925.5" y="85.3496">deviceRepo :</text><text fill="#000000" font-family="sans-serif" font-size="14" lengthAdjust="spacing" textLength="114" x="912" y="103.9707">IDeviceRepository</text><rect fill="#E3E3E3" height="69.8633" rx="2.5" ry="2.5" style="stroke:#181818;stroke-width:0.5;" width="132" x="901" y="760.2852"/><text fill="#000000" font-family="sans-serif" font-size="14" font-style="italic" lengthAdjust="spacing" textLength="84" x="925" y="782.3926">&#171;Repository&#187;</text><text fill="#000000" font-family="sans-serif" font-size="14" lengthAdjust="spacing" textLength="83" x="925.5" y="801.0137">deviceRepo :</text><text fill="#000000" font-family="sans-serif" font-size="14" lengthAdjust="spacing" textLength="114" x="912" y="819.6348">IDeviceRepository</text><rect fill="#E3E3E3" height="51.2422" rx="2.5" ry="2.5" style="stroke:#181818;stroke-width:0.5;" width="92" x="1043" y="63.2422"/><text fill="#000000" font-family="sans-serif" font-size="14" font-style="italic" lengthAdjust="spacing" textLength="78" x="1050" y="85.3496">&#171;DataBase&#187;</text><text fill="#000000" font-family="sans-serif" font-size="14" lengthAdjust="spacing" textLength="19" x="1079.5" y="103.9707">DB</text><rect fill="#E3E3E3" height="51.2422" rx="2.5" ry="2.5" style="stroke:#181818;stroke-width:0.5;" width="92" x="1043" y="760.2852"/><text fill="#000000" font-family="sans-serif" font-size="14" font-style="italic" lengthAdjust="spacing" textLength="78" x="1050" y="782.3926">&#171;DataBase&#187;</text><text fill="#000000" font-family="sans-serif" font-size="14" lengthAdjust="spacing" textLength="19" x="1079.5" y="801.0137">DB</text><rect fill="#FFFFFF" height="594.5098" style="stroke:#181818;stroke-width:1.0;" width="10" x="179" y="148.7754"/><rect fill="#FFFFFF" height="531.9277" style="stroke:#181818;stroke-width:1.0;" width="10" x="350" y="180.0664"/><rect fill="#FFFFFF" height="454.3457" style="stroke:#181818;stroke-width:1.0;" width="10" x="355" y="219.3574"/><rect fill="#FFFFFF" height="299.9004" style="stroke:#181818;stroke-width:1.0;" width="10" x="716.5" y="336.5117"/><rect fill="#FFFFFF" height="31.291" style="stroke:#181818;stroke-width:1.0;" width="10" x="847" y="448.666"/><rect fill="#FFFFFF" height="93.873" style="stroke:#181818;stroke-width:1.0;" width="10" x="962" y="511.248"/><rect fill="#FFFFFF" height="31.291" style="stroke:#181818;stroke-width:1.0;" width="10" x="1084" y="542.5391"/><ellipse cx="4.5" cy="148.0254" fill="none" rx="4" ry="4" style="stroke:#181818;stroke-width:1.5;"/><polygon fill="#181818" points="167,144.7754,177,148.7754,167,152.7754,171,148.7754" style="stroke:#181818;stroke-width:1.0;"/><line style="stroke:#181818;stroke-width:1.0;" x1="9" x2="173" y1="148.7754" y2="148.7754"/><text fill="#000000" font-family="sans-serif" font-size="13" font-weight="bold" lengthAdjust="spacing" textLength="7" x="12" y="143.5127">1</text><text fill="#000000" font-family="sans-serif" font-size="13" lengthAdjust="spacing" textLength="141" x="23" y="143.5127">PATH (.../devices/:code)</text><polygon fill="#181818" points="338,176.0664,348,180.0664,338,184.0664,342,180.0664" style="stroke:#181818;stroke-width:1.0;"/><line style="stroke:#181818;stroke-width:1.0;" x1="189" x2="344" y1="180.0664" y2="180.0664"/><text fill="#000000" font-family="sans-serif" font-size="13" font-weight="bold" lengthAdjust="spacing" textLength="7" x="196" y="174.8037">2</text><text fill="#000000" font-family="sans-serif" font-size="13" lengthAdjust="spacing" textLength="131" x="207" y="174.8037">execute(req, res, next)</text><line style="stroke:#181818;stroke-width:1.0;" x1="360" x2="407" y1="206.3574" y2="206.3574"/><line style="stroke:#181818;stroke-width:1.0;" x1="407" x2="407" y1="206.3574" y2="219.3574"/><line style="stroke:#181818;stroke-width:1.0;" x1="366" x2="407" y1="219.3574" y2="219.3574"/><polygon fill="#181818" points="376,215.3574,366,219.3574,376,223.3574,372,219.3574" style="stroke:#181818;stroke-width:1.0;"/><text fill="#000000" font-family="sans-serif" font-size="13" font-weight="bold" lengthAdjust="spacing" textLength="7" x="372" y="201.0947">3</text><text fill="#000000" font-family="sans-serif" font-size="13" lengthAdjust="spacing" textLength="193" x="383" y="201.0947">updateStateDevice(req, res, next)</text><polygon fill="#181818" points="524,251.6484,534,255.6484,524,259.6484,528,255.6484" style="stroke:#181818;stroke-width:1.0;"/><line style="stroke:#181818;stroke-width:1.0;stroke-dasharray:2.0,2.0;" x1="365" x2="530" y1="255.6484" y2="255.6484"/><text fill="#000000" font-family="sans-serif" font-size="13" font-weight="bold" lengthAdjust="spacing" textLength="7" x="372" y="250.3857">4</text><text fill="#000000" font-family="sans-serif" font-size="13" lengthAdjust="spacing" textLength="36" x="383" y="250.3857">create</text><rect fill="#E3E3E3" height="69.8633" rx="2.5" ry="2.5" style="stroke:#181818;stroke-width:0.5;" width="94" x="536" y="232.3574"/><text fill="#000000" font-family="sans-serif" font-size="14" font-style="italic" lengthAdjust="spacing" textLength="46" x="560" y="254.4648">&#171;DTO&#187;</text><text fill="#000000" font-family="sans-serif" font-size="14" lengthAdjust="spacing" textLength="79" x="543.5" y="273.0859">deviceDTO :</text><text fill="#000000" font-family="sans-serif" font-size="14" lengthAdjust="spacing" textLength="76" x="547" y="291.707">IDeviceDTO</text><polygon fill="#181818" points="704.5,332.5117,714.5,336.5117,704.5,340.5117,708.5,336.5117" style="stroke:#181818;stroke-width:1.0;"/><line style="stroke:#181818;stroke-width:1.0;" x1="365" x2="710.5" y1="336.5117" y2="336.5117"/><text fill="#000000" font-family="sans-serif" font-size="13" font-weight="bold" lengthAdjust="spacing" textLength="7" x="372" y="331.249">5</text><text fill="#000000" font-family="sans-serif" font-size="13" lengthAdjust="spacing" textLength="144" x="383" y="331.249">updateStateDevice(code)</text><polygon fill="#181818" points="801,363.8027,811,367.8027,801,371.8027,805,367.8027" style="stroke:#181818;stroke-width:1.0;"/><line style="stroke:#181818;stroke-width:1.0;stroke-dasharray:2.0,2.0;" x1="726.5" x2="807" y1="367.8027" y2="367.8027"/><text fill="#000000" font-family="sans-serif" font-size="13" font-weight="bold" lengthAdjust="spacing" textLength="7" x="733.5" y="362.54">6</text><text fill="#000000" font-family="sans-serif" font-size="13" lengthAdjust="spacing" textLength="36" x="744.5" y="362.54">create</text><rect fill="#E3E3E3" height="69.8633" rx="2.5" ry="2.5" style="stroke:#181818;stroke-width:0.5;" width="78" x="813" y="344.5117"/><text fill="#000000" font-family="sans-serif" font-size="14" font-style="italic" lengthAdjust="spacing" textLength="64" x="820" y="366.6191">&#171;Domain&#187;</text><text fill="#000000" font-family="sans-serif" font-size="14" lengthAdjust="spacing" textLength="49" x="827.5" y="385.2402">device :</text><text fill="#000000" font-family="sans-serif" font-size="14" lengthAdjust="spacing" textLength="41" x="833.5" y="403.8613">device</text><polygon fill="#181818" points="835,444.666,845,448.666,835,452.666,839,448.666" style="stroke:#181818;stroke-width:1.0;"/><line style="stroke:#181818;stroke-width:1.0;" x1="726.5" x2="841" y1="448.666" y2="448.666"/><text fill="#000000" font-family="sans-serif" font-size="13" font-weight="bold" lengthAdjust="spacing" textLength="7" x="733.5" y="443.4033">7</text><text fill="#000000" font-family="sans-serif" font-size="13" lengthAdjust="spacing" textLength="71" x="744.5" y="443.4033">nextStatus()</text><polygon fill="#181818" points="737.5,475.957,727.5,479.957,737.5,483.957,733.5,479.957" style="stroke:#181818;stroke-width:1.0;"/><line style="stroke:#181818;stroke-width:1.0;stroke-dasharray:2.0,2.0;" x1="731.5" x2="851" y1="479.957" y2="479.957"/><text fill="#000000" font-family="sans-serif" font-size="13" font-weight="bold" lengthAdjust="spacing" textLength="7" x="743.5" y="474.6943">8</text><text fill="#000000" font-family="sans-serif" font-size="13" lengthAdjust="spacing" textLength="4" x="754.5" y="474.6943">&#160;</text><polygon fill="#181818" points="950,507.248,960,511.248,950,515.248,954,511.248" style="stroke:#181818;stroke-width:1.0;"/><line style="stroke:#181818;stroke-width:1.0;" x1="726.5" x2="956" y1="511.248" y2="511.248"/><text fill="#000000" font-family="sans-serif" font-size="13" font-weight="bold" lengthAdjust="spacing" textLength="7" x="733.5" y="505.9854">9</text><text fill="#000000" font-family="sans-serif" font-size="13" lengthAdjust="spacing" textLength="83" x="744.5" y="505.9854">update(device)</text><polygon fill="#181818" points="1072,538.5391,1082,542.5391,1072,546.5391,1076,542.5391" style="stroke:#181818;stroke-width:1.0;"/><line style="stroke:#181818;stroke-width:1.0;" x1="972" x2="1078" y1="542.5391" y2="542.5391"/><text fill="#000000" font-family="sans-serif" font-size="13" font-weight="bold" lengthAdjust="spacing" textLength="14" x="979" y="537.2764">10</text><text fill="#000000" font-family="sans-serif" font-size="13" lengthAdjust="spacing" textLength="70" x="997" y="537.2764">save(device)</text><polygon fill="#181818" points="983,569.8301,973,573.8301,983,577.8301,979,573.8301" style="stroke:#181818;stroke-width:1.0;"/><line style="stroke:#181818;stroke-width:1.0;stroke-dasharray:2.0,2.0;" x1="977" x2="1088" y1="573.8301" y2="573.8301"/><text fill="#000000" font-family="sans-serif" font-size="13" font-weight="bold" lengthAdjust="spacing" textLength="14" x="989" y="568.5674">11</text><text fill="#000000" font-family="sans-serif" font-size="13" lengthAdjust="spacing" textLength="4" x="1007" y="568.5674">&#160;</text><polygon fill="#181818" points="737.5,601.1211,727.5,605.1211,737.5,609.1211,733.5,605.1211" style="stroke:#181818;stroke-width:1.0;"/><line style="stroke:#181818;stroke-width:1.0;stroke-dasharray:2.0,2.0;" x1="731.5" x2="966" y1="605.1211" y2="605.1211"/><text fill="#000000" font-family="sans-serif" font-size="13" font-weight="bold" lengthAdjust="spacing" textLength="14" x="743.5" y="599.8584">12</text><text fill="#000000" font-family="sans-serif" font-size="13" lengthAdjust="spacing" textLength="4" x="761.5" y="599.8584">&#160;</text><polygon fill="#181818" points="376,632.4121,366,636.4121,376,640.4121,372,636.4121" style="stroke:#181818;stroke-width:1.0;"/><line style="stroke:#181818;stroke-width:1.0;stroke-dasharray:2.0,2.0;" x1="370" x2="720.5" y1="636.4121" y2="636.4121"/><text fill="#000000" font-family="sans-serif" font-size="13" font-weight="bold" lengthAdjust="spacing" textLength="14" x="382" y="631.1494">13</text><text fill="#000000" font-family="sans-serif" font-size="13" lengthAdjust="spacing" textLength="4" x="400" y="631.1494">&#160;</text><line style="stroke:#181818;stroke-width:1.0;stroke-dasharray:2.0,2.0;" x1="365" x2="407" y1="672.7031" y2="672.7031"/><line style="stroke:#181818;stroke-width:1.0;stroke-dasharray:2.0,2.0;" x1="407" x2="407" y1="672.7031" y2="685.7031"/><line style="stroke:#181818;stroke-width:1.0;stroke-dasharray:2.0,2.0;" x1="360" x2="407" y1="685.7031" y2="685.7031"/><polygon fill="#181818" points="370,681.7031,360,685.7031,370,689.7031,366,685.7031" style="stroke:#181818;stroke-width:1.0;"/><text fill="#000000" font-family="sans-serif" font-size="13" font-weight="bold" lengthAdjust="spacing" textLength="14" x="372" y="667.4404">14</text><text fill="#000000" font-family="sans-serif" font-size="13" lengthAdjust="spacing" textLength="90" x="390" y="667.4404">status: 200/404</text><polygon fill="#181818" points="200,707.9941,190,711.9941,200,715.9941,196,711.9941" style="stroke:#181818;stroke-width:1.0;"/><line style="stroke:#181818;stroke-width:1.0;stroke-dasharray:2.0,2.0;" x1="194" x2="354" y1="711.9941" y2="711.9941"/><text fill="#000000" font-family="sans-serif" font-size="13" font-weight="bold" lengthAdjust="spacing" textLength="14" x="206" y="706.7314">15</text><text fill="#000000" font-family="sans-serif" font-size="13" lengthAdjust="spacing" textLength="90" x="224" y="706.7314">status: 200/404</text><polygon fill="#181818" points="11,739.2852,1,743.2852,11,747.2852,7,743.2852" style="stroke:#181818;stroke-width:1.0;"/><line style="stroke:#181818;stroke-width:1.0;stroke-dasharray:2.0,2.0;" x1="5" x2="183" y1="743.2852" y2="743.2852"/><text fill="#000000" font-family="sans-serif" font-size="13" font-weight="bold" lengthAdjust="spacing" textLength="14" x="17" y="738.0225">16</text><text fill="#000000" font-family="sans-serif" font-size="13" lengthAdjust="spacing" textLength="90" x="35" y="738.0225">status: 200/404</text><!--SRC=[XLHDSzem4BthL-pa19aOQ9eJmz2fow6PQQUPaFJKYogsH1CZ4KacoR_lIZ96DeBu86krxxtzqDhsMQejDtm36wsqU39wW-1CZSosdYqNptoDI_TU8HWKZgjrbGBi4r_fLwdMy8zN5XbpqX5qYIyrAe6ma7pjSOCVkCCAFaC1TqOBj1P-Itmby-TYIElZ4ZvDhYUCrqwhUlCN3MCKmKaXjrmvk5ZXJWgyrxN32-0MmWvci_2UpxjWuKor20IO_b5m6_VVj796LnMQe70mIUPWzBLYuCN3hrIApA3HMYH1QvwxHEDVjyfI-xefDQwWrUn9gTdbrG8zRfCKV7ozuLBbIVUurMbSRrlfj7cFpVHkwcLxsbTPb35MwUDmnqjkVNhiYoxcpLLCuUxhmtSOZ4QZSGngnrEXLpXaN3YvuuG9ICQ0daWYTd8DKy0t57G-CFXoHVDchq3Xcni6HgjoO8Hp_oGYVSbwkoBIqj4IQy-AVnIW7uIYj7T_UKbXX46YdiJFs-lDPHJRr26toJIyZjC_Uxr3AgVowA3tO8BwwdqMjHqCZmXj_0W_yZSgnQ6o8yWAFn99ieeJslHc40VeJ5OUVkGDS-LrV9KbgLc-EwtLhRBC-acbQ9FB8j8YopCPfHDmhbFPmjAxJeURdH3PtyYvyUry93QCmHIk9vFnpUI6PJHx7qLFRVyFo0dbHTYiA4xIqeQ4VyP_]--></g></svg>