<?xml version="1.0" encoding="UTF-8" standalone="no"?><svg xmlns="http://www.w3.org/2000/svg" xmlns:xlink="http://www.w3.org/1999/xlink" contentStyleType="text/css" height="474px" preserveAspectRatio="none" style="width:322px;height:474px;background:#FFFFFF;" version="1.1" viewBox="0 0 322 474" width="322px" zoomAndPan="magnify"><defs/><g><rect fill="none" height="41.4453" id="_title" style="stroke:none;stroke-width:1.0;" width="304" x="5" y="5"/><text fill="#000000" font-family="sans-serif" font-size="25" font-weight="bold" lengthAdjust="spacing" text-decoration="underline" textLength="294" x="10" y="35.9521">US 200 - Domain classes</text><!--MD5=[a8c72dcb0993599bf4f10d1dea215f72]
cluster <<aggregate>> Building--><g id="cluster_&lt;&lt;aggregate&gt;&gt; Building"><path d="M15.5,60.4385 L301.5,60.4385 A3.75,3.75 0 0 1 304,62.9385 L311,97.8838 L311.5,97.8838 A2.5,2.5 0 0 1 314,100.3838 L314,464.9385 A2.5,2.5 0 0 1 311.5,467.4385 L15.5,467.4385 A2.5,2.5 0 0 1 13,464.9385 L13,62.9385 A2.5,2.5 0 0 1 15.5,60.4385 " fill="none" style="stroke:#000000;stroke-width:1.5;"/><line style="stroke:#000000;stroke-width:1.5;" x1="13" x2="311" y1="97.8838" y2="97.8838"/><text fill="#000000" font-family="sans-serif" font-size="25" font-weight="bold" lengthAdjust="spacing" textLength="285" x="17" y="88.3906">&lt;&lt;aggregate&gt;&gt; Building</text></g><!--MD5=[8560f289a30852a9f75d64e53f926853]
class Building--><g id="elem_Building"><rect codeLine="10" fill="#F1F1F1" height="65.7969" id="Building" rx="2.5" ry="2.5" style="stroke:#181818;stroke-width:0.5;" width="82" x="73" y="110.4385"/><ellipse cx="88" cy="139.3369" fill="#ADD1B2" rx="11" ry="11" style="stroke:#181818;stroke-width:1.0;"/><path d="M86.8594,140.1338 L86.8594,142.6338 L91.1875,142.6338 L91.1875,141.7119 Q91.1875,141.1025 91.4219,140.8369 Q91.6719,140.5713 92.0469,140.5713 Q92.4219,140.5713 92.6563,140.8369 Q92.8906,141.1025 92.8906,141.7119 L92.8906,144.3369 L84.8906,144.3369 Q84.2656,144.3369 84,144.1025 Q83.75,143.8682 83.75,143.4775 Q83.75,143.1025 84.0156,142.8682 Q84.2813,142.6338 84.8906,142.6338 L85.1563,142.6338 L85.1563,135.9775 L84.8906,135.9775 Q84.2656,135.9775 84,135.7432 Q83.75,135.5088 83.75,135.1182 Q83.75,134.7432 84,134.5088 Q84.2656,134.2744 84.8906,134.2744 L92.5156,134.2744 L92.5156,136.8682 Q92.5156,137.4775 92.2813,137.7432 Q92.0625,137.9932 91.6719,137.9932 Q91.2969,137.9932 91.0625,137.7432 Q90.8281,137.4775 90.8281,136.8682 L90.8281,135.9775 L86.8594,135.9775 L86.8594,138.4307 L88.3438,138.4307 Q88.3438,137.7744 88.4688,137.5869 Q88.7344,137.1807 89.2031,137.1807 Q89.5781,137.1807 89.8125,137.4463 Q90.0469,137.6963 90.0469,138.3057 L90.0469,140.2744 Q90.0469,140.8213 89.9219,141.0088 Q89.6563,141.3994 89.2031,141.3994 Q88.7344,141.3994 88.4688,140.9932 Q88.3438,140.8057 88.3438,140.1338 L86.8594,140.1338 Z " fill="#000000"/><text fill="#000000" font-family="sans-serif" font-size="12" font-style="italic" lengthAdjust="spacing" textLength="43" x="105.5" y="127.8955">«entity»</text><text fill="#000000" font-family="sans-serif" font-size="12" font-style="italic" lengthAdjust="spacing" textLength="35" x="109.5" y="142.9893">«root»</text><text fill="#000000" font-family="sans-serif" font-size="14" lengthAdjust="spacing" textLength="50" x="102" y="160.1592">Building</text><line style="stroke:#181818;stroke-width:0.5;" x1="74" x2="154" y1="168.2354" y2="168.2354"/></g><!--MD5=[b098efa4dd65edfeebe973e4edec7c36]
class Floor--><g id="elem_Floor"><rect codeLine="11" fill="#F1F1F1" height="68.3125" id="Floor" rx="2.5" ry="2.5" style="stroke:#181818;stroke-width:0.5;" width="71" x="78.5" y="254.4385"/><ellipse cx="93.5" cy="275.79" fill="#ADD1B2" rx="11" ry="11" style="stroke:#181818;stroke-width:1.0;"/><path d="M92.3594,276.5869 L92.3594,279.0869 L96.6875,279.0869 L96.6875,278.165 Q96.6875,277.5557 96.9219,277.29 Q97.1719,277.0244 97.5469,277.0244 Q97.9219,277.0244 98.1563,277.29 Q98.3906,277.5557 98.3906,278.165 L98.3906,280.79 L90.3906,280.79 Q89.7656,280.79 89.5,280.5557 Q89.25,280.3213 89.25,279.9307 Q89.25,279.5557 89.5156,279.3213 Q89.7813,279.0869 90.3906,279.0869 L90.6563,279.0869 L90.6563,272.4307 L90.3906,272.4307 Q89.7656,272.4307 89.5,272.1963 Q89.25,271.9619 89.25,271.5713 Q89.25,271.1963 89.5,270.9619 Q89.7656,270.7275 90.3906,270.7275 L98.0156,270.7275 L98.0156,273.3213 Q98.0156,273.9307 97.7813,274.1963 Q97.5625,274.4463 97.1719,274.4463 Q96.7969,274.4463 96.5625,274.1963 Q96.3281,273.9307 96.3281,273.3213 L96.3281,272.4307 L92.3594,272.4307 L92.3594,274.8838 L93.8438,274.8838 Q93.8438,274.2275 93.9688,274.04 Q94.2344,273.6338 94.7031,273.6338 Q95.0781,273.6338 95.3125,273.8994 Q95.5469,274.1494 95.5469,274.7588 L95.5469,276.7275 Q95.5469,277.2744 95.4219,277.4619 Q95.1563,277.8525 94.7031,277.8525 Q94.2344,277.8525 93.9688,277.4463 Q93.8438,277.2588 93.8438,276.5869 L92.3594,276.5869 Z " fill="#000000"/><text fill="#000000" font-family="sans-serif" font-size="12" font-style="italic" lengthAdjust="spacing" textLength="43" x="105.5" y="271.8955">«entity»</text><text fill="#000000" font-family="sans-serif" font-size="14" lengthAdjust="spacing" textLength="33" x="110.5" y="289.0654">Floor</text><line style="stroke:#181818;stroke-width:0.5;" x1="79.5" x2="148.5" y1="297.1416" y2="297.1416"/><text fill="#000000" font-family="sans-serif" font-size="14" lengthAdjust="spacing" textLength="48" x="84.5" y="315.6748">number</text></g><!--MD5=[d218c48b946d362ff1ecd879cabebcad]
class Room--><g id="elem_Room"><rect codeLine="14" fill="#F1F1F1" height="50.7031" id="Room" rx="2.5" ry="2.5" style="stroke:#181818;stroke-width:0.5;" width="71" x="55.5" y="400.4385"/><ellipse cx="70.5" cy="421.79" fill="#ADD1B2" rx="11" ry="11" style="stroke:#181818;stroke-width:1.0;"/><path d="M69.3594,422.5869 L69.3594,425.0869 L73.6875,425.0869 L73.6875,424.165 Q73.6875,423.5557 73.9219,423.29 Q74.1719,423.0244 74.5469,423.0244 Q74.9219,423.0244 75.1563,423.29 Q75.3906,423.5557 75.3906,424.165 L75.3906,426.79 L67.3906,426.79 Q66.7656,426.79 66.5,426.5557 Q66.25,426.3213 66.25,425.9307 Q66.25,425.5557 66.5156,425.3213 Q66.7813,425.0869 67.3906,425.0869 L67.6563,425.0869 L67.6563,418.4307 L67.3906,418.4307 Q66.7656,418.4307 66.5,418.1963 Q66.25,417.9619 66.25,417.5713 Q66.25,417.1963 66.5,416.9619 Q66.7656,416.7275 67.3906,416.7275 L75.0156,416.7275 L75.0156,419.3213 Q75.0156,419.9307 74.7813,420.1963 Q74.5625,420.4463 74.1719,420.4463 Q73.7969,420.4463 73.5625,420.1963 Q73.3281,419.9307 73.3281,419.3213 L73.3281,418.4307 L69.3594,418.4307 L69.3594,420.8838 L70.8438,420.8838 Q70.8438,420.2275 70.9688,420.04 Q71.2344,419.6338 71.7031,419.6338 Q72.0781,419.6338 72.3125,419.8994 Q72.5469,420.1494 72.5469,420.7588 L72.5469,422.7275 Q72.5469,423.2744 72.4219,423.4619 Q72.1563,423.8525 71.7031,423.8525 Q71.2344,423.8525 70.9688,423.4463 Q70.8438,423.2588 70.8438,422.5869 L69.3594,422.5869 Z " fill="#000000"/><text fill="#000000" font-family="sans-serif" font-size="12" font-style="italic" lengthAdjust="spacing" textLength="43" x="82.5" y="417.8955">«entity»</text><text fill="#000000" font-family="sans-serif" font-size="14" lengthAdjust="spacing" textLength="37" x="85.5" y="435.0654">Room</text><line style="stroke:#181818;stroke-width:0.5;" x1="56.5" x2="125.5" y1="443.1416" y2="443.1416"/></g><!--MD5=[009695af4e54f3bba8a9c60dca3e1c94]
class Description--><g id="elem_Description"><rect codeLine="16" fill="#F1F1F1" height="50.7031" id="Description" rx="2.5" ry="2.5" style="stroke:#181818;stroke-width:0.5;" width="109" x="161.5" y="400.4385"/><ellipse cx="176.5" cy="421.79" fill="#FF8B40" rx="11" ry="11" style="stroke:#181818;stroke-width:1.0;"/><path d="M177.0938,425.0557 L179.5625,419.1807 L179.1719,419.1807 Q178.5625,419.1807 178.2969,418.9463 Q178.0313,418.7119 178.0313,418.3213 Q178.0313,417.9463 178.2969,417.7119 Q178.5625,417.4775 179.1719,417.4775 L181.4531,417.4775 Q182.0625,417.4775 182.3281,417.7119 Q182.5938,417.9463 182.5938,418.3213 Q182.5938,418.79 182.1875,419.0557 Q182,419.1807 181.4063,419.1807 L177.9219,427.54 L176.2813,427.54 L172.7969,419.1807 Q172.2031,419.1807 172.0156,419.0557 Q171.6094,418.79 171.6094,418.3213 Q171.6094,417.9463 171.875,417.7119 Q172.1406,417.4775 172.75,417.4775 L175.0469,417.4775 Q175.6563,417.4775 175.9063,417.7119 Q176.1719,417.9463 176.1719,418.3213 Q176.1719,418.7119 175.9063,418.9463 Q175.6563,419.1807 175.0469,419.1807 L174.6406,419.1807 L177.0938,425.0557 Z " fill="#000000"/><text fill="#000000" font-family="sans-serif" font-size="12" font-style="italic" lengthAdjust="spacing" textLength="81" x="188.5" y="417.8955">«value object»</text><text fill="#000000" font-family="sans-serif" font-size="14" lengthAdjust="spacing" textLength="71" x="193.5" y="435.0654">Description</text><line style="stroke:#181818;stroke-width:0.5;" x1="162.5" x2="269.5" y1="443.1416" y2="443.1416"/></g><!--MD5=[c5fead04db50ad272312b70da3db85d3]
link Building to Floor--><g id="link_Building_Floor"><path codeLine="19" d="M114,176.5285 C114,199.5885 114,230.5985 114,253.9585 " fill="none" id="Building-Floor" style="stroke:#181818;stroke-width:1.0;"/><polygon fill="#000000" points="119,220.6143,121.9389,211.5692,116.0611,211.5692,119,220.6143" style="stroke:#000000;stroke-width:1.0;"/><text fill="#000000" font-family="sans-serif" font-size="13" lengthAdjust="spacing" textLength="21" x="128" y="220.9336">has</text><text fill="#000000" font-family="sans-serif" font-size="13" lengthAdjust="spacing" textLength="7" x="106.3547" y="197.6507">1</text><text fill="#000000" font-family="sans-serif" font-size="13" lengthAdjust="spacing" textLength="5" x="108.5391" y="243.6249">*</text></g><!--MD5=[795e9da6541f49f26a461713defed014]
link Floor to Room--><g id="link_Floor_Room"><path codeLine="20" d="M108.37,322.5885 C104.3,346.5585 98.89,378.4385 95.2,400.2085 " fill="none" id="Floor-Room" style="stroke:#181818;stroke-width:1.0;"/><polygon fill="#000000" points="107.1636,366.5438,111.5742,358.1178,105.7792,357.1345,107.1636,366.5438" style="stroke:#000000;stroke-width:1.0;"/><text fill="#000000" font-family="sans-serif" font-size="13" lengthAdjust="spacing" textLength="21" x="117" y="366.9336">has</text><text fill="#000000" font-family="sans-serif" font-size="13" lengthAdjust="spacing" textLength="7" x="99.6296" y="344.1222">1</text><text fill="#000000" font-family="sans-serif" font-size="13" lengthAdjust="spacing" textLength="5" x="90.6144" y="389.5609">*</text></g><!--MD5=[1e45313e092a4be992fb2977d3ec926a]
link Floor to Description--><g id="link_Floor_Description"><path codeLine="22" d="M138.95,322.5885 C155.87,345.0585 178.02,374.4885 194.22,396.0085 " fill="none" id="Floor-to-Description" style="stroke:#181818;stroke-width:1.0;"/><polygon fill="#181818" points="197.38,400.2085,195.1416,390.6174,194.364,396.2205,188.7609,395.4429,197.38,400.2085" style="stroke:#181818;stroke-width:1.0;"/></g><!--MD5=[075664eca4b83a03a9d4eb016bcdbe5d]
@startuml

skinparam titleFontSize 25
title <u>US 200 - Domain classes</u>

hide methods
skinparam classAttributeIconSize 0

'Building aggregate
package "<<aggregate>> Building" {
    entity Building <<entity>> <<root>>
    entity Floor <<entity>>{
        number
    }
    entity Room <<entity>>

    class Description <<(V, #FF8B40) value object>>
}

Building "1" - - "*" Floor : has >
Floor "1" - - "*" Room : has >

Floor -down-> Description

@enduml

@startuml

skinparam titleFontSize 25
title <u>US 200 - Domain classes</u>

hide methods
skinparam classAttributeIconSize 0

package "<<aggregate>> Building" {
    entity Building <<entity>> <<root>>
    entity Floor <<entity>>{
        number
    }
    entity Room <<entity>>

    class Description <<(V, #FF8B40) value object>>
}

Building "1" - - "*" Floor : has >
Floor "1" - - "*" Room : has >

Floor -down-> Description

@enduml

PlantUML version 1.2022.7(Mon Aug 22 18:01:30 WEST 2022)
(GPL source distribution)
Java Runtime: Java(TM) SE Runtime Environment
JVM: Java HotSpot(TM) 64-Bit Server VM
Default Encoding: Cp1252
Language: pt
Country: PT
--></g></svg>