<?xml version="1.0" encoding="us-ascii" standalone="no"?><svg xmlns="http://www.w3.org/2000/svg" xmlns:xlink="http://www.w3.org/1999/xlink" contentStyleType="text/css" height="917px" preserveAspectRatio="none" style="width:820px;height:917px;background:#FFFFFF;" version="1.1" viewBox="0 0 820 917" width="820px" zoomAndPan="magnify"><defs/><g><text fill="#000000" font-family="sans-serif" font-size="14" font-weight="bold" lengthAdjust="spacing" textLength="426" x="198" y="30.1074">System Sequence Diagram (Level 3 - Process View) - US 1150</text><rect fill="#FFFFFF" height="682.7324" style="stroke:#181818;stroke-width:1.0;" width="10" x="62.5" y="133.2422"/><rect fill="#FFFFFF" height="173.7461" style="stroke:#181818;stroke-width:1.0;" width="10" x="257.5" y="156.5332"/><rect fill="#FFFFFF" height="200.0762" style="stroke:#181818;stroke-width:1.0;" width="10" x="257.5" y="361.5703"/><rect fill="#FFFFFF" height="223.0371" style="stroke:#181818;stroke-width:1.0;" width="10" x="257.5" y="592.9375"/><rect fill="#FFFFFF" height="93.873" style="stroke:#181818;stroke-width:1.0;" width="10" x="475.5" y="187.8242"/><rect fill="#FFFFFF" height="137.4941" style="stroke:#181818;stroke-width:1.0;" width="10" x="475.5" y="392.8613"/><rect fill="#FFFFFF" height="160.4551" style="stroke:#181818;stroke-width:1.0;" width="10" x="475.5" y="624.2285"/><rect fill="#FFFFFF" height="31.291" style="stroke:#181818;stroke-width:1.0;" width="10" x="737.5" y="219.1152"/><rect fill="#FFFFFF" height="31.291" style="stroke:#181818;stroke-width:1.0;" width="10" x="737.5" y="424.1523"/><rect fill="#FFFFFF" height="71.582" style="stroke:#181818;stroke-width:1.0;" width="10" x="737.5" y="681.8105"/><rect fill="none" height="83.873" style="stroke:#000000;stroke-width:1.5;" width="380.5" x="432.5" y="639.2285"/><line style="stroke:#181818;stroke-width:0.5;stroke-dasharray:5.0,5.0;" x1="67" x2="67" y1="123.2422" y2="833.9746"/><line style="stroke:#181818;stroke-width:0.5;stroke-dasharray:5.0,5.0;" x1="262" x2="262" y1="123.2422" y2="833.9746"/><line style="stroke:#181818;stroke-width:0.5;stroke-dasharray:5.0,5.0;" x1="352" x2="352" y1="495.2539" y2="833.9746"/><line style="stroke:#181818;stroke-width:0.5;stroke-dasharray:5.0,5.0;" x1="480.5" x2="480.5" y1="123.2422" y2="833.9746"/><line style="stroke:#181818;stroke-width:0.5;stroke-dasharray:5.0,5.0;" x1="742" x2="742" y1="123.2422" y2="833.9746"/><text fill="#000000" font-family="sans-serif" font-size="14" lengthAdjust="spacing" textLength="119" x="5" y="119.7285">Gestor de Campus</text><ellipse cx="67.5" cy="53.1211" fill="#E3E3E3" rx="8" ry="8" style="stroke:#181818;stroke-width:0.5;"/><path d="M67.5,61.1211 L67.5,88.1211 M54.5,69.1211 L80.5,69.1211 M67.5,88.1211 L54.5,103.1211 M67.5,88.1211 L80.5,103.1211 " fill="none" style="stroke:#181818;stroke-width:0.5;"/><text fill="#000000" font-family="sans-serif" font-size="14" lengthAdjust="spacing" textLength="119" x="5" y="848.082">Gestor de Campus</text><ellipse cx="67.5" cy="860.0957" fill="#E3E3E3" rx="8" ry="8" style="stroke:#181818;stroke-width:0.5;"/><path d="M67.5,868.0957 L67.5,895.0957 M54.5,876.0957 L80.5,876.0957 M67.5,895.0957 L54.5,910.0957 M67.5,895.0957 L80.5,910.0957 " fill="none" style="stroke:#181818;stroke-width:0.5;"/><rect fill="#E3E3E3" height="51.2422" rx="2.5" ry="2.5" style="stroke:#181818;stroke-width:0.5;" width="103" x="211" y="71"/><text fill="#000000" font-family="sans-serif" font-size="14" font-style="italic" lengthAdjust="spacing" textLength="89" x="218" y="93.1074">&#171;Component&#187;</text><text fill="#000000" font-family="sans-serif" font-size="14" lengthAdjust="spacing" textLength="77" x="224" y="111.7285">:Component</text><rect fill="#E3E3E3" height="51.2422" rx="2.5" ry="2.5" style="stroke:#181818;stroke-width:0.5;" width="103" x="211" y="832.9746"/><text fill="#000000" font-family="sans-serif" font-size="14" font-style="italic" lengthAdjust="spacing" textLength="89" x="218" y="855.082">&#171;Component&#187;</text><text fill="#000000" font-family="sans-serif" font-size="14" lengthAdjust="spacing" textLength="77" x="224" y="873.7031">:Component</text><rect fill="#E3E3E3" height="32.6211" rx="2.5" ry="2.5" style="stroke:#181818;stroke-width:0.5;" width="56" x="324" y="832.9746"/><text fill="#000000" font-family="sans-serif" font-size="14" lengthAdjust="spacing" textLength="42" x="331" y="855.082">:model</text><rect fill="#E3E3E3" height="51.2422" rx="2.5" ry="2.5" style="stroke:#181818;stroke-width:0.5;" width="76" x="442.5" y="71"/><text fill="#000000" font-family="sans-serif" font-size="14" font-style="italic" lengthAdjust="spacing" textLength="62" x="449.5" y="93.1074">&#171;Service&#187;</text><text fill="#000000" font-family="sans-serif" font-size="14" lengthAdjust="spacing" textLength="49" x="456" y="111.7285">:service</text><rect fill="#E3E3E3" height="51.2422" rx="2.5" ry="2.5" style="stroke:#181818;stroke-width:0.5;" width="76" x="442.5" y="832.9746"/><text fill="#000000" font-family="sans-serif" font-size="14" font-style="italic" lengthAdjust="spacing" textLength="62" x="449.5" y="855.082">&#171;Service&#187;</text><text fill="#000000" font-family="sans-serif" font-size="14" lengthAdjust="spacing" textLength="49" x="456" y="873.7031">:service</text><rect fill="#E3E3E3" height="51.2422" rx="2.5" ry="2.5" style="stroke:#181818;stroke-width:0.5;" width="121" x="682" y="71"/><text fill="#000000" font-family="sans-serif" font-size="14" font-style="italic" lengthAdjust="spacing" textLength="107" x="689" y="93.1074">&#171;container (C4)&#187;</text><text fill="#000000" font-family="sans-serif" font-size="14" lengthAdjust="spacing" textLength="21" x="732" y="111.7285">MD</text><rect fill="#E3E3E3" height="51.2422" rx="2.5" ry="2.5" style="stroke:#181818;stroke-width:0.5;" width="121" x="682" y="832.9746"/><text fill="#000000" font-family="sans-serif" font-size="14" font-style="italic" lengthAdjust="spacing" textLength="107" x="689" y="855.082">&#171;container (C4)&#187;</text><text fill="#000000" font-family="sans-serif" font-size="14" lengthAdjust="spacing" textLength="21" x="732" y="873.7031">MD</text><rect fill="#FFFFFF" height="682.7324" style="stroke:#181818;stroke-width:1.0;" width="10" x="62.5" y="133.2422"/><rect fill="#FFFFFF" height="173.7461" style="stroke:#181818;stroke-width:1.0;" width="10" x="257.5" y="156.5332"/><rect fill="#FFFFFF" height="200.0762" style="stroke:#181818;stroke-width:1.0;" width="10" x="257.5" y="361.5703"/><rect fill="#FFFFFF" height="223.0371" style="stroke:#181818;stroke-width:1.0;" width="10" x="257.5" y="592.9375"/><rect fill="#FFFFFF" height="93.873" style="stroke:#181818;stroke-width:1.0;" width="10" x="475.5" y="187.8242"/><rect fill="#FFFFFF" height="137.4941" style="stroke:#181818;stroke-width:1.0;" width="10" x="475.5" y="392.8613"/><rect fill="#FFFFFF" height="160.4551" style="stroke:#181818;stroke-width:1.0;" width="10" x="475.5" y="624.2285"/><rect fill="#FFFFFF" height="31.291" style="stroke:#181818;stroke-width:1.0;" width="10" x="737.5" y="219.1152"/><rect fill="#FFFFFF" height="31.291" style="stroke:#181818;stroke-width:1.0;" width="10" x="737.5" y="424.1523"/><rect fill="#FFFFFF" height="71.582" style="stroke:#181818;stroke-width:1.0;" width="10" x="737.5" y="681.8105"/><polygon fill="#181818" points="245.5,152.5332,255.5,156.5332,245.5,160.5332,249.5,156.5332" style="stroke:#181818;stroke-width:1.0;"/><line style="stroke:#181818;stroke-width:1.0;" x1="72.5" x2="251.5" y1="156.5332" y2="156.5332"/><text fill="#000000" font-family="sans-serif" font-size="13" font-weight="bold" lengthAdjust="spacing" textLength="7" x="79.5" y="151.2705">1</text><text fill="#000000" font-family="sans-serif" font-size="13" lengthAdjust="spacing" textLength="118" x="90.5" y="151.2705">Asks to edit elevator</text><polygon fill="#181818" points="463.5,183.8242,473.5,187.8242,463.5,191.8242,467.5,187.8242" style="stroke:#181818;stroke-width:1.0;"/><line style="stroke:#181818;stroke-width:1.0;" x1="267.5" x2="469.5" y1="187.8242" y2="187.8242"/><text fill="#000000" font-family="sans-serif" font-size="13" font-weight="bold" lengthAdjust="spacing" textLength="7" x="274.5" y="182.5615">2</text><text fill="#000000" font-family="sans-serif" font-size="13" lengthAdjust="spacing" textLength="94" x="285.5" y="182.5615">getAllBuildings()</text><polygon fill="#181818" points="725.5,215.1152,735.5,219.1152,725.5,223.1152,729.5,219.1152" style="stroke:#181818;stroke-width:1.0;"/><line style="stroke:#181818;stroke-width:1.0;" x1="485.5" x2="731.5" y1="219.1152" y2="219.1152"/><text fill="#000000" font-family="sans-serif" font-size="13" font-weight="bold" lengthAdjust="spacing" textLength="7" x="492.5" y="213.8525">3</text><text fill="#000000" font-family="sans-serif" font-size="13" lengthAdjust="spacing" textLength="97" x="503.5" y="213.8525">GET(../buildings)</text><polygon fill="#181818" points="496.5,246.4063,486.5,250.4063,496.5,254.4063,492.5,250.4063" style="stroke:#181818;stroke-width:1.0;"/><line style="stroke:#181818;stroke-width:1.0;stroke-dasharray:2.0,2.0;" x1="490.5" x2="741.5" y1="250.4063" y2="250.4063"/><text fill="#000000" font-family="sans-serif" font-size="13" font-weight="bold" lengthAdjust="spacing" textLength="7" x="502.5" y="245.1436">4</text><text fill="#000000" font-family="sans-serif" font-size="13" lengthAdjust="spacing" textLength="90" x="513.5" y="245.1436">status: 200/400</text><polygon fill="#181818" points="278.5,277.6973,268.5,281.6973,278.5,285.6973,274.5,281.6973" style="stroke:#181818;stroke-width:1.0;"/><line style="stroke:#181818;stroke-width:1.0;stroke-dasharray:2.0,2.0;" x1="272.5" x2="479.5" y1="281.6973" y2="281.6973"/><text fill="#000000" font-family="sans-serif" font-size="13" font-weight="bold" lengthAdjust="spacing" textLength="7" x="284.5" y="276.4346">5</text><text fill="#000000" font-family="sans-serif" font-size="13" lengthAdjust="spacing" textLength="4" x="295.5" y="276.4346">&#160;</text><polygon fill="#181818" points="83.5,326.2793,73.5,330.2793,83.5,334.2793,79.5,330.2793" style="stroke:#181818;stroke-width:1.0;"/><line style="stroke:#181818;stroke-width:1.0;stroke-dasharray:2.0,2.0;" x1="77.5" x2="261.5" y1="330.2793" y2="330.2793"/><text fill="#000000" font-family="sans-serif" font-size="13" font-weight="bold" lengthAdjust="spacing" textLength="7" x="89.5" y="316.3711">6</text><text fill="#000000" font-family="sans-serif" font-size="13" lengthAdjust="spacing" textLength="100" x="100.5" y="307.7256">asks to choose a</text><text fill="#000000" font-family="sans-serif" font-size="13" lengthAdjust="spacing" textLength="150" x="100.5" y="325.0166">building to edit its elevator</text><polygon fill="#181818" points="245.5,357.5703,255.5,361.5703,245.5,365.5703,249.5,361.5703" style="stroke:#181818;stroke-width:1.0;"/><line style="stroke:#181818;stroke-width:1.0;" x1="72.5" x2="251.5" y1="361.5703" y2="361.5703"/><text fill="#000000" font-family="sans-serif" font-size="13" font-weight="bold" lengthAdjust="spacing" textLength="7" x="79.5" y="356.3076">7</text><text fill="#000000" font-family="sans-serif" font-size="13" lengthAdjust="spacing" textLength="97" x="90.5" y="356.3076">chooses building</text><polygon fill="#181818" points="463.5,388.8613,473.5,392.8613,463.5,396.8613,467.5,392.8613" style="stroke:#181818;stroke-width:1.0;"/><line style="stroke:#181818;stroke-width:1.0;" x1="267.5" x2="469.5" y1="392.8613" y2="392.8613"/><text fill="#000000" font-family="sans-serif" font-size="13" font-weight="bold" lengthAdjust="spacing" textLength="7" x="274.5" y="387.5986">8</text><text fill="#000000" font-family="sans-serif" font-size="13" lengthAdjust="spacing" textLength="178" x="285.5" y="387.5986">getElevatorByBuilding(building)</text><polygon fill="#181818" points="725.5,420.1523,735.5,424.1523,725.5,428.1523,729.5,424.1523" style="stroke:#181818;stroke-width:1.0;"/><line style="stroke:#181818;stroke-width:1.0;" x1="485.5" x2="731.5" y1="424.1523" y2="424.1523"/><text fill="#000000" font-family="sans-serif" font-size="13" font-weight="bold" lengthAdjust="spacing" textLength="7" x="492.5" y="418.8896">9</text><text fill="#000000" font-family="sans-serif" font-size="13" lengthAdjust="spacing" textLength="193" x="503.5" y="418.8896">GET(../buildings/building/elevator)</text><polygon fill="#181818" points="496.5,451.4434,486.5,455.4434,496.5,459.4434,492.5,455.4434" style="stroke:#181818;stroke-width:1.0;"/><line style="stroke:#181818;stroke-width:1.0;stroke-dasharray:2.0,2.0;" x1="490.5" x2="741.5" y1="455.4434" y2="455.4434"/><text fill="#000000" font-family="sans-serif" font-size="13" font-weight="bold" lengthAdjust="spacing" textLength="14" x="502.5" y="450.1807">10</text><text fill="#000000" font-family="sans-serif" font-size="13" lengthAdjust="spacing" textLength="86" x="520.5" y="450.1807">status 200/404</text><polygon fill="#181818" points="391,482.7344,381,486.7344,391,490.7344,387,486.7344" style="stroke:#181818;stroke-width:1.0;"/><line style="stroke:#181818;stroke-width:1.0;stroke-dasharray:2.0,2.0;" x1="385" x2="474.5" y1="486.7344" y2="486.7344"/><text fill="#000000" font-family="sans-serif" font-size="13" font-weight="bold" lengthAdjust="spacing" textLength="14" x="397" y="481.4717">11</text><text fill="#000000" font-family="sans-serif" font-size="13" lengthAdjust="spacing" textLength="4" x="415" y="481.4717">&#160;</text><rect fill="#E3E3E3" height="32.6211" rx="2.5" ry="2.5" style="stroke:#181818;stroke-width:0.5;" width="56" x="324" y="463.4434"/><text fill="#000000" font-family="sans-serif" font-size="14" lengthAdjust="spacing" textLength="42" x="331" y="485.5508">:model</text><polygon fill="#181818" points="278.5,526.3555,268.5,530.3555,278.5,534.3555,274.5,530.3555" style="stroke:#181818;stroke-width:1.0;"/><line style="stroke:#181818;stroke-width:1.0;stroke-dasharray:2.0,2.0;" x1="272.5" x2="479.5" y1="530.3555" y2="530.3555"/><text fill="#000000" font-family="sans-serif" font-size="13" font-weight="bold" lengthAdjust="spacing" textLength="14" x="284.5" y="525.0928">12</text><text fill="#000000" font-family="sans-serif" font-size="13" lengthAdjust="spacing" textLength="4" x="302.5" y="525.0928">&#160;</text><polygon fill="#181818" points="83.5,557.6465,73.5,561.6465,83.5,565.6465,79.5,561.6465" style="stroke:#181818;stroke-width:1.0;"/><line style="stroke:#181818;stroke-width:1.0;stroke-dasharray:2.0,2.0;" x1="77.5" x2="261.5" y1="561.6465" y2="561.6465"/><text fill="#000000" font-family="sans-serif" font-size="13" font-weight="bold" lengthAdjust="spacing" textLength="14" x="89.5" y="556.3838">13</text><text fill="#000000" font-family="sans-serif" font-size="13" lengthAdjust="spacing" textLength="109" x="107.5" y="556.3838">ask to edit elevator</text><polygon fill="#181818" points="245.5,588.9375,255.5,592.9375,245.5,596.9375,249.5,592.9375" style="stroke:#181818;stroke-width:1.0;"/><line style="stroke:#181818;stroke-width:1.0;" x1="72.5" x2="251.5" y1="592.9375" y2="592.9375"/><text fill="#000000" font-family="sans-serif" font-size="13" font-weight="bold" lengthAdjust="spacing" textLength="14" x="79.5" y="587.6748">14</text><text fill="#000000" font-family="sans-serif" font-size="13" lengthAdjust="spacing" textLength="76" x="97.5" y="587.6748">edits elevator</text><polygon fill="#181818" points="463.5,620.2285,473.5,624.2285,463.5,628.2285,467.5,624.2285" style="stroke:#181818;stroke-width:1.0;"/><line style="stroke:#181818;stroke-width:1.0;" x1="267.5" x2="469.5" y1="624.2285" y2="624.2285"/><text fill="#000000" font-family="sans-serif" font-size="13" font-weight="bold" lengthAdjust="spacing" textLength="14" x="274.5" y="618.9658">15</text><text fill="#000000" font-family="sans-serif" font-size="13" lengthAdjust="spacing" textLength="137" x="292.5" y="618.9658">updateElevator(elevator)</text><path d="M432.5,639.2285 L493.5,639.2285 L493.5,648.5195 L483.5,658.5195 L432.5,658.5195 L432.5,639.2285 " fill="#EEEEEE" style="stroke:#000000;stroke-width:1.5;"/><rect fill="none" height="83.873" style="stroke:#000000;stroke-width:1.5;" width="380.5" x="432.5" y="639.2285"/><text fill="#000000" font-family="sans-serif" font-size="13" font-weight="bold" lengthAdjust="spacing" textLength="16" x="447.5" y="654.2568">alt</text><polygon fill="#181818" points="725.5,677.8105,735.5,681.8105,725.5,685.8105,729.5,681.8105" style="stroke:#181818;stroke-width:1.0;"/><line style="stroke:#181818;stroke-width:1.0;" x1="485.5" x2="731.5" y1="681.8105" y2="681.8105"/><text fill="#000000" font-family="sans-serif" font-size="13" font-weight="bold" lengthAdjust="spacing" textLength="14" x="492.5" y="676.5479">16</text><text fill="#000000" font-family="sans-serif" font-size="13" lengthAdjust="spacing" textLength="192" x="510.5" y="676.5479">PUT(../buildings/building/elevator)</text><line style="stroke:#000000;stroke-width:1.0;stroke-dasharray:2.0,2.0;" x1="432.5" x2="813" y1="690.8105" y2="690.8105"/><polygon fill="#181818" points="725.5,711.1016,735.5,715.1016,725.5,719.1016,729.5,715.1016" style="stroke:#181818;stroke-width:1.0;"/><line style="stroke:#181818;stroke-width:1.0;" x1="485.5" x2="731.5" y1="715.1016" y2="715.1016"/><text fill="#000000" font-family="sans-serif" font-size="13" font-weight="bold" lengthAdjust="spacing" textLength="14" x="492.5" y="709.8389">17</text><text fill="#000000" font-family="sans-serif" font-size="13" lengthAdjust="spacing" textLength="210" x="510.5" y="709.8389">PATCH(../buildings/building/elevator)</text><polygon fill="#181818" points="496.5,749.3926,486.5,753.3926,496.5,757.3926,492.5,753.3926" style="stroke:#181818;stroke-width:1.0;"/><line style="stroke:#181818;stroke-width:1.0;stroke-dasharray:2.0,2.0;" x1="490.5" x2="741.5" y1="753.3926" y2="753.3926"/><text fill="#000000" font-family="sans-serif" font-size="13" font-weight="bold" lengthAdjust="spacing" textLength="14" x="502.5" y="748.1299">18</text><text fill="#000000" font-family="sans-serif" font-size="13" lengthAdjust="spacing" textLength="86" x="520.5" y="748.1299">status 200/400</text><polygon fill="#181818" points="278.5,780.6836,268.5,784.6836,278.5,788.6836,274.5,784.6836" style="stroke:#181818;stroke-width:1.0;"/><line style="stroke:#181818;stroke-width:1.0;stroke-dasharray:2.0,2.0;" x1="272.5" x2="479.5" y1="784.6836" y2="784.6836"/><text fill="#000000" font-family="sans-serif" font-size="13" font-weight="bold" lengthAdjust="spacing" textLength="14" x="284.5" y="779.4209">19</text><text fill="#000000" font-family="sans-serif" font-size="13" lengthAdjust="spacing" textLength="4" x="302.5" y="779.4209">&#160;</text><polygon fill="#181818" points="78.5,811.9746,68.5,815.9746,78.5,819.9746,74.5,815.9746" style="stroke:#181818;stroke-width:1.0;"/><line style="stroke:#181818;stroke-width:1.0;stroke-dasharray:2.0,2.0;" x1="72.5" x2="261.5" y1="815.9746" y2="815.9746"/><text fill="#000000" font-family="sans-serif" font-size="13" font-weight="bold" lengthAdjust="spacing" textLength="14" x="84.5" y="810.7119">20</text><text fill="#000000" font-family="sans-serif" font-size="13" lengthAdjust="spacing" textLength="49" x="102.5" y="810.7119">success</text><!--SRC=[ZPHDRzim38Rl-XL4Jau1D-wMNOmWG1eNtM412gJjQHTLvXmXikIPSehy-ydVhkScFPcsNhuc7nAYezGPptaAgT5677AJ8jYyG4RTISR5aIUujsU5aAEmN2TgAA03Zysxr0dyuOgGyS8QNQHlc3DcfNLP-pDPJ66FVmlK0Y6IF2aplLzuGWNVmOUdt0WaWbU9xtFt_hA7kxiV0MEC2sjoc3qYbSyOOSlJhA0PS8BgZ35NXvL2PbnRc8LRasP6exQLf7k3rQgBr-jHJcfYL9L-LqQZKyBy90LMv_iwTcvDDFRQHRLFv2J2QCkbnXoyxNBkb6KtyiGjDgNNpVdhlimGDdGai0OmbXPGePFNoZgnKxA-DMVGL1D2WdQZr7qXLUncGjwyJsqqhEt1fUsY41uVdhtRsyLRcpB8s4MTUENxbPeijmM5y2q85iiWO35EgVrXJqDDMqFTUMawQ9qthOk3CUGO_TPjKHqGQQc7Cl3jVpO9jNOaQFscU7uEzA7vuVsvvUgrHXDuh_7jeaNRo4VYpEsEFwoWHjuGNx8HyW_Cg_MzkM5V7yImQwUju5MJ-7y7luwxpAEBo_i9x2ABdQxbxKq0wkhcoev9FxrS9utL7JMriet7vddxyxgBZY-FARWqfOi3cPm75QAy7wT7CFZOt8Zi7m00]--></g></svg>