<?xml version="1.0" encoding="UTF-8" standalone="no"?><svg xmlns="http://www.w3.org/2000/svg" xmlns:xlink="http://www.w3.org/1999/xlink" contentStyleType="text/css" height="440px" preserveAspectRatio="none" style="width:881px;height:440px;background:#FFFFFF;" version="1.1" viewBox="0 0 881 440" width="881px" zoomAndPan="magnify"><defs/><g><rect fill="none" height="41.4453" id="_title" style="stroke:none;stroke-width:1.0;" width="304" x="281.5" y="5"/><text fill="#000000" font-family="sans-serif" font-size="25" font-weight="bold" lengthAdjust="spacing" text-decoration="underline" textLength="294" x="286.5" y="35.9521">US 380 - Domain classes</text><!--MD5=[5000652680dbefc36d6ababc6259b72b]
cluster <<aggregate>> Device--><g id="cluster_&lt;&lt;aggregate&gt;&gt; Device"><path d="M8.5,60.4385 L277.5,60.4385 A3.75,3.75 0 0 1 280,62.9385 L287,97.8838 L871.5,97.8838 A2.5,2.5 0 0 1 874,100.3838 L874,430.9385 A2.5,2.5 0 0 1 871.5,433.4385 L8.5,433.4385 A2.5,2.5 0 0 1 6,430.9385 L6,62.9385 A2.5,2.5 0 0 1 8.5,60.4385 " fill="none" style="stroke:#000000;stroke-width:1.5;"/><line style="stroke:#000000;stroke-width:1.5;" x1="6" x2="287" y1="97.8838" y2="97.8838"/><text fill="#000000" font-family="sans-serif" font-size="25" font-weight="bold" lengthAdjust="spacing" textLength="268" x="10" y="88.3906">&lt;&lt;aggregate&gt;&gt; Device</text></g><!--MD5=[fc539fa3f3b7db9b31467e896d367b3b]
class Device--><g id="elem_Device"><rect codeLine="10" fill="#F1F1F1" height="65.7969" id="Device" rx="2.5" ry="2.5" style="stroke:#181818;stroke-width:0.5;" width="75" x="405.5" y="110.4385"/><ellipse cx="420.5" cy="139.3369" fill="#ADD1B2" rx="11" ry="11" style="stroke:#181818;stroke-width:1.0;"/><path d="M419.3594,140.1338 L419.3594,142.6338 L423.6875,142.6338 L423.6875,141.7119 Q423.6875,141.1025 423.9219,140.8369 Q424.1719,140.5713 424.5469,140.5713 Q424.9219,140.5713 425.1563,140.8369 Q425.3906,141.1025 425.3906,141.7119 L425.3906,144.3369 L417.3906,144.3369 Q416.7656,144.3369 416.5,144.1025 Q416.25,143.8682 416.25,143.4775 Q416.25,143.1025 416.5156,142.8682 Q416.7813,142.6338 417.3906,142.6338 L417.6563,142.6338 L417.6563,135.9775 L417.3906,135.9775 Q416.7656,135.9775 416.5,135.7432 Q416.25,135.5088 416.25,135.1182 Q416.25,134.7432 416.5,134.5088 Q416.7656,134.2744 417.3906,134.2744 L425.0156,134.2744 L425.0156,136.8682 Q425.0156,137.4775 424.7813,137.7432 Q424.5625,137.9932 424.1719,137.9932 Q423.7969,137.9932 423.5625,137.7432 Q423.3281,137.4775 423.3281,136.8682 L423.3281,135.9775 L419.3594,135.9775 L419.3594,138.4307 L420.8438,138.4307 Q420.8438,137.7744 420.9688,137.5869 Q421.2344,137.1807 421.7031,137.1807 Q422.0781,137.1807 422.3125,137.4463 Q422.5469,137.6963 422.5469,138.3057 L422.5469,140.2744 Q422.5469,140.8213 422.4219,141.0088 Q422.1563,141.3994 421.7031,141.3994 Q421.2344,141.3994 420.9688,140.9932 Q420.8438,140.8057 420.8438,140.1338 L419.3594,140.1338 Z " fill="#000000"/><text fill="#000000" font-family="sans-serif" font-size="12" font-style="italic" lengthAdjust="spacing" textLength="43" x="434.5" y="127.8955">«entity»</text><text fill="#000000" font-family="sans-serif" font-size="12" font-style="italic" lengthAdjust="spacing" textLength="35" x="438.5" y="142.9893">«root»</text><text fill="#000000" font-family="sans-serif" font-size="14" lengthAdjust="spacing" textLength="43" x="434.5" y="160.1592">Device</text><line style="stroke:#181818;stroke-width:0.5;" x1="406.5" x2="479.5" y1="168.2354" y2="168.2354"/></g><!--MD5=[ba580110b1777f63e0f1dfe3fcefdac0]
class Code--><g id="elem_Code"><rect codeLine="12" fill="#F1F1F1" height="50.7031" id="Code" rx="2.5" ry="2.5" style="stroke:#181818;stroke-width:0.5;" width="109" x="22.5" y="254.4385"/><ellipse cx="37.5" cy="275.79" fill="#FF8B40" rx="11" ry="11" style="stroke:#181818;stroke-width:1.0;"/><path d="M38.0938,279.0557 L40.5625,273.1807 L40.1719,273.1807 Q39.5625,273.1807 39.2969,272.9463 Q39.0313,272.7119 39.0313,272.3213 Q39.0313,271.9463 39.2969,271.7119 Q39.5625,271.4775 40.1719,271.4775 L42.4531,271.4775 Q43.0625,271.4775 43.3281,271.7119 Q43.5938,271.9463 43.5938,272.3213 Q43.5938,272.79 43.1875,273.0557 Q43,273.1807 42.4063,273.1807 L38.9219,281.54 L37.2813,281.54 L33.7969,273.1807 Q33.2031,273.1807 33.0156,273.0557 Q32.6094,272.79 32.6094,272.3213 Q32.6094,271.9463 32.875,271.7119 Q33.1406,271.4775 33.75,271.4775 L36.0469,271.4775 Q36.6563,271.4775 36.9063,271.7119 Q37.1719,271.9463 37.1719,272.3213 Q37.1719,272.7119 36.9063,272.9463 Q36.6563,273.1807 36.0469,273.1807 L35.6406,273.1807 L38.0938,279.0557 Z " fill="#000000"/><text fill="#000000" font-family="sans-serif" font-size="12" font-style="italic" lengthAdjust="spacing" textLength="81" x="49.5" y="271.8955">«value object»</text><text fill="#000000" font-family="sans-serif" font-size="14" lengthAdjust="spacing" textLength="34" x="73" y="289.0654">Code</text><line style="stroke:#181818;stroke-width:0.5;" x1="23.5" x2="130.5" y1="297.1416" y2="297.1416"/></g><!--MD5=[009695af4e54f3bba8a9c60dca3e1c94]
class Description--><g id="elem_Description"><rect codeLine="13" fill="#F1F1F1" height="50.7031" id="Description" rx="2.5" ry="2.5" style="stroke:#181818;stroke-width:0.5;" width="109" x="166.5" y="254.4385"/><ellipse cx="181.5" cy="275.79" fill="#FF8B40" rx="11" ry="11" style="stroke:#181818;stroke-width:1.0;"/><path d="M182.0938,279.0557 L184.5625,273.1807 L184.1719,273.1807 Q183.5625,273.1807 183.2969,272.9463 Q183.0313,272.7119 183.0313,272.3213 Q183.0313,271.9463 183.2969,271.7119 Q183.5625,271.4775 184.1719,271.4775 L186.4531,271.4775 Q187.0625,271.4775 187.3281,271.7119 Q187.5938,271.9463 187.5938,272.3213 Q187.5938,272.79 187.1875,273.0557 Q187,273.1807 186.4063,273.1807 L182.9219,281.54 L181.2813,281.54 L177.7969,273.1807 Q177.2031,273.1807 177.0156,273.0557 Q176.6094,272.79 176.6094,272.3213 Q176.6094,271.9463 176.875,271.7119 Q177.1406,271.4775 177.75,271.4775 L180.0469,271.4775 Q180.6563,271.4775 180.9063,271.7119 Q181.1719,271.9463 181.1719,272.3213 Q181.1719,272.7119 180.9063,272.9463 Q180.6563,273.1807 180.0469,273.1807 L179.6406,273.1807 L182.0938,279.0557 Z " fill="#000000"/><text fill="#000000" font-family="sans-serif" font-size="12" font-style="italic" lengthAdjust="spacing" textLength="81" x="193.5" y="271.8955">«value object»</text><text fill="#000000" font-family="sans-serif" font-size="14" lengthAdjust="spacing" textLength="71" x="198.5" y="289.0654">Description</text><line style="stroke:#181818;stroke-width:0.5;" x1="167.5" x2="274.5" y1="297.1416" y2="297.1416"/></g><!--MD5=[2145d3acc3e1d933aedd8d638120a59b]
class SerialNumber--><g id="elem_SerialNumber"><rect codeLine="14" fill="#F1F1F1" height="50.7031" id="SerialNumber" rx="2.5" ry="2.5" style="stroke:#181818;stroke-width:0.5;" width="117" x="310.5" y="254.4385"/><ellipse cx="325.5" cy="275.79" fill="#FF8B40" rx="11" ry="11" style="stroke:#181818;stroke-width:1.0;"/><path d="M326.0938,279.0557 L328.5625,273.1807 L328.1719,273.1807 Q327.5625,273.1807 327.2969,272.9463 Q327.0313,272.7119 327.0313,272.3213 Q327.0313,271.9463 327.2969,271.7119 Q327.5625,271.4775 328.1719,271.4775 L330.4531,271.4775 Q331.0625,271.4775 331.3281,271.7119 Q331.5938,271.9463 331.5938,272.3213 Q331.5938,272.79 331.1875,273.0557 Q331,273.1807 330.4063,273.1807 L326.9219,281.54 L325.2813,281.54 L321.7969,273.1807 Q321.2031,273.1807 321.0156,273.0557 Q320.6094,272.79 320.6094,272.3213 Q320.6094,271.9463 320.875,271.7119 Q321.1406,271.4775 321.75,271.4775 L324.0469,271.4775 Q324.6563,271.4775 324.9063,271.7119 Q325.1719,271.9463 325.1719,272.3213 Q325.1719,272.7119 324.9063,272.9463 Q324.6563,273.1807 324.0469,273.1807 L323.6406,273.1807 L326.0938,279.0557 Z " fill="#000000"/><text fill="#000000" font-family="sans-serif" font-size="12" font-style="italic" lengthAdjust="spacing" textLength="81" x="341.5" y="271.8955">«value object»</text><text fill="#000000" font-family="sans-serif" font-size="14" lengthAdjust="spacing" textLength="85" x="339.5" y="289.0654">SerialNumber</text><line style="stroke:#181818;stroke-width:0.5;" x1="311.5" x2="426.5" y1="297.1416" y2="297.1416"/></g><!--MD5=[a6c99dc740669a944c9e548db6d151dd]
class Nickname--><g id="elem_Nickname"><rect codeLine="15" fill="#F1F1F1" height="50.7031" id="Nickname" rx="2.5" ry="2.5" style="stroke:#181818;stroke-width:0.5;" width="109" x="462.5" y="254.4385"/><ellipse cx="477.5" cy="275.79" fill="#FF8B40" rx="11" ry="11" style="stroke:#181818;stroke-width:1.0;"/><path d="M478.0938,279.0557 L480.5625,273.1807 L480.1719,273.1807 Q479.5625,273.1807 479.2969,272.9463 Q479.0313,272.7119 479.0313,272.3213 Q479.0313,271.9463 479.2969,271.7119 Q479.5625,271.4775 480.1719,271.4775 L482.4531,271.4775 Q483.0625,271.4775 483.3281,271.7119 Q483.5938,271.9463 483.5938,272.3213 Q483.5938,272.79 483.1875,273.0557 Q483,273.1807 482.4063,273.1807 L478.9219,281.54 L477.2813,281.54 L473.7969,273.1807 Q473.2031,273.1807 473.0156,273.0557 Q472.6094,272.79 472.6094,272.3213 Q472.6094,271.9463 472.875,271.7119 Q473.1406,271.4775 473.75,271.4775 L476.0469,271.4775 Q476.6563,271.4775 476.9063,271.7119 Q477.1719,271.9463 477.1719,272.3213 Q477.1719,272.7119 476.9063,272.9463 Q476.6563,273.1807 476.0469,273.1807 L475.6406,273.1807 L478.0938,279.0557 Z " fill="#000000"/><text fill="#000000" font-family="sans-serif" font-size="12" font-style="italic" lengthAdjust="spacing" textLength="81" x="489.5" y="271.8955">«value object»</text><text fill="#000000" font-family="sans-serif" font-size="14" lengthAdjust="spacing" textLength="61" x="499.5" y="289.0654">Nickname</text><line style="stroke:#181818;stroke-width:0.5;" x1="463.5" x2="570.5" y1="297.1416" y2="297.1416"/></g><!--MD5=[e3d83ec5fd90ea9f3f2bfe265cb53458]
class Status--><g id="elem_Status"><rect codeLine="16" fill="#F1F1F1" height="50.7031" id="Status" rx="2.5" ry="2.5" style="stroke:#181818;stroke-width:0.5;" width="109" x="606.5" y="254.4385"/><ellipse cx="621.5" cy="275.79" fill="#FF8B40" rx="11" ry="11" style="stroke:#181818;stroke-width:1.0;"/><path d="M622.0938,279.0557 L624.5625,273.1807 L624.1719,273.1807 Q623.5625,273.1807 623.2969,272.9463 Q623.0313,272.7119 623.0313,272.3213 Q623.0313,271.9463 623.2969,271.7119 Q623.5625,271.4775 624.1719,271.4775 L626.4531,271.4775 Q627.0625,271.4775 627.3281,271.7119 Q627.5938,271.9463 627.5938,272.3213 Q627.5938,272.79 627.1875,273.0557 Q627,273.1807 626.4063,273.1807 L622.9219,281.54 L621.2813,281.54 L617.7969,273.1807 Q617.2031,273.1807 617.0156,273.0557 Q616.6094,272.79 616.6094,272.3213 Q616.6094,271.9463 616.875,271.7119 Q617.1406,271.4775 617.75,271.4775 L620.0469,271.4775 Q620.6563,271.4775 620.9063,271.7119 Q621.1719,271.9463 621.1719,272.3213 Q621.1719,272.7119 620.9063,272.9463 Q620.6563,273.1807 620.0469,273.1807 L619.6406,273.1807 L622.0938,279.0557 Z " fill="#000000"/><text fill="#000000" font-family="sans-serif" font-size="12" font-style="italic" lengthAdjust="spacing" textLength="81" x="633.5" y="271.8955">«value object»</text><text fill="#000000" font-family="sans-serif" font-size="14" lengthAdjust="spacing" textLength="40" x="654" y="289.0654">Status</text><line style="stroke:#181818;stroke-width:0.5;" x1="607.5" x2="714.5" y1="297.1416" y2="297.1416"/></g><!--MD5=[1499b21a70e8fe1944bc4cdebe8209d2]
class DeviceType--><g id="elem_DeviceType"><rect codeLine="18" fill="#F1F1F1" height="50.7031" id="DeviceType" rx="2.5" ry="2.5" style="stroke:#181818;stroke-width:0.5;" width="107" x="750.5" y="254.4385"/><ellipse cx="765.5" cy="275.79" fill="#ADD1B2" rx="11" ry="11" style="stroke:#181818;stroke-width:1.0;"/><path d="M764.3594,276.5869 L764.3594,279.0869 L768.6875,279.0869 L768.6875,278.165 Q768.6875,277.5557 768.9219,277.29 Q769.1719,277.0244 769.5469,277.0244 Q769.9219,277.0244 770.1563,277.29 Q770.3906,277.5557 770.3906,278.165 L770.3906,280.79 L762.3906,280.79 Q761.7656,280.79 761.5,280.5557 Q761.25,280.3213 761.25,279.9307 Q761.25,279.5557 761.5156,279.3213 Q761.7813,279.0869 762.3906,279.0869 L762.6563,279.0869 L762.6563,272.4307 L762.3906,272.4307 Q761.7656,272.4307 761.5,272.1963 Q761.25,271.9619 761.25,271.5713 Q761.25,271.1963 761.5,270.9619 Q761.7656,270.7275 762.3906,270.7275 L770.0156,270.7275 L770.0156,273.3213 Q770.0156,273.9307 769.7813,274.1963 Q769.5625,274.4463 769.1719,274.4463 Q768.7969,274.4463 768.5625,274.1963 Q768.3281,273.9307 768.3281,273.3213 L768.3281,272.4307 L764.3594,272.4307 L764.3594,274.8838 L765.8438,274.8838 Q765.8438,274.2275 765.9688,274.04 Q766.2344,273.6338 766.7031,273.6338 Q767.0781,273.6338 767.3125,273.8994 Q767.5469,274.1494 767.5469,274.7588 L767.5469,276.7275 Q767.5469,277.2744 767.4219,277.4619 Q767.1563,277.8525 766.7031,277.8525 Q766.2344,277.8525 765.9688,277.4463 Q765.8438,277.2588 765.8438,276.5869 L764.3594,276.5869 Z " fill="#000000"/><text fill="#000000" font-family="sans-serif" font-size="12" font-style="italic" lengthAdjust="spacing" textLength="43" x="795.5" y="271.8955">«entity»</text><text fill="#000000" font-family="sans-serif" font-size="14" lengthAdjust="spacing" textLength="75" x="779.5" y="289.0654">DeviceType</text><line style="stroke:#181818;stroke-width:0.5;" x1="751.5" x2="856.5" y1="297.1416" y2="297.1416"/></g><!--MD5=[4296a1ab0576a383a1a509d52c22ebf0]
class Type--><g id="elem_Type"><rect codeLine="20" fill="#F1F1F1" height="50.7031" id="Type" rx="2.5" ry="2.5" style="stroke:#181818;stroke-width:0.5;" width="109" x="748.5" y="366.4385"/><ellipse cx="763.5" cy="387.79" fill="#FF8B40" rx="11" ry="11" style="stroke:#181818;stroke-width:1.0;"/><path d="M764.0938,391.0557 L766.5625,385.1807 L766.1719,385.1807 Q765.5625,385.1807 765.2969,384.9463 Q765.0313,384.7119 765.0313,384.3213 Q765.0313,383.9463 765.2969,383.7119 Q765.5625,383.4775 766.1719,383.4775 L768.4531,383.4775 Q769.0625,383.4775 769.3281,383.7119 Q769.5938,383.9463 769.5938,384.3213 Q769.5938,384.79 769.1875,385.0557 Q769,385.1807 768.4063,385.1807 L764.9219,393.54 L763.2813,393.54 L759.7969,385.1807 Q759.2031,385.1807 759.0156,385.0557 Q758.6094,384.79 758.6094,384.3213 Q758.6094,383.9463 758.875,383.7119 Q759.1406,383.4775 759.75,383.4775 L762.0469,383.4775 Q762.6563,383.4775 762.9063,383.7119 Q763.1719,383.9463 763.1719,384.3213 Q763.1719,384.7119 762.9063,384.9463 Q762.6563,385.1807 762.0469,385.1807 L761.6406,385.1807 L764.0938,391.0557 Z " fill="#000000"/><text fill="#000000" font-family="sans-serif" font-size="12" font-style="italic" lengthAdjust="spacing" textLength="81" x="775.5" y="383.8955">«value object»</text><text fill="#000000" font-family="sans-serif" font-size="14" lengthAdjust="spacing" textLength="32" x="800" y="401.0654">Type</text><line style="stroke:#181818;stroke-width:0.5;" x1="749.5" x2="856.5" y1="409.1416" y2="409.1416"/></g><!--MD5=[69fac9d97114e59bbfdc4bc5f11ffc78]
link Device to Code--><g id="link_Device_Code"><path codeLine="23" d="M405.21,158.3285 C341.59,181.7085 212.61,229.1085 136.66,257.0185 " fill="none" id="Device-to-Code" style="stroke:#181818;stroke-width:1.0;"/><polygon fill="#181818" points="131.73,258.8285,141.5582,259.4663,136.421,257.098,138.7894,251.9608,131.73,258.8285" style="stroke:#181818;stroke-width:1.0;"/></g><!--MD5=[d027e8aa11bfb0c0e0c6087203792137]
link Device to Description--><g id="link_Device_Description"><path codeLine="24" d="M405.34,167.2585 C366.79,190.6085 306.87,226.9085 265.88,251.7485 " fill="none" id="Device-to-Description" style="stroke:#181818;stroke-width:1.0;"/><polygon fill="#181818" points="261.48,254.4185,271.2506,253.1796,265.7573,251.8292,267.1078,246.3359,261.48,254.4185" style="stroke:#181818;stroke-width:1.0;"/></g><!--MD5=[9eab77f579e78da1a94bf320a2139870]
link Device to SerialNumber--><g id="link_Device_SerialNumber"><path codeLine="25" d="M425.28,176.6585 C413.06,198.8585 396.96,228.1285 385.11,249.6685 " fill="none" id="Device-to-SerialNumber" style="stroke:#181818;stroke-width:1.0;"/><polygon fill="#181818" points="382.64,254.1385,390.4694,248.1635,385.0403,249.7523,383.4515,244.3231,382.64,254.1385" style="stroke:#181818;stroke-width:1.0;"/></g><!--MD5=[eef1ed6047f1d149247a19d7e2d80b9c]
link Device to Nickname--><g id="link_Device_Nickname"><path codeLine="26" d="M460.72,176.6585 C472.94,198.8585 489.04,228.1285 500.89,249.6685 " fill="none" id="Device-to-Nickname" style="stroke:#181818;stroke-width:1.0;"/><polygon fill="#181818" points="503.36,254.1385,502.5485,244.3231,500.9597,249.7523,495.5306,248.1635,503.36,254.1385" style="stroke:#181818;stroke-width:1.0;"/></g><!--MD5=[32dd706f17dba7c6127774e6eb163cb8]
link Device to Status--><g id="link_Device_Status"><path codeLine="27" d="M480.97,167.8685 C518.87,191.2485 577.06,227.1485 616.97,251.7685 " fill="none" id="Device-to-Status" style="stroke:#181818;stroke-width:1.0;"/><polygon fill="#181818" points="621.25,254.4185,615.6936,246.2866,616.9956,251.7916,611.4907,253.0936,621.25,254.4185" style="stroke:#181818;stroke-width:1.0;"/></g><!--MD5=[824198a096cf9ebd12339344418cdbca]
link DeviceType to Type--><g id="link_DeviceType_Type"><path codeLine="29" d="M803.78,305.6285 C803.63,322.0385 803.43,343.6985 803.27,361.0885 " fill="none" id="DeviceType-to-Type" style="stroke:#181818;stroke-width:1.0;"/><polygon fill="#181818" points="803.22,366.3385,807.297,357.3731,803.2629,361.3387,799.2973,357.3045,803.22,366.3385" style="stroke:#181818;stroke-width:1.0;"/></g><!--MD5=[2be63105821541ac61b467022f381176]
link Device to DeviceType--><g id="link_Device_DeviceType"><path codeLine="31" d="M480.61,158.4485 C544.99,182.4385 676.5,231.4385 750.45,258.9885 " fill="none" id="Device-DeviceType" style="stroke:#181818;stroke-width:1.0;"/><polygon fill="#000000" points="664.6853,217.36,657.2356,211.448,655.1834,216.9559,664.6853,217.36" style="stroke:#000000;stroke-width:1.0;"/><text fill="#000000" font-family="sans-serif" font-size="13" lengthAdjust="spacing" textLength="21" x="669" y="220.9336">has</text><text fill="#000000" font-family="sans-serif" font-size="13" lengthAdjust="spacing" textLength="7" x="488.4466" y="157.3327">1</text><text fill="#000000" font-family="sans-serif" font-size="13" lengthAdjust="spacing" textLength="7" x="735.4273" y="252.4581">1</text></g><!--MD5=[88a71562ef09fad732bb2a8ec3c1a969]
@startuml

skinparam titleFontSize 25
title <u>US 380 - Domain classes</u>

hide methods
skinparam classAttributeIconSize 0

'Device aggregate
package "<<aggregate>> Device" {
    entity Device <<entity>> <<root>>

    class Code <<(V, #FF8B40) value object>>
    class Description <<(V, #FF8B40) value object>>
    class SerialNumber <<(V, #FF8B40) value object>>
    class Nickname <<(V, #FF8B40) value object>>
    class Status <<(V, #FF8B40) value object>>

    entity DeviceType <<entity>>

    class Type <<(V, #FF8B40) value object>>
}

Device -Down-> Code
Device -Down-> Description
Device -Down-> SerialNumber
Device -Down-> Nickname
Device -Down-> Status

DeviceType -Down-> Type

Device "1" - - "1" DeviceType : has >
@enduml

@startuml

skinparam titleFontSize 25
title <u>US 380 - Domain classes</u>

hide methods
skinparam classAttributeIconSize 0

package "<<aggregate>> Device" {
    entity Device <<entity>> <<root>>

    class Code <<(V, #FF8B40) value object>>
    class Description <<(V, #FF8B40) value object>>
    class SerialNumber <<(V, #FF8B40) value object>>
    class Nickname <<(V, #FF8B40) value object>>
    class Status <<(V, #FF8B40) value object>>

    entity DeviceType <<entity>>

    class Type <<(V, #FF8B40) value object>>
}

Device -Down-> Code
Device -Down-> Description
Device -Down-> SerialNumber
Device -Down-> Nickname
Device -Down-> Status

DeviceType -Down-> Type

Device "1" - - "1" DeviceType : has >
@enduml

PlantUML version 1.2022.7(Mon Aug 22 18:01:30 WEST 2022)
(GPL source distribution)
Java Runtime: Java(TM) SE Runtime Environment
JVM: Java HotSpot(TM) 64-Bit Server VM
Default Encoding: Cp1252
Language: pt
Country: PT
--></g></svg>